max v2;#N vpatcher 74 44 966 715;#P origin 67 0;#P window setfont "Sans Serif" 14.;#P flonum 72 152 57 14 0 0 0 3 0 0 0 221 221 221 222 222 222 0 0 0;#P window setfont "Sans Serif" 12.;#P window linecount 1;#P comment 235 538 208 196620 for poly~;#P outlet 102 528 15 0;#P window setfont "Sans Serif" 14.;#N out~ 1;#P newobj 175 534 57 196622 out~ 1;#B color 14;#P window setfont "Sans Serif" 12.;#P comment 333 33 208 196620 for poly~;#P comment 56 26 208 196620 for subpatches and abstractions;#P window setfont "Sans Serif" 14.;#N in 1;#P newobj 293 32 35 196622 in 1;#B color 14;#P newex 131 173 34 196622 * 0.;#P window setfont "Sans Serif" 9.;#P comment 60 89 32 196617 slope;#P comment 211 87 468 196617 the third through tenth list elements are frequency ratios \, multiplied by the fundamental frequency.;#P window setfont "Sans Serif" 14.;#P comment 775 342 35 196622 s^7;#P comment 687 342 35 196622 s^6;#P comment 601 342 35 196622 s^5;#P comment 514 340 35 196622 s^4;#P comment 426 339 35 196622 s^3;#P comment 339 339 35 196622 s^2;#P newex 740 342 34 196622 * 0.;#P newex 653 341 34 196622 * 0.;#P newex 566 340 34 196622 * 0.;#P newex 479 339 34 196622 * 0.;#P newex 392 338 34 196622 * 0.;#P newex 305 339 34 196622 * 0.;#P newex 218 264 27 196622 f;#N vpatcher 30 89 630 489;#P outlet 74 193 15 0;#P inlet 60 76 15 0;#P connect 0 0 1 0;#P pop;#P newobj 131 461 123 196622 patcher through;#P newex 723 174 34 196622 * 0.;#P newex 723 385 27 196622 *~;#P newex 723 201 55 196622 cycle~;#P newex 636 174 34 196622 * 0.;#P newex 636 385 27 196622 *~;#P newex 636 201 55 196622 cycle~;#P newex 549 174 34 196622 * 0.;#P newex 549 385 27 196622 *~;#P newex 549 201 55 196622 cycle~;#P newex 462 174 34 196622 * 0.;#P newex 462 385 27 196622 *~;#P newex 462 201 55 196622 cycle~;#P newex 375 174 34 196622 * 0.;#P newex 375 385 27 196622 *~;#P newex 375 201 55 196622 cycle~;#P newex 288 174 34 196622 * 0.;#P newex 201 175 34 196622 * 0.;#P newex 288 385 27 196622 *~;#P newex 288 201 55 196622 cycle~;#P newex 201 385 27 196622 *~;#P newex 54 101 703 196622 unpack f f f f f f f f f f;#N comlet list (slope \, base freq \, 8 ratios);#P inlet 39 24 15 0;#P newex 201 201 55 196622 cycle~;#P newex 131 201 55 196622 cycle~;#P comment 225 243 72 196622 s (slope);#P window setfont "Sans Serif" 9.;#P comment 96 89 111 196617 fundamental frequency;#P window linecount 10;#P comment 4 248 123 196617 The amplitudes of each partial are s^n \, where 'n' \, where 'n' is the partial number. The first one is s^0 \, or 1 \, so we don't need to multiply anything. The second one is s^1 \, so we just multiply the signal by the slope. The others are s^2...s^7.;#P connect 5 0 6 0;#P connect 44 0 6 0;#P connect 6 1 50 0;#P connect 27 0 48 0;#P connect 6 1 43 0;#P connect 43 0 3 0;#P connect 9 0 27 0;#P connect 7 0 27 0;#P connect 3 0 27 0;#P connect 25 0 27 0;#P connect 22 0 27 0;#P connect 19 0 27 0;#P connect 16 0 27 0;#P connect 13 0 27 0;#P connect 6 2 43 1;#P connect 27 0 47 0;#P connect 6 1 10 0;#P connect 10 0 4 0;#P connect 4 0 7 0;#P fasten 6 0 28 0 59 239 223 239;#P connect 28 0 7 1;#P connect 6 3 10 1;#P connect 6 1 11 0;#P connect 11 0 8 0;#P connect 8 0 9 0;#P connect 28 0 29 0;#P connect 29 0 9 1;#P connect 6 4 11 1;#P connect 28 0 29 1;#P connect 6 1 14 0;#P connect 14 0 12 0;#P connect 12 0 13 0;#P fasten 29 0 30 0 310 367 376 367 376 334 397 334;#P connect 30 0 13 1;#P connect 6 5 14 1;#P connect 28 0 30 1;#P connect 6 1 17 0;#P connect 17 0 15 0;#P connect 15 0 16 0;#P fasten 30 0 31 0 397 367 463 367 463 336 484 336;#P connect 31 0 16 1;#P connect 6 6 17 1;#P connect 28 0 31 1;#P connect 6 1 20 0;#P connect 20 0 18 0;#P connect 18 0 19 0;#P fasten 31 0 32 0 484 369 559 369 559 336 571 336;#P connect 32 0 19 1;#P connect 6 7 20 1;#P connect 28 0 32 1;#P connect 6 1 23 0;#P connect 23 0 21 0;#P connect 21 0 22 0;#P fasten 32 0 33 0 571 369 646 369 646 337 658 337;#P connect 33 0 22 1;#P connect 6 8 23 1;#P connect 28 0 33 1;#P connect 6 1 26 0;#P connect 26 0 24 0;#P connect 24 0 25 0;#P fasten 33 0 34 0 658 370 732 370 732 339 745 339;#P connect 34 0 25 1;#P connect 6 9 26 1;#P connect 28 0 34 1;#P pop;