{
	"patcher" : 	{
		"fileversion" : 1,
		"rect" : [ 125.0, 45.0, 532.0, 410.0 ],
		"bgcolor" : [ 0.87451, 0.933333, 1.0, 1.0 ],
		"bglocked" : 0,
		"defrect" : [ 125.0, 45.0, 532.0, 410.0 ],
		"openrect" : [ 0.0, 0.0, 0.0, 0.0 ],
		"openinpresentation" : 0,
		"default_fontsize" : 12.0,
		"default_fontface" : 0,
		"default_fontname" : "Arial",
		"gridonopen" : 0,
		"gridsize" : [ 15.0, 15.0 ],
		"gridsnaponopen" : 0,
		"toolbarvisible" : 1,
		"boxanimatetime" : 200,
		"imprint" : 0,
		"boxes" : [ 			{
				"box" : 				{
					"maxclass" : "ezdac~",
					"numoutlets" : 0,
					"patching_rect" : [ 176.0, 263.0, 45.0, 45.0 ],
					"id" : "obj-22",
					"numinlets" : 2
				}

			}
, 			{
				"box" : 				{
					"maxclass" : "multislider",
					"slidercolor" : [ 0.588235, 0.588235, 0.705882, 1.0 ],
					"candicane5" : [ 0.584314, 0.827451, 0.431373, 1.0 ],
					"numoutlets" : 2,
					"thickness" : 4,
					"candicane3" : [ 0.290196, 0.411765, 0.713726, 1.0 ],
					"candicane8" : [ 0.027451, 0.447059, 0.501961, 1.0 ],
					"bordercolor" : [ 0.588235, 0.588235, 0.705882, 1.0 ],
					"outlettype" : [ "", "" ],
					"peakcolor" : [ 0.498039, 0.498039, 0.498039, 1.0 ],
					"candicane6" : [ 0.733333, 0.035294, 0.788235, 1.0 ],
					"contdata" : 1,
					"ghostbar" : 40,
					"patching_rect" : [ 33.0, 131.0, 125.0, 21.0 ],
					"candicane4" : [ 0.439216, 0.619608, 0.070588, 1.0 ],
					"setminmax" : [ 0.0, 1.0 ],
					"id" : "obj-1",
					"candicane2" : [ 0.145098, 0.203922, 0.356863, 1.0 ],
					"candicane7" : [ 0.878431, 0.243137, 0.145098, 1.0 ],
					"numinlets" : 1,
					"orientation" : 0,
					"spacing" : 2
				}

			}
, 			{
				"box" : 				{
					"maxclass" : "bpatcher",
					"offset" : [ -18.0, -68.0 ],
					"numoutlets" : 0,
					"lockeddragscroll" : 1,
					"args" : [ "scale~", "signal-domain version of scale" ],
					"patching_rect" : [ 3.0, 6.0, 511.0, 76.0 ],
					"id" : "obj-2",
					"name" : "banner.maxpat",
					"numinlets" : 0
				}

			}
, 			{
				"box" : 				{
					"maxclass" : "bpatcher",
					"numoutlets" : 0,
					"args" : [ "scale~.help", "1.1b", "Michael Zbyszynski", "scale~", 2999 ],
					"patching_rect" : [ 199.0, 319.0, 310.0, 85.0 ],
					"id" : "obj-3",
					"name" : "badge.maxpat",
					"numinlets" : 0
				}

			}
, 			{
				"box" : 				{
					"maxclass" : "newobj",
					"text" : "p status",
					"numoutlets" : 0,
					"fontname" : "Arial",
					"fontsize" : 12.0,
					"patching_rect" : [ 440.0, 294.0, 59.0, 20.0 ],
					"id" : "obj-4",
					"color" : [ 1.0, 0.890196, 0.090196, 1.0 ],
					"numinlets" : 0,
					"patcher" : 					{
						"fileversion" : 1,
						"rect" : [ 298.0, 133.0, 429.0, 322.0 ],
						"bglocked" : 0,
						"defrect" : [ 298.0, 133.0, 429.0, 322.0 ],
						"openrect" : [ 0.0, 0.0, 0.0, 0.0 ],
						"openinpresentation" : 0,
						"default_fontsize" : 12.0,
						"default_fontface" : 0,
						"default_fontname" : "Arial",
						"gridonopen" : 0,
						"gridsize" : [ 15.0, 15.0 ],
						"gridsnaponopen" : 0,
						"toolbarvisible" : 1,
						"boxanimatetime" : 200,
						"imprint" : 0,
						"boxes" : [ 							{
								"box" : 								{
									"maxclass" : "comment",
									"text" : "updated to Max 5, December 2008, mzed",
									"numoutlets" : 0,
									"fontname" : "Arial",
									"presentation_rect" : [ 20.0, 83.0, 0.0, 0.0 ],
									"frgb" : [ 0.0, 0.0, 0.0, 1.0 ],
									"fontsize" : 9.0,
									"patching_rect" : [ 20.0, 83.0, 290.0, 17.0 ],
									"id" : "obj-2",
									"numinlets" : 1
								}

							}
, 							{
								"box" : 								{
									"maxclass" : "comment",
									"text" : "Michael Zbyszynski reviewed this patch in July-August 2007 for for correctness, style, generality, efficiency, and overall design.",
									"linecount" : 2,
									"numoutlets" : 0,
									"fontname" : "Arial",
									"frgb" : [ 0.0, 0.0, 0.0, 1.0 ],
									"fontsize" : 9.0,
									"patching_rect" : [ 18.0, 41.0, 290.0, 27.0 ],
									"id" : "obj-1",
									"numinlets" : 1
								}

							}
 ],
						"lines" : [  ]
					}
,
					"saved_object_attributes" : 					{
						"globalpatchername" : "",
						"fontname" : "Arial",
						"default_fontface" : 0,
						"default_fontname" : "Arial",
						"fontface" : 0,
						"fontsize" : 12.0,
						"default_fontsize" : 12.0
					}

				}

			}
, 			{
				"box" : 				{
					"maxclass" : "comment",
					"text" : "Only works when DSP is on (duh!)",
					"numoutlets" : 0,
					"fontname" : "Arial",
					"frgb" : [ 0.0, 0.0, 0.0, 1.0 ],
					"fontsize" : 12.0,
					"patching_rect" : [ 204.0, 111.0, 216.0, 20.0 ],
					"id" : "obj-5",
					"numinlets" : 1
				}

			}
, 			{
				"box" : 				{
					"maxclass" : "flonum",
					"numoutlets" : 2,
					"fontname" : "Arial",
					"htextcolor" : [ 0.870588, 0.870588, 0.870588, 1.0 ],
					"outlettype" : [ "float", "bang" ],
					"triscale" : 0.9,
					"fontsize" : 12.0,
					"patching_rect" : [ 313.0, 179.0, 40.0, 20.0 ],
					"id" : "obj-7",
					"bgcolor" : [ 0.866667, 0.866667, 0.866667, 1.0 ],
					"numinlets" : 1
				}

			}
, 			{
				"box" : 				{
					"maxclass" : "comment",
					"text" : "Int arguments do not truncate signal to an integer.",
					"numoutlets" : 0,
					"fontname" : "Arial",
					"frgb" : [ 0.0, 0.0, 0.0, 1.0 ],
					"fontsize" : 12.0,
					"patching_rect" : [ 204.0, 151.0, 275.0, 20.0 ],
					"id" : "obj-8",
					"numinlets" : 1
				}

			}
, 			{
				"box" : 				{
					"maxclass" : "comment",
					"text" : "No exponential mode, just linear",
					"numoutlets" : 0,
					"fontname" : "Arial",
					"frgb" : [ 0.0, 0.0, 0.0, 1.0 ],
					"fontsize" : 12.0,
					"patching_rect" : [ 204.0, 130.0, 217.0, 20.0 ],
					"id" : "obj-9",
					"numinlets" : 1
				}

			}
, 			{
				"box" : 				{
					"maxclass" : "comment",
					"text" : "Limitations compared to scale:",
					"numoutlets" : 0,
					"fontname" : "Arial Bold",
					"frgb" : [ 0.0, 0.0, 0.0, 1.0 ],
					"fontsize" : 12.0,
					"patching_rect" : [ 186.0, 92.0, 211.0, 20.0 ],
					"id" : "obj-10",
					"numinlets" : 1
				}

			}
, 			{
				"box" : 				{
					"maxclass" : "flonum",
					"numoutlets" : 2,
					"fontname" : "Arial",
					"htextcolor" : [ 0.870588, 0.870588, 0.870588, 1.0 ],
					"outlettype" : [ "float", "bang" ],
					"triscale" : 0.9,
					"fontsize" : 14.0,
					"patching_rect" : [ 271.0, 268.0, 78.0, 23.0 ],
					"id" : "obj-11",
					"bgcolor" : [ 0.611765, 0.701961, 1.0, 1.0 ],
					"numinlets" : 1
				}

			}
, 			{
				"box" : 				{
					"maxclass" : "newobj",
					"text" : "scale 0. 1. -0.5 2.5",
					"numoutlets" : 1,
					"fontname" : "Arial",
					"outlettype" : [ "float" ],
					"fontsize" : 12.0,
					"patching_rect" : [ 271.0, 238.0, 127.0, 20.0 ],
					"id" : "obj-12",
					"numinlets" : 6
				}

			}
, 			{
				"box" : 				{
					"maxclass" : "number~",
					"numoutlets" : 2,
					"fontname" : "Arial",
					"htextcolor" : [ 0.870588, 0.870588, 0.870588, 1.0 ],
					"outlettype" : [ "signal", "float" ],
					"mode" : 2,
					"fontsize" : 14.0,
					"patching_rect" : [ 33.0, 268.0, 80.0, 23.0 ],
					"sig" : 0.0,
					"id" : "obj-13",
					"bgcolor" : [ 0.611765, 0.701961, 1.0, 1.0 ],
					"interval" : 250.0,
					"numinlets" : 2
				}

			}
, 			{
				"box" : 				{
					"maxclass" : "flonum",
					"numoutlets" : 2,
					"fontname" : "Arial",
					"htextcolor" : [ 0.870588, 0.870588, 0.870588, 1.0 ],
					"outlettype" : [ "float", "bang" ],
					"triscale" : 0.9,
					"fontsize" : 12.0,
					"patching_rect" : [ 33.0, 163.0, 40.0, 20.0 ],
					"id" : "obj-14",
					"bgcolor" : [ 0.866667, 0.866667, 0.866667, 1.0 ],
					"numinlets" : 1
				}

			}
, 			{
				"box" : 				{
					"maxclass" : "newobj",
					"text" : "sig~",
					"numoutlets" : 1,
					"fontname" : "Arial",
					"outlettype" : [ "signal" ],
					"fontsize" : 12.0,
					"patching_rect" : [ 33.0, 189.0, 36.0, 20.0 ],
					"id" : "obj-15",
					"numinlets" : 1
				}

			}
, 			{
				"box" : 				{
					"maxclass" : "newobj",
					"text" : "scale~ 0. 1. -0.5 2.5",
					"numoutlets" : 1,
					"fontname" : "Arial",
					"outlettype" : [ "signal" ],
					"fontsize" : 12.0,
					"patching_rect" : [ 33.0, 238.0, 135.0, 20.0 ],
					"id" : "obj-16",
					"color" : [ 1.0, 0.890196, 0.090196, 1.0 ],
					"numinlets" : 5
				}

			}
, 			{
				"box" : 				{
					"maxclass" : "newobj",
					"text" : "pcontrol",
					"numoutlets" : 1,
					"fontname" : "Arial",
					"hidden" : 1,
					"outlettype" : [ "" ],
					"fontsize" : 9.0,
					"patching_rect" : [ 14.0, 515.0, 45.0, 17.0 ],
					"id" : "obj-18",
					"numinlets" : 1
				}

			}
, 			{
				"box" : 				{
					"maxclass" : "comment",
					"text" : "see also:",
					"numoutlets" : 0,
					"fontname" : "Arial",
					"frgb" : [ 0.4, 0.4, 0.8, 1.0 ],
					"fontsize" : 12.0,
					"patching_rect" : [ 36.0, 358.0, 61.0, 20.0 ],
					"id" : "obj-19",
					"textcolor" : [ 0.4, 0.4, 0.8, 1.0 ],
					"numinlets" : 1
				}

			}
, 			{
				"box" : 				{
					"maxclass" : "message",
					"text" : "scale",
					"numoutlets" : 1,
					"fontname" : "Arial",
					"outlettype" : [ "" ],
					"fontsize" : 12.0,
					"patching_rect" : [ 36.0, 381.0, 41.0, 18.0 ],
					"id" : "obj-20",
					"bgcolor" : [ 0.4, 0.4, 0.8, 1.0 ],
					"textcolor" : [ 1.0, 1.0, 1.0, 1.0 ],
					"numinlets" : 2
				}

			}
, 			{
				"box" : 				{
					"maxclass" : "newobj",
					"text" : "prepend help",
					"numoutlets" : 1,
					"fontname" : "Arial",
					"hidden" : 1,
					"outlettype" : [ "" ],
					"fontsize" : 9.0,
					"patching_rect" : [ 14.0, 493.0, 66.0, 17.0 ],
					"id" : "obj-21",
					"numinlets" : 1
				}

			}
 ],
		"lines" : [ 			{
				"patchline" : 				{
					"source" : [ "obj-7", 0 ],
					"destination" : [ "obj-12", 4 ],
					"hidden" : 0,
					"midpoints" : [  ]
				}

			}
, 			{
				"patchline" : 				{
					"source" : [ "obj-12", 0 ],
					"destination" : [ "obj-11", 0 ],
					"hidden" : 0,
					"midpoints" : [  ]
				}

			}
, 			{
				"patchline" : 				{
					"source" : [ "obj-14", 0 ],
					"destination" : [ "obj-12", 0 ],
					"hidden" : 0,
					"midpoints" : [  ]
				}

			}
, 			{
				"patchline" : 				{
					"source" : [ "obj-7", 0 ],
					"destination" : [ "obj-16", 4 ],
					"hidden" : 0,
					"midpoints" : [  ]
				}

			}
, 			{
				"patchline" : 				{
					"source" : [ "obj-16", 0 ],
					"destination" : [ "obj-13", 0 ],
					"hidden" : 0,
					"midpoints" : [  ]
				}

			}
, 			{
				"patchline" : 				{
					"source" : [ "obj-15", 0 ],
					"destination" : [ "obj-16", 0 ],
					"hidden" : 0,
					"midpoints" : [  ]
				}

			}
, 			{
				"patchline" : 				{
					"source" : [ "obj-14", 0 ],
					"destination" : [ "obj-15", 0 ],
					"hidden" : 0,
					"midpoints" : [  ]
				}

			}
, 			{
				"patchline" : 				{
					"source" : [ "obj-1", 0 ],
					"destination" : [ "obj-14", 0 ],
					"hidden" : 0,
					"midpoints" : [  ]
				}

			}
, 			{
				"patchline" : 				{
					"source" : [ "obj-21", 0 ],
					"destination" : [ "obj-18", 0 ],
					"hidden" : 1,
					"midpoints" : [  ]
				}

			}
, 			{
				"patchline" : 				{
					"source" : [ "obj-20", 0 ],
					"destination" : [ "obj-21", 0 ],
					"hidden" : 1,
					"midpoints" : [  ]
				}

			}
 ]
	}

}
