max v2;#N vpatcher 123 157 945 623;#P origin 67 0;#P window setfont "Sans Serif" 14.;#P newex 131 137 34 196622 * 0.;#P window setfont "Sans Serif" 9.;#P comment 60 53 32 196617 slope;#P comment 211 51 468 196617 the third through tenth list elements are frequency ratios \, multiplied by the fundamental frequency.;#P window setfont "Sans Serif" 14.;#P comment 775 306 35 196622 s^7;#P comment 687 306 35 196622 s^6;#P comment 601 306 35 196622 s^5;#P comment 514 304 35 196622 s^4;#P comment 426 303 35 196622 s^3;#P comment 339 303 35 196622 s^2;#P newex 740 306 34 196622 * 0.;#P newex 653 305 34 196622 * 0.;#P newex 566 304 34 196622 * 0.;#P newex 479 303 34 196622 * 0.;#P newex 392 302 34 196622 * 0.;#P newex 305 303 34 196622 * 0.;#P newex 218 228 27 196622 f;#P outlet 131 425 15 0;#P newex 723 138 34 196622 * 0.;#P newex 723 349 27 196622 *~;#P newex 723 165 55 196622 cycle~;#P newex 636 138 34 196622 * 0.;#P newex 636 349 27 196622 *~;#P newex 636 165 55 196622 cycle~;#P newex 549 138 34 196622 * 0.;#P newex 549 349 27 196622 *~;#P newex 549 165 55 196622 cycle~;#P newex 462 138 34 196622 * 0.;#P newex 462 349 27 196622 *~;#P newex 462 165 55 196622 cycle~;#P newex 375 138 34 196622 * 0.;#P newex 375 349 27 196622 *~;#P newex 375 165 55 196622 cycle~;#P newex 288 138 34 196622 * 0.;#P newex 201 139 34 196622 * 0.;#P newex 288 349 27 196622 *~;#P newex 288 165 55 196622 cycle~;#P newex 201 349 27 196622 *~;#P newex 54 65 703 196622 unpack f f f f f f f f f f;#N comlet list (slope \, base freq \, 8 ratios);#P inlet 54 25 15 0;#P newex 201 165 55 196622 cycle~;#P newex 131 165 55 196622 cycle~;#P comment 225 207 72 196622 s (slope);#P window setfont "Sans Serif" 9.;#P comment 96 53 111 196617 fundamental frequency;#P comment 4 212 123 196617 The amplitudes of each partial are s^n \, where 'n' \, where 'n' is the partial number. The first one is s^0 \, or 1 \, so we don't need to multiply anything. The second one is s^1 \, so we just multiply the signal by the slope. The others are s^2...s^7.;#P connect 5 0 6 0;#P connect 6 1 43 0;#P connect 43 0 3 0;#P connect 3 0 27 0;#P connect 7 0 27 0;#P connect 9 0 27 0;#P connect 13 0 27 0;#P connect 16 0 27 0;#P connect 19 0 27 0;#P connect 22 0 27 0;#P connect 25 0 27 0;#P connect 6 2 43 1;#P connect 6 1 10 0;#P connect 10 0 4 0;#P connect 4 0 7 0;#P fasten 6 0 28 0 59 203 223 203;#P connect 28 0 7 1;#P connect 6 3 10 1;#P connect 6 1 11 0;#P connect 11 0 8 0;#P connect 8 0 9 0;#P connect 28 0 29 0;#P connect 29 0 9 1;#P connect 6 4 11 1;#P connect 28 0 29 1;#P connect 6 1 14 0;#P connect 14 0 12 0;#P connect 12 0 13 0;#P fasten 29 0 30 0 310 331 376 331 376 298 397 298;#P connect 30 0 13 1;#P connect 6 5 14 1;#P connect 28 0 30 1;#P connect 6 1 17 0;#P connect 17 0 15 0;#P connect 15 0 16 0;#P fasten 30 0 31 0 397 331 463 331 463 300 484 300;#P connect 31 0 16 1;#P connect 6 6 17 1;#P connect 28 0 31 1;#P connect 6 1 20 0;#P connect 20 0 18 0;#P connect 18 0 19 0;#P fasten 31 0 32 0 484 333 559 333 559 300 571 300;#P connect 32 0 19 1;#P connect 6 7 20 1;#P connect 28 0 32 1;#P connect 6 1 23 0;#P connect 23 0 21 0;#P connect 21 0 22 0;#P fasten 32 0 33 0 571 333 646 333 646 301 658 301;#P connect 33 0 22 1;#P connect 6 8 23 1;#P connect 28 0 33 1;#P connect 6 1 26 0;#P connect 26 0 24 0;#P connect 24 0 25 0;#P fasten 33 0 34 0 658 334 732 334 732 303 745 303;#P connect 34 0 25 1;#P connect 6 9 26 1;#P connect 28 0 34 1;#P pop;