{
	"patcher" : 	{
		"fileversion" : 1,
		"rect" : [ 10.0, 59.0, 500.0, 357.0 ],
		"bgcolor" : [ 0.870588, 0.929412, 1.0, 1.0 ],
		"bglocked" : 0,
		"defrect" : [ 10.0, 59.0, 500.0, 357.0 ],
		"openrect" : [ 0.0, 0.0, 0.0, 0.0 ],
		"openinpresentation" : 0,
		"default_fontsize" : 12.0,
		"default_fontface" : 0,
		"default_fontname" : "Arial",
		"gridonopen" : 0,
		"gridsize" : [ 15.0, 15.0 ],
		"gridsnaponopen" : 0,
		"toolbarvisible" : 1,
		"boxanimatetime" : 200,
		"imprint" : 0,
		"boxes" : [ 			{
				"box" : 				{
					"maxclass" : "bpatcher",
					"id" : "obj-1",
					"args" : [ "quad_amp_panning", "1.0b", "Michael Zbyszynski", "quad_amp_panning", 2512 ],
					"numinlets" : 0,
					"patching_rect" : [ 190.0, 263.0, 292.0, 86.0 ],
					"numoutlets" : 0,
					"name" : "badge.maxpat"
				}

			}
, 			{
				"box" : 				{
					"maxclass" : "outlet",
					"id" : "obj-2",
					"numinlets" : 1,
					"patching_rect" : [ 153.0, 267.0, 15.0, 15.0 ],
					"numoutlets" : 0,
					"comment" : ""
				}

			}
, 			{
				"box" : 				{
					"maxclass" : "inlet",
					"id" : "obj-3",
					"numinlets" : 0,
					"patching_rect" : [ 290.0, 21.0, 15.0, 15.0 ],
					"numoutlets" : 1,
					"outlettype" : [ "" ],
					"comment" : ""
				}

			}
, 			{
				"box" : 				{
					"maxclass" : "inlet",
					"id" : "obj-4",
					"numinlets" : 0,
					"patching_rect" : [ 26.0, 21.0, 15.0, 15.0 ],
					"numoutlets" : 1,
					"outlettype" : [ "" ],
					"comment" : ""
				}

			}
, 			{
				"box" : 				{
					"maxclass" : "newobj",
					"text" : "/ 100.",
					"id" : "obj-5",
					"fontname" : "Arial",
					"fontsize" : 9.0,
					"numinlets" : 2,
					"patching_rect" : [ 249.0, 71.0, 39.0, 17.0 ],
					"numoutlets" : 1,
					"outlettype" : [ "float" ]
				}

			}
, 			{
				"box" : 				{
					"maxclass" : "newobj",
					"text" : "!- 100",
					"id" : "obj-6",
					"fontname" : "Arial",
					"fontsize" : 9.0,
					"numinlets" : 2,
					"patching_rect" : [ 249.0, 45.0, 38.0, 17.0 ],
					"numoutlets" : 1,
					"outlettype" : [ "int" ]
				}

			}
, 			{
				"box" : 				{
					"maxclass" : "message",
					"text" : "0 3 $1",
					"id" : "obj-7",
					"fontname" : "Arial",
					"fontsize" : 9.0,
					"numinlets" : 2,
					"patching_rect" : [ 232.0, 234.0, 39.0, 15.0 ],
					"numoutlets" : 1,
					"outlettype" : [ "" ]
				}

			}
, 			{
				"box" : 				{
					"maxclass" : "newobj",
					"text" : "pow 0.5",
					"id" : "obj-8",
					"fontname" : "Arial",
					"fontsize" : 9.0,
					"numinlets" : 2,
					"patching_rect" : [ 232.0, 206.0, 45.0, 17.0 ],
					"numoutlets" : 1,
					"outlettype" : [ "float" ]
				}

			}
, 			{
				"box" : 				{
					"maxclass" : "newobj",
					"text" : "* 1.",
					"id" : "obj-9",
					"fontname" : "Arial",
					"fontsize" : 9.0,
					"numinlets" : 2,
					"patching_rect" : [ 232.0, 179.0, 27.0, 17.0 ],
					"numoutlets" : 1,
					"outlettype" : [ "float" ]
				}

			}
, 			{
				"box" : 				{
					"maxclass" : "newobj",
					"text" : "* 1.",
					"id" : "obj-10",
					"fontname" : "Arial",
					"fontsize" : 9.0,
					"numinlets" : 2,
					"patching_rect" : [ 232.0, 149.0, 27.0, 17.0 ],
					"numoutlets" : 1,
					"outlettype" : [ "float" ]
				}

			}
, 			{
				"box" : 				{
					"maxclass" : "message",
					"text" : "0 2 $1",
					"id" : "obj-11",
					"fontname" : "Arial",
					"fontsize" : 9.0,
					"numinlets" : 2,
					"patching_rect" : [ 175.0, 234.0, 39.0, 15.0 ],
					"numoutlets" : 1,
					"outlettype" : [ "" ]
				}

			}
, 			{
				"box" : 				{
					"maxclass" : "newobj",
					"text" : "pow 0.5",
					"id" : "obj-12",
					"fontname" : "Arial",
					"fontsize" : 9.0,
					"numinlets" : 2,
					"patching_rect" : [ 175.0, 206.0, 45.0, 17.0 ],
					"numoutlets" : 1,
					"outlettype" : [ "float" ]
				}

			}
, 			{
				"box" : 				{
					"maxclass" : "newobj",
					"text" : "* 1.",
					"id" : "obj-13",
					"fontname" : "Arial",
					"fontsize" : 9.0,
					"numinlets" : 2,
					"patching_rect" : [ 175.0, 179.0, 27.0, 17.0 ],
					"numoutlets" : 1,
					"outlettype" : [ "float" ]
				}

			}
, 			{
				"box" : 				{
					"maxclass" : "newobj",
					"text" : "* 1.",
					"id" : "obj-14",
					"fontname" : "Arial",
					"fontsize" : 9.0,
					"numinlets" : 2,
					"patching_rect" : [ 175.0, 149.0, 27.0, 17.0 ],
					"numoutlets" : 1,
					"outlettype" : [ "float" ]
				}

			}
, 			{
				"box" : 				{
					"maxclass" : "message",
					"text" : "0 1 $1",
					"id" : "obj-15",
					"fontname" : "Arial",
					"fontsize" : 9.0,
					"numinlets" : 2,
					"patching_rect" : [ 123.0, 234.0, 39.0, 15.0 ],
					"numoutlets" : 1,
					"outlettype" : [ "" ]
				}

			}
, 			{
				"box" : 				{
					"maxclass" : "newobj",
					"text" : "pow 0.5",
					"id" : "obj-16",
					"fontname" : "Arial",
					"fontsize" : 9.0,
					"numinlets" : 2,
					"patching_rect" : [ 123.0, 206.0, 45.0, 17.0 ],
					"numoutlets" : 1,
					"outlettype" : [ "float" ]
				}

			}
, 			{
				"box" : 				{
					"maxclass" : "newobj",
					"text" : "* 1.",
					"id" : "obj-17",
					"fontname" : "Arial",
					"fontsize" : 9.0,
					"numinlets" : 2,
					"patching_rect" : [ 123.0, 179.0, 27.0, 17.0 ],
					"numoutlets" : 1,
					"outlettype" : [ "float" ]
				}

			}
, 			{
				"box" : 				{
					"maxclass" : "newobj",
					"text" : "* 1.",
					"id" : "obj-18",
					"fontname" : "Arial",
					"fontsize" : 9.0,
					"numinlets" : 2,
					"patching_rect" : [ 123.0, 149.0, 27.0, 17.0 ],
					"numoutlets" : 1,
					"outlettype" : [ "float" ]
				}

			}
, 			{
				"box" : 				{
					"maxclass" : "newobj",
					"text" : "/ 100.",
					"id" : "obj-19",
					"fontname" : "Arial",
					"fontsize" : 9.0,
					"numinlets" : 2,
					"patching_rect" : [ 26.0, 71.0, 39.0, 17.0 ],
					"numoutlets" : 1,
					"outlettype" : [ "float" ]
				}

			}
, 			{
				"box" : 				{
					"maxclass" : "message",
					"text" : "0 0 $1",
					"id" : "obj-20",
					"fontname" : "Arial",
					"fontsize" : 9.0,
					"numinlets" : 2,
					"patching_rect" : [ 66.0, 234.0, 39.0, 15.0 ],
					"numoutlets" : 1,
					"outlettype" : [ "" ]
				}

			}
, 			{
				"box" : 				{
					"maxclass" : "newobj",
					"text" : "pow 0.5",
					"id" : "obj-21",
					"fontname" : "Arial",
					"fontsize" : 9.0,
					"numinlets" : 2,
					"patching_rect" : [ 66.0, 206.0, 45.0, 17.0 ],
					"numoutlets" : 1,
					"outlettype" : [ "float" ]
				}

			}
, 			{
				"box" : 				{
					"maxclass" : "newobj",
					"text" : "* 1.",
					"id" : "obj-22",
					"fontname" : "Arial",
					"fontsize" : 9.0,
					"numinlets" : 2,
					"patching_rect" : [ 66.0, 179.0, 27.0, 17.0 ],
					"numoutlets" : 1,
					"outlettype" : [ "float" ]
				}

			}
, 			{
				"box" : 				{
					"maxclass" : "newobj",
					"text" : "* 1.",
					"id" : "obj-23",
					"fontname" : "Arial",
					"fontsize" : 9.0,
					"numinlets" : 2,
					"patching_rect" : [ 66.0, 149.0, 27.0, 17.0 ],
					"numoutlets" : 1,
					"outlettype" : [ "float" ]
				}

			}
, 			{
				"box" : 				{
					"maxclass" : "newobj",
					"text" : "/ 100.",
					"id" : "obj-24",
					"fontname" : "Arial",
					"fontsize" : 9.0,
					"numinlets" : 2,
					"patching_rect" : [ 290.0, 71.0, 39.0, 17.0 ],
					"numoutlets" : 1,
					"outlettype" : [ "float" ]
				}

			}
, 			{
				"box" : 				{
					"maxclass" : "newobj",
					"text" : "/ 100.",
					"id" : "obj-25",
					"fontname" : "Arial",
					"fontsize" : 9.0,
					"numinlets" : 2,
					"patching_rect" : [ 66.0, 71.0, 39.0, 17.0 ],
					"numoutlets" : 1,
					"outlettype" : [ "float" ]
				}

			}
, 			{
				"box" : 				{
					"maxclass" : "newobj",
					"text" : "!- 100",
					"id" : "obj-26",
					"fontname" : "Arial",
					"fontsize" : 9.0,
					"numinlets" : 2,
					"patching_rect" : [ 66.0, 45.0, 38.0, 17.0 ],
					"numoutlets" : 1,
					"outlettype" : [ "int" ]
				}

			}
 ],
		"lines" : [ 			{
				"patchline" : 				{
					"source" : [ "obj-3", 0 ],
					"destination" : [ "obj-24", 0 ],
					"hidden" : 0,
					"midpoints" : [  ]
				}

			}
, 			{
				"patchline" : 				{
					"source" : [ "obj-5", 0 ],
					"destination" : [ "obj-9", 1 ],
					"hidden" : 0,
					"midpoints" : [  ]
				}

			}
, 			{
				"patchline" : 				{
					"source" : [ "obj-6", 0 ],
					"destination" : [ "obj-5", 0 ],
					"hidden" : 0,
					"midpoints" : [  ]
				}

			}
, 			{
				"patchline" : 				{
					"source" : [ "obj-3", 0 ],
					"destination" : [ "obj-6", 0 ],
					"hidden" : 0,
					"midpoints" : [  ]
				}

			}
, 			{
				"patchline" : 				{
					"source" : [ "obj-8", 0 ],
					"destination" : [ "obj-7", 0 ],
					"hidden" : 0,
					"midpoints" : [  ]
				}

			}
, 			{
				"patchline" : 				{
					"source" : [ "obj-9", 0 ],
					"destination" : [ "obj-8", 0 ],
					"hidden" : 0,
					"midpoints" : [  ]
				}

			}
, 			{
				"patchline" : 				{
					"source" : [ "obj-10", 0 ],
					"destination" : [ "obj-9", 0 ],
					"hidden" : 0,
					"midpoints" : [  ]
				}

			}
, 			{
				"patchline" : 				{
					"source" : [ "obj-25", 0 ],
					"destination" : [ "obj-10", 0 ],
					"hidden" : 0,
					"midpoints" : [  ]
				}

			}
, 			{
				"patchline" : 				{
					"source" : [ "obj-5", 0 ],
					"destination" : [ "obj-13", 1 ],
					"hidden" : 0,
					"midpoints" : [  ]
				}

			}
, 			{
				"patchline" : 				{
					"source" : [ "obj-12", 0 ],
					"destination" : [ "obj-11", 0 ],
					"hidden" : 0,
					"midpoints" : [  ]
				}

			}
, 			{
				"patchline" : 				{
					"source" : [ "obj-13", 0 ],
					"destination" : [ "obj-12", 0 ],
					"hidden" : 0,
					"midpoints" : [  ]
				}

			}
, 			{
				"patchline" : 				{
					"source" : [ "obj-14", 0 ],
					"destination" : [ "obj-13", 0 ],
					"hidden" : 0,
					"midpoints" : [  ]
				}

			}
, 			{
				"patchline" : 				{
					"source" : [ "obj-19", 0 ],
					"destination" : [ "obj-14", 0 ],
					"hidden" : 0,
					"midpoints" : [  ]
				}

			}
, 			{
				"patchline" : 				{
					"source" : [ "obj-7", 0 ],
					"destination" : [ "obj-2", 0 ],
					"hidden" : 0,
					"midpoints" : [  ]
				}

			}
, 			{
				"patchline" : 				{
					"source" : [ "obj-11", 0 ],
					"destination" : [ "obj-2", 0 ],
					"hidden" : 0,
					"midpoints" : [  ]
				}

			}
, 			{
				"patchline" : 				{
					"source" : [ "obj-15", 0 ],
					"destination" : [ "obj-2", 0 ],
					"hidden" : 0,
					"midpoints" : [  ]
				}

			}
, 			{
				"patchline" : 				{
					"source" : [ "obj-20", 0 ],
					"destination" : [ "obj-2", 0 ],
					"hidden" : 0,
					"midpoints" : [  ]
				}

			}
, 			{
				"patchline" : 				{
					"source" : [ "obj-24", 0 ],
					"destination" : [ "obj-17", 1 ],
					"hidden" : 0,
					"midpoints" : [  ]
				}

			}
, 			{
				"patchline" : 				{
					"source" : [ "obj-16", 0 ],
					"destination" : [ "obj-15", 0 ],
					"hidden" : 0,
					"midpoints" : [  ]
				}

			}
, 			{
				"patchline" : 				{
					"source" : [ "obj-17", 0 ],
					"destination" : [ "obj-16", 0 ],
					"hidden" : 0,
					"midpoints" : [  ]
				}

			}
, 			{
				"patchline" : 				{
					"source" : [ "obj-18", 0 ],
					"destination" : [ "obj-17", 0 ],
					"hidden" : 0,
					"midpoints" : [  ]
				}

			}
, 			{
				"patchline" : 				{
					"source" : [ "obj-19", 0 ],
					"destination" : [ "obj-18", 0 ],
					"hidden" : 0,
					"midpoints" : [  ]
				}

			}
, 			{
				"patchline" : 				{
					"source" : [ "obj-24", 0 ],
					"destination" : [ "obj-22", 1 ],
					"hidden" : 0,
					"midpoints" : [  ]
				}

			}
, 			{
				"patchline" : 				{
					"source" : [ "obj-21", 0 ],
					"destination" : [ "obj-20", 0 ],
					"hidden" : 0,
					"midpoints" : [  ]
				}

			}
, 			{
				"patchline" : 				{
					"source" : [ "obj-22", 0 ],
					"destination" : [ "obj-21", 0 ],
					"hidden" : 0,
					"midpoints" : [  ]
				}

			}
, 			{
				"patchline" : 				{
					"source" : [ "obj-23", 0 ],
					"destination" : [ "obj-22", 0 ],
					"hidden" : 0,
					"midpoints" : [  ]
				}

			}
, 			{
				"patchline" : 				{
					"source" : [ "obj-25", 0 ],
					"destination" : [ "obj-23", 0 ],
					"hidden" : 0,
					"midpoints" : [  ]
				}

			}
, 			{
				"patchline" : 				{
					"source" : [ "obj-26", 0 ],
					"destination" : [ "obj-25", 0 ],
					"hidden" : 0,
					"midpoints" : [  ]
				}

			}
, 			{
				"patchline" : 				{
					"source" : [ "obj-4", 0 ],
					"destination" : [ "obj-26", 0 ],
					"hidden" : 0,
					"midpoints" : [  ]
				}

			}
, 			{
				"patchline" : 				{
					"source" : [ "obj-4", 0 ],
					"destination" : [ "obj-19", 0 ],
					"hidden" : 0,
					"midpoints" : [  ]
				}

			}
 ]
	}

}
