max v2;#N vpatcher 51 76 690 541;#P newex 245 117 111 196617 r explode_message;#P inlet 503 57 15 0;#P comment 10 312 141 196617 if events are advanced on the control panel by hand or with the metronome \, the explode is instructed to follow from the event where advancing has stopped;#P comment 278 379 106 196617 event numbers are sent out to the qlist control patch QLIST.CONTROL;#P comment 171 331 92 196617 this outlet goes back into the explode object;#P newex 436 281 92 196617 s evt_number;#P newex 396 334 44 196617 change;#P newex 282 308 51 196617 r reset;#P message 282 337 24 196617 0;#P newex 224 284 120 196617 r pitch_to_explode;#P message 76 284 104 196617 followat 125 \$1 2;#P message 9 284 30 196617 stop;#P newex 108 215 33 196617 + 1;#P message 26 225 19 196617 0;#P newex 8 101 56 196617 == $1;#P comment 6 40 122 196617 SECTION $1;#P newex 107 112 119 196617 r goto_next_event;#P newex 193 136 41 196617 gate;#P comment 462 327 155 196617 test to see if the last event in the present section has been sent: if yes \, then initialize the next secion;#P message 396 418 122 196617 \; section_number $2;#P newex 396 370 59 196617 sel $3;#P newex 396 394 59 196617 del 100;#P outlet 328 354 15 0;#P outlet 193 303 15 0;#P inlet 246 57 15 0;#P newex 246 86 114 196617 s note_from_score;#P comment 188 31 272 196617 inlets: time \, pitch \, velocity \, duration \, & channel;#P inlet 184 57 15 0;#P comment 159 78 77 196617 time values are not used;#P comment 421 80 78 196617 durations are not used;#P inlet 447 57 15 0;#P inlet 396 57 15 0;#P toggle 77 121 15 0;#P comment 424 199 115 196617 the event number (velocity) is sent through if the channel is number 2;#P newex 77 242 41 196617 i;#P newex 396 262 29 196617 i;#P newex 396 176 116 196617 route 2;#P newex 396 149 117 196617 pack;#P newex 396 124 117 196617 swap;#P button 77 191 15 0;#P newex 77 165 40 196617 gate;#P newex 8 159 48 196617 sel 0 1;#P newex 8 69 104 196617 r section_number;#P connect 34 0 20 0;#P connect 31 0 19 0;#P connect 29 0 8 0;#P connect 10 0 2 0;#P connect 10 0 25 0;#P connect 42 0 25 1;#P connect 41 0 4 1;#P connect 35 0 34 0;#P connect 33 0 19 0;#P connect 3 0 8 0;#P connect 11 0 4 0;#P connect 30 0 8 1;#P connect 28 0 1 0;#P connect 32 0 19 0;#P connect 28 0 10 0;#P connect 36 0 20 0;#P connect 36 0 22 0;#P connect 25 0 19 0;#P connect 22 0 21 0;#P connect 21 0 23 0;#P connect 26 0 2 1;#P connect 7 0 30 0;#P connect 7 0 36 0;#P connect 7 0 37 0;#P connect 6 0 7 0;#P connect 5 0 6 0;#P connect 18 0 17 0;#P connect 4 0 5 0;#P connect 4 1 5 1;#P connect 2 0 3 0;#P connect 8 0 32 0;#P connect 8 0 7 0;#P connect 0 0 28 0;#P connect 1 0 31 0;#P connect 1 1 29 0;#P pop;