max v2;#N vpatcher 0 44 1280 834;#P outlet 420 714 15 0;#P inlet 460 45 15 0;#P window setfont "Sans Serif" 9.;#P comment 104 603 41 196617 display;#P comment 99 555 49 196617 calibrate;#P comment 114 507 18 196617 go;#P newex 187 296 71 196617 pvar /display;#B color 14;#P toggle 99 540 47 0;#P objectname /calibrate;#P toggle 99 492 47 0;#P objectname /go;#P user textedit 188 220 288 270 0 3 9 7. 0.65125 0.05125 0.272501 -0.501251 0.000045 90. 1.8;#P newex 216 384 82 196617 pack 1 display 1;#P newex 717 394 113 196617 ali.iGesture-one-finger;#P objectname ali.iGesture-one-finger[1];#P toggle 99 588 47 0;#P objectname /display;#P newex 187 325 27 196617 t b i;#P newex 187 352 40 196617 uzi 9;#P bpatcher 147 476 79 183 -192 -470 ali.iGesture-one-finger 0 1;#P objectname ali.iGesture-one-finger[18];#P bpatcher 226 476 79 183 -192 -470 ali.iGesture-one-finger 0 2;#P objectname ali.iGesture-one-finger[17];#P bpatcher 304 476 79 183 -192 -470 ali.iGesture-one-finger 0 3;#P objectname ali.iGesture-one-finger[16];#P bpatcher 382 476 79 183 -192 -470 ali.iGesture-one-finger 0 4;#P objectname ali.iGesture-one-finger[15];#P bpatcher 460 476 79 183 -192 -470 ali.iGesture-one-finger 0 5;#P objectname ali.iGesture-one-finger[14];#P bpatcher 541 476 79 183 -192 -470 ali.iGesture-one-finger 0 6;#P objectname ali.iGesture-one-finger[13];#P bpatcher 623 476 79 183 -192 -470 ali.iGesture-one-finger 0 7;#P objectname ali.iGesture-one-finger[12];#P bpatcher 699 476 79 183 -192 -470 ali.iGesture-one-finger 0 8;#P objectname ali.iGesture-one-finger[11];#P bpatcher 782 476 79 183 -192 -470 ali.iGesture-one-finger 0 9;#P objectname ali.iGesture-one-finger[10];#P button 705 144 15 0;#P newex 493 304 61 196617 prepend set;#P number 719 144 35 9 0 0 0 3 0 0 0 221 221 221 222 222 222 0 0 0;#P newex 470 279 50 196617 zl slice 1;#P newex 719 342 73 196617 pack 1 display;#P user radiogroup 719 168 18 160;#X size 10;#X offset 16;#X inactive 0;#X itemtype 0;#X flagmode 0;#X set 4;#X done;#P newex 495 218 53 196617 t b b 0 0;#P newex 534 363 27 196617 int;#P newex 534 390 61 196617 pack 1 bang;#P newex 413 280 49 196617 grab-one;#P newex 604 307 45 196617 pack 1 1;#P newex 554 220 53 196617 t 1 b 1 b;#P newex 517 168 40 196617 sel 0 1;#P newex 574 272 40 196617 uzi 9;#P newex 294 167 27 196617 gate;#P newex 517 110 79 196617 pvar /calibrate;#B color 14;#P newex 460 80 124 196617 OSC-route /go /calibrate;#P newex 460 110 49 196617 pvar /go;#B color 14;#N vpatcher 71 44 1077 655;#P button 697 184 15 0;#P outlet 14 431 15 0;#P window setfont "Sans Serif" 9.;#P comment 282 468 13 196617 proximity;#P comment 324 469 13 196617 eccentricity;#P comment 304 467 13 196617 orientatioin;#P inlet 567 110 15 0;#P inlet 394 110 15 0;#P newex 204 430 40 196617 * 127.;#P newex 332 399 27 196617 gate;#P newex 303 399 27 196617 gate;#P newex 274 399 27 196617 gate;#P newex 245 399 27 196617 gate;#P newex 216 399 27 196617 gate;#P newex 187 399 27 196617 gate;#P newex 158 430 40 196617 * 127.;#P newex 14 400 113 196617 pack 1. 1. 1. 1. 1. 1. 1.;#P newex 158 399 27 196617 gate;#P toggle 107 180 15 0;#P newex 107 136 35 196617 active;#P inlet 210 117 15 0;#P user multiSlider 321 467 19 100 0. 1. 1 2937 15 0 0 2 0 0 0;#M frgb 0 138 156;#M brgb 174 239 255;#M rgb2 127 127 127;#M rgb3 0 0 0;#M rgb4 37 52 91;#M rgb5 74 105 182;#M rgb6 112 158 18;#M rgb7 149 211 110;#M rgb8 187 9 201;#M rgb9 224 62 37;#M rgb10 7 114 128;#P user multiSlider 300 467 19 100 0. 1. 1 2937 15 0 0 2 0 0 0;#M frgb 0 138 156;#M brgb 174 239 255;#M rgb2 127 127 127;#M rgb3 0 0 0;#M rgb4 37 52 91;#M rgb5 74 105 182;#M rgb6 112 158 18;#M rgb7 149 211 110;#M rgb8 187 9 201;#M rgb9 224 62 37;#M rgb10 7 114 128;#P user multiSlider 279 467 19 100 0. 1. 1 2937 15 0 0 2 0 0 0;#M frgb 0 138 156;#M brgb 174 239 255;#M rgb2 127 127 127;#M rgb3 0 0 0;#M rgb4 37 52 91;#M rgb5 74 105 182;#M rgb6 112 158 18;#M rgb7 149 211 110;#M rgb8 187 9 201;#M rgb9 224 62 37;#M rgb10 7 114 128;#P toggle 643 185 15 0;#P bpatcher 629 13 210 96 0 0 ali.pattrstorage-helper 0;#P newex 629 117 142 196617 pattrstorage iGesture-ranges;#X client_rect 10 59 664 399;#X storage_rect 10 59 650 299;#P objectname iGesture-ranges;#P user multiSlider 259 467 19 100 -1. 1. 1 2937 15 0 0 2 0 0 0;#M frgb 0 0 0;#M brgb 255 255 255;#M rgb2 127 127 127;#M rgb3 0 0 0;#M rgb4 37 52 91;#M rgb5 74 105 182;#M rgb6 112 158 18;#M rgb7 149 211 110;#M rgb8 187 9 201;#M rgb9 224 62 37;#M rgb10 7 114 128;#P user multiSlider 158 569 100 17 -1. 1. 1 2936 15 0 0 2 0 0 0;#M frgb 0 0 0;#M brgb 255 255 255;#M rgb2 127 127 127;#M rgb3 0 0 0;#M rgb4 37 52 91;#M rgb5 74 105 182;#M rgb6 112 158 18;#M rgb7 149 211 110;#M rgb8 187 9 201;#M rgb9 224 62 37;#M rgb10 7 114 128;#P user pictslider 158 467 100 100 4 4 4 4 SliderDefaultKnob.pct 1 SliderDefaultBkgnd.pct 1 2163 0 8323072 127 1. 1.;#P newex 869 291 70 196617 ali.auto-scale;#P objectname ali.auto-scale[6];#P newex 758 291 70 196617 ali.auto-scale;#P objectname ali.auto-scale[5];#P newex 678 291 70 196617 ali.auto-scale;#P objectname ali.auto-scale[4];#P newex 545 291 99 196617 ali.auto-scale -1. 1.;#P objectname ali.auto-scale[3];#P newex 431 291 99 196617 ali.auto-scale -1. 1.;#P objectname ali.auto-scale[2];#P newex 255 291 94 196617 ali.auto-scale 0. 1.;#P objectname ali.auto-scale[1];#P newex 83 291 94 196617 ali.auto-scale 0. 1.;#P objectname ali.auto-scale;#P newex 251 162 123 196617 unpack 1. 1. 1. 1. 1. 1. 1.;#P connect 1 0 21 0;#P connect 21 0 35 0;#P connect 2 0 21 1;#P connect 3 0 21 2;#P connect 4 0 21 3;#P connect 5 0 21 4;#P connect 0 0 1 0;#P connect 6 0 21 5;#P connect 18 0 19 0;#P connect 13 0 1 1;#P connect 7 0 21 6;#P connect 19 0 20 0;#P connect 20 0 22 0;#P connect 22 0 8 0;#P fasten 24 0 9 0 141 428 141 568;#P connect 1 0 20 1;#P connect 19 0 23 0;#P connect 2 0 23 1;#P connect 23 0 29 0;#P connect 19 0 24 0;#P connect 3 0 24 1;#P connect 19 0 25 0;#P connect 29 0 8 1;#P connect 17 0 0 0;#P connect 0 1 2 0;#P connect 25 0 10 0;#P connect 4 0 25 1;#P connect 19 0 26 0;#P connect 26 0 14 0;#P connect 13 0 2 1;#P connect 5 0 26 1;#P connect 27 0 15 0;#P connect 19 0 27 0;#P connect 6 0 27 1;#P connect 28 0 16 0;#P connect 19 0 28 0;#P connect 7 0 28 1;#P connect 0 2 3 0;#P connect 13 0 3 1;#P connect 0 3 4 0;#P connect 13 0 4 1;#P connect 12 0 11 0;#P connect 30 0 13 0;#P connect 0 4 5 0;#P connect 13 0 5 1;#P connect 0 5 6 0;#P connect 13 0 6 1;#P connect 0 6 7 0;#P connect 13 0 7 1;#P pop;#P newobj 713 89 121 196617 p ali.iGesture-one-finger;#P objectname ali.iGesture-one-finger;#P number 482 363 35 9 0 0 0 3 0 0 0 221 221 221 222 222 222 0 0 0;#P bpatcher 867 501 210 96 0 0 ali.pattrstorage-helper 0 iGesture-ranges.xml;#P newex 867 605 162 196617 pattrstorage iGesture-ranges.xml;#X client_rect 10 59 650 299;#X storage_rect 10 59 650 299;#P objectname iGesture-ranges.xml;#P newex 301 426 131 196617 route 1 2 3 4 5 6 7 8 9;#P comment 872 180 402 196617 No mapping of data is done on the external. You might want to map the values to 0..1.;#P comment 872 196 402 196617 Note: use only one instance of the external. Creating a second one will disable the first.;#P comment 872 212 402 196617 (c) 2004 Juha Vehviläinen <jusu@pinktwins.com>;#P comment 872 152 402 196617 Outlets report: path id \, x and y position and velocity \, proximity \, orientation \, eccentricity.;#P comment 873 106 399 196617 http://fingerworks.com;#P newex 482 331 50 196617 zl slice 1;#P newex 311 73 125 196617 pack 1. 1. 1. 1. 1. 1. 1. 1.;#P newex 311 49 105 196617 igesture;#P comment 873 91 399 196617 igesture -- Read the ContactPaths stream from Fingerworks iGesture NumPad.;#P comment 872 124 402 196617 Optional argument sets skipframes. Value of one will send every second contact frame. The default value of zero will send frames at approx . 100 - 120 Hz.;#P comment 738 170 29 196617 none;#P connect 11 0 42 0;#P connect 51 0 44 0;#P connect 44 0 43 0;#P connect 19 0 48 0;#P connect 43 2 47 0;#P connect 11 1 41 0;#P connect 44 1 47 2;#P fasten 16 0 19 0 441 186 369 147;#P connect 19 0 11 0;#P fasten 23 0 11 0 460 219;#P fasten 25 0 11 0 505 424 371 254;#P fasten 29 0 11 0 516 445 363 254;#P connect 47 0 11 0;#P connect 11 2 40 0;#P connect 3 0 4 0;#P connect 4 0 19 1;#P connect 3 1 4 1;#P connect 3 2 4 2;#P connect 3 3 4 3;#P connect 3 4 4 4;#P connect 11 3 39 0;#P connect 3 5 4 5;#P connect 3 6 4 6;#P connect 19 0 24 0;#P connect 34 0 56 0;#P connect 35 0 56 0;#P connect 36 0 56 0;#P connect 37 0 56 0;#P connect 38 0 56 0;#P connect 39 0 56 0;#P connect 40 0 56 0;#P connect 41 0 56 0;#P connect 42 0 56 0;#P connect 3 7 4 7;#P connect 22 3 24 1;#P connect 55 0 17 0;#P fasten 27 3 16 0 426 160;#P fasten 22 0 16 0 476 261 395 188;#P connect 17 0 16 0;#P connect 11 4 38 0;#P connect 19 0 30 0;#P connect 24 1 5 0;#P connect 5 0 14 0;#P connect 30 0 32 0;#P connect 21 0 27 0;#P connect 17 1 18 0;#P connect 18 0 21 0;#P fasten 27 0 26 0 565 339 553 358;#P connect 26 0 25 0;#P connect 11 5 37 0;#P connect 5 0 26 1;#P connect 21 1 22 0;#P connect 22 1 20 0;#P connect 27 1 20 0;#P connect 20 2 23 0;#P connect 11 6 36 0;#P fasten 22 2 23 1 623 263;#P fasten 27 2 23 1 617 265;#P connect 11 7 35 0;#P hidden connect 33 0 31 0;#P hidden connect 32 0 31 0;#P hidden connect 31 0 28 0;#P connect 28 0 29 0;#P connect 11 8 34 0;#P connect 13 0 12 0;#P pop;