max v2;#N vpatcher 33 243 286 456;#P number 151 126 35 9 0 0 0 3 0 0 0 221 221 221 222 222 222 0 0 0;#P outlet 151 151 15 0;#P newex 151 67 43 196617 sel bang;#P inlet 131 43 15 0;#P inlet 47 43 15 0;#P outlet 47 151 15 0;#P newex 47 125 94 196617 int;#P newex 56 91 61 196617 fromsymbol;#P newex 56 67 77 196617 loadmess $0.;#P connect 4 0 2 0;#P connect 2 0 3 0;#P connect 0 0 1 0;#P fasten 1 0 2 1 61 119 136 119;#P connect 5 0 2 1;#P fasten 4 0 6 0 52 63 156 63;#P connect 6 0 8 0;#P fasten 1 0 8 0 61 119 156 119;#P connect 8 0 7 0;#P pop;