{
	"patcher" : 	{
		"fileversion" : 1,
		"rect" : [ 80.0, 44.0, 632.0, 453.0 ],
		"bgcolor" : [ 0.87451, 0.933333, 1.0, 1.0 ],
		"bglocked" : 0,
		"defrect" : [ 80.0, 44.0, 632.0, 453.0 ],
		"openrect" : [ 0.0, 0.0, 0.0, 0.0 ],
		"openinpresentation" : 0,
		"default_fontsize" : 12.0,
		"default_fontface" : 0,
		"default_fontname" : "Arial",
		"gridonopen" : 0,
		"gridsize" : [ 15.0, 15.0 ],
		"gridsnaponopen" : 0,
		"toolbarvisible" : 1,
		"boxanimatetime" : 200,
		"imprint" : 0,
		"boxes" : [ 			{
				"box" : 				{
					"maxclass" : "bpatcher",
					"prototypename" : "cnmat_banner",
					"offset" : [ -18.0, -68.0 ],
					"name" : "banner.maxpat",
					"numoutlets" : 0,
					"lockeddragscroll" : 1,
					"args" : [ "OSC-pc1600", "OSC wrapper for the Peavy PC-1600 or PC1600x MIDI command station" ],
					"patching_rect" : [ 12.0, 4.0, 511.0, 76.0 ],
					"id" : "obj-47",
					"numinlets" : 0
				}

			}
, 			{
				"box" : 				{
					"maxclass" : "multislider",
					"thickness" : 5,
					"setminmax" : [ 0.0, 1.0 ],
					"bordercolor" : [ 0.588235, 0.588235, 0.705882, 1.0 ],
					"candicane2" : [ 0.145098, 0.203922, 0.356863, 1.0 ],
					"spacing" : 1,
					"numoutlets" : 2,
					"candicane7" : [ 0.878431, 0.243137, 0.145098, 1.0 ],
					"slidercolor" : [ 0.588235, 0.588235, 0.705882, 1.0 ],
					"candicane5" : [ 0.584314, 0.827451, 0.431373, 1.0 ],
					"outlettype" : [ "", "" ],
					"candicane3" : [ 0.290196, 0.411765, 0.713726, 1.0 ],
					"candicane8" : [ 0.027451, 0.447059, 0.501961, 1.0 ],
					"ghostbar" : 30,
					"peakcolor" : [ 0.498039, 0.498039, 0.498039, 1.0 ],
					"candicane6" : [ 0.733333, 0.035294, 0.788235, 1.0 ],
					"patching_rect" : [ 552.0, 186.0, 35.0, 83.0 ],
					"candicane4" : [ 0.439216, 0.619608, 0.070588, 1.0 ],
					"id" : "obj-1",
					"numinlets" : 1
				}

			}
, 			{
				"box" : 				{
					"maxclass" : "multislider",
					"thickness" : 5,
					"setminmax" : [ 0.0, 1.0 ],
					"bordercolor" : [ 0.588235, 0.588235, 0.705882, 1.0 ],
					"candicane2" : [ 0.145098, 0.203922, 0.356863, 1.0 ],
					"spacing" : 1,
					"numoutlets" : 2,
					"candicane7" : [ 0.878431, 0.243137, 0.145098, 1.0 ],
					"slidercolor" : [ 0.588235, 0.588235, 0.705882, 1.0 ],
					"candicane5" : [ 0.584314, 0.827451, 0.431373, 1.0 ],
					"outlettype" : [ "", "" ],
					"candicane3" : [ 0.290196, 0.411765, 0.713726, 1.0 ],
					"candicane8" : [ 0.027451, 0.447059, 0.501961, 1.0 ],
					"ghostbar" : 30,
					"peakcolor" : [ 0.498039, 0.498039, 0.498039, 1.0 ],
					"candicane6" : [ 0.733333, 0.035294, 0.788235, 1.0 ],
					"patching_rect" : [ 514.0, 185.0, 35.0, 83.0 ],
					"candicane4" : [ 0.439216, 0.619608, 0.070588, 1.0 ],
					"id" : "obj-2",
					"numinlets" : 1
				}

			}
, 			{
				"box" : 				{
					"maxclass" : "newobj",
					"text" : "OSC-route /1 /2",
					"numoutlets" : 3,
					"outlettype" : [ "", "", "" ],
					"fontname" : "Arial",
					"patching_rect" : [ 514.0, 162.0, 95.0, 20.0 ],
					"fontsize" : 12.0,
					"id" : "obj-3",
					"numinlets" : 1
				}

			}
, 			{
				"box" : 				{
					"maxclass" : "bpatcher",
					"name" : "badge.maxpat",
					"numoutlets" : 0,
					"args" : [ "OSC-pc1600.help", "1.2b", "Wright & Zbyszynski", "OSC-pc1600", 2849 ],
					"patching_rect" : [ 322.0, 365.0, 304.0, 86.0 ],
					"id" : "obj-4",
					"numinlets" : 0
				}

			}
, 			{
				"box" : 				{
					"maxclass" : "toggle",
					"numoutlets" : 1,
					"outlettype" : [ "int" ],
					"patching_rect" : [ 459.0, 307.0, 27.0, 27.0 ],
					"id" : "obj-5",
					"numinlets" : 1
				}

			}
, 			{
				"box" : 				{
					"maxclass" : "toggle",
					"numoutlets" : 1,
					"outlettype" : [ "int" ],
					"patching_rect" : [ 431.0, 307.0, 27.0, 27.0 ],
					"id" : "obj-6",
					"numinlets" : 1
				}

			}
, 			{
				"box" : 				{
					"maxclass" : "toggle",
					"numoutlets" : 1,
					"outlettype" : [ "int" ],
					"patching_rect" : [ 403.0, 307.0, 27.0, 27.0 ],
					"id" : "obj-7",
					"numinlets" : 1
				}

			}
, 			{
				"box" : 				{
					"maxclass" : "toggle",
					"numoutlets" : 1,
					"outlettype" : [ "int" ],
					"patching_rect" : [ 375.0, 307.0, 27.0, 27.0 ],
					"id" : "obj-8",
					"numinlets" : 1
				}

			}
, 			{
				"box" : 				{
					"maxclass" : "toggle",
					"numoutlets" : 1,
					"outlettype" : [ "int" ],
					"patching_rect" : [ 347.0, 307.0, 27.0, 27.0 ],
					"id" : "obj-9",
					"numinlets" : 1
				}

			}
, 			{
				"box" : 				{
					"maxclass" : "toggle",
					"numoutlets" : 1,
					"outlettype" : [ "int" ],
					"patching_rect" : [ 319.0, 307.0, 27.0, 27.0 ],
					"id" : "obj-10",
					"numinlets" : 1
				}

			}
, 			{
				"box" : 				{
					"maxclass" : "newobj",
					"text" : "OSC-route /1 /2 /3 /4 /5 /6 /7 /8 /9 /10 /11 /12 /13 /14 /15 /16",
					"numoutlets" : 17,
					"outlettype" : [ "", "", "", "", "", "", "", "", "", "", "", "", "", "", "", "", "" ],
					"fontname" : "Arial",
					"patching_rect" : [ 38.0, 144.0, 467.0, 20.0 ],
					"fontsize" : 12.0,
					"id" : "obj-11",
					"numinlets" : 1
				}

			}
, 			{
				"box" : 				{
					"maxclass" : "multislider",
					"thickness" : 5,
					"setminmax" : [ 0.0, 1.0 ],
					"bordercolor" : [ 0.588235, 0.588235, 0.705882, 1.0 ],
					"candicane2" : [ 0.145098, 0.203922, 0.356863, 1.0 ],
					"spacing" : 1,
					"numoutlets" : 2,
					"candicane7" : [ 0.878431, 0.243137, 0.145098, 1.0 ],
					"slidercolor" : [ 0.588235, 0.588235, 0.705882, 1.0 ],
					"candicane5" : [ 0.584314, 0.827451, 0.431373, 1.0 ],
					"outlettype" : [ "", "" ],
					"candicane3" : [ 0.290196, 0.411765, 0.713726, 1.0 ],
					"candicane8" : [ 0.027451, 0.447059, 0.501961, 1.0 ],
					"ghostbar" : 30,
					"peakcolor" : [ 0.498039, 0.498039, 0.498039, 1.0 ],
					"candicane6" : [ 0.733333, 0.035294, 0.788235, 1.0 ],
					"patching_rect" : [ 458.0, 166.0, 26.0, 138.0 ],
					"candicane4" : [ 0.439216, 0.619608, 0.070588, 1.0 ],
					"id" : "obj-12",
					"numinlets" : 1
				}

			}
, 			{
				"box" : 				{
					"maxclass" : "multislider",
					"thickness" : 5,
					"setminmax" : [ 0.0, 1.0 ],
					"bordercolor" : [ 0.588235, 0.588235, 0.705882, 1.0 ],
					"candicane2" : [ 0.145098, 0.203922, 0.356863, 1.0 ],
					"spacing" : 1,
					"numoutlets" : 2,
					"candicane7" : [ 0.878431, 0.243137, 0.145098, 1.0 ],
					"slidercolor" : [ 0.588235, 0.588235, 0.705882, 1.0 ],
					"candicane5" : [ 0.584314, 0.827451, 0.431373, 1.0 ],
					"outlettype" : [ "", "" ],
					"candicane3" : [ 0.290196, 0.411765, 0.713726, 1.0 ],
					"candicane8" : [ 0.027451, 0.447059, 0.501961, 1.0 ],
					"ghostbar" : 30,
					"peakcolor" : [ 0.498039, 0.498039, 0.498039, 1.0 ],
					"candicane6" : [ 0.733333, 0.035294, 0.788235, 1.0 ],
					"patching_rect" : [ 430.0, 166.0, 26.0, 138.0 ],
					"candicane4" : [ 0.439216, 0.619608, 0.070588, 1.0 ],
					"id" : "obj-13",
					"numinlets" : 1
				}

			}
, 			{
				"box" : 				{
					"maxclass" : "multislider",
					"thickness" : 5,
					"setminmax" : [ 0.0, 1.0 ],
					"bordercolor" : [ 0.588235, 0.588235, 0.705882, 1.0 ],
					"candicane2" : [ 0.145098, 0.203922, 0.356863, 1.0 ],
					"spacing" : 1,
					"numoutlets" : 2,
					"candicane7" : [ 0.878431, 0.243137, 0.145098, 1.0 ],
					"slidercolor" : [ 0.588235, 0.588235, 0.705882, 1.0 ],
					"candicane5" : [ 0.584314, 0.827451, 0.431373, 1.0 ],
					"outlettype" : [ "", "" ],
					"candicane3" : [ 0.290196, 0.411765, 0.713726, 1.0 ],
					"candicane8" : [ 0.027451, 0.447059, 0.501961, 1.0 ],
					"ghostbar" : 30,
					"peakcolor" : [ 0.498039, 0.498039, 0.498039, 1.0 ],
					"candicane6" : [ 0.733333, 0.035294, 0.788235, 1.0 ],
					"patching_rect" : [ 402.0, 166.0, 26.0, 138.0 ],
					"candicane4" : [ 0.439216, 0.619608, 0.070588, 1.0 ],
					"id" : "obj-14",
					"numinlets" : 1
				}

			}
, 			{
				"box" : 				{
					"maxclass" : "multislider",
					"thickness" : 5,
					"setminmax" : [ 0.0, 1.0 ],
					"bordercolor" : [ 0.588235, 0.588235, 0.705882, 1.0 ],
					"candicane2" : [ 0.145098, 0.203922, 0.356863, 1.0 ],
					"spacing" : 1,
					"numoutlets" : 2,
					"candicane7" : [ 0.878431, 0.243137, 0.145098, 1.0 ],
					"slidercolor" : [ 0.588235, 0.588235, 0.705882, 1.0 ],
					"candicane5" : [ 0.584314, 0.827451, 0.431373, 1.0 ],
					"outlettype" : [ "", "" ],
					"candicane3" : [ 0.290196, 0.411765, 0.713726, 1.0 ],
					"candicane8" : [ 0.027451, 0.447059, 0.501961, 1.0 ],
					"ghostbar" : 30,
					"peakcolor" : [ 0.498039, 0.498039, 0.498039, 1.0 ],
					"candicane6" : [ 0.733333, 0.035294, 0.788235, 1.0 ],
					"patching_rect" : [ 374.0, 166.0, 26.0, 138.0 ],
					"candicane4" : [ 0.439216, 0.619608, 0.070588, 1.0 ],
					"id" : "obj-15",
					"numinlets" : 1
				}

			}
, 			{
				"box" : 				{
					"maxclass" : "multislider",
					"thickness" : 5,
					"setminmax" : [ 0.0, 1.0 ],
					"bordercolor" : [ 0.588235, 0.588235, 0.705882, 1.0 ],
					"candicane2" : [ 0.145098, 0.203922, 0.356863, 1.0 ],
					"spacing" : 1,
					"numoutlets" : 2,
					"candicane7" : [ 0.878431, 0.243137, 0.145098, 1.0 ],
					"slidercolor" : [ 0.588235, 0.588235, 0.705882, 1.0 ],
					"candicane5" : [ 0.584314, 0.827451, 0.431373, 1.0 ],
					"outlettype" : [ "", "" ],
					"candicane3" : [ 0.290196, 0.411765, 0.713726, 1.0 ],
					"candicane8" : [ 0.027451, 0.447059, 0.501961, 1.0 ],
					"ghostbar" : 30,
					"peakcolor" : [ 0.498039, 0.498039, 0.498039, 1.0 ],
					"candicane6" : [ 0.733333, 0.035294, 0.788235, 1.0 ],
					"patching_rect" : [ 346.0, 166.0, 26.0, 138.0 ],
					"candicane4" : [ 0.439216, 0.619608, 0.070588, 1.0 ],
					"id" : "obj-16",
					"numinlets" : 1
				}

			}
, 			{
				"box" : 				{
					"maxclass" : "multislider",
					"thickness" : 5,
					"setminmax" : [ 0.0, 1.0 ],
					"bordercolor" : [ 0.588235, 0.588235, 0.705882, 1.0 ],
					"candicane2" : [ 0.145098, 0.203922, 0.356863, 1.0 ],
					"spacing" : 1,
					"numoutlets" : 2,
					"candicane7" : [ 0.878431, 0.243137, 0.145098, 1.0 ],
					"slidercolor" : [ 0.588235, 0.588235, 0.705882, 1.0 ],
					"candicane5" : [ 0.584314, 0.827451, 0.431373, 1.0 ],
					"outlettype" : [ "", "" ],
					"candicane3" : [ 0.290196, 0.411765, 0.713726, 1.0 ],
					"candicane8" : [ 0.027451, 0.447059, 0.501961, 1.0 ],
					"ghostbar" : 30,
					"peakcolor" : [ 0.498039, 0.498039, 0.498039, 1.0 ],
					"candicane6" : [ 0.733333, 0.035294, 0.788235, 1.0 ],
					"patching_rect" : [ 318.0, 166.0, 26.0, 138.0 ],
					"candicane4" : [ 0.439216, 0.619608, 0.070588, 1.0 ],
					"id" : "obj-17",
					"numinlets" : 1
				}

			}
, 			{
				"box" : 				{
					"maxclass" : "multislider",
					"thickness" : 5,
					"setminmax" : [ 0.0, 1.0 ],
					"bordercolor" : [ 0.588235, 0.588235, 0.705882, 1.0 ],
					"candicane2" : [ 0.145098, 0.203922, 0.356863, 1.0 ],
					"spacing" : 1,
					"numoutlets" : 2,
					"candicane7" : [ 0.878431, 0.243137, 0.145098, 1.0 ],
					"slidercolor" : [ 0.588235, 0.588235, 0.705882, 1.0 ],
					"candicane5" : [ 0.584314, 0.827451, 0.431373, 1.0 ],
					"outlettype" : [ "", "" ],
					"candicane3" : [ 0.290196, 0.411765, 0.713726, 1.0 ],
					"candicane8" : [ 0.027451, 0.447059, 0.501961, 1.0 ],
					"ghostbar" : 30,
					"peakcolor" : [ 0.498039, 0.498039, 0.498039, 1.0 ],
					"candicane6" : [ 0.733333, 0.035294, 0.788235, 1.0 ],
					"patching_rect" : [ 290.0, 166.0, 26.0, 138.0 ],
					"candicane4" : [ 0.439216, 0.619608, 0.070588, 1.0 ],
					"id" : "obj-18",
					"numinlets" : 1
				}

			}
, 			{
				"box" : 				{
					"maxclass" : "multislider",
					"thickness" : 5,
					"setminmax" : [ 0.0, 1.0 ],
					"bordercolor" : [ 0.588235, 0.588235, 0.705882, 1.0 ],
					"candicane2" : [ 0.145098, 0.203922, 0.356863, 1.0 ],
					"spacing" : 1,
					"numoutlets" : 2,
					"candicane7" : [ 0.878431, 0.243137, 0.145098, 1.0 ],
					"slidercolor" : [ 0.588235, 0.588235, 0.705882, 1.0 ],
					"candicane5" : [ 0.584314, 0.827451, 0.431373, 1.0 ],
					"outlettype" : [ "", "" ],
					"candicane3" : [ 0.290196, 0.411765, 0.713726, 1.0 ],
					"candicane8" : [ 0.027451, 0.447059, 0.501961, 1.0 ],
					"ghostbar" : 30,
					"peakcolor" : [ 0.498039, 0.498039, 0.498039, 1.0 ],
					"candicane6" : [ 0.733333, 0.035294, 0.788235, 1.0 ],
					"patching_rect" : [ 262.0, 166.0, 26.0, 138.0 ],
					"candicane4" : [ 0.439216, 0.619608, 0.070588, 1.0 ],
					"id" : "obj-19",
					"numinlets" : 1
				}

			}
, 			{
				"box" : 				{
					"maxclass" : "multislider",
					"thickness" : 5,
					"setminmax" : [ 0.0, 1.0 ],
					"bordercolor" : [ 0.588235, 0.588235, 0.705882, 1.0 ],
					"candicane2" : [ 0.145098, 0.203922, 0.356863, 1.0 ],
					"spacing" : 1,
					"numoutlets" : 2,
					"candicane7" : [ 0.878431, 0.243137, 0.145098, 1.0 ],
					"slidercolor" : [ 0.588235, 0.588235, 0.705882, 1.0 ],
					"candicane5" : [ 0.584314, 0.827451, 0.431373, 1.0 ],
					"outlettype" : [ "", "" ],
					"candicane3" : [ 0.290196, 0.411765, 0.713726, 1.0 ],
					"candicane8" : [ 0.027451, 0.447059, 0.501961, 1.0 ],
					"ghostbar" : 30,
					"peakcolor" : [ 0.498039, 0.498039, 0.498039, 1.0 ],
					"candicane6" : [ 0.733333, 0.035294, 0.788235, 1.0 ],
					"patching_rect" : [ 234.0, 166.0, 26.0, 138.0 ],
					"candicane4" : [ 0.439216, 0.619608, 0.070588, 1.0 ],
					"id" : "obj-20",
					"numinlets" : 1
				}

			}
, 			{
				"box" : 				{
					"maxclass" : "multislider",
					"thickness" : 5,
					"setminmax" : [ 0.0, 1.0 ],
					"bordercolor" : [ 0.588235, 0.588235, 0.705882, 1.0 ],
					"candicane2" : [ 0.145098, 0.203922, 0.356863, 1.0 ],
					"spacing" : 1,
					"numoutlets" : 2,
					"candicane7" : [ 0.878431, 0.243137, 0.145098, 1.0 ],
					"slidercolor" : [ 0.588235, 0.588235, 0.705882, 1.0 ],
					"candicane5" : [ 0.584314, 0.827451, 0.431373, 1.0 ],
					"outlettype" : [ "", "" ],
					"candicane3" : [ 0.290196, 0.411765, 0.713726, 1.0 ],
					"candicane8" : [ 0.027451, 0.447059, 0.501961, 1.0 ],
					"ghostbar" : 30,
					"peakcolor" : [ 0.498039, 0.498039, 0.498039, 1.0 ],
					"candicane6" : [ 0.733333, 0.035294, 0.788235, 1.0 ],
					"patching_rect" : [ 206.0, 166.0, 26.0, 138.0 ],
					"candicane4" : [ 0.439216, 0.619608, 0.070588, 1.0 ],
					"id" : "obj-21",
					"numinlets" : 1
				}

			}
, 			{
				"box" : 				{
					"maxclass" : "multislider",
					"thickness" : 5,
					"setminmax" : [ 0.0, 1.0 ],
					"bordercolor" : [ 0.588235, 0.588235, 0.705882, 1.0 ],
					"candicane2" : [ 0.145098, 0.203922, 0.356863, 1.0 ],
					"spacing" : 1,
					"numoutlets" : 2,
					"candicane7" : [ 0.878431, 0.243137, 0.145098, 1.0 ],
					"slidercolor" : [ 0.588235, 0.588235, 0.705882, 1.0 ],
					"candicane5" : [ 0.584314, 0.827451, 0.431373, 1.0 ],
					"outlettype" : [ "", "" ],
					"candicane3" : [ 0.290196, 0.411765, 0.713726, 1.0 ],
					"candicane8" : [ 0.027451, 0.447059, 0.501961, 1.0 ],
					"ghostbar" : 30,
					"peakcolor" : [ 0.498039, 0.498039, 0.498039, 1.0 ],
					"candicane6" : [ 0.733333, 0.035294, 0.788235, 1.0 ],
					"patching_rect" : [ 178.0, 166.0, 26.0, 138.0 ],
					"candicane4" : [ 0.439216, 0.619608, 0.070588, 1.0 ],
					"id" : "obj-22",
					"numinlets" : 1
				}

			}
, 			{
				"box" : 				{
					"maxclass" : "multislider",
					"thickness" : 5,
					"setminmax" : [ 0.0, 1.0 ],
					"bordercolor" : [ 0.588235, 0.588235, 0.705882, 1.0 ],
					"candicane2" : [ 0.145098, 0.203922, 0.356863, 1.0 ],
					"spacing" : 1,
					"numoutlets" : 2,
					"candicane7" : [ 0.878431, 0.243137, 0.145098, 1.0 ],
					"slidercolor" : [ 0.588235, 0.588235, 0.705882, 1.0 ],
					"candicane5" : [ 0.584314, 0.827451, 0.431373, 1.0 ],
					"outlettype" : [ "", "" ],
					"candicane3" : [ 0.290196, 0.411765, 0.713726, 1.0 ],
					"candicane8" : [ 0.027451, 0.447059, 0.501961, 1.0 ],
					"ghostbar" : 30,
					"peakcolor" : [ 0.498039, 0.498039, 0.498039, 1.0 ],
					"candicane6" : [ 0.733333, 0.035294, 0.788235, 1.0 ],
					"patching_rect" : [ 150.0, 166.0, 26.0, 138.0 ],
					"candicane4" : [ 0.439216, 0.619608, 0.070588, 1.0 ],
					"id" : "obj-23",
					"numinlets" : 1
				}

			}
, 			{
				"box" : 				{
					"maxclass" : "multislider",
					"thickness" : 5,
					"setminmax" : [ 0.0, 1.0 ],
					"bordercolor" : [ 0.588235, 0.588235, 0.705882, 1.0 ],
					"candicane2" : [ 0.145098, 0.203922, 0.356863, 1.0 ],
					"spacing" : 1,
					"numoutlets" : 2,
					"candicane7" : [ 0.878431, 0.243137, 0.145098, 1.0 ],
					"slidercolor" : [ 0.588235, 0.588235, 0.705882, 1.0 ],
					"candicane5" : [ 0.584314, 0.827451, 0.431373, 1.0 ],
					"outlettype" : [ "", "" ],
					"candicane3" : [ 0.290196, 0.411765, 0.713726, 1.0 ],
					"candicane8" : [ 0.027451, 0.447059, 0.501961, 1.0 ],
					"ghostbar" : 30,
					"peakcolor" : [ 0.498039, 0.498039, 0.498039, 1.0 ],
					"candicane6" : [ 0.733333, 0.035294, 0.788235, 1.0 ],
					"patching_rect" : [ 122.0, 166.0, 26.0, 138.0 ],
					"candicane4" : [ 0.439216, 0.619608, 0.070588, 1.0 ],
					"id" : "obj-24",
					"numinlets" : 1
				}

			}
, 			{
				"box" : 				{
					"maxclass" : "multislider",
					"thickness" : 5,
					"setminmax" : [ 0.0, 1.0 ],
					"bordercolor" : [ 0.588235, 0.588235, 0.705882, 1.0 ],
					"candicane2" : [ 0.145098, 0.203922, 0.356863, 1.0 ],
					"spacing" : 1,
					"numoutlets" : 2,
					"candicane7" : [ 0.878431, 0.243137, 0.145098, 1.0 ],
					"slidercolor" : [ 0.588235, 0.588235, 0.705882, 1.0 ],
					"candicane5" : [ 0.584314, 0.827451, 0.431373, 1.0 ],
					"outlettype" : [ "", "" ],
					"candicane3" : [ 0.290196, 0.411765, 0.713726, 1.0 ],
					"candicane8" : [ 0.027451, 0.447059, 0.501961, 1.0 ],
					"ghostbar" : 30,
					"peakcolor" : [ 0.498039, 0.498039, 0.498039, 1.0 ],
					"candicane6" : [ 0.733333, 0.035294, 0.788235, 1.0 ],
					"patching_rect" : [ 94.0, 166.0, 26.0, 138.0 ],
					"candicane4" : [ 0.439216, 0.619608, 0.070588, 1.0 ],
					"id" : "obj-25",
					"numinlets" : 1
				}

			}
, 			{
				"box" : 				{
					"maxclass" : "multislider",
					"thickness" : 5,
					"setminmax" : [ 0.0, 1.0 ],
					"bordercolor" : [ 0.588235, 0.588235, 0.705882, 1.0 ],
					"candicane2" : [ 0.145098, 0.203922, 0.356863, 1.0 ],
					"spacing" : 1,
					"numoutlets" : 2,
					"candicane7" : [ 0.878431, 0.243137, 0.145098, 1.0 ],
					"slidercolor" : [ 0.588235, 0.588235, 0.705882, 1.0 ],
					"candicane5" : [ 0.584314, 0.827451, 0.431373, 1.0 ],
					"outlettype" : [ "", "" ],
					"candicane3" : [ 0.290196, 0.411765, 0.713726, 1.0 ],
					"candicane8" : [ 0.027451, 0.447059, 0.501961, 1.0 ],
					"ghostbar" : 30,
					"peakcolor" : [ 0.498039, 0.498039, 0.498039, 1.0 ],
					"candicane6" : [ 0.733333, 0.035294, 0.788235, 1.0 ],
					"patching_rect" : [ 66.0, 166.0, 26.0, 138.0 ],
					"candicane4" : [ 0.439216, 0.619608, 0.070588, 1.0 ],
					"id" : "obj-26",
					"numinlets" : 1
				}

			}
, 			{
				"box" : 				{
					"maxclass" : "multislider",
					"thickness" : 5,
					"setminmax" : [ 0.0, 1.0 ],
					"bordercolor" : [ 0.588235, 0.588235, 0.705882, 1.0 ],
					"candicane2" : [ 0.145098, 0.203922, 0.356863, 1.0 ],
					"spacing" : 1,
					"numoutlets" : 2,
					"candicane7" : [ 0.878431, 0.243137, 0.145098, 1.0 ],
					"slidercolor" : [ 0.588235, 0.588235, 0.705882, 1.0 ],
					"candicane5" : [ 0.584314, 0.827451, 0.431373, 1.0 ],
					"outlettype" : [ "", "" ],
					"candicane3" : [ 0.290196, 0.411765, 0.713726, 1.0 ],
					"candicane8" : [ 0.027451, 0.447059, 0.501961, 1.0 ],
					"ghostbar" : 30,
					"peakcolor" : [ 0.498039, 0.498039, 0.498039, 1.0 ],
					"candicane6" : [ 0.733333, 0.035294, 0.788235, 1.0 ],
					"patching_rect" : [ 38.0, 166.0, 26.0, 138.0 ],
					"candicane4" : [ 0.439216, 0.619608, 0.070588, 1.0 ],
					"id" : "obj-27",
					"numinlets" : 1
				}

			}
, 			{
				"box" : 				{
					"maxclass" : "newobj",
					"text" : "OSC-route /button /fader /cv",
					"numoutlets" : 4,
					"outlettype" : [ "", "", "", "" ],
					"fontname" : "Arial",
					"patching_rect" : [ 28.0, 122.0, 161.0, 20.0 ],
					"fontsize" : 12.0,
					"id" : "obj-28",
					"numinlets" : 1
				}

			}
, 			{
				"box" : 				{
					"maxclass" : "toggle",
					"numoutlets" : 1,
					"outlettype" : [ "int" ],
					"patching_rect" : [ 290.0, 307.0, 27.0, 27.0 ],
					"id" : "obj-29",
					"numinlets" : 1
				}

			}
, 			{
				"box" : 				{
					"maxclass" : "toggle",
					"numoutlets" : 1,
					"outlettype" : [ "int" ],
					"patching_rect" : [ 262.0, 307.0, 27.0, 27.0 ],
					"id" : "obj-30",
					"numinlets" : 1
				}

			}
, 			{
				"box" : 				{
					"maxclass" : "toggle",
					"numoutlets" : 1,
					"outlettype" : [ "int" ],
					"patching_rect" : [ 234.0, 307.0, 27.0, 27.0 ],
					"id" : "obj-31",
					"numinlets" : 1
				}

			}
, 			{
				"box" : 				{
					"maxclass" : "toggle",
					"numoutlets" : 1,
					"outlettype" : [ "int" ],
					"patching_rect" : [ 206.0, 307.0, 27.0, 27.0 ],
					"id" : "obj-32",
					"numinlets" : 1
				}

			}
, 			{
				"box" : 				{
					"maxclass" : "toggle",
					"numoutlets" : 1,
					"outlettype" : [ "int" ],
					"patching_rect" : [ 178.0, 307.0, 27.0, 27.0 ],
					"id" : "obj-33",
					"numinlets" : 1
				}

			}
, 			{
				"box" : 				{
					"maxclass" : "toggle",
					"numoutlets" : 1,
					"outlettype" : [ "int" ],
					"patching_rect" : [ 150.0, 307.0, 27.0, 27.0 ],
					"id" : "obj-34",
					"numinlets" : 1
				}

			}
, 			{
				"box" : 				{
					"maxclass" : "toggle",
					"numoutlets" : 1,
					"outlettype" : [ "int" ],
					"patching_rect" : [ 122.0, 307.0, 27.0, 27.0 ],
					"id" : "obj-35",
					"numinlets" : 1
				}

			}
, 			{
				"box" : 				{
					"maxclass" : "toggle",
					"numoutlets" : 1,
					"outlettype" : [ "int" ],
					"patching_rect" : [ 94.0, 307.0, 27.0, 27.0 ],
					"id" : "obj-36",
					"numinlets" : 1
				}

			}
, 			{
				"box" : 				{
					"maxclass" : "toggle",
					"numoutlets" : 1,
					"outlettype" : [ "int" ],
					"patching_rect" : [ 66.0, 307.0, 27.0, 27.0 ],
					"id" : "obj-37",
					"numinlets" : 1
				}

			}
, 			{
				"box" : 				{
					"maxclass" : "toggle",
					"numoutlets" : 1,
					"outlettype" : [ "int" ],
					"patching_rect" : [ 38.0, 307.0, 27.0, 27.0 ],
					"id" : "obj-38",
					"numinlets" : 1
				}

			}
, 			{
				"box" : 				{
					"maxclass" : "newobj",
					"text" : "OSC-route /1 /2 /3 /4 /5 /6 /7 /8 /9 /10 /11 /12 /13 /14 /15 /16",
					"numoutlets" : 17,
					"outlettype" : [ "", "", "", "", "", "", "", "", "", "", "", "", "", "", "", "", "" ],
					"fontname" : "Arial",
					"patching_rect" : [ 28.0, 342.0, 479.0, 20.0 ],
					"fontsize" : 12.0,
					"id" : "obj-39",
					"numinlets" : 1
				}

			}
, 			{
				"box" : 				{
					"maxclass" : "newobj",
					"text" : "OSC-pc1600",
					"numoutlets" : 1,
					"outlettype" : [ "" ],
					"fontname" : "Arial",
					"patching_rect" : [ 28.0, 90.0, 86.0, 20.0 ],
					"color" : [ 1.0, 0.890196, 0.090196, 1.0 ],
					"fontsize" : 12.0,
					"id" : "obj-40",
					"numinlets" : 0
				}

			}
, 			{
				"box" : 				{
					"maxclass" : "comment",
					"text" : "<--- Double-click the patch to read important info on installing the device.",
					"numoutlets" : 0,
					"frgb" : [ 0.0, 0.0, 0.0, 1.0 ],
					"fontname" : "Arial",
					"patching_rect" : [ 114.0, 92.0, 456.0, 20.0 ],
					"fontsize" : 12.0,
					"id" : "obj-41",
					"numinlets" : 1
				}

			}
 ],
		"lines" : [ 			{
				"patchline" : 				{
					"source" : [ "obj-3", 1 ],
					"destination" : [ "obj-1", 0 ],
					"hidden" : 0,
					"midpoints" : [  ]
				}

			}
, 			{
				"patchline" : 				{
					"source" : [ "obj-3", 0 ],
					"destination" : [ "obj-2", 0 ],
					"hidden" : 0,
					"midpoints" : [  ]
				}

			}
, 			{
				"patchline" : 				{
					"source" : [ "obj-28", 2 ],
					"destination" : [ "obj-3", 0 ],
					"hidden" : 0,
					"midpoints" : [ 132.166672, 141.0, 523.5, 141.0 ]
				}

			}
, 			{
				"patchline" : 				{
					"source" : [ "obj-39", 15 ],
					"destination" : [ "obj-5", 0 ],
					"hidden" : 1,
					"midpoints" : [  ]
				}

			}
, 			{
				"patchline" : 				{
					"source" : [ "obj-11", 15 ],
					"destination" : [ "obj-12", 0 ],
					"hidden" : 0,
					"midpoints" : [  ]
				}

			}
, 			{
				"patchline" : 				{
					"source" : [ "obj-39", 14 ],
					"destination" : [ "obj-6", 0 ],
					"hidden" : 1,
					"midpoints" : [  ]
				}

			}
, 			{
				"patchline" : 				{
					"source" : [ "obj-11", 14 ],
					"destination" : [ "obj-13", 0 ],
					"hidden" : 0,
					"midpoints" : [  ]
				}

			}
, 			{
				"patchline" : 				{
					"source" : [ "obj-39", 13 ],
					"destination" : [ "obj-7", 0 ],
					"hidden" : 1,
					"midpoints" : [  ]
				}

			}
, 			{
				"patchline" : 				{
					"source" : [ "obj-11", 13 ],
					"destination" : [ "obj-14", 0 ],
					"hidden" : 0,
					"midpoints" : [  ]
				}

			}
, 			{
				"patchline" : 				{
					"source" : [ "obj-39", 12 ],
					"destination" : [ "obj-8", 0 ],
					"hidden" : 1,
					"midpoints" : [  ]
				}

			}
, 			{
				"patchline" : 				{
					"source" : [ "obj-11", 12 ],
					"destination" : [ "obj-15", 0 ],
					"hidden" : 0,
					"midpoints" : [  ]
				}

			}
, 			{
				"patchline" : 				{
					"source" : [ "obj-39", 11 ],
					"destination" : [ "obj-9", 0 ],
					"hidden" : 1,
					"midpoints" : [  ]
				}

			}
, 			{
				"patchline" : 				{
					"source" : [ "obj-11", 11 ],
					"destination" : [ "obj-16", 0 ],
					"hidden" : 0,
					"midpoints" : [  ]
				}

			}
, 			{
				"patchline" : 				{
					"source" : [ "obj-39", 10 ],
					"destination" : [ "obj-10", 0 ],
					"hidden" : 1,
					"midpoints" : [  ]
				}

			}
, 			{
				"patchline" : 				{
					"source" : [ "obj-11", 10 ],
					"destination" : [ "obj-17", 0 ],
					"hidden" : 0,
					"midpoints" : [  ]
				}

			}
, 			{
				"patchline" : 				{
					"source" : [ "obj-39", 9 ],
					"destination" : [ "obj-29", 0 ],
					"hidden" : 1,
					"midpoints" : [  ]
				}

			}
, 			{
				"patchline" : 				{
					"source" : [ "obj-11", 9 ],
					"destination" : [ "obj-18", 0 ],
					"hidden" : 0,
					"midpoints" : [  ]
				}

			}
, 			{
				"patchline" : 				{
					"source" : [ "obj-39", 8 ],
					"destination" : [ "obj-30", 0 ],
					"hidden" : 1,
					"midpoints" : [  ]
				}

			}
, 			{
				"patchline" : 				{
					"source" : [ "obj-11", 8 ],
					"destination" : [ "obj-19", 0 ],
					"hidden" : 0,
					"midpoints" : [  ]
				}

			}
, 			{
				"patchline" : 				{
					"source" : [ "obj-39", 7 ],
					"destination" : [ "obj-31", 0 ],
					"hidden" : 1,
					"midpoints" : [  ]
				}

			}
, 			{
				"patchline" : 				{
					"source" : [ "obj-11", 7 ],
					"destination" : [ "obj-20", 0 ],
					"hidden" : 0,
					"midpoints" : [  ]
				}

			}
, 			{
				"patchline" : 				{
					"source" : [ "obj-39", 6 ],
					"destination" : [ "obj-32", 0 ],
					"hidden" : 1,
					"midpoints" : [  ]
				}

			}
, 			{
				"patchline" : 				{
					"source" : [ "obj-11", 6 ],
					"destination" : [ "obj-21", 0 ],
					"hidden" : 0,
					"midpoints" : [  ]
				}

			}
, 			{
				"patchline" : 				{
					"source" : [ "obj-39", 5 ],
					"destination" : [ "obj-33", 0 ],
					"hidden" : 1,
					"midpoints" : [  ]
				}

			}
, 			{
				"patchline" : 				{
					"source" : [ "obj-11", 5 ],
					"destination" : [ "obj-22", 0 ],
					"hidden" : 0,
					"midpoints" : [  ]
				}

			}
, 			{
				"patchline" : 				{
					"source" : [ "obj-39", 4 ],
					"destination" : [ "obj-34", 0 ],
					"hidden" : 1,
					"midpoints" : [  ]
				}

			}
, 			{
				"patchline" : 				{
					"source" : [ "obj-11", 4 ],
					"destination" : [ "obj-23", 0 ],
					"hidden" : 0,
					"midpoints" : [  ]
				}

			}
, 			{
				"patchline" : 				{
					"source" : [ "obj-39", 3 ],
					"destination" : [ "obj-35", 0 ],
					"hidden" : 1,
					"midpoints" : [  ]
				}

			}
, 			{
				"patchline" : 				{
					"source" : [ "obj-11", 3 ],
					"destination" : [ "obj-24", 0 ],
					"hidden" : 0,
					"midpoints" : [  ]
				}

			}
, 			{
				"patchline" : 				{
					"source" : [ "obj-39", 2 ],
					"destination" : [ "obj-36", 0 ],
					"hidden" : 1,
					"midpoints" : [  ]
				}

			}
, 			{
				"patchline" : 				{
					"source" : [ "obj-11", 2 ],
					"destination" : [ "obj-25", 0 ],
					"hidden" : 0,
					"midpoints" : [  ]
				}

			}
, 			{
				"patchline" : 				{
					"source" : [ "obj-39", 1 ],
					"destination" : [ "obj-37", 0 ],
					"hidden" : 1,
					"midpoints" : [  ]
				}

			}
, 			{
				"patchline" : 				{
					"source" : [ "obj-11", 1 ],
					"destination" : [ "obj-26", 0 ],
					"hidden" : 0,
					"midpoints" : [  ]
				}

			}
, 			{
				"patchline" : 				{
					"source" : [ "obj-39", 0 ],
					"destination" : [ "obj-38", 0 ],
					"hidden" : 1,
					"midpoints" : [  ]
				}

			}
, 			{
				"patchline" : 				{
					"source" : [ "obj-11", 0 ],
					"destination" : [ "obj-27", 0 ],
					"hidden" : 0,
					"midpoints" : [  ]
				}

			}
, 			{
				"patchline" : 				{
					"source" : [ "obj-28", 1 ],
					"destination" : [ "obj-11", 0 ],
					"hidden" : 0,
					"midpoints" : [  ]
				}

			}
, 			{
				"patchline" : 				{
					"source" : [ "obj-28", 0 ],
					"destination" : [ "obj-39", 0 ],
					"hidden" : 0,
					"midpoints" : [  ]
				}

			}
, 			{
				"patchline" : 				{
					"source" : [ "obj-40", 0 ],
					"destination" : [ "obj-28", 0 ],
					"hidden" : 0,
					"midpoints" : [  ]
				}

			}
 ]
	}

}
