{
	"patcher" : 	{
		"fileversion" : 1,
		"rect" : [ 133.0, 44.0, 1152.0, 627.0 ],
		"bgcolor" : [ 0.87451, 0.933333, 1.0, 1.0 ],
		"bglocked" : 0,
		"defrect" : [ 133.0, 44.0, 1152.0, 627.0 ],
		"openrect" : [ 0.0, 0.0, 0.0, 0.0 ],
		"openinpresentation" : 0,
		"default_fontsize" : 12.0,
		"default_fontface" : 0,
		"default_fontname" : "Arial",
		"gridonopen" : 0,
		"gridsize" : [ 15.0, 15.0 ],
		"gridsnaponopen" : 0,
		"toolbarvisible" : 1,
		"boxanimatetime" : 200,
		"imprint" : 0,
		"boxes" : [ 			{
				"box" : 				{
					"maxclass" : "bpatcher",
					"prototypename" : "cnmat_badge",
					"id" : "obj-62",
					"args" : [ "multipan~", "1.3a", "Michael Zbyszynski", "multipan~", 6666 ],
					"numinlets" : 0,
					"patching_rect" : [ 20.0, 516.0, 296.0, 86.0 ],
					"numoutlets" : 0,
					"name" : "badge.maxpat"
				}

			}
, 			{
				"box" : 				{
					"maxclass" : "newobj",
					"text" : "clip 2 12",
					"id" : "obj-1",
					"fontname" : "Arial",
					"fontsize" : 9.0,
					"numinlets" : 3,
					"patching_rect" : [ 820.0, 135.0, 50.0, 17.0 ],
					"numoutlets" : 1,
					"outlettype" : [ "" ]
				}

			}
, 			{
				"box" : 				{
					"maxclass" : "inlet",
					"varname" : "in-12",
					"id" : "obj-2",
					"numinlets" : 0,
					"patching_rect" : [ 403.0, 74.0, 15.0, 15.0 ],
					"numoutlets" : 1,
					"outlettype" : [ "" ],
					"comment" : "in-12"
				}

			}
, 			{
				"box" : 				{
					"maxclass" : "inlet",
					"varname" : "in-11",
					"id" : "obj-3",
					"numinlets" : 0,
					"patching_rect" : [ 386.0, 74.0, 15.0, 15.0 ],
					"numoutlets" : 1,
					"outlettype" : [ "" ],
					"comment" : "in-11"
				}

			}
, 			{
				"box" : 				{
					"maxclass" : "inlet",
					"varname" : "in-10",
					"id" : "obj-4",
					"numinlets" : 0,
					"patching_rect" : [ 370.0, 74.0, 15.0, 15.0 ],
					"numoutlets" : 1,
					"outlettype" : [ "" ],
					"comment" : "in-10"
				}

			}
, 			{
				"box" : 				{
					"maxclass" : "inlet",
					"varname" : "in-9",
					"id" : "obj-5",
					"numinlets" : 0,
					"patching_rect" : [ 353.0, 74.0, 15.0, 15.0 ],
					"numoutlets" : 1,
					"outlettype" : [ "" ],
					"comment" : "in-9"
				}

			}
, 			{
				"box" : 				{
					"maxclass" : "inlet",
					"varname" : "in-8",
					"id" : "obj-6",
					"numinlets" : 0,
					"patching_rect" : [ 335.0, 74.0, 15.0, 15.0 ],
					"numoutlets" : 1,
					"outlettype" : [ "" ],
					"comment" : "in-8"
				}

			}
, 			{
				"box" : 				{
					"maxclass" : "inlet",
					"varname" : "in-7",
					"id" : "obj-7",
					"numinlets" : 0,
					"patching_rect" : [ 318.0, 74.0, 15.0, 15.0 ],
					"numoutlets" : 1,
					"outlettype" : [ "" ],
					"comment" : "in-7"
				}

			}
, 			{
				"box" : 				{
					"maxclass" : "inlet",
					"varname" : "in-6",
					"id" : "obj-8",
					"numinlets" : 0,
					"patching_rect" : [ 301.0, 74.0, 15.0, 15.0 ],
					"numoutlets" : 1,
					"outlettype" : [ "" ],
					"comment" : "in-6"
				}

			}
, 			{
				"box" : 				{
					"maxclass" : "inlet",
					"varname" : "in-5",
					"id" : "obj-9",
					"numinlets" : 0,
					"patching_rect" : [ 283.0, 74.0, 15.0, 15.0 ],
					"numoutlets" : 1,
					"outlettype" : [ "" ],
					"comment" : "in-5"
				}

			}
, 			{
				"box" : 				{
					"maxclass" : "inlet",
					"varname" : "in-4",
					"id" : "obj-10",
					"numinlets" : 0,
					"patching_rect" : [ 266.0, 74.0, 15.0, 15.0 ],
					"numoutlets" : 1,
					"outlettype" : [ "" ],
					"comment" : "in-4"
				}

			}
, 			{
				"box" : 				{
					"maxclass" : "inlet",
					"varname" : "in-3",
					"id" : "obj-11",
					"numinlets" : 0,
					"patching_rect" : [ 249.0, 74.0, 15.0, 15.0 ],
					"numoutlets" : 1,
					"outlettype" : [ "" ],
					"comment" : "in-3"
				}

			}
, 			{
				"box" : 				{
					"maxclass" : "inlet",
					"varname" : "in-2",
					"id" : "obj-12",
					"numinlets" : 0,
					"patching_rect" : [ 232.0, 74.0, 15.0, 15.0 ],
					"numoutlets" : 1,
					"outlettype" : [ "" ],
					"comment" : "in-2"
				}

			}
, 			{
				"box" : 				{
					"maxclass" : "inlet",
					"varname" : "in-1",
					"id" : "obj-13",
					"numinlets" : 0,
					"patching_rect" : [ 212.0, 74.0, 15.0, 15.0 ],
					"numoutlets" : 1,
					"outlettype" : [ "" ],
					"comment" : "in-1"
				}

			}
, 			{
				"box" : 				{
					"maxclass" : "newobj",
					"varname" : "pc-12",
					"text" : "pancore 11",
					"id" : "obj-14",
					"fontname" : "Arial",
					"fontsize" : 9.0,
					"numinlets" : 2,
					"patching_rect" : [ 639.0, 308.0, 60.0, 17.0 ],
					"numoutlets" : 3,
					"outlettype" : [ "", "", "" ]
				}

			}
, 			{
				"box" : 				{
					"maxclass" : "newobj",
					"varname" : "pc-11",
					"text" : "pancore 10",
					"id" : "obj-15",
					"fontname" : "Arial",
					"fontsize" : 9.0,
					"numinlets" : 2,
					"patching_rect" : [ 575.0, 308.0, 60.0, 17.0 ],
					"numoutlets" : 3,
					"outlettype" : [ "", "", "" ]
				}

			}
, 			{
				"box" : 				{
					"maxclass" : "outlet",
					"varname" : "out-9",
					"id" : "obj-16",
					"numinlets" : 1,
					"patching_rect" : [ 338.0, 485.0, 15.0, 15.0 ],
					"numoutlets" : 0,
					"comment" : ""
				}

			}
, 			{
				"box" : 				{
					"maxclass" : "outlet",
					"varname" : "out-10",
					"id" : "obj-17",
					"numinlets" : 1,
					"patching_rect" : [ 351.0, 462.0, 15.0, 15.0 ],
					"numoutlets" : 0,
					"comment" : ""
				}

			}
, 			{
				"box" : 				{
					"maxclass" : "outlet",
					"varname" : "out-11",
					"id" : "obj-18",
					"numinlets" : 1,
					"patching_rect" : [ 364.0, 485.0, 15.0, 15.0 ],
					"numoutlets" : 0,
					"comment" : ""
				}

			}
, 			{
				"box" : 				{
					"maxclass" : "outlet",
					"varname" : "out-12",
					"id" : "obj-19",
					"numinlets" : 1,
					"patching_rect" : [ 377.0, 462.0, 15.0, 15.0 ],
					"numoutlets" : 0,
					"comment" : ""
				}

			}
, 			{
				"box" : 				{
					"maxclass" : "outlet",
					"varname" : "out-13",
					"id" : "obj-20",
					"numinlets" : 1,
					"patching_rect" : [ 390.0, 485.0, 15.0, 15.0 ],
					"numoutlets" : 0,
					"comment" : ""
				}

			}
, 			{
				"box" : 				{
					"maxclass" : "outlet",
					"varname" : "out-14",
					"id" : "obj-21",
					"numinlets" : 1,
					"patching_rect" : [ 403.0, 462.0, 15.0, 15.0 ],
					"numoutlets" : 0,
					"comment" : ""
				}

			}
, 			{
				"box" : 				{
					"maxclass" : "outlet",
					"varname" : "out-15",
					"id" : "obj-22",
					"numinlets" : 1,
					"patching_rect" : [ 416.0, 485.0, 15.0, 15.0 ],
					"numoutlets" : 0,
					"comment" : ""
				}

			}
, 			{
				"box" : 				{
					"maxclass" : "outlet",
					"varname" : "out-16",
					"id" : "obj-23",
					"numinlets" : 1,
					"patching_rect" : [ 429.0, 462.0, 15.0, 15.0 ],
					"numoutlets" : 0,
					"comment" : ""
				}

			}
, 			{
				"box" : 				{
					"maxclass" : "newobj",
					"text" : "print ••",
					"id" : "obj-24",
					"fontname" : "Arial",
					"fontsize" : 9.0,
					"numinlets" : 1,
					"patching_rect" : [ 769.0, 302.0, 47.0, 17.0 ],
					"numoutlets" : 0
				}

			}
, 			{
				"box" : 				{
					"maxclass" : "message",
					"text" : "multipan~ version 1.3alpha",
					"id" : "obj-25",
					"fontname" : "Arial",
					"fontsize" : 9.0,
					"numinlets" : 2,
					"patching_rect" : [ 769.0, 274.0, 132.0, 15.0 ],
					"numoutlets" : 1,
					"outlettype" : [ "" ]
				}

			}
, 			{
				"box" : 				{
					"maxclass" : "newobj",
					"text" : "OSC-route /version",
					"id" : "obj-26",
					"fontname" : "Arial",
					"fontsize" : 9.0,
					"numinlets" : 1,
					"patching_rect" : [ 769.0, 245.0, 100.0, 17.0 ],
					"numoutlets" : 2,
					"outlettype" : [ "", "" ]
				}

			}
, 			{
				"box" : 				{
					"maxclass" : "newobj",
					"text" : "coll ls-positions 1",
					"id" : "obj-30",
					"fontname" : "Arial",
					"fontsize" : 9.0,
					"numinlets" : 1,
					"patching_rect" : [ 471.0, 113.0, 91.0, 17.0 ],
					"numoutlets" : 4,
					"outlettype" : [ "", "", "", "" ],
					"coll_data" : 					{
						"count" : 13,
						"data" : [ 							{
								"key" : 4,
								"value" : [ "/*/define_loudspeakers", 2, 315, 45, 135, 225 ]
							}
, 							{
								"key" : 5,
								"value" : [ "/*/define_loudspeakers", 2, 315, 0, 45, 135, 225 ]
							}
, 							{
								"key" : 6,
								"value" : [ "/*/define_loudspeakers", 2, 315, 45, 90, 135, 225, 270 ]
							}
, 							{
								"key" : 7,
								"value" : [ "/*/define_loudspeakers", 2, 315, 0, 45, 90, 135, 225, 270 ]
							}
, 							{
								"key" : 8,
								"value" : [ "/*/define_loudspeakers", 2, 315, 0, 45, 90, 135, 180, 225, 270 ]
							}
, 							{
								"key" : 9,
								"value" : [ "/*/define_loudspeakers", 2, 320, 0, 40, 80, 120, 160, 200, 240, 280 ]
							}
, 							{
								"key" : 10,
								"value" : [ "/*/define_loudspeakers", 2, 324, 0, 36, 72, 108, 144, 180, 216, 252, 288 ]
							}
, 							{
								"key" : 11,
								"value" : [ "/*/define_loudspeakers", 2, 315, 0, 45, 90, 135, 180, 225, 270 ]
							}
, 							{
								"key" : 12,
								"value" : [ "/*/define_loudspeakers", 2, 330, 0, 30, 60, 90, 120, 150, 180, 210, 240, 270, 300 ]
							}
, 							{
								"key" : 13,
								"value" : [ "/*/define_loudspeakers", 2, 315, 0, 45, 90, 135, 180, 225, 270 ]
							}
, 							{
								"key" : 14,
								"value" : [ "/*/define_loudspeakers", 2, 315, 0, 45, 90, 135, 180, 225, 270 ]
							}
, 							{
								"key" : 15,
								"value" : [ "/*/define_loudspeakers", 2, 336, 0, 24, 48, 72, 96, 120, 144, 168, 192, 216, 240, 264, 288, 312 ]
							}
, 							{
								"key" : 16,
								"value" : [ "/*/define_loudspeakers", 2, 337.5, 0, 22.5, 45, 67.5, 90, 112.5, 135, 157.5, 180, 202.5, 225, 247.5, 270, 292.5, 315 ]
							}
 ]
					}
,
					"saved_object_attributes" : 					{
						"embed" : 1
					}

				}

			}
, 			{
				"box" : 				{
					"maxclass" : "message",
					"text" : "8",
					"id" : "obj-31",
					"fontname" : "Arial",
					"fontsize" : 9.0,
					"numinlets" : 2,
					"patching_rect" : [ 893.0, 110.0, 16.0, 15.0 ],
					"numoutlets" : 1,
					"outlettype" : [ "" ]
				}

			}
, 			{
				"box" : 				{
					"maxclass" : "newobj",
					"text" : "sel 0",
					"id" : "obj-32",
					"fontname" : "Arial",
					"fontsize" : 9.0,
					"numinlets" : 2,
					"patching_rect" : [ 893.0, 86.0, 32.0, 17.0 ],
					"numoutlets" : 2,
					"outlettype" : [ "bang", "" ]
				}

			}
, 			{
				"box" : 				{
					"maxclass" : "newobj",
					"text" : "clip 4 16",
					"id" : "obj-33",
					"fontname" : "Arial",
					"fontsize" : 9.0,
					"numinlets" : 3,
					"patching_rect" : [ 893.0, 136.0, 50.0, 17.0 ],
					"numoutlets" : 1,
					"outlettype" : [ "" ]
				}

			}
, 			{
				"box" : 				{
					"maxclass" : "newobj",
					"text" : "loadmess #2",
					"id" : "obj-34",
					"fontname" : "Arial",
					"fontsize" : 9.0,
					"numinlets" : 1,
					"patching_rect" : [ 893.0, 64.0, 67.0, 17.0 ],
					"numoutlets" : 1,
					"outlettype" : [ "" ]
				}

			}
, 			{
				"box" : 				{
					"maxclass" : "message",
					"text" : "signal",
					"id" : "obj-35",
					"fontname" : "Arial",
					"fontsize" : 9.0,
					"numinlets" : 2,
					"patching_rect" : [ 212.0, 143.0, 36.0, 15.0 ],
					"numoutlets" : 1,
					"outlettype" : [ "" ]
				}

			}
, 			{
				"box" : 				{
					"maxclass" : "newobj",
					"text" : "route signal",
					"id" : "obj-36",
					"fontname" : "Arial",
					"fontsize" : 9.0,
					"numinlets" : 1,
					"patching_rect" : [ 212.0, 119.0, 63.0, 17.0 ],
					"numoutlets" : 2,
					"outlettype" : [ "", "" ]
				}

			}
, 			{
				"box" : 				{
					"maxclass" : "message",
					"text" : "2",
					"id" : "obj-37",
					"fontname" : "Arial",
					"fontsize" : 9.0,
					"numinlets" : 2,
					"patching_rect" : [ 820.0, 108.0, 16.0, 15.0 ],
					"numoutlets" : 1,
					"outlettype" : [ "" ]
				}

			}
, 			{
				"box" : 				{
					"maxclass" : "newobj",
					"text" : "sel 0 1",
					"id" : "obj-38",
					"fontname" : "Arial",
					"fontsize" : 9.0,
					"numinlets" : 1,
					"patching_rect" : [ 820.0, 86.0, 41.0, 17.0 ],
					"numoutlets" : 3,
					"outlettype" : [ "bang", "bang", "" ]
				}

			}
, 			{
				"box" : 				{
					"maxclass" : "newobj",
					"text" : "p setup",
					"id" : "obj-39",
					"fontname" : "Arial",
					"fontsize" : 9.0,
					"numinlets" : 2,
					"patching_rect" : [ 820.0, 163.0, 42.0, 17.0 ],
					"numoutlets" : 1,
					"outlettype" : [ "" ],
					"patcher" : 					{
						"fileversion" : 1,
						"rect" : [ 478.0, 219.0, 791.0, 564.0 ],
						"bglocked" : 0,
						"defrect" : [ 478.0, 219.0, 791.0, 564.0 ],
						"openrect" : [ 0.0, 0.0, 0.0, 0.0 ],
						"openinpresentation" : 0,
						"default_fontsize" : 12.0,
						"default_fontface" : 0,
						"default_fontname" : "Arial",
						"gridonopen" : 0,
						"gridsize" : [ 15.0, 15.0 ],
						"gridsnaponopen" : 0,
						"toolbarvisible" : 1,
						"boxanimatetime" : 200,
						"imprint" : 0,
						"boxes" : [ 							{
								"box" : 								{
									"maxclass" : "newobj",
									"text" : "t i i",
									"id" : "obj-1",
									"fontname" : "Arial",
									"fontsize" : 9.0,
									"numinlets" : 1,
									"patching_rect" : [ 498.0, 87.0, 27.0, 17.0 ],
									"numoutlets" : 2,
									"outlettype" : [ "int", "int" ]
								}

							}
, 							{
								"box" : 								{
									"maxclass" : "inlet",
									"id" : "obj-2",
									"numinlets" : 0,
									"patching_rect" : [ 492.0, 59.0, 15.0, 15.0 ],
									"numoutlets" : 1,
									"outlettype" : [ "" ],
									"comment" : ""
								}

							}
, 							{
								"box" : 								{
									"maxclass" : "newobj",
									"text" : "!- 17",
									"id" : "obj-3",
									"fontname" : "Arial",
									"fontsize" : 9.0,
									"numinlets" : 2,
									"patching_rect" : [ 470.0, 287.0, 33.0, 17.0 ],
									"numoutlets" : 1,
									"outlettype" : [ "int" ]
								}

							}
, 							{
								"box" : 								{
									"maxclass" : "newobj",
									"text" : "Uzi",
									"id" : "obj-4",
									"fontname" : "Arial",
									"fontsize" : 9.0,
									"numinlets" : 2,
									"patching_rect" : [ 440.0, 256.0, 40.0, 17.0 ],
									"numoutlets" : 3,
									"outlettype" : [ "bang", "bang", "int" ]
								}

							}
, 							{
								"box" : 								{
									"maxclass" : "newobj",
									"text" : "!- 16",
									"id" : "obj-5",
									"fontname" : "Arial",
									"fontsize" : 9.0,
									"numinlets" : 2,
									"patching_rect" : [ 440.0, 235.0, 33.0, 17.0 ],
									"numoutlets" : 1,
									"outlettype" : [ "int" ]
								}

							}
, 							{
								"box" : 								{
									"maxclass" : "newobj",
									"text" : "sprintf script delete out-%ld",
									"id" : "obj-6",
									"fontname" : "Arial",
									"fontsize" : 9.0,
									"numinlets" : 1,
									"patching_rect" : [ 471.0, 312.0, 140.0, 17.0 ],
									"numoutlets" : 1,
									"outlettype" : [ "" ]
								}

							}
, 							{
								"box" : 								{
									"maxclass" : "newobj",
									"text" : "- 1",
									"id" : "obj-7",
									"fontname" : "Arial",
									"fontsize" : 9.0,
									"numinlets" : 2,
									"patching_rect" : [ 649.0, 218.0, 27.0, 17.0 ],
									"numoutlets" : 1,
									"outlettype" : [ "int" ]
								}

							}
, 							{
								"box" : 								{
									"maxclass" : "newobj",
									"text" : "t i i",
									"id" : "obj-8",
									"fontname" : "Arial",
									"fontsize" : 9.0,
									"numinlets" : 1,
									"patching_rect" : [ 675.0, 193.0, 27.0, 17.0 ],
									"numoutlets" : 2,
									"outlettype" : [ "int", "int" ]
								}

							}
, 							{
								"box" : 								{
									"maxclass" : "newobj",
									"text" : "Uzi",
									"id" : "obj-9",
									"fontname" : "Arial",
									"fontsize" : 9.0,
									"numinlets" : 2,
									"patching_rect" : [ 645.0, 171.0, 40.0, 17.0 ],
									"numoutlets" : 3,
									"outlettype" : [ "bang", "bang", "int" ]
								}

							}
, 							{
								"box" : 								{
									"maxclass" : "newobj",
									"text" : "sprintf script connect mp-matrix %ld out-%ld 0",
									"id" : "obj-10",
									"fontname" : "Arial",
									"fontsize" : 9.0,
									"numinlets" : 2,
									"patching_rect" : [ 524.0, 245.0, 228.0, 17.0 ],
									"numoutlets" : 1,
									"outlettype" : [ "" ]
								}

							}
, 							{
								"box" : 								{
									"maxclass" : "newobj",
									"text" : "sel 1",
									"id" : "obj-11",
									"fontname" : "Arial",
									"fontsize" : 9.0,
									"numinlets" : 2,
									"patching_rect" : [ 114.0, 181.0, 32.0, 17.0 ],
									"numoutlets" : 2,
									"outlettype" : [ "bang", "" ]
								}

							}
, 							{
								"box" : 								{
									"maxclass" : "newobj",
									"text" : "!- 13",
									"id" : "obj-12",
									"fontname" : "Arial",
									"fontsize" : 9.0,
									"numinlets" : 2,
									"patching_rect" : [ 242.0, 288.0, 33.0, 17.0 ],
									"numoutlets" : 1,
									"outlettype" : [ "int" ]
								}

							}
, 							{
								"box" : 								{
									"maxclass" : "newobj",
									"text" : "Uzi",
									"id" : "obj-13",
									"fontname" : "Arial",
									"fontsize" : 9.0,
									"numinlets" : 2,
									"patching_rect" : [ 212.0, 257.0, 40.0, 17.0 ],
									"numoutlets" : 3,
									"outlettype" : [ "bang", "bang", "int" ]
								}

							}
, 							{
								"box" : 								{
									"maxclass" : "newobj",
									"text" : "!- 12",
									"id" : "obj-14",
									"fontname" : "Arial",
									"fontsize" : 9.0,
									"numinlets" : 2,
									"patching_rect" : [ 212.0, 236.0, 33.0, 17.0 ],
									"numoutlets" : 1,
									"outlettype" : [ "int" ]
								}

							}
, 							{
								"box" : 								{
									"maxclass" : "newobj",
									"text" : "sprintf script delete in-%ld",
									"id" : "obj-15",
									"fontname" : "Arial",
									"fontsize" : 9.0,
									"numinlets" : 1,
									"patching_rect" : [ 242.0, 314.0, 134.0, 17.0 ],
									"numoutlets" : 1,
									"outlettype" : [ "" ]
								}

							}
, 							{
								"box" : 								{
									"maxclass" : "newobj",
									"text" : "sprintf script connect pc-%ld 1 mp-matrix 0",
									"id" : "obj-16",
									"fontname" : "Arial",
									"fontsize" : 9.0,
									"numinlets" : 1,
									"patching_rect" : [ 1.0, 374.0, 213.0, 17.0 ],
									"numoutlets" : 1,
									"outlettype" : [ "" ]
								}

							}
, 							{
								"box" : 								{
									"maxclass" : "newobj",
									"text" : "- 1",
									"id" : "obj-17",
									"fontname" : "Arial",
									"fontsize" : 9.0,
									"numinlets" : 2,
									"patching_rect" : [ 100.0, 253.0, 27.0, 17.0 ],
									"numoutlets" : 1,
									"outlettype" : [ "int" ]
								}

							}
, 							{
								"box" : 								{
									"maxclass" : "newobj",
									"text" : "Uzi",
									"id" : "obj-18",
									"fontname" : "Arial",
									"fontsize" : 9.0,
									"numinlets" : 2,
									"patching_rect" : [ 69.0, 230.0, 40.0, 17.0 ],
									"numoutlets" : 3,
									"outlettype" : [ "bang", "bang", "int" ]
								}

							}
, 							{
								"box" : 								{
									"maxclass" : "newobj",
									"text" : "sprintf script connect pc-%ld 0 mp-matrix %ld",
									"id" : "obj-19",
									"fontname" : "Arial",
									"fontsize" : 9.0,
									"numinlets" : 2,
									"patching_rect" : [ 55.0, 354.0, 224.0, 17.0 ],
									"numoutlets" : 1,
									"outlettype" : [ "" ]
								}

							}
, 							{
								"box" : 								{
									"maxclass" : "newobj",
									"text" : "sprintf script connect in-%ld 0 pc-%ld 0",
									"id" : "obj-20",
									"fontname" : "Arial",
									"fontsize" : 9.0,
									"numinlets" : 2,
									"patching_rect" : [ 136.0, 207.0, 194.0, 17.0 ],
									"numoutlets" : 1,
									"outlettype" : [ "" ]
								}

							}
, 							{
								"box" : 								{
									"maxclass" : "newobj",
									"text" : "Uzi",
									"id" : "obj-21",
									"fontname" : "Arial",
									"fontsize" : 9.0,
									"numinlets" : 2,
									"patching_rect" : [ 84.0, 157.0, 40.0, 17.0 ],
									"numoutlets" : 3,
									"outlettype" : [ "bang", "bang", "int" ]
								}

							}
, 							{
								"box" : 								{
									"maxclass" : "newobj",
									"text" : "t i i i",
									"id" : "obj-22",
									"fontname" : "Arial",
									"fontsize" : 9.0,
									"numinlets" : 1,
									"patching_rect" : [ 69.0, 117.0, 40.0, 17.0 ],
									"numoutlets" : 3,
									"outlettype" : [ "int", "int", "int" ]
								}

							}
, 							{
								"box" : 								{
									"maxclass" : "inlet",
									"id" : "obj-23",
									"numinlets" : 0,
									"patching_rect" : [ 69.0, 97.0, 15.0, 15.0 ],
									"numoutlets" : 1,
									"outlettype" : [ "" ],
									"comment" : ""
								}

							}
, 							{
								"box" : 								{
									"maxclass" : "outlet",
									"id" : "obj-24",
									"numinlets" : 1,
									"patching_rect" : [ 160.0, 472.0, 15.0, 15.0 ],
									"numoutlets" : 0,
									"comment" : ""
								}

							}
 ],
						"lines" : [ 							{
								"patchline" : 								{
									"source" : [ "obj-8", 1 ],
									"destination" : [ "obj-10", 1 ],
									"hidden" : 0,
									"midpoints" : [  ]
								}

							}
, 							{
								"patchline" : 								{
									"source" : [ "obj-9", 2 ],
									"destination" : [ "obj-8", 0 ],
									"hidden" : 0,
									"midpoints" : [  ]
								}

							}
, 							{
								"patchline" : 								{
									"source" : [ "obj-8", 0 ],
									"destination" : [ "obj-7", 0 ],
									"hidden" : 0,
									"midpoints" : [  ]
								}

							}
, 							{
								"patchline" : 								{
									"source" : [ "obj-1", 1 ],
									"destination" : [ "obj-9", 0 ],
									"hidden" : 0,
									"midpoints" : [  ]
								}

							}
, 							{
								"patchline" : 								{
									"source" : [ "obj-7", 0 ],
									"destination" : [ "obj-10", 0 ],
									"hidden" : 0,
									"midpoints" : [  ]
								}

							}
, 							{
								"patchline" : 								{
									"source" : [ "obj-2", 0 ],
									"destination" : [ "obj-1", 0 ],
									"hidden" : 0,
									"midpoints" : [  ]
								}

							}
, 							{
								"patchline" : 								{
									"source" : [ "obj-3", 0 ],
									"destination" : [ "obj-6", 0 ],
									"hidden" : 0,
									"midpoints" : [  ]
								}

							}
, 							{
								"patchline" : 								{
									"source" : [ "obj-4", 2 ],
									"destination" : [ "obj-3", 0 ],
									"hidden" : 0,
									"midpoints" : [  ]
								}

							}
, 							{
								"patchline" : 								{
									"source" : [ "obj-5", 0 ],
									"destination" : [ "obj-4", 0 ],
									"hidden" : 0,
									"midpoints" : [  ]
								}

							}
, 							{
								"patchline" : 								{
									"source" : [ "obj-1", 0 ],
									"destination" : [ "obj-5", 0 ],
									"hidden" : 0,
									"midpoints" : [  ]
								}

							}
, 							{
								"patchline" : 								{
									"source" : [ "obj-11", 1 ],
									"destination" : [ "obj-20", 1 ],
									"hidden" : 0,
									"midpoints" : [  ]
								}

							}
, 							{
								"patchline" : 								{
									"source" : [ "obj-17", 0 ],
									"destination" : [ "obj-19", 1 ],
									"hidden" : 0,
									"midpoints" : [  ]
								}

							}
, 							{
								"patchline" : 								{
									"source" : [ "obj-12", 0 ],
									"destination" : [ "obj-15", 0 ],
									"hidden" : 0,
									"midpoints" : [  ]
								}

							}
, 							{
								"patchline" : 								{
									"source" : [ "obj-13", 2 ],
									"destination" : [ "obj-12", 0 ],
									"hidden" : 0,
									"midpoints" : [  ]
								}

							}
, 							{
								"patchline" : 								{
									"source" : [ "obj-14", 0 ],
									"destination" : [ "obj-13", 0 ],
									"hidden" : 0,
									"midpoints" : [  ]
								}

							}
, 							{
								"patchline" : 								{
									"source" : [ "obj-22", 2 ],
									"destination" : [ "obj-14", 0 ],
									"hidden" : 0,
									"midpoints" : [  ]
								}

							}
, 							{
								"patchline" : 								{
									"source" : [ "obj-6", 0 ],
									"destination" : [ "obj-24", 0 ],
									"hidden" : 0,
									"midpoints" : [  ]
								}

							}
, 							{
								"patchline" : 								{
									"source" : [ "obj-16", 0 ],
									"destination" : [ "obj-24", 0 ],
									"hidden" : 0,
									"midpoints" : [  ]
								}

							}
, 							{
								"patchline" : 								{
									"source" : [ "obj-19", 0 ],
									"destination" : [ "obj-24", 0 ],
									"hidden" : 0,
									"midpoints" : [  ]
								}

							}
, 							{
								"patchline" : 								{
									"source" : [ "obj-20", 0 ],
									"destination" : [ "obj-24", 0 ],
									"hidden" : 0,
									"midpoints" : [  ]
								}

							}
, 							{
								"patchline" : 								{
									"source" : [ "obj-15", 0 ],
									"destination" : [ "obj-24", 0 ],
									"hidden" : 0,
									"midpoints" : [  ]
								}

							}
, 							{
								"patchline" : 								{
									"source" : [ "obj-10", 0 ],
									"destination" : [ "obj-24", 0 ],
									"hidden" : 0,
									"midpoints" : [  ]
								}

							}
, 							{
								"patchline" : 								{
									"source" : [ "obj-11", 1 ],
									"destination" : [ "obj-20", 0 ],
									"hidden" : 0,
									"midpoints" : [  ]
								}

							}
, 							{
								"patchline" : 								{
									"source" : [ "obj-21", 2 ],
									"destination" : [ "obj-11", 0 ],
									"hidden" : 0,
									"midpoints" : [  ]
								}

							}
, 							{
								"patchline" : 								{
									"source" : [ "obj-18", 2 ],
									"destination" : [ "obj-17", 0 ],
									"hidden" : 0,
									"midpoints" : [  ]
								}

							}
, 							{
								"patchline" : 								{
									"source" : [ "obj-22", 1 ],
									"destination" : [ "obj-21", 0 ],
									"hidden" : 0,
									"midpoints" : [  ]
								}

							}
, 							{
								"patchline" : 								{
									"source" : [ "obj-22", 0 ],
									"destination" : [ "obj-18", 0 ],
									"hidden" : 0,
									"midpoints" : [  ]
								}

							}
, 							{
								"patchline" : 								{
									"source" : [ "obj-23", 0 ],
									"destination" : [ "obj-22", 0 ],
									"hidden" : 0,
									"midpoints" : [  ]
								}

							}
, 							{
								"patchline" : 								{
									"source" : [ "obj-18", 2 ],
									"destination" : [ "obj-19", 0 ],
									"hidden" : 0,
									"midpoints" : [  ]
								}

							}
, 							{
								"patchline" : 								{
									"source" : [ "obj-18", 2 ],
									"destination" : [ "obj-16", 0 ],
									"hidden" : 0,
									"midpoints" : [  ]
								}

							}
 ]
					}
,
					"saved_object_attributes" : 					{
						"fontname" : "Arial",
						"default_fontface" : 0,
						"globalpatchername" : "",
						"fontface" : 0,
						"default_fontname" : "Arial",
						"fontsize" : 12.0,
						"default_fontsize" : 12.0
					}

				}

			}
, 			{
				"box" : 				{
					"maxclass" : "newobj",
					"text" : "loadmess #1",
					"id" : "obj-40",
					"fontname" : "Arial",
					"fontsize" : 9.0,
					"numinlets" : 1,
					"patching_rect" : [ 820.0, 64.0, 67.0, 17.0 ],
					"numoutlets" : 1,
					"outlettype" : [ "" ]
				}

			}
, 			{
				"box" : 				{
					"maxclass" : "newobj",
					"text" : "thispatcher",
					"id" : "obj-41",
					"fontname" : "Arial",
					"fontsize" : 9.0,
					"numinlets" : 1,
					"patching_rect" : [ 820.0, 187.0, 61.0, 17.0 ],
					"numoutlets" : 2,
					"outlettype" : [ "", "" ],
					"save" : [ "#N", "thispatcher", ";", "#Q", "end", ";" ]
				}

			}
, 			{
				"box" : 				{
					"maxclass" : "newobj",
					"varname" : "pc-10",
					"text" : "pancore 9",
					"id" : "obj-42",
					"fontname" : "Arial",
					"fontsize" : 9.0,
					"numinlets" : 2,
					"patching_rect" : [ 590.0, 276.0, 54.0, 17.0 ],
					"numoutlets" : 3,
					"outlettype" : [ "", "", "" ]
				}

			}
, 			{
				"box" : 				{
					"maxclass" : "newobj",
					"varname" : "pc-9",
					"text" : "pancore 8",
					"id" : "obj-43",
					"fontname" : "Arial",
					"fontsize" : 9.0,
					"numinlets" : 2,
					"patching_rect" : [ 532.0, 276.0, 54.0, 17.0 ],
					"numoutlets" : 3,
					"outlettype" : [ "", "", "" ]
				}

			}
, 			{
				"box" : 				{
					"maxclass" : "newobj",
					"varname" : "pc-8",
					"text" : "pancore 7",
					"id" : "obj-44",
					"fontname" : "Arial",
					"fontsize" : 9.0,
					"numinlets" : 2,
					"patching_rect" : [ 475.0, 276.0, 54.0, 17.0 ],
					"numoutlets" : 3,
					"outlettype" : [ "", "", "" ]
				}

			}
, 			{
				"box" : 				{
					"maxclass" : "newobj",
					"varname" : "pc-7",
					"text" : "pancore 6",
					"id" : "obj-45",
					"fontname" : "Arial",
					"fontsize" : 9.0,
					"numinlets" : 2,
					"patching_rect" : [ 419.0, 276.0, 54.0, 17.0 ],
					"numoutlets" : 3,
					"outlettype" : [ "", "", "" ]
				}

			}
, 			{
				"box" : 				{
					"maxclass" : "newobj",
					"varname" : "pc-6",
					"text" : "pancore 5",
					"id" : "obj-46",
					"fontname" : "Arial",
					"fontsize" : 9.0,
					"numinlets" : 2,
					"patching_rect" : [ 363.0, 276.0, 54.0, 17.0 ],
					"numoutlets" : 3,
					"outlettype" : [ "", "", "" ]
				}

			}
, 			{
				"box" : 				{
					"maxclass" : "newobj",
					"varname" : "pc-5",
					"text" : "pancore 4",
					"id" : "obj-47",
					"fontname" : "Arial",
					"fontsize" : 9.0,
					"numinlets" : 2,
					"patching_rect" : [ 433.0, 233.0, 54.0, 17.0 ],
					"numoutlets" : 3,
					"outlettype" : [ "", "", "" ]
				}

			}
, 			{
				"box" : 				{
					"maxclass" : "newobj",
					"varname" : "pc-4",
					"text" : "pancore 3",
					"id" : "obj-48",
					"fontname" : "Arial",
					"fontsize" : 9.0,
					"numinlets" : 2,
					"patching_rect" : [ 378.0, 233.0, 54.0, 17.0 ],
					"numoutlets" : 3,
					"outlettype" : [ "", "", "" ]
				}

			}
, 			{
				"box" : 				{
					"maxclass" : "newobj",
					"varname" : "pc-3",
					"text" : "pancore 2",
					"id" : "obj-49",
					"fontname" : "Arial",
					"fontsize" : 9.0,
					"numinlets" : 2,
					"patching_rect" : [ 323.0, 233.0, 54.0, 17.0 ],
					"numoutlets" : 3,
					"outlettype" : [ "", "", "" ]
				}

			}
, 			{
				"box" : 				{
					"maxclass" : "newobj",
					"varname" : "pc-2",
					"text" : "pancore 1",
					"id" : "obj-50",
					"fontname" : "Arial",
					"fontsize" : 9.0,
					"numinlets" : 2,
					"patching_rect" : [ 268.0, 233.0, 54.0, 17.0 ],
					"numoutlets" : 3,
					"outlettype" : [ "", "", "" ]
				}

			}
, 			{
				"box" : 				{
					"maxclass" : "outlet",
					"varname" : "out-1",
					"id" : "obj-51",
					"numinlets" : 1,
					"patching_rect" : [ 221.0, 484.0, 15.0, 15.0 ],
					"numoutlets" : 0,
					"comment" : ""
				}

			}
, 			{
				"box" : 				{
					"maxclass" : "outlet",
					"varname" : "out-2",
					"id" : "obj-52",
					"numinlets" : 1,
					"patching_rect" : [ 234.0, 461.0, 15.0, 15.0 ],
					"numoutlets" : 0,
					"comment" : ""
				}

			}
, 			{
				"box" : 				{
					"maxclass" : "outlet",
					"varname" : "out-3",
					"id" : "obj-53",
					"numinlets" : 1,
					"patching_rect" : [ 247.0, 484.0, 15.0, 15.0 ],
					"numoutlets" : 0,
					"comment" : ""
				}

			}
, 			{
				"box" : 				{
					"maxclass" : "outlet",
					"varname" : "out-4",
					"id" : "obj-54",
					"numinlets" : 1,
					"patching_rect" : [ 260.0, 461.0, 15.0, 15.0 ],
					"numoutlets" : 0,
					"comment" : ""
				}

			}
, 			{
				"box" : 				{
					"maxclass" : "outlet",
					"varname" : "out-5",
					"id" : "obj-55",
					"numinlets" : 1,
					"patching_rect" : [ 273.0, 484.0, 15.0, 15.0 ],
					"numoutlets" : 0,
					"comment" : ""
				}

			}
, 			{
				"box" : 				{
					"maxclass" : "outlet",
					"varname" : "out-6",
					"id" : "obj-56",
					"numinlets" : 1,
					"patching_rect" : [ 286.0, 461.0, 15.0, 15.0 ],
					"numoutlets" : 0,
					"comment" : ""
				}

			}
, 			{
				"box" : 				{
					"maxclass" : "outlet",
					"varname" : "out-7",
					"id" : "obj-57",
					"numinlets" : 1,
					"patching_rect" : [ 299.0, 484.0, 15.0, 15.0 ],
					"numoutlets" : 0,
					"comment" : ""
				}

			}
, 			{
				"box" : 				{
					"maxclass" : "outlet",
					"varname" : "out-8",
					"id" : "obj-58",
					"numinlets" : 1,
					"patching_rect" : [ 312.0, 461.0, 15.0, 15.0 ],
					"numoutlets" : 0,
					"comment" : ""
				}

			}
, 			{
				"box" : 				{
					"maxclass" : "newobj",
					"varname" : "mp-matrix",
					"text" : "matrix~ #1 #2 1",
					"id" : "obj-59",
					"fontname" : "Arial",
					"fontsize" : 9.0,
					"numinlets" : 1,
					"patching_rect" : [ 221.0, 422.0, 574.0, 17.0 ],
					"numoutlets" : 2,
					"outlettype" : [ "signal", "list" ]
				}

			}
, 			{
				"box" : 				{
					"maxclass" : "newobj",
					"text" : "OSC-route /1 /2 /3 /4 /5 /6 /7 /8 /9 /10 /11 /12",
					"id" : "obj-60",
					"fontname" : "Arial",
					"fontsize" : 9.0,
					"numinlets" : 1,
					"patching_rect" : [ 471.0, 149.0, 255.0, 17.0 ],
					"numoutlets" : 13,
					"outlettype" : [ "", "", "", "", "", "", "", "", "", "", "", "", "" ]
				}

			}
, 			{
				"box" : 				{
					"maxclass" : "newobj",
					"varname" : "pc-1",
					"text" : "pancore 0",
					"id" : "obj-61",
					"fontname" : "Arial",
					"fontsize" : 9.0,
					"numinlets" : 2,
					"patching_rect" : [ 212.0, 233.0, 54.0, 17.0 ],
					"numoutlets" : 3,
					"outlettype" : [ "", "", "" ]
				}

			}
 ],
		"lines" : [ 			{
				"patchline" : 				{
					"source" : [ "obj-32", 1 ],
					"destination" : [ "obj-33", 0 ],
					"hidden" : 0,
					"midpoints" : [  ]
				}

			}
, 			{
				"patchline" : 				{
					"source" : [ "obj-31", 0 ],
					"destination" : [ "obj-33", 0 ],
					"hidden" : 0,
					"midpoints" : [  ]
				}

			}
, 			{
				"patchline" : 				{
					"source" : [ "obj-32", 0 ],
					"destination" : [ "obj-31", 0 ],
					"hidden" : 0,
					"midpoints" : [  ]
				}

			}
, 			{
				"patchline" : 				{
					"source" : [ "obj-34", 0 ],
					"destination" : [ "obj-32", 0 ],
					"hidden" : 0,
					"midpoints" : [  ]
				}

			}
, 			{
				"patchline" : 				{
					"source" : [ "obj-33", 0 ],
					"destination" : [ "obj-39", 1 ],
					"hidden" : 0,
					"midpoints" : [  ]
				}

			}
, 			{
				"patchline" : 				{
					"source" : [ "obj-39", 0 ],
					"destination" : [ "obj-41", 0 ],
					"hidden" : 0,
					"midpoints" : [  ]
				}

			}
, 			{
				"patchline" : 				{
					"source" : [ "obj-1", 0 ],
					"destination" : [ "obj-39", 0 ],
					"hidden" : 0,
					"midpoints" : [  ]
				}

			}
, 			{
				"patchline" : 				{
					"source" : [ "obj-38", 2 ],
					"destination" : [ "obj-1", 0 ],
					"hidden" : 0,
					"midpoints" : [  ]
				}

			}
, 			{
				"patchline" : 				{
					"source" : [ "obj-37", 0 ],
					"destination" : [ "obj-1", 0 ],
					"hidden" : 0,
					"midpoints" : [  ]
				}

			}
, 			{
				"patchline" : 				{
					"source" : [ "obj-38", 1 ],
					"destination" : [ "obj-37", 0 ],
					"hidden" : 0,
					"midpoints" : [  ]
				}

			}
, 			{
				"patchline" : 				{
					"source" : [ "obj-38", 0 ],
					"destination" : [ "obj-37", 0 ],
					"hidden" : 0,
					"midpoints" : [  ]
				}

			}
, 			{
				"patchline" : 				{
					"source" : [ "obj-40", 0 ],
					"destination" : [ "obj-38", 0 ],
					"hidden" : 0,
					"midpoints" : [  ]
				}

			}
, 			{
				"patchline" : 				{
					"source" : [ "obj-25", 0 ],
					"destination" : [ "obj-24", 0 ],
					"hidden" : 0,
					"midpoints" : [  ]
				}

			}
, 			{
				"patchline" : 				{
					"source" : [ "obj-26", 0 ],
					"destination" : [ "obj-25", 0 ],
					"hidden" : 0,
					"midpoints" : [  ]
				}

			}
, 			{
				"patchline" : 				{
					"source" : [ "obj-60", 12 ],
					"destination" : [ "obj-26", 0 ],
					"hidden" : 0,
					"midpoints" : [  ]
				}

			}
, 			{
				"patchline" : 				{
					"source" : [ "obj-60", 11 ],
					"destination" : [ "obj-14", 1 ],
					"hidden" : 0,
					"midpoints" : [  ]
				}

			}
, 			{
				"patchline" : 				{
					"source" : [ "obj-60", 9 ],
					"destination" : [ "obj-42", 1 ],
					"hidden" : 0,
					"midpoints" : [ 657.5, 226.0, 634.5, 226.0 ]
				}

			}
, 			{
				"patchline" : 				{
					"source" : [ "obj-60", 10 ],
					"destination" : [ "obj-15", 1 ],
					"hidden" : 0,
					"midpoints" : [  ]
				}

			}
, 			{
				"patchline" : 				{
					"source" : [ "obj-60", 8 ],
					"destination" : [ "obj-43", 1 ],
					"hidden" : 0,
					"midpoints" : [ 637.833313, 226.0, 576.5, 226.0 ]
				}

			}
, 			{
				"patchline" : 				{
					"source" : [ "obj-60", 7 ],
					"destination" : [ "obj-44", 1 ],
					"hidden" : 0,
					"midpoints" : [ 618.166687, 226.0, 519.5, 226.0 ]
				}

			}
, 			{
				"patchline" : 				{
					"source" : [ "obj-60", 4 ],
					"destination" : [ "obj-47", 1 ],
					"hidden" : 0,
					"midpoints" : [ 559.166687, 199.0, 477.5, 199.0 ]
				}

			}
, 			{
				"patchline" : 				{
					"source" : [ "obj-36", 1 ],
					"destination" : [ "obj-60", 0 ],
					"hidden" : 0,
					"midpoints" : [  ]
				}

			}
, 			{
				"patchline" : 				{
					"source" : [ "obj-30", 0 ],
					"destination" : [ "obj-60", 0 ],
					"hidden" : 0,
					"midpoints" : [  ]
				}

			}
, 			{
				"patchline" : 				{
					"source" : [ "obj-33", 0 ],
					"destination" : [ "obj-30", 0 ],
					"hidden" : 0,
					"midpoints" : [  ]
				}

			}
, 			{
				"patchline" : 				{
					"source" : [ "obj-31", 0 ],
					"destination" : [ "obj-30", 0 ],
					"hidden" : 0,
					"midpoints" : [  ]
				}

			}
, 			{
				"patchline" : 				{
					"source" : [ "obj-60", 6 ],
					"destination" : [ "obj-45", 1 ],
					"hidden" : 0,
					"midpoints" : [ 598.5, 226.0, 463.5, 226.0 ]
				}

			}
, 			{
				"patchline" : 				{
					"source" : [ "obj-60", 3 ],
					"destination" : [ "obj-48", 1 ],
					"hidden" : 0,
					"midpoints" : [ 539.5, 199.0, 422.5, 199.0 ]
				}

			}
, 			{
				"patchline" : 				{
					"source" : [ "obj-60", 5 ],
					"destination" : [ "obj-46", 1 ],
					"hidden" : 0,
					"midpoints" : [ 578.833313, 226.0, 407.5, 226.0 ]
				}

			}
, 			{
				"patchline" : 				{
					"source" : [ "obj-60", 2 ],
					"destination" : [ "obj-49", 1 ],
					"hidden" : 0,
					"midpoints" : [ 519.833313, 199.0, 367.5, 199.0 ]
				}

			}
, 			{
				"patchline" : 				{
					"source" : [ "obj-60", 1 ],
					"destination" : [ "obj-50", 1 ],
					"hidden" : 0,
					"midpoints" : [ 500.166656, 199.0, 312.5, 199.0 ]
				}

			}
, 			{
				"patchline" : 				{
					"source" : [ "obj-60", 0 ],
					"destination" : [ "obj-61", 1 ],
					"hidden" : 0,
					"midpoints" : [ 480.5, 199.0, 256.5, 199.0 ]
				}

			}
, 			{
				"patchline" : 				{
					"source" : [ "obj-59", 0 ],
					"destination" : [ "obj-51", 0 ],
					"hidden" : 0,
					"midpoints" : [  ]
				}

			}
, 			{
				"patchline" : 				{
					"source" : [ "obj-35", 0 ],
					"destination" : [ "obj-61", 0 ],
					"hidden" : 0,
					"midpoints" : [  ]
				}

			}
, 			{
				"patchline" : 				{
					"source" : [ "obj-36", 0 ],
					"destination" : [ "obj-35", 0 ],
					"hidden" : 0,
					"midpoints" : [  ]
				}

			}
, 			{
				"patchline" : 				{
					"source" : [ "obj-13", 0 ],
					"destination" : [ "obj-36", 0 ],
					"hidden" : 0,
					"midpoints" : [  ]
				}

			}
 ]
	}

}
