max v2;#N vpatcher 12 187 457 564;#P window setfont "Sans Serif" 9.;#N vpatcher 524 176 765 375;#P window setfont "Sans Serif" 9.;#P comment 75 87 126 196617 example: pitch of 2. and duration of 1000 is converted to the list that line~ understands to mean "count to 1000 in 500 ms";#P comment 75 35 126 196617 this converts the "pitch" and "duration" values into a list that line~ can understand;#P inlet 47 28 15 0;#P outlet 22 142 15 0;#P inlet 22 28 15 0;#P newex 22 112 35 196617 zl rev;#P newex 22 61 29 196617 !/ 1.;#P newex 22 90 43 196617 pack f f;#P connect 3 0 1 0;#P connect 1 0 0 0;#P connect 0 0 2 0;#P connect 2 0 4 0;#P connect 5 0 1 1;#P connect 5 0 0 1;#P pop;#P newobj 33 162 78 196617 p list-for-line~;#P comment 151 302 212 196617 ¥compare play~ with groove~ \, wave~ \, index~;#P comment 78 222 78 196617 for observation;#P message 73 205 162 196617;#P newex 73 182 61 196617 prepend set;#P newex 44 85 144 196617 unpack 1. 1000 1. name;#P newex 33 59 71 196617 route float int;#P comment 144 274 212 196617 play~ takes playback instructions in the form of a signal as millisecond location to playback;#P comment 230 112 65 196617 buffer choice;#P inlet 231 128 15 0;#P inlet 177 128 15 0;#P inlet 53 135 15 0;#P inlet 33 39 15 0;#P outlet 33 332 15 0;#P comment 177 111 26 196617 gain;#P newex 33 306 109 196617 *~ 0.5;#P comment 33 22 27 196617 rate;#P newex 33 217 27 196617 t l 0;#P newex 231 150 61 196617 prepend set;#P newex 33 246 31 196617 line~;#P newex 33 271 74 196617 play~ sample1;#P comment 52 118 45 196617 duration;#P connect 9 0 15 0;#P connect 16 0 21 0;#P fasten 15 1 21 0 68 78 38 78;#P connect 15 0 21 0;#P connect 21 0 4 0;#P connect 4 1 2 0;#P connect 4 0 2 0;#P fasten 3 0 1 0 236 268 38 268;#P connect 2 0 1 0;#P connect 1 0 6 0;#P connect 6 0 8 0;#P fasten 15 2 16 0 98 82 49 82;#P connect 21 0 17 0;#P connect 17 0 18 0;#P connect 10 0 21 1;#P connect 16 1 21 1;#P connect 16 2 6 1;#P connect 11 0 6 1;#P connect 12 0 3 0;#P fasten 16 3 3 0 215 110;#P pop;