{
	"patcher" : 	{
		"fileversion" : 1,
		"rect" : [ 214.0, 94.0, 309.0, 205.0 ],
		"bgcolor" : [ 0.87451, 0.933333, 1.0, 1.0 ],
		"bglocked" : 0,
		"defrect" : [ 214.0, 94.0, 309.0, 205.0 ],
		"openrect" : [ 0.0, 0.0, 0.0, 0.0 ],
		"openinpresentation" : 0,
		"default_fontsize" : 12.0,
		"default_fontface" : 0,
		"default_fontname" : "Arial",
		"gridonopen" : 0,
		"gridsize" : [ 15.0, 15.0 ],
		"gridsnaponopen" : 0,
		"toolbarvisible" : 1,
		"boxanimatetime" : 200,
		"imprint" : 0,
		"boxes" : [ 			{
				"box" : 				{
					"maxclass" : "bpatcher",
					"prototypename" : "cnmat_badge",
					"numinlets" : 0,
					"args" : [ "delta", "1.0b", "Wright & Zbyszynski", "delta", 6666 ],
					"numoutlets" : 0,
					"patching_rect" : [ 3.0, 113.0, 296.0, 86.0 ],
					"id" : "obj-2",
					"name" : "badge.maxpat"
				}

			}
, 			{
				"box" : 				{
					"maxclass" : "newobj",
					"text" : "p status",
					"fontname" : "Arial",
					"numinlets" : 0,
					"numoutlets" : 0,
					"fontsize" : 9.0,
					"patching_rect" : [ 251.0, 96.0, 46.0, 17.0 ],
					"id" : "obj-1",
					"color" : [ 1.0, 0.890196, 0.090196, 1.0 ],
					"patcher" : 					{
						"fileversion" : 1,
						"rect" : [ 298.0, 133.0, 429.0, 322.0 ],
						"bglocked" : 0,
						"defrect" : [ 298.0, 133.0, 429.0, 322.0 ],
						"openrect" : [ 0.0, 0.0, 0.0, 0.0 ],
						"openinpresentation" : 0,
						"default_fontsize" : 12.0,
						"default_fontface" : 0,
						"default_fontname" : "Arial",
						"gridonopen" : 0,
						"gridsize" : [ 15.0, 15.0 ],
						"gridsnaponopen" : 0,
						"toolbarvisible" : 1,
						"boxanimatetime" : 200,
						"imprint" : 0,
						"boxes" : [ 							{
								"box" : 								{
									"maxclass" : "comment",
									"text" : "Updated this patch to Max 5 in December 2008",
									"fontname" : "Arial",
									"numinlets" : 1,
									"presentation_rect" : [ 20.0, 83.0, 0.0, 0.0 ],
									"frgb" : [ 0.0, 0.0, 0.0, 1.0 ],
									"numoutlets" : 0,
									"fontsize" : 9.0,
									"patching_rect" : [ 20.0, 83.0, 290.0, 17.0 ],
									"id" : "obj-2"
								}

							}
, 							{
								"box" : 								{
									"maxclass" : "comment",
									"text" : "Michael Zbyszynski reviewed this patch in July-August 2007 for for correctness, style, generality, efficiency, and overall design.",
									"linecount" : 2,
									"fontname" : "Arial",
									"numinlets" : 1,
									"frgb" : [ 0.0, 0.0, 0.0, 1.0 ],
									"numoutlets" : 0,
									"fontsize" : 9.0,
									"patching_rect" : [ 18.0, 41.0, 290.0, 27.0 ],
									"id" : "obj-1"
								}

							}
 ],
						"lines" : [  ]
					}
,
					"saved_object_attributes" : 					{
						"globalpatchername" : "",
						"fontname" : "Arial",
						"default_fontface" : 0,
						"default_fontname" : "Arial",
						"fontface" : 0,
						"fontsize" : 12.0,
						"default_fontsize" : 12.0
					}

				}

			}
, 			{
				"box" : 				{
					"maxclass" : "outlet",
					"numinlets" : 1,
					"numoutlets" : 0,
					"patching_rect" : [ 97.0, 93.0, 15.0, 15.0 ],
					"id" : "obj-4",
					"comment" : "Delta"
				}

			}
, 			{
				"box" : 				{
					"maxclass" : "inlet",
					"numinlets" : 0,
					"numoutlets" : 1,
					"patching_rect" : [ 142.0, 27.0, 15.0, 15.0 ],
					"outlettype" : [ "" ],
					"id" : "obj-5",
					"comment" : "Initial value"
				}

			}
, 			{
				"box" : 				{
					"maxclass" : "inlet",
					"numinlets" : 0,
					"numoutlets" : 1,
					"patching_rect" : [ 97.0, 3.0, 15.0, 15.0 ],
					"outlettype" : [ "" ],
					"id" : "obj-6",
					"comment" : "New value"
				}

			}
, 			{
				"box" : 				{
					"maxclass" : "newobj",
					"text" : "t f f",
					"fontname" : "Arial",
					"numinlets" : 1,
					"numoutlets" : 2,
					"fontsize" : 9.0,
					"patching_rect" : [ 97.0, 26.0, 33.0, 17.0 ],
					"outlettype" : [ "float", "float" ],
					"id" : "obj-8"
				}

			}
, 			{
				"box" : 				{
					"maxclass" : "newobj",
					"text" : "- 0.",
					"fontname" : "Arial",
					"numinlets" : 2,
					"numoutlets" : 1,
					"fontsize" : 9.0,
					"patching_rect" : [ 97.0, 72.0, 27.0, 17.0 ],
					"outlettype" : [ "float" ],
					"id" : "obj-9"
				}

			}
 ],
		"lines" : [ 			{
				"patchline" : 				{
					"source" : [ "obj-5", 0 ],
					"destination" : [ "obj-9", 1 ],
					"hidden" : 0,
					"midpoints" : [  ]
				}

			}
, 			{
				"patchline" : 				{
					"source" : [ "obj-8", 1 ],
					"destination" : [ "obj-9", 0 ],
					"hidden" : 0,
					"midpoints" : [  ]
				}

			}
, 			{
				"patchline" : 				{
					"source" : [ "obj-8", 0 ],
					"destination" : [ "obj-9", 1 ],
					"hidden" : 0,
					"midpoints" : [  ]
				}

			}
, 			{
				"patchline" : 				{
					"source" : [ "obj-6", 0 ],
					"destination" : [ "obj-8", 0 ],
					"hidden" : 0,
					"midpoints" : [  ]
				}

			}
, 			{
				"patchline" : 				{
					"source" : [ "obj-9", 0 ],
					"destination" : [ "obj-4", 0 ],
					"hidden" : 0,
					"midpoints" : [  ]
				}

			}
 ]
	}

}
