{
	"patcher" : 	{
		"fileversion" : 1,
		"rect" : [ 90.0, 44.0, 517.0, 319.0 ],
		"bgcolor" : [ 0.87451, 0.933333, 1.0, 1.0 ],
		"bglocked" : 0,
		"defrect" : [ 90.0, 44.0, 517.0, 319.0 ],
		"openrect" : [ 0.0, 0.0, 0.0, 0.0 ],
		"openinpresentation" : 0,
		"default_fontsize" : 12.0,
		"default_fontface" : 0,
		"default_fontname" : "Arial",
		"gridonopen" : 0,
		"gridsize" : [ 15.0, 15.0 ],
		"gridsnaponopen" : 0,
		"toolbarvisible" : 1,
		"boxanimatetime" : 200,
		"imprint" : 0,
		"boxes" : [ 			{
				"box" : 				{
					"maxclass" : "bpatcher",
					"prototypename" : "cnmat_banner",
					"offset" : [ -18.0, -68.0 ],
					"numinlets" : 0,
					"lockeddragscroll" : 1,
					"args" : [ "delta", "outputs the difference between current and previous input." ],
					"numoutlets" : 0,
					"patching_rect" : [ 2.0, 4.0, 511.0, 76.0 ],
					"id" : "obj-17",
					"name" : "banner.maxpat"
				}

			}
, 			{
				"box" : 				{
					"maxclass" : "bpatcher",
					"numinlets" : 0,
					"args" : [ "delta.help", "1.1beta", "Wright & Zbyszynski", "delta", 2512 ],
					"numoutlets" : 0,
					"patching_rect" : [ 215.0, 227.0, 297.0, 88.0 ],
					"id" : "obj-1",
					"name" : "badge.maxpat"
				}

			}
, 			{
				"box" : 				{
					"maxclass" : "newobj",
					"text" : "p status",
					"fontname" : "Arial",
					"numinlets" : 0,
					"numoutlets" : 0,
					"fontsize" : 9.0,
					"patching_rect" : [ 455.0, 205.0, 46.0, 17.0 ],
					"id" : "obj-2",
					"color" : [ 1.0, 0.890196, 0.090196, 1.0 ],
					"patcher" : 					{
						"fileversion" : 1,
						"rect" : [ 298.0, 133.0, 429.0, 322.0 ],
						"bglocked" : 0,
						"defrect" : [ 298.0, 133.0, 429.0, 322.0 ],
						"openrect" : [ 0.0, 0.0, 0.0, 0.0 ],
						"openinpresentation" : 0,
						"default_fontsize" : 12.0,
						"default_fontface" : 0,
						"default_fontname" : "Arial",
						"gridonopen" : 0,
						"gridsize" : [ 15.0, 15.0 ],
						"gridsnaponopen" : 0,
						"toolbarvisible" : 1,
						"boxanimatetime" : 200,
						"imprint" : 0,
						"boxes" : [ 							{
								"box" : 								{
									"maxclass" : "comment",
									"text" : "Michael Zbyszynski updated this patch to Max 5 in Decemeber 2008",
									"fontname" : "Arial",
									"numinlets" : 1,
									"presentation_rect" : [ 9.0, 79.0, 0.0, 0.0 ],
									"frgb" : [ 0.0, 0.0, 0.0, 1.0 ],
									"numoutlets" : 0,
									"fontsize" : 9.0,
									"patching_rect" : [ 18.0, 79.0, 290.0, 17.0 ],
									"id" : "obj-2"
								}

							}
, 							{
								"box" : 								{
									"maxclass" : "comment",
									"text" : "Michael Zbyszynski reviewed this patch in July-August 2007 for for correctness, style, generality, efficiency, and overall design.",
									"linecount" : 2,
									"fontname" : "Arial",
									"numinlets" : 1,
									"frgb" : [ 0.0, 0.0, 0.0, 1.0 ],
									"numoutlets" : 0,
									"fontsize" : 9.0,
									"patching_rect" : [ 18.0, 41.0, 290.0, 27.0 ],
									"id" : "obj-1"
								}

							}
 ],
						"lines" : [  ]
					}
,
					"saved_object_attributes" : 					{
						"globalpatchername" : "",
						"fontname" : "Arial",
						"default_fontface" : 0,
						"default_fontname" : "Arial",
						"fontface" : 0,
						"fontsize" : 12.0,
						"default_fontsize" : 12.0
					}

				}

			}
, 			{
				"box" : 				{
					"maxclass" : "flonum",
					"fontname" : "Arial",
					"htextcolor" : [ 0.870588, 0.870588, 0.870588, 1.0 ],
					"numinlets" : 1,
					"numoutlets" : 2,
					"fontsize" : 12.0,
					"patching_rect" : [ 88.0, 156.0, 40.0, 20.0 ],
					"outlettype" : [ "float", "bang" ],
					"id" : "obj-3",
					"bgcolor" : [ 0.6, 0.6, 1.0, 1.0 ],
					"triscale" : 0.9
				}

			}
, 			{
				"box" : 				{
					"maxclass" : "message",
					"text" : "4.5",
					"fontname" : "Arial",
					"numinlets" : 2,
					"numoutlets" : 1,
					"fontsize" : 12.0,
					"patching_rect" : [ 110.0, 108.0, 28.0, 18.0 ],
					"outlettype" : [ "" ],
					"id" : "obj-4",
					"bgcolor" : [ 0.611765, 0.701961, 1.0, 1.0 ]
				}

			}
, 			{
				"box" : 				{
					"maxclass" : "flonum",
					"fontname" : "Arial",
					"htextcolor" : [ 0.870588, 0.870588, 0.870588, 1.0 ],
					"numinlets" : 1,
					"numoutlets" : 2,
					"fontsize" : 12.0,
					"patching_rect" : [ 55.0, 216.0, 40.0, 20.0 ],
					"outlettype" : [ "float", "bang" ],
					"id" : "obj-5",
					"bgcolor" : [ 0.611765, 0.701961, 1.0, 1.0 ],
					"triscale" : 0.9
				}

			}
, 			{
				"box" : 				{
					"maxclass" : "message",
					"text" : "4",
					"fontname" : "Arial",
					"numinlets" : 2,
					"numoutlets" : 1,
					"fontsize" : 12.0,
					"patching_rect" : [ 90.0, 108.0, 18.0, 18.0 ],
					"outlettype" : [ "" ],
					"id" : "obj-6",
					"bgcolor" : [ 0.611765, 0.701961, 1.0, 1.0 ]
				}

			}
, 			{
				"box" : 				{
					"maxclass" : "message",
					"text" : "3",
					"fontname" : "Arial",
					"numinlets" : 2,
					"numoutlets" : 1,
					"fontsize" : 12.0,
					"patching_rect" : [ 71.0, 108.0, 18.0, 18.0 ],
					"outlettype" : [ "" ],
					"id" : "obj-7",
					"bgcolor" : [ 0.611765, 0.701961, 1.0, 1.0 ]
				}

			}
, 			{
				"box" : 				{
					"maxclass" : "message",
					"text" : "2",
					"fontname" : "Arial",
					"numinlets" : 2,
					"numoutlets" : 1,
					"fontsize" : 12.0,
					"patching_rect" : [ 52.0, 108.0, 18.0, 18.0 ],
					"outlettype" : [ "" ],
					"id" : "obj-8",
					"bgcolor" : [ 0.611765, 0.701961, 1.0, 1.0 ]
				}

			}
, 			{
				"box" : 				{
					"maxclass" : "message",
					"text" : "1",
					"fontname" : "Arial",
					"numinlets" : 2,
					"numoutlets" : 1,
					"fontsize" : 12.0,
					"patching_rect" : [ 33.0, 108.0, 18.0, 18.0 ],
					"outlettype" : [ "" ],
					"id" : "obj-9",
					"bgcolor" : [ 0.611765, 0.701961, 1.0, 1.0 ]
				}

			}
, 			{
				"box" : 				{
					"maxclass" : "newobj",
					"text" : "delta",
					"fontname" : "Arial",
					"numinlets" : 2,
					"numoutlets" : 1,
					"fontsize" : 12.0,
					"patching_rect" : [ 55.0, 183.0, 40.0, 20.0 ],
					"outlettype" : [ "float" ],
					"id" : "obj-10",
					"color" : [ 1.0, 0.890196, 0.090196, 1.0 ]
				}

			}
, 			{
				"box" : 				{
					"maxclass" : "comment",
					"text" : "set \"initial\" value (default zero)",
					"linecount" : 2,
					"fontname" : "Arial",
					"numinlets" : 1,
					"frgb" : [ 0.0, 0.0, 0.0, 1.0 ],
					"numoutlets" : 0,
					"fontsize" : 12.0,
					"patching_rect" : [ 127.0, 156.0, 131.0, 34.0 ],
					"id" : "obj-11"
				}

			}
 ],
		"lines" : [ 			{
				"patchline" : 				{
					"source" : [ "obj-6", 0 ],
					"destination" : [ "obj-10", 0 ],
					"hidden" : 0,
					"midpoints" : [  ]
				}

			}
, 			{
				"patchline" : 				{
					"source" : [ "obj-7", 0 ],
					"destination" : [ "obj-10", 0 ],
					"hidden" : 0,
					"midpoints" : [  ]
				}

			}
, 			{
				"patchline" : 				{
					"source" : [ "obj-8", 0 ],
					"destination" : [ "obj-10", 0 ],
					"hidden" : 0,
					"midpoints" : [  ]
				}

			}
, 			{
				"patchline" : 				{
					"source" : [ "obj-9", 0 ],
					"destination" : [ "obj-10", 0 ],
					"hidden" : 0,
					"midpoints" : [  ]
				}

			}
, 			{
				"patchline" : 				{
					"source" : [ "obj-4", 0 ],
					"destination" : [ "obj-10", 0 ],
					"hidden" : 0,
					"midpoints" : [  ]
				}

			}
, 			{
				"patchline" : 				{
					"source" : [ "obj-10", 0 ],
					"destination" : [ "obj-5", 0 ],
					"hidden" : 0,
					"midpoints" : [  ]
				}

			}
, 			{
				"patchline" : 				{
					"source" : [ "obj-3", 0 ],
					"destination" : [ "obj-10", 1 ],
					"hidden" : 0,
					"midpoints" : [  ]
				}

			}
 ]
	}

}
