{
	"patcher" : 	{
		"fileversion" : 1,
		"rect" : [ 138.0, 44.0, 543.0, 570.0 ],
		"bgcolor" : [ 0.87451, 0.933333, 1.0, 1.0 ],
		"bglocked" : 0,
		"defrect" : [ 138.0, 44.0, 543.0, 570.0 ],
		"openrect" : [ 0.0, 0.0, 0.0, 0.0 ],
		"openinpresentation" : 0,
		"default_fontsize" : 12.0,
		"default_fontface" : 0,
		"default_fontname" : "Arial",
		"gridonopen" : 0,
		"gridsize" : [ 15.0, 15.0 ],
		"gridsnaponopen" : 0,
		"toolbarvisible" : 1,
		"boxanimatetime" : 200,
		"imprint" : 0,
		"boxes" : [ 			{
				"box" : 				{
					"maxclass" : "bpatcher",
					"prototypename" : "cnmat_startaudio",
					"offset" : [ -4.0, -23.0 ],
					"name" : "startaudio.maxpat",
					"numinlets" : 0,
					"lockeddragscroll" : 1,
					"numoutlets" : 1,
					"patching_rect" : [ 22.0, 472.0, 131.0, 53.0 ],
					"id" : "obj-1",
					"outlettype" : [ "" ],
					"args" : [  ]
				}

			}
, 			{
				"box" : 				{
					"maxclass" : "newobj",
					"text" : "loadmess 1",
					"fontsize" : 12.0,
					"hidden" : 1,
					"numinlets" : 1,
					"fontname" : "Arial",
					"numoutlets" : 1,
					"patching_rect" : [ 342.0, 166.0, 72.0, 20.0 ],
					"id" : "obj-2",
					"outlettype" : [ "" ]
				}

			}
, 			{
				"box" : 				{
					"maxclass" : "comment",
					"text" : "RESULTS",
					"fontsize" : 12.0,
					"frgb" : [ 0.0, 0.0, 0.0, 1.0 ],
					"numinlets" : 1,
					"fontname" : "Arial",
					"numoutlets" : 0,
					"patching_rect" : [ 131.0, 324.0, 66.0, 20.0 ],
					"id" : "obj-3"
				}

			}
, 			{
				"box" : 				{
					"maxclass" : "comment",
					"text" : "scale time",
					"fontsize" : 12.0,
					"frgb" : [ 0.0, 0.0, 0.0, 1.0 ],
					"numinlets" : 1,
					"fontname" : "Arial",
					"numoutlets" : 0,
					"patching_rect" : [ 267.0, 176.0, 65.0, 20.0 ],
					"id" : "obj-4"
				}

			}
, 			{
				"box" : 				{
					"maxclass" : "comment",
					"text" : "scale value",
					"fontsize" : 12.0,
					"frgb" : [ 0.0, 0.0, 0.0, 1.0 ],
					"numinlets" : 1,
					"fontname" : "Arial",
					"numoutlets" : 0,
					"patching_rect" : [ 146.0, 176.0, 71.0, 20.0 ],
					"id" : "obj-5"
				}

			}
, 			{
				"box" : 				{
					"maxclass" : "flonum",
					"fontsize" : 12.0,
					"bgcolor" : [ 0.866667, 0.866667, 0.866667, 1.0 ],
					"htextcolor" : [ 0.870588, 0.870588, 0.870588, 1.0 ],
					"numinlets" : 1,
					"triscale" : 0.9,
					"fontname" : "Arial",
					"numoutlets" : 2,
					"patching_rect" : [ 124.0, 196.0, 119.0, 20.0 ],
					"id" : "obj-6",
					"outlettype" : [ "float", "bang" ]
				}

			}
, 			{
				"box" : 				{
					"maxclass" : "comment",
					"text" : "BPF messages need to be in pairs 1) destination value 2) time to destination",
					"fontsize" : 12.0,
					"frgb" : [ 0.0, 0.0, 0.0, 1.0 ],
					"numinlets" : 1,
					"fontname" : "Arial",
					"numoutlets" : 0,
					"patching_rect" : [ 32.0, 129.0, 416.0, 20.0 ],
					"id" : "obj-7"
				}

			}
, 			{
				"box" : 				{
					"maxclass" : "flonum",
					"fontsize" : 12.0,
					"bgcolor" : [ 0.866667, 0.866667, 0.866667, 1.0 ],
					"htextcolor" : [ 0.870588, 0.870588, 0.870588, 1.0 ],
					"numinlets" : 1,
					"triscale" : 0.9,
					"fontname" : "Arial",
					"numoutlets" : 2,
					"patching_rect" : [ 249.0, 196.0, 119.0, 20.0 ],
					"id" : "obj-8",
					"outlettype" : [ "float", "bang" ]
				}

			}
, 			{
				"box" : 				{
					"maxclass" : "message",
					"text" : "0. 0. 0.5 500. 0. 200.",
					"fontsize" : 12.0,
					"numinlets" : 2,
					"fontname" : "Arial",
					"numoutlets" : 1,
					"patching_rect" : [ 79.0, 279.0, 171.0, 18.0 ],
					"id" : "obj-9",
					"outlettype" : [ "" ]
				}

			}
, 			{
				"box" : 				{
					"maxclass" : "message",
					"text" : "0. 0. 0.5 500 0. 200",
					"fontsize" : 12.0,
					"numinlets" : 2,
					"fontname" : "Arial",
					"numoutlets" : 1,
					"patching_rect" : [ 23.0, 160.0, 114.0, 18.0 ],
					"id" : "obj-11",
					"outlettype" : [ "" ]
				}

			}
, 			{
				"box" : 				{
					"maxclass" : "newobj",
					"text" : "BPF-line-scaler",
					"fontsize" : 12.0,
					"numinlets" : 3,
					"fontname" : "Arial",
					"numoutlets" : 1,
					"color" : [ 0.94902, 1.0, 0.0, 1.0 ],
					"patching_rect" : [ 23.0, 232.0, 93.0, 20.0 ],
					"id" : "obj-12",
					"outlettype" : [ "" ]
				}

			}
, 			{
				"box" : 				{
					"maxclass" : "scope~",
					"rounded" : 0,
					"bgcolor" : [ 0.529412, 0.529412, 0.529412, 1.0 ],
					"numinlets" : 2,
					"numoutlets" : 0,
					"fgcolor" : [ 0.047059, 0.913725, 0.913725, 1.0 ],
					"patching_rect" : [ 23.0, 351.0, 495.0, 115.0 ],
					"id" : "obj-13"
				}

			}
, 			{
				"box" : 				{
					"maxclass" : "newobj",
					"text" : "line~",
					"fontsize" : 12.0,
					"numinlets" : 2,
					"fontname" : "Arial",
					"numoutlets" : 2,
					"patching_rect" : [ 23.0, 279.0, 36.0, 20.0 ],
					"id" : "obj-14",
					"outlettype" : [ "signal", "bang" ]
				}

			}
, 			{
				"box" : 				{
					"maxclass" : "comment",
					"text" : "INPUT IS A BREAK POINT FUNCTION LINE MESSAGE",
					"fontsize" : 12.0,
					"frgb" : [ 0.0, 0.0, 0.0, 1.0 ],
					"numinlets" : 1,
					"fontname" : "Arial",
					"numoutlets" : 0,
					"patching_rect" : [ 32.0, 98.0, 315.0, 20.0 ],
					"id" : "obj-15"
				}

			}
, 			{
				"box" : 				{
					"maxclass" : "bpatcher",
					"offset" : [ -18.0, -68.0 ],
					"name" : "banner.maxpat",
					"numinlets" : 0,
					"lockeddragscroll" : 1,
					"numoutlets" : 0,
					"patching_rect" : [ 16.0, 21.0, 511.0, 76.0 ],
					"id" : "obj-17",
					"args" : [ "BPF-line-scaler", "takes a break point function line message and scales it to fit a desired overall length in ms" ]
				}

			}
, 			{
				"box" : 				{
					"maxclass" : "bpatcher",
					"name" : "badge.maxpat",
					"numinlets" : 0,
					"numoutlets" : 0,
					"patching_rect" : [ 221.0, 475.0, 296.0, 95.0 ],
					"id" : "obj-18",
					"args" : [ "BPF-line-scaler", "help", "\"Campion\"", "generic", 2512 ]
				}

			}
, 			{
				"box" : 				{
					"maxclass" : "newobj",
					"text" : "dac~",
					"fontsize" : 12.0,
					"numinlets" : 2,
					"fontname" : "Arial",
					"numoutlets" : 0,
					"patching_rect" : [ 22.0, 539.0, 52.0, 20.0 ],
					"id" : "obj-29"
				}

			}
 ],
		"lines" : [ 			{
				"patchline" : 				{
					"source" : [ "obj-1", 0 ],
					"destination" : [ "obj-29", 0 ],
					"hidden" : 0,
					"midpoints" : [  ]
				}

			}
, 			{
				"patchline" : 				{
					"source" : [ "obj-12", 0 ],
					"destination" : [ "obj-9", 1 ],
					"hidden" : 0,
					"midpoints" : [ 32.5, 267.0, 240.5, 267.0 ]
				}

			}
, 			{
				"patchline" : 				{
					"source" : [ "obj-2", 0 ],
					"destination" : [ "obj-8", 0 ],
					"hidden" : 1,
					"midpoints" : [  ]
				}

			}
, 			{
				"patchline" : 				{
					"source" : [ "obj-2", 0 ],
					"destination" : [ "obj-6", 0 ],
					"hidden" : 1,
					"midpoints" : [  ]
				}

			}
, 			{
				"patchline" : 				{
					"source" : [ "obj-11", 0 ],
					"destination" : [ "obj-12", 0 ],
					"hidden" : 0,
					"midpoints" : [  ]
				}

			}
, 			{
				"patchline" : 				{
					"source" : [ "obj-12", 0 ],
					"destination" : [ "obj-14", 0 ],
					"hidden" : 0,
					"midpoints" : [  ]
				}

			}
, 			{
				"patchline" : 				{
					"source" : [ "obj-6", 0 ],
					"destination" : [ "obj-12", 1 ],
					"hidden" : 0,
					"midpoints" : [ 133.5, 216.0, 69.5, 216.0 ]
				}

			}
, 			{
				"patchline" : 				{
					"source" : [ "obj-8", 0 ],
					"destination" : [ "obj-12", 2 ],
					"hidden" : 0,
					"midpoints" : [ 258.5, 228.0, 117.0, 228.0, 117.0, 228.0, 106.5, 228.0 ]
				}

			}
, 			{
				"patchline" : 				{
					"source" : [ "obj-14", 0 ],
					"destination" : [ "obj-13", 0 ],
					"hidden" : 0,
					"midpoints" : [  ]
				}

			}
 ]
	}

}
