max v2;#N vpatcher 9 47 333 388;#P origin 0 106;#P window setfont "Sans Serif" 9.;#P window linecount 6;#P user com 20 235 272 196617 135;#K set 0 21608 25888 24949 29800 28530 8303 26144 29800 25888 28786 28519 29281 27936 25705 25632 28789 29728 29551 28005 8293 26214 28530 29728 26990 29807 8308 26725 8300 26978 29281 29305 8289 28260 8311 28533 27748 8290 25888 26476 24932 8308 28448 26725 24946 8291 28525 28005 28276 29472 26226 28525 8289 28281 8309 29541 29230 3401 26144 31087 29984 29800 26990 27424 26996 29472 30575 29300 26656 29807 8307 30064 28783 29300 8308 26721 29728 25958 26223 29300 11296 18720 30575 30060 25632 25189 8296 24944 28793 8289 25199 30068 8289 28281 8294 28530 27936 28518 8291 28525 28773;#K set 100 28275 24948 26991 28192 24942 25647 28530 8291 28525 28005 28276 29486 3341 18720 25441 28192 25189 8306 25953 25448 25956 8289 29728 21364 25958 24942 11604 26981 25706 25920 24932 25699 28525 11876 25856;#K end;#P window linecount 1;#P comment 28 209 163 196617 GNU Lesser General Public License;#P hidden message 21 233 48 196617 shadow 5;#P hidden message 68 233 53 196617 shadow -4;#P user ubutton 21 204 176 22 0 2;#P user panel 22 204 174 22;#X brgb 180 100 220;#X frgb 0 0 0;#X border 1;#X rounded 20;#X shadow 5;#X done;#P hidden newex 72 252 50 196617 loadbang;#P hidden message 21 253 50 196617 open;#P hidden message 72 274 67 196617 read lgpl.txt;#P hidden newex 72 316 50 196617 text;#P hidden message 249 246 30 196617 front;#P hidden inlet 249 206 15 0;#P hidden button 249 226 15 0;#P hidden message 177 14 33 196617 front;#N thispatcher;#Q end;#P hidden newobj 177 32 58 196617 thispatcher;#P hidden inlet 177 -4 15 0;#P hidden newex 23 -47 266 196617 St.OnePrint AbhaXions "© Stefan Tiedje" 1999;#P message 23 16 148 196617 Part of the AbhaXions Library;#P message 23 35 148 196617 © Stefan Tiedje 1999-2006;#P window linecount 0;#P comment 5 1 100 196617;#P window linecount 1;#P hidden newex 23 -23 266 196617 St.OnePrint AbhaXions "© Stefan Tiedje" $1;#N thispatcher;#Q end;#P hidden newobj 167 239 57 196617 thispatcher;#P window linecount 5;#P comment 20 133 280 196617 This library is distributed in the hope that it will be useful \, but WITHOUT ANY WARRANTY \; without even the implied warranty of MERCHANTABILITY or FITNESS FOR A PARTICULAR PURPOSE. See the GNU Lesser General Public License for more details.;#P comment 20 61 267 196617 The AbhaXion library is free software \; you can redistribute it and/or modify it under the terms of the GNU Lesser General Public License as published by the Free Software Foundation \, either version 2.1 of the License \, or (at your option) any later version.;#P hidden connect 19 0 21 0;#P hidden connect 19 0 16 0;#P hidden connect 21 0 18 0;#P hidden connect 20 0 18 0;#P hidden fasten 3 1 5 0 156 33 28 33;#P hidden connect 19 1 20 0;#P hidden connect 17 0 15 0;#P hidden fasten 16 0 14 0 26 293 77 293;#P hidden connect 15 0 14 0;#P hidden connect 13 0 2 0;#P hidden connect 8 0 10 0;#P hidden connect 10 0 9 0;#P hidden connect 12 0 11 0;#P hidden connect 11 0 13 0;#P pop;