max v2;#N vpatcher 11 132 1024 531;#P origin 84 -42;#P outlet 1038 278 15 0;#P objectname out[31];#P window setfont "Sans Serif" 9.;#P newex 1038 252 32 196617 gate;#P objectname gate[31];#P outlet 1005 278 15 0;#P objectname out[30];#P newex 1005 252 32 196617 gate;#P objectname gate[30];#P outlet 972 278 15 0;#P objectname out[29];#P newex 972 252 32 196617 gate;#P objectname gate[29];#P outlet 939 278 15 0;#P objectname out[28];#P newex 939 252 32 196617 gate;#P objectname gate[28];#P outlet 906 278 15 0;#P objectname out[27];#P newex 906 252 32 196617 gate;#P objectname gate[27];#P outlet 873 278 15 0;#P objectname out[26];#P newex 873 252 32 196617 gate;#P objectname gate[26];#P outlet 840 278 15 0;#P objectname out[25];#P newex 840 252 32 196617 gate;#P objectname gate[25];#P outlet 807 278 15 0;#P objectname out[24];#P newex 807 252 32 196617 gate;#P objectname gate[24];#P outlet 774 278 15 0;#P objectname out[23];#P newex 774 252 32 196617 gate;#P objectname gate[23];#P outlet 741 278 15 0;#P objectname out[22];#P newex 741 252 32 196617 gate;#P objectname gate[22];#P outlet 708 278 15 0;#P objectname out[21];#P newex 708 252 32 196617 gate;#P objectname gate[21];#P outlet 675 278 15 0;#P objectname out[20];#P newex 675 252 32 196617 gate;#P objectname gate[20];#P outlet 642 278 15 0;#P objectname out[19];#P newex 642 252 32 196617 gate;#P objectname gate[19];#P outlet 609 278 15 0;#P objectname out[18];#P newex 609 252 32 196617 gate;#P objectname gate[18];#P outlet 576 278 15 0;#P objectname out[17];#P newex 576 252 32 196617 gate;#P objectname gate[17];#P outlet 543 278 15 0;#P objectname out[16];#P newex 543 252 32 196617 gate;#P objectname gate[16];#P outlet 510 278 15 0;#P objectname out[15];#P newex 510 252 32 196617 gate;#P objectname gate[15];#P outlet 477 278 15 0;#P objectname out[14];#P newex 477 252 32 196617 gate;#P objectname gate[14];#P outlet 444 278 15 0;#P objectname out[13];#P newex 444 252 32 196617 gate;#P objectname gate[13];#P outlet 411 278 15 0;#P objectname out[12];#P newex 411 252 32 196617 gate;#P objectname gate[12];#P outlet 378 278 15 0;#P objectname out[11];#P newex 378 252 32 196617 gate;#P objectname gate[11];#P outlet 345 278 15 0;#P objectname out[10];#P newex 345 252 32 196617 gate;#P objectname gate[10];#P outlet 312 278 15 0;#P objectname out[9];#P newex 312 252 32 196617 gate;#P objectname gate[9];#P outlet 279 278 15 0;#P objectname out[8];#P newex 279 252 32 196617 gate;#P objectname gate[8];#P outlet 246 278 15 0;#P objectname out[7];#P newex 246 252 32 196617 gate;#P objectname gate[7];#P outlet 213 278 15 0;#P objectname out[6];#P newex 213 252 32 196617 gate;#P objectname gate[6];#P outlet 180 278 15 0;#P objectname out[5];#P newex 180 252 32 196617 gate;#P objectname gate[5];#P outlet 147 278 15 0;#P objectname out[4];#P newex 147 252 32 196617 gate;#P objectname gate[4];#P outlet 114 278 15 0;#P objectname out[3];#P newex 114 252 32 196617 gate;#P objectname gate[3];#P outlet 81 278 15 0;#P objectname out[2];#P newex 81 252 32 196617 gate;#P objectname gate[2];#P outlet 48 278 15 0;#P objectname out[1];#P newex 48 252 32 196617 gate;#P objectname gate[1];#P newex 22 219 29 196617 == 0;#P objectname rest;#N thispatcher;#Q end;#P hidden newobj 120 77 64 196617 thispatcher;#N vpatcher 356 291 962 648;#P origin -7 0;#P window setfont "Sans Serif" 9.;#P window linecount 5;#P newex 90 181 56 196617 sprintf script connect slice[%i] 1 ==[%i] 1;#P window linecount 1;#P newex 77 157 22 196617 - 1;#P window linecount 5;#P newex 41 181 46 196617 sprintf script connect ==[%i] 0 i[%i] 1;#P window linecount 4;#P newex 459 192 50 196617 sprintf script delete i[%i];#P window linecount 5;#P newex 148 181 49 196617 sprintf script connect in[%i] 0 ==[%i] 1;#P window linecount 0;#P newex 407 168 26 196617 - 1;#P window linecount 4;#P newex 407 192 50 196617 sprintf script delete slice[%i];#P window linecount 5;#P newex 511 180 56 196617 sprintf script connect rest 0 gate[%i] 0;#P window linecount 4;#P newex 199 192 50 196617 sprintf script delete gate[%i];#P newex 251 192 50 196617 sprintf script delete ==[%i];#P newex 303 192 50 196617 sprintf script delete in[%i];#P window linecount 0;#P newex 355 192 50 196617 sprintf script delete out[%i];#P newex 355 116 64 196617 zl len;#P newex 355 140 50 196617 revzi 32;#P outlet 355 256 15 0;#P inlet 355 42 15 0;#P fasten 3 0 13 0 360 136 46 136;#P fasten 3 0 14 0 360 136 82 136;#P connect 14 0 13 1;#P connect 14 0 15 0;#P fasten 3 0 15 1 360 136 141 136;#P fasten 3 0 11 0 360 136 153 136;#P fasten 3 0 11 1 360 136 192 136;#P fasten 2 0 7 0 360 163 204 163;#P fasten 2 0 6 0 360 163 256 163;#P fasten 2 0 5 0 360 163 308 163;#P connect 0 0 3 0;#P connect 3 0 2 0;#P connect 2 0 4 0;#P fasten 13 0 1 0 46 250 360 250;#P fasten 12 0 1 0 464 250 360 250;#P fasten 11 0 1 0 153 250 360 250;#P fasten 9 0 1 0 412 250 360 250;#P fasten 6 0 1 0 256 250 360 250;#P fasten 5 0 1 0 308 250 360 250;#P connect 4 0 1 0;#P fasten 7 0 1 0 204 250 360 250;#P fasten 8 0 1 0 516 250 360 250;#P fasten 15 0 1 0 95 250 360 250;#P fasten 2 0 10 0 360 163 412 163;#P connect 10 0 9 0;#P fasten 10 0 12 0 412 188 464 188;#P fasten 3 0 8 0 360 136 516 136;#P pop;#P hidden newobj 120 57 64 196617 p scripting;#P newex 61 34 64 196617 patcherargs;#P inlet 1060 100 15 0;#P objectname in[32];#P newex 1038 174 32 196617 comp;#P objectname ==[32];#P inlet 1027 100 15 0;#P objectname in[31];#P newex 1005 174 32 196617 comp;#P objectname ==[31];#P inlet 994 100 15 0;#P objectname in[30];#P newex 972 174 32 196617 comp;#P objectname ==[30];#P inlet 961 100 15 0;#P objectname in[29];#P newex 939 174 32 196617 comp;#P objectname ==[29];#P inlet 928 100 15 0;#P objectname in[28];#P newex 906 174 32 196617 comp;#P objectname ==[28];#P inlet 895 100 15 0;#P objectname in[27];#P newex 873 174 32 196617 comp;#P objectname ==[27];#P inlet 862 100 15 0;#P objectname in[26];#P newex 840 174 32 196617 comp;#P objectname ==[26];#P inlet 829 100 15 0;#P objectname in[25];#P newex 807 174 32 196617 comp;#P objectname ==[25];#P inlet 796 100 15 0;#P objectname in[24];#P newex 774 174 32 196617 comp;#P objectname ==[24];#P inlet 763 100 15 0;#P objectname in[23];#P newex 741 174 32 196617 comp;#P objectname ==[23];#P inlet 730 100 15 0;#P objectname in[22];#P newex 708 174 32 196617 comp;#P objectname ==[22];#P inlet 697 100 15 0;#P objectname in[21];#P newex 675 174 32 196617 comp;#P objectname ==[21];#P inlet 664 100 15 0;#P objectname in[20];#P newex 642 174 32 196617 comp;#P objectname ==[20];#P inlet 631 100 15 0;#P objectname in[19];#P newex 609 174 32 196617 comp;#P objectname ==[19];#P inlet 598 100 15 0;#P objectname in[18];#P newex 576 174 32 196617 comp;#P objectname ==[18];#P inlet 565 100 15 0;#P objectname in[17];#P newex 543 174 32 196617 comp;#P objectname ==[17];#P inlet 532 100 15 0;#P objectname in[16];#P newex 510 174 32 196617 comp;#P objectname ==[16];#P inlet 499 100 15 0;#P objectname in[15];#P newex 477 174 32 196617 comp;#P objectname ==[15];#P inlet 466 100 15 0;#P objectname in[14];#P newex 444 174 32 196617 comp;#P objectname ==[14];#P inlet 433 100 15 0;#P objectname in[13];#P newex 411 174 32 196617 comp;#P objectname ==[13];#P inlet 400 100 15 0;#P objectname in[12];#P newex 378 174 32 196617 comp;#P objectname ==[12];#P inlet 367 100 15 0;#P objectname in[11];#P newex 345 174 32 196617 comp;#P objectname ==[11];#P inlet 334 100 15 0;#P objectname in[10];#P newex 312 174 32 196617 comp;#P objectname ==[10];#P inlet 301 100 15 0;#P objectname in[9];#P newex 279 174 32 196617 comp;#P objectname ==[9];#P inlet 268 100 15 0;#P objectname in[8];#P newex 246 174 32 196617 comp;#P objectname ==[8];#P inlet 235 100 15 0;#P objectname in[7];#P newex 213 174 32 196617 comp;#P objectname ==[7];#P inlet 202 100 15 0;#P objectname in[6];#P newex 180 174 32 196617 comp;#P objectname ==[6];#P inlet 169 100 15 0;#P objectname in[5];#P newex 147 174 32 196617 comp;#P objectname ==[5];#P inlet 136 100 15 0;#P objectname in[4];#P newex 114 174 32 196617 comp;#P objectname ==[4];#P inlet 103 100 15 0;#P objectname in[3];#P newex 81 174 32 196617 comp;#P objectname ==[3];#P inlet 70 100 15 0;#P objectname in[2];#P newex 48 174 32 196617 comp;#P objectname ==[2];#P inlet 37 100 15 0;#P objectname in[1];#P inlet 1 15 15 0;#P objectname in[0];#P outlet 15 278 15 0;#P objectname out[0];#P newex 15 174 32 196617 comp;#P objectname ==[1];#P newex 1 34 52 196617 t b l b l;#P newex 15 77 50 196617 zl slice 1;#P newex 74 77 43 196617 zl reg;#P newex 15 252 32 196617 gate;#P objectname gate[0];#P outlet 1071 278 15 0;#P objectname out[32];#P newex 1071 252 32 196617 gate;#P objectname gate[32];#P window linecount 3;#P newex 1027 121 32 196617 zl slice 1;#P objectname slice[31];#P newex 994 121 32 196617 zl slice 1;#P objectname slice[30];#P newex 961 121 32 196617 zl slice 1;#P objectname slice[29];#P newex 928 121 32 196617 zl slice 1;#P objectname slice[28];#P newex 895 121 32 196617 zl slice 1;#P objectname slice[27];#P newex 862 121 32 196617 zl slice 1;#P objectname slice[26];#P newex 829 121 32 196617 zl slice 1;#P objectname slice[25];#P newex 796 121 32 196617 zl slice 1;#P objectname slice[24];#P newex 763 121 32 196617 zl slice 1;#P objectname slice[23];#P newex 730 121 32 196617 zl slice 1;#P objectname slice[22];#P newex 697 121 32 196617 zl slice 1;#P objectname slice[21];#P newex 664 121 32 196617 zl slice 1;#P objectname slice[20];#P newex 631 121 32 196617 zl slice 1;#P objectname slice[19];#P newex 598 121 32 196617 zl slice 1;#P objectname slice[18];#P newex 565 121 32 196617 zl slice 1;#P objectname slice[17];#P newex 532 121 32 196617 zl slice 1;#P objectname slice[16];#P newex 499 121 32 196617 zl slice 1;#P objectname slice[15];#P newex 466 121 32 196617 zl slice 1;#P objectname slice[14];#P newex 433 121 32 196617 zl slice 1;#P objectname slice[13];#P newex 400 121 32 196617 zl slice 1;#P objectname slice[12];#P newex 367 121 32 196617 zl slice 1;#P objectname slice[11];#P newex 334 121 32 196617 zl slice 1;#P objectname slice[10];#P newex 301 121 32 196617 zl slice 1;#P objectname slice[9];#P newex 268 121 32 196617 zl slice 1;#P objectname slice[8];#P newex 235 121 32 196617 zl slice 1;#P objectname slice[7];#P newex 202 121 32 196617 zl slice 1;#P objectname slice[6];#P newex 169 121 32 196617 zl slice 1;#P objectname slice[5];#P newex 136 121 32 196617 zl slice 1;#P objectname slice[4];#P newex 103 121 32 196617 zl slice 1;#P objectname slice[3];#P newex 70 121 32 196617 zl slice 1;#P objectname slice[2];#P newex 37 121 32 196617 zl slice 1;#P objectname slice[1];#P window linecount 1;#P newex 1012 197 29 196617 ||;#P objectname i[31];#P newex 979 197 29 196617 ||;#P objectname i[30];#P newex 946 197 29 196617 ||;#P objectname i[29];#P newex 913 197 29 196617 ||;#P objectname i[28];#P newex 880 197 29 196617 ||;#P objectname i[27];#P newex 847 197 29 196617 ||;#P objectname i[26];#P newex 814 197 29 196617 ||;#P objectname i[25];#P newex 781 197 29 196617 ||;#P objectname i[24];#P newex 748 197 29 196617 ||;#P objectname i[23];#P newex 715 197 29 196617 ||;#P objectname i[22];#P newex 682 197 29 196617 ||;#P objectname i[21];#P newex 649 197 29 196617 ||;#P objectname i[20];#P newex 616 197 29 196617 ||;#P objectname i[19];#P newex 583 197 29 196617 ||;#P objectname i[18];#P newex 550 197 29 196617 ||;#P objectname i[17];#P newex 517 197 29 196617 ||;#P objectname i[16];#P newex 484 197 29 196617 ||;#P objectname i[15];#P newex 451 197 29 196617 ||;#P objectname i[14];#P newex 418 197 29 196617 ||;#P objectname i[13];#P newex 385 197 29 196617 ||;#P objectname i[12];#P newex 352 197 29 196617 ||;#P objectname i[11];#P newex 319 197 29 196617 ||;#P objectname i[10];#P newex 286 197 29 196617 ||;#P objectname i[9];#P newex 253 197 29 196617 ||;#P objectname i[8];#P newex 220 197 29 196617 ||;#P objectname i[7];#P newex 187 197 29 196617 ||;#P objectname i[6];#P newex 154 197 29 196617 ||;#P objectname i[5];#P newex 121 197 29 196617 ||;#P objectname i[4];#P newex 88 197 29 196617 ||;#P objectname i[3];#P newex 55 197 29 196617 ||;#P objectname i[2];#P newex 22 197 29 196617 ||;#P objectname i[1];#P connect 70 0 67 0;#P connect 67 1 66 0;#P connect 66 0 68 0;#P connect 68 0 64 0;#P connect 64 0 69 0;#P connect 68 0 0 0;#P connect 0 0 137 0;#P fasten 134 0 31 0 66 118 42 118;#P connect 71 0 31 0;#P connect 31 0 68 1;#P fasten 65 0 64 1 79 244 42 244;#P connect 1 0 0 1;#P fasten 66 0 72 0 20 167 53 167;#P connect 72 0 138 0;#P connect 138 0 139 0;#P connect 72 0 1 0;#P connect 73 0 32 0;#P connect 31 1 32 0;#P connect 32 0 72 1;#P fasten 65 0 138 1 79 244 75 244;#P fasten 67 0 65 0 6 72 79 72;#P connect 2 0 1 1;#P fasten 66 0 74 0 20 167 86 167;#P connect 74 0 140 0;#P connect 140 0 141 0;#P connect 74 0 2 0;#P connect 75 0 33 0;#P connect 32 1 33 0;#P connect 33 0 74 1;#P fasten 65 0 140 1 79 244 108 244;#P fasten 67 3 65 1 48 68 112 68;#P connect 3 0 2 1;#P fasten 66 0 76 0 20 167 119 167;#P connect 76 0 142 0;#P connect 142 0 143 0;#P hidden fasten 134 0 135 0 66 54 125 54;#P hidden connect 135 0 136 0;#P connect 76 0 3 0;#P connect 77 0 34 0;#P connect 33 1 34 0;#P connect 34 0 76 1;#P fasten 65 0 142 1 79 244 141 244;#P connect 4 0 3 1;#P fasten 66 0 78 0 20 167 152 167;#P connect 78 0 144 0;#P connect 144 0 145 0;#P connect 78 0 4 0;#P connect 79 0 35 0;#P connect 34 1 35 0;#P connect 35 0 78 1;#P fasten 65 0 144 1 79 244 174 244;#P connect 5 0 4 1;#P fasten 66 0 80 0 20 167 185 167;#P connect 80 0 146 0;#P connect 146 0 147 0;#P connect 80 0 5 0;#P connect 81 0 36 0;#P connect 35 1 36 0;#P connect 36 0 80 1;#P fasten 65 0 146 1 79 244 207 244;#P connect 6 0 5 1;#P fasten 66 0 82 0 20 167 218 167;#P connect 82 0 148 0;#P connect 148 0 149 0;#P connect 82 0 6 0;#P connect 83 0 37 0;#P connect 36 1 37 0;#P connect 37 0 82 1;#P fasten 65 0 148 1 79 244 240 244;#P connect 7 0 6 1;#P fasten 66 0 84 0 20 167 251 167;#P connect 84 0 150 0;#P connect 150 0 151 0;#P connect 84 0 7 0;#P connect 85 0 38 0;#P connect 37 1 38 0;#P connect 38 0 84 1;#P fasten 65 0 150 1 79 244 273 244;#P connect 8 0 7 1;#P fasten 66 0 86 0 20 167 284 167;#P connect 86 0 152 0;#P connect 152 0 153 0;#P connect 86 0 8 0;#P connect 87 0 39 0;#P connect 38 1 39 0;#P connect 39 0 86 1;#P fasten 65 0 152 1 79 244 306 244;#P connect 9 0 8 1;#P fasten 66 0 88 0 20 167 317 167;#P connect 88 0 154 0;#P connect 154 0 155 0;#P connect 88 0 9 0;#P connect 89 0 40 0;#P connect 39 1 40 0;#P connect 40 0 88 1;#P fasten 65 0 154 1 79 244 339 244;#P connect 10 0 9 1;#P fasten 66 0 90 0 20 167 350 167;#P connect 90 0 156 0;#P connect 156 0 157 0;#P connect 90 0 10 0;#P connect 91 0 41 0;#P connect 40 1 41 0;#P connect 41 0 90 1;#P fasten 65 0 156 1 79 244 372 244;#P connect 11 0 10 1;#P fasten 66 0 92 0 20 167 383 167;#P connect 92 0 158 0;#P connect 158 0 159 0;#P connect 92 0 11 0;#P connect 93 0 42 0;#P connect 41 1 42 0;#P connect 42 0 92 1;#P fasten 65 0 158 1 79 244 405 244;#P connect 12 0 11 1;#P fasten 66 0 94 0 20 167 416 167;#P connect 94 0 160 0;#P connect 160 0 161 0;#P connect 94 0 12 0;#P connect 95 0 43 0;#P connect 42 1 43 0;#P connect 43 0 94 1;#P fasten 65 0 160 1 79 244 438 244;#P connect 13 0 12 1;#P fasten 66 0 96 0 20 167 449 167;#P connect 96 0 162 0;#P connect 162 0 163 0;#P connect 96 0 13 0;#P connect 97 0 44 0;#P connect 43 1 44 0;#P connect 44 0 96 1;#P fasten 65 0 162 1 79 244 471 244;#P connect 14 0 13 1;#P fasten 66 0 98 0 20 167 482 167;#P connect 98 0 164 0;#P connect 164 0 165 0;#P connect 98 0 14 0;#P connect 99 0 45 0;#P connect 44 1 45 0;#P connect 45 0 98 1;#P fasten 65 0 164 1 79 244 504 244;#P connect 15 0 14 1;#P fasten 66 0 100 0 20 167 515 167;#P connect 100 0 166 0;#P connect 166 0 167 0;#P connect 100 0 15 0;#P connect 101 0 46 0;#P connect 45 1 46 0;#P connect 46 0 100 1;#P fasten 65 0 166 1 79 244 537 244;#P connect 16 0 15 1;#P fasten 66 0 102 0 20 167 548 167;#P connect 102 0 168 0;#P connect 168 0 169 0;#P connect 102 0 16 0;#P connect 103 0 47 0;#P connect 46 1 47 0;#P connect 47 0 102 1;#P fasten 65 0 168 1 79 244 570 244;#P connect 17 0 16 1;#P fasten 66 0 104 0 20 167 581 167;#P connect 104 0 170 0;#P connect 170 0 171 0;#P connect 104 0 17 0;#P connect 105 0 48 0;#P connect 47 1 48 0;#P connect 48 0 104 1;#P fasten 65 0 170 1 79 244 603 244;#P connect 18 0 17 1;#P fasten 66 0 106 0 20 167 614 167;#P connect 106 0 172 0;#P connect 172 0 173 0;#P connect 106 0 18 0;#P connect 107 0 49 0;#P connect 48 1 49 0;#P connect 49 0 106 1;#P fasten 65 0 172 1 79 244 636 244;#P connect 19 0 18 1;#P fasten 66 0 108 0 20 167 647 167;#P connect 108 0 174 0;#P connect 174 0 175 0;#P connect 108 0 19 0;#P connect 109 0 50 0;#P connect 49 1 50 0;#P connect 50 0 108 1;#P fasten 65 0 174 1 79 244 669 244;#P connect 20 0 19 1;#P fasten 66 0 110 0 20 167 680 167;#P connect 110 0 176 0;#P connect 176 0 177 0;#P connect 110 0 20 0;#P connect 111 0 51 0;#P connect 50 1 51 0;#P connect 51 0 110 1;#P fasten 65 0 176 1 79 244 702 244;#P connect 21 0 20 1;#P fasten 66 0 112 0 20 167 713 167;#P connect 112 0 178 0;#P connect 178 0 179 0;#P connect 112 0 21 0;#P connect 113 0 52 0;#P connect 51 1 52 0;#P connect 52 0 112 1;#P fasten 65 0 178 1 79 244 735 244;#P connect 22 0 21 1;#P fasten 66 0 114 0 20 167 746 167;#P connect 114 0 180 0;#P connect 180 0 181 0;#P connect 114 0 22 0;#P connect 115 0 53 0;#P connect 52 1 53 0;#P connect 53 0 114 1;#P fasten 65 0 180 1 79 244 768 244;#P connect 23 0 22 1;#P fasten 66 0 116 0 20 167 779 167;#P connect 116 0 182 0;#P connect 182 0 183 0;#P connect 116 0 23 0;#P connect 117 0 54 0;#P connect 53 1 54 0;#P connect 54 0 116 1;#P fasten 65 0 182 1 79 244 801 244;#P connect 24 0 23 1;#P fasten 66 0 118 0 20 167 812 167;#P connect 118 0 184 0;#P connect 184 0 185 0;#P connect 118 0 24 0;#P connect 119 0 55 0;#P connect 54 1 55 0;#P connect 55 0 118 1;#P fasten 65 0 184 1 79 244 834 244;#P connect 25 0 24 1;#P fasten 66 0 120 0 20 167 845 167;#P connect 120 0 186 0;#P connect 186 0 187 0;#P connect 120 0 25 0;#P connect 121 0 56 0;#P connect 55 1 56 0;#P connect 56 0 120 1;#P fasten 65 0 186 1 79 244 867 244;#P connect 26 0 25 1;#P fasten 66 0 122 0 20 167 878 167;#P connect 122 0 188 0;#P connect 188 0 189 0;#P connect 122 0 26 0;#P connect 123 0 57 0;#P connect 56 1 57 0;#P connect 57 0 122 1;#P fasten 65 0 188 1 79 244 900 244;#P connect 27 0 26 1;#P fasten 66 0 124 0 20 167 911 167;#P connect 124 0 190 0;#P connect 190 0 191 0;#P connect 124 0 27 0;#P connect 125 0 58 0;#P connect 57 1 58 0;#P connect 58 0 124 1;#P fasten 65 0 190 1 79 244 933 244;#P connect 28 0 27 1;#P fasten 66 0 126 0 20 167 944 167;#P connect 126 0 192 0;#P connect 192 0 193 0;#P connect 126 0 28 0;#P connect 127 0 59 0;#P connect 58 1 59 0;#P connect 59 0 126 1;#P fasten 65 0 192 1 79 244 966 244;#P connect 29 0 28 1;#P fasten 66 0 128 0 20 167 977 167;#P connect 128 0 194 0;#P connect 194 0 195 0;#P connect 128 0 29 0;#P connect 129 0 60 0;#P connect 59 1 60 0;#P connect 60 0 128 1;#P fasten 65 0 194 1 79 244 999 244;#P connect 30 0 29 1;#P fasten 66 0 130 0 20 167 1010 167;#P connect 130 0 196 0;#P connect 196 0 197 0;#P connect 130 0 30 0;#P connect 131 0 61 0;#P connect 60 1 61 0;#P connect 61 0 130 1;#P fasten 65 0 196 1 79 244 1032 244;#P connect 132 0 30 1;#P fasten 66 0 132 0 20 167 1043 167;#P connect 132 0 198 0;#P connect 198 0 199 0;#P connect 133 0 132 1;#P connect 61 1 132 1;#P fasten 65 0 198 1 79 244 1065 244;#P fasten 137 0 62 0 27 240 1076 240;#P connect 62 0 63 0;#P fasten 65 0 62 1 79 244 1098 244;#P pop;