max v2;#N vpatcher 203 274 1226 621;#P window setfont "Sans Serif" 9.;#P window linecount 1;#N thispatcher;#Q end;#P hidden newobj 62 261 67 196617 thispatcher;#P hidden newex 62 213 67 196617 patcherargs;#N vpatcher 30 89 980 553;#P window setfont "Sans Serif" 9.;#P window linecount 4;#P newex 44 262 67 196617 sprintf script connect route[%i] 1 buddy %i;#P window linecount 1;#P newex 113 236 25 196617 + 2;#P newex 182 236 25 196617 + 1;#P newex 500 186 31 196617 - 1;#P window linecount 4;#P newex 113 262 67 196617 sprintf script connect bang[%i] 0 buddy %i;#P window linecount 1;#P newex 239 236 25 196617 + 2;#P newex 239 140 25 196617 - 2;#P newex 217 211 32 196617 uzi;#P window linecount 0;#P newex 500 232 31 196617 + 10;#P newex 500 209 31 196617 * 57;#P window linecount 4;#P newex 182 262 67 196617 sprintf script connect buddy %i routeb[%i] 0;#P newex 500 262 95 196617 sprintf script replace buddy newex 62 126 %i 196617 buddy %i;#P window linecount 1;#P newex 316 162 34 196617 !- 16;#P window linecount 0;#P newex 356 209 34 196617 !- 17;#P newex 239 114 50 196617 zl slice 1;#P window linecount 1;#P newex 316 88 57 196617 roudone;#P objectname done;#P newex 316 140 28 196617 int 2;#P objectname length;#P newex 334 114 33 196617 zl len;#P inlet 316 67 15 0;#P inlet 239 67 15 0;#P window linecount 0;#P newex 316 186 50 196617 uzi;#P window linecount 4;#P newex 251 262 49 196617 sprintf script delete bang[%i];#P newex 356 262 56 196617 sprintf script delete routeb[%i];#P newex 302 262 52 196617 sprintf script delete route[%i];#P newex 457 262 41 196617 sprintf script delete out[%i];#P window linecount 0;#P newex 414 262 41 196617 sprintf script delete in[%i];#P outlet 325 354 15 0;#P fasten 25 0 26 0 118 256 49 256;#P fasten 24 0 26 1 187 259 106 259;#P fasten 19 2 25 0 244 232 118 232;#P connect 25 0 22 0;#P connect 24 0 22 1;#P fasten 19 2 24 0 244 232 187 232;#P connect 24 0 16 0;#P fasten 6 1 19 0 341 207 222 207;#P connect 7 0 12 0;#P connect 12 0 20 0;#P connect 20 0 19 1;#P connect 19 2 21 0;#P connect 21 0 16 1;#P connect 13 0 5 0;#P connect 13 0 3 0;#P connect 8 0 11 0;#P connect 11 0 10 0;#P connect 10 0 14 0;#P connect 14 0 6 0;#P connect 26 0 0 0;#P connect 22 0 0 0;#P connect 16 0 0 0;#P connect 15 0 0 0;#P connect 2 0 0 0;#P connect 1 0 0 0;#P connect 4 0 0 0;#P connect 3 0 0 0;#P connect 5 0 0 0;#P fasten 7 0 9 0 244 109 339 109;#P fasten 12 0 10 1 244 135 339 135;#P connect 9 0 10 1;#P connect 6 2 13 0;#P connect 13 0 4 0;#P connect 13 0 1 0;#P connect 13 0 2 0;#P fasten 12 0 23 0 244 135 505 135;#P connect 23 0 17 0;#P connect 17 0 18 0;#P connect 18 0 15 0;#P fasten 12 0 15 1 244 135 590 135;#P pop;#P hidden newobj 62 237 67 196617 p scripts;#P newex 917 147 55 196617 route bbbb;#P objectname routeb[16];#P newex 917 104 48 196617 t bbbb;#P objectname bang[16];#P newex 917 83 55 196617 route bang;#P objectname route[16];#P outlet 917 173 15 0;#P objectname out[16];#P inlet 917 63 15 0;#P objectname in[16];#P newex 860 147 55 196617 route bbbb;#P objectname routeb[15];#P newex 860 104 48 196617 t bbbb;#P objectname bang[15];#P newex 860 83 55 196617 route bang;#P objectname route[15];#P outlet 860 173 15 0;#P objectname out[15];#P inlet 860 63 15 0;#P objectname in[15];#P newex 803 147 55 196617 route bbbb;#P objectname routeb[14];#P newex 803 104 48 196617 t bbbb;#P objectname bang[14];#P newex 803 83 55 196617 route bang;#P objectname route[14];#P outlet 803 173 15 0;#P objectname out[14];#P inlet 803 63 15 0;#P objectname in[14];#P newex 746 147 55 196617 route bbbb;#P objectname routeb[13];#P newex 746 104 48 196617 t bbbb;#P objectname bang[13];#P newex 746 83 55 196617 route bang;#P objectname route[13];#P outlet 746 173 15 0;#P objectname out[13];#P inlet 746 63 15 0;#P objectname in[13];#P newex 689 147 55 196617 route bbbb;#P objectname routeb[12];#P newex 689 104 48 196617 t bbbb;#P objectname bang[12];#P newex 689 83 55 196617 route bang;#P objectname route[12];#P outlet 689 173 15 0;#P objectname out[12];#P inlet 689 63 15 0;#P objectname in[12];#P newex 632 147 55 196617 route bbbb;#P objectname routeb[11];#P newex 632 104 48 196617 t bbbb;#P objectname bang[11];#P newex 632 83 55 196617 route bang;#P objectname route[11];#P outlet 632 173 15 0;#P objectname out[11];#P inlet 632 63 15 0;#P objectname in[11];#P newex 575 147 55 196617 route bbbb;#P objectname routeb[10];#P newex 575 104 48 196617 t bbbb;#P objectname bang[10];#P newex 575 83 55 196617 route bang;#P objectname route[10];#P outlet 575 173 15 0;#P objectname out[10];#P inlet 575 63 15 0;#P objectname in[10];#P newex 518 147 55 196617 route bbbb;#P objectname routeb[9];#P newex 518 104 48 196617 t bbbb;#P objectname bang[9];#P newex 518 83 55 196617 route bang;#P objectname route[9];#P outlet 518 173 15 0;#P objectname out[9];#P inlet 518 63 15 0;#P objectname in[9];#P newex 461 147 55 196617 route bbbb;#P objectname routeb[8];#P newex 461 104 48 196617 t bbbb;#P objectname bang[8];#P newex 461 83 55 196617 route bang;#P objectname route[8];#P outlet 461 173 15 0;#P objectname out[8];#P inlet 461 63 15 0;#P objectname in[8];#P newex 404 147 55 196617 route bbbb;#P objectname routeb[7];#P newex 404 104 48 196617 t bbbb;#P objectname bang[7];#P newex 404 83 55 196617 route bang;#P objectname route[7];#P outlet 404 173 15 0;#P objectname out[7];#P inlet 404 63 15 0;#P objectname in[7];#P newex 347 147 55 196617 route bbbb;#P objectname routeb[6];#P newex 347 104 48 196617 t bbbb;#P objectname bang[6];#P newex 347 83 55 196617 route bang;#P objectname route[6];#P outlet 347 173 15 0;#P objectname out[6];#P inlet 347 63 15 0;#P objectname in[6];#P newex 290 147 55 196617 route bbbb;#P objectname routeb[5];#P newex 290 104 48 196617 t bbbb;#P objectname bang[5];#P newex 290 83 55 196617 route bang;#P objectname route[5];#P outlet 290 173 15 0;#P objectname out[5];#P inlet 290 63 15 0;#P objectname in[5];#P newex 233 147 55 196617 route bbbb;#P objectname routeb[4];#P newex 233 104 48 196617 t bbbb;#P objectname bang[4];#P newex 233 83 55 196617 route bang;#P objectname route[4];#P outlet 233 173 15 0;#P objectname out[4];#P inlet 233 63 15 0;#P objectname in[4];#P newex 176 147 55 196617 route bbbb;#P objectname routeb[3];#P newex 176 104 48 196617 t bbbb;#P objectname bang[3];#P newex 176 83 55 196617 route bang;#P objectname route[3];#P outlet 176 173 15 0;#P objectname out[3];#P inlet 176 63 15 0;#P objectname in[3];#P newex 119 147 55 196617 route bbbb;#P objectname routeb[2];#P newex 119 104 48 196617 t bbbb;#P objectname bang[2];#P newex 119 83 55 196617 route bang;#P objectname route[2];#P outlet 119 173 15 0;#P objectname out[2];#P inlet 119 63 15 0;#P objectname in[2];#P newex 62 147 55 196617 route bbbb;#P objectname routeb[1];#P newex 62 104 48 196617 t bbbb;#P objectname bang[1];#P newex 62 83 55 196617 route bang;#P objectname route[1];#P newex 62 126 67 196617 buddy;#P objectname buddy;#P outlet 62 173 15 0;#P objectname out[1];#P inlet 62 63 15 0;#P objectname in[1];#P connect 0 0 3 0;#P connect 3 0 4 0;#P connect 4 0 2 0;#P fasten 3 1 2 0 112 123 67 123;#P connect 2 0 5 0;#P fasten 5 1 1 0 112 168 67 168;#P connect 5 0 1 0;#P hidden connect 82 0 81 0;#P hidden connect 81 0 83 0;#P connect 6 0 8 0;#P connect 8 0 9 0;#P fasten 8 1 2 1 169 123 124 123;#P connect 9 0 2 1;#P connect 2 1 10 0;#P connect 10 0 7 0;#P fasten 10 1 7 0 169 168 124 168;#P hidden connect 82 1 81 1;#P connect 11 0 13 0;#P connect 13 0 14 0;#P fasten 15 1 12 0 226 168 181 168;#P connect 15 0 12 0;#P connect 16 0 18 0;#P connect 18 0 19 0;#P connect 20 0 17 0;#P fasten 20 1 17 0 283 168 238 168;#P connect 21 0 23 0;#P connect 23 0 24 0;#P fasten 25 1 22 0 340 168 295 168;#P connect 25 0 22 0;#P connect 26 0 28 0;#P connect 28 0 29 0;#P connect 30 0 27 0;#P fasten 30 1 27 0 397 168 352 168;#P connect 31 0 33 0;#P connect 33 0 34 0;#P fasten 35 1 32 0 454 168 409 168;#P connect 35 0 32 0;#P connect 36 0 38 0;#P connect 38 0 39 0;#P connect 40 0 37 0;#P fasten 40 1 37 0 511 168 466 168;#P connect 41 0 43 0;#P connect 43 0 44 0;#P fasten 45 1 42 0 568 168 523 168;#P connect 45 0 42 0;#P connect 46 0 48 0;#P connect 48 0 49 0;#P connect 50 0 47 0;#P fasten 50 1 47 0 625 168 580 168;#P connect 51 0 53 0;#P connect 53 0 54 0;#P fasten 55 1 52 0 682 168 637 168;#P connect 55 0 52 0;#P connect 56 0 58 0;#P connect 58 0 59 0;#P connect 60 0 57 0;#P fasten 60 1 57 0 739 168 694 168;#P connect 61 0 63 0;#P connect 63 0 64 0;#P fasten 65 1 62 0 796 168 751 168;#P connect 65 0 62 0;#P connect 66 0 68 0;#P connect 68 0 69 0;#P connect 70 0 67 0;#P fasten 70 1 67 0 853 168 808 168;#P connect 71 0 73 0;#P connect 73 0 74 0;#P fasten 75 1 72 0 910 168 865 168;#P connect 75 0 72 0;#P connect 76 0 78 0;#P connect 78 0 79 0;#P connect 80 0 77 0;#P fasten 80 1 77 0 967 168 922 168;#P pop;