max v2;#N vpatcher 341 166 551 419;#P origin 0 -15;#P inlet 110 66 15 0;#P outlet 90 155 15 0;#P objectname out2;#P window setfont "Sans Serif" 9.;#P newex 71 100 49 196617 $1 $2;#P objectname compare;#P outlet 71 155 15 0;#P objectname out1;#P inlet 71 66 15 0;#P objectname in;#P newex 71 129 49 196617 sel 1 0;#P objectname sel;#P connect 1 0 3 0;#P connect 3 0 0 0;#P connect 0 0 2 0;#P connect 0 1 4 0;#P connect 5 0 3 1;#P pop;