max v2;#N vpatcher 111 123 688 340;#P outlet 476 121 15 0;#P objectname out[17];#P outlet 448 121 15 0;#P objectname out[16];#P outlet 420 121 15 0;#P objectname out[15];#P outlet 392 121 15 0;#P objectname out[14];#P outlet 364 121 15 0;#P objectname out[13];#P outlet 336 121 15 0;#P objectname out[12];#P outlet 308 121 15 0;#P objectname out[11];#N comlet;#P outlet 280 121 15 0;#P objectname out[10];#P window setfont "Sans Serif" 9.;#P window linecount 1;#P hidden newex 28 148 61 196617 patcherargs;#P objectname args;#N vpatcher 207 325 963 671;#P origin 16 -64;#P window setfont "Sans Serif" 9.;#P newex 103 146 50 196617 deferlow;#P newex 468 244 113 196617 sprintf script new ctlin[%i] newex %i 70 26 196617 ctlin %i %i;#P newex 563 39 50 196617 loadbang;#P newex 468 102 36 196617 zl reg;#P newex 468 83 45 196617 onebang;#P outlet 528 294 15 0;#P newex 528 83 45 196617 onebang;#P newex 408 39 96 196617 t b l l;#P newex 57 220 56 196617 sprintf script connect ctlin[%i] 1 out[%i] 0;#P newex 57 200 44 196617 gate 1 1;#P newex 508 39 50 196617 t b l l;#P inlet 508 21 15 0;#P inlet 408 21 15 0;#P newex 408 59 130 196617 testnoargs;#P newex 600 147 52 196617 t 17 3 i 0;#P newex 548 147 51 196617 t 17 2 i 0;#P newex 238 244 113 196617 sprintf script new ctlin[%i] newex %i 70 26 196617 ctlin %i;#P newex 14 232 41 196617 sprintf script delete out[%i];#P newex 238 223 240 196617 gate 3 1;#P newex 468 186 78 196617 swap;#P newex 548 122 104 196617 route ch ctl;#P newex 353 244 113 196617 sprintf script new ctlin[%i] newex %i 70 26 196617 ctlin %i %i;#P newex 14 172 32 196617 !- 16;#P newex 14 192 32 196617 uzi;#P newex 14 212 32 196617 !- 18;#P newex 174 232 62 196617 sprintf script connect in 0 ctlin[%i] 0;#P newex 57 172 44 196617 uzi;#P newex 103 172 25 196617 + 1;#P newex 115 220 57 196617 sprintf script connect ctlin[%i] 0 out[%i] 0;#P newex 502 147 29 196617 * 28;#P newex 468 122 78 196617 izi;#P outlet 391 293 15 0;#P fasten 31 0 9 0 108 165 19 165;#P connect 9 0 8 0;#P connect 8 2 7 0;#P connect 7 0 14 0;#P fasten 16 0 9 1 553 168 41 168;#P fasten 17 0 9 1 605 168 41 168;#P fasten 31 0 5 0 108 165 62 165;#P fasten 16 3 22 0 592 191 62 191;#P fasten 17 3 22 0 647 191 62 191;#P connect 22 0 23 0;#P connect 5 2 22 1;#P fasten 1 1 31 0 507 142 108 142;#P connect 31 0 4 0;#P connect 4 0 23 1;#P fasten 5 2 3 0 96 194 120 194;#P fasten 5 2 3 1 96 194 167 194;#P fasten 5 2 6 0 96 194 179 194;#P fasten 16 1 13 0 566 176 243 176;#P fasten 17 1 13 0 619 176 243 176;#P connect 13 0 15 0;#P fasten 2 0 15 1 507 180 294 180;#P fasten 12 1 15 2 541 211 345 211;#P connect 13 1 10 0;#P fasten 2 0 10 1 507 180 392 180;#P fasten 23 0 0 0 62 288 396 288;#P fasten 10 0 0 0 358 288 396 288;#P fasten 15 0 0 0 243 288 396 288;#P fasten 14 0 0 0 19 288 396 288;#P fasten 3 0 0 0 120 288 396 288;#P fasten 6 0 0 0 179 288 396 288;#P fasten 30 0 0 0 473 288 396 288;#P connect 19 0 24 0;#P connect 24 0 18 0;#P fasten 12 1 10 2 541 211 426 211;#P fasten 16 2 10 3 579 216 460 216;#P connect 24 1 18 1;#P connect 18 1 27 0;#P fasten 21 0 27 0 513 67 473 67;#P connect 27 0 28 0;#P connect 28 0 1 0;#P connect 1 0 12 0;#P connect 12 0 13 1;#P connect 13 2 30 0;#P connect 24 2 28 1;#P fasten 1 2 2 0 541 144 507 144;#P connect 2 0 30 1;#P connect 25 0 27 1;#P connect 20 0 21 0;#P connect 21 1 18 2;#P connect 18 2 25 0;#P connect 25 0 26 0;#P connect 1 2 12 1;#P fasten 17 2 30 2 633 226 541 226;#P connect 21 2 11 0;#P connect 11 0 16 0;#P connect 29 0 25 1;#P connect 12 1 30 3;#P connect 11 1 17 0;#P pop;#P hidden newobj 28 168 61 196617 p scripts;#P objectname scripts;#N thispatcher;#Q end;#P hidden newobj 28 188 61 196617 thispatcher;#P objectname this;#P inlet 28 44 15 0;#P objectname in;#P outlet 252 121 15 0;#P objectname out[9];#P outlet 224 121 15 0;#P objectname out[8];#P outlet 196 121 15 0;#P objectname out[7];#P outlet 168 121 15 0;#P objectname out[6];#P outlet 140 121 15 0;#P objectname out[5];#P outlet 112 121 15 0;#P objectname out[4];#P outlet 84 121 15 0;#P objectname out[3];#P outlet 56 121 15 0;#P objectname out[2];#N comlet;#P outlet 28 121 15 0;#P objectname out[1];#P hidden connect 11 1 12 0;#P hidden connect 12 0 11 0;#P hidden connect 11 0 10 0;#P hidden connect 12 1 11 1;#P pop;