max v2;#N vpatcher 285 117 870 393;#P window setfont "Sans Serif" 9.;#P window linecount 1;#P newex 326 194 50 196617 tosymbol;#P message 141 86 28 196617 ticks;#P comment 293 232 25 196617 Tick;#P comment 259 232 38 196617 second;#P comment 220 232 36 196617 minute;#P comment 187 232 29 196617 hour;#P comment 82 232 23 196617 day;#P comment 117 232 32 196617 month;#P outlet 326 214 15 0;#P newex 326 174 166 196617 sprintf %ld.%ld.%ld %ld Uhr %ld;#P inlet 86 46 15 0;#P outlet 296 214 15 0;#P outlet 269 214 15 0;#P outlet 230 214 15 0;#P outlet 191 214 15 0;#P outlet 164 214 15 0;#P outlet 125 214 15 0;#P outlet 86 214 15 0;#P button 86 64 15 0;#P newex 191 127 89 196617 unpack 0 0 0;#P newex 86 127 89 196617 unpack 0 0 0;#P newex 86 107 220 196617 date;#P message 86 86 25 196617 date;#P message 113 86 26 196617 time;#P newex 86 147 49 196617 swap;#P comment 326 232 132 196617 z.B. 29.2.2000 13 Uhr 25;#P comment 157 232 26 196617 year;#P connect 16 0 8 0;#P connect 8 0 4 0;#P fasten 25 0 5 0 146 104 91 104;#P fasten 3 0 5 0 118 104 91 104;#P connect 4 0 5 0;#P connect 5 0 6 0;#P connect 6 0 2 0;#P connect 2 0 9 0;#P fasten 8 0 3 0 91 82 118 82;#P connect 6 1 2 1;#P connect 2 1 10 0;#P fasten 8 0 25 0 91 82 146 82;#P connect 6 2 11 0;#P fasten 5 1 7 0 196 125 196 125;#P connect 7 0 12 0;#P connect 7 1 13 0;#P connect 7 2 14 0;#P connect 5 2 15 0;#P fasten 2 0 17 0 91 171 331 171;#P connect 17 0 26 0;#P connect 26 0 18 0;#P fasten 2 1 17 1 130 168 370 168;#P fasten 6 2 17 2 169 165 409 165;#P fasten 7 0 17 3 196 162 448 162;#P fasten 7 1 17 4 235 159 487 159;#P pop;