max v2;#N vpatcher 5 216 1018 576;#P origin 47 24;#P window setfont "Sans Serif" 9.;#P window linecount 1;#N vpatcher 10 59 623 392;#P window setfont "Sans Serif" 9.;#P newex 517 82 26 196617 - 1;#P newex 193 154 54 196617 sprintf script connect route 1 No%i 0;#P message 509 38 15 196617 1;#P newex 477 62 50 196617 uzi;#P newex 477 16 75 196617 loadme $1;#P newex 146 154 45 196617 sprintf script connect No%i 0 out 0;#P newex 265 63 50 196617 uzi;#P newex 249 154 54 196617 sprintf script connect router %i No%i 0;#P newex 249 126 27 196617 - 1;#P newex 390 108 34 196617 * 16;#P newex 390 128 34 196617 + 20;#P newex 456 128 50 196617 t b l;#P newex 496 154 50 196617 tosymbol;#P newex 509 128 34 196617 + 10;#P newex 509 106 34 196617 * 16;#P newex 402 154 28 196617 int;#P outlet 220 236 15 0;#P message 68 154 76 196617 script connect pack 0 router 0 \, script connect change 0 router 0;#P newex 456 106 38 196617 thresh;#P newex 305 154 95 196617 sprintf script new No%i flonum %i 150 15 9 0 0 32 3 0 0 0 221 221 221 222 222 222 0 0 0;#P newex 402 177 104 196617 sprintf script new router newex 36 120 %i 196617 route %s;#P comment 32 188 100 196617;#P objectname 0bang;#P fasten 15 1 4 0 290 110 73 110;#P fasten 15 2 16 0 310 104 151 104;#P fasten 15 2 20 0 310 104 198 104;#P connect 2 0 5 0;#P connect 20 0 5 0;#P connect 4 0 5 0;#P connect 14 0 5 0;#P connect 16 0 5 0;#P connect 1 0 5 0;#P fasten 15 2 13 0 310 104 254 104;#P connect 13 0 14 0;#P connect 10 0 15 0;#P fasten 15 2 14 1 310 104 298 104;#P fasten 19 0 15 1 514 58 310 58;#P fasten 17 0 15 1 482 58 310 58;#P fasten 15 2 2 0 310 104 310 104;#P fasten 15 2 12 0 310 104 395 104;#P connect 12 0 11 0;#P connect 11 0 2 1;#P fasten 10 0 6 0 461 147 407 147;#P connect 6 0 1 0;#P fasten 8 0 6 1 514 150 425 150;#P fasten 21 0 3 0 522 103 461 103;#P connect 3 0 10 0;#P fasten 19 0 18 0 514 58 482 58;#P connect 17 0 18 0;#P connect 10 1 9 0;#P connect 9 0 1 1;#P connect 17 1 19 0;#P connect 19 0 7 0;#P fasten 17 0 7 0 482 64 514 64;#P connect 7 0 8 0;#P connect 18 2 21 0;#P pop;#P hidden newobj 36 244 59 196617 p scripts;#N thispatcher;#Q end;#P hidden newobj 36 267 59 196617 thispatcher;#N comlet;#P outlet 532 248 14 0;#P objectname out;#P newex 85 49 27 196617 t i i;#P inlet 85 21 15 0;#P newex 102 89 36 196617 change;#P objectname change;#P newex 36 49 506 196617 route float;#P objectname route;#P newex 36 89 59 196617 pack i f;#P objectname pack;#P newex 36 69 59 196617 fswap;#P inlet 36 21 15 0;#P window linecount 0;#P comment 0 277 100 196617;#P objectname 0bang;#P connect 1 0 4 0;#P connect 4 0 2 0;#P connect 2 0 3 0;#P hidden connect 10 0 9 0;#P connect 6 0 7 0;#P connect 7 0 2 1;#P connect 2 1 3 1;#P connect 7 1 5 0;#P pop;