max v2;#N vpatcher 9 421 1022 781;#P origin 47 24;#P window setfont "Sans Serif" 9.;#P window linecount 1;#P hidden newex 36 231 73 196617 patcherargs 1;#N vpatcher 10 59 722 389;#P origin 0 -5;#P inlet 477 21 15 0;#P window setfont "Sans Serif" 9.;#P newex 517 89 25 196617 - 1;#P newex 193 159 54 196617 sprintf script connect route 1 No%i 0;#P newex 477 68 50 196617 uzi;#P newex 477 41 82 196617 zl slice 1;#P newex 146 159 45 196617 sprintf script connect No%i 0 out 0;#P newex 265 69 50 196617 uzi;#P newex 249 159 54 196617 sprintf script connect router %i No%i 0;#P newex 249 131 27 196617 - 1;#P newex 390 113 34 196617 * 16;#P newex 390 133 34 196617 + 20;#P newex 456 133 50 196617 t b l;#P newex 496 159 50 196617 tosymbol;#P newex 509 133 34 196617 + 10;#P newex 509 111 34 196617 * 16;#P newex 402 159 28 196617 int;#P outlet 305 264 15 0;#P message 68 159 76 196617 script connect pack 0 router 0 \, script connect change 0 router 0;#P newex 456 111 38 196617 thresh;#P newex 305 159 95 196617 sprintf script new No%i number %i 150 15 9 0 0 32 3 0 0 0 221 221 221 222 222 222 0 0 0;#P newex 402 182 104 196617 sprintf script new router newex 36 120 %i 196617 route %s;#P comment 32 193 100 196617;#P objectname 0bang;#P fasten 15 1 4 0 290 115 73 115;#P fasten 15 2 16 0 310 109 151 109;#P fasten 15 2 19 0 310 109 198 109;#P fasten 15 2 13 0 310 109 254 109;#P connect 13 0 14 0;#P connect 10 0 15 0;#P fasten 15 2 14 1 310 109 298 109;#P fasten 17 0 15 1 482 64 310 64;#P fasten 15 2 2 0 310 109 310 109;#P connect 1 0 5 0;#P connect 2 0 5 0;#P connect 16 0 5 0;#P connect 14 0 5 0;#P connect 4 0 5 0;#P connect 19 0 5 0;#P fasten 15 2 12 0 310 109 395 109;#P connect 12 0 11 0;#P connect 11 0 2 1;#P fasten 10 0 6 0 461 152 407 152;#P connect 6 0 1 0;#P fasten 8 0 6 1 514 155 425 155;#P fasten 20 0 3 0 522 108 461 108;#P connect 3 0 10 0;#P connect 21 0 17 0;#P connect 17 0 18 0;#P connect 10 1 9 0;#P connect 9 0 1 1;#P fasten 17 0 7 0 482 64 514 64;#P connect 7 0 8 0;#P connect 18 2 20 0;#P pop;#P hidden newobj 36 252 59 196617 p scripts;#N thispatcher;#Q end;#P hidden newobj 36 273 59 196617 thispatcher;#P newex 85 49 23 196617 t i i;#P inlet 85 21 15 0;#P newex 98 89 36 196617 change;#P objectname change;#P newex 36 49 506 196617 route int;#P objectname route;#P newex 36 89 59 196617 pack;#P objectname pack;#P newex 36 69 59 196617 swap;#P inlet 36 21 15 0;#P window linecount 0;#P comment 0 268 100 196617;#P objectname 0bang;#N comlet;#P outlet 532 248 14 0;#P objectname out;#P connect 2 0 5 0;#P connect 5 0 3 0;#P connect 3 0 4 0;#P hidden connect 11 0 10 0;#P hidden connect 10 0 9 0;#P connect 7 0 8 0;#P connect 8 0 3 1;#P connect 3 1 4 1;#P connect 8 1 6 0;#P pop;