max v2;#N vpatcher 232 427 818 745;#P window setfont "Sans Serif" 9.;#P newex 22 85 37 196617 zl reg;#P hidden newex 22 212 65 196617 patcherargs;#N thispatcher;#Q end;#P hidden newobj 22 256 65 196617 thispatcher;#P outlet 533 192 15 0;#P objectname out[18];#P outlet 504 192 15 0;#P objectname out[17];#P outlet 475 192 15 0;#P objectname out[16];#P outlet 446 192 15 0;#P objectname out[15];#P outlet 417 192 15 0;#P objectname out[14];#P outlet 388 192 15 0;#P objectname out[13];#P outlet 359 192 15 0;#P objectname out[12];#P newex 283 59 57 196617 route done;#P objectname done;#P newex 283 109 22 196617 int;#P objectname length;#P newex 295 85 33 196617 zl len;#P outlet 330 192 15 0;#P objectname out[11];#P outlet 283 192 15 0;#P objectname out[10];#P outlet 254 192 15 0;#P objectname out[9];#P outlet 225 192 15 0;#P objectname out[8];#P outlet 196 192 15 0;#P objectname out[7];#P outlet 167 192 15 0;#P objectname out[6];#P outlet 138 192 15 0;#P objectname out[5];#P outlet 109 192 15 0;#P objectname out[4];#P outlet 80 192 15 0;#P objectname out[3];#P outlet 51 192 15 0;#P objectname out[2];#P outlet 22 192 15 0;#P objectname out[1];#P window linecount 2;#P newex 225 109 39 196617 zl slice 1;#P objectname zl[8];#P window linecount 3;#P newex 196 109 27 196617 zl slice 1;#P objectname zl[7];#P newex 167 109 27 196617 zl slice 1;#P objectname zl[6];#P newex 138 109 27 196617 zl slice 1;#P objectname zl[5];#P newex 109 109 27 196617 zl slice 1;#P objectname zl[4];#P newex 80 109 27 196617 zl slice 1;#P objectname zl[3];#P newex 51 109 27 196617 zl slice 1;#P objectname zl[2];#P newex 22 109 27 196617 zl slice 1;#P objectname zl[1];#P inlet 283 38 15 0;#P inlet 49 38 15 0;#P window linecount 1;#N vpatcher 33 241 910 831;#P window setfont "Sans Serif" 9.;#P window linecount 0;#P newex 539 97 37 196617 b 3;#P newex 662 193 37 196617 b;#P outlet 689 418 15 0;#P inlet 688 50 15 0;#P window linecount 1;#P hidden newex 662 170 36 196617 buddy;#P outlet 662 418 15 0;#P inlet 539 50 15 0;#P window linecount 0;#P newex 50 228 32 196617 sel 1;#P newex 50 208 32 196617 + 1;#P newex 72 275 30 196617 - 1;#P newex 139 252 31 196617 + 1;#P newex 114 275 35 196617 + 10;#P newex 72 252 52 196617 uzi;#P window linecount 5;#P newex 72 297 52 196617 sprintf script connect route %i out[%i] 0;#P window linecount 4;#P message 336 289 43 196617 script connect done 1 route 0;#P window linecount 1;#P newex 269 266 34 196617 int;#P newex 469 219 33 196617 + 2;#P window linecount 5;#P newex 269 290 54 196617 sprintf script connect done 1 out[%i] 0;#P window linecount 1;#P newex 508 219 33 196617 - 1;#P window linecount 5;#P newex 508 252 54 196617 sprintf script connect zl[%i] 1 out[%i] 0;#P window linecount 1;#P newex 565 219 33 196617 + 1;#P newex 565 194 33 196617 int 9;#P window linecount 5;#P newex 565 252 54 196617 sprintf script connect length 0 out[%i] 0;#P window linecount 1;#P newex 352 264 36 196617 + 9;#P newex 352 242 27 196617 + 2;#P newex 604 194 28 196617 !- 9;#P newex 622 241 28 196617 !- 9;#P newex 604 219 28 196617 uzi;#P window linecount 4;#P newex 622 263 42 196617 sprintf script delete zl[%i];#P window linecount 1;#P newex 352 219 27 196617 int;#P newex 393 242 34 196617 + 10;#P newex 393 219 34 196617 * 29;#P newex 455 195 50 196617 tosymbol;#P window linecount 5;#P newex 393 288 72 196617 sprintf script new route newex 330 84 %i 196617 route %s;#P window linecount 1;#P newex 393 195 40 196617 zl len;#P newex 427 140 38 196617 t i b;#P newex 455 171 50 196617 zl join;#P newex 468 288 32 196617 !- 18;#P outlet 490 418 15 0;#P window linecount 2;#P newex 490 352 73 196617 sprintf script delete out[%i];#P window linecount 1;#P newex 490 331 37 196617 !- 19;#P newex 468 309 32 196617 uzi;#P newex 269 242 77 196617 sel 0;#P newex 427 120 48 196617 route int;#P newex 427 98 78 196617 zl slice 1;#P inlet 427 50 15 0;#P newex 539 72 57 196617 roudone;#P connect 17 0 38 0;#P connect 38 0 39 0;#P connect 39 1 34 0;#P fasten 34 2 37 0 119 272 77 272;#P connect 37 0 33 0;#P connect 34 2 35 0;#P connect 35 0 33 1;#P fasten 11 0 36 0 432 162 144 162;#P connect 36 0 35 1;#P fasten 17 0 4 0 357 239 274 239;#P connect 4 0 31 0;#P connect 31 0 29 0;#P connect 30 0 31 1;#P connect 4 1 32 0;#P connect 46 1 17 0;#P connect 17 0 22 0;#P connect 22 0 23 0;#P fasten 12 0 17 1 398 216 374 216;#P fasten 11 0 23 1 432 162 383 162;#P fasten 10 0 12 0 460 191 398 191;#P connect 12 0 15 0;#P connect 15 0 16 0;#P connect 16 0 13 0;#P connect 1 0 2 0;#P connect 2 0 3 0;#P connect 3 0 11 0;#P connect 11 1 10 0;#P fasten 3 1 10 0 470 167 460 167;#P connect 10 0 14 0;#P connect 14 0 13 1;#P fasten 23 0 9 0 357 284 473 284;#P connect 9 0 5 0;#P fasten 25 0 30 0 570 214 474 214;#P connect 5 2 6 0;#P connect 6 0 7 0;#P connect 33 0 8 0;#P connect 29 0 8 0;#P connect 13 0 8 0;#P connect 32 0 8 0;#P connect 27 0 8 0;#P connect 24 0 8 0;#P connect 18 0 8 0;#P connect 7 0 8 0;#P connect 2 1 10 1;#P fasten 25 0 28 0 570 214 513 214;#P connect 28 0 27 0;#P connect 40 0 0 0;#P connect 0 0 46 0;#P fasten 25 0 27 1 570 214 557 214;#P connect 46 2 25 0;#P connect 25 0 26 0;#P connect 26 0 24 0;#P fasten 11 0 25 1 432 162 593 162;#P fasten 11 0 21 0 432 162 609 162;#P connect 21 0 19 0;#P connect 19 2 20 0;#P connect 20 0 18 0;#P connect 46 0 42 0;#P connect 42 0 45 0;#P connect 45 0 41 0;#P connect 43 0 42 1;#P connect 45 1 44 0;#P pop;#P hidden newobj 22 234 120 196617 p scripts;#P hidden connect 0 1 34 0;#P connect 34 0 3 0;#P connect 3 0 11 0;#P hidden connect 33 0 0 0;#P hidden connect 0 0 32 0;#P connect 1 0 34 1;#P connect 3 1 4 0;#P connect 4 0 12 0;#P hidden connect 33 1 0 1;#P connect 4 1 5 0;#P connect 5 0 13 0;#P connect 5 1 6 0;#P connect 6 0 14 0;#P hidden connect 24 0 0 2;#P connect 6 1 7 0;#P connect 7 0 15 0;#P connect 7 1 8 0;#P connect 8 0 16 0;#P connect 8 1 9 0;#P connect 9 0 17 0;#P connect 9 1 10 0;#P connect 10 0 18 0;#P connect 2 0 24 0;#P hidden connect 0 2 23 0;#P fasten 1 0 22 0 54 82 300 82;#P connect 22 0 23 1;#P pop;