max v2;#N vpatcher 156 327 687 539;#N comlet (list) attribute arguments;#P outlet 441 127 15 0;#P objectname out[17];#N comlet (list) attribute arguments;#P outlet 419 127 15 0;#P objectname out[16];#N comlet (list) attribute arguments;#P outlet 397 127 15 0;#P objectname out[15];#N comlet (list) attribute arguments;#P outlet 375 127 15 0;#P objectname out[14];#N comlet (list) attribute arguments;#P outlet 353 127 15 0;#P objectname out[13];#N comlet (list) attribute arguments;#P outlet 331 127 15 0;#P objectname out[12];#N comlet (list) attribute arguments;#P outlet 309 127 15 0;#P objectname out[11];#N comlet (list) attribute arguments;#P outlet 287 127 15 0;#P objectname out[10];#P window setfont "Sans Serif" 9.;#P window linecount 1;#P newex 38 103 23 196617 b 1;#N comlet (list) attribute arguments;#P outlet 265 127 15 0;#P objectname out[9];#N comlet (list) attribute arguments;#P outlet 244 127 15 0;#P objectname out[8];#N comlet (list) attribute arguments;#P outlet 223 127 15 0;#P objectname out[7];#N comlet (list) attribute arguments;#P outlet 202 127 15 0;#P objectname out[6];#N comlet (list) attribute arguments;#P outlet 181 127 15 0;#P objectname out[5];#N comlet (list) attribute arguments;#P outlet 160 127 15 0;#P objectname out[4];#N comlet (list) attribute arguments;#P outlet 139 127 15 0;#P objectname out[3];#N comlet (list) attribute arguments;#P outlet 118 127 15 0;#P objectname out[2];#N thispatcher;#Q end;#P hidden newobj 442 76 64 196617 thispatcher;#N vpatcher 155 315 523 654;#P window setfont "Sans Serif" 9.;#P newex 245 50 46 196617 loadbang;#P newex 217 72 38 196617 buddy;#P newex 168 96 28 196617 + 1;#P window linecount 1;#P newex 168 72 32 196617 zl len;#P window linecount 0;#P newex 217 96 23 196617 b 1;#P inlet 217 50 15 0;#P newex 114 154 50 196617 uzi;#P window linecount 5;#P newex 114 177 50 196617 sprintf script connect route %i out[%i] 0;#P window linecount 8;#P newex 218 139 54 196617 prepend script replace route newex 85 55 190 196617 route done;#P window linecount 0;#P newex 168 188 45 196617 sprintf script delete out[%i];#P newex 168 129 32 196617 int 1;#P newex 168 167 45 196617 revzi 17;#P outlet 168 259 15 0;#P inlet 168 50 15 0;#P fasten 3 0 7 0 173 150 119 150;#P fasten 7 2 6 0 159 174 119 174;#P connect 7 2 6 1;#P connect 0 0 10 0;#P connect 10 0 11 0;#P fasten 9 0 3 0 222 125 173 125;#P connect 3 0 2 0;#P connect 2 0 4 0;#P connect 6 0 1 0;#P connect 5 0 1 0;#P connect 4 0 1 0;#P connect 11 0 3 1;#P connect 8 0 12 0;#P connect 12 0 9 0;#P connect 0 0 5 0;#P connect 13 0 12 1;#P pop;#P hidden newobj 442 55 64 196617 p scripting;#P hidden newex 442 34 64 196617 patcherargs;#P newex 418 55 21 196617 b 1;#N comlet bang if you need a done after banging patcherargs again;#P inlet 418 33 15 0;#N comlet (list) attribute arguments;#P outlet 97 127 15 0;#P objectname out[1];#N comlet bang if done;#P outlet 38 127 15 0;#P objectname out[0];#P newex 38 80 57 196617 buddy;#P newex 85 55 190 196617 route done;#P objectname route;#N comlet connect to right outlet of patcherargs;#P inlet 85 33 15 0;#P newex 38 55 45 196617 loadbang;#P connect 0 0 3 0;#P fasten 7 0 3 0 423 76 43 76;#P connect 3 0 19 0;#P connect 19 0 4 0;#P connect 1 0 2 0;#P connect 2 0 3 1;#P connect 6 0 7 0;#P hidden connect 8 0 9 0;#P hidden connect 9 0 10 0;#P connect 8 1 9 1;#P pop;