max v2;#N vpatcher 248 90 527 332;#P origin 0 -20;#P window setfont "Sans Serif" 9.;#P window linecount 1;#P newex 173 107 22 196617 t 0;#P objectname t;#P newex 159 83 23 196617 + 1;#P newex 141 107 28 196617 mod;#P objectname mod;#P newex 61 108 43 196617 clip 0 1;#P objectname clip;#P inlet 197 34 15 0;#P newex 103 83 48 196617 split 0 1;#P objectname split;#N vpatcher 356 241 688 490;#P origin 0 -22;#P window setfont "Sans Serif" 9.;#P window linecount 0;#N vpatcher 243 315 680 551;#P window setfont "Sans Serif" 9.;#P window linecount 4;#P message 368 72 53 196617 script disconnect t 0 count 3;#P message 154 72 43 196617 script connect t 0 count 3;#P message 312 72 53 196617 script disconnect split 1 count 3;#P message 256 72 53 196617 script disconnect mod 0 count 3;#P message 108 72 43 196617 script connect split 1 count 3;#P outlet 200 165 15 0;#P message 62 72 43 196617 script connect mod 0 count 3;#P message 16 72 43 196617 script connect clip 0 count 3;#P message 200 72 53 196617 script disconnect clip 0 count 3;#P window linecount 1;#P newex 200 50 180 196617 sel 0 1 2;#P newex 16 50 148 196617 sel 0 1 2;#P inlet 200 30 15 0;#P inlet 16 30 15 0;#P connect 0 0 2 0;#P connect 2 0 5 0;#P connect 2 1 6 0;#P connect 2 2 8 0;#P connect 2 3 11 0;#P connect 1 0 3 0;#P connect 3 0 4 0;#P connect 11 0 7 0;#P connect 12 0 7 0;#P connect 4 0 7 0;#P connect 10 0 7 0;#P connect 9 0 7 0;#P connect 8 0 7 0;#P connect 6 0 7 0;#P connect 5 0 7 0;#P connect 3 1 9 0;#P connect 3 2 10 0;#P connect 3 3 12 0;#P pop;#P newobj 70 147 49 196617 p connect scripts;#P newex 82 51 37 196617 t i b;#P newex 109 77 24 196617 int;#P window linecount 1;#P newex 30 77 50 196617 zl slice 1;#P inlet 82 33 15 0;#P outlet 30 185 15 0;#P window linecount 0;#P newex 13 128 20 196617 t 1;#P window linecount 2;#P message 135 149 91 196617 script delete out+ \, script delete +;#P window linecount 1;#P newex 135 128 34 196617 sel 0;#P newex 135 107 27 196617 int;#P newex 135 77 92 196617 roudone;#P inlet 30 33 15 0;#P inlet 135 32 15 0;#P outlet 13 185 15 0;#P outlet 135 185 15 0;#P fasten 4 0 8 0 140 98 18 98;#P connect 8 0 1 0;#P connect 3 0 11 0;#P connect 11 0 9 0;#P fasten 13 0 14 0 87 133;#P connect 11 1 14 0;#P connect 10 0 13 0;#P connect 13 1 12 0;#P connect 12 0 14 1;#P fasten 13 0 12 1 87 73 128 73;#P connect 11 1 12 1;#P connect 2 0 4 0;#P connect 4 0 5 0;#P connect 5 0 6 0;#P connect 6 0 7 0;#P fasten 14 0 0 0 75 180 140 180;#P connect 7 0 0 0;#P fasten 11 0 5 1 35 102 157 102;#P pop;#P newobj 115 56 78 196617 p scripts;#N thispatcher;#Q end;#P newobj 183 83 59 196617 thispatcher;#N counter 1;#X flags 0 0;#P newobj 33 131 174 196617 counter 1;#P objectname count;#P outlet 84 184 15 0;#P objectname out+;#P newex 84 160 25 196617 + 1;#P objectname +;#P newex 115 34 78 196617 patcherargs;#P inlet 33 34 15 0;#P outlet 33 184 15 0;#P objectname out;#P newex 33 56 81 196617 route bang mode;#P connect 2 0 0 0;#P connect 0 0 6 0;#P connect 6 0 1 0;#P fasten 9 1 11 0 146 104 66 104;#P fasten 6 0 4 0 38 155 89 155;#P connect 4 0 5 0;#P fasten 10 0 11 2 202 79 98 79;#P fasten 8 1 11 2 154 79 98 79;#P connect 0 2 9 0;#P connect 3 0 8 0;#P connect 8 0 6 2;#P fasten 10 0 9 2 202 79 146 79;#P connect 8 1 9 2;#P connect 9 1 12 0;#P connect 0 1 8 1;#P fasten 11 0 6 3 66 127 161 127;#P fasten 9 0 6 3 108 127 161 127;#P fasten 10 0 13 0 202 79 164 79;#P connect 8 1 13 0;#P connect 13 0 12 1;#P fasten 9 1 14 0 146 104 178 104;#P connect 3 1 8 2;#P connect 8 2 7 0;#P connect 10 0 6 4;#P fasten 8 1 6 4 154 79 202 79;#P pop;