{
	"patcher" : 	{
		"fileversion" : 1,
		"rect" : [ 24.0, 55.0, 754.0, 691.0 ],
		"bglocked" : 0,
		"defrect" : [ 24.0, 55.0, 754.0, 691.0 ],
		"openrect" : [ 0.0, 0.0, 0.0, 0.0 ],
		"openinpresentation" : 0,
		"default_fontsize" : 12.0,
		"default_fontface" : 0,
		"default_fontname" : "Arial",
		"gridonopen" : 0,
		"gridsize" : [ 15.0, 15.0 ],
		"gridsnaponopen" : 0,
		"toolbarvisible" : 1,
		"boxanimatetime" : 200,
		"imprint" : 0,
		"boxes" : [ 			{
				"box" : 				{
					"maxclass" : "newobj",
					"text" : "uc_disclaimer",
					"id" : "obj-1",
					"fontname" : "Arial",
					"fontsize" : 9.0,
					"patching_rect" : [ 610.0, 615.0, 73.0, 17.0 ],
					"numinlets" : 0,
					"numoutlets" : 0
				}

			}
, 			{
				"box" : 				{
					"maxclass" : "toggle",
					"id" : "obj-2",
					"outlettype" : [ "int" ],
					"patching_rect" : [ 483.0, 587.0, 14.0, 14.0 ],
					"numinlets" : 1,
					"numoutlets" : 1
				}

			}
, 			{
				"box" : 				{
					"maxclass" : "comment",
					"text" : "Hz",
					"id" : "obj-3",
					"fontname" : "Arial",
					"frgb" : [ 0.0, 0.0, 0.0, 1.0 ],
					"fontsize" : 9.0,
					"patching_rect" : [ 419.0, 515.0, 22.0, 17.0 ],
					"numinlets" : 1,
					"numoutlets" : 0
				}

			}
, 			{
				"box" : 				{
					"maxclass" : "newobj",
					"text" : "ftom",
					"id" : "obj-4",
					"fontname" : "Arial",
					"outlettype" : [ "" ],
					"fontsize" : 9.0,
					"patching_rect" : [ 63.0, 551.0, 31.0, 17.0 ],
					"numinlets" : 1,
					"numoutlets" : 1
				}

			}
, 			{
				"box" : 				{
					"maxclass" : "button",
					"id" : "obj-5",
					"outlettype" : [ "bang" ],
					"patching_rect" : [ 17.0, 551.0, 15.0, 15.0 ],
					"numinlets" : 1,
					"numoutlets" : 1
				}

			}
, 			{
				"box" : 				{
					"maxclass" : "newobj",
					"text" : "pack chord 0 1 0 1 0 1 0 1",
					"id" : "obj-6",
					"fontname" : "Arial",
					"outlettype" : [ "" ],
					"fontsize" : 9.0,
					"patching_rect" : [ 17.0, 573.0, 385.0, 17.0 ],
					"numinlets" : 9,
					"numoutlets" : 1
				}

			}
, 			{
				"box" : 				{
					"maxclass" : "newobj",
					"text" : "ftom",
					"id" : "obj-7",
					"fontname" : "Arial",
					"outlettype" : [ "" ],
					"fontsize" : 9.0,
					"patching_rect" : [ 155.0, 551.0, 31.0, 17.0 ],
					"numinlets" : 1,
					"numoutlets" : 1
				}

			}
, 			{
				"box" : 				{
					"maxclass" : "newobj",
					"text" : "ftom",
					"id" : "obj-8",
					"fontname" : "Arial",
					"outlettype" : [ "" ],
					"fontsize" : 9.0,
					"patching_rect" : [ 247.0, 551.0, 31.0, 17.0 ],
					"numinlets" : 1,
					"numoutlets" : 1
				}

			}
, 			{
				"box" : 				{
					"maxclass" : "newobj",
					"text" : "ftom",
					"id" : "obj-9",
					"fontname" : "Arial",
					"outlettype" : [ "" ],
					"fontsize" : 9.0,
					"patching_rect" : [ 339.0, 551.0, 31.0, 17.0 ],
					"numinlets" : 1,
					"numoutlets" : 1
				}

			}
, 			{
				"box" : 				{
					"maxclass" : "kslider",
					"id" : "obj-10",
					"outlettype" : [ "int", "int" ],
					"hkeycolor" : [ 0.501961, 0.501961, 0.501961, 1.0 ],
					"presentation_rect" : [ 0.0, 0.0, 196.0, 35.0 ],
					"mode" : 1,
					"patching_rect" : [ 17.0, 598.0, 196.0, 35.0 ],
					"numinlets" : 2,
					"numoutlets" : 2
				}

			}
, 			{
				"box" : 				{
					"maxclass" : "comment",
					"text" : "- the best book on tuning, and music theory in general, ever written.",
					"linecount" : 2,
					"id" : "obj-11",
					"fontname" : "Arial",
					"frgb" : [ 0.0, 0.0, 0.0, 1.0 ],
					"fontsize" : 9.0,
					"patching_rect" : [ 475.0, 222.0, 252.0, 27.0 ],
					"numinlets" : 1,
					"numoutlets" : 0
				}

			}
, 			{
				"box" : 				{
					"maxclass" : "comment",
					"text" : "Harmonic Experience, by w.a. mathieu",
					"id" : "obj-12",
					"fontname" : "Arial",
					"frgb" : [ 0.0, 0.0, 0.0, 1.0 ],
					"fontsize" : 12.0,
					"patching_rect" : [ 475.0, 203.0, 239.0, 20.0 ],
					"numinlets" : 1,
					"numoutlets" : 0
				}

			}
, 			{
				"box" : 				{
					"maxclass" : "comment",
					"text" : "Click this first ->",
					"id" : "obj-13",
					"fontname" : "Arial",
					"frgb" : [ 0.0, 0.0, 0.0, 1.0 ],
					"fontsize" : 12.0,
					"patching_rect" : [ 314.0, 26.0, 96.0, 20.0 ],
					"numinlets" : 1,
					"numoutlets" : 0
				}

			}
, 			{
				"box" : 				{
					"maxclass" : "comment",
					"text" : "Click on the 'et' switch below to hear them in equal temperament.",
					"id" : "obj-14",
					"fontname" : "Arial",
					"frgb" : [ 0.0, 0.0, 0.0, 1.0 ],
					"fontsize" : 12.0,
					"patching_rect" : [ 339.0, 63.0, 356.0, 20.0 ],
					"numinlets" : 1,
					"numoutlets" : 0
				}

			}
, 			{
				"box" : 				{
					"maxclass" : "comment",
					"text" : "The numbers in the circles represent the pitch ratio relative to the root pitch. Perfect fifths (powers of three) are arranged horizontally. Major thirds (powers of five) are arranged vertically. Pitches are 'octave reduced'.",
					"linecount" : 4,
					"id" : "obj-15",
					"fontname" : "Arial",
					"frgb" : [ 0.0, 0.0, 0.0, 1.0 ],
					"fontsize" : 12.0,
					"patching_rect" : [ 435.0, 103.0, 309.0, 62.0 ],
					"numinlets" : 1,
					"numoutlets" : 0
				}

			}
, 			{
				"box" : 				{
					"maxclass" : "comment",
					"text" : "et",
					"id" : "obj-16",
					"fontname" : "Arial",
					"frgb" : [ 0.0, 0.0, 0.0, 1.0 ],
					"fontsize" : 36.0,
					"patching_rect" : [ 409.0, 458.0, 48.0, 48.0 ],
					"numinlets" : 1,
					"numoutlets" : 0
				}

			}
, 			{
				"box" : 				{
					"maxclass" : "comment",
					"text" : "Then, click around the lattice of pitches to hear various chords in just intonation.",
					"linecount" : 2,
					"id" : "obj-17",
					"fontname" : "Arial",
					"frgb" : [ 0.0, 0.0, 0.0, 1.0 ],
					"fontsize" : 12.0,
					"patching_rect" : [ 459.0, 26.0, 230.0, 34.0 ],
					"numinlets" : 1,
					"numoutlets" : 0
				}

			}
, 			{
				"box" : 				{
					"maxclass" : "comment",
					"text" : "Based on the book:",
					"id" : "obj-18",
					"fontname" : "Arial",
					"frgb" : [ 0.0, 0.0, 0.0, 1.0 ],
					"fontsize" : 9.0,
					"patching_rect" : [ 475.0, 189.0, 182.0, 17.0 ],
					"numinlets" : 1,
					"numoutlets" : 0
				}

			}
, 			{
				"box" : 				{
					"maxclass" : "comment",
					"text" : "jhno",
					"id" : "obj-19",
					"fontname" : "Arial",
					"frgb" : [ 0.0, 0.0, 0.0, 1.0 ],
					"fontsize" : 9.0,
					"patching_rect" : [ 215.0, 46.0, 34.0, 17.0 ],
					"numinlets" : 1,
					"numoutlets" : 0
				}

			}
, 			{
				"box" : 				{
					"maxclass" : "preset",
					"id" : "obj-20",
					"outlettype" : [ "preset", "int", "preset", "int" ],
					"bubblesize" : 8,
					"patching_rect" : [ 404.0, 24.0, 47.0, 27.0 ],
					"margin" : 4,
					"spacing" : 2,
					"numinlets" : 1,
					"numoutlets" : 4,
					"preset_data" : [ 						{
							"number" : 1,
							"data" : [ 6, "obj-47", "gain~", "list", 53, 10.0, 5, "obj-41", "toggle", "int", 0, 5, "obj-36", "toggle", "int", 0, 5, "obj-35", "flonum", "float", 110.0, 5, "obj-34", "flonum", "float", 220.0, 5, "obj-33", "flonum", "float", 275.0, 5, "obj-32", "flonum", "float", 330.0, 5, "obj-30", "toggle", "int", 1, 5, "obj-28", "toggle", "int", 1, 5, "obj-2", "toggle", "int", 1, 5, "obj-26", "filtergraph~", "nfilters", 1, 9, "obj-26", "filtergraph~", "setoptions", 0, 1, 1, 0, 0, 8, "obj-26", "filtergraph~", "params", 0, 1834.646606, 1.167328, 0.814207, 5, "obj-26", "filtergraph~", "updateflag", 1, 5, "obj-24", "toggle", "int", 1, 5, "obj-23", "toggle", "int", 1, 5, "obj-22", "toggle", "int", 1 ]
						}
 ]
				}

			}
, 			{
				"box" : 				{
					"maxclass" : "newobj",
					"text" : "p more",
					"id" : "obj-21",
					"fontname" : "Arial",
					"outlettype" : [ "" ],
					"fontsize" : 12.0,
					"patching_rect" : [ 242.0, 97.0, 48.0, 20.0 ],
					"numinlets" : 0,
					"numoutlets" : 1,
					"patcher" : 					{
						"fileversion" : 1,
						"rect" : [ 489.0, 66.0, 506.0, 421.0 ],
						"bglocked" : 0,
						"defrect" : [ 489.0, 66.0, 506.0, 421.0 ],
						"openrect" : [ 0.0, 0.0, 0.0, 0.0 ],
						"openinpresentation" : 0,
						"default_fontsize" : 12.0,
						"default_fontface" : 0,
						"default_fontname" : "Arial",
						"gridonopen" : 0,
						"gridsize" : [ 15.0, 15.0 ],
						"gridsnaponopen" : 0,
						"toolbarvisible" : 1,
						"boxanimatetime" : 200,
						"imprint" : 0,
						"boxes" : [ 							{
								"box" : 								{
									"maxclass" : "newobj",
									"text" : "lv",
									"id" : "obj-1",
									"fontname" : "Arial",
									"fontsize" : 9.0,
									"patching_rect" : [ 60.0, 176.0, 27.0, 17.0 ],
									"numinlets" : 2,
									"numoutlets" : 0
								}

							}
, 							{
								"box" : 								{
									"maxclass" : "comment",
									"text" : "Display a note on the lattice. The lattice node(s) which are closest to the equal-tempered version of the note here are shown in white.",
									"linecount" : 2,
									"id" : "obj-2",
									"fontname" : "Arial",
									"frgb" : [ 0.0, 0.0, 0.0, 1.0 ],
									"fontsize" : 9.0,
									"patching_rect" : [ 138.0, 322.0, 321.0, 27.0 ],
									"numinlets" : 1,
									"numoutlets" : 0
								}

							}
, 							{
								"box" : 								{
									"maxclass" : "comment",
									"text" : "Turn off octave reduction. Warning: this can make really high (and NaN) pitches!",
									"id" : "obj-3",
									"fontname" : "Arial",
									"frgb" : [ 0.0, 0.0, 0.0, 1.0 ],
									"fontsize" : 9.0,
									"patching_rect" : [ 85.0, 220.0, 372.0, 17.0 ],
									"numinlets" : 1,
									"numoutlets" : 0
								}

							}
, 							{
								"box" : 								{
									"maxclass" : "comment",
									"text" : "Turn on a drone at the root pitch.",
									"id" : "obj-4",
									"fontname" : "Arial",
									"frgb" : [ 0.0, 0.0, 0.0, 1.0 ],
									"fontsize" : 9.0,
									"patching_rect" : [ 98.0, 155.0, 158.0, 17.0 ],
									"numinlets" : 1,
									"numoutlets" : 0
								}

							}
, 							{
								"box" : 								{
									"maxclass" : "toggle",
									"id" : "obj-5",
									"outlettype" : [ "int" ],
									"patching_rect" : [ 77.0, 153.0, 15.0, 15.0 ],
									"numinlets" : 1,
									"numoutlets" : 1
								}

							}
, 							{
								"box" : 								{
									"maxclass" : "newobj",
									"text" : "mtof",
									"id" : "obj-6",
									"fontname" : "Arial",
									"outlettype" : [ "" ],
									"fontsize" : 9.0,
									"patching_rect" : [ 60.0, 75.0, 31.0, 17.0 ],
									"numinlets" : 1,
									"numoutlets" : 1
								}

							}
, 							{
								"box" : 								{
									"maxclass" : "kslider",
									"id" : "obj-7",
									"outlettype" : [ "int", "int" ],
									"hkeycolor" : [ 0.501961, 0.501961, 0.501961, 1.0 ],
									"presentation_rect" : [ 0.0, 0.0, 196.0, 35.0 ],
									"patching_rect" : [ 60.0, 28.0, 196.0, 35.0 ],
									"numinlets" : 2,
									"numoutlets" : 2
								}

							}
, 							{
								"box" : 								{
									"maxclass" : "newobj",
									"text" : "* 0.5",
									"id" : "obj-8",
									"fontname" : "Arial",
									"outlettype" : [ "float" ],
									"fontsize" : 9.0,
									"patching_rect" : [ 60.0, 129.0, 35.0, 17.0 ],
									"numinlets" : 2,
									"numoutlets" : 1
								}

							}
, 							{
								"box" : 								{
									"maxclass" : "flonum",
									"id" : "obj-9",
									"fontname" : "Arial",
									"outlettype" : [ "float", "bang" ],
									"triscale" : 0.9,
									"fontsize" : 9.0,
									"htextcolor" : [ 0.870588, 0.870588, 0.870588, 1.0 ],
									"patching_rect" : [ 60.0, 98.0, 35.0, 17.0 ],
									"numinlets" : 1,
									"bgcolor" : [ 0.866667, 0.866667, 0.866667, 1.0 ],
									"numoutlets" : 2
								}

							}
, 							{
								"box" : 								{
									"maxclass" : "outlet",
									"id" : "obj-10",
									"patching_rect" : [ 41.0, 351.0, 15.0, 15.0 ],
									"numinlets" : 1,
									"numoutlets" : 0,
									"comment" : ""
								}

							}
, 							{
								"box" : 								{
									"maxclass" : "message",
									"text" : "note $1",
									"id" : "obj-11",
									"fontname" : "Arial",
									"outlettype" : [ "" ],
									"fontsize" : 9.0,
									"patching_rect" : [ 86.0, 321.0, 44.0, 15.0 ],
									"numinlets" : 2,
									"numoutlets" : 1
								}

							}
, 							{
								"box" : 								{
									"maxclass" : "kslider",
									"id" : "obj-12",
									"offset" : 48,
									"range" : 24,
									"outlettype" : [ "int", "int" ],
									"hkeycolor" : [ 0.501961, 0.501961, 0.501961, 1.0 ],
									"presentation_rect" : [ 0.0, 0.0, 98.0, 35.0 ],
									"patching_rect" : [ 86.0, 274.0, 98.0, 35.0 ],
									"numinlets" : 2,
									"numoutlets" : 2
								}

							}
, 							{
								"box" : 								{
									"maxclass" : "toggle",
									"id" : "obj-13",
									"outlettype" : [ "int" ],
									"patching_rect" : [ 61.0, 219.0, 15.0, 15.0 ],
									"numinlets" : 1,
									"numoutlets" : 1
								}

							}
, 							{
								"box" : 								{
									"maxclass" : "message",
									"text" : "noreduce $1",
									"id" : "obj-14",
									"fontname" : "Arial",
									"outlettype" : [ "" ],
									"fontsize" : 9.0,
									"patching_rect" : [ 61.0, 243.0, 65.0, 15.0 ],
									"numinlets" : 2,
									"numoutlets" : 1
								}

							}
, 							{
								"box" : 								{
									"maxclass" : "comment",
									"text" : "Change the root pitch.",
									"id" : "obj-15",
									"fontname" : "Arial",
									"frgb" : [ 0.0, 0.0, 0.0, 1.0 ],
									"fontsize" : 9.0,
									"patching_rect" : [ 116.0, 78.0, 133.0, 17.0 ],
									"numinlets" : 1,
									"numoutlets" : 0
								}

							}
 ],
						"lines" : [ 							{
								"patchline" : 								{
									"source" : [ "obj-12", 0 ],
									"destination" : [ "obj-11", 0 ],
									"hidden" : 0,
									"midpoints" : [  ]
								}

							}
, 							{
								"patchline" : 								{
									"source" : [ "obj-5", 0 ],
									"destination" : [ "obj-1", 1 ],
									"hidden" : 0,
									"midpoints" : [  ]
								}

							}
, 							{
								"patchline" : 								{
									"source" : [ "obj-13", 0 ],
									"destination" : [ "obj-14", 0 ],
									"hidden" : 0,
									"midpoints" : [  ]
								}

							}
, 							{
								"patchline" : 								{
									"source" : [ "obj-8", 0 ],
									"destination" : [ "obj-1", 0 ],
									"hidden" : 0,
									"midpoints" : [  ]
								}

							}
, 							{
								"patchline" : 								{
									"source" : [ "obj-9", 0 ],
									"destination" : [ "obj-8", 0 ],
									"hidden" : 0,
									"midpoints" : [  ]
								}

							}
, 							{
								"patchline" : 								{
									"source" : [ "obj-6", 0 ],
									"destination" : [ "obj-9", 0 ],
									"hidden" : 0,
									"midpoints" : [  ]
								}

							}
, 							{
								"patchline" : 								{
									"source" : [ "obj-7", 0 ],
									"destination" : [ "obj-6", 0 ],
									"hidden" : 0,
									"midpoints" : [  ]
								}

							}
, 							{
								"patchline" : 								{
									"source" : [ "obj-14", 0 ],
									"destination" : [ "obj-10", 0 ],
									"hidden" : 0,
									"midpoints" : [  ]
								}

							}
, 							{
								"patchline" : 								{
									"source" : [ "obj-11", 0 ],
									"destination" : [ "obj-10", 0 ],
									"hidden" : 0,
									"midpoints" : [  ]
								}

							}
, 							{
								"patchline" : 								{
									"source" : [ "obj-9", 0 ],
									"destination" : [ "obj-10", 0 ],
									"hidden" : 0,
									"midpoints" : [ 69.5, 120.0, 50.0, 120.0 ]
								}

							}
 ]
					}
,
					"saved_object_attributes" : 					{
						"fontname" : "Arial",
						"default_fontface" : 0,
						"globalpatchername" : "",
						"fontface" : 0,
						"default_fontname" : "Arial",
						"fontsize" : 12.0,
						"default_fontsize" : 12.0
					}

				}

			}
, 			{
				"box" : 				{
					"maxclass" : "toggle",
					"id" : "obj-22",
					"outlettype" : [ "int" ],
					"patching_rect" : [ 205.0, 531.0, 15.0, 15.0 ],
					"numinlets" : 1,
					"numoutlets" : 1
				}

			}
, 			{
				"box" : 				{
					"maxclass" : "toggle",
					"id" : "obj-23",
					"outlettype" : [ "int" ],
					"patching_rect" : [ 297.0, 531.0, 15.0, 15.0 ],
					"numinlets" : 1,
					"numoutlets" : 1
				}

			}
, 			{
				"box" : 				{
					"maxclass" : "toggle",
					"id" : "obj-24",
					"outlettype" : [ "int" ],
					"patching_rect" : [ 389.0, 531.0, 15.0, 15.0 ],
					"numinlets" : 1,
					"numoutlets" : 1
				}

			}
, 			{
				"box" : 				{
					"maxclass" : "newobj",
					"text" : "biquad~",
					"id" : "obj-25",
					"fontname" : "Arial",
					"outlettype" : [ "signal" ],
					"fontsize" : 9.0,
					"patching_rect" : [ 509.0, 435.0, 79.0, 17.0 ],
					"numinlets" : 6,
					"numoutlets" : 1
				}

			}
, 			{
				"box" : 				{
					"maxclass" : "filtergraph~",
					"id" : "obj-26",
					"outlettype" : [ "list", "float", "float", "float", "float", "list", "int" ],
					"bwidthcolor" : [ 0.298039, 0.423529, 0.67451, 1.0 ],
					"fgcolor" : [ 0.666667, 0.666667, 0.666667, 1.0 ],
					"markercolor" : [ 0.509804, 0.509804, 0.509804, 1.0 ],
					"hbwidthcolor" : [ 0.823529, 0.290196, 0.211765, 1.0 ],
					"patching_rect" : [ 522.0, 288.0, 180.0, 106.0 ],
					"numinlets" : 8,
					"hcurvecolor" : [ 1.0, 0.086275, 0.086275, 1.0 ],
					"bgcolor" : [ 0.819608, 0.819608, 0.819608, 1.0 ],
					"numoutlets" : 7,
					"nfilters" : 1,
					"setfilter" : [ 0, 1, 1, 0, 0, 1834.646606, 1.167328, 0.814207, 0.0, 0.0, 0.0, 0.0, 0.0, 0.0 ]
				}

			}
, 			{
				"box" : 				{
					"maxclass" : "newobj",
					"text" : "dac~",
					"id" : "obj-27",
					"fontname" : "Arial",
					"fontsize" : 9.0,
					"patching_rect" : [ 509.0, 602.0, 31.0, 17.0 ],
					"numinlets" : 2,
					"numoutlets" : 0
				}

			}
, 			{
				"box" : 				{
					"maxclass" : "toggle",
					"id" : "obj-28",
					"outlettype" : [ "int" ],
					"patching_rect" : [ 113.0, 531.0, 15.0, 15.0 ],
					"numinlets" : 1,
					"numoutlets" : 1
				}

			}
, 			{
				"box" : 				{
					"maxclass" : "newobj",
					"text" : "receive~ o12",
					"id" : "obj-29",
					"fontname" : "Arial",
					"outlettype" : [ "signal" ],
					"fontsize" : 9.0,
					"patching_rect" : [ 509.0, 408.0, 70.0, 17.0 ],
					"numinlets" : 1,
					"numoutlets" : 1
				}

			}
, 			{
				"box" : 				{
					"maxclass" : "toggle",
					"id" : "obj-30",
					"outlettype" : [ "int" ],
					"patching_rect" : [ 179.0, 74.0, 15.0, 15.0 ],
					"numinlets" : 1,
					"numoutlets" : 1
				}

			}
, 			{
				"box" : 				{
					"maxclass" : "message",
					"text" : "triads $1",
					"id" : "obj-31",
					"fontname" : "Arial",
					"outlettype" : [ "" ],
					"fontsize" : 12.0,
					"patching_rect" : [ 179.0, 98.0, 57.0, 18.0 ],
					"numinlets" : 2,
					"numoutlets" : 1
				}

			}
, 			{
				"box" : 				{
					"maxclass" : "flonum",
					"id" : "obj-32",
					"fontname" : "Arial",
					"outlettype" : [ "float", "bang" ],
					"triscale" : 0.9,
					"fontsize" : 9.0,
					"htextcolor" : [ 0.870588, 0.870588, 0.870588, 1.0 ],
					"patching_rect" : [ 372.0, 513.0, 44.0, 17.0 ],
					"numinlets" : 1,
					"bgcolor" : [ 0.866667, 0.866667, 0.866667, 1.0 ],
					"numoutlets" : 2
				}

			}
, 			{
				"box" : 				{
					"maxclass" : "flonum",
					"id" : "obj-33",
					"fontname" : "Arial",
					"outlettype" : [ "float", "bang" ],
					"triscale" : 0.9,
					"fontsize" : 9.0,
					"htextcolor" : [ 0.870588, 0.870588, 0.870588, 1.0 ],
					"patching_rect" : [ 280.0, 513.0, 44.0, 17.0 ],
					"numinlets" : 1,
					"bgcolor" : [ 0.866667, 0.866667, 0.866667, 1.0 ],
					"numoutlets" : 2
				}

			}
, 			{
				"box" : 				{
					"maxclass" : "flonum",
					"id" : "obj-34",
					"fontname" : "Arial",
					"outlettype" : [ "float", "bang" ],
					"triscale" : 0.9,
					"fontsize" : 9.0,
					"htextcolor" : [ 0.870588, 0.870588, 0.870588, 1.0 ],
					"patching_rect" : [ 188.0, 513.0, 44.0, 17.0 ],
					"numinlets" : 1,
					"bgcolor" : [ 0.866667, 0.866667, 0.866667, 1.0 ],
					"numoutlets" : 2
				}

			}
, 			{
				"box" : 				{
					"maxclass" : "flonum",
					"id" : "obj-35",
					"fontname" : "Arial",
					"outlettype" : [ "float", "bang" ],
					"triscale" : 0.9,
					"fontsize" : 9.0,
					"htextcolor" : [ 0.870588, 0.870588, 0.870588, 1.0 ],
					"patching_rect" : [ 96.0, 513.0, 44.0, 17.0 ],
					"numinlets" : 1,
					"bgcolor" : [ 0.866667, 0.866667, 0.866667, 1.0 ],
					"numoutlets" : 2
				}

			}
, 			{
				"box" : 				{
					"maxclass" : "toggle",
					"id" : "obj-36",
					"outlettype" : [ "int" ],
					"patching_rect" : [ 96.0, 74.0, 15.0, 15.0 ],
					"numinlets" : 1,
					"numoutlets" : 1
				}

			}
, 			{
				"box" : 				{
					"maxclass" : "newobj",
					"text" : "p wander",
					"id" : "obj-37",
					"fontname" : "Arial",
					"outlettype" : [ "" ],
					"fontsize" : 12.0,
					"patching_rect" : [ 96.0, 98.0, 60.0, 20.0 ],
					"numinlets" : 1,
					"numoutlets" : 1,
					"patcher" : 					{
						"fileversion" : 1,
						"rect" : [ 87.0, 125.0, 302.0, 338.0 ],
						"bglocked" : 0,
						"defrect" : [ 87.0, 125.0, 302.0, 338.0 ],
						"openrect" : [ 0.0, 0.0, 0.0, 0.0 ],
						"openinpresentation" : 0,
						"default_fontsize" : 12.0,
						"default_fontface" : 0,
						"default_fontname" : "Arial",
						"gridonopen" : 0,
						"gridsize" : [ 15.0, 15.0 ],
						"gridsnaponopen" : 0,
						"toolbarvisible" : 1,
						"boxanimatetime" : 200,
						"imprint" : 0,
						"boxes" : [ 							{
								"box" : 								{
									"maxclass" : "newobj",
									"text" : "* 500",
									"id" : "obj-1",
									"fontname" : "Arial",
									"outlettype" : [ "int" ],
									"fontsize" : 9.0,
									"patching_rect" : [ 193.0, 94.0, 38.0, 17.0 ],
									"numinlets" : 2,
									"numoutlets" : 1
								}

							}
, 							{
								"box" : 								{
									"maxclass" : "newobj",
									"text" : "snapshot~ 500",
									"id" : "obj-2",
									"fontname" : "Arial",
									"outlettype" : [ "float" ],
									"fontsize" : 9.0,
									"patching_rect" : [ 120.0, 188.0, 83.0, 17.0 ],
									"numinlets" : 2,
									"numoutlets" : 1
								}

							}
, 							{
								"box" : 								{
									"maxclass" : "newobj",
									"text" : "snapshot~ 500",
									"id" : "obj-3",
									"fontname" : "Arial",
									"outlettype" : [ "float" ],
									"fontsize" : 9.0,
									"patching_rect" : [ 84.0, 138.0, 76.0, 17.0 ],
									"numinlets" : 2,
									"numoutlets" : 1
								}

							}
, 							{
								"box" : 								{
									"maxclass" : "newobj",
									"text" : "cycle~ 0.053",
									"id" : "obj-4",
									"fontname" : "Arial",
									"outlettype" : [ "signal" ],
									"fontsize" : 9.0,
									"patching_rect" : [ 120.0, 163.0, 70.0, 17.0 ],
									"numinlets" : 2,
									"numoutlets" : 1
								}

							}
, 							{
								"box" : 								{
									"maxclass" : "newobj",
									"text" : "cycle~ 0.1",
									"id" : "obj-5",
									"fontname" : "Arial",
									"outlettype" : [ "signal" ],
									"fontsize" : 9.0,
									"patching_rect" : [ 84.0, 113.0, 58.0, 17.0 ],
									"numinlets" : 2,
									"numoutlets" : 1
								}

							}
, 							{
								"box" : 								{
									"maxclass" : "inlet",
									"id" : "obj-6",
									"outlettype" : [ "int" ],
									"patching_rect" : [ 193.0, 70.0, 15.0, 15.0 ],
									"numinlets" : 0,
									"numoutlets" : 1,
									"comment" : ""
								}

							}
, 							{
								"box" : 								{
									"maxclass" : "outlet",
									"id" : "obj-7",
									"patching_rect" : [ 48.0, 244.0, 15.0, 15.0 ],
									"numinlets" : 1,
									"numoutlets" : 0,
									"comment" : ""
								}

							}
, 							{
								"box" : 								{
									"maxclass" : "button",
									"id" : "obj-8",
									"outlettype" : [ "bang" ],
									"patching_rect" : [ 48.0, 192.0, 15.0, 15.0 ],
									"numinlets" : 1,
									"numoutlets" : 1
								}

							}
, 							{
								"box" : 								{
									"maxclass" : "newobj",
									"text" : "pack coord 0. 0.",
									"id" : "obj-9",
									"fontname" : "Arial",
									"outlettype" : [ "" ],
									"fontsize" : 9.0,
									"patching_rect" : [ 48.0, 218.0, 82.0, 17.0 ],
									"numinlets" : 3,
									"numoutlets" : 1
								}

							}
 ],
						"lines" : [ 							{
								"patchline" : 								{
									"source" : [ "obj-1", 0 ],
									"destination" : [ "obj-2", 1 ],
									"hidden" : 0,
									"midpoints" : [  ]
								}

							}
, 							{
								"patchline" : 								{
									"source" : [ "obj-6", 0 ],
									"destination" : [ "obj-1", 0 ],
									"hidden" : 0,
									"midpoints" : [  ]
								}

							}
, 							{
								"patchline" : 								{
									"source" : [ "obj-1", 0 ],
									"destination" : [ "obj-3", 1 ],
									"hidden" : 0,
									"midpoints" : [  ]
								}

							}
, 							{
								"patchline" : 								{
									"source" : [ "obj-2", 0 ],
									"destination" : [ "obj-9", 2 ],
									"hidden" : 0,
									"midpoints" : [  ]
								}

							}
, 							{
								"patchline" : 								{
									"source" : [ "obj-4", 0 ],
									"destination" : [ "obj-2", 0 ],
									"hidden" : 0,
									"midpoints" : [  ]
								}

							}
, 							{
								"patchline" : 								{
									"source" : [ "obj-3", 0 ],
									"destination" : [ "obj-9", 1 ],
									"hidden" : 0,
									"midpoints" : [  ]
								}

							}
, 							{
								"patchline" : 								{
									"source" : [ "obj-5", 0 ],
									"destination" : [ "obj-3", 0 ],
									"hidden" : 0,
									"midpoints" : [  ]
								}

							}
, 							{
								"patchline" : 								{
									"source" : [ "obj-9", 0 ],
									"destination" : [ "obj-7", 0 ],
									"hidden" : 0,
									"midpoints" : [  ]
								}

							}
, 							{
								"patchline" : 								{
									"source" : [ "obj-8", 0 ],
									"destination" : [ "obj-9", 0 ],
									"hidden" : 0,
									"midpoints" : [  ]
								}

							}
, 							{
								"patchline" : 								{
									"source" : [ "obj-3", 0 ],
									"destination" : [ "obj-8", 0 ],
									"hidden" : 0,
									"midpoints" : [  ]
								}

							}
 ]
					}
,
					"saved_object_attributes" : 					{
						"fontname" : "Arial",
						"default_fontface" : 0,
						"globalpatchername" : "",
						"fontface" : 0,
						"default_fontname" : "Arial",
						"fontsize" : 12.0,
						"default_fontsize" : 12.0
					}

				}

			}
, 			{
				"box" : 				{
					"maxclass" : "newobj",
					"text" : "p sw",
					"id" : "obj-38",
					"fontname" : "Arial",
					"outlettype" : [ "" ],
					"fontsize" : 9.0,
					"patching_rect" : [ 372.0, 489.0, 31.0, 17.0 ],
					"numinlets" : 2,
					"numoutlets" : 1,
					"patcher" : 					{
						"fileversion" : 1,
						"rect" : [ 14.0, 59.0, 600.0, 426.0 ],
						"bglocked" : 0,
						"defrect" : [ 14.0, 59.0, 600.0, 426.0 ],
						"openrect" : [ 0.0, 0.0, 0.0, 0.0 ],
						"openinpresentation" : 0,
						"default_fontsize" : 12.0,
						"default_fontface" : 0,
						"default_fontname" : "Arial",
						"gridonopen" : 0,
						"gridsize" : [ 15.0, 15.0 ],
						"gridsnaponopen" : 0,
						"toolbarvisible" : 1,
						"boxanimatetime" : 200,
						"imprint" : 0,
						"boxes" : [ 							{
								"box" : 								{
									"maxclass" : "newobj",
									"text" : "t b i",
									"id" : "obj-1",
									"fontname" : "Arial",
									"outlettype" : [ "bang", "int" ],
									"fontsize" : 9.0,
									"patching_rect" : [ 194.0, 102.0, 27.0, 17.0 ],
									"numinlets" : 1,
									"numoutlets" : 2
								}

							}
, 							{
								"box" : 								{
									"maxclass" : "newobj",
									"text" : "float",
									"id" : "obj-2",
									"fontname" : "Arial",
									"outlettype" : [ "float" ],
									"fontsize" : 9.0,
									"patching_rect" : [ 127.0, 136.0, 31.0, 17.0 ],
									"numinlets" : 2,
									"numoutlets" : 1
								}

							}
, 							{
								"box" : 								{
									"maxclass" : "newobj",
									"text" : "+ 1",
									"id" : "obj-3",
									"fontname" : "Arial",
									"outlettype" : [ "int" ],
									"fontsize" : 9.0,
									"patching_rect" : [ 214.0, 127.0, 27.0, 17.0 ],
									"numinlets" : 2,
									"numoutlets" : 1
								}

							}
, 							{
								"box" : 								{
									"maxclass" : "newobj",
									"text" : "gate 2 1",
									"id" : "obj-4",
									"fontname" : "Arial",
									"outlettype" : [ "", "" ],
									"fontsize" : 9.0,
									"patching_rect" : [ 120.0, 181.0, 47.0, 17.0 ],
									"numinlets" : 2,
									"numoutlets" : 2
								}

							}
, 							{
								"box" : 								{
									"maxclass" : "newobj",
									"text" : "mtof",
									"id" : "obj-5",
									"fontname" : "Arial",
									"outlettype" : [ "" ],
									"fontsize" : 9.0,
									"patching_rect" : [ 157.0, 241.0, 31.0, 17.0 ],
									"numinlets" : 1,
									"numoutlets" : 1
								}

							}
, 							{
								"box" : 								{
									"maxclass" : "newobj",
									"text" : "ftom",
									"id" : "obj-6",
									"fontname" : "Arial",
									"outlettype" : [ "" ],
									"fontsize" : 9.0,
									"patching_rect" : [ 157.0, 213.0, 31.0, 17.0 ],
									"numinlets" : 1,
									"numoutlets" : 1
								}

							}
, 							{
								"box" : 								{
									"maxclass" : "inlet",
									"id" : "obj-7",
									"outlettype" : [ "int" ],
									"patching_rect" : [ 212.0, 58.0, 15.0, 15.0 ],
									"numinlets" : 0,
									"numoutlets" : 1,
									"comment" : ""
								}

							}
, 							{
								"box" : 								{
									"maxclass" : "inlet",
									"id" : "obj-8",
									"outlettype" : [ "float" ],
									"patching_rect" : [ 137.0, 60.0, 15.0, 15.0 ],
									"numinlets" : 0,
									"numoutlets" : 1,
									"comment" : ""
								}

							}
, 							{
								"box" : 								{
									"maxclass" : "outlet",
									"id" : "obj-9",
									"patching_rect" : [ 139.0, 323.0, 15.0, 15.0 ],
									"numinlets" : 1,
									"numoutlets" : 0,
									"comment" : ""
								}

							}
 ],
						"lines" : [ 							{
								"patchline" : 								{
									"source" : [ "obj-1", 1 ],
									"destination" : [ "obj-3", 0 ],
									"hidden" : 0,
									"midpoints" : [  ]
								}

							}
, 							{
								"patchline" : 								{
									"source" : [ "obj-7", 0 ],
									"destination" : [ "obj-1", 0 ],
									"hidden" : 0,
									"midpoints" : [  ]
								}

							}
, 							{
								"patchline" : 								{
									"source" : [ "obj-6", 0 ],
									"destination" : [ "obj-5", 0 ],
									"hidden" : 0,
									"midpoints" : [  ]
								}

							}
, 							{
								"patchline" : 								{
									"source" : [ "obj-4", 1 ],
									"destination" : [ "obj-6", 0 ],
									"hidden" : 0,
									"midpoints" : [  ]
								}

							}
, 							{
								"patchline" : 								{
									"source" : [ "obj-2", 0 ],
									"destination" : [ "obj-4", 1 ],
									"hidden" : 0,
									"midpoints" : [  ]
								}

							}
, 							{
								"patchline" : 								{
									"source" : [ "obj-5", 0 ],
									"destination" : [ "obj-9", 0 ],
									"hidden" : 0,
									"midpoints" : [  ]
								}

							}
, 							{
								"patchline" : 								{
									"source" : [ "obj-4", 0 ],
									"destination" : [ "obj-9", 0 ],
									"hidden" : 0,
									"midpoints" : [  ]
								}

							}
, 							{
								"patchline" : 								{
									"source" : [ "obj-1", 0 ],
									"destination" : [ "obj-2", 0 ],
									"hidden" : 0,
									"midpoints" : [  ]
								}

							}
, 							{
								"patchline" : 								{
									"source" : [ "obj-8", 0 ],
									"destination" : [ "obj-2", 0 ],
									"hidden" : 0,
									"midpoints" : [  ]
								}

							}
, 							{
								"patchline" : 								{
									"source" : [ "obj-3", 0 ],
									"destination" : [ "obj-4", 0 ],
									"hidden" : 0,
									"midpoints" : [  ]
								}

							}
 ]
					}
,
					"saved_object_attributes" : 					{
						"fontname" : "Arial",
						"default_fontface" : 0,
						"globalpatchername" : "",
						"fontface" : 0,
						"default_fontname" : "Arial",
						"fontsize" : 12.0,
						"default_fontsize" : 12.0
					}

				}

			}
, 			{
				"box" : 				{
					"maxclass" : "newobj",
					"text" : "p sw",
					"id" : "obj-39",
					"fontname" : "Arial",
					"outlettype" : [ "" ],
					"fontsize" : 9.0,
					"patching_rect" : [ 280.0, 489.0, 31.0, 17.0 ],
					"numinlets" : 2,
					"numoutlets" : 1,
					"patcher" : 					{
						"fileversion" : 1,
						"rect" : [ 14.0, 59.0, 600.0, 426.0 ],
						"bglocked" : 0,
						"defrect" : [ 14.0, 59.0, 600.0, 426.0 ],
						"openrect" : [ 0.0, 0.0, 0.0, 0.0 ],
						"openinpresentation" : 0,
						"default_fontsize" : 12.0,
						"default_fontface" : 0,
						"default_fontname" : "Arial",
						"gridonopen" : 0,
						"gridsize" : [ 15.0, 15.0 ],
						"gridsnaponopen" : 0,
						"toolbarvisible" : 1,
						"boxanimatetime" : 200,
						"imprint" : 0,
						"boxes" : [ 							{
								"box" : 								{
									"maxclass" : "newobj",
									"text" : "t b i",
									"id" : "obj-1",
									"fontname" : "Arial",
									"outlettype" : [ "bang", "int" ],
									"fontsize" : 9.0,
									"patching_rect" : [ 194.0, 102.0, 27.0, 17.0 ],
									"numinlets" : 1,
									"numoutlets" : 2
								}

							}
, 							{
								"box" : 								{
									"maxclass" : "newobj",
									"text" : "float",
									"id" : "obj-2",
									"fontname" : "Arial",
									"outlettype" : [ "float" ],
									"fontsize" : 9.0,
									"patching_rect" : [ 127.0, 136.0, 31.0, 17.0 ],
									"numinlets" : 2,
									"numoutlets" : 1
								}

							}
, 							{
								"box" : 								{
									"maxclass" : "newobj",
									"text" : "+ 1",
									"id" : "obj-3",
									"fontname" : "Arial",
									"outlettype" : [ "int" ],
									"fontsize" : 9.0,
									"patching_rect" : [ 214.0, 127.0, 27.0, 17.0 ],
									"numinlets" : 2,
									"numoutlets" : 1
								}

							}
, 							{
								"box" : 								{
									"maxclass" : "newobj",
									"text" : "gate 2 1",
									"id" : "obj-4",
									"fontname" : "Arial",
									"outlettype" : [ "", "" ],
									"fontsize" : 9.0,
									"patching_rect" : [ 120.0, 181.0, 47.0, 17.0 ],
									"numinlets" : 2,
									"numoutlets" : 2
								}

							}
, 							{
								"box" : 								{
									"maxclass" : "newobj",
									"text" : "mtof",
									"id" : "obj-5",
									"fontname" : "Arial",
									"outlettype" : [ "" ],
									"fontsize" : 9.0,
									"patching_rect" : [ 178.0, 247.0, 31.0, 17.0 ],
									"numinlets" : 1,
									"numoutlets" : 1
								}

							}
, 							{
								"box" : 								{
									"maxclass" : "newobj",
									"text" : "ftom",
									"id" : "obj-6",
									"fontname" : "Arial",
									"outlettype" : [ "" ],
									"fontsize" : 9.0,
									"patching_rect" : [ 178.0, 219.0, 31.0, 17.0 ],
									"numinlets" : 1,
									"numoutlets" : 1
								}

							}
, 							{
								"box" : 								{
									"maxclass" : "inlet",
									"id" : "obj-7",
									"outlettype" : [ "int" ],
									"patching_rect" : [ 212.0, 58.0, 15.0, 15.0 ],
									"numinlets" : 0,
									"numoutlets" : 1,
									"comment" : ""
								}

							}
, 							{
								"box" : 								{
									"maxclass" : "inlet",
									"id" : "obj-8",
									"outlettype" : [ "float" ],
									"patching_rect" : [ 137.0, 60.0, 15.0, 15.0 ],
									"numinlets" : 0,
									"numoutlets" : 1,
									"comment" : ""
								}

							}
, 							{
								"box" : 								{
									"maxclass" : "outlet",
									"id" : "obj-9",
									"patching_rect" : [ 139.0, 323.0, 15.0, 15.0 ],
									"numinlets" : 1,
									"numoutlets" : 0,
									"comment" : ""
								}

							}
 ],
						"lines" : [ 							{
								"patchline" : 								{
									"source" : [ "obj-1", 1 ],
									"destination" : [ "obj-3", 0 ],
									"hidden" : 0,
									"midpoints" : [  ]
								}

							}
, 							{
								"patchline" : 								{
									"source" : [ "obj-7", 0 ],
									"destination" : [ "obj-1", 0 ],
									"hidden" : 0,
									"midpoints" : [  ]
								}

							}
, 							{
								"patchline" : 								{
									"source" : [ "obj-6", 0 ],
									"destination" : [ "obj-5", 0 ],
									"hidden" : 0,
									"midpoints" : [  ]
								}

							}
, 							{
								"patchline" : 								{
									"source" : [ "obj-4", 1 ],
									"destination" : [ "obj-6", 0 ],
									"hidden" : 0,
									"midpoints" : [  ]
								}

							}
, 							{
								"patchline" : 								{
									"source" : [ "obj-2", 0 ],
									"destination" : [ "obj-4", 1 ],
									"hidden" : 0,
									"midpoints" : [  ]
								}

							}
, 							{
								"patchline" : 								{
									"source" : [ "obj-4", 0 ],
									"destination" : [ "obj-9", 0 ],
									"hidden" : 0,
									"midpoints" : [  ]
								}

							}
, 							{
								"patchline" : 								{
									"source" : [ "obj-5", 0 ],
									"destination" : [ "obj-9", 0 ],
									"hidden" : 0,
									"midpoints" : [  ]
								}

							}
, 							{
								"patchline" : 								{
									"source" : [ "obj-8", 0 ],
									"destination" : [ "obj-2", 0 ],
									"hidden" : 0,
									"midpoints" : [  ]
								}

							}
, 							{
								"patchline" : 								{
									"source" : [ "obj-1", 0 ],
									"destination" : [ "obj-2", 0 ],
									"hidden" : 0,
									"midpoints" : [  ]
								}

							}
, 							{
								"patchline" : 								{
									"source" : [ "obj-3", 0 ],
									"destination" : [ "obj-4", 0 ],
									"hidden" : 0,
									"midpoints" : [  ]
								}

							}
 ]
					}
,
					"saved_object_attributes" : 					{
						"fontname" : "Arial",
						"default_fontface" : 0,
						"globalpatchername" : "",
						"fontface" : 0,
						"default_fontname" : "Arial",
						"fontsize" : 12.0,
						"default_fontsize" : 12.0
					}

				}

			}
, 			{
				"box" : 				{
					"maxclass" : "newobj",
					"text" : "p sw",
					"id" : "obj-40",
					"fontname" : "Arial",
					"outlettype" : [ "" ],
					"fontsize" : 9.0,
					"patching_rect" : [ 188.0, 489.0, 31.0, 17.0 ],
					"numinlets" : 2,
					"numoutlets" : 1,
					"patcher" : 					{
						"fileversion" : 1,
						"rect" : [ 14.0, 59.0, 600.0, 426.0 ],
						"bglocked" : 0,
						"defrect" : [ 14.0, 59.0, 600.0, 426.0 ],
						"openrect" : [ 0.0, 0.0, 0.0, 0.0 ],
						"openinpresentation" : 0,
						"default_fontsize" : 12.0,
						"default_fontface" : 0,
						"default_fontname" : "Arial",
						"gridonopen" : 0,
						"gridsize" : [ 15.0, 15.0 ],
						"gridsnaponopen" : 0,
						"toolbarvisible" : 1,
						"boxanimatetime" : 200,
						"imprint" : 0,
						"boxes" : [ 							{
								"box" : 								{
									"maxclass" : "newobj",
									"text" : "t b i",
									"id" : "obj-1",
									"fontname" : "Arial",
									"outlettype" : [ "bang", "int" ],
									"fontsize" : 9.0,
									"patching_rect" : [ 194.0, 102.0, 27.0, 17.0 ],
									"numinlets" : 1,
									"numoutlets" : 2
								}

							}
, 							{
								"box" : 								{
									"maxclass" : "newobj",
									"text" : "float",
									"id" : "obj-2",
									"fontname" : "Arial",
									"outlettype" : [ "float" ],
									"fontsize" : 9.0,
									"patching_rect" : [ 127.0, 136.0, 31.0, 17.0 ],
									"numinlets" : 2,
									"numoutlets" : 1
								}

							}
, 							{
								"box" : 								{
									"maxclass" : "newobj",
									"text" : "+ 1",
									"id" : "obj-3",
									"fontname" : "Arial",
									"outlettype" : [ "int" ],
									"fontsize" : 9.0,
									"patching_rect" : [ 214.0, 127.0, 27.0, 17.0 ],
									"numinlets" : 2,
									"numoutlets" : 1
								}

							}
, 							{
								"box" : 								{
									"maxclass" : "newobj",
									"text" : "gate 2 1",
									"id" : "obj-4",
									"fontname" : "Arial",
									"outlettype" : [ "", "" ],
									"fontsize" : 9.0,
									"patching_rect" : [ 120.0, 181.0, 47.0, 17.0 ],
									"numinlets" : 2,
									"numoutlets" : 2
								}

							}
, 							{
								"box" : 								{
									"maxclass" : "newobj",
									"text" : "mtof",
									"id" : "obj-5",
									"fontname" : "Arial",
									"outlettype" : [ "" ],
									"fontsize" : 9.0,
									"patching_rect" : [ 178.0, 247.0, 31.0, 17.0 ],
									"numinlets" : 1,
									"numoutlets" : 1
								}

							}
, 							{
								"box" : 								{
									"maxclass" : "newobj",
									"text" : "ftom",
									"id" : "obj-6",
									"fontname" : "Arial",
									"outlettype" : [ "" ],
									"fontsize" : 9.0,
									"patching_rect" : [ 178.0, 219.0, 31.0, 17.0 ],
									"numinlets" : 1,
									"numoutlets" : 1
								}

							}
, 							{
								"box" : 								{
									"maxclass" : "inlet",
									"id" : "obj-7",
									"outlettype" : [ "int" ],
									"patching_rect" : [ 212.0, 58.0, 15.0, 15.0 ],
									"numinlets" : 0,
									"numoutlets" : 1,
									"comment" : ""
								}

							}
, 							{
								"box" : 								{
									"maxclass" : "inlet",
									"id" : "obj-8",
									"outlettype" : [ "float" ],
									"patching_rect" : [ 137.0, 60.0, 15.0, 15.0 ],
									"numinlets" : 0,
									"numoutlets" : 1,
									"comment" : ""
								}

							}
, 							{
								"box" : 								{
									"maxclass" : "outlet",
									"id" : "obj-9",
									"patching_rect" : [ 139.0, 323.0, 15.0, 15.0 ],
									"numinlets" : 1,
									"numoutlets" : 0,
									"comment" : ""
								}

							}
 ],
						"lines" : [ 							{
								"patchline" : 								{
									"source" : [ "obj-1", 1 ],
									"destination" : [ "obj-3", 0 ],
									"hidden" : 0,
									"midpoints" : [  ]
								}

							}
, 							{
								"patchline" : 								{
									"source" : [ "obj-7", 0 ],
									"destination" : [ "obj-1", 0 ],
									"hidden" : 0,
									"midpoints" : [  ]
								}

							}
, 							{
								"patchline" : 								{
									"source" : [ "obj-6", 0 ],
									"destination" : [ "obj-5", 0 ],
									"hidden" : 0,
									"midpoints" : [  ]
								}

							}
, 							{
								"patchline" : 								{
									"source" : [ "obj-4", 1 ],
									"destination" : [ "obj-6", 0 ],
									"hidden" : 0,
									"midpoints" : [  ]
								}

							}
, 							{
								"patchline" : 								{
									"source" : [ "obj-2", 0 ],
									"destination" : [ "obj-4", 1 ],
									"hidden" : 0,
									"midpoints" : [  ]
								}

							}
, 							{
								"patchline" : 								{
									"source" : [ "obj-5", 0 ],
									"destination" : [ "obj-9", 0 ],
									"hidden" : 0,
									"midpoints" : [  ]
								}

							}
, 							{
								"patchline" : 								{
									"source" : [ "obj-4", 0 ],
									"destination" : [ "obj-9", 0 ],
									"hidden" : 0,
									"midpoints" : [  ]
								}

							}
, 							{
								"patchline" : 								{
									"source" : [ "obj-1", 0 ],
									"destination" : [ "obj-2", 0 ],
									"hidden" : 0,
									"midpoints" : [  ]
								}

							}
, 							{
								"patchline" : 								{
									"source" : [ "obj-8", 0 ],
									"destination" : [ "obj-2", 0 ],
									"hidden" : 0,
									"midpoints" : [  ]
								}

							}
, 							{
								"patchline" : 								{
									"source" : [ "obj-3", 0 ],
									"destination" : [ "obj-4", 0 ],
									"hidden" : 0,
									"midpoints" : [  ]
								}

							}
 ]
					}
,
					"saved_object_attributes" : 					{
						"fontname" : "Arial",
						"default_fontface" : 0,
						"globalpatchername" : "",
						"fontface" : 0,
						"default_fontname" : "Arial",
						"fontsize" : 12.0,
						"default_fontsize" : 12.0
					}

				}

			}
, 			{
				"box" : 				{
					"maxclass" : "toggle",
					"id" : "obj-41",
					"outlettype" : [ "int" ],
					"patching_rect" : [ 393.0, 462.0, 14.0, 14.0 ],
					"numinlets" : 1,
					"numoutlets" : 1
				}

			}
, 			{
				"box" : 				{
					"maxclass" : "newobj",
					"text" : "p sw",
					"id" : "obj-42",
					"fontname" : "Arial",
					"outlettype" : [ "" ],
					"fontsize" : 9.0,
					"patching_rect" : [ 96.0, 489.0, 31.0, 17.0 ],
					"numinlets" : 2,
					"numoutlets" : 1,
					"patcher" : 					{
						"fileversion" : 1,
						"rect" : [ 14.0, 59.0, 600.0, 426.0 ],
						"bglocked" : 0,
						"defrect" : [ 14.0, 59.0, 600.0, 426.0 ],
						"openrect" : [ 0.0, 0.0, 0.0, 0.0 ],
						"openinpresentation" : 0,
						"default_fontsize" : 12.0,
						"default_fontface" : 0,
						"default_fontname" : "Arial",
						"gridonopen" : 0,
						"gridsize" : [ 15.0, 15.0 ],
						"gridsnaponopen" : 0,
						"toolbarvisible" : 1,
						"boxanimatetime" : 200,
						"imprint" : 0,
						"boxes" : [ 							{
								"box" : 								{
									"maxclass" : "newobj",
									"text" : "t b i",
									"id" : "obj-1",
									"fontname" : "Arial",
									"outlettype" : [ "bang", "int" ],
									"fontsize" : 9.0,
									"patching_rect" : [ 194.0, 102.0, 27.0, 17.0 ],
									"numinlets" : 1,
									"numoutlets" : 2
								}

							}
, 							{
								"box" : 								{
									"maxclass" : "newobj",
									"text" : "float",
									"id" : "obj-2",
									"fontname" : "Arial",
									"outlettype" : [ "float" ],
									"fontsize" : 9.0,
									"patching_rect" : [ 127.0, 136.0, 31.0, 17.0 ],
									"numinlets" : 2,
									"numoutlets" : 1
								}

							}
, 							{
								"box" : 								{
									"maxclass" : "newobj",
									"text" : "+ 1",
									"id" : "obj-3",
									"fontname" : "Arial",
									"outlettype" : [ "int" ],
									"fontsize" : 9.0,
									"patching_rect" : [ 214.0, 127.0, 27.0, 17.0 ],
									"numinlets" : 2,
									"numoutlets" : 1
								}

							}
, 							{
								"box" : 								{
									"maxclass" : "newobj",
									"text" : "gate 2 1",
									"id" : "obj-4",
									"fontname" : "Arial",
									"outlettype" : [ "", "" ],
									"fontsize" : 9.0,
									"patching_rect" : [ 120.0, 181.0, 47.0, 17.0 ],
									"numinlets" : 2,
									"numoutlets" : 2
								}

							}
, 							{
								"box" : 								{
									"maxclass" : "newobj",
									"text" : "mtof",
									"id" : "obj-5",
									"fontname" : "Arial",
									"outlettype" : [ "" ],
									"fontsize" : 9.0,
									"patching_rect" : [ 178.0, 247.0, 31.0, 17.0 ],
									"numinlets" : 1,
									"numoutlets" : 1
								}

							}
, 							{
								"box" : 								{
									"maxclass" : "newobj",
									"text" : "ftom",
									"id" : "obj-6",
									"fontname" : "Arial",
									"outlettype" : [ "" ],
									"fontsize" : 9.0,
									"patching_rect" : [ 178.0, 219.0, 31.0, 17.0 ],
									"numinlets" : 1,
									"numoutlets" : 1
								}

							}
, 							{
								"box" : 								{
									"maxclass" : "inlet",
									"id" : "obj-7",
									"outlettype" : [ "int" ],
									"patching_rect" : [ 212.0, 58.0, 15.0, 15.0 ],
									"numinlets" : 0,
									"numoutlets" : 1,
									"comment" : ""
								}

							}
, 							{
								"box" : 								{
									"maxclass" : "inlet",
									"id" : "obj-8",
									"outlettype" : [ "float" ],
									"patching_rect" : [ 137.0, 60.0, 15.0, 15.0 ],
									"numinlets" : 0,
									"numoutlets" : 1,
									"comment" : ""
								}

							}
, 							{
								"box" : 								{
									"maxclass" : "outlet",
									"id" : "obj-9",
									"patching_rect" : [ 139.0, 323.0, 15.0, 15.0 ],
									"numinlets" : 1,
									"numoutlets" : 0,
									"comment" : ""
								}

							}
 ],
						"lines" : [ 							{
								"patchline" : 								{
									"source" : [ "obj-1", 1 ],
									"destination" : [ "obj-3", 0 ],
									"hidden" : 0,
									"midpoints" : [  ]
								}

							}
, 							{
								"patchline" : 								{
									"source" : [ "obj-7", 0 ],
									"destination" : [ "obj-1", 0 ],
									"hidden" : 0,
									"midpoints" : [  ]
								}

							}
, 							{
								"patchline" : 								{
									"source" : [ "obj-6", 0 ],
									"destination" : [ "obj-5", 0 ],
									"hidden" : 0,
									"midpoints" : [  ]
								}

							}
, 							{
								"patchline" : 								{
									"source" : [ "obj-4", 1 ],
									"destination" : [ "obj-6", 0 ],
									"hidden" : 0,
									"midpoints" : [  ]
								}

							}
, 							{
								"patchline" : 								{
									"source" : [ "obj-2", 0 ],
									"destination" : [ "obj-4", 1 ],
									"hidden" : 0,
									"midpoints" : [  ]
								}

							}
, 							{
								"patchline" : 								{
									"source" : [ "obj-4", 0 ],
									"destination" : [ "obj-9", 0 ],
									"hidden" : 0,
									"midpoints" : [  ]
								}

							}
, 							{
								"patchline" : 								{
									"source" : [ "obj-5", 0 ],
									"destination" : [ "obj-9", 0 ],
									"hidden" : 0,
									"midpoints" : [  ]
								}

							}
, 							{
								"patchline" : 								{
									"source" : [ "obj-8", 0 ],
									"destination" : [ "obj-2", 0 ],
									"hidden" : 0,
									"midpoints" : [  ]
								}

							}
, 							{
								"patchline" : 								{
									"source" : [ "obj-1", 0 ],
									"destination" : [ "obj-2", 0 ],
									"hidden" : 0,
									"midpoints" : [  ]
								}

							}
, 							{
								"patchline" : 								{
									"source" : [ "obj-3", 0 ],
									"destination" : [ "obj-4", 0 ],
									"hidden" : 0,
									"midpoints" : [  ]
								}

							}
 ]
					}
,
					"saved_object_attributes" : 					{
						"fontname" : "Arial",
						"default_fontface" : 0,
						"globalpatchername" : "",
						"fontface" : 0,
						"default_fontname" : "Arial",
						"fontsize" : 12.0,
						"default_fontsize" : 12.0
					}

				}

			}
, 			{
				"box" : 				{
					"maxclass" : "newobj",
					"text" : "lv",
					"id" : "obj-43",
					"fontname" : "Arial",
					"fontsize" : 9.0,
					"patching_rect" : [ 372.0, 551.0, 27.0, 17.0 ],
					"numinlets" : 2,
					"numoutlets" : 0
				}

			}
, 			{
				"box" : 				{
					"maxclass" : "newobj",
					"text" : "lv",
					"id" : "obj-44",
					"fontname" : "Arial",
					"fontsize" : 9.0,
					"patching_rect" : [ 280.0, 551.0, 27.0, 17.0 ],
					"numinlets" : 2,
					"numoutlets" : 0
				}

			}
, 			{
				"box" : 				{
					"maxclass" : "newobj",
					"text" : "lv",
					"id" : "obj-45",
					"fontname" : "Arial",
					"fontsize" : 9.0,
					"patching_rect" : [ 188.0, 551.0, 27.0, 17.0 ],
					"numinlets" : 2,
					"numoutlets" : 0
				}

			}
, 			{
				"box" : 				{
					"maxclass" : "newobj",
					"text" : "unpack 0. 0. 0. 0.",
					"id" : "obj-46",
					"fontname" : "Arial",
					"outlettype" : [ "float", "float", "float", "float" ],
					"fontsize" : 9.0,
					"patching_rect" : [ 96.0, 460.0, 286.0, 17.0 ],
					"numinlets" : 1,
					"numoutlets" : 4
				}

			}
, 			{
				"box" : 				{
					"maxclass" : "gain~",
					"id" : "obj-47",
					"outlettype" : [ "signal", "int" ],
					"patching_rect" : [ 510.0, 463.0, 22.0, 122.0 ],
					"numinlets" : 2,
					"orientation" : 2,
					"numoutlets" : 2
				}

			}
, 			{
				"box" : 				{
					"maxclass" : "newobj",
					"text" : "lv",
					"id" : "obj-48",
					"fontname" : "Arial",
					"fontsize" : 9.0,
					"patching_rect" : [ 96.0, 551.0, 27.0, 17.0 ],
					"numinlets" : 2,
					"numoutlets" : 0
				}

			}
, 			{
				"box" : 				{
					"maxclass" : "jsui",
					"id" : "obj-49",
					"outlettype" : [ "" ],
					"patching_rect" : [ 96.0, 131.0, 325.0, 325.0 ],
					"filename" : "lattice.js",
					"numinlets" : 1,
					"numoutlets" : 1,
					"jsarguments" : [  ]
				}

			}
, 			{
				"box" : 				{
					"maxclass" : "comment",
					"text" : "just intonation lattice",
					"id" : "obj-50",
					"fontname" : "Arial",
					"frgb" : [ 0.0, 0.0, 0.0, 1.0 ],
					"fontsize" : 18.0,
					"patching_rect" : [ 48.0, 21.0, 201.0, 27.0 ],
					"numinlets" : 1,
					"numoutlets" : 0
				}

			}
, 			{
				"box" : 				{
					"maxclass" : "comment",
					"text" : "on/off",
					"id" : "obj-51",
					"fontname" : "Arial",
					"frgb" : [ 0.0, 0.0, 0.0, 1.0 ],
					"fontsize" : 9.0,
					"patching_rect" : [ 406.0, 533.0, 38.0, 17.0 ],
					"numinlets" : 1,
					"numoutlets" : 0
				}

			}
 ],
		"lines" : [ 			{
				"patchline" : 				{
					"source" : [ "obj-47", 0 ],
					"destination" : [ "obj-27", 1 ],
					"hidden" : 0,
					"midpoints" : [  ]
				}

			}
, 			{
				"patchline" : 				{
					"source" : [ "obj-26", 0 ],
					"destination" : [ "obj-25", 1 ],
					"hidden" : 0,
					"midpoints" : [  ]
				}

			}
, 			{
				"patchline" : 				{
					"source" : [ "obj-2", 0 ],
					"destination" : [ "obj-27", 0 ],
					"hidden" : 0,
					"midpoints" : [  ]
				}

			}
, 			{
				"patchline" : 				{
					"source" : [ "obj-47", 0 ],
					"destination" : [ "obj-27", 0 ],
					"hidden" : 0,
					"midpoints" : [  ]
				}

			}
, 			{
				"patchline" : 				{
					"source" : [ "obj-25", 0 ],
					"destination" : [ "obj-47", 0 ],
					"hidden" : 0,
					"midpoints" : [  ]
				}

			}
, 			{
				"patchline" : 				{
					"source" : [ "obj-29", 0 ],
					"destination" : [ "obj-25", 0 ],
					"hidden" : 0,
					"midpoints" : [  ]
				}

			}
, 			{
				"patchline" : 				{
					"source" : [ "obj-41", 0 ],
					"destination" : [ "obj-38", 1 ],
					"hidden" : 0,
					"midpoints" : [ 401.0, 483.0, 393.5, 483.0 ]
				}

			}
, 			{
				"patchline" : 				{
					"source" : [ "obj-24", 0 ],
					"destination" : [ "obj-43", 1 ],
					"hidden" : 0,
					"midpoints" : [  ]
				}

			}
, 			{
				"patchline" : 				{
					"source" : [ "obj-32", 0 ],
					"destination" : [ "obj-43", 0 ],
					"hidden" : 0,
					"midpoints" : [  ]
				}

			}
, 			{
				"patchline" : 				{
					"source" : [ "obj-38", 0 ],
					"destination" : [ "obj-32", 0 ],
					"hidden" : 0,
					"midpoints" : [  ]
				}

			}
, 			{
				"patchline" : 				{
					"source" : [ "obj-46", 3 ],
					"destination" : [ "obj-38", 0 ],
					"hidden" : 0,
					"midpoints" : [  ]
				}

			}
, 			{
				"patchline" : 				{
					"source" : [ "obj-9", 0 ],
					"destination" : [ "obj-6", 7 ],
					"hidden" : 0,
					"midpoints" : [  ]
				}

			}
, 			{
				"patchline" : 				{
					"source" : [ "obj-32", 0 ],
					"destination" : [ "obj-9", 0 ],
					"hidden" : 0,
					"midpoints" : [  ]
				}

			}
, 			{
				"patchline" : 				{
					"source" : [ "obj-41", 0 ],
					"destination" : [ "obj-39", 1 ],
					"hidden" : 0,
					"midpoints" : [ 401.0, 483.0, 301.5, 483.0 ]
				}

			}
, 			{
				"patchline" : 				{
					"source" : [ "obj-23", 0 ],
					"destination" : [ "obj-44", 1 ],
					"hidden" : 0,
					"midpoints" : [  ]
				}

			}
, 			{
				"patchline" : 				{
					"source" : [ "obj-33", 0 ],
					"destination" : [ "obj-44", 0 ],
					"hidden" : 0,
					"midpoints" : [  ]
				}

			}
, 			{
				"patchline" : 				{
					"source" : [ "obj-39", 0 ],
					"destination" : [ "obj-33", 0 ],
					"hidden" : 0,
					"midpoints" : [  ]
				}

			}
, 			{
				"patchline" : 				{
					"source" : [ "obj-46", 2 ],
					"destination" : [ "obj-39", 0 ],
					"hidden" : 0,
					"midpoints" : [  ]
				}

			}
, 			{
				"patchline" : 				{
					"source" : [ "obj-8", 0 ],
					"destination" : [ "obj-6", 5 ],
					"hidden" : 0,
					"midpoints" : [  ]
				}

			}
, 			{
				"patchline" : 				{
					"source" : [ "obj-33", 0 ],
					"destination" : [ "obj-8", 0 ],
					"hidden" : 0,
					"midpoints" : [  ]
				}

			}
, 			{
				"patchline" : 				{
					"source" : [ "obj-41", 0 ],
					"destination" : [ "obj-40", 1 ],
					"hidden" : 0,
					"midpoints" : [ 401.0, 483.0, 209.5, 483.0 ]
				}

			}
, 			{
				"patchline" : 				{
					"source" : [ "obj-22", 0 ],
					"destination" : [ "obj-45", 1 ],
					"hidden" : 0,
					"midpoints" : [  ]
				}

			}
, 			{
				"patchline" : 				{
					"source" : [ "obj-34", 0 ],
					"destination" : [ "obj-45", 0 ],
					"hidden" : 0,
					"midpoints" : [  ]
				}

			}
, 			{
				"patchline" : 				{
					"source" : [ "obj-40", 0 ],
					"destination" : [ "obj-34", 0 ],
					"hidden" : 0,
					"midpoints" : [  ]
				}

			}
, 			{
				"patchline" : 				{
					"source" : [ "obj-46", 1 ],
					"destination" : [ "obj-40", 0 ],
					"hidden" : 0,
					"midpoints" : [  ]
				}

			}
, 			{
				"patchline" : 				{
					"source" : [ "obj-30", 0 ],
					"destination" : [ "obj-31", 0 ],
					"hidden" : 0,
					"midpoints" : [  ]
				}

			}
, 			{
				"patchline" : 				{
					"source" : [ "obj-7", 0 ],
					"destination" : [ "obj-6", 3 ],
					"hidden" : 0,
					"midpoints" : [  ]
				}

			}
, 			{
				"patchline" : 				{
					"source" : [ "obj-34", 0 ],
					"destination" : [ "obj-7", 0 ],
					"hidden" : 0,
					"midpoints" : [  ]
				}

			}
, 			{
				"patchline" : 				{
					"source" : [ "obj-41", 0 ],
					"destination" : [ "obj-42", 1 ],
					"hidden" : 0,
					"midpoints" : [ 401.0, 483.0, 117.5, 483.0 ]
				}

			}
, 			{
				"patchline" : 				{
					"source" : [ "obj-28", 0 ],
					"destination" : [ "obj-48", 1 ],
					"hidden" : 0,
					"midpoints" : [  ]
				}

			}
, 			{
				"patchline" : 				{
					"source" : [ "obj-35", 0 ],
					"destination" : [ "obj-48", 0 ],
					"hidden" : 0,
					"midpoints" : [  ]
				}

			}
, 			{
				"patchline" : 				{
					"source" : [ "obj-42", 0 ],
					"destination" : [ "obj-35", 0 ],
					"hidden" : 0,
					"midpoints" : [  ]
				}

			}
, 			{
				"patchline" : 				{
					"source" : [ "obj-46", 0 ],
					"destination" : [ "obj-42", 0 ],
					"hidden" : 0,
					"midpoints" : [  ]
				}

			}
, 			{
				"patchline" : 				{
					"source" : [ "obj-49", 0 ],
					"destination" : [ "obj-46", 0 ],
					"hidden" : 0,
					"midpoints" : [  ]
				}

			}
, 			{
				"patchline" : 				{
					"source" : [ "obj-37", 0 ],
					"destination" : [ "obj-49", 0 ],
					"hidden" : 0,
					"midpoints" : [ 105.5, 121.0, 105.5, 121.0 ]
				}

			}
, 			{
				"patchline" : 				{
					"source" : [ "obj-31", 0 ],
					"destination" : [ "obj-49", 0 ],
					"hidden" : 0,
					"midpoints" : [ 188.5, 123.0, 105.5, 123.0 ]
				}

			}
, 			{
				"patchline" : 				{
					"source" : [ "obj-21", 0 ],
					"destination" : [ "obj-49", 0 ],
					"hidden" : 0,
					"midpoints" : [ 251.5, 123.0, 105.5, 123.0 ]
				}

			}
, 			{
				"patchline" : 				{
					"source" : [ "obj-36", 0 ],
					"destination" : [ "obj-37", 0 ],
					"hidden" : 0,
					"midpoints" : [  ]
				}

			}
, 			{
				"patchline" : 				{
					"source" : [ "obj-4", 0 ],
					"destination" : [ "obj-6", 1 ],
					"hidden" : 0,
					"midpoints" : [  ]
				}

			}
, 			{
				"patchline" : 				{
					"source" : [ "obj-35", 0 ],
					"destination" : [ "obj-4", 0 ],
					"hidden" : 0,
					"midpoints" : [  ]
				}

			}
, 			{
				"patchline" : 				{
					"source" : [ "obj-6", 0 ],
					"destination" : [ "obj-10", 0 ],
					"hidden" : 0,
					"midpoints" : [  ]
				}

			}
, 			{
				"patchline" : 				{
					"source" : [ "obj-5", 0 ],
					"destination" : [ "obj-6", 0 ],
					"hidden" : 0,
					"midpoints" : [  ]
				}

			}
, 			{
				"patchline" : 				{
					"source" : [ "obj-35", 0 ],
					"destination" : [ "obj-5", 0 ],
					"hidden" : 0,
					"midpoints" : [  ]
				}

			}
 ]
	}

}
