{
	"patcher" : 	{
		"fileversion" : 1,
		"rect" : [ 413.0, 197.0, 625.0, 606.0 ],
		"bgcolor" : [ 0.870588, 0.929412, 1.0, 1.0 ],
		"bglocked" : 0,
		"defrect" : [ 413.0, 197.0, 625.0, 606.0 ],
		"openrect" : [ 0.0, 0.0, 0.0, 0.0 ],
		"openinpresentation" : 0,
		"default_fontsize" : 12.0,
		"default_fontface" : 0,
		"default_fontname" : "Arial",
		"gridonopen" : 0,
		"gridsize" : [ 15.0, 15.0 ],
		"gridsnaponopen" : 0,
		"toolbarvisible" : 1,
		"boxanimatetime" : 200,
		"imprint" : 0,
		"boxes" : [ 			{
				"box" : 				{
					"maxclass" : "bpatcher",
					"prototypename" : "cnmat_badge",
					"name" : "badge.maxpat",
					"numinlets" : 0,
					"numoutlets" : 0,
					"patching_rect" : [ 310.0, 508.0, 296.0, 86.0 ],
					"id" : "obj-30",
					"args" : [ "stream-to-coll", "1.0a", "Ali Momeni", "foo", 6666 ]
				}

			}
, 			{
				"box" : 				{
					"maxclass" : "comment",
					"text" : "arg 2: starts with this index",
					"linecount" : 2,
					"numinlets" : 1,
					"fontsize" : 9.0,
					"numoutlets" : 0,
					"frgb" : [ 0.0, 0.0, 0.0, 1.0 ],
					"fontname" : "Arial",
					"patching_rect" : [ 486.0, 181.0, 103.0, 27.0 ],
					"id" : "obj-3"
				}

			}
, 			{
				"box" : 				{
					"maxclass" : "newobj",
					"text" : "int #2",
					"numinlets" : 2,
					"fontsize" : 9.0,
					"numoutlets" : 1,
					"outlettype" : [ "int" ],
					"fontname" : "Arial",
					"patching_rect" : [ 216.0, 95.0, 35.0, 17.0 ],
					"id" : "obj-4"
				}

			}
, 			{
				"box" : 				{
					"maxclass" : "newobj",
					"text" : "t 1 b",
					"numinlets" : 1,
					"fontsize" : 9.0,
					"numoutlets" : 2,
					"outlettype" : [ "int", "bang" ],
					"fontname" : "Arial",
					"patching_rect" : [ 287.0, 118.0, 29.0, 17.0 ],
					"id" : "obj-5"
				}

			}
, 			{
				"box" : 				{
					"maxclass" : "newobj",
					"text" : "int",
					"numinlets" : 2,
					"fontsize" : 9.0,
					"numoutlets" : 1,
					"outlettype" : [ "int" ],
					"fontname" : "Arial",
					"patching_rect" : [ 330.0, 319.0, 27.0, 17.0 ],
					"id" : "obj-6"
				}

			}
, 			{
				"box" : 				{
					"maxclass" : "newobj",
					"text" : "int",
					"numinlets" : 2,
					"fontsize" : 9.0,
					"numoutlets" : 1,
					"outlettype" : [ "int" ],
					"fontname" : "Arial",
					"patching_rect" : [ 347.0, 295.0, 27.0, 17.0 ],
					"id" : "obj-7"
				}

			}
, 			{
				"box" : 				{
					"maxclass" : "newobj",
					"text" : "t i i",
					"numinlets" : 1,
					"fontsize" : 9.0,
					"numoutlets" : 2,
					"outlettype" : [ "int", "int" ],
					"fontname" : "Arial",
					"patching_rect" : [ 141.0, 249.0, 27.0, 17.0 ],
					"id" : "obj-8"
				}

			}
, 			{
				"box" : 				{
					"maxclass" : "newobj",
					"text" : "t i b 2",
					"numinlets" : 1,
					"fontsize" : 9.0,
					"numoutlets" : 3,
					"outlettype" : [ "int", "bang", "int" ],
					"fontname" : "Arial",
					"patching_rect" : [ 331.0, 117.0, 40.0, 17.0 ],
					"id" : "obj-9"
				}

			}
, 			{
				"box" : 				{
					"maxclass" : "newobj",
					"text" : "prepend insert 0",
					"numinlets" : 1,
					"fontsize" : 9.0,
					"numoutlets" : 1,
					"outlettype" : [ "" ],
					"fontname" : "Arial",
					"patching_rect" : [ 158.0, 363.0, 82.0, 17.0 ],
					"id" : "obj-10"
				}

			}
, 			{
				"box" : 				{
					"maxclass" : "newobj",
					"text" : "prepend set insert",
					"numinlets" : 1,
					"fontsize" : 9.0,
					"numoutlets" : 1,
					"outlettype" : [ "" ],
					"fontname" : "Arial",
					"patching_rect" : [ 331.0, 209.0, 90.0, 17.0 ],
					"id" : "obj-11"
				}

			}
, 			{
				"box" : 				{
					"maxclass" : "newobj",
					"text" : "sel -1",
					"numinlets" : 2,
					"fontsize" : 9.0,
					"numoutlets" : 2,
					"outlettype" : [ "bang", "" ],
					"fontname" : "Arial",
					"patching_rect" : [ 306.0, 78.0, 35.0, 17.0 ],
					"id" : "obj-12"
				}

			}
, 			{
				"box" : 				{
					"maxclass" : "newobj",
					"text" : "t 1",
					"numinlets" : 1,
					"fontsize" : 9.0,
					"numoutlets" : 1,
					"outlettype" : [ "int" ],
					"fontname" : "Arial",
					"patching_rect" : [ 73.0, 290.0, 21.0, 17.0 ],
					"id" : "obj-13"
				}

			}
, 			{
				"box" : 				{
					"maxclass" : "newobj",
					"text" : "loadbang",
					"numinlets" : 1,
					"fontsize" : 9.0,
					"numoutlets" : 1,
					"outlettype" : [ "bang" ],
					"fontname" : "Arial",
					"patching_rect" : [ 73.0, 265.0, 46.0, 17.0 ],
					"id" : "obj-14"
				}

			}
, 			{
				"box" : 				{
					"maxclass" : "newobj",
					"text" : "gate 2",
					"numinlets" : 2,
					"fontsize" : 9.0,
					"numoutlets" : 2,
					"outlettype" : [ "", "" ],
					"fontname" : "Arial",
					"patching_rect" : [ 116.0, 330.0, 35.0, 17.0 ],
					"id" : "obj-15"
				}

			}
, 			{
				"box" : 				{
					"maxclass" : "inlet",
					"numinlets" : 0,
					"numoutlets" : 1,
					"outlettype" : [ "" ],
					"patching_rect" : [ 306.0, 44.0, 15.0, 15.0 ],
					"id" : "obj-16",
					"comment" : "(int) insert at this index"
				}

			}
, 			{
				"box" : 				{
					"maxclass" : "newobj",
					"text" : "t i clear",
					"numinlets" : 1,
					"fontsize" : 9.0,
					"numoutlets" : 2,
					"outlettype" : [ "int", "clear" ],
					"fontname" : "Arial",
					"patching_rect" : [ 214.0, 124.0, 45.0, 17.0 ],
					"id" : "obj-17"
				}

			}
, 			{
				"box" : 				{
					"maxclass" : "outlet",
					"numinlets" : 1,
					"numoutlets" : 0,
					"patching_rect" : [ 296.0, 365.0, 15.0, 15.0 ],
					"id" : "obj-18",
					"comment" : "(int) index"
				}

			}
, 			{
				"box" : 				{
					"maxclass" : "newobj",
					"text" : "sel 0",
					"numinlets" : 2,
					"fontsize" : 9.0,
					"numoutlets" : 2,
					"outlettype" : [ "bang", "" ],
					"fontname" : "Arial",
					"patching_rect" : [ 431.0, 140.0, 30.0, 17.0 ],
					"id" : "obj-19"
				}

			}
, 			{
				"box" : 				{
					"maxclass" : "message",
					"text" : "#1",
					"numinlets" : 2,
					"fontsize" : 9.0,
					"numoutlets" : 1,
					"outlettype" : [ "" ],
					"fontname" : "Arial",
					"patching_rect" : [ 431.0, 117.0, 50.0, 15.0 ],
					"id" : "obj-20"
				}

			}
, 			{
				"box" : 				{
					"maxclass" : "newobj",
					"text" : "loadbang",
					"numinlets" : 1,
					"fontsize" : 9.0,
					"numoutlets" : 1,
					"outlettype" : [ "bang" ],
					"fontname" : "Arial",
					"patching_rect" : [ 431.0, 92.0, 46.0, 17.0 ],
					"id" : "obj-21"
				}

			}
, 			{
				"box" : 				{
					"maxclass" : "inlet",
					"numinlets" : 0,
					"numoutlets" : 1,
					"outlettype" : [ "" ],
					"patching_rect" : [ 222.0, 44.0, 15.0, 15.0 ],
					"id" : "obj-22",
					"comment" : "(bang) reset"
				}

			}
, 			{
				"box" : 				{
					"maxclass" : "button",
					"numinlets" : 1,
					"numoutlets" : 1,
					"outlettype" : [ "bang" ],
					"patching_rect" : [ 98.0, 165.0, 15.0, 15.0 ],
					"id" : "obj-23"
				}

			}
, 			{
				"box" : 				{
					"maxclass" : "inlet",
					"numinlets" : 0,
					"numoutlets" : 1,
					"outlettype" : [ "" ],
					"patching_rect" : [ 98.0, 46.0, 15.0, 15.0 ],
					"id" : "obj-24",
					"comment" : "stream of Max data"
				}

			}
, 			{
				"box" : 				{
					"maxclass" : "inlet",
					"numinlets" : 0,
					"numoutlets" : 1,
					"outlettype" : [ "" ],
					"patching_rect" : [ 152.0, 45.0, 15.0, 15.0 ],
					"id" : "obj-25",
					"comment" : "(int) reset index counter to"
				}

			}
, 			{
				"box" : 				{
					"maxclass" : "outlet",
					"numinlets" : 1,
					"numoutlets" : 0,
					"patching_rect" : [ 141.0, 419.0, 15.0, 15.0 ],
					"id" : "obj-26",
					"comment" : "(list) connect to coll"
				}

			}
, 			{
				"box" : 				{
					"maxclass" : "newobj",
					"text" : "counter",
					"numinlets" : 5,
					"fontsize" : 9.0,
					"numoutlets" : 4,
					"outlettype" : [ "int", "", "", "int" ],
					"fontname" : "Arial",
					"patching_rect" : [ 141.0, 211.0, 66.0, 17.0 ],
					"id" : "obj-27"
				}

			}
, 			{
				"box" : 				{
					"maxclass" : "newobj",
					"text" : "zl join",
					"numinlets" : 2,
					"fontsize" : 9.0,
					"numoutlets" : 2,
					"outlettype" : [ "", "" ],
					"fontname" : "Arial",
					"patching_rect" : [ 141.0, 300.0, 35.0, 17.0 ],
					"id" : "obj-28"
				}

			}
, 			{
				"box" : 				{
					"maxclass" : "comment",
					"text" : "max number of items",
					"numinlets" : 1,
					"fontsize" : 9.0,
					"numoutlets" : 0,
					"frgb" : [ 0.0, 0.0, 0.0, 1.0 ],
					"fontname" : "Arial",
					"patching_rect" : [ 482.0, 117.0, 103.0, 17.0 ],
					"id" : "obj-29"
				}

			}
 ],
		"lines" : [ 			{
				"patchline" : 				{
					"source" : [ "obj-20", 0 ],
					"destination" : [ "obj-19", 0 ],
					"hidden" : 0,
					"midpoints" : [  ]
				}

			}
, 			{
				"patchline" : 				{
					"source" : [ "obj-21", 0 ],
					"destination" : [ "obj-20", 0 ],
					"hidden" : 0,
					"midpoints" : [  ]
				}

			}
, 			{
				"patchline" : 				{
					"source" : [ "obj-8", 1 ],
					"destination" : [ "obj-7", 1 ],
					"hidden" : 0,
					"midpoints" : [  ]
				}

			}
, 			{
				"patchline" : 				{
					"source" : [ "obj-7", 0 ],
					"destination" : [ "obj-6", 1 ],
					"hidden" : 0,
					"midpoints" : [  ]
				}

			}
, 			{
				"patchline" : 				{
					"source" : [ "obj-9", 1 ],
					"destination" : [ "obj-7", 0 ],
					"hidden" : 0,
					"midpoints" : [  ]
				}

			}
, 			{
				"patchline" : 				{
					"source" : [ "obj-9", 0 ],
					"destination" : [ "obj-11", 0 ],
					"hidden" : 0,
					"midpoints" : [  ]
				}

			}
, 			{
				"patchline" : 				{
					"source" : [ "obj-12", 1 ],
					"destination" : [ "obj-9", 0 ],
					"hidden" : 0,
					"midpoints" : [  ]
				}

			}
, 			{
				"patchline" : 				{
					"source" : [ "obj-5", 1 ],
					"destination" : [ "obj-6", 0 ],
					"hidden" : 0,
					"midpoints" : [  ]
				}

			}
, 			{
				"patchline" : 				{
					"source" : [ "obj-16", 0 ],
					"destination" : [ "obj-12", 0 ],
					"hidden" : 0,
					"midpoints" : [  ]
				}

			}
, 			{
				"patchline" : 				{
					"source" : [ "obj-27", 0 ],
					"destination" : [ "obj-18", 0 ],
					"hidden" : 0,
					"midpoints" : [  ]
				}

			}
, 			{
				"patchline" : 				{
					"source" : [ "obj-12", 0 ],
					"destination" : [ "obj-5", 0 ],
					"hidden" : 0,
					"midpoints" : [  ]
				}

			}
, 			{
				"patchline" : 				{
					"source" : [ "obj-22", 0 ],
					"destination" : [ "obj-4", 0 ],
					"hidden" : 0,
					"midpoints" : [  ]
				}

			}
, 			{
				"patchline" : 				{
					"source" : [ "obj-4", 0 ],
					"destination" : [ "obj-17", 0 ],
					"hidden" : 0,
					"midpoints" : [  ]
				}

			}
, 			{
				"patchline" : 				{
					"source" : [ "obj-19", 1 ],
					"destination" : [ "obj-27", 4 ],
					"hidden" : 0,
					"midpoints" : [  ]
				}

			}
, 			{
				"patchline" : 				{
					"source" : [ "obj-17", 0 ],
					"destination" : [ "obj-27", 2 ],
					"hidden" : 0,
					"midpoints" : [  ]
				}

			}
, 			{
				"patchline" : 				{
					"source" : [ "obj-25", 0 ],
					"destination" : [ "obj-27", 2 ],
					"hidden" : 0,
					"midpoints" : [  ]
				}

			}
, 			{
				"patchline" : 				{
					"source" : [ "obj-6", 0 ],
					"destination" : [ "obj-27", 2 ],
					"hidden" : 0,
					"midpoints" : [  ]
				}

			}
, 			{
				"patchline" : 				{
					"source" : [ "obj-24", 0 ],
					"destination" : [ "obj-28", 1 ],
					"hidden" : 0,
					"midpoints" : [  ]
				}

			}
, 			{
				"patchline" : 				{
					"source" : [ "obj-11", 0 ],
					"destination" : [ "obj-10", 0 ],
					"hidden" : 0,
					"midpoints" : [  ]
				}

			}
, 			{
				"patchline" : 				{
					"source" : [ "obj-15", 1 ],
					"destination" : [ "obj-10", 0 ],
					"hidden" : 0,
					"midpoints" : [  ]
				}

			}
, 			{
				"patchline" : 				{
					"source" : [ "obj-17", 1 ],
					"destination" : [ "obj-26", 0 ],
					"hidden" : 0,
					"midpoints" : [ 207.0, 334.0 ]
				}

			}
, 			{
				"patchline" : 				{
					"source" : [ "obj-10", 0 ],
					"destination" : [ "obj-26", 0 ],
					"hidden" : 0,
					"midpoints" : [  ]
				}

			}
, 			{
				"patchline" : 				{
					"source" : [ "obj-15", 0 ],
					"destination" : [ "obj-26", 0 ],
					"hidden" : 0,
					"midpoints" : [  ]
				}

			}
, 			{
				"patchline" : 				{
					"source" : [ "obj-28", 0 ],
					"destination" : [ "obj-15", 1 ],
					"hidden" : 0,
					"midpoints" : [  ]
				}

			}
, 			{
				"patchline" : 				{
					"source" : [ "obj-8", 0 ],
					"destination" : [ "obj-28", 0 ],
					"hidden" : 0,
					"midpoints" : [  ]
				}

			}
, 			{
				"patchline" : 				{
					"source" : [ "obj-27", 0 ],
					"destination" : [ "obj-8", 0 ],
					"hidden" : 0,
					"midpoints" : [  ]
				}

			}
, 			{
				"patchline" : 				{
					"source" : [ "obj-23", 0 ],
					"destination" : [ "obj-27", 0 ],
					"hidden" : 0,
					"midpoints" : [  ]
				}

			}
, 			{
				"patchline" : 				{
					"source" : [ "obj-13", 0 ],
					"destination" : [ "obj-15", 0 ],
					"hidden" : 0,
					"midpoints" : [  ]
				}

			}
, 			{
				"patchline" : 				{
					"source" : [ "obj-9", 2 ],
					"destination" : [ "obj-15", 0 ],
					"hidden" : 0,
					"midpoints" : [ 361.5, 257.0, 415.0, 325.0, 315.0, 463.0, 174.0, 500.0, 39.0, 411.0 ]
				}

			}
, 			{
				"patchline" : 				{
					"source" : [ "obj-5", 0 ],
					"destination" : [ "obj-15", 0 ],
					"hidden" : 0,
					"midpoints" : [ 444.0, 205.0, 493.0, 305.0, 356.0, 494.0, 167.0, 533.0, 16.0, 412.0, 42.0, 365.0 ]
				}

			}
, 			{
				"patchline" : 				{
					"source" : [ "obj-24", 0 ],
					"destination" : [ "obj-23", 0 ],
					"hidden" : 0,
					"midpoints" : [  ]
				}

			}
, 			{
				"patchline" : 				{
					"source" : [ "obj-14", 0 ],
					"destination" : [ "obj-13", 0 ],
					"hidden" : 0,
					"midpoints" : [  ]
				}

			}
 ]
	}

}
