{
	"patcher" : 	{
		"fileversion" : 1,
		"rect" : [ 285.0, 44.0, 881.0, 388.0 ],
		"bgcolor" : [ 0.870588, 0.929412, 1.0, 1.0 ],
		"bglocked" : 0,
		"defrect" : [ 285.0, 44.0, 881.0, 388.0 ],
		"openrect" : [ 0.0, 0.0, 0.0, 0.0 ],
		"openinpresentation" : 0,
		"default_fontsize" : 12.0,
		"default_fontface" : 0,
		"default_fontname" : "Arial",
		"gridonopen" : 0,
		"gridsize" : [ 15.0, 15.0 ],
		"gridsnaponopen" : 0,
		"toolbarvisible" : 1,
		"boxanimatetime" : 200,
		"imprint" : 0,
		"metadata" : [  ],
		"boxes" : [ 			{
				"box" : 				{
					"maxclass" : "bpatcher",
					"prototypename" : "cnmat_badge",
					"args" : [ "sin-synth-ext~", "1.0a", "Michael Zbyszynski", "sin-synth-ext~", 6666 ],
					"patching_rect" : [ 220.0, 258.0, 292.0, 86.0 ],
					"id" : "obj-29",
					"numinlets" : 0,
					"name" : "badge.maxpat",
					"numoutlets" : 0
				}

			}
, 			{
				"box" : 				{
					"maxclass" : "comment",
					"text" : "It is just like sin-synth, but relies on an external buffer.",
					"fontname" : "Arial",
					"patching_rect" : [ 547.0, 232.0, 296.0, 20.0 ],
					"fontsize" : 12.0,
					"id" : "obj-1",
					"numinlets" : 1,
					"numoutlets" : 0
				}

			}
, 			{
				"box" : 				{
					"maxclass" : "newobj",
					"text" : "prepend matrix",
					"fontname" : "Arial",
					"patching_rect" : [ 474.0, 129.0, 79.0, 17.0 ],
					"fontsize" : 9.0,
					"id" : "obj-2",
					"numinlets" : 1,
					"numoutlets" : 1,
					"outlettype" : [ "" ]
				}

			}
, 			{
				"box" : 				{
					"maxclass" : "newobj",
					"text" : "OSC-route slash #1",
					"fontname" : "Arial",
					"patching_rect" : [ 66.0, 28.0, 99.0, 17.0 ],
					"fontsize" : 9.0,
					"id" : "obj-3",
					"numinlets" : 1,
					"numoutlets" : 2,
					"outlettype" : [ "list", "list" ]
				}

			}
, 			{
				"box" : 				{
					"maxclass" : "newobj",
					"text" : "loadmess matrix 1TRC",
					"fontname" : "Arial",
					"patching_rect" : [ 52.0, 136.0, 112.0, 17.0 ],
					"fontsize" : 9.0,
					"id" : "obj-5",
					"numinlets" : 1,
					"numoutlets" : 1,
					"outlettype" : [ "" ]
				}

			}
, 			{
				"box" : 				{
					"maxclass" : "newobj",
					"text" : "r OSC",
					"fontname" : "Arial",
					"patching_rect" : [ 66.0, 8.0, 36.0, 17.0 ],
					"fontsize" : 9.0,
					"id" : "obj-12",
					"numinlets" : 0,
					"numoutlets" : 1,
					"outlettype" : [ "" ]
				}

			}
, 			{
				"box" : 				{
					"maxclass" : "comment",
					"text" : "It assumes that an SDIF where the first column is partial index, the second is frequency, and the third is amplitude. (This is the output format of AddAn, for instance.)",
					"linecount" : 3,
					"fontname" : "Arial",
					"patching_rect" : [ 547.0, 255.0, 320.0, 48.0 ],
					"fontsize" : 12.0,
					"id" : "obj-13",
					"numinlets" : 1,
					"numoutlets" : 0
				}

			}
, 			{
				"box" : 				{
					"maxclass" : "outlet",
					"patching_rect" : [ 102.0, 322.0, 15.0, 15.0 ],
					"id" : "obj-14",
					"numinlets" : 1,
					"numoutlets" : 0,
					"comment" : "to resonance-display (model)"
				}

			}
, 			{
				"box" : 				{
					"maxclass" : "newobj",
					"text" : "prepend sinusoids",
					"fontname" : "Arial",
					"patching_rect" : [ 102.0, 280.0, 89.0, 17.0 ],
					"fontsize" : 9.0,
					"color" : [ 1.0, 0.890196, 0.090196, 1.0 ],
					"id" : "obj-15",
					"numinlets" : 1,
					"numoutlets" : 1,
					"outlettype" : [ "" ]
				}

			}
, 			{
				"box" : 				{
					"maxclass" : "newobj",
					"text" : "OSC-route /time /buffer /transform /matrix",
					"fontname" : "Arial",
					"patching_rect" : [ 39.0, 86.0, 592.0, 17.0 ],
					"fontsize" : 9.0,
					"id" : "obj-16",
					"numinlets" : 1,
					"numoutlets" : 5,
					"outlettype" : [ "list", "list", "list", "list", "list" ]
				}

			}
, 			{
				"box" : 				{
					"maxclass" : "newobj",
					"text" : "nothing",
					"fontname" : "Arial",
					"patching_rect" : [ 39.0, 60.0, 99.0, 17.0 ],
					"fontsize" : 9.0,
					"id" : "obj-17",
					"numinlets" : 1,
					"numoutlets" : 1,
					"outlettype" : [ "" ]
				}

			}
, 			{
				"box" : 				{
					"maxclass" : "inlet",
					"patching_rect" : [ 39.0, 13.0, 15.0, 15.0 ],
					"id" : "obj-18",
					"numinlets" : 0,
					"numoutlets" : 1,
					"outlettype" : [ "" ],
					"comment" : "OSC Input"
				}

			}
, 			{
				"box" : 				{
					"maxclass" : "outlet",
					"patching_rect" : [ 39.0, 313.0, 15.0, 15.0 ],
					"id" : "obj-19",
					"numinlets" : 1,
					"numoutlets" : 0,
					"comment" : "sound out (signal)"
				}

			}
, 			{
				"box" : 				{
					"maxclass" : "newobj",
					"text" : "prepend sinusoids",
					"fontname" : "Arial",
					"patching_rect" : [ 39.0, 220.0, 89.0, 17.0 ],
					"fontsize" : 9.0,
					"color" : [ 1.0, 0.890196, 0.090196, 1.0 ],
					"id" : "obj-20",
					"numinlets" : 1,
					"numoutlets" : 1,
					"outlettype" : [ "" ]
				}

			}
, 			{
				"box" : 				{
					"maxclass" : "newobj",
					"text" : "res-transform",
					"fontname" : "Arial",
					"patching_rect" : [ 39.0, 247.0, 76.0, 17.0 ],
					"fontsize" : 9.0,
					"color" : [ 1.0, 0.890196, 0.090196, 1.0 ],
					"id" : "obj-21",
					"numinlets" : 2,
					"numoutlets" : 1,
					"outlettype" : [ "list" ]
				}

			}
, 			{
				"box" : 				{
					"maxclass" : "newobj",
					"text" : "threefates",
					"fontname" : "Arial",
					"patching_rect" : [ 39.0, 197.0, 57.0, 17.0 ],
					"fontsize" : 9.0,
					"color" : [ 1.0, 0.890196, 0.090196, 1.0 ],
					"id" : "obj-22",
					"numinlets" : 1,
					"numoutlets" : 1,
					"outlettype" : [ "list" ]
				}

			}
, 			{
				"box" : 				{
					"maxclass" : "message",
					"text" : "tuples time $1 columns 1 2 3",
					"fontname" : "Arial",
					"patching_rect" : [ 39.0, 116.0, 141.0, 15.0 ],
					"fontsize" : 9.0,
					"id" : "obj-23",
					"numinlets" : 2,
					"numoutlets" : 1,
					"outlettype" : [ "" ]
				}

			}
, 			{
				"box" : 				{
					"maxclass" : "newobj",
					"text" : "sinusoids~",
					"fontname" : "Arial",
					"patching_rect" : [ 39.0, 280.0, 57.0, 17.0 ],
					"fontsize" : 9.0,
					"color" : [ 1.0, 0.890196, 0.090196, 1.0 ],
					"id" : "obj-24",
					"numinlets" : 1,
					"numoutlets" : 1,
					"outlettype" : [ "signal" ]
				}

			}
, 			{
				"box" : 				{
					"maxclass" : "newobj",
					"text" : "SDIF-tuples do_not_worry",
					"fontname" : "Arial",
					"patching_rect" : [ 39.0, 173.0, 130.0, 17.0 ],
					"fontsize" : 9.0,
					"color" : [ 1.0, 0.890196, 0.090196, 1.0 ],
					"id" : "obj-25",
					"numinlets" : 1,
					"numoutlets" : 1,
					"outlettype" : [ "" ]
				}

			}
, 			{
				"box" : 				{
					"maxclass" : "newobj",
					"text" : "prepend set",
					"fontname" : "Arial",
					"patching_rect" : [ 184.0, 151.0, 62.0, 17.0 ],
					"fontsize" : 9.0,
					"id" : "obj-26",
					"numinlets" : 1,
					"numoutlets" : 1,
					"outlettype" : [ "" ]
				}

			}
, 			{
				"box" : 				{
					"maxclass" : "comment",
					"text" : "sin-synth-ext",
					"fontname" : "Arial",
					"patching_rect" : [ 548.0, 164.0, 124.0, 27.0 ],
					"fontsize" : 18.0,
					"id" : "obj-27",
					"numinlets" : 1,
					"numoutlets" : 0
				}

			}
, 			{
				"box" : 				{
					"maxclass" : "comment",
					"text" : "This abstraction frees the user from the tedious details of synthesizing sinusoidal models from SDIF files.",
					"linecount" : 2,
					"fontname" : "Arial",
					"patching_rect" : [ 547.0, 196.0, 316.0, 34.0 ],
					"fontsize" : 12.0,
					"id" : "obj-28",
					"numinlets" : 1,
					"numoutlets" : 0
				}

			}
 ],
		"lines" : [ 			{
				"patchline" : 				{
					"source" : [ "obj-16", 3 ],
					"destination" : [ "obj-2", 0 ],
					"hidden" : 0,
					"midpoints" : [  ]
				}

			}
, 			{
				"patchline" : 				{
					"source" : [ "obj-16", 1 ],
					"destination" : [ "obj-26", 0 ],
					"hidden" : 0,
					"midpoints" : [  ]
				}

			}
, 			{
				"patchline" : 				{
					"source" : [ "obj-15", 0 ],
					"destination" : [ "obj-14", 0 ],
					"hidden" : 0,
					"midpoints" : [  ]
				}

			}
, 			{
				"patchline" : 				{
					"source" : [ "obj-21", 0 ],
					"destination" : [ "obj-15", 0 ],
					"hidden" : 0,
					"midpoints" : [  ]
				}

			}
, 			{
				"patchline" : 				{
					"source" : [ "obj-12", 0 ],
					"destination" : [ "obj-3", 0 ],
					"hidden" : 0,
					"midpoints" : [  ]
				}

			}
, 			{
				"patchline" : 				{
					"source" : [ "obj-24", 0 ],
					"destination" : [ "obj-19", 0 ],
					"hidden" : 0,
					"midpoints" : [  ]
				}

			}
, 			{
				"patchline" : 				{
					"source" : [ "obj-21", 0 ],
					"destination" : [ "obj-24", 0 ],
					"hidden" : 0,
					"midpoints" : [  ]
				}

			}
, 			{
				"patchline" : 				{
					"source" : [ "obj-20", 0 ],
					"destination" : [ "obj-21", 0 ],
					"hidden" : 0,
					"midpoints" : [  ]
				}

			}
, 			{
				"patchline" : 				{
					"source" : [ "obj-16", 2 ],
					"destination" : [ "obj-21", 0 ],
					"hidden" : 0,
					"midpoints" : [ 335.0, 195.0 ]
				}

			}
, 			{
				"patchline" : 				{
					"source" : [ "obj-22", 0 ],
					"destination" : [ "obj-20", 0 ],
					"hidden" : 0,
					"midpoints" : [  ]
				}

			}
, 			{
				"patchline" : 				{
					"source" : [ "obj-25", 0 ],
					"destination" : [ "obj-22", 0 ],
					"hidden" : 0,
					"midpoints" : [  ]
				}

			}
, 			{
				"patchline" : 				{
					"source" : [ "obj-26", 0 ],
					"destination" : [ "obj-25", 0 ],
					"hidden" : 0,
					"midpoints" : [  ]
				}

			}
, 			{
				"patchline" : 				{
					"source" : [ "obj-23", 0 ],
					"destination" : [ "obj-25", 0 ],
					"hidden" : 0,
					"midpoints" : [  ]
				}

			}
, 			{
				"patchline" : 				{
					"source" : [ "obj-5", 0 ],
					"destination" : [ "obj-25", 0 ],
					"hidden" : 0,
					"midpoints" : [  ]
				}

			}
, 			{
				"patchline" : 				{
					"source" : [ "obj-2", 0 ],
					"destination" : [ "obj-25", 0 ],
					"hidden" : 0,
					"midpoints" : [ 420.0, 184.0, 351.0, 150.0, 278.0, 188.0, 200.0, 130.0 ]
				}

			}
, 			{
				"patchline" : 				{
					"source" : [ "obj-16", 0 ],
					"destination" : [ "obj-23", 0 ],
					"hidden" : 0,
					"midpoints" : [  ]
				}

			}
, 			{
				"patchline" : 				{
					"source" : [ "obj-17", 0 ],
					"destination" : [ "obj-16", 0 ],
					"hidden" : 0,
					"midpoints" : [  ]
				}

			}
, 			{
				"patchline" : 				{
					"source" : [ "obj-18", 0 ],
					"destination" : [ "obj-17", 0 ],
					"hidden" : 0,
					"midpoints" : [  ]
				}

			}
, 			{
				"patchline" : 				{
					"source" : [ "obj-3", 0 ],
					"destination" : [ "obj-17", 0 ],
					"hidden" : 0,
					"midpoints" : [  ]
				}

			}
 ]
	}

}
