{
	"patcher" : 	{
		"fileversion" : 1,
		"rect" : [ 0.0, 44.0, 550.0, 401.0 ],
		"bglocked" : 0,
		"defrect" : [ 0.0, 44.0, 550.0, 401.0 ],
		"openrect" : [ 0.0, 0.0, 0.0, 0.0 ],
		"openinpresentation" : 0,
		"default_fontsize" : 12.0,
		"default_fontface" : 0,
		"default_fontname" : "Arial",
		"gridonopen" : 0,
		"gridsize" : [ 15.0, 15.0 ],
		"gridsnaponopen" : 0,
		"toolbarvisible" : 1,
		"boxanimatetime" : 200,
		"imprint" : 0,
		"boxes" : [ 			{
				"box" : 				{
					"maxclass" : "comment",
					"text" : "msec",
					"numoutlets" : 0,
					"fontsize" : 9.0,
					"patching_rect" : [ 421.0, 218.0, 32.0, 17.0 ],
					"id" : "obj-1",
					"fontname" : "Arial",
					"numinlets" : 1
				}

			}
, 			{
				"box" : 				{
					"maxclass" : "bpatcher",
					"numoutlets" : 0,
					"args" : [ "count the number of bangs in a stream in a given period" ],
					"lockeddragscroll" : 1,
					"patching_rect" : [ 3.0, 0.0, 475.0, 85.0 ],
					"id" : "obj-2",
					"name" : "_aLib-info.pat",
					"numinlets" : 0
				}

			}
, 			{
				"box" : 				{
					"maxclass" : "number",
					"numoutlets" : 2,
					"fontsize" : 9.0,
					"outlettype" : [ "int", "bang" ],
					"bgcolor" : [ 0.866667, 0.866667, 0.866667, 1.0 ],
					"patching_rect" : [ 351.0, 216.0, 66.0, 17.0 ],
					"htextcolor" : [ 0.870588, 0.870588, 0.870588, 1.0 ],
					"triscale" : 0.9,
					"id" : "obj-3",
					"fontname" : "Arial",
					"numinlets" : 1
				}

			}
, 			{
				"box" : 				{
					"maxclass" : "multislider",
					"candicane6" : [ 0.733333, 0.035294, 0.788235, 1.0 ],
					"peakcolor" : [ 0.498039, 0.498039, 0.498039, 1.0 ],
					"numoutlets" : 2,
					"candicane4" : [ 0.439216, 0.619608, 0.070588, 1.0 ],
					"outlettype" : [ "", "" ],
					"contdata" : 1,
					"candicane7" : [ 0.878431, 0.243137, 0.145098, 1.0 ],
					"candicane2" : [ 0.145098, 0.203922, 0.356863, 1.0 ],
					"candicane5" : [ 0.584314, 0.827451, 0.431373, 1.0 ],
					"patching_rect" : [ 351.0, 97.0, 25.0, 113.0 ],
					"id" : "obj-4",
					"setminmax" : [ 0.0, 3000.0 ],
					"candicane8" : [ 0.027451, 0.447059, 0.501961, 1.0 ],
					"candicane3" : [ 0.290196, 0.411765, 0.713726, 1.0 ],
					"numinlets" : 1
				}

			}
, 			{
				"box" : 				{
					"maxclass" : "number",
					"numoutlets" : 2,
					"fontsize" : 9.0,
					"outlettype" : [ "int", "bang" ],
					"bgcolor" : [ 0.866667, 0.866667, 0.866667, 1.0 ],
					"patching_rect" : [ 252.0, 284.0, 53.0, 17.0 ],
					"htextcolor" : [ 0.870588, 0.870588, 0.870588, 1.0 ],
					"triscale" : 0.9,
					"id" : "obj-5",
					"fontname" : "Arial",
					"numinlets" : 1
				}

			}
, 			{
				"box" : 				{
					"maxclass" : "button",
					"numoutlets" : 1,
					"outlettype" : [ "bang" ],
					"patching_rect" : [ 233.0, 194.0, 15.0, 15.0 ],
					"id" : "obj-6",
					"numinlets" : 1
				}

			}
, 			{
				"box" : 				{
					"maxclass" : "newobj",
					"text" : "ali.bang-counter 1000",
					"numoutlets" : 2,
					"fontsize" : 9.0,
					"outlettype" : [ "int", "bang" ],
					"patching_rect" : [ 252.0, 240.0, 109.0, 17.0 ],
					"id" : "obj-7",
					"fontname" : "Arial",
					"numinlets" : 2
				}

			}
, 			{
				"box" : 				{
					"maxclass" : "comment",
					"text" : "count the number of bangs goin in, for a set number of msecs. timer starts with the first bang",
					"linecount" : 5,
					"numoutlets" : 0,
					"fontsize" : 9.0,
					"patching_rect" : [ 104.0, 176.0, 102.0, 58.0 ],
					"id" : "obj-8",
					"fontname" : "Arial",
					"numinlets" : 1
				}

			}
 ],
		"lines" : [ 			{
				"patchline" : 				{
					"source" : [ "obj-3", 0 ],
					"destination" : [ "obj-7", 1 ],
					"hidden" : 0,
					"midpoints" : [  ]
				}

			}
, 			{
				"patchline" : 				{
					"source" : [ "obj-4", 0 ],
					"destination" : [ "obj-3", 0 ],
					"hidden" : 0,
					"midpoints" : [  ]
				}

			}
, 			{
				"patchline" : 				{
					"source" : [ "obj-7", 0 ],
					"destination" : [ "obj-5", 0 ],
					"hidden" : 0,
					"midpoints" : [  ]
				}

			}
, 			{
				"patchline" : 				{
					"source" : [ "obj-6", 0 ],
					"destination" : [ "obj-7", 0 ],
					"hidden" : 0,
					"midpoints" : [  ]
				}

			}
 ]
	}

}
