{
	"patcher" : 	{
		"fileversion" : 1,
		"rect" : [ 30.0, 89.0, 732.0, 642.0 ],
		"bglocked" : 0,
		"defrect" : [ 30.0, 89.0, 732.0, 642.0 ],
		"openrect" : [ 0.0, 0.0, 0.0, 0.0 ],
		"openinpresentation" : 0,
		"default_fontsize" : 12.0,
		"default_fontface" : 0,
		"default_fontname" : "Arial",
		"gridonopen" : 0,
		"gridsize" : [ 15.0, 15.0 ],
		"gridsnaponopen" : 0,
		"toolbarvisible" : 1,
		"boxanimatetime" : 200,
		"imprint" : 0,
		"boxes" : [ 			{
				"box" : 				{
					"maxclass" : "newobj",
					"text" : "t stop",
					"numoutlets" : 1,
					"fontsize" : 9.0,
					"outlettype" : [ "stop" ],
					"patching_rect" : [ 389.0, 247.0, 35.0, 17.0 ],
					"id" : "obj-1",
					"fontname" : "Arial",
					"numinlets" : 1
				}

			}
, 			{
				"box" : 				{
					"maxclass" : "inlet",
					"numoutlets" : 1,
					"outlettype" : [ "" ],
					"patching_rect" : [ 368.0, 49.0, 15.0, 15.0 ],
					"id" : "obj-2",
					"numinlets" : 0,
					"comment" : "bang to stop delay"
				}

			}
, 			{
				"box" : 				{
					"maxclass" : "newobj",
					"text" : "int",
					"numoutlets" : 1,
					"fontsize" : 9.0,
					"outlettype" : [ "int" ],
					"patching_rect" : [ 311.0, 455.0, 27.0, 17.0 ],
					"id" : "obj-3",
					"fontname" : "Arial",
					"numinlets" : 2
				}

			}
, 			{
				"box" : 				{
					"maxclass" : "newobj",
					"text" : "change",
					"numoutlets" : 3,
					"fontsize" : 9.0,
					"outlettype" : [ "", "int", "int" ],
					"patching_rect" : [ 166.0, 266.0, 40.0, 17.0 ],
					"id" : "obj-4",
					"fontname" : "Arial",
					"numinlets" : 1
				}

			}
, 			{
				"box" : 				{
					"maxclass" : "newobj",
					"text" : "t i i i",
					"numoutlets" : 3,
					"fontsize" : 9.0,
					"outlettype" : [ "int", "int", "int" ],
					"patching_rect" : [ 186.0, 154.0, 40.0, 17.0 ],
					"id" : "obj-5",
					"fontname" : "Arial",
					"numinlets" : 1
				}

			}
, 			{
				"box" : 				{
					"maxclass" : "newobj",
					"text" : "var-init #1 1000",
					"numoutlets" : 2,
					"fontsize" : 9.0,
					"outlettype" : [ "", "" ],
					"patching_rect" : [ 323.0, 182.0, 88.0, 17.0 ],
					"id" : "obj-6",
					"fontname" : "Arial",
					"numinlets" : 1
				}

			}
, 			{
				"box" : 				{
					"maxclass" : "message",
					"text" : "stop",
					"numoutlets" : 1,
					"fontsize" : 9.0,
					"outlettype" : [ "" ],
					"patching_rect" : [ 192.0, 357.0, 27.0, 15.0 ],
					"id" : "obj-7",
					"fontname" : "Arial",
					"numinlets" : 2
				}

			}
, 			{
				"box" : 				{
					"maxclass" : "newobj",
					"text" : "sel 0 1",
					"numoutlets" : 3,
					"fontsize" : 9.0,
					"outlettype" : [ "bang", "bang", "" ],
					"patching_rect" : [ 200.0, 315.0, 40.0, 17.0 ],
					"id" : "obj-8",
					"fontname" : "Arial",
					"numinlets" : 1
				}

			}
, 			{
				"box" : 				{
					"maxclass" : "newobj",
					"text" : "delay 1000",
					"numoutlets" : 1,
					"fontsize" : 9.0,
					"outlettype" : [ "bang" ],
					"patching_rect" : [ 217.0, 405.0, 60.0, 17.0 ],
					"id" : "obj-9",
					"fontname" : "Arial",
					"numinlets" : 2
				}

			}
, 			{
				"box" : 				{
					"maxclass" : "newobj",
					"text" : "==",
					"numoutlets" : 1,
					"fontsize" : 9.0,
					"outlettype" : [ "int" ],
					"patching_rect" : [ 165.0, 225.0, 27.0, 17.0 ],
					"id" : "obj-10",
					"fontname" : "Arial",
					"numinlets" : 2
				}

			}
, 			{
				"box" : 				{
					"maxclass" : "outlet",
					"numoutlets" : 0,
					"patching_rect" : [ 221.0, 459.0, 15.0, 15.0 ],
					"id" : "obj-11",
					"numinlets" : 1,
					"comment" : "(int) stream as been at this value for in2 ms"
				}

			}
, 			{
				"box" : 				{
					"maxclass" : "inlet",
					"numoutlets" : 1,
					"outlettype" : [ "" ],
					"patching_rect" : [ 186.0, 45.0, 15.0, 15.0 ],
					"id" : "obj-12",
					"numinlets" : 0,
					"comment" : "(int) stream"
				}

			}
, 			{
				"box" : 				{
					"maxclass" : "inlet",
					"numoutlets" : 1,
					"outlettype" : [ "" ],
					"patching_rect" : [ 249.0, 45.0, 15.0, 15.0 ],
					"id" : "obj-13",
					"numinlets" : 0,
					"comment" : "(float) ms of constant value -> bang"
				}

			}
 ],
		"lines" : [ 			{
				"patchline" : 				{
					"source" : [ "obj-2", 0 ],
					"destination" : [ "obj-1", 0 ],
					"hidden" : 0,
					"midpoints" : [ 439.0, 172.0 ]
				}

			}
, 			{
				"patchline" : 				{
					"source" : [ "obj-5", 2 ],
					"destination" : [ "obj-3", 1 ],
					"hidden" : 0,
					"midpoints" : [  ]
				}

			}
, 			{
				"patchline" : 				{
					"source" : [ "obj-9", 0 ],
					"destination" : [ "obj-3", 0 ],
					"hidden" : 0,
					"midpoints" : [  ]
				}

			}
, 			{
				"patchline" : 				{
					"source" : [ "obj-6", 0 ],
					"destination" : [ "obj-9", 1 ],
					"hidden" : 0,
					"midpoints" : [ 266.0, 326.0, 234.0, 316.0 ]
				}

			}
, 			{
				"patchline" : 				{
					"source" : [ "obj-13", 0 ],
					"destination" : [ "obj-9", 1 ],
					"hidden" : 0,
					"midpoints" : [ 283.0, 120.0 ]
				}

			}
, 			{
				"patchline" : 				{
					"source" : [ "obj-3", 0 ],
					"destination" : [ "obj-11", 0 ],
					"hidden" : 0,
					"midpoints" : [ 305.0, 484.0, 230.0, 447.0 ]
				}

			}
, 			{
				"patchline" : 				{
					"source" : [ "obj-7", 0 ],
					"destination" : [ "obj-9", 0 ],
					"hidden" : 0,
					"midpoints" : [  ]
				}

			}
, 			{
				"patchline" : 				{
					"source" : [ "obj-8", 1 ],
					"destination" : [ "obj-9", 0 ],
					"hidden" : 0,
					"midpoints" : [ 245.0, 372.0 ]
				}

			}
, 			{
				"patchline" : 				{
					"source" : [ "obj-1", 0 ],
					"destination" : [ "obj-9", 0 ],
					"hidden" : 0,
					"midpoints" : [ 345.0, 364.0 ]
				}

			}
, 			{
				"patchline" : 				{
					"source" : [ "obj-4", 0 ],
					"destination" : [ "obj-8", 0 ],
					"hidden" : 0,
					"midpoints" : [  ]
				}

			}
, 			{
				"patchline" : 				{
					"source" : [ "obj-8", 0 ],
					"destination" : [ "obj-7", 0 ],
					"hidden" : 0,
					"midpoints" : [  ]
				}

			}
, 			{
				"patchline" : 				{
					"source" : [ "obj-12", 0 ],
					"destination" : [ "obj-5", 0 ],
					"hidden" : 0,
					"midpoints" : [  ]
				}

			}
, 			{
				"patchline" : 				{
					"source" : [ "obj-5", 0 ],
					"destination" : [ "obj-10", 1 ],
					"hidden" : 0,
					"midpoints" : [  ]
				}

			}
, 			{
				"patchline" : 				{
					"source" : [ "obj-10", 0 ],
					"destination" : [ "obj-4", 0 ],
					"hidden" : 0,
					"midpoints" : [  ]
				}

			}
, 			{
				"patchline" : 				{
					"source" : [ "obj-5", 1 ],
					"destination" : [ "obj-10", 0 ],
					"hidden" : 0,
					"midpoints" : [  ]
				}

			}
 ]
	}

}
