{
	"patcher" : 	{
		"fileversion" : 1,
		"rect" : [ 288.0, 58.0, 1080.0, 623.0 ],
		"bgcolor" : [ 1.0, 1.0, 1.0, 0.0 ],
		"bglocked" : 0,
		"defrect" : [ 288.0, 58.0, 1080.0, 623.0 ],
		"openrect" : [ 0.0, 0.0, 0.0, 0.0 ],
		"openinpresentation" : 1,
		"default_fontsize" : 12.0,
		"default_fontface" : 0,
		"default_fontname" : "Arial",
		"gridonopen" : 0,
		"gridsize" : [ 15.0, 15.0 ],
		"gridsnaponopen" : 0,
		"toolbarvisible" : 1,
		"boxanimatetime" : 200,
		"imprint" : 0,
		"enablehscroll" : 1,
		"enablevscroll" : 1,
		"devicewidth" : 0.0,
		"boxes" : [ 			{
				"box" : 				{
					"fontname" : "Arial",
					"fontsize" : 12.0,
					"id" : "obj-4",
					"maxclass" : "newobj",
					"numinlets" : 1,
					"numoutlets" : 4,
					"outlettype" : [ "float", "float", "float", "float" ],
					"patching_rect" : [ 640.0, 182.0, 103.0, 20.0 ],
					"text" : "unpack 1. 1. 1. 1."
				}

			}
, 			{
				"box" : 				{
					"fontname" : "Arial",
					"fontsize" : 12.0,
					"id" : "obj-3",
					"maxclass" : "newobj",
					"numinlets" : 1,
					"numoutlets" : 1,
					"outlettype" : [ "" ],
					"patching_rect" : [ 640.0, 151.0, 129.0, 20.0 ],
					"text" : "loadmess #1 #2 #3 #4"
				}

			}
, 			{
				"box" : 				{
					"fontname" : "Gill Sans",
					"fontsize" : 9.0,
					"id" : "obj-1",
					"linecount" : 2,
					"maxclass" : "comment",
					"numinlets" : 1,
					"numoutlets" : 0,
					"patching_rect" : [ 53.0, 67.0, 33.0, 27.0 ],
					"presentation" : 1,
					"presentation_rect" : [ 47.169865, 60.0, 39.281189, 17.0 ],
					"text" : "______"
				}

			}
, 			{
				"box" : 				{
					"id" : "obj-8",
					"maxclass" : "live.text",
					"mode" : 0,
					"numinlets" : 1,
					"numoutlets" : 2,
					"outlettype" : [ "", "" ],
					"parameter_enable" : 1,
					"patching_rect" : [ 277.0, 70.0, 40.0, 20.0 ],
					"presentation" : 1,
					"presentation_rect" : [ 49.0, 121.0, 36.0, 17.0 ],
					"saved_attribute_attributes" : 					{
						"valueof" : 						{
							"parameter_steps" : 0,
							"parameter_enum" : [ "val1", "val2" ],
							"parameter_exponent" : 1.0,
							"parameter_unitstyle" : 10,
							"parameter_mmax" : 1.0,
							"parameter_mmin" : 0.0,
							"parameter_type" : 2,
							"parameter_initial_enable" : 0,
							"parameter_shortname" : "live.text[1]",
							"parameter_invisible" : 0,
							"parameter_modmax" : 127.0,
							"parameter_annotation_name" : "",
							"parameter_longname" : "live.text[1]",
							"parameter_modmin" : 0.0,
							"parameter_linknames" : 0,
							"parameter_modmode" : 0,
							"parameter_info" : "",
							"parameter_order" : 0,
							"parameter_units" : "",
							"parameter_speedlim" : 0
						}

					}
,
					"text" : "reset",
					"varname" : "live.text[1]"
				}

			}
, 			{
				"box" : 				{
					"fontname" : "Arial",
					"fontsize" : 12.0,
					"id" : "obj-6",
					"maxclass" : "number",
					"numinlets" : 1,
					"numoutlets" : 2,
					"outlettype" : [ "int", "bang" ],
					"patching_rect" : [ 319.0, 486.0, 50.0, 20.0 ]
				}

			}
, 			{
				"box" : 				{
					"id" : "obj-14",
					"maxclass" : "button",
					"numinlets" : 1,
					"numoutlets" : 1,
					"outlettype" : [ "bang" ],
					"patching_rect" : [ 302.0, 119.0, 20.0, 20.0 ]
				}

			}
, 			{
				"box" : 				{
					"id" : "obj-11",
					"maxclass" : "live.text",
					"numinlets" : 1,
					"numoutlets" : 2,
					"outlettype" : [ "", "" ],
					"parameter_enable" : 1,
					"patching_rect" : [ 207.0, 68.0, 40.0, 20.0 ],
					"presentation" : 1,
					"presentation_rect" : [ 49.0, 9.0, 36.0, 17.0 ],
					"saved_attribute_attributes" : 					{
						"valueof" : 						{
							"parameter_steps" : 0,
							"parameter_enum" : [ "val1", "val2" ],
							"parameter_exponent" : 1.0,
							"parameter_unitstyle" : 10,
							"parameter_mmax" : 1.0,
							"parameter_mmin" : 0.0,
							"parameter_type" : 2,
							"parameter_initial_enable" : 0,
							"parameter_shortname" : "live.text",
							"parameter_invisible" : 0,
							"parameter_modmax" : 127.0,
							"parameter_annotation_name" : "",
							"parameter_longname" : "live.text",
							"parameter_modmin" : 0.0,
							"parameter_linknames" : 0,
							"parameter_modmode" : 0,
							"parameter_info" : "",
							"parameter_order" : 0,
							"parameter_units" : "",
							"parameter_speedlim" : 0
						}

					}
,
					"text" : "scale",
					"texton" : "set",
					"varname" : "live.text"
				}

			}
, 			{
				"box" : 				{
					"fontname" : "Gill Sans",
					"fontsize" : 9.0,
					"id" : "obj-9",
					"maxclass" : "comment",
					"numinlets" : 1,
					"numoutlets" : 0,
					"patching_rect" : [ 390.0, 275.0, 39.0, 17.0 ],
					"presentation" : 1,
					"presentation_rect" : [ 49.0, 71.0, 39.0, 17.0 ],
					"text" : "Output"
				}

			}
, 			{
				"box" : 				{
					"fontname" : "Gill Sans",
					"fontsize" : 9.0,
					"id" : "obj-2",
					"maxclass" : "comment",
					"numinlets" : 1,
					"numoutlets" : 0,
					"patching_rect" : [ 239.0, 275.0, 33.0, 17.0 ],
					"presentation" : 1,
					"presentation_rect" : [ 53.0, 56.0, 29.0, 17.0 ],
					"text" : "Input"
				}

			}
, 			{
				"box" : 				{
					"fontname" : "Arial",
					"fontsize" : 9.0,
					"id" : "obj-62",
					"maxclass" : "comment",
					"numinlets" : 1,
					"numoutlets" : 0,
					"patching_rect" : [ 600.0, 349.0, 144.0, 17.0 ],
					"text" : "arg3 (float): out range max"
				}

			}
, 			{
				"box" : 				{
					"fontname" : "Arial",
					"fontsize" : 9.0,
					"id" : "obj-63",
					"maxclass" : "comment",
					"numinlets" : 1,
					"numoutlets" : 0,
					"patching_rect" : [ 597.0, 335.0, 144.0, 17.0 ],
					"text" : "arg3 (float): out range min"
				}

			}
, 			{
				"box" : 				{
					"annotation" : "",
					"comment" : "input max",
					"id" : "obj-59",
					"maxclass" : "inlet",
					"numinlets" : 0,
					"numoutlets" : 1,
					"outlettype" : [ "" ],
					"patching_rect" : [ 451.0, 41.0, 15.0, 15.0 ]
				}

			}
, 			{
				"box" : 				{
					"id" : "obj-46",
					"maxclass" : "live.numbox",
					"numinlets" : 1,
					"numoutlets" : 2,
					"outlettype" : [ "", "float" ],
					"parameter_enable" : 1,
					"patching_rect" : [ 417.0, 303.0, 36.0, 15.0 ],
					"presentation" : 1,
					"presentation_rect" : [ 49.0, 105.0, 36.0, 15.0 ],
					"saved_attribute_attributes" : 					{
						"valueof" : 						{
							"parameter_steps" : 0,
							"parameter_exponent" : 1.0,
							"parameter_unitstyle" : 1,
							"parameter_mmax" : 99999.0,
							"parameter_mmin" : -99999.0,
							"parameter_initial" : [ 1 ],
							"parameter_type" : 0,
							"parameter_initial_enable" : 1,
							"parameter_shortname" : "out_max",
							"parameter_invisible" : 0,
							"parameter_modmax" : 127.0,
							"parameter_annotation_name" : "",
							"parameter_longname" : "out_max",
							"parameter_modmin" : 0.0,
							"parameter_linknames" : 0,
							"parameter_modmode" : 0,
							"parameter_info" : "",
							"parameter_order" : 0,
							"parameter_units" : "",
							"parameter_speedlim" : 0
						}

					}
,
					"varname" : "live.numbox[3]"
				}

			}
, 			{
				"box" : 				{
					"id" : "obj-47",
					"maxclass" : "live.numbox",
					"numinlets" : 1,
					"numoutlets" : 2,
					"outlettype" : [ "", "float" ],
					"parameter_enable" : 1,
					"patching_rect" : [ 355.0, 302.0, 36.0, 15.0 ],
					"presentation" : 1,
					"presentation_rect" : [ 49.0, 89.0, 36.0, 15.0 ],
					"saved_attribute_attributes" : 					{
						"valueof" : 						{
							"parameter_steps" : 0,
							"parameter_exponent" : 1.0,
							"parameter_unitstyle" : 1,
							"parameter_mmax" : 99999.0,
							"parameter_mmin" : -99999.0,
							"parameter_type" : 0,
							"parameter_initial_enable" : 0,
							"parameter_shortname" : "out_min",
							"parameter_invisible" : 0,
							"parameter_modmax" : 127.0,
							"parameter_annotation_name" : "",
							"parameter_longname" : "out_min",
							"parameter_modmin" : 0.0,
							"parameter_linknames" : 0,
							"parameter_modmode" : 0,
							"parameter_info" : "",
							"parameter_order" : 0,
							"parameter_units" : "",
							"parameter_speedlim" : 0
						}

					}
,
					"varname" : "live.numbox[4]"
				}

			}
, 			{
				"box" : 				{
					"annotation" : "max",
					"comment" : "scaled output",
					"id" : "obj-45",
					"maxclass" : "outlet",
					"numinlets" : 1,
					"numoutlets" : 0,
					"patching_rect" : [ 202.0, 540.0, 15.0, 15.0 ]
				}

			}
, 			{
				"box" : 				{
					"annotation" : "input min",
					"comment" : "scaled output",
					"id" : "obj-44",
					"maxclass" : "outlet",
					"numinlets" : 1,
					"numoutlets" : 0,
					"patching_rect" : [ 119.0, 540.0, 15.0, 15.0 ]
				}

			}
, 			{
				"box" : 				{
					"annotation" : "",
					"comment" : "output maximum",
					"id" : "obj-42",
					"maxclass" : "inlet",
					"numinlets" : 0,
					"numoutlets" : 1,
					"outlettype" : [ "" ],
					"patching_rect" : [ 690.0, 41.0, 15.0, 15.0 ]
				}

			}
, 			{
				"box" : 				{
					"annotation" : "",
					"comment" : "output minimum",
					"id" : "obj-43",
					"maxclass" : "inlet",
					"numinlets" : 0,
					"numoutlets" : 1,
					"outlettype" : [ "" ],
					"patching_rect" : [ 610.0, 42.0, 15.0, 15.0 ]
				}

			}
, 			{
				"box" : 				{
					"fontname" : "Arial",
					"fontsize" : 9.0,
					"id" : "obj-12",
					"maxclass" : "newobj",
					"numinlets" : 1,
					"numoutlets" : 2,
					"outlettype" : [ "float", "float" ],
					"patching_rect" : [ 185.0, 204.0, 27.0, 17.0 ],
					"text" : "t f f"
				}

			}
, 			{
				"box" : 				{
					"annotation" : "",
					"comment" : "input min",
					"id" : "obj-15",
					"maxclass" : "inlet",
					"numinlets" : 0,
					"numoutlets" : 1,
					"outlettype" : [ "" ],
					"patching_rect" : [ 386.0, 41.0, 15.0, 15.0 ]
				}

			}
, 			{
				"box" : 				{
					"fontname" : "Arial",
					"fontsize" : 9.0,
					"id" : "obj-17",
					"maxclass" : "newobj",
					"numinlets" : 2,
					"numoutlets" : 1,
					"outlettype" : [ "float" ],
					"patching_rect" : [ 335.0, 174.0, 55.0, 17.0 ],
					"text" : "f -99999."
				}

			}
, 			{
				"box" : 				{
					"fontname" : "Arial",
					"fontsize" : 9.0,
					"id" : "obj-24",
					"maxclass" : "comment",
					"numinlets" : 1,
					"numoutlets" : 0,
					"patching_rect" : [ 600.0, 316.0, 144.0, 17.0 ],
					"text" : "arg2 (float): in range max"
				}

			}
, 			{
				"box" : 				{
					"id" : "obj-26",
					"maxclass" : "live.numbox",
					"numinlets" : 1,
					"numoutlets" : 2,
					"outlettype" : [ "", "float" ],
					"parameter_enable" : 1,
					"patching_rect" : [ 266.0, 299.0, 69.0, 15.0 ],
					"presentation" : 1,
					"presentation_rect" : [ 49.0, 43.0, 36.0, 15.0 ],
					"saved_attribute_attributes" : 					{
						"valueof" : 						{
							"parameter_steps" : 0,
							"parameter_exponent" : 1.0,
							"parameter_unitstyle" : 1,
							"parameter_mmax" : 99999.0,
							"parameter_mmin" : -99999.0,
							"parameter_type" : 0,
							"parameter_initial_enable" : 0,
							"parameter_shortname" : "in_max",
							"parameter_invisible" : 0,
							"parameter_modmax" : 127.0,
							"parameter_annotation_name" : "",
							"parameter_longname" : "in_max",
							"parameter_modmin" : 0.0,
							"parameter_linknames" : 0,
							"parameter_modmode" : 0,
							"parameter_info" : "",
							"parameter_order" : 0,
							"parameter_units" : "",
							"parameter_speedlim" : 0
						}

					}
,
					"varname" : "live.numbox[1]"
				}

			}
, 			{
				"box" : 				{
					"id" : "obj-27",
					"maxclass" : "live.numbox",
					"numinlets" : 1,
					"numoutlets" : 2,
					"outlettype" : [ "", "float" ],
					"parameter_enable" : 1,
					"patching_rect" : [ 204.0, 298.0, 36.0, 15.0 ],
					"presentation" : 1,
					"presentation_rect" : [ 49.0, 27.0, 36.0, 15.0 ],
					"saved_attribute_attributes" : 					{
						"valueof" : 						{
							"parameter_steps" : 0,
							"parameter_exponent" : 1.0,
							"parameter_unitstyle" : 1,
							"parameter_mmax" : 99999.0,
							"parameter_mmin" : -99999.0,
							"parameter_type" : 0,
							"parameter_initial_enable" : 0,
							"parameter_shortname" : "in_min",
							"parameter_invisible" : 0,
							"parameter_modmax" : 127.0,
							"parameter_annotation_name" : "",
							"parameter_longname" : "in_min",
							"parameter_modmin" : 0.0,
							"parameter_linknames" : 0,
							"parameter_modmode" : 0,
							"parameter_info" : "",
							"parameter_order" : 0,
							"parameter_units" : "",
							"parameter_speedlim" : 0
						}

					}
,
					"varname" : "live.numbox"
				}

			}
, 			{
				"box" : 				{
					"comment" : "reset",
					"id" : "obj-28",
					"maxclass" : "inlet",
					"numinlets" : 0,
					"numoutlets" : 1,
					"outlettype" : [ "" ],
					"patching_rect" : [ 306.0, 42.0, 15.0, 15.0 ]
				}

			}
, 			{
				"box" : 				{
					"fontname" : "Arial",
					"fontsize" : 9.0,
					"id" : "obj-29",
					"maxclass" : "newobj",
					"numinlets" : 2,
					"numoutlets" : 2,
					"outlettype" : [ "bang", "" ],
					"patching_rect" : [ 253.0, 102.0, 31.0, 17.0 ],
					"text" : "sel 1"
				}

			}
, 			{
				"box" : 				{
					"fontname" : "Arial",
					"fontsize" : 9.0,
					"id" : "obj-30",
					"maxclass" : "newobj",
					"numinlets" : 2,
					"numoutlets" : 1,
					"outlettype" : [ "float" ],
					"patching_rect" : [ 280.0, 170.0, 50.0, 17.0 ],
					"text" : "f 99999."
				}

			}
, 			{
				"box" : 				{
					"comment" : "scaled output",
					"id" : "obj-31",
					"maxclass" : "outlet",
					"numinlets" : 1,
					"numoutlets" : 0,
					"patching_rect" : [ 48.0, 540.0, 15.0, 15.0 ]
				}

			}
, 			{
				"box" : 				{
					"fontname" : "Arial",
					"fontsize" : 9.0,
					"id" : "obj-32",
					"maxclass" : "message",
					"numinlets" : 2,
					"numoutlets" : 1,
					"outlettype" : [ "" ],
					"patching_rect" : [ 60.0, 177.0, 16.0, 15.0 ],
					"text" : "1"
				}

			}
, 			{
				"box" : 				{
					"fontname" : "Arial",
					"fontsize" : 9.0,
					"id" : "obj-33",
					"maxclass" : "newobj",
					"numinlets" : 1,
					"numoutlets" : 1,
					"outlettype" : [ "bang" ],
					"patching_rect" : [ 60.0, 144.0, 46.0, 17.0 ],
					"text" : "loadbang"
				}

			}
, 			{
				"box" : 				{
					"fontname" : "Arial",
					"fontsize" : 9.0,
					"id" : "obj-34",
					"maxclass" : "newobj",
					"numinlets" : 2,
					"numoutlets" : 1,
					"outlettype" : [ "int" ],
					"patching_rect" : [ 221.0, 101.0, 27.0, 17.0 ],
					"text" : "+ 1"
				}

			}
, 			{
				"box" : 				{
					"fontname" : "Arial",
					"fontsize" : 9.0,
					"id" : "obj-35",
					"maxclass" : "newobj",
					"numinlets" : 6,
					"numoutlets" : 1,
					"outlettype" : [ "" ],
					"patching_rect" : [ 48.0, 495.0, 133.0, 17.0 ],
					"text" : "scale 0. 1. 0. 1."
				}

			}
, 			{
				"box" : 				{
					"fontname" : "Arial",
					"fontsize" : 9.0,
					"id" : "obj-36",
					"maxclass" : "newobj",
					"numinlets" : 2,
					"numoutlets" : 3,
					"outlettype" : [ "float", "int", "int" ],
					"patching_rect" : [ 199.0, 241.0, 50.0, 17.0 ],
					"text" : "trough 0."
				}

			}
, 			{
				"box" : 				{
					"fontname" : "Arial",
					"fontsize" : 9.0,
					"id" : "obj-37",
					"maxclass" : "newobj",
					"numinlets" : 2,
					"numoutlets" : 3,
					"outlettype" : [ "float", "int", "int" ],
					"patching_rect" : [ 284.0, 241.0, 41.0, 17.0 ],
					"text" : "peak 1."
				}

			}
, 			{
				"box" : 				{
					"fontname" : "Arial",
					"fontsize" : 9.0,
					"id" : "obj-38",
					"maxclass" : "newobj",
					"numinlets" : 2,
					"numoutlets" : 2,
					"outlettype" : [ "", "" ],
					"patching_rect" : [ 153.0, 158.0, 35.0, 17.0 ],
					"text" : "gate 2"
				}

			}
, 			{
				"box" : 				{
					"comment" : "(int) auto-scale on off",
					"id" : "obj-39",
					"maxclass" : "inlet",
					"numinlets" : 0,
					"numoutlets" : 1,
					"outlettype" : [ "" ],
					"patching_rect" : [ 216.0, 38.0, 15.0, 15.0 ]
				}

			}
, 			{
				"box" : 				{
					"comment" : "",
					"id" : "obj-40",
					"maxclass" : "inlet",
					"numinlets" : 0,
					"numoutlets" : 1,
					"outlettype" : [ "" ],
					"patching_rect" : [ 158.0, 40.0, 15.0, 15.0 ]
				}

			}
, 			{
				"box" : 				{
					"fontname" : "Arial",
					"fontsize" : 9.0,
					"id" : "obj-41",
					"maxclass" : "comment",
					"numinlets" : 1,
					"numoutlets" : 0,
					"patching_rect" : [ 597.0, 301.0, 144.0, 17.0 ],
					"text" : "arg1 (float): in range min"
				}

			}
 ],
		"lines" : [ 			{
				"patchline" : 				{
					"destination" : [ "obj-29", 0 ],
					"hidden" : 0,
					"midpoints" : [  ],
					"source" : [ "obj-11", 0 ]
				}

			}
, 			{
				"patchline" : 				{
					"destination" : [ "obj-34", 0 ],
					"hidden" : 0,
					"midpoints" : [  ],
					"source" : [ "obj-11", 0 ]
				}

			}
, 			{
				"patchline" : 				{
					"destination" : [ "obj-35", 0 ],
					"hidden" : 0,
					"midpoints" : [  ],
					"source" : [ "obj-12", 0 ]
				}

			}
, 			{
				"patchline" : 				{
					"destination" : [ "obj-36", 0 ],
					"hidden" : 0,
					"midpoints" : [  ],
					"source" : [ "obj-12", 1 ]
				}

			}
, 			{
				"patchline" : 				{
					"destination" : [ "obj-37", 0 ],
					"hidden" : 0,
					"midpoints" : [  ],
					"source" : [ "obj-12", 1 ]
				}

			}
, 			{
				"patchline" : 				{
					"destination" : [ "obj-17", 0 ],
					"hidden" : 0,
					"midpoints" : [  ],
					"source" : [ "obj-14", 0 ]
				}

			}
, 			{
				"patchline" : 				{
					"destination" : [ "obj-30", 0 ],
					"hidden" : 0,
					"midpoints" : [  ],
					"source" : [ "obj-14", 0 ]
				}

			}
, 			{
				"patchline" : 				{
					"destination" : [ "obj-27", 0 ],
					"hidden" : 0,
					"midpoints" : [  ],
					"source" : [ "obj-15", 0 ]
				}

			}
, 			{
				"patchline" : 				{
					"destination" : [ "obj-37", 1 ],
					"hidden" : 0,
					"midpoints" : [  ],
					"source" : [ "obj-17", 0 ]
				}

			}
, 			{
				"patchline" : 				{
					"destination" : [ "obj-35", 2 ],
					"hidden" : 0,
					"midpoints" : [  ],
					"source" : [ "obj-26", 0 ]
				}

			}
, 			{
				"patchline" : 				{
					"destination" : [ "obj-45", 0 ],
					"hidden" : 0,
					"midpoints" : [  ],
					"source" : [ "obj-26", 0 ]
				}

			}
, 			{
				"patchline" : 				{
					"destination" : [ "obj-35", 1 ],
					"hidden" : 0,
					"midpoints" : [  ],
					"source" : [ "obj-27", 0 ]
				}

			}
, 			{
				"patchline" : 				{
					"destination" : [ "obj-44", 0 ],
					"hidden" : 0,
					"midpoints" : [  ],
					"source" : [ "obj-27", 0 ]
				}

			}
, 			{
				"patchline" : 				{
					"destination" : [ "obj-8", 0 ],
					"hidden" : 0,
					"midpoints" : [  ],
					"source" : [ "obj-28", 0 ]
				}

			}
, 			{
				"patchline" : 				{
					"destination" : [ "obj-17", 0 ],
					"hidden" : 0,
					"midpoints" : [  ],
					"source" : [ "obj-29", 0 ]
				}

			}
, 			{
				"patchline" : 				{
					"destination" : [ "obj-30", 0 ],
					"hidden" : 0,
					"midpoints" : [  ],
					"source" : [ "obj-29", 0 ]
				}

			}
, 			{
				"patchline" : 				{
					"destination" : [ "obj-4", 0 ],
					"hidden" : 0,
					"midpoints" : [  ],
					"source" : [ "obj-3", 0 ]
				}

			}
, 			{
				"patchline" : 				{
					"destination" : [ "obj-36", 1 ],
					"hidden" : 0,
					"midpoints" : [  ],
					"source" : [ "obj-30", 0 ]
				}

			}
, 			{
				"patchline" : 				{
					"destination" : [ "obj-38", 0 ],
					"hidden" : 0,
					"midpoints" : [  ],
					"source" : [ "obj-32", 0 ]
				}

			}
, 			{
				"patchline" : 				{
					"destination" : [ "obj-32", 0 ],
					"hidden" : 0,
					"midpoints" : [  ],
					"source" : [ "obj-33", 0 ]
				}

			}
, 			{
				"patchline" : 				{
					"destination" : [ "obj-38", 0 ],
					"hidden" : 0,
					"midpoints" : [  ],
					"source" : [ "obj-34", 0 ]
				}

			}
, 			{
				"patchline" : 				{
					"destination" : [ "obj-31", 0 ],
					"hidden" : 0,
					"midpoints" : [  ],
					"source" : [ "obj-35", 0 ]
				}

			}
, 			{
				"patchline" : 				{
					"destination" : [ "obj-27", 0 ],
					"hidden" : 0,
					"midpoints" : [  ],
					"source" : [ "obj-36", 0 ]
				}

			}
, 			{
				"patchline" : 				{
					"destination" : [ "obj-26", 0 ],
					"hidden" : 0,
					"midpoints" : [  ],
					"source" : [ "obj-37", 0 ]
				}

			}
, 			{
				"patchline" : 				{
					"destination" : [ "obj-12", 0 ],
					"hidden" : 0,
					"midpoints" : [  ],
					"source" : [ "obj-38", 1 ]
				}

			}
, 			{
				"patchline" : 				{
					"destination" : [ "obj-35", 0 ],
					"hidden" : 0,
					"midpoints" : [  ],
					"source" : [ "obj-38", 0 ]
				}

			}
, 			{
				"patchline" : 				{
					"destination" : [ "obj-11", 0 ],
					"hidden" : 0,
					"midpoints" : [  ],
					"source" : [ "obj-39", 0 ]
				}

			}
, 			{
				"patchline" : 				{
					"destination" : [ "obj-26", 0 ],
					"hidden" : 0,
					"midpoints" : [  ],
					"source" : [ "obj-4", 1 ]
				}

			}
, 			{
				"patchline" : 				{
					"destination" : [ "obj-27", 0 ],
					"hidden" : 0,
					"midpoints" : [  ],
					"source" : [ "obj-4", 0 ]
				}

			}
, 			{
				"patchline" : 				{
					"destination" : [ "obj-46", 0 ],
					"hidden" : 0,
					"midpoints" : [  ],
					"source" : [ "obj-4", 3 ]
				}

			}
, 			{
				"patchline" : 				{
					"destination" : [ "obj-47", 0 ],
					"hidden" : 0,
					"midpoints" : [  ],
					"source" : [ "obj-4", 2 ]
				}

			}
, 			{
				"patchline" : 				{
					"destination" : [ "obj-38", 1 ],
					"hidden" : 0,
					"midpoints" : [  ],
					"source" : [ "obj-40", 0 ]
				}

			}
, 			{
				"patchline" : 				{
					"destination" : [ "obj-46", 0 ],
					"hidden" : 0,
					"midpoints" : [  ],
					"source" : [ "obj-42", 0 ]
				}

			}
, 			{
				"patchline" : 				{
					"destination" : [ "obj-47", 0 ],
					"hidden" : 0,
					"midpoints" : [  ],
					"source" : [ "obj-43", 0 ]
				}

			}
, 			{
				"patchline" : 				{
					"destination" : [ "obj-35", 4 ],
					"hidden" : 0,
					"midpoints" : [  ],
					"source" : [ "obj-46", 0 ]
				}

			}
, 			{
				"patchline" : 				{
					"destination" : [ "obj-35", 3 ],
					"hidden" : 0,
					"midpoints" : [  ],
					"source" : [ "obj-47", 0 ]
				}

			}
, 			{
				"patchline" : 				{
					"destination" : [ "obj-26", 0 ],
					"hidden" : 0,
					"midpoints" : [  ],
					"source" : [ "obj-59", 0 ]
				}

			}
, 			{
				"patchline" : 				{
					"destination" : [ "obj-14", 0 ],
					"hidden" : 0,
					"midpoints" : [  ],
					"source" : [ "obj-8", 0 ]
				}

			}
 ],
		"parameters" : 		{
			"obj-46" : [ "out_max", "out_max", 0 ],
			"obj-47" : [ "out_min", "out_min", 0 ],
			"obj-11" : [ "live.text", "live.text", 0 ],
			"obj-27" : [ "in_min", "in_min", 0 ],
			"obj-26" : [ "in_max", "in_max", 0 ],
			"obj-8" : [ "live.text[1]", "live.text[1]", 0 ]
		}

	}

}
