max v2;#N vpatcher 308 155 668 507;#P comment 28 217 256 196622 noinlet-mono-multisample-player version 1. \, by Matt Wright;#N vpatcher 50 40 415 386;#P comment 39 180 307 196617 IN NO EVENT SHALL REGENTS BE LIABLE TO ANY PARTY FOR DIRECT \, INDIRECT \, SPECIAL \, INCIDENTAL \, OR CONSEQUENTIAL DAMAGES \, INCLUDING LOST PROFITS \, ARISING OUT OF THE USE OF THIS SOFTWARE AND ITS DOCUMENTATION \, EVEN IF REGENTS HAS BEEN ADVISED OF THE POSSIBILITY OF SUCH DAMAGE.;#P comment 39 244 307 196617 REGENTS SPECIFICALLY DISCLAIMS ANY WARRANTIES \, INCLUDING \, BUT NOT LIMITED TO \, THE IMPLIED WARRANTIES OF MERCHANTABILITY AND FITNESS FOR A PARTICULAR PURPOSE. THE SOFTWARE AND ACCOMPANYING DOCUMENTATION \, IF ANY \, PROVIDED HEREUNDER IS PROVIDED "AS IS". REGENTS HAS NO OBLIGATION TO PROVIDE MAINTENANCE \, SUPPORT \, UPDATES \, ENHANCEMENTS \, OR MODIFICATIONS.;#P comment 6 151 340 196617 Written by Matt Wright \, The Center for New Music and Audio Technologies \, University of California \, Berkeley.;#P comment 5 26 341 196617 Copyright (c) 1998. The Regents of the University of California (Regents). All Rights Reserved.;#P comment 6 53 340 196617 Permission to use \, copy \, modify \, and distribute this software and its documentation for educational \, research \, and not-for-profit purposes \, without fee and without a signed licensing agreement \, is hereby granted \, provided that the above copyright notice \, this paragraph and the following two paragraphs appear in all copies \, modifications \, and distributions. Contact The Office of Technology Licensing \, UC Berkeley \, 2150 Shattuck Avenue \, Suite 510 \, Berkeley \, CA 94720-1620 \, (510) 643-7201 \, for commercial licensing opportunities.;#P pop;#P newobj 37 270 109 196622 p copyright;#P newex 115 89 113 196622 r $1-envelope;#P comment 134 29 145 196622 This voice: $1;#P newex 211 118 46 196622 r inst;#P newex 148 118 60 196622 r bend;#P newex 19 29 87 196622 r $1-start;#P newex 67 60 80 196622 r $1-stop;#P newex 18 184 104 196622 send~ output;#P newex 19 153 204 196622 mono-multisample-player;#P connect 0 0 1 0;#P connect 3 0 0 0;#P connect 2 0 0 1;#P connect 7 0 0 2;#P connect 4 0 0 3;#P connect 5 0 0 4;#P pop;