max v2;#N vpatcher 128 82 730 591;#P window setfont "Sans Serif" 9.;#P newex 296 267 70 196617 prepend /coll;#N vpatcher 10 59 610 459;#P window setfont "Sans Serif" 9.;#P message 268 125 62 196617 enghorn.coll;#N coll enghorn.coll;#P newobj 55 104 81 196617 coll enghorn.coll;#N coll 158piano.coll;#P newobj 55 83 85 196617 coll 158piano.coll;#P message 297 162 68 196617 158piano.coll;#N coll enghorn-in-tune.coll;#P newobj 55 124 118 196617 coll enghorn-in-tune.coll;#P message 335 125 99 196617 enghorn-in-tune.coll;#P outlet 66 180 15 0;#P connect 6 0 0 0;#P connect 3 0 0 0;#P connect 1 0 0 0;#P pop;#P newobj 342 208 85 196617 p old_collections;#P message 436 208 117 196617 MMJ_Depot_Sounds.txt;#N coll MMJ_Depot_Sounds.txt;#P newobj 393 241 136 196617 coll MMJ_Depot_Sounds.txt;#N vpatcher 50 40 415 386;#P window setfont "Sans Serif" 9.;#P comment 39 180 307 196617 IN NO EVENT SHALL REGENTS BE LIABLE TO ANY PARTY FOR DIRECT \, INDIRECT \, SPECIAL \, INCIDENTAL \, OR CONSEQUENTIAL DAMAGES \, INCLUDING LOST PROFITS \, ARISING OUT OF THE USE OF THIS SOFTWARE AND ITS DOCUMENTATION \, EVEN IF REGENTS HAS BEEN ADVISED OF THE POSSIBILITY OF SUCH DAMAGE.;#P comment 39 244 307 196617 REGENTS SPECIFICALLY DISCLAIMS ANY WARRANTIES \, INCLUDING \, BUT NOT LIMITED TO \, THE IMPLIED WARRANTIES OF MERCHANTABILITY AND FITNESS FOR A PARTICULAR PURPOSE. THE SOFTWARE AND ACCOMPANYING DOCUMENTATION \, IF ANY \, PROVIDED HEREUNDER IS PROVIDED "AS IS." REGENTS HAS NO OBLIGATION TO PROVIDE MAINTENANCE \, SUPPORT \, UPDATES \, ENHANCEMENTS \, OR MODIFICATIONS.;#P comment 6 151 340 196617 Written by Matt Wright \, The Center for New Music and Audio Technologies \, University of California \, Berkeley.;#P comment 5 26 341 196617 Copyright (c) 1998. The Regents of the University of California (Regents). All Rights Reserved.;#P comment 6 53 340 196617 Permission to use \, copy \, modify \, and distribute this software and its documentation for educational \, research \, and not-for-profit purposes \, without fee and without a signed licensing agreement \, is hereby granted \, provided that the above copyright notice \, this paragraph and the following two paragraphs appear in all copies \, modifications \, and distributions. Contact The Office of Technology Licensing \, UC Berkeley \, 2150 Shattuck Avenue \, Suite 510 \, Berkeley \, CA 94720-1620 \, (510) 643-7201 \, for commercial licensing opportunities.;#P pop;#P newobj 138 366 59 196617 p copyright;#P window linecount 2;#P comment 136 341 143 196617 test mono-multisample-player version 1.2 \, by Matt Wright;#P window linecount 1;#P newex 114 88 92 196617 makenote 60 3000;#P window setfont "Sans Serif" 14.;#P number 51 218 35 14 0 0 0 3 0 0 0 221 221 221 222 222 222 0 0 0;#P window setfont "Sans Serif" 9.;#P newex 42 78 40 196617 notein;#P window setfont "Sans Serif" 14.;#P flonum 145 218 47 14 0 0 0 3 0 0 0 221 221 221 222 222 222 0 0 0;#P window setfont "Sans Serif" 18.;#P flonum 355 136 53 18 0 0 0 3 0 0 0 221 221 221 222 222 222 0 0 0;#P window setfont "Sans Serif" 9.;#P newex 300 136 27 196617 * 2.;#P newex 300 104 85 196617 MIDI-bend-scaler;#P newex 300 83 35 196617 bendin;#P newex 145 173 145 196617 expr $f1 * $f1 / (127.*127.);#P newex 51 149 49 196617 stripnote;#P newex 104 150 44 196617 select 0;#P newex 61 120 45 196617 poly 1 1;#P window setfont "Sans Serif" 14.;#P newex 296 297 63 196622 multibuf;#P user kslider 119 41 35 1 48 48 19 7 0 128 128 128 128 128 128 255 255 255 0 0 0 0 0 0;#P flonum 193 218 35 14 0 0 0 3 0 0 0 221 221 221 222 222 222 0 0 0;#P button 98 218 30 0;#P user gain~ 51 287 29 60 158 8 1.071519 7.94321 10.;#P window setfont "Sans Serif" 9.;#P newex 50 379 29 196617 dac~;#P toggle 23 341 26 0;#P window setfont "Sans Serif" 14.;#P newex 51 252 198 196622 mono-multisample-player;#P window setfont "Sans Serif" 9.;#P comment 355 122 58 196617 bend range;#P window linecount 3;#P comment 172 132 106 196617 Use square of midi velocity \, scaled to [0 \, 1] range \, for gain.;#P window linecount 2;#P comment 5 37 100 196617 You can play notes from MIDI...;#P window linecount 1;#P comment 127 21 130 196617 ... or from this "keyboard";#P connect 7 0 6 0;#P connect 5 0 6 0;#P connect 12 1 14 0;#P connect 14 0 22 0;#P connect 22 0 4 0;#P connect 4 0 7 0;#P connect 23 0 12 0;#P connect 21 0 12 0;#P connect 7 0 6 1;#P connect 12 2 14 1;#P connect 23 1 12 1;#P connect 21 1 12 1;#P connect 13 0 8 0;#P connect 8 0 4 1;#P connect 12 2 13 0;#P connect 10 0 23 0;#P connect 13 1 15 0;#P connect 15 0 20 0;#P connect 20 0 4 2;#P connect 10 1 23 1;#P connect 9 0 4 3;#P fasten 18 0 9 0 305 195 198 195;#P connect 28 0 4 4;#P connect 27 0 4 4;#P connect 28 0 29 0;#P connect 27 0 29 0;#P connect 29 0 11 0;#P connect 16 0 17 0;#P connect 17 0 18 0;#P connect 19 0 18 1;#P pop;