{
	"patcher" : 	{
		"fileversion" : 1,
		"rect" : [ 35.0, 44.0, 893.0, 529.0 ],
		"bgcolor" : [ 0.392157, 0.392157, 0.588235, 1.0 ],
		"bglocked" : 0,
		"defrect" : [ 35.0, 44.0, 893.0, 529.0 ],
		"openrect" : [ 0.0, 0.0, 0.0, 0.0 ],
		"openinpresentation" : 0,
		"default_fontsize" : 12.0,
		"default_fontface" : 0,
		"default_fontname" : "Arial",
		"gridonopen" : 0,
		"gridsize" : [ 15.0, 15.0 ],
		"gridsnaponopen" : 0,
		"toolbarvisible" : 1,
		"boxanimatetime" : 200,
		"imprint" : 0,
		"boxes" : [ 			{
				"box" : 				{
					"maxclass" : "newobj",
					"text" : "prepend set",
					"fontname" : "Arial",
					"hidden" : 1,
					"numinlets" : 1,
					"patching_rect" : [ 454.0, 636.0, 62.0, 17.0 ],
					"numoutlets" : 1,
					"fontsize" : 9.0,
					"outlettype" : [ "" ],
					"id" : "obj-1"
				}

			}
, 			{
				"box" : 				{
					"maxclass" : "newobj",
					"text" : "prepend set",
					"fontname" : "Arial",
					"hidden" : 1,
					"numinlets" : 1,
					"patching_rect" : [ 333.0, 635.0, 62.0, 17.0 ],
					"numoutlets" : 1,
					"fontsize" : 9.0,
					"outlettype" : [ "" ],
					"id" : "obj-2"
				}

			}
, 			{
				"box" : 				{
					"maxclass" : "message",
					"text" : "autowatch 1",
					"fontname" : "Arial",
					"hidden" : 1,
					"numinlets" : 2,
					"patching_rect" : [ 338.0, 1.0, 65.0, 15.0 ],
					"numoutlets" : 1,
					"fontsize" : 9.0,
					"outlettype" : [ "" ],
					"id" : "obj-3"
				}

			}
, 			{
				"box" : 				{
					"maxclass" : "message",
					"text" : "Reset partial amplitudes",
					"fontname" : "Arial",
					"numinlets" : 2,
					"patching_rect" : [ 202.0, 454.0, 119.0, 15.0 ],
					"numoutlets" : 1,
					"fontsize" : 9.0,
					"outlettype" : [ "" ],
					"id" : "obj-4"
				}

			}
, 			{
				"box" : 				{
					"maxclass" : "newobj",
					"text" : "t 1 b",
					"fontname" : "Arial",
					"hidden" : 1,
					"numinlets" : 1,
					"patching_rect" : [ 109.0, 578.0, 31.0, 17.0 ],
					"numoutlets" : 2,
					"fontsize" : 9.0,
					"outlettype" : [ "int", "bang" ],
					"id" : "obj-5"
				}

			}
, 			{
				"box" : 				{
					"maxclass" : "comment",
					"text" : "12",
					"linecount" : 2,
					"fontname" : "Arial",
					"numinlets" : 1,
					"patching_rect" : [ 463.0, 429.0, 18.0, 27.0 ],
					"frgb" : [ 0.0, 0.0, 0.0, 1.0 ],
					"numoutlets" : 0,
					"fontsize" : 9.0,
					"id" : "obj-6"
				}

			}
, 			{
				"box" : 				{
					"maxclass" : "comment",
					"text" : "11",
					"linecount" : 2,
					"fontname" : "Arial",
					"numinlets" : 1,
					"patching_rect" : [ 446.0, 429.0, 17.0, 27.0 ],
					"frgb" : [ 0.0, 0.0, 0.0, 1.0 ],
					"numoutlets" : 0,
					"fontsize" : 9.0,
					"id" : "obj-7"
				}

			}
, 			{
				"box" : 				{
					"maxclass" : "comment",
					"text" : "10",
					"linecount" : 2,
					"fontname" : "Arial",
					"numinlets" : 1,
					"patching_rect" : [ 427.0, 429.0, 17.0, 27.0 ],
					"frgb" : [ 0.0, 0.0, 0.0, 1.0 ],
					"numoutlets" : 0,
					"fontsize" : 9.0,
					"id" : "obj-8"
				}

			}
, 			{
				"box" : 				{
					"maxclass" : "comment",
					"text" : "9",
					"fontname" : "Arial",
					"numinlets" : 1,
					"patching_rect" : [ 412.0, 429.0, 16.0, 17.0 ],
					"frgb" : [ 0.0, 0.0, 0.0, 1.0 ],
					"numoutlets" : 0,
					"fontsize" : 9.0,
					"id" : "obj-9"
				}

			}
, 			{
				"box" : 				{
					"maxclass" : "comment",
					"text" : "8",
					"fontname" : "Arial",
					"numinlets" : 1,
					"patching_rect" : [ 393.0, 429.0, 16.0, 17.0 ],
					"frgb" : [ 0.0, 0.0, 0.0, 1.0 ],
					"numoutlets" : 0,
					"fontsize" : 9.0,
					"id" : "obj-10"
				}

			}
, 			{
				"box" : 				{
					"maxclass" : "comment",
					"text" : "7",
					"fontname" : "Arial",
					"numinlets" : 1,
					"patching_rect" : [ 375.0, 429.0, 16.0, 17.0 ],
					"frgb" : [ 0.0, 0.0, 0.0, 1.0 ],
					"numoutlets" : 0,
					"fontsize" : 9.0,
					"id" : "obj-11"
				}

			}
, 			{
				"box" : 				{
					"maxclass" : "comment",
					"text" : "6",
					"fontname" : "Arial",
					"numinlets" : 1,
					"patching_rect" : [ 357.0, 429.0, 16.0, 17.0 ],
					"frgb" : [ 0.0, 0.0, 0.0, 1.0 ],
					"numoutlets" : 0,
					"fontsize" : 9.0,
					"id" : "obj-12"
				}

			}
, 			{
				"box" : 				{
					"maxclass" : "comment",
					"text" : "5",
					"fontname" : "Arial",
					"numinlets" : 1,
					"patching_rect" : [ 339.0, 429.0, 16.0, 17.0 ],
					"frgb" : [ 0.0, 0.0, 0.0, 1.0 ],
					"numoutlets" : 0,
					"fontsize" : 9.0,
					"id" : "obj-13"
				}

			}
, 			{
				"box" : 				{
					"maxclass" : "comment",
					"text" : "4",
					"fontname" : "Arial",
					"numinlets" : 1,
					"patching_rect" : [ 320.0, 429.0, 16.0, 17.0 ],
					"frgb" : [ 0.0, 0.0, 0.0, 1.0 ],
					"numoutlets" : 0,
					"fontsize" : 9.0,
					"id" : "obj-14"
				}

			}
, 			{
				"box" : 				{
					"maxclass" : "comment",
					"text" : "3",
					"fontname" : "Arial",
					"numinlets" : 1,
					"patching_rect" : [ 302.0, 429.0, 16.0, 17.0 ],
					"frgb" : [ 0.0, 0.0, 0.0, 1.0 ],
					"numoutlets" : 0,
					"fontsize" : 9.0,
					"id" : "obj-15"
				}

			}
, 			{
				"box" : 				{
					"maxclass" : "comment",
					"text" : "2",
					"fontname" : "Arial",
					"numinlets" : 1,
					"patching_rect" : [ 284.0, 429.0, 16.0, 17.0 ],
					"frgb" : [ 0.0, 0.0, 0.0, 1.0 ],
					"numoutlets" : 0,
					"fontsize" : 9.0,
					"id" : "obj-16"
				}

			}
, 			{
				"box" : 				{
					"maxclass" : "comment",
					"text" : "1",
					"fontname" : "Arial",
					"numinlets" : 1,
					"patching_rect" : [ 266.0, 429.0, 16.0, 17.0 ],
					"frgb" : [ 0.0, 0.0, 0.0, 1.0 ],
					"numoutlets" : 0,
					"fontsize" : 9.0,
					"id" : "obj-17"
				}

			}
, 			{
				"box" : 				{
					"maxclass" : "comment",
					"text" : "12",
					"linecount" : 2,
					"fontname" : "Arial",
					"numinlets" : 1,
					"patching_rect" : [ 240.0, 429.0, 18.0, 27.0 ],
					"frgb" : [ 0.0, 0.0, 0.0, 1.0 ],
					"numoutlets" : 0,
					"fontsize" : 9.0,
					"id" : "obj-18"
				}

			}
, 			{
				"box" : 				{
					"maxclass" : "comment",
					"text" : "11",
					"linecount" : 2,
					"fontname" : "Arial",
					"numinlets" : 1,
					"patching_rect" : [ 223.0, 429.0, 17.0, 27.0 ],
					"frgb" : [ 0.0, 0.0, 0.0, 1.0 ],
					"numoutlets" : 0,
					"fontsize" : 9.0,
					"id" : "obj-19"
				}

			}
, 			{
				"box" : 				{
					"maxclass" : "comment",
					"text" : "10",
					"linecount" : 2,
					"fontname" : "Arial",
					"numinlets" : 1,
					"patching_rect" : [ 204.0, 429.0, 17.0, 27.0 ],
					"frgb" : [ 0.0, 0.0, 0.0, 1.0 ],
					"numoutlets" : 0,
					"fontsize" : 9.0,
					"id" : "obj-20"
				}

			}
, 			{
				"box" : 				{
					"maxclass" : "comment",
					"text" : "9",
					"fontname" : "Arial",
					"numinlets" : 1,
					"patching_rect" : [ 189.0, 429.0, 16.0, 17.0 ],
					"frgb" : [ 0.0, 0.0, 0.0, 1.0 ],
					"numoutlets" : 0,
					"fontsize" : 9.0,
					"id" : "obj-21"
				}

			}
, 			{
				"box" : 				{
					"maxclass" : "comment",
					"text" : "8",
					"fontname" : "Arial",
					"numinlets" : 1,
					"patching_rect" : [ 170.0, 429.0, 16.0, 17.0 ],
					"frgb" : [ 0.0, 0.0, 0.0, 1.0 ],
					"numoutlets" : 0,
					"fontsize" : 9.0,
					"id" : "obj-22"
				}

			}
, 			{
				"box" : 				{
					"maxclass" : "comment",
					"text" : "7",
					"fontname" : "Arial",
					"numinlets" : 1,
					"patching_rect" : [ 152.0, 429.0, 16.0, 17.0 ],
					"frgb" : [ 0.0, 0.0, 0.0, 1.0 ],
					"numoutlets" : 0,
					"fontsize" : 9.0,
					"id" : "obj-23"
				}

			}
, 			{
				"box" : 				{
					"maxclass" : "comment",
					"text" : "6",
					"fontname" : "Arial",
					"numinlets" : 1,
					"patching_rect" : [ 134.0, 429.0, 16.0, 17.0 ],
					"frgb" : [ 0.0, 0.0, 0.0, 1.0 ],
					"numoutlets" : 0,
					"fontsize" : 9.0,
					"id" : "obj-24"
				}

			}
, 			{
				"box" : 				{
					"maxclass" : "comment",
					"text" : "5",
					"fontname" : "Arial",
					"numinlets" : 1,
					"patching_rect" : [ 116.0, 429.0, 16.0, 17.0 ],
					"frgb" : [ 0.0, 0.0, 0.0, 1.0 ],
					"numoutlets" : 0,
					"fontsize" : 9.0,
					"id" : "obj-25"
				}

			}
, 			{
				"box" : 				{
					"maxclass" : "comment",
					"text" : "4",
					"fontname" : "Arial",
					"numinlets" : 1,
					"patching_rect" : [ 97.0, 429.0, 16.0, 17.0 ],
					"frgb" : [ 0.0, 0.0, 0.0, 1.0 ],
					"numoutlets" : 0,
					"fontsize" : 9.0,
					"id" : "obj-26"
				}

			}
, 			{
				"box" : 				{
					"maxclass" : "comment",
					"text" : "3",
					"fontname" : "Arial",
					"numinlets" : 1,
					"patching_rect" : [ 79.0, 429.0, 16.0, 17.0 ],
					"frgb" : [ 0.0, 0.0, 0.0, 1.0 ],
					"numoutlets" : 0,
					"fontsize" : 9.0,
					"id" : "obj-27"
				}

			}
, 			{
				"box" : 				{
					"maxclass" : "comment",
					"text" : "2",
					"fontname" : "Arial",
					"numinlets" : 1,
					"patching_rect" : [ 61.0, 429.0, 16.0, 17.0 ],
					"frgb" : [ 0.0, 0.0, 0.0, 1.0 ],
					"numoutlets" : 0,
					"fontsize" : 9.0,
					"id" : "obj-28"
				}

			}
, 			{
				"box" : 				{
					"maxclass" : "newobj",
					"text" : "t b",
					"fontname" : "Arial",
					"hidden" : 1,
					"numinlets" : 1,
					"patching_rect" : [ 656.0, -43.0, 20.0, 17.0 ],
					"numoutlets" : 1,
					"fontsize" : 9.0,
					"outlettype" : [ "bang" ],
					"id" : "obj-29"
				}

			}
, 			{
				"box" : 				{
					"maxclass" : "newobj",
					"text" : "pcontrol",
					"fontname" : "Arial",
					"hidden" : 1,
					"numinlets" : 1,
					"patching_rect" : [ 688.0, -23.0, 47.0, 17.0 ],
					"numoutlets" : 1,
					"fontsize" : 9.0,
					"outlettype" : [ "" ],
					"id" : "obj-30"
				}

			}
, 			{
				"box" : 				{
					"maxclass" : "message",
					"text" : "open",
					"fontname" : "Arial",
					"hidden" : 1,
					"numinlets" : 2,
					"patching_rect" : [ 656.0, -23.0, 30.0, 15.0 ],
					"numoutlets" : 1,
					"fontsize" : 9.0,
					"outlettype" : [ "" ],
					"id" : "obj-31"
				}

			}
, 			{
				"box" : 				{
					"maxclass" : "message",
					"text" : "HELP!",
					"linecount" : 2,
					"fontname" : "Arial",
					"numinlets" : 2,
					"patching_rect" : [ 776.0, 67.0, 60.0, 46.0 ],
					"numoutlets" : 1,
					"fontsize" : 18.0,
					"outlettype" : [ "" ],
					"id" : "obj-32"
				}

			}
, 			{
				"box" : 				{
					"maxclass" : "message",
					"text" : "Documentation",
					"fontname" : "Arial",
					"numinlets" : 2,
					"patching_rect" : [ 635.0, 67.0, 138.0, 25.0 ],
					"numoutlets" : 1,
					"fontsize" : 18.0,
					"outlettype" : [ "" ],
					"id" : "obj-33"
				}

			}
, 			{
				"box" : 				{
					"maxclass" : "newobj",
					"text" : "t b",
					"fontname" : "Arial",
					"hidden" : 1,
					"numinlets" : 1,
					"patching_rect" : [ 572.0, -43.0, 20.0, 17.0 ],
					"numoutlets" : 1,
					"fontsize" : 9.0,
					"outlettype" : [ "bang" ],
					"id" : "obj-34"
				}

			}
, 			{
				"box" : 				{
					"maxclass" : "newobj",
					"text" : "pcontrol",
					"fontname" : "Arial",
					"hidden" : 1,
					"numinlets" : 1,
					"patching_rect" : [ 604.0, -23.0, 47.0, 17.0 ],
					"numoutlets" : 1,
					"fontsize" : 9.0,
					"outlettype" : [ "" ],
					"id" : "obj-35"
				}

			}
, 			{
				"box" : 				{
					"maxclass" : "message",
					"text" : "open",
					"fontname" : "Arial",
					"hidden" : 1,
					"numinlets" : 2,
					"patching_rect" : [ 572.0, -23.0, 30.0, 15.0 ],
					"numoutlets" : 1,
					"fontsize" : 9.0,
					"outlettype" : [ "" ],
					"id" : "obj-36"
				}

			}
, 			{
				"box" : 				{
					"maxclass" : "newobj",
					"text" : "p help",
					"fontname" : "Arial",
					"hidden" : 1,
					"numinlets" : 1,
					"patching_rect" : [ 688.0, -4.0, 36.0, 17.0 ],
					"numoutlets" : 0,
					"fontsize" : 9.0,
					"id" : "obj-37",
					"patcher" : 					{
						"fileversion" : 1,
						"rect" : [ 553.0, 420.0, 600.0, 426.0 ],
						"bglocked" : 0,
						"defrect" : [ 553.0, 420.0, 600.0, 426.0 ],
						"openrect" : [ 0.0, 0.0, 0.0, 0.0 ],
						"openinpresentation" : 0,
						"default_fontsize" : 12.0,
						"default_fontface" : 0,
						"default_fontname" : "Arial",
						"gridonopen" : 0,
						"gridsize" : [ 15.0, 15.0 ],
						"gridsnaponopen" : 0,
						"toolbarvisible" : 1,
						"boxanimatetime" : 200,
						"imprint" : 0,
						"boxes" : [ 							{
								"box" : 								{
									"maxclass" : "inlet",
									"numinlets" : 0,
									"patching_rect" : [ 20.0, 37.0, 15.0, 15.0 ],
									"numoutlets" : 1,
									"outlettype" : [ "" ],
									"id" : "obj-1",
									"comment" : ""
								}

							}
 ],
						"lines" : [  ]
					}
,
					"saved_object_attributes" : 					{
						"default_fontname" : "Arial",
						"fontname" : "Arial",
						"default_fontsize" : 12.0,
						"globalpatchername" : "",
						"fontface" : 0,
						"fontsize" : 12.0,
						"default_fontface" : 0
					}

				}

			}
, 			{
				"box" : 				{
					"maxclass" : "newobj",
					"text" : "p documentation",
					"fontname" : "Arial",
					"hidden" : 1,
					"numinlets" : 1,
					"patching_rect" : [ 604.0, -4.0, 82.0, 17.0 ],
					"numoutlets" : 0,
					"fontsize" : 9.0,
					"id" : "obj-38",
					"patcher" : 					{
						"fileversion" : 1,
						"rect" : [ 553.0, 420.0, 600.0, 426.0 ],
						"bglocked" : 0,
						"defrect" : [ 553.0, 420.0, 600.0, 426.0 ],
						"openrect" : [ 0.0, 0.0, 0.0, 0.0 ],
						"openinpresentation" : 0,
						"default_fontsize" : 12.0,
						"default_fontface" : 0,
						"default_fontname" : "Arial",
						"gridonopen" : 0,
						"gridsize" : [ 15.0, 15.0 ],
						"gridsnaponopen" : 0,
						"toolbarvisible" : 1,
						"boxanimatetime" : 200,
						"imprint" : 0,
						"boxes" : [ 							{
								"box" : 								{
									"maxclass" : "inlet",
									"numinlets" : 0,
									"patching_rect" : [ 32.0, 40.0, 15.0, 15.0 ],
									"numoutlets" : 1,
									"outlettype" : [ "" ],
									"id" : "obj-1",
									"comment" : ""
								}

							}
 ],
						"lines" : [  ]
					}
,
					"saved_object_attributes" : 					{
						"default_fontname" : "Arial",
						"fontname" : "Arial",
						"default_fontsize" : 12.0,
						"globalpatchername" : "",
						"fontface" : 0,
						"fontsize" : 12.0,
						"default_fontface" : 0
					}

				}

			}
, 			{
				"box" : 				{
					"maxclass" : "button",
					"hidden" : 1,
					"numinlets" : 1,
					"patching_rect" : [ 272.0, -42.0, 15.0, 15.0 ],
					"numoutlets" : 1,
					"outlettype" : [ "bang" ],
					"id" : "obj-39"
				}

			}
, 			{
				"box" : 				{
					"maxclass" : "message",
					"text" : "Demo",
					"fontname" : "Arial",
					"numinlets" : 2,
					"patching_rect" : [ 571.0, 67.0, 61.0, 25.0 ],
					"bgcolor" : [ 0.8, 0.611765, 0.380392, 1.0 ],
					"numoutlets" : 1,
					"fontsize" : 18.0,
					"outlettype" : [ "" ],
					"id" : "obj-40"
				}

			}
, 			{
				"box" : 				{
					"maxclass" : "message",
					"text" : "220, 880 30000",
					"fontname" : "Arial",
					"hidden" : 1,
					"numinlets" : 2,
					"patching_rect" : [ 272.0, -24.0, 86.0, 15.0 ],
					"numoutlets" : 1,
					"fontsize" : 9.0,
					"outlettype" : [ "" ],
					"id" : "obj-41"
				}

			}
, 			{
				"box" : 				{
					"maxclass" : "newobj",
					"text" : "line 1",
					"fontname" : "Arial",
					"hidden" : 1,
					"numinlets" : 3,
					"patching_rect" : [ 272.0, -6.0, 40.0, 17.0 ],
					"numoutlets" : 2,
					"fontsize" : 9.0,
					"outlettype" : [ "", "" ],
					"id" : "obj-42"
				}

			}
, 			{
				"box" : 				{
					"maxclass" : "newobj",
					"text" : "+ 1",
					"fontname" : "Arial",
					"hidden" : 1,
					"numinlets" : 2,
					"patching_rect" : [ 985.0, 347.0, 27.0, 17.0 ],
					"numoutlets" : 1,
					"fontsize" : 9.0,
					"outlettype" : [ "int" ],
					"id" : "obj-43"
				}

			}
, 			{
				"box" : 				{
					"maxclass" : "newobj",
					"text" : "- 12",
					"fontname" : "Arial",
					"hidden" : 1,
					"numinlets" : 2,
					"patching_rect" : [ 959.0, 309.0, 30.0, 17.0 ],
					"numoutlets" : 1,
					"fontsize" : 9.0,
					"outlettype" : [ "int" ],
					"id" : "obj-44"
				}

			}
, 			{
				"box" : 				{
					"maxclass" : "newobj",
					"text" : "ftom",
					"fontname" : "Arial",
					"hidden" : 1,
					"numinlets" : 1,
					"patching_rect" : [ 1029.0, 256.0, 31.0, 17.0 ],
					"numoutlets" : 1,
					"fontsize" : 9.0,
					"outlettype" : [ "" ],
					"id" : "obj-45"
				}

			}
, 			{
				"box" : 				{
					"maxclass" : "comment",
					"text" : "Copyright info and stuff",
					"fontname" : "Arial",
					"numinlets" : 1,
					"patching_rect" : [ 706.0, 426.0, 116.0, 17.0 ],
					"frgb" : [ 0.0, 0.0, 0.0, 1.0 ],
					"numoutlets" : 0,
					"fontsize" : 9.0,
					"id" : "obj-46"
				}

			}
, 			{
				"box" : 				{
					"maxclass" : "fpic",
					"numinlets" : 1,
					"embed" : 1,
					"patching_rect" : [ 596.0, 390.0, 109.0, 48.0 ],
					"numoutlets" : 0,
					"id" : "obj-47",
					"data" : [ 593, "", "IBkSG0fBZn....PCIgDQRA...zF....LHX....vFnS+e....DLmPIQEBHf.B7g.YHB..BfPRDEDU3wY6bEsiCCBCKLc+++xbOwItcqkVHN1oGVZZRSCWZbLgNfUp0Z01HU3K1cfMLqTJC+N8dqOJZ2kjQs0Cy7Sk2qDqaeuV6esBIWssWky6bs9Oy6qO8gH.RtmAn5O2k2Yb0SWSalKVuE2KffyYwrIBm0++DmmJZpDLx.NpFFBG8epo4IVovKR7deHaImPEMTPsfLpYfdDfKZQ31Tv8FIBwoolyvSDsKyLhCOxxcftdVDIngIZnCNLRBXk3QchHOsZQQUFHTQSsZaqzeXlvQeJ+Qdyi7ZEYBY3hlm2brpqwdXc5NMy3GDVEQOrOEQSgZay1GTHASBmlY3CFn3mQBHMQyqa1HqqofKyLxNMEd.4U.qg4kY3wHwrKfqJftn4gaajHfHfybxTzEMD3ouzORHZYq1F6GYQBQKRb2.thaMAYDsUcaG0d0csy.YDMEghtLyDSzxVsMVPJQyLeEtUbJp5xLavlUMaY5n1bndBO5e+xogbsthpsHfJ2KGdpY73hfjiQbGc6tB7lix9jflOH2DQ1XL1hVBwVzRH1hVBwVzRH1hVBws+KoX0mPXzuH.5spcV4um2ScZ0Z8mWdidNQehZP0+QFaNi6gCOVJkTtmAabiLgqEWP7O1P+6uC5G0ITBWi6mxgtnGCEMTCAzPV2bosQfXrpBzVZldtQu6oxF+i3b+CFmP7MQ+TMlEbQ3RG.....IUjSD4pPfIH" ]
				}

			}
, 			{
				"box" : 				{
					"maxclass" : "message",
					"text" : "0",
					"fontname" : "Arial",
					"hidden" : 1,
					"numinlets" : 2,
					"patching_rect" : [ 558.0, -2.0, 16.0, 15.0 ],
					"numoutlets" : 1,
					"fontsize" : 9.0,
					"outlettype" : [ "" ],
					"id" : "obj-48"
				}

			}
, 			{
				"box" : 				{
					"maxclass" : "button",
					"hidden" : 1,
					"numinlets" : 1,
					"patching_rect" : [ 427.0, -40.0, 15.0, 15.0 ],
					"numoutlets" : 1,
					"outlettype" : [ "bang" ],
					"id" : "obj-49"
				}

			}
, 			{
				"box" : 				{
					"maxclass" : "newobj",
					"text" : "prepend 1",
					"fontname" : "Arial",
					"hidden" : 1,
					"numinlets" : 1,
					"patching_rect" : [ 54.0, 528.0, 54.0, 17.0 ],
					"numoutlets" : 1,
					"fontsize" : 9.0,
					"outlettype" : [ "" ],
					"id" : "obj-50"
				}

			}
, 			{
				"box" : 				{
					"maxclass" : "newobj",
					"text" : "prepend 1",
					"fontname" : "Arial",
					"hidden" : 1,
					"numinlets" : 1,
					"patching_rect" : [ 319.0, 537.0, 54.0, 17.0 ],
					"numoutlets" : 1,
					"fontsize" : 9.0,
					"outlettype" : [ "" ],
					"id" : "obj-51"
				}

			}
, 			{
				"box" : 				{
					"maxclass" : "newobj",
					"text" : "sel 0 1",
					"fontname" : "Arial",
					"hidden" : 1,
					"numinlets" : 1,
					"patching_rect" : [ 257.0, 518.0, 41.0, 17.0 ],
					"numoutlets" : 3,
					"fontsize" : 9.0,
					"outlettype" : [ "bang", "bang", "" ],
					"id" : "obj-52"
				}

			}
, 			{
				"box" : 				{
					"maxclass" : "newobj",
					"text" : "p expRollOff",
					"fontname" : "Arial",
					"hidden" : 1,
					"numinlets" : 1,
					"patching_rect" : [ 109.0, 546.0, 65.0, 17.0 ],
					"numoutlets" : 1,
					"fontsize" : 9.0,
					"outlettype" : [ "" ],
					"id" : "obj-53",
					"patcher" : 					{
						"fileversion" : 1,
						"rect" : [ 49.0, 74.0, 600.0, 426.0 ],
						"bglocked" : 0,
						"defrect" : [ 49.0, 74.0, 600.0, 426.0 ],
						"openrect" : [ 0.0, 0.0, 0.0, 0.0 ],
						"openinpresentation" : 0,
						"default_fontsize" : 12.0,
						"default_fontface" : 0,
						"default_fontname" : "Arial",
						"gridonopen" : 0,
						"gridsize" : [ 15.0, 15.0 ],
						"gridsnaponopen" : 0,
						"toolbarvisible" : 1,
						"boxanimatetime" : 200,
						"imprint" : 0,
						"boxes" : [ 							{
								"box" : 								{
									"maxclass" : "outlet",
									"numinlets" : 1,
									"patching_rect" : [ 124.0, 178.0, 15.0, 15.0 ],
									"numoutlets" : 0,
									"id" : "obj-1",
									"comment" : ""
								}

							}
, 							{
								"box" : 								{
									"maxclass" : "inlet",
									"numinlets" : 0,
									"patching_rect" : [ 124.0, 44.0, 15.0, 15.0 ],
									"numoutlets" : 1,
									"outlettype" : [ "bang" ],
									"id" : "obj-2",
									"comment" : ""
								}

							}
, 							{
								"box" : 								{
									"maxclass" : "newobj",
									"text" : "prepend 1",
									"fontname" : "Arial",
									"numinlets" : 1,
									"patching_rect" : [ 124.0, 153.0, 54.0, 17.0 ],
									"numoutlets" : 1,
									"fontsize" : 9.0,
									"outlettype" : [ "" ],
									"id" : "obj-3"
								}

							}
, 							{
								"box" : 								{
									"maxclass" : "newobj",
									"text" : "zl group 12",
									"fontname" : "Arial",
									"numinlets" : 2,
									"patching_rect" : [ 124.0, 129.0, 61.0, 17.0 ],
									"numoutlets" : 2,
									"fontsize" : 9.0,
									"outlettype" : [ "", "" ],
									"id" : "obj-4"
								}

							}
, 							{
								"box" : 								{
									"maxclass" : "newobj",
									"text" : "!/ 1.",
									"fontname" : "Arial",
									"numinlets" : 2,
									"patching_rect" : [ 124.0, 106.0, 31.0, 17.0 ],
									"numoutlets" : 1,
									"fontsize" : 9.0,
									"outlettype" : [ "float" ],
									"id" : "obj-5"
								}

							}
, 							{
								"box" : 								{
									"maxclass" : "newobj",
									"text" : "counter 1 12",
									"fontname" : "Arial",
									"numinlets" : 5,
									"patching_rect" : [ 124.0, 86.0, 68.0, 17.0 ],
									"numoutlets" : 4,
									"fontsize" : 9.0,
									"outlettype" : [ "int", "", "", "int" ],
									"id" : "obj-6"
								}

							}
, 							{
								"box" : 								{
									"maxclass" : "newobj",
									"text" : "uzi 12",
									"fontname" : "Arial",
									"numinlets" : 2,
									"patching_rect" : [ 124.0, 66.0, 40.0, 17.0 ],
									"numoutlets" : 3,
									"fontsize" : 9.0,
									"outlettype" : [ "bang", "bang", "int" ],
									"id" : "obj-7"
								}

							}
 ],
						"lines" : [ 							{
								"patchline" : 								{
									"source" : [ "obj-2", 0 ],
									"destination" : [ "obj-7", 0 ],
									"hidden" : 0,
									"midpoints" : [  ]
								}

							}
, 							{
								"patchline" : 								{
									"source" : [ "obj-7", 0 ],
									"destination" : [ "obj-6", 0 ],
									"hidden" : 0,
									"midpoints" : [  ]
								}

							}
, 							{
								"patchline" : 								{
									"source" : [ "obj-6", 0 ],
									"destination" : [ "obj-5", 0 ],
									"hidden" : 0,
									"midpoints" : [  ]
								}

							}
, 							{
								"patchline" : 								{
									"source" : [ "obj-5", 0 ],
									"destination" : [ "obj-4", 0 ],
									"hidden" : 0,
									"midpoints" : [  ]
								}

							}
, 							{
								"patchline" : 								{
									"source" : [ "obj-4", 0 ],
									"destination" : [ "obj-3", 0 ],
									"hidden" : 0,
									"midpoints" : [  ]
								}

							}
, 							{
								"patchline" : 								{
									"source" : [ "obj-3", 0 ],
									"destination" : [ "obj-1", 0 ],
									"hidden" : 0,
									"midpoints" : [  ]
								}

							}
 ]
					}
,
					"saved_object_attributes" : 					{
						"default_fontname" : "Arial",
						"fontname" : "Arial",
						"default_fontsize" : 12.0,
						"globalpatchername" : "",
						"fontface" : 0,
						"fontsize" : 12.0,
						"default_fontface" : 0
					}

				}

			}
, 			{
				"box" : 				{
					"maxclass" : "message",
					"text" : "set 1 0 2 0 3 0 4 0 5 0 6 0 7 0 8 0 9 0 10 0 11 0 12 0",
					"fontname" : "Arial",
					"hidden" : 1,
					"numinlets" : 2,
					"patching_rect" : [ 235.0, 559.0, 258.0, 15.0 ],
					"numoutlets" : 1,
					"fontsize" : 9.0,
					"outlettype" : [ "" ],
					"id" : "obj-54"
				}

			}
, 			{
				"box" : 				{
					"maxclass" : "message",
					"text" : "1",
					"fontname" : "Arial",
					"hidden" : 1,
					"numinlets" : 2,
					"patching_rect" : [ 272.0, 540.0, 16.0, 15.0 ],
					"numoutlets" : 1,
					"fontsize" : 9.0,
					"outlettype" : [ "" ],
					"id" : "obj-55"
				}

			}
, 			{
				"box" : 				{
					"maxclass" : "newobj",
					"text" : "coll",
					"fontname" : "Arial",
					"hidden" : 1,
					"numinlets" : 1,
					"patching_rect" : [ 269.0, 584.0, 53.0, 17.0 ],
					"numoutlets" : 4,
					"fontsize" : 9.0,
					"outlettype" : [ "", "", "", "" ],
					"id" : "obj-56",
					"saved_object_attributes" : 					{
						"embed" : 0
					}

				}

			}
, 			{
				"box" : 				{
					"maxclass" : "newobj",
					"text" : "coll",
					"fontname" : "Arial",
					"hidden" : 1,
					"numinlets" : 1,
					"patching_rect" : [ 45.0, 567.0, 53.0, 17.0 ],
					"numoutlets" : 4,
					"fontsize" : 9.0,
					"outlettype" : [ "", "", "", "" ],
					"id" : "obj-57",
					"saved_object_attributes" : 					{
						"embed" : 0
					}

				}

			}
, 			{
				"box" : 				{
					"maxclass" : "message",
					"text" : "900",
					"fontname" : "Arial",
					"hidden" : 1,
					"numinlets" : 2,
					"patching_rect" : [ 529.0, -2.0, 26.0, 15.0 ],
					"numoutlets" : 1,
					"fontsize" : 9.0,
					"outlettype" : [ "" ],
					"id" : "obj-58"
				}

			}
, 			{
				"box" : 				{
					"maxclass" : "message",
					"text" : "200",
					"fontname" : "Arial",
					"hidden" : 1,
					"numinlets" : 2,
					"patching_rect" : [ 501.0, -2.0, 26.0, 15.0 ],
					"numoutlets" : 1,
					"fontsize" : 9.0,
					"outlettype" : [ "" ],
					"id" : "obj-59"
				}

			}
, 			{
				"box" : 				{
					"maxclass" : "message",
					"text" : "1.",
					"fontname" : "Arial",
					"hidden" : 1,
					"numinlets" : 2,
					"patching_rect" : [ 482.0, -2.0, 17.0, 15.0 ],
					"numoutlets" : 1,
					"fontsize" : 9.0,
					"outlettype" : [ "" ],
					"id" : "obj-60"
				}

			}
, 			{
				"box" : 				{
					"maxclass" : "message",
					"text" : "440",
					"fontname" : "Arial",
					"hidden" : 1,
					"numinlets" : 2,
					"patching_rect" : [ 454.0, -2.0, 26.0, 15.0 ],
					"numoutlets" : 1,
					"fontsize" : 9.0,
					"outlettype" : [ "" ],
					"id" : "obj-61"
				}

			}
, 			{
				"box" : 				{
					"maxclass" : "message",
					"text" : "220",
					"fontname" : "Arial",
					"hidden" : 1,
					"numinlets" : 2,
					"patching_rect" : [ 427.0, -2.0, 26.0, 15.0 ],
					"numoutlets" : 1,
					"fontsize" : 9.0,
					"outlettype" : [ "" ],
					"id" : "obj-62"
				}

			}
, 			{
				"box" : 				{
					"maxclass" : "newobj",
					"text" : "loadbang",
					"fontname" : "Arial",
					"hidden" : 1,
					"numinlets" : 1,
					"patching_rect" : [ 427.0, -23.0, 48.0, 17.0 ],
					"numoutlets" : 1,
					"fontsize" : 9.0,
					"outlettype" : [ "bang" ],
					"id" : "obj-63"
				}

			}
, 			{
				"box" : 				{
					"maxclass" : "comment",
					"text" : "Fixed partials",
					"fontname" : "Arial",
					"numinlets" : 1,
					"patching_rect" : [ 332.0, 441.0, 100.0, 17.0 ],
					"frgb" : [ 0.0, 0.0, 0.0, 1.0 ],
					"numoutlets" : 0,
					"fontsize" : 9.0,
					"id" : "obj-64"
				}

			}
, 			{
				"box" : 				{
					"maxclass" : "comment",
					"text" : "1.",
					"fontname" : "Arial",
					"numinlets" : 1,
					"patching_rect" : [ 24.0, 118.0, 16.0, 17.0 ],
					"frgb" : [ 0.0, 0.0, 0.0, 1.0 ],
					"numoutlets" : 0,
					"fontsize" : 9.0,
					"id" : "obj-65"
				}

			}
, 			{
				"box" : 				{
					"maxclass" : "message",
					"text" : "set $1",
					"fontname" : "Arial",
					"hidden" : 1,
					"numinlets" : 2,
					"patching_rect" : [ 581.0, 520.0, 39.0, 15.0 ],
					"numoutlets" : 1,
					"fontsize" : 9.0,
					"outlettype" : [ "" ],
					"id" : "obj-66"
				}

			}
, 			{
				"box" : 				{
					"maxclass" : "message",
					"text" : "set $1",
					"fontname" : "Arial",
					"hidden" : 1,
					"numinlets" : 2,
					"patching_rect" : [ 687.0, 565.0, 39.0, 15.0 ],
					"numoutlets" : 1,
					"fontsize" : 9.0,
					"outlettype" : [ "" ],
					"id" : "obj-67"
				}

			}
, 			{
				"box" : 				{
					"maxclass" : "message",
					"text" : "set $1",
					"fontname" : "Arial",
					"hidden" : 1,
					"numinlets" : 2,
					"patching_rect" : [ 646.0, 565.0, 39.0, 15.0 ],
					"numoutlets" : 1,
					"fontsize" : 9.0,
					"outlettype" : [ "" ],
					"id" : "obj-68"
				}

			}
, 			{
				"box" : 				{
					"maxclass" : "comment",
					"text" : "Amplitude",
					"fontname" : "Arial",
					"numinlets" : 1,
					"patching_rect" : [ 684.0, 213.0, 53.0, 17.0 ],
					"frgb" : [ 0.0, 0.0, 0.0, 1.0 ],
					"numoutlets" : 0,
					"fontsize" : 9.0,
					"id" : "obj-69"
				}

			}
, 			{
				"box" : 				{
					"maxclass" : "comment",
					"text" : "Frequency",
					"fontname" : "Arial",
					"numinlets" : 1,
					"patching_rect" : [ 586.0, 213.0, 53.0, 17.0 ],
					"frgb" : [ 0.0, 0.0, 0.0, 1.0 ],
					"numoutlets" : 0,
					"fontsize" : 9.0,
					"id" : "obj-70"
				}

			}
, 			{
				"box" : 				{
					"maxclass" : "kslider",
					"numinlets" : 2,
					"patching_rect" : [ 40.0, 322.0, 441.0, 35.0 ],
					"numoutlets" : 2,
					"hkeycolor" : [ 0.501961, 0.501961, 0.501961, 1.0 ],
					"outlettype" : [ "int", "int" ],
					"presentation_rect" : [ 0.0, 0.0, 441.0, 35.0 ],
					"id" : "obj-71",
					"offset" : 12,
					"range" : 108
				}

			}
, 			{
				"box" : 				{
					"maxclass" : "newobj",
					"text" : "pack 1. 1.",
					"fontname" : "Arial",
					"hidden" : 1,
					"numinlets" : 2,
					"patching_rect" : [ 581.0, 579.0, 54.0, 17.0 ],
					"numoutlets" : 1,
					"fontsize" : 9.0,
					"outlettype" : [ "" ],
					"id" : "obj-72"
				}

			}
, 			{
				"box" : 				{
					"maxclass" : "newobj",
					"text" : "mtof",
					"fontname" : "Arial",
					"hidden" : 1,
					"numinlets" : 1,
					"patching_rect" : [ 581.0, 543.0, 31.0, 17.0 ],
					"numoutlets" : 1,
					"fontsize" : 9.0,
					"outlettype" : [ "" ],
					"id" : "obj-73"
				}

			}
, 			{
				"box" : 				{
					"maxclass" : "newobj",
					"text" : "scale 0. 127. 0. 1.",
					"fontname" : "Arial",
					"hidden" : 1,
					"numinlets" : 6,
					"patching_rect" : [ 625.0, 543.0, 93.0, 17.0 ],
					"numoutlets" : 1,
					"fontsize" : 9.0,
					"outlettype" : [ "float" ],
					"id" : "obj-74"
				}

			}
, 			{
				"box" : 				{
					"maxclass" : "nslider",
					"numinlets" : 2,
					"patching_rect" : [ 485.0, 121.0, 75.0, 198.0 ],
					"rounded" : 0,
					"numoutlets" : 2,
					"outlettype" : [ "int", "int" ],
					"id" : "obj-75"
				}

			}
, 			{
				"box" : 				{
					"maxclass" : "newobj",
					"text" : "*~ 0.063",
					"fontname" : "Arial",
					"hidden" : 1,
					"numinlets" : 2,
					"patching_rect" : [ 449.0, 686.0, 53.0, 17.0 ],
					"numoutlets" : 1,
					"fontsize" : 9.0,
					"outlettype" : [ "signal" ],
					"id" : "obj-76"
				}

			}
, 			{
				"box" : 				{
					"maxclass" : "newobj",
					"text" : "prepend setScale",
					"fontname" : "Arial",
					"hidden" : 1,
					"numinlets" : 1,
					"patching_rect" : [ 109.0, -15.0, 86.0, 17.0 ],
					"numoutlets" : 1,
					"fontsize" : 9.0,
					"outlettype" : [ "" ],
					"id" : "obj-77"
				}

			}
, 			{
				"box" : 				{
					"maxclass" : "umenu",
					"fontname" : "Arial",
					"types" : [  ],
					"numinlets" : 1,
					"patching_rect" : [ 40.0, 78.0, 86.0, 23.0 ],
					"labelclick" : 1,
					"numoutlets" : 3,
					"fontsize" : 14.0,
					"items" : [ "linear", ",", "log", ",", "ERB" ],
					"outlettype" : [ "int", "", "" ],
					"id" : "obj-78"
				}

			}
, 			{
				"box" : 				{
					"maxclass" : "newobj",
					"text" : "standalone",
					"fontname" : "Arial",
					"hidden" : 1,
					"numinlets" : 1,
					"patching_rect" : [ 789.0, 601.0, 57.0, 17.0 ],
					"numoutlets" : 0,
					"fontsize" : 9.0,
					"id" : "obj-79",
					"saved_object_attributes" : 					{
						"cantclosetoplevelpatchers" : 1,
						"preffilename" : "Max 4 Preferences",
						"audiosupport" : 1,
						"overdrive" : 0,
						"midisupport" : 1,
						"statusvisible" : 1,
						"searchformissingfiles" : 1,
						"allwindowsactive" : 0,
						"noloadbangdefeating" : 0,
						"usesearchpath" : 0
					}

				}

			}
, 			{
				"box" : 				{
					"maxclass" : "comment",
					"text" : "Fixed pitch",
					"fontname" : "Arial",
					"numinlets" : 1,
					"patching_rect" : [ 761.0, 189.0, 55.0, 17.0 ],
					"frgb" : [ 0.0, 0.0, 0.0, 1.0 ],
					"numoutlets" : 0,
					"fontsize" : 9.0,
					"id" : "obj-80"
				}

			}
, 			{
				"box" : 				{
					"maxclass" : "message",
					"text" : "setMovingAmp $1",
					"fontname" : "Arial",
					"hidden" : 1,
					"numinlets" : 2,
					"patching_rect" : [ 764.0, 512.0, 91.0, 15.0 ],
					"numoutlets" : 1,
					"fontsize" : 9.0,
					"outlettype" : [ "" ],
					"id" : "obj-81"
				}

			}
, 			{
				"box" : 				{
					"maxclass" : "message",
					"text" : "setMovingFreq $1",
					"fontname" : "Arial",
					"hidden" : 1,
					"numinlets" : 2,
					"patching_rect" : [ 671.0, 513.0, 91.0, 15.0 ],
					"numoutlets" : 1,
					"fontsize" : 9.0,
					"outlettype" : [ "" ],
					"id" : "obj-82"
				}

			}
, 			{
				"box" : 				{
					"maxclass" : "message",
					"text" : "setFixedAmp $1",
					"fontname" : "Arial",
					"hidden" : 1,
					"numinlets" : 2,
					"patching_rect" : [ 764.0, 495.0, 83.0, 15.0 ],
					"numoutlets" : 1,
					"fontsize" : 9.0,
					"outlettype" : [ "" ],
					"id" : "obj-83"
				}

			}
, 			{
				"box" : 				{
					"maxclass" : "message",
					"text" : "setFixedFreq $1",
					"fontname" : "Arial",
					"hidden" : 1,
					"numinlets" : 2,
					"patching_rect" : [ 680.0, 495.0, 83.0, 15.0 ],
					"numoutlets" : 1,
					"fontsize" : 9.0,
					"outlettype" : [ "" ],
					"id" : "obj-84"
				}

			}
, 			{
				"box" : 				{
					"maxclass" : "flonum",
					"maximum" : 1.0,
					"fontname" : "Arial",
					"numinlets" : 1,
					"patching_rect" : [ 661.0, 183.0, 100.0, 27.0 ],
					"bgcolor" : [ 0.866667, 0.866667, 0.866667, 1.0 ],
					"numoutlets" : 2,
					"fontsize" : 18.0,
					"triscale" : 0.9,
					"outlettype" : [ "float", "bang" ],
					"htextcolor" : [ 0.870588, 0.870588, 0.870588, 1.0 ],
					"minimum" : 0.0,
					"id" : "obj-85"
				}

			}
, 			{
				"box" : 				{
					"maxclass" : "flonum",
					"maximum" : 1.0,
					"fontname" : "Arial",
					"numinlets" : 1,
					"patching_rect" : [ 661.0, 150.0, 100.0, 27.0 ],
					"bgcolor" : [ 0.866667, 0.866667, 0.866667, 1.0 ],
					"numoutlets" : 2,
					"fontsize" : 18.0,
					"triscale" : 0.9,
					"outlettype" : [ "float", "bang" ],
					"htextcolor" : [ 0.870588, 0.870588, 0.870588, 1.0 ],
					"minimum" : 0.0,
					"id" : "obj-86"
				}

			}
, 			{
				"box" : 				{
					"maxclass" : "flonum",
					"fontname" : "Arial",
					"numinlets" : 1,
					"patching_rect" : [ 561.0, 183.0, 100.0, 27.0 ],
					"bgcolor" : [ 0.866667, 0.866667, 0.866667, 1.0 ],
					"numoutlets" : 2,
					"fontsize" : 18.0,
					"triscale" : 0.9,
					"outlettype" : [ "float", "bang" ],
					"htextcolor" : [ 0.870588, 0.870588, 0.870588, 1.0 ],
					"id" : "obj-87"
				}

			}
, 			{
				"box" : 				{
					"maxclass" : "flonum",
					"fontname" : "Arial",
					"numinlets" : 1,
					"patching_rect" : [ 561.0, 150.0, 100.0, 27.0 ],
					"bgcolor" : [ 0.866667, 0.866667, 0.866667, 1.0 ],
					"numoutlets" : 2,
					"fontsize" : 18.0,
					"triscale" : 0.9,
					"outlettype" : [ "float", "bang" ],
					"htextcolor" : [ 0.870588, 0.870588, 0.870588, 1.0 ],
					"id" : "obj-88"
				}

			}
, 			{
				"box" : 				{
					"maxclass" : "comment",
					"text" : "<-----------Set the lower and upper frequencies displayed----------->",
					"fontname" : "Arial",
					"numinlets" : 1,
					"patching_rect" : [ 95.0, 104.0, 333.0, 17.0 ],
					"frgb" : [ 0.0, 0.0, 0.0, 1.0 ],
					"numoutlets" : 0,
					"fontsize" : 9.0,
					"id" : "obj-89"
				}

			}
, 			{
				"box" : 				{
					"maxclass" : "comment",
					"text" : "Choose interval",
					"fontname" : "Arial",
					"numinlets" : 1,
					"patching_rect" : [ 730.0, 124.0, 86.0, 17.0 ],
					"frgb" : [ 0.0, 0.0, 0.0, 1.0 ],
					"numoutlets" : 0,
					"fontsize" : 9.0,
					"id" : "obj-90"
				}

			}
, 			{
				"box" : 				{
					"maxclass" : "comment",
					"text" : "Toggle to display the critical band around the fixed frequency",
					"linecount" : 2,
					"fontname" : "Arial",
					"numinlets" : 1,
					"patching_rect" : [ 578.0, 292.0, 168.0, 27.0 ],
					"frgb" : [ 0.0, 0.0, 0.0, 1.0 ],
					"numoutlets" : 0,
					"fontsize" : 9.0,
					"id" : "obj-91"
				}

			}
, 			{
				"box" : 				{
					"maxclass" : "multislider",
					"candicane4" : [ 0.439216, 0.619608, 0.070588, 1.0 ],
					"numinlets" : 1,
					"patching_rect" : [ 263.0, 359.0, 219.0, 69.0 ],
					"candicane2" : [ 0.145098, 0.203922, 0.356863, 1.0 ],
					"candicane7" : [ 0.878431, 0.243137, 0.145098, 1.0 ],
					"setminmax" : [ 0.0, 1.0 ],
					"numoutlets" : 2,
					"spacing" : 1,
					"candicane5" : [ 0.584314, 0.827451, 0.431373, 1.0 ],
					"outlettype" : [ "", "" ],
					"candicane3" : [ 0.290196, 0.411765, 0.713726, 1.0 ],
					"candicane8" : [ 0.027451, 0.447059, 0.501961, 1.0 ],
					"contdata" : 1,
					"size" : 12,
					"peakcolor" : [ 0.498039, 0.498039, 0.498039, 1.0 ],
					"candicane6" : [ 0.733333, 0.035294, 0.788235, 1.0 ],
					"id" : "obj-92"
				}

			}
, 			{
				"box" : 				{
					"maxclass" : "number",
					"fontname" : "Arial",
					"numinlets" : 1,
					"patching_rect" : [ 430.0, 103.0, 52.0, 17.0 ],
					"bgcolor" : [ 0.866667, 0.866667, 0.866667, 1.0 ],
					"numoutlets" : 2,
					"fontsize" : 9.0,
					"triscale" : 0.9,
					"outlettype" : [ "int", "bang" ],
					"htextcolor" : [ 0.870588, 0.870588, 0.870588, 1.0 ],
					"id" : "obj-93"
				}

			}
, 			{
				"box" : 				{
					"maxclass" : "number",
					"fontname" : "Arial",
					"numinlets" : 1,
					"patching_rect" : [ 40.0, 103.0, 52.0, 17.0 ],
					"bgcolor" : [ 0.866667, 0.866667, 0.866667, 1.0 ],
					"numoutlets" : 2,
					"fontsize" : 9.0,
					"triscale" : 0.9,
					"outlettype" : [ "int", "bang" ],
					"htextcolor" : [ 0.870588, 0.870588, 0.870588, 1.0 ],
					"id" : "obj-94"
				}

			}
, 			{
				"box" : 				{
					"maxclass" : "newobj",
					"text" : "pak 200 900",
					"fontname" : "Arial",
					"hidden" : 1,
					"numinlets" : 2,
					"patching_rect" : [ 156.0, -58.0, 67.0, 17.0 ],
					"numoutlets" : 1,
					"fontsize" : 9.0,
					"outlettype" : [ "" ],
					"id" : "obj-95"
				}

			}
, 			{
				"box" : 				{
					"maxclass" : "newobj",
					"text" : "prepend domain",
					"fontname" : "Arial",
					"hidden" : 1,
					"numinlets" : 1,
					"patching_rect" : [ 156.0, -39.0, 79.0, 17.0 ],
					"numoutlets" : 1,
					"fontsize" : 9.0,
					"outlettype" : [ "" ],
					"id" : "obj-96"
				}

			}
, 			{
				"box" : 				{
					"maxclass" : "toggle",
					"numinlets" : 1,
					"patching_rect" : [ 561.0, 270.0, 15.0, 15.0 ],
					"numoutlets" : 1,
					"outlettype" : [ "int" ],
					"id" : "obj-97"
				}

			}
, 			{
				"box" : 				{
					"maxclass" : "message",
					"text" : "complex $1",
					"fontname" : "Arial",
					"hidden" : 1,
					"numinlets" : 2,
					"patching_rect" : [ 691.0, 331.0, 62.0, 15.0 ],
					"numoutlets" : 1,
					"fontsize" : 9.0,
					"outlettype" : [ "" ],
					"id" : "obj-98"
				}

			}
, 			{
				"box" : 				{
					"maxclass" : "toggle",
					"numinlets" : 1,
					"patching_rect" : [ 561.0, 291.0, 15.0, 15.0 ],
					"numoutlets" : 1,
					"outlettype" : [ "int" ],
					"id" : "obj-99"
				}

			}
, 			{
				"box" : 				{
					"maxclass" : "message",
					"text" : "criticalBand $1",
					"fontname" : "Arial",
					"hidden" : 1,
					"numinlets" : 2,
					"patching_rect" : [ 610.0, 331.0, 79.0, 15.0 ],
					"numoutlets" : 1,
					"fontsize" : 9.0,
					"outlettype" : [ "" ],
					"id" : "obj-100"
				}

			}
, 			{
				"box" : 				{
					"maxclass" : "newobj",
					"text" : "prepend interval",
					"fontname" : "Arial",
					"hidden" : 1,
					"numinlets" : 1,
					"patching_rect" : [ 763.0, 219.0, 84.0, 17.0 ],
					"numoutlets" : 1,
					"fontsize" : 9.0,
					"outlettype" : [ "" ],
					"id" : "obj-101"
				}

			}
, 			{
				"box" : 				{
					"maxclass" : "umenu",
					"fontname" : "Arial",
					"types" : [  ],
					"numinlets" : 1,
					"patching_rect" : [ 561.0, 121.0, 166.0, 23.0 ],
					"labelclick" : 1,
					"numoutlets" : 3,
					"fontsize" : 14.0,
					"items" : [ "Octave Below", ",", "Major Seventh Below", ",", "Minor Seventh Below", ",", "Major Sixth Below", ",", "Minor Sixth Below", ",", "Perfect Fifth Below", ",", "Tritone Below", ",", "Perfect Fourth Below", ",", "Major Third Below", ",", "Minor Third Below", ",", "Major Second Below", ",", "Minor Second Below", ",", "Unison", ",", "Minor Second Above", ",", "Major Second Above", ",", "Minor Third Above", ",", "Major Third Above", ",", "Perfect Fourth Above", ",", "Tritone Above", ",", "Perfect Fifth Above", ",", "Minor Sixth Above", ",", "Major Sixth Above", ",", "Minor Seventh Above", ",", "Major Seventh Above", ",", "Octave Above" ],
					"outlettype" : [ "int", "", "" ],
					"id" : "obj-102"
				}

			}
, 			{
				"box" : 				{
					"maxclass" : "message",
					"text" : "set sinbuf",
					"fontname" : "Arial",
					"hidden" : 1,
					"numinlets" : 2,
					"patching_rect" : [ 504.0, 408.0, 54.0, 15.0 ],
					"numoutlets" : 1,
					"fontsize" : 9.0,
					"outlettype" : [ "" ],
					"id" : "obj-103"
				}

			}
, 			{
				"box" : 				{
					"maxclass" : "message",
					"text" : "reset",
					"fontname" : "Arial",
					"numinlets" : 2,
					"patching_rect" : [ 41.0, 43.0, 46.0, 21.0 ],
					"numoutlets" : 1,
					"fontsize" : 14.0,
					"outlettype" : [ "" ],
					"id" : "obj-104"
				}

			}
, 			{
				"box" : 				{
					"maxclass" : "newobj",
					"text" : "dac~",
					"fontname" : "Arial",
					"hidden" : 1,
					"numinlets" : 2,
					"patching_rect" : [ 429.0, 710.0, 31.0, 17.0 ],
					"numoutlets" : 0,
					"fontsize" : 9.0,
					"id" : "obj-105"
				}

			}
, 			{
				"box" : 				{
					"maxclass" : "ezdac~",
					"numinlets" : 2,
					"patching_rect" : [ 485.0, 322.0, 33.0, 33.0 ],
					"numoutlets" : 0,
					"id" : "obj-106"
				}

			}
, 			{
				"box" : 				{
					"maxclass" : "newobj",
					"text" : "oscbank~ 200 64 512 4096",
					"fontname" : "Arial",
					"numinlets" : 4,
					"patching_rect" : [ 449.0, 661.0, 135.0, 17.0 ],
					"numoutlets" : 1,
					"fontsize" : 9.0,
					"outlettype" : [ "signal" ],
					"id" : "obj-107"
				}

			}
, 			{
				"box" : 				{
					"maxclass" : "newobj",
					"text" : "oscbank~ 200 64 512 4096",
					"fontname" : "Arial",
					"numinlets" : 4,
					"patching_rect" : [ 368.0, 671.0, 135.0, 17.0 ],
					"numoutlets" : 1,
					"fontsize" : 9.0,
					"outlettype" : [ "signal" ],
					"id" : "obj-108"
				}

			}
, 			{
				"box" : 				{
					"maxclass" : "multislider",
					"candicane4" : [ 0.439216, 0.619608, 0.070588, 1.0 ],
					"numinlets" : 1,
					"patching_rect" : [ 40.0, 359.0, 219.0, 69.0 ],
					"candicane2" : [ 0.145098, 0.203922, 0.356863, 1.0 ],
					"candicane7" : [ 0.878431, 0.243137, 0.145098, 1.0 ],
					"setminmax" : [ 0.0, 1.0 ],
					"numoutlets" : 2,
					"spacing" : 1,
					"candicane5" : [ 0.584314, 0.827451, 0.431373, 1.0 ],
					"outlettype" : [ "", "" ],
					"candicane3" : [ 0.290196, 0.411765, 0.713726, 1.0 ],
					"candicane8" : [ 0.027451, 0.447059, 0.501961, 1.0 ],
					"contdata" : 1,
					"size" : 12,
					"peakcolor" : [ 0.498039, 0.498039, 0.498039, 1.0 ],
					"candicane6" : [ 0.733333, 0.035294, 0.788235, 1.0 ],
					"id" : "obj-109"
				}

			}
, 			{
				"box" : 				{
					"maxclass" : "jsui",
					"numinlets" : 1,
					"patching_rect" : [ 39.0, 122.0, 442.0, 198.0 ],
					"jsarguments" : [  ],
					"numoutlets" : 1,
					"filename" : "critical_bandwidth.js",
					"outlettype" : [ "" ],
					"id" : "obj-110"
				}

			}
, 			{
				"box" : 				{
					"maxclass" : "comment",
					"text" : "Toggle for complex tones",
					"fontname" : "Arial",
					"numinlets" : 1,
					"patching_rect" : [ 578.0, 270.0, 128.0, 17.0 ],
					"frgb" : [ 0.0, 0.0, 0.0, 1.0 ],
					"numoutlets" : 0,
					"fontsize" : 9.0,
					"id" : "obj-111"
				}

			}
, 			{
				"box" : 				{
					"maxclass" : "comment",
					"text" : "Moving pitch",
					"fontname" : "Arial",
					"numinlets" : 1,
					"patching_rect" : [ 761.0, 157.0, 64.0, 17.0 ],
					"frgb" : [ 0.0, 0.0, 0.0, 1.0 ],
					"numoutlets" : 0,
					"fontsize" : 9.0,
					"id" : "obj-112"
				}

			}
, 			{
				"box" : 				{
					"maxclass" : "newobj",
					"text" : "bgcolor 100 100 150",
					"fontname" : "Arial",
					"hidden" : 1,
					"numinlets" : 4,
					"patching_rect" : [ 681.0, 601.0, 106.0, 17.0 ],
					"numoutlets" : 0,
					"fontsize" : 9.0,
					"id" : "obj-113"
				}

			}
, 			{
				"box" : 				{
					"maxclass" : "newobj",
					"text" : "ftom 1.",
					"fontname" : "Arial",
					"hidden" : 1,
					"numinlets" : 1,
					"patching_rect" : [ 581.0, 498.0, 43.0, 17.0 ],
					"numoutlets" : 1,
					"fontsize" : 9.0,
					"outlettype" : [ "" ],
					"id" : "obj-114"
				}

			}
, 			{
				"box" : 				{
					"maxclass" : "message",
					"text" : "set $1",
					"fontname" : "Arial",
					"hidden" : 1,
					"numinlets" : 2,
					"patching_rect" : [ 781.0, 573.0, 39.0, 15.0 ],
					"numoutlets" : 1,
					"fontsize" : 9.0,
					"outlettype" : [ "" ],
					"id" : "obj-115"
				}

			}
, 			{
				"box" : 				{
					"maxclass" : "newobj",
					"text" : "mtof",
					"fontname" : "Arial",
					"hidden" : 1,
					"numinlets" : 1,
					"patching_rect" : [ 781.0, 552.0, 31.0, 17.0 ],
					"numoutlets" : 1,
					"fontsize" : 9.0,
					"outlettype" : [ "" ],
					"id" : "obj-116"
				}

			}
, 			{
				"box" : 				{
					"maxclass" : "comment",
					"text" : "0.",
					"fontname" : "Arial",
					"numinlets" : 1,
					"patching_rect" : [ 25.0, 285.0, 16.0, 17.0 ],
					"frgb" : [ 0.0, 0.0, 0.0, 1.0 ],
					"numoutlets" : 0,
					"fontsize" : 9.0,
					"id" : "obj-117"
				}

			}
, 			{
				"box" : 				{
					"maxclass" : "comment",
					"text" : "Set the amplitudes of the partials of the complex tones",
					"linecount" : 3,
					"fontname" : "Arial",
					"numinlets" : 1,
					"patching_rect" : [ 483.0, 375.0, 100.0, 38.0 ],
					"frgb" : [ 0.0, 0.0, 0.0, 1.0 ],
					"numoutlets" : 0,
					"fontsize" : 9.0,
					"id" : "obj-118"
				}

			}
, 			{
				"box" : 				{
					"maxclass" : "comment",
					"text" : "<--Turn on audio",
					"fontname" : "Arial",
					"numinlets" : 1,
					"patching_rect" : [ 530.0, 333.0, 100.0, 17.0 ],
					"frgb" : [ 0.0, 0.0, 0.0, 1.0 ],
					"numoutlets" : 0,
					"fontsize" : 9.0,
					"id" : "obj-119"
				}

			}
, 			{
				"box" : 				{
					"maxclass" : "comment",
					"text" : "Moving partials",
					"fontname" : "Arial",
					"numinlets" : 1,
					"patching_rect" : [ 110.0, 441.0, 100.0, 17.0 ],
					"frgb" : [ 0.0, 0.0, 0.0, 1.0 ],
					"numoutlets" : 0,
					"fontsize" : 9.0,
					"id" : "obj-120"
				}

			}
, 			{
				"box" : 				{
					"maxclass" : "comment",
					"text" : "John MacCallum",
					"fontname" : "Arial",
					"numinlets" : 1,
					"patching_rect" : [ 706.0, 411.0, 100.0, 17.0 ],
					"frgb" : [ 0.0, 0.0, 0.0, 1.0 ],
					"numoutlets" : 0,
					"fontsize" : 9.0,
					"id" : "obj-121"
				}

			}
, 			{
				"box" : 				{
					"maxclass" : "panel",
					"numinlets" : 1,
					"patching_rect" : [ 586.0, 379.0, 246.0, 70.0 ],
					"bgcolor" : [ 1.0, 1.0, 1.0, 1.0 ],
					"rounded" : 50,
					"border" : 3,
					"numoutlets" : 0,
					"bordercolor" : [ 0.392157, 0.392157, 0.588235, 1.0 ],
					"id" : "obj-122"
				}

			}
, 			{
				"box" : 				{
					"maxclass" : "panel",
					"numinlets" : 1,
					"patching_rect" : [ 561.0, 46.0, 286.0, 70.0 ],
					"bgcolor" : [ 1.0, 1.0, 1.0, 1.0 ],
					"rounded" : 50,
					"border" : 3,
					"numoutlets" : 0,
					"bordercolor" : [ 0.392157, 0.392157, 0.588235, 1.0 ],
					"id" : "obj-123"
				}

			}
, 			{
				"box" : 				{
					"maxclass" : "comment",
					"text" : "1",
					"fontname" : "Arial",
					"numinlets" : 1,
					"patching_rect" : [ 43.0, 429.0, 16.0, 17.0 ],
					"frgb" : [ 0.0, 0.0, 0.0, 1.0 ],
					"numoutlets" : 0,
					"fontsize" : 9.0,
					"id" : "obj-124"
				}

			}
, 			{
				"box" : 				{
					"maxclass" : "panel",
					"numinlets" : 1,
					"patching_rect" : [ 9.0, 27.0, 862.0, 453.0 ],
					"bgcolor" : [ 0.670588, 0.741176, 0.94902, 1.0 ],
					"rounded" : 100,
					"border" : 10,
					"numoutlets" : 0,
					"id" : "obj-125"
				}

			}
 ],
		"lines" : [ 			{
				"patchline" : 				{
					"source" : [ "obj-59", 0 ],
					"destination" : [ "obj-94", 0 ],
					"hidden" : 1,
					"midpoints" : [  ]
				}

			}
, 			{
				"patchline" : 				{
					"source" : [ "obj-104", 0 ],
					"destination" : [ "obj-110", 0 ],
					"hidden" : 1,
					"midpoints" : [  ]
				}

			}
, 			{
				"patchline" : 				{
					"source" : [ "obj-109", 0 ],
					"destination" : [ "obj-110", 0 ],
					"hidden" : 1,
					"midpoints" : [  ]
				}

			}
, 			{
				"patchline" : 				{
					"source" : [ "obj-77", 0 ],
					"destination" : [ "obj-110", 0 ],
					"hidden" : 1,
					"midpoints" : [  ]
				}

			}
, 			{
				"patchline" : 				{
					"source" : [ "obj-81", 0 ],
					"destination" : [ "obj-110", 0 ],
					"hidden" : 1,
					"midpoints" : [  ]
				}

			}
, 			{
				"patchline" : 				{
					"source" : [ "obj-83", 0 ],
					"destination" : [ "obj-110", 0 ],
					"hidden" : 1,
					"midpoints" : [  ]
				}

			}
, 			{
				"patchline" : 				{
					"source" : [ "obj-84", 0 ],
					"destination" : [ "obj-110", 0 ],
					"hidden" : 1,
					"midpoints" : [  ]
				}

			}
, 			{
				"patchline" : 				{
					"source" : [ "obj-98", 0 ],
					"destination" : [ "obj-110", 0 ],
					"hidden" : 1,
					"midpoints" : [  ]
				}

			}
, 			{
				"patchline" : 				{
					"source" : [ "obj-96", 0 ],
					"destination" : [ "obj-110", 0 ],
					"hidden" : 1,
					"midpoints" : [  ]
				}

			}
, 			{
				"patchline" : 				{
					"source" : [ "obj-100", 0 ],
					"destination" : [ "obj-110", 0 ],
					"hidden" : 1,
					"midpoints" : [  ]
				}

			}
, 			{
				"patchline" : 				{
					"source" : [ "obj-101", 0 ],
					"destination" : [ "obj-110", 0 ],
					"hidden" : 1,
					"midpoints" : [  ]
				}

			}
, 			{
				"patchline" : 				{
					"source" : [ "obj-82", 0 ],
					"destination" : [ "obj-110", 0 ],
					"hidden" : 1,
					"midpoints" : [  ]
				}

			}
, 			{
				"patchline" : 				{
					"source" : [ "obj-3", 0 ],
					"destination" : [ "obj-110", 0 ],
					"hidden" : 1,
					"midpoints" : [  ]
				}

			}
, 			{
				"patchline" : 				{
					"source" : [ "obj-66", 0 ],
					"destination" : [ "obj-71", 0 ],
					"hidden" : 1,
					"midpoints" : [  ]
				}

			}
, 			{
				"patchline" : 				{
					"source" : [ "obj-67", 0 ],
					"destination" : [ "obj-71", 0 ],
					"hidden" : 1,
					"midpoints" : [  ]
				}

			}
, 			{
				"patchline" : 				{
					"source" : [ "obj-54", 0 ],
					"destination" : [ "obj-109", 0 ],
					"hidden" : 1,
					"midpoints" : [  ]
				}

			}
, 			{
				"patchline" : 				{
					"source" : [ "obj-57", 0 ],
					"destination" : [ "obj-109", 0 ],
					"hidden" : 1,
					"midpoints" : [  ]
				}

			}
, 			{
				"patchline" : 				{
					"source" : [ "obj-53", 0 ],
					"destination" : [ "obj-57", 0 ],
					"hidden" : 1,
					"midpoints" : [  ]
				}

			}
, 			{
				"patchline" : 				{
					"source" : [ "obj-50", 0 ],
					"destination" : [ "obj-57", 0 ],
					"hidden" : 1,
					"midpoints" : [  ]
				}

			}
, 			{
				"patchline" : 				{
					"source" : [ "obj-55", 0 ],
					"destination" : [ "obj-57", 0 ],
					"hidden" : 1,
					"midpoints" : [  ]
				}

			}
, 			{
				"patchline" : 				{
					"source" : [ "obj-109", 0 ],
					"destination" : [ "obj-50", 0 ],
					"hidden" : 1,
					"midpoints" : [  ]
				}

			}
, 			{
				"patchline" : 				{
					"source" : [ "obj-78", 1 ],
					"destination" : [ "obj-77", 0 ],
					"hidden" : 1,
					"midpoints" : [  ]
				}

			}
, 			{
				"patchline" : 				{
					"source" : [ "obj-63", 0 ],
					"destination" : [ "obj-53", 0 ],
					"hidden" : 1,
					"midpoints" : [  ]
				}

			}
, 			{
				"patchline" : 				{
					"source" : [ "obj-5", 1 ],
					"destination" : [ "obj-53", 0 ],
					"hidden" : 1,
					"midpoints" : [  ]
				}

			}
, 			{
				"patchline" : 				{
					"source" : [ "obj-4", 0 ],
					"destination" : [ "obj-5", 0 ],
					"hidden" : 1,
					"midpoints" : [  ]
				}

			}
, 			{
				"patchline" : 				{
					"source" : [ "obj-94", 0 ],
					"destination" : [ "obj-95", 0 ],
					"hidden" : 1,
					"midpoints" : [  ]
				}

			}
, 			{
				"patchline" : 				{
					"source" : [ "obj-95", 0 ],
					"destination" : [ "obj-96", 0 ],
					"hidden" : 1,
					"midpoints" : [  ]
				}

			}
, 			{
				"patchline" : 				{
					"source" : [ "obj-93", 0 ],
					"destination" : [ "obj-95", 1 ],
					"hidden" : 1,
					"midpoints" : [  ]
				}

			}
, 			{
				"patchline" : 				{
					"source" : [ "obj-52", 0 ],
					"destination" : [ "obj-54", 0 ],
					"hidden" : 1,
					"midpoints" : [  ]
				}

			}
, 			{
				"patchline" : 				{
					"source" : [ "obj-97", 0 ],
					"destination" : [ "obj-52", 0 ],
					"hidden" : 1,
					"midpoints" : [  ]
				}

			}
, 			{
				"patchline" : 				{
					"source" : [ "obj-5", 0 ],
					"destination" : [ "obj-52", 0 ],
					"hidden" : 1,
					"midpoints" : [  ]
				}

			}
, 			{
				"patchline" : 				{
					"source" : [ "obj-56", 0 ],
					"destination" : [ "obj-92", 0 ],
					"hidden" : 1,
					"midpoints" : [  ]
				}

			}
, 			{
				"patchline" : 				{
					"source" : [ "obj-54", 0 ],
					"destination" : [ "obj-92", 0 ],
					"hidden" : 1,
					"midpoints" : [  ]
				}

			}
, 			{
				"patchline" : 				{
					"source" : [ "obj-51", 0 ],
					"destination" : [ "obj-56", 0 ],
					"hidden" : 1,
					"midpoints" : [  ]
				}

			}
, 			{
				"patchline" : 				{
					"source" : [ "obj-55", 0 ],
					"destination" : [ "obj-56", 0 ],
					"hidden" : 1,
					"midpoints" : [  ]
				}

			}
, 			{
				"patchline" : 				{
					"source" : [ "obj-53", 0 ],
					"destination" : [ "obj-56", 0 ],
					"hidden" : 1,
					"midpoints" : [  ]
				}

			}
, 			{
				"patchline" : 				{
					"source" : [ "obj-40", 0 ],
					"destination" : [ "obj-39", 0 ],
					"hidden" : 1,
					"midpoints" : [  ]
				}

			}
, 			{
				"patchline" : 				{
					"source" : [ "obj-39", 0 ],
					"destination" : [ "obj-41", 0 ],
					"hidden" : 1,
					"midpoints" : [  ]
				}

			}
, 			{
				"patchline" : 				{
					"source" : [ "obj-41", 0 ],
					"destination" : [ "obj-42", 0 ],
					"hidden" : 1,
					"midpoints" : [  ]
				}

			}
, 			{
				"patchline" : 				{
					"source" : [ "obj-52", 1 ],
					"destination" : [ "obj-55", 0 ],
					"hidden" : 1,
					"midpoints" : [  ]
				}

			}
, 			{
				"patchline" : 				{
					"source" : [ "obj-92", 0 ],
					"destination" : [ "obj-51", 0 ],
					"hidden" : 1,
					"midpoints" : [  ]
				}

			}
, 			{
				"patchline" : 				{
					"source" : [ "obj-110", 0 ],
					"destination" : [ "obj-2", 0 ],
					"hidden" : 1,
					"midpoints" : [  ]
				}

			}
, 			{
				"patchline" : 				{
					"source" : [ "obj-63", 0 ],
					"destination" : [ "obj-3", 0 ],
					"hidden" : 1,
					"midpoints" : [  ]
				}

			}
, 			{
				"patchline" : 				{
					"source" : [ "obj-2", 0 ],
					"destination" : [ "obj-108", 0 ],
					"hidden" : 0,
					"midpoints" : [  ]
				}

			}
, 			{
				"patchline" : 				{
					"source" : [ "obj-104", 0 ],
					"destination" : [ "obj-49", 0 ],
					"hidden" : 1,
					"midpoints" : [  ]
				}

			}
, 			{
				"patchline" : 				{
					"source" : [ "obj-49", 0 ],
					"destination" : [ "obj-63", 0 ],
					"hidden" : 1,
					"midpoints" : [  ]
				}

			}
, 			{
				"patchline" : 				{
					"source" : [ "obj-63", 0 ],
					"destination" : [ "obj-62", 0 ],
					"hidden" : 1,
					"midpoints" : [  ]
				}

			}
, 			{
				"patchline" : 				{
					"source" : [ "obj-76", 0 ],
					"destination" : [ "obj-105", 0 ],
					"hidden" : 1,
					"midpoints" : [  ]
				}

			}
, 			{
				"patchline" : 				{
					"source" : [ "obj-58", 0 ],
					"destination" : [ "obj-93", 0 ],
					"hidden" : 1,
					"midpoints" : [  ]
				}

			}
, 			{
				"patchline" : 				{
					"source" : [ "obj-1", 0 ],
					"destination" : [ "obj-107", 0 ],
					"hidden" : 0,
					"midpoints" : [  ]
				}

			}
, 			{
				"patchline" : 				{
					"source" : [ "obj-107", 0 ],
					"destination" : [ "obj-76", 0 ],
					"hidden" : 1,
					"midpoints" : [  ]
				}

			}
, 			{
				"patchline" : 				{
					"source" : [ "obj-108", 0 ],
					"destination" : [ "obj-76", 0 ],
					"hidden" : 1,
					"midpoints" : [  ]
				}

			}
, 			{
				"patchline" : 				{
					"source" : [ "obj-76", 0 ],
					"destination" : [ "obj-105", 1 ],
					"hidden" : 1,
					"midpoints" : [  ]
				}

			}
, 			{
				"patchline" : 				{
					"source" : [ "obj-63", 0 ],
					"destination" : [ "obj-61", 0 ],
					"hidden" : 1,
					"midpoints" : [  ]
				}

			}
, 			{
				"patchline" : 				{
					"source" : [ "obj-63", 0 ],
					"destination" : [ "obj-60", 0 ],
					"hidden" : 1,
					"midpoints" : [  ]
				}

			}
, 			{
				"patchline" : 				{
					"source" : [ "obj-71", 0 ],
					"destination" : [ "obj-75", 0 ],
					"hidden" : 1,
					"midpoints" : [  ]
				}

			}
, 			{
				"patchline" : 				{
					"source" : [ "obj-43", 0 ],
					"destination" : [ "obj-75", 0 ],
					"hidden" : 1,
					"midpoints" : [  ]
				}

			}
, 			{
				"patchline" : 				{
					"source" : [ "obj-66", 0 ],
					"destination" : [ "obj-75", 0 ],
					"hidden" : 1,
					"midpoints" : [  ]
				}

			}
, 			{
				"patchline" : 				{
					"source" : [ "obj-63", 0 ],
					"destination" : [ "obj-59", 0 ],
					"hidden" : 1,
					"midpoints" : [  ]
				}

			}
, 			{
				"patchline" : 				{
					"source" : [ "obj-63", 0 ],
					"destination" : [ "obj-103", 0 ],
					"hidden" : 1,
					"midpoints" : [  ]
				}

			}
, 			{
				"patchline" : 				{
					"source" : [ "obj-63", 0 ],
					"destination" : [ "obj-58", 0 ],
					"hidden" : 1,
					"midpoints" : [  ]
				}

			}
, 			{
				"patchline" : 				{
					"source" : [ "obj-63", 0 ],
					"destination" : [ "obj-48", 0 ],
					"hidden" : 1,
					"midpoints" : [  ]
				}

			}
, 			{
				"patchline" : 				{
					"source" : [ "obj-48", 0 ],
					"destination" : [ "obj-102", 0 ],
					"hidden" : 1,
					"midpoints" : [  ]
				}

			}
, 			{
				"patchline" : 				{
					"source" : [ "obj-42", 0 ],
					"destination" : [ "obj-88", 0 ],
					"hidden" : 1,
					"midpoints" : [  ]
				}

			}
, 			{
				"patchline" : 				{
					"source" : [ "obj-62", 0 ],
					"destination" : [ "obj-88", 0 ],
					"hidden" : 1,
					"midpoints" : [  ]
				}

			}
, 			{
				"patchline" : 				{
					"source" : [ "obj-68", 0 ],
					"destination" : [ "obj-88", 0 ],
					"hidden" : 1,
					"midpoints" : [  ]
				}

			}
, 			{
				"patchline" : 				{
					"source" : [ "obj-115", 0 ],
					"destination" : [ "obj-88", 0 ],
					"hidden" : 1,
					"midpoints" : [  ]
				}

			}
, 			{
				"patchline" : 				{
					"source" : [ "obj-61", 0 ],
					"destination" : [ "obj-87", 0 ],
					"hidden" : 1,
					"midpoints" : [  ]
				}

			}
, 			{
				"patchline" : 				{
					"source" : [ "obj-48", 0 ],
					"destination" : [ "obj-97", 0 ],
					"hidden" : 1,
					"midpoints" : [  ]
				}

			}
, 			{
				"patchline" : 				{
					"source" : [ "obj-60", 0 ],
					"destination" : [ "obj-99", 0 ],
					"hidden" : 1,
					"midpoints" : [  ]
				}

			}
, 			{
				"patchline" : 				{
					"source" : [ "obj-33", 0 ],
					"destination" : [ "obj-34", 0 ],
					"hidden" : 1,
					"midpoints" : [  ]
				}

			}
, 			{
				"patchline" : 				{
					"source" : [ "obj-34", 0 ],
					"destination" : [ "obj-36", 0 ],
					"hidden" : 1,
					"midpoints" : [  ]
				}

			}
, 			{
				"patchline" : 				{
					"source" : [ "obj-88", 0 ],
					"destination" : [ "obj-114", 0 ],
					"hidden" : 1,
					"midpoints" : [  ]
				}

			}
, 			{
				"patchline" : 				{
					"source" : [ "obj-114", 0 ],
					"destination" : [ "obj-66", 0 ],
					"hidden" : 1,
					"midpoints" : [  ]
				}

			}
, 			{
				"patchline" : 				{
					"source" : [ "obj-75", 0 ],
					"destination" : [ "obj-73", 0 ],
					"hidden" : 1,
					"midpoints" : [  ]
				}

			}
, 			{
				"patchline" : 				{
					"source" : [ "obj-73", 0 ],
					"destination" : [ "obj-72", 0 ],
					"hidden" : 1,
					"midpoints" : [  ]
				}

			}
, 			{
				"patchline" : 				{
					"source" : [ "obj-36", 0 ],
					"destination" : [ "obj-35", 0 ],
					"hidden" : 1,
					"midpoints" : [  ]
				}

			}
, 			{
				"patchline" : 				{
					"source" : [ "obj-35", 0 ],
					"destination" : [ "obj-38", 0 ],
					"hidden" : 1,
					"midpoints" : [  ]
				}

			}
, 			{
				"patchline" : 				{
					"source" : [ "obj-99", 0 ],
					"destination" : [ "obj-100", 0 ],
					"hidden" : 1,
					"midpoints" : [  ]
				}

			}
, 			{
				"patchline" : 				{
					"source" : [ "obj-71", 1 ],
					"destination" : [ "obj-74", 0 ],
					"hidden" : 1,
					"midpoints" : [  ]
				}

			}
, 			{
				"patchline" : 				{
					"source" : [ "obj-74", 0 ],
					"destination" : [ "obj-72", 1 ],
					"hidden" : 1,
					"midpoints" : [  ]
				}

			}
, 			{
				"patchline" : 				{
					"source" : [ "obj-73", 0 ],
					"destination" : [ "obj-68", 0 ],
					"hidden" : 1,
					"midpoints" : [  ]
				}

			}
, 			{
				"patchline" : 				{
					"source" : [ "obj-32", 0 ],
					"destination" : [ "obj-29", 0 ],
					"hidden" : 1,
					"midpoints" : [  ]
				}

			}
, 			{
				"patchline" : 				{
					"source" : [ "obj-29", 0 ],
					"destination" : [ "obj-31", 0 ],
					"hidden" : 1,
					"midpoints" : [  ]
				}

			}
, 			{
				"patchline" : 				{
					"source" : [ "obj-60", 0 ],
					"destination" : [ "obj-86", 0 ],
					"hidden" : 1,
					"midpoints" : [  ]
				}

			}
, 			{
				"patchline" : 				{
					"source" : [ "obj-74", 0 ],
					"destination" : [ "obj-86", 0 ],
					"hidden" : 1,
					"midpoints" : [  ]
				}

			}
, 			{
				"patchline" : 				{
					"source" : [ "obj-60", 0 ],
					"destination" : [ "obj-85", 0 ],
					"hidden" : 1,
					"midpoints" : [  ]
				}

			}
, 			{
				"patchline" : 				{
					"source" : [ "obj-88", 0 ],
					"destination" : [ "obj-82", 0 ],
					"hidden" : 1,
					"midpoints" : [  ]
				}

			}
, 			{
				"patchline" : 				{
					"source" : [ "obj-73", 0 ],
					"destination" : [ "obj-82", 0 ],
					"hidden" : 1,
					"midpoints" : [  ]
				}

			}
, 			{
				"patchline" : 				{
					"source" : [ "obj-87", 0 ],
					"destination" : [ "obj-84", 0 ],
					"hidden" : 1,
					"midpoints" : [  ]
				}

			}
, 			{
				"patchline" : 				{
					"source" : [ "obj-75", 0 ],
					"destination" : [ "obj-67", 0 ],
					"hidden" : 1,
					"midpoints" : [  ]
				}

			}
, 			{
				"patchline" : 				{
					"source" : [ "obj-31", 0 ],
					"destination" : [ "obj-30", 0 ],
					"hidden" : 1,
					"midpoints" : [  ]
				}

			}
, 			{
				"patchline" : 				{
					"source" : [ "obj-30", 0 ],
					"destination" : [ "obj-37", 0 ],
					"hidden" : 1,
					"midpoints" : [  ]
				}

			}
, 			{
				"patchline" : 				{
					"source" : [ "obj-97", 0 ],
					"destination" : [ "obj-98", 0 ],
					"hidden" : 1,
					"midpoints" : [  ]
				}

			}
, 			{
				"patchline" : 				{
					"source" : [ "obj-102", 1 ],
					"destination" : [ "obj-101", 0 ],
					"hidden" : 1,
					"midpoints" : [  ]
				}

			}
, 			{
				"patchline" : 				{
					"source" : [ "obj-85", 0 ],
					"destination" : [ "obj-83", 0 ],
					"hidden" : 1,
					"midpoints" : [  ]
				}

			}
, 			{
				"patchline" : 				{
					"source" : [ "obj-86", 0 ],
					"destination" : [ "obj-81", 0 ],
					"hidden" : 1,
					"midpoints" : [  ]
				}

			}
, 			{
				"patchline" : 				{
					"source" : [ "obj-71", 0 ],
					"destination" : [ "obj-116", 0 ],
					"hidden" : 1,
					"midpoints" : [  ]
				}

			}
, 			{
				"patchline" : 				{
					"source" : [ "obj-116", 0 ],
					"destination" : [ "obj-115", 0 ],
					"hidden" : 1,
					"midpoints" : [  ]
				}

			}
, 			{
				"patchline" : 				{
					"source" : [ "obj-102", 0 ],
					"destination" : [ "obj-44", 0 ],
					"hidden" : 1,
					"midpoints" : [  ]
				}

			}
, 			{
				"patchline" : 				{
					"source" : [ "obj-44", 0 ],
					"destination" : [ "obj-43", 0 ],
					"hidden" : 1,
					"midpoints" : [  ]
				}

			}
, 			{
				"patchline" : 				{
					"source" : [ "obj-45", 0 ],
					"destination" : [ "obj-43", 1 ],
					"hidden" : 1,
					"midpoints" : [  ]
				}

			}
, 			{
				"patchline" : 				{
					"source" : [ "obj-87", 0 ],
					"destination" : [ "obj-45", 0 ],
					"hidden" : 1,
					"midpoints" : [  ]
				}

			}
 ]
	}

}
