max v2;#N vpatcher 42 363 843 574;#P origin 0 -8;#P window setfont "Sans Serif" 9.;#P window linecount 1;#N vpatcher 20 74 620 474;#P window setfont "Sans Serif" 9.;#P window linecount 4;#P message 10 218 37 196617 script send buck set \$1;#P window linecount 1;#P newex 50 69 35 196617 zl reg;#P window linecount 0;#P newex 50 91 54 196617 zl slice 1;#P inlet 93 25 15 0;#P window linecount 1;#P newex 93 44 45 196617 roudone;#N vpatcher 107 318 376 513;#P window setfont "Sans Serif" 9.;#P message 40 74 18 196617 6;#P newex 40 51 50 196617 splitter 6;#P window setfont "Fixedwidth Serif" 10.;#P newex 80 97 118 1441802 expr ($i1-1)*12+10;#P outlet 80 120 15 0;#P inlet 40 31 15 0;#P connect 0 0 3 0;#P connect 3 0 4 0;#P fasten 4 0 2 0 45 93 85 93;#P connect 3 2 2 0;#P fasten 3 1 2 0 65 93 85 93;#P connect 2 0 1 0;#P pop;#P newobj 260 141 34 196617 p ex2;#N vpatcher 134 122 403 317;#P window setfont "Sans Serif" 9.;#P message 40 74 16 196617 6;#P newex 40 51 50 196617 splitter 6;#P window setfont "Fixedwidth Serif" 10.;#P newex 80 97 118 1441802 expr ($i1-2)*12+10;#P outlet 80 120 15 0;#P inlet 40 31 15 0;#P connect 0 0 3 0;#P connect 3 0 4 0;#P fasten 4 0 2 0 45 93 85 93;#P connect 3 2 2 0;#P fasten 3 1 2 0 65 93 85 93;#P connect 2 0 1 0;#P pop;#P newobj 176 141 32 196617 p ex1;#P window linecount 4;#P message 50 218 39 196617 script connect prep 0 buck 0;#P window linecount 5;#P newex 92 204 40 196617 sprintf script connect buck %i puck %i;#P window linecount 1;#P newex 92 184 24 196617 - 1;#P newex 92 161 41 196617 uzi;#P newex 92 141 24 196617 - 1;#P window linecount 12;#P message 134 141 39 196617 script connect rin 1 buck 0 \, script connect rin 1 puck 0 \, script connect puck 0 mean 0;#P window linecount 7;#P newex 176 199 52 196617 sprintf script new buck newex 87 57 %i 196617 Bucket %i;#P window linecount 1;#P newex 218 141 24 196617 - 1;#P newex 50 116 308 196617 t b i b i i i i i;#P window linecount 4;#P newex 260 235 88 196617 sprintf script new puck newex 75 78 %i 196617 pack %s;#P window linecount 1;#P newex 302 208 52 196617 tosymbol;#P message 302 160 22 196617 f;#P newex 302 141 22 196617 uzi;#P window linecount 2;#P newex 302 177 52 196617 zl group 12;#P inlet 75 25 15 0;#P outlet 50 304 15 0;#P window linecount 1;#P newex 10 166 37 196617 float;#P fasten 8 0 0 0 55 137 15 137;#P connect 0 0 23 0;#P fasten 21 1 0 1 99 112 42 112;#P fasten 19 0 22 0 98 65 55 65;#P connect 22 0 21 0;#P connect 21 0 8 0;#P connect 8 0 16 0;#P connect 16 0 1 0;#P fasten 23 0 1 0 15 297 55 297;#P fasten 7 0 1 0 265 297 55 297;#P fasten 10 0 1 0 181 297 55 297;#P fasten 15 0 1 0 97 297 55 297;#P fasten 11 0 1 0 139 297 55 297;#P connect 2 0 22 1;#P connect 8 1 12 0;#P connect 12 0 13 0;#P fasten 13 2 14 0 127 181 97 181;#P connect 14 0 15 0;#P connect 20 0 19 0;#P connect 13 2 15 1;#P connect 8 2 11 0;#P connect 8 3 17 0;#P connect 17 0 10 0;#P connect 8 4 9 0;#P connect 9 0 10 1;#P connect 8 5 18 0;#P connect 18 0 7 0;#P connect 8 6 4 0;#P connect 4 0 5 0;#P connect 5 0 3 0;#P connect 3 0 6 0;#P connect 6 0 7 1;#P connect 8 7 3 1;#P pop;#P newobj 112 130 75 196617 p scripting;#P newex 17 57 60 196617 prepend set;#P objectname prep;#P newex 17 35 68 196617 route set;#P objectname rin;#P newex 112 109 75 196617 patcherargs 2;#N thispatcher;#Q end;#P newobj 112 151 57 196617 thispatcher;#P outlet 75 131 15 0;#P inlet 17 15 15 0;#P objectname in;#P newex 75 109 33 196617 mean;#P objectname mean;#P connect 1 0 5 0;#P connect 5 0 6 0;#P connect 0 0 2 0;#P connect 4 0 7 0;#P connect 7 0 3 0;#P connect 4 1 7 1;#P pop;