max v2;#N vpatcher 180 337 898 607;#P window setfont "Sans Serif" 9.;#P newex 46 157 86 196617 splitter $1;#P objectname splitter;#N comlet;#P outlet 661 212 15 0;#P objectname out[9];#N thispatcher;#Q end;#P hidden newobj 58 125 63 196617 thispatcher;#P window linecount 2;#P hidden newex 58 70 63 196617 patcherargs noargs;#P window linecount 1;#N vpatcher 30 89 634 451;#P origin 0 -45;#P window setfont "Sans Serif" 9.;#P window linecount 3;#P message 43 209 46 196617 script delete split[1] \, script delete In[2];#P window linecount 0;#P newex 114 139 33 196617 t b 7;#P message 425 255 67 196617 script delete splitter;#P newex 114 114 45 196617 sel 1;#P newex 114 93 38 196617 int;#P inlet 183 22 15 0;#P newex 183 41 50 196617 sel done;#P newex 177 163 34 196617 !- 9;#P newex 344 229 34 196617 !- 9;#P newex 91 229 28 196617 - 1;#P newex 177 184 34 196617 uzi;#P newex 91 255 108 196617 sprintf script connect split[%i] 1 out[%i] 0;#P newex 84 62 26 196617 t 2;#P inlet 84 22 15 0;#P newex 84 41 68 196617 route noargs;#P newex 201 229 34 196617 !- 10;#P newex 344 255 79 196617 sprintf script delete split[%i];#P newex 271 255 72 196617 sprintf script delete out[%i];#P newex 201 255 69 196617 sprintf script delete In[%i];#P newex 142 62 38 196617 zl len;#P newex 149 139 52 196617 t i i i b;#P outlet 91 309 15 0;#P connect 20 0 21 0;#P connect 8 0 7 0;#P connect 7 0 9 0;#P fasten 1 0 12 0 154 193 96 193;#P connect 12 0 10 0;#P connect 21 0 0 0;#P fasten 19 0 0 0 430 292 96 292;#P connect 10 0 0 0;#P fasten 4 0 0 0 276 292 96 292;#P fasten 5 0 0 0 349 292 96 292;#P fasten 3 0 0 0 206 292 96 292;#P fasten 15 0 17 0 188 88 119 88;#P connect 17 0 18 0;#P connect 18 0 20 0;#P connect 7 1 2 0;#P fasten 9 0 17 1 89 83 147 83;#P connect 2 0 17 1;#P connect 18 1 1 0;#P connect 1 2 14 0;#P connect 20 1 11 0;#P connect 14 0 11 0;#P connect 16 0 15 0;#P fasten 1 1 10 1 168 229 194 229;#P connect 11 2 6 0;#P connect 6 0 3 0;#P fasten 6 0 4 0 206 250 276 250;#P fasten 11 2 13 0 206 205 349 205;#P connect 13 0 5 0;#P fasten 1 3 19 0 196 160 430 160;#P pop;#P hidden newobj 58 104 63 196617 p scripts;#N comlet;#P inlet 660 30 15 0;#P objectname In[9];#P inlet 583 30 15 0;#P objectname In[8];#P inlet 506 30 15 0;#P objectname In[7];#P inlet 429 30 15 0;#P objectname In[6];#P inlet 352 30 15 0;#P objectname In[5];#P inlet 275 30 15 0;#P objectname In[4];#P inlet 198 30 15 0;#P objectname In[3];#P inlet 121 30 15 0;#P objectname In[2];#P inlet 84 30 15 0;#P objectname In[1];#P inlet 46 30 15 0;#P objectname In[0];#P outlet 584 212 15 0;#P objectname out[8];#P newex 584 190 87 196617 split $8 $9;#P objectname split[8];#P outlet 507 212 15 0;#P objectname out[7];#P newex 507 170 87 196617 split $7 $8;#P objectname split[7];#P outlet 430 212 15 0;#P objectname out[6];#P newex 430 150 87 196617 split $6 $7;#P objectname split[6];#P outlet 353 212 15 0;#P objectname out[5];#P newex 353 130 87 196617 split $5 $6;#P objectname split[5];#P outlet 276 212 15 0;#P objectname out[4];#P newex 276 110 87 196617 split $4 $5;#P objectname split[4];#P outlet 199 212 15 0;#P objectname out[3];#P newex 199 90 87 196617 split $3 $4;#P objectname split[3];#P outlet 122 212 15 0;#P objectname out[2];#P newex 122 70 87 196617 split $2 $3;#P objectname split[2];#P outlet 46 212 15 0;#P objectname out[1];#P newex 46 50 86 196617 split $1 $2;#P objectname split[1];#P connect 16 0 0 0;#P connect 16 0 30 0;#P connect 30 1 1 0;#P connect 30 0 1 0;#P connect 0 0 1 0;#P hidden connect 27 0 26 0;#P hidden connect 26 0 28 0;#P connect 17 0 0 1;#P connect 27 1 26 1;#P connect 18 0 0 2;#P connect 0 1 2 0;#P connect 17 0 30 1;#P connect 30 2 3 0;#P connect 2 0 3 0;#P connect 18 0 2 1;#P connect 19 0 2 2;#P connect 2 1 4 0;#P connect 4 0 5 0;#P connect 19 0 4 1;#P connect 20 0 4 2;#P connect 4 1 6 0;#P connect 6 0 7 0;#P connect 20 0 6 1;#P connect 21 0 6 2;#P connect 6 1 8 0;#P connect 8 0 9 0;#P connect 21 0 8 1;#P connect 22 0 8 2;#P connect 8 1 10 0;#P connect 10 0 11 0;#P connect 22 0 10 1;#P connect 23 0 10 2;#P connect 10 1 12 0;#P connect 12 0 13 0;#P connect 23 0 12 1;#P connect 24 0 12 2;#P connect 12 1 14 0;#P connect 14 0 15 0;#P connect 24 0 14 1;#P connect 25 0 14 2;#P connect 14 1 29 0;#P pop;