max v2;#N vpatcher 167 274 450 491;#P origin -2 0;#P window setfont "Sans Serif" 9.;#P window linecount 1;#P newex 146 51 50 196617 zl slice 1;#P newex 5 81 38 196617 delay 1;#P message 5 106 24 196617 stop;#P newex 5 54 75 196617 sel pause break;#P window linecount 6;#P comment 146 77 119 196617 St.lowzi is like Uzi but slower. Argument # 2 will determin the time between bangs/ numbers in milliseconds. Default is 50 ms;#P outlet 155 154 15 0;#P outlet 138 154 15 0;#P outlet 121 154 15 0;#P inlet 129 31 15 0;#P inlet 112 31 15 0;#P window linecount 1;#P newex 146 31 69 196617 patcherargs;#P message 76 154 43 196617 continue;#P newex 76 133 63 196617 delay 50;#P message 49 106 31 196617 break;#P newex 76 81 46 196617 Uzi $1;#P inlet 5 31 15 0;#P connect 0 0 12 0;#P connect 12 1 14 0;#P connect 12 0 14 0;#P connect 14 0 13 0;#P fasten 1 0 2 0 81 101 54 101;#P fasten 2 0 1 0 54 124 47 124 47 77 81 77;#P fasten 4 0 1 0 81 172 47 172 47 77 81 77;#P fasten 0 0 1 0 10 50 81 50;#P connect 1 0 3 0;#P fasten 13 0 3 0 10 128 81 128;#P connect 3 0 4 0;#P connect 6 0 1 1;#P connect 1 0 8 0;#P fasten 15 1 3 1 191 72 134 72;#P connect 7 0 3 1;#P connect 1 1 9 0;#P connect 5 0 15 0;#P connect 1 2 10 0;#P pop;