max v2;#N vpatcher 156 70 505 442;#P outlet 83 273 15 0;#P window setfont "Sans Serif" 9.;#P newex 99 89 98 196617 St.LoadIf $1;#P inlet 198 89 15 0;#P inlet 83 89 15 0;#P newex 199 192 26 196617 200;#P newex 199 172 13 196617 b;#P newex 134 152 75 196617 split 0 200;#P newex 134 132 62 196617 timer;#P number 198 113 35 9 0 0 0 3 0 0 0 221 221 221 222 222 222 0 0 0;#P newex 83 253 40 196617 line 0.;#P number 134 215 35 9 0 0 0 3 0 0 0 221 221 221 222 222 222 0 0 0;#P newex 83 112 114 196617 t f b b;#P newex 83 233 61 196617 pack 0. 200;#P connect 9 0 1 0;#P connect 1 0 0 0;#P connect 0 0 3 0;#P connect 3 0 12 0;#P connect 1 1 5 0;#P connect 5 0 6 0;#P connect 6 0 2 0;#P fasten 8 0 2 0 204 212 139 212;#P connect 2 0 0 1;#P connect 1 2 5 1;#P connect 10 0 4 0;#P fasten 11 0 4 0 104 109 203 109;#P connect 4 0 6 2;#P connect 6 1 7 0;#P connect 7 0 8 0;#P connect 4 0 8 1;#P pop;