max v2;#N vpatcher 437 263 863 501;#P window setfont "Sans Serif" 9.;#P message 341 126 59 196617 System set to \$1 Hz sr;#P newex 318 103 70 196617 int;#P newex 330 83 58 196617 adstatus sr;#P newex 190 164 59 196617 int;#P newex 190 145 59 196617 + 0.5;#P message 256 126 84 196617 Samples based on \$1 Hz sr;#P newex 256 182 67 196617 print mtofms;#P newex 256 62 84 196617 St.Loadif $2;#P newex 190 126 59 196617 !/ 44100.;#P outlet 190 183 15 0;#P inlet 239 62 15 0;#P outlet 33 184 15 0;#P inlet 33 62 15 0;#P newex 50 62 127 196617 St.Loadif $1 440.;#P newex 33 88 216 196617 expr ($f2 * exp(.057762265 * ($f1 - 69.))) \;;#P comment 78 184 111 196617 looplength ms \, samples;#P newex 62 115 46 196617 !/ 1000.;#P outlet 62 184 15 0;#P connect 5 0 3 0;#P connect 3 0 6 0;#P fasten 3 0 1 0 38 108 67 108;#P connect 1 0 0 0;#P fasten 3 0 9 0 38 108 195 108;#P connect 9 0 13 0;#P connect 13 0 14 0;#P connect 14 0 8 0;#P fasten 4 0 3 1 55 83 244 83;#P connect 7 0 3 1;#P fasten 10 0 9 1 261 109 244 109;#P fasten 16 0 9 1 323 122 244 122;#P connect 10 0 12 0;#P fasten 16 0 12 0 323 122 261 122;#P connect 12 0 11 0;#P fasten 17 0 11 0 346 164 261 164;#P fasten 10 2 16 0 335 81 323 81;#P connect 10 2 15 0;#P connect 15 1 16 1;#P pop;