max v2;#N vpatcher 2 208 369 487;#P origin 8 -28;#P window setfont "Sans Serif" 9.;#P window linecount 1;#P newex 305 116 14 196617 b;#P newex 195 62 31 196617 1;#P newex 163 62 14 196617 b;#P newex 163 41 63 196617 zl slice 1;#P window linecount 3;#P message 242 139 60 196617 script disconnect m 0 out1 0;#P window linecount 1;#N thispatcher;#Q end;#P newobj 242 202 61 196617 thispatcher;#P window linecount 3;#P message 305 139 37 196617 script delete out2;#P window linecount 1;#P newex 195 84 32 196617 sel 2;#P newex 163 20 63 196617 patcherargs;#P newex 101 112 69 196617 t f f b;#P newex 172 112 68 196617 t l l b;#P newex 30 112 69 196617 t i i b;#P newex 30 84 152 196617 route int float;#P window linecount 0;#P message 130 163 110 196617;#B color 9;#P objectname m;#P window linecount 1;#P newex 130 141 27 196617 pset;#P newex 30 204 69 196617 route symbol;#P newex 30 183 44 196617 t l stop;#P inlet 30 64 15 0;#P outlet 30 235 15 0;#P objectname out1;#N coll $1;#P newobj 30 141 98 196617 coll $1;#P newex 159 141 41 196617 delay;#P outlet 130 235 15 0;#P objectname out2;#P connect 4 0 9 0;#P connect 9 0 10 0;#P connect 10 0 2 0;#P connect 11 0 2 0;#P connect 12 0 2 0;#P connect 2 0 5 0;#P connect 5 0 6 0;#P fasten 8 0 3 0 135 230 35 230;#P connect 6 0 3 0;#P fasten 6 1 3 0 94 225 35 225;#P connect 9 1 12 0;#P connect 11 1 7 0;#P connect 10 1 7 0;#P connect 12 1 7 0;#P connect 7 0 8 0;#P connect 1 0 8 0;#P connect 8 0 0 0;#P connect 5 1 1 0;#P connect 11 2 1 0;#P connect 10 2 1 0;#P connect 12 2 1 0;#P connect 13 0 18 0;#P connect 18 0 19 0;#P connect 9 2 11 0;#P connect 19 0 20 0;#P connect 20 0 14 0;#P connect 18 1 20 1;#P fasten 14 0 17 0 200 108 247 108;#P connect 17 0 16 0;#P connect 15 0 16 0;#P fasten 14 1 21 0 222 104 310 104;#P connect 21 0 15 0;#P pop;