max v2;#N vpatcher 146 194 642 441;#P origin -13 116;#P inlet 357 114 15 0;#P inlet 253 114 15 0;#P inlet 171 114 15 0;#P newex 69 93 50 196617 zl slice 2;#P newex 75 39 207 196617 UpdateMidiMenuItems $1;#P inlet 58 39 15 0;#P newex 41 93 27 196617 pack;#P inlet 41 39 15 0;#P newex 69 61 135 196617 r $1Notes;#P newex 357 157 74 196617 prepend voices;#P number 357 136 35 9 0 0 0 3 0 0 0 221 221 221 222 222 222 0 0 0;#P newex 374 114 75 196617 loadbangif $4;#P comment 205 97 238 196617 # 4 : No. of Voices = $4 (default 8);#P number 253 136 46 9 0 0 0 3 0 0 0 221 221 221 222 222 222 0 0 0;#P number 171 136 35 9 0 0 0 3 0 0 0 221 221 221 222 222 222 0 0 0;#P newex 126 114 44 196617 loadbang;#P outlet 171 186 15 0;#P outlet 41 186 15 0;#P comment 205 73 238 196617 # 2 : attack = $2 (default 20);#P comment 205 85 238 196617 # 3 : release = $3 (default 500);#P comment 205 61 238 196617 # 1 : SoundName = $1;#P message 301 186 138 196617;#P message 126 136 38 196617 steal 1;#P newex 41 135 84 196617 prepend midinote;#P newex 41 160 271 196617 poly~ St.SampleVoice~ 8 args $1 $2 $3;#P connect 17 0 18 0;#P connect 18 0 1 0;#P fasten 21 0 1 0 74 123 46 123;#P fasten 15 0 0 0 362 178 351 178 351 156 46 156;#P fasten 2 0 0 0 131 156 46 156;#P connect 1 0 0 0;#P connect 0 0 7 0;#P connect 19 0 18 1;#P connect 16 0 21 0;#P connect 9 0 2 0;#P connect 22 0 10 0;#P connect 10 0 0 1;#P connect 0 1 8 0;#P connect 23 0 11 0;#P fasten 11 0 0 2 258 156 306 156;#P connect 0 2 3 0;#P connect 24 0 14 0;#P connect 13 0 14 0;#P connect 14 0 15 0;#P pop;