{
	"patcher" : 	{
		"fileversion" : 1,
		"rect" : [ 127.0, 44.0, 595.0, 778.0 ],
		"bgcolor" : [ 0.87451, 0.933333, 1.0, 1.0 ],
		"bglocked" : 0,
		"defrect" : [ 127.0, 44.0, 595.0, 778.0 ],
		"openrect" : [ 0.0, 0.0, 0.0, 0.0 ],
		"openinpresentation" : 0,
		"default_fontsize" : 12.0,
		"default_fontface" : 0,
		"default_fontname" : "Arial",
		"gridonopen" : 0,
		"gridsize" : [ 15.0, 15.0 ],
		"gridsnaponopen" : 0,
		"toolbarvisible" : 1,
		"boxanimatetime" : 200,
		"imprint" : 0,
		"boxes" : [ 			{
				"box" : 				{
					"maxclass" : "toggle",
					"numinlets" : 1,
					"numoutlets" : 1,
					"patching_rect" : [ 200.0, 121.0, 20.0, 20.0 ],
					"id" : "obj-1",
					"outlettype" : [ "int" ]
				}

			}
, 			{
				"box" : 				{
					"maxclass" : "message",
					"text" : "/motion $1",
					"fontsize" : 12.0,
					"numinlets" : 2,
					"fontname" : "Arial",
					"numoutlets" : 1,
					"patching_rect" : [ 200.0, 149.0, 67.0, 18.0 ],
					"id" : "obj-2",
					"outlettype" : [ "" ]
				}

			}
, 			{
				"box" : 				{
					"maxclass" : "bpatcher",
					"offset" : [ -18.0, -68.0 ],
					"name" : "banner.maxpat",
					"numinlets" : 0,
					"lockeddragscroll" : 1,
					"numoutlets" : 0,
					"patching_rect" : [ 11.0, 2.0, 511.0, 76.0 ],
					"id" : "obj-5",
					"args" : [ "OSC-Wiiremote", "OSC wrapper for the wii remote via tha aka.wiiremote object" ]
				}

			}
, 			{
				"box" : 				{
					"maxclass" : "bpatcher",
					"name" : "badge.maxpat",
					"numinlets" : 0,
					"numoutlets" : 0,
					"patching_rect" : [ 267.0, 633.0, 292.0, 86.0 ],
					"id" : "obj-3",
					"args" : [ "OSC-Wiiremote.help", "1.0a", "Michael Zbyszynski", "OSC-Wiiremote", 6666 ]
				}

			}
, 			{
				"box" : 				{
					"maxclass" : "led",
					"bgcolor" : [ 0.35294, 0.35294, 0.35294, 1.0 ],
					"numinlets" : 1,
					"numoutlets" : 1,
					"patching_rect" : [ 518.0, 269.0, 17.0, 17.0 ],
					"id" : "obj-6",
					"outlettype" : [ "int" ]
				}

			}
, 			{
				"box" : 				{
					"maxclass" : "led",
					"bgcolor" : [ 0.35294, 0.35294, 0.35294, 1.0 ],
					"numinlets" : 1,
					"numoutlets" : 1,
					"patching_rect" : [ 489.0, 269.0, 17.0, 17.0 ],
					"id" : "obj-7",
					"outlettype" : [ "int" ]
				}

			}
, 			{
				"box" : 				{
					"maxclass" : "led",
					"bgcolor" : [ 0.35294, 0.35294, 0.35294, 1.0 ],
					"numinlets" : 1,
					"numoutlets" : 1,
					"patching_rect" : [ 461.0, 269.0, 17.0, 17.0 ],
					"id" : "obj-8",
					"outlettype" : [ "int" ]
				}

			}
, 			{
				"box" : 				{
					"maxclass" : "led",
					"bgcolor" : [ 0.35294, 0.35294, 0.35294, 1.0 ],
					"numinlets" : 1,
					"numoutlets" : 1,
					"patching_rect" : [ 432.0, 269.0, 17.0, 17.0 ],
					"id" : "obj-9",
					"outlettype" : [ "int" ]
				}

			}
, 			{
				"box" : 				{
					"maxclass" : "led",
					"bgcolor" : [ 0.35294, 0.35294, 0.35294, 1.0 ],
					"numinlets" : 1,
					"numoutlets" : 1,
					"patching_rect" : [ 403.0, 269.0, 17.0, 17.0 ],
					"id" : "obj-10",
					"outlettype" : [ "int" ]
				}

			}
, 			{
				"box" : 				{
					"maxclass" : "led",
					"bgcolor" : [ 0.35294, 0.35294, 0.35294, 1.0 ],
					"numinlets" : 1,
					"numoutlets" : 1,
					"patching_rect" : [ 374.0, 269.0, 17.0, 17.0 ],
					"id" : "obj-11",
					"outlettype" : [ "int" ]
				}

			}
, 			{
				"box" : 				{
					"maxclass" : "led",
					"bgcolor" : [ 0.35294, 0.35294, 0.35294, 1.0 ],
					"numinlets" : 1,
					"numoutlets" : 1,
					"patching_rect" : [ 345.0, 269.0, 17.0, 17.0 ],
					"id" : "obj-12",
					"outlettype" : [ "int" ]
				}

			}
, 			{
				"box" : 				{
					"maxclass" : "led",
					"bgcolor" : [ 0.35294, 0.35294, 0.35294, 1.0 ],
					"numinlets" : 1,
					"numoutlets" : 1,
					"patching_rect" : [ 316.0, 269.0, 17.0, 17.0 ],
					"id" : "obj-13",
					"outlettype" : [ "int" ]
				}

			}
, 			{
				"box" : 				{
					"maxclass" : "led",
					"bgcolor" : [ 0.35294, 0.35294, 0.35294, 1.0 ],
					"numinlets" : 1,
					"numoutlets" : 1,
					"patching_rect" : [ 288.0, 269.0, 17.0, 17.0 ],
					"id" : "obj-14",
					"outlettype" : [ "int" ]
				}

			}
, 			{
				"box" : 				{
					"maxclass" : "led",
					"bgcolor" : [ 0.35294, 0.35294, 0.35294, 1.0 ],
					"numinlets" : 1,
					"numoutlets" : 1,
					"patching_rect" : [ 259.0, 269.0, 17.0, 17.0 ],
					"id" : "obj-15",
					"outlettype" : [ "int" ]
				}

			}
, 			{
				"box" : 				{
					"maxclass" : "led",
					"bgcolor" : [ 0.35294, 0.35294, 0.35294, 1.0 ],
					"numinlets" : 1,
					"numoutlets" : 1,
					"patching_rect" : [ 230.0, 269.0, 17.0, 17.0 ],
					"id" : "obj-16",
					"outlettype" : [ "int" ]
				}

			}
, 			{
				"box" : 				{
					"maxclass" : "number",
					"fontsize" : 12.0,
					"bgcolor" : [ 0.866667, 0.866667, 0.866667, 1.0 ],
					"htextcolor" : [ 0.870588, 0.870588, 0.870588, 1.0 ],
					"triangle" : 0,
					"numinlets" : 1,
					"fontname" : "Arial",
					"numoutlets" : 2,
					"triscale" : 0.9,
					"patching_rect" : [ 158.0, 377.0, 37.0, 20.0 ],
					"id" : "obj-17",
					"outlettype" : [ "int", "bang" ]
				}

			}
, 			{
				"box" : 				{
					"maxclass" : "lcd",
					"numinlets" : 1,
					"numoutlets" : 4,
					"patching_rect" : [ 42.0, 460.0, 128.0, 128.0 ],
					"id" : "obj-18",
					"outlettype" : [ "list", "list", "int", "" ]
				}

			}
, 			{
				"box" : 				{
					"maxclass" : "newobj",
					"text" : "p toLCD",
					"fontsize" : 12.0,
					"numinlets" : 4,
					"fontname" : "Arial",
					"numoutlets" : 1,
					"patching_rect" : [ 42.0, 433.0, 134.5, 20.0 ],
					"id" : "obj-19",
					"outlettype" : [ "" ],
					"patcher" : 					{
						"fileversion" : 1,
						"rect" : [ 10.0, 59.0, 600.0, 426.0 ],
						"bglocked" : 0,
						"defrect" : [ 10.0, 59.0, 600.0, 426.0 ],
						"openrect" : [ 0.0, 0.0, 0.0, 0.0 ],
						"openinpresentation" : 0,
						"default_fontsize" : 12.0,
						"default_fontface" : 0,
						"default_fontname" : "Arial",
						"gridonopen" : 0,
						"gridsize" : [ 15.0, 15.0 ],
						"gridsnaponopen" : 0,
						"toolbarvisible" : 1,
						"boxanimatetime" : 200,
						"imprint" : 0,
						"boxes" : [ 							{
								"box" : 								{
									"maxclass" : "outlet",
									"numinlets" : 1,
									"numoutlets" : 0,
									"patching_rect" : [ 61.0, 342.0, 15.0, 15.0 ],
									"id" : "obj-1",
									"comment" : ""
								}

							}
, 							{
								"box" : 								{
									"maxclass" : "inlet",
									"numinlets" : 0,
									"numoutlets" : 1,
									"patching_rect" : [ 64.0, 102.0, 15.0, 15.0 ],
									"id" : "obj-2",
									"outlettype" : [ "int" ],
									"comment" : ""
								}

							}
, 							{
								"box" : 								{
									"maxclass" : "inlet",
									"numinlets" : 0,
									"numoutlets" : 1,
									"patching_rect" : [ 176.0, 90.0, 15.0, 15.0 ],
									"id" : "obj-3",
									"outlettype" : [ "int" ],
									"comment" : ""
								}

							}
, 							{
								"box" : 								{
									"maxclass" : "inlet",
									"numinlets" : 0,
									"numoutlets" : 1,
									"patching_rect" : [ 283.0, 105.0, 15.0, 15.0 ],
									"id" : "obj-4",
									"outlettype" : [ "int" ],
									"comment" : ""
								}

							}
, 							{
								"box" : 								{
									"maxclass" : "inlet",
									"numinlets" : 0,
									"numoutlets" : 1,
									"patching_rect" : [ 340.0, 101.0, 15.0, 15.0 ],
									"id" : "obj-5",
									"outlettype" : [ "int" ],
									"comment" : ""
								}

							}
, 							{
								"box" : 								{
									"maxclass" : "newobj",
									"text" : "int",
									"fontsize" : 9.0,
									"numinlets" : 2,
									"fontname" : "Arial",
									"numoutlets" : 1,
									"patching_rect" : [ 301.0, 197.0, 27.0, 17.0 ],
									"id" : "obj-6",
									"outlettype" : [ "int" ]
								}

							}
, 							{
								"box" : 								{
									"maxclass" : "newobj",
									"text" : "int",
									"fontsize" : 9.0,
									"numinlets" : 2,
									"fontname" : "Arial",
									"numoutlets" : 1,
									"patching_rect" : [ 205.0, 197.0, 27.0, 17.0 ],
									"id" : "obj-7",
									"outlettype" : [ "int" ]
								}

							}
, 							{
								"box" : 								{
									"maxclass" : "newobj",
									"text" : "int",
									"fontsize" : 9.0,
									"numinlets" : 2,
									"fontname" : "Arial",
									"numoutlets" : 1,
									"patching_rect" : [ 109.0, 197.0, 27.0, 17.0 ],
									"id" : "obj-8",
									"outlettype" : [ "int" ]
								}

							}
, 							{
								"box" : 								{
									"maxclass" : "newobj",
									"text" : "t i i b",
									"fontsize" : 9.0,
									"numinlets" : 1,
									"fontname" : "Arial",
									"numoutlets" : 3,
									"patching_rect" : [ 253.0, 168.0, 59.0, 17.0 ],
									"id" : "obj-9",
									"outlettype" : [ "int", "int", "bang" ]
								}

							}
, 							{
								"box" : 								{
									"maxclass" : "newobj",
									"text" : "t i i b",
									"fontsize" : 9.0,
									"numinlets" : 1,
									"fontname" : "Arial",
									"numoutlets" : 3,
									"patching_rect" : [ 157.0, 167.0, 59.0, 17.0 ],
									"id" : "obj-10",
									"outlettype" : [ "int", "int", "bang" ]
								}

							}
, 							{
								"box" : 								{
									"maxclass" : "newobj",
									"text" : "t i i b",
									"fontsize" : 9.0,
									"numinlets" : 1,
									"fontname" : "Arial",
									"numoutlets" : 3,
									"patching_rect" : [ 61.0, 167.0, 58.0, 17.0 ],
									"id" : "obj-11",
									"outlettype" : [ "int", "int", "bang" ]
								}

							}
, 							{
								"box" : 								{
									"maxclass" : "newobj",
									"text" : "!- 5",
									"fontsize" : 9.0,
									"numinlets" : 2,
									"fontname" : "Arial",
									"numoutlets" : 1,
									"patching_rect" : [ 349.0, 141.0, 27.0, 17.0 ],
									"id" : "obj-12",
									"outlettype" : [ "int" ]
								}

							}
, 							{
								"box" : 								{
									"maxclass" : "newobj",
									"text" : "* 90",
									"fontsize" : 9.0,
									"numinlets" : 2,
									"fontname" : "Arial",
									"numoutlets" : 1,
									"patching_rect" : [ 349.0, 165.0, 32.0, 17.0 ],
									"id" : "obj-13",
									"outlettype" : [ "int" ]
								}

							}
, 							{
								"box" : 								{
									"maxclass" : "newobj",
									"text" : "scale 0 255 127 0",
									"fontsize" : 9.0,
									"numinlets" : 6,
									"fontname" : "Arial",
									"numoutlets" : 1,
									"patching_rect" : [ 253.0, 141.0, 93.0, 17.0 ],
									"id" : "obj-14",
									"outlettype" : [ "int" ]
								}

							}
, 							{
								"box" : 								{
									"maxclass" : "newobj",
									"text" : "scale 0 255 127 0",
									"fontsize" : 9.0,
									"numinlets" : 6,
									"fontname" : "Arial",
									"numoutlets" : 1,
									"patching_rect" : [ 157.0, 141.0, 93.0, 17.0 ],
									"id" : "obj-15",
									"outlettype" : [ "int" ]
								}

							}
, 							{
								"box" : 								{
									"maxclass" : "newobj",
									"text" : "scale 0 255 127 0",
									"fontsize" : 9.0,
									"numinlets" : 6,
									"fontname" : "Arial",
									"numoutlets" : 1,
									"patching_rect" : [ 61.0, 141.0, 93.0, 17.0 ],
									"id" : "obj-16",
									"outlettype" : [ "int" ]
								}

							}
, 							{
								"box" : 								{
									"maxclass" : "message",
									"text" : "scrollrect 1 0 127 127 -1 0, linesegment 125 $2 126 $1 255 0 0, linesegment 125 $4 126 $3 0 255 0, linesegment 125 $6 126 $5 0 0 255, paintrect 0 100 27 127 0, paintarc 7 100 27 120 $7 180 250",
									"linecount" : 6,
									"fontsize" : 9.0,
									"numinlets" : 2,
									"fontname" : "Arial",
									"numoutlets" : 1,
									"patching_rect" : [ 61.0, 248.0, 169.0, 67.0 ],
									"id" : "obj-17",
									"outlettype" : [ "" ]
								}

							}
, 							{
								"box" : 								{
									"maxclass" : "newobj",
									"text" : "pack 0 0 0 0 0 0 0",
									"fontsize" : 9.0,
									"numinlets" : 7,
									"fontname" : "Arial",
									"numoutlets" : 1,
									"patching_rect" : [ 61.0, 221.0, 298.0, 17.0 ],
									"id" : "obj-18",
									"outlettype" : [ "" ]
								}

							}
 ],
						"lines" : [ 							{
								"patchline" : 								{
									"source" : [ "obj-13", 0 ],
									"destination" : [ "obj-18", 6 ],
									"hidden" : 0,
									"midpoints" : [  ]
								}

							}
, 							{
								"patchline" : 								{
									"source" : [ "obj-12", 0 ],
									"destination" : [ "obj-13", 0 ],
									"hidden" : 0,
									"midpoints" : [  ]
								}

							}
, 							{
								"patchline" : 								{
									"source" : [ "obj-5", 0 ],
									"destination" : [ "obj-12", 0 ],
									"hidden" : 0,
									"midpoints" : [  ]
								}

							}
, 							{
								"patchline" : 								{
									"source" : [ "obj-9", 1 ],
									"destination" : [ "obj-6", 1 ],
									"hidden" : 0,
									"midpoints" : [ 282.5, 191.0, 318.5, 191.0 ]
								}

							}
, 							{
								"patchline" : 								{
									"source" : [ "obj-6", 0 ],
									"destination" : [ "obj-18", 5 ],
									"hidden" : 0,
									"midpoints" : [  ]
								}

							}
, 							{
								"patchline" : 								{
									"source" : [ "obj-9", 2 ],
									"destination" : [ "obj-6", 0 ],
									"hidden" : 0,
									"midpoints" : [  ]
								}

							}
, 							{
								"patchline" : 								{
									"source" : [ "obj-9", 0 ],
									"destination" : [ "obj-18", 4 ],
									"hidden" : 0,
									"midpoints" : [  ]
								}

							}
, 							{
								"patchline" : 								{
									"source" : [ "obj-14", 0 ],
									"destination" : [ "obj-9", 0 ],
									"hidden" : 0,
									"midpoints" : [  ]
								}

							}
, 							{
								"patchline" : 								{
									"source" : [ "obj-4", 0 ],
									"destination" : [ "obj-14", 0 ],
									"hidden" : 0,
									"midpoints" : [  ]
								}

							}
, 							{
								"patchline" : 								{
									"source" : [ "obj-10", 1 ],
									"destination" : [ "obj-7", 1 ],
									"hidden" : 0,
									"midpoints" : [ 186.5, 190.0, 222.5, 190.0 ]
								}

							}
, 							{
								"patchline" : 								{
									"source" : [ "obj-7", 0 ],
									"destination" : [ "obj-18", 3 ],
									"hidden" : 0,
									"midpoints" : [  ]
								}

							}
, 							{
								"patchline" : 								{
									"source" : [ "obj-10", 2 ],
									"destination" : [ "obj-7", 0 ],
									"hidden" : 0,
									"midpoints" : [  ]
								}

							}
, 							{
								"patchline" : 								{
									"source" : [ "obj-10", 0 ],
									"destination" : [ "obj-18", 2 ],
									"hidden" : 0,
									"midpoints" : [  ]
								}

							}
, 							{
								"patchline" : 								{
									"source" : [ "obj-15", 0 ],
									"destination" : [ "obj-10", 0 ],
									"hidden" : 0,
									"midpoints" : [  ]
								}

							}
, 							{
								"patchline" : 								{
									"source" : [ "obj-3", 0 ],
									"destination" : [ "obj-15", 0 ],
									"hidden" : 0,
									"midpoints" : [  ]
								}

							}
, 							{
								"patchline" : 								{
									"source" : [ "obj-11", 1 ],
									"destination" : [ "obj-8", 1 ],
									"hidden" : 0,
									"midpoints" : [ 90.0, 190.0, 126.5, 190.0 ]
								}

							}
, 							{
								"patchline" : 								{
									"source" : [ "obj-8", 0 ],
									"destination" : [ "obj-18", 1 ],
									"hidden" : 0,
									"midpoints" : [  ]
								}

							}
, 							{
								"patchline" : 								{
									"source" : [ "obj-11", 2 ],
									"destination" : [ "obj-8", 0 ],
									"hidden" : 0,
									"midpoints" : [  ]
								}

							}
, 							{
								"patchline" : 								{
									"source" : [ "obj-17", 0 ],
									"destination" : [ "obj-1", 0 ],
									"hidden" : 0,
									"midpoints" : [  ]
								}

							}
, 							{
								"patchline" : 								{
									"source" : [ "obj-18", 0 ],
									"destination" : [ "obj-17", 0 ],
									"hidden" : 0,
									"midpoints" : [  ]
								}

							}
, 							{
								"patchline" : 								{
									"source" : [ "obj-11", 0 ],
									"destination" : [ "obj-18", 0 ],
									"hidden" : 0,
									"midpoints" : [  ]
								}

							}
, 							{
								"patchline" : 								{
									"source" : [ "obj-16", 0 ],
									"destination" : [ "obj-11", 0 ],
									"hidden" : 0,
									"midpoints" : [  ]
								}

							}
, 							{
								"patchline" : 								{
									"source" : [ "obj-2", 0 ],
									"destination" : [ "obj-16", 0 ],
									"hidden" : 0,
									"midpoints" : [  ]
								}

							}
 ]
					}
,
					"saved_object_attributes" : 					{
						"fontface" : 0,
						"fontsize" : 12.0,
						"globalpatchername" : "",
						"default_fontface" : 0,
						"fontname" : "Arial",
						"default_fontname" : "Arial",
						"default_fontsize" : 12.0
					}

				}

			}
, 			{
				"box" : 				{
					"maxclass" : "number",
					"fontsize" : 12.0,
					"bgcolor" : [ 0.866667, 0.866667, 0.866667, 1.0 ],
					"htextcolor" : [ 0.870588, 0.870588, 0.870588, 1.0 ],
					"triangle" : 0,
					"numinlets" : 1,
					"fontname" : "Arial",
					"numoutlets" : 2,
					"triscale" : 0.9,
					"patching_rect" : [ 120.0, 377.0, 37.0, 20.0 ],
					"id" : "obj-20",
					"outlettype" : [ "int", "bang" ]
				}

			}
, 			{
				"box" : 				{
					"maxclass" : "number",
					"fontsize" : 12.0,
					"bgcolor" : [ 0.866667, 0.866667, 0.866667, 1.0 ],
					"htextcolor" : [ 0.870588, 0.870588, 0.870588, 1.0 ],
					"triangle" : 0,
					"numinlets" : 1,
					"fontname" : "Arial",
					"numoutlets" : 2,
					"triscale" : 0.9,
					"patching_rect" : [ 81.0, 377.0, 37.0, 20.0 ],
					"id" : "obj-21",
					"outlettype" : [ "int", "bang" ]
				}

			}
, 			{
				"box" : 				{
					"maxclass" : "led",
					"offcolor" : [ 0.0, 0.0, 0.466667, 1.0 ],
					"bgcolor" : [ 0.35294, 0.35294, 0.35294, 1.0 ],
					"oncolor" : [ 0.0, 1.0, 1.0, 1.0 ],
					"numinlets" : 1,
					"numoutlets" : 1,
					"patching_rect" : [ 370.0, 446.0, 17.0, 17.0 ],
					"id" : "obj-22",
					"outlettype" : [ "int" ]
				}

			}
, 			{
				"box" : 				{
					"maxclass" : "led",
					"offcolor" : [ 0.0, 0.0, 0.466667, 1.0 ],
					"bgcolor" : [ 0.35294, 0.35294, 0.35294, 1.0 ],
					"oncolor" : [ 0.0, 1.0, 1.0, 1.0 ],
					"numinlets" : 1,
					"numoutlets" : 1,
					"patching_rect" : [ 369.0, 360.0, 17.0, 17.0 ],
					"id" : "obj-23",
					"outlettype" : [ "int" ]
				}

			}
, 			{
				"box" : 				{
					"maxclass" : "led",
					"offcolor" : [ 0.0, 0.0, 0.466667, 1.0 ],
					"bgcolor" : [ 0.35294, 0.35294, 0.35294, 1.0 ],
					"oncolor" : [ 0.0, 1.0, 1.0, 1.0 ],
					"numinlets" : 1,
					"numoutlets" : 1,
					"patching_rect" : [ 369.0, 333.0, 17.0, 17.0 ],
					"id" : "obj-24",
					"outlettype" : [ "int" ]
				}

			}
, 			{
				"box" : 				{
					"maxclass" : "led",
					"offcolor" : [ 0.0, 0.0, 0.466667, 1.0 ],
					"bgcolor" : [ 0.35294, 0.35294, 0.35294, 1.0 ],
					"oncolor" : [ 0.0, 1.0, 1.0, 1.0 ],
					"numinlets" : 1,
					"numoutlets" : 1,
					"patching_rect" : [ 384.0, 346.0, 17.0, 17.0 ],
					"id" : "obj-25",
					"outlettype" : [ "int" ]
				}

			}
, 			{
				"box" : 				{
					"maxclass" : "led",
					"offcolor" : [ 0.0, 0.0, 0.466667, 1.0 ],
					"bgcolor" : [ 0.35294, 0.35294, 0.35294, 1.0 ],
					"oncolor" : [ 0.0, 1.0, 1.0, 1.0 ],
					"numinlets" : 1,
					"numoutlets" : 1,
					"patching_rect" : [ 354.0, 346.0, 17.0, 17.0 ],
					"id" : "obj-26",
					"outlettype" : [ "int" ]
				}

			}
, 			{
				"box" : 				{
					"maxclass" : "led",
					"offcolor" : [ 0.0, 0.0, 0.466667, 1.0 ],
					"bgcolor" : [ 0.35294, 0.35294, 0.35294, 1.0 ],
					"oncolor" : [ 0.0, 1.0, 1.0, 1.0 ],
					"numinlets" : 1,
					"numoutlets" : 1,
					"patching_rect" : [ 369.0, 550.0, 17.0, 17.0 ],
					"id" : "obj-27",
					"outlettype" : [ "int" ]
				}

			}
, 			{
				"box" : 				{
					"maxclass" : "led",
					"offcolor" : [ 0.0, 0.0, 0.466667, 1.0 ],
					"bgcolor" : [ 0.35294, 0.35294, 0.35294, 1.0 ],
					"oncolor" : [ 0.0, 1.0, 1.0, 1.0 ],
					"numinlets" : 1,
					"numoutlets" : 1,
					"patching_rect" : [ 369.0, 524.0, 17.0, 17.0 ],
					"id" : "obj-28",
					"outlettype" : [ "int" ]
				}

			}
, 			{
				"box" : 				{
					"maxclass" : "led",
					"offcolor" : [ 0.0, 0.0, 0.466667, 1.0 ],
					"bgcolor" : [ 0.35294, 0.35294, 0.35294, 1.0 ],
					"oncolor" : [ 0.0, 1.0, 1.0, 1.0 ],
					"numinlets" : 1,
					"numoutlets" : 1,
					"patching_rect" : [ 347.0, 446.0, 17.0, 17.0 ],
					"id" : "obj-29",
					"outlettype" : [ "int" ]
				}

			}
, 			{
				"box" : 				{
					"maxclass" : "led",
					"offcolor" : [ 0.0, 0.0, 0.466667, 1.0 ],
					"bgcolor" : [ 0.35294, 0.35294, 0.35294, 1.0 ],
					"oncolor" : [ 0.0, 1.0, 1.0, 1.0 ],
					"numinlets" : 1,
					"numoutlets" : 1,
					"patching_rect" : [ 392.0, 446.0, 17.0, 17.0 ],
					"id" : "obj-30",
					"outlettype" : [ "int" ]
				}

			}
, 			{
				"box" : 				{
					"maxclass" : "message",
					"text" : "/getbattery",
					"fontsize" : 12.0,
					"numinlets" : 2,
					"fontname" : "Arial",
					"numoutlets" : 1,
					"patching_rect" : [ 128.0, 142.0, 67.0, 18.0 ],
					"id" : "obj-31",
					"outlettype" : [ "" ]
				}

			}
, 			{
				"box" : 				{
					"maxclass" : "number",
					"fontsize" : 12.0,
					"bgcolor" : [ 0.866667, 0.866667, 0.866667, 1.0 ],
					"htextcolor" : [ 0.870588, 0.870588, 0.870588, 1.0 ],
					"triangle" : 0,
					"numinlets" : 1,
					"fontname" : "Arial",
					"numoutlets" : 2,
					"triscale" : 0.9,
					"patching_rect" : [ 42.0, 377.0, 37.0, 20.0 ],
					"id" : "obj-32",
					"outlettype" : [ "int", "bang" ]
				}

			}
, 			{
				"box" : 				{
					"maxclass" : "newobj",
					"text" : "OSC-route /X /Y /Z /orientation",
					"fontsize" : 12.0,
					"numinlets" : 1,
					"fontname" : "Arial",
					"numoutlets" : 5,
					"patching_rect" : [ 42.0, 348.0, 174.0, 20.0 ],
					"id" : "obj-33",
					"outlettype" : [ "", "", "", "", "" ]
				}

			}
, 			{
				"box" : 				{
					"maxclass" : "led",
					"offcolor" : [ 0.0, 0.0, 0.466667, 1.0 ],
					"bgcolor" : [ 0.35294, 0.35294, 0.35294, 1.0 ],
					"oncolor" : [ 0.0, 1.0, 1.0, 1.0 ],
					"numinlets" : 1,
					"numoutlets" : 1,
					"patching_rect" : [ 285.0, 367.0, 17.0, 17.0 ],
					"id" : "obj-34",
					"outlettype" : [ "int" ]
				}

			}
, 			{
				"box" : 				{
					"maxclass" : "led",
					"offcolor" : [ 0.0, 0.0, 0.466667, 1.0 ],
					"bgcolor" : [ 0.35294, 0.35294, 0.35294, 1.0 ],
					"oncolor" : [ 0.0, 1.0, 1.0, 1.0 ],
					"numinlets" : 1,
					"numoutlets" : 1,
					"patching_rect" : [ 370.0, 395.0, 17.0, 17.0 ],
					"id" : "obj-35",
					"outlettype" : [ "int" ]
				}

			}
, 			{
				"box" : 				{
					"maxclass" : "newobj",
					"text" : "OSC-route /A /B /1 /2 /plus /minus /left /right /up /down /home",
					"fontsize" : 12.0,
					"numinlets" : 1,
					"fontname" : "Arial",
					"numoutlets" : 12,
					"patching_rect" : [ 230.0, 244.0, 336.0, 20.0 ],
					"id" : "obj-36",
					"outlettype" : [ "", "", "", "", "", "", "", "", "", "", "", "" ]
				}

			}
, 			{
				"box" : 				{
					"maxclass" : "message",
					"text" : "/disconnect",
					"fontsize" : 12.0,
					"numinlets" : 2,
					"fontname" : "Arial",
					"numoutlets" : 1,
					"patching_rect" : [ 95.0, 122.0, 71.0, 18.0 ],
					"id" : "obj-37",
					"outlettype" : [ "" ]
				}

			}
, 			{
				"box" : 				{
					"maxclass" : "message",
					"text" : "/poll 50",
					"fontsize" : 12.0,
					"numinlets" : 2,
					"fontname" : "Arial",
					"numoutlets" : 1,
					"patching_rect" : [ 273.0, 167.0, 59.0, 18.0 ],
					"id" : "obj-38",
					"outlettype" : [ "" ]
				}

			}
, 			{
				"box" : 				{
					"maxclass" : "newobj",
					"text" : "OSC-route /remote",
					"fontsize" : 12.0,
					"numinlets" : 1,
					"fontname" : "Arial",
					"numoutlets" : 2,
					"patching_rect" : [ 42.0, 219.0, 112.0, 20.0 ],
					"id" : "obj-39",
					"outlettype" : [ "", "" ]
				}

			}
, 			{
				"box" : 				{
					"maxclass" : "message",
					"text" : "/connect, /poll 50",
					"fontsize" : 12.0,
					"numinlets" : 2,
					"fontname" : "Arial",
					"numoutlets" : 1,
					"patching_rect" : [ 42.0, 99.0, 101.0, 18.0 ],
					"id" : "obj-40",
					"outlettype" : [ "" ]
				}

			}
, 			{
				"box" : 				{
					"maxclass" : "newobj",
					"text" : "OSC-Wiiremote",
					"fontsize" : 12.0,
					"numinlets" : 1,
					"fontname" : "Arial",
					"numoutlets" : 1,
					"color" : [ 0.945098, 0.913725, 0.407843, 1.0 ],
					"patching_rect" : [ 42.0, 194.0, 95.0, 20.0 ],
					"id" : "obj-41",
					"outlettype" : [ "" ]
				}

			}
, 			{
				"box" : 				{
					"maxclass" : "comment",
					"text" : "-->",
					"fontsize" : 18.0,
					"frgb" : [ 0.0, 0.0, 0.0, 1.0 ],
					"numinlets" : 1,
					"fontname" : "Arial",
					"numoutlets" : 0,
					"patching_rect" : [ 302.0, 363.0, 34.0, 27.0 ],
					"id" : "obj-42"
				}

			}
, 			{
				"box" : 				{
					"maxclass" : "comment",
					"text" : "(default is on)",
					"fontsize" : 12.0,
					"frgb" : [ 0.0, 0.0, 0.0, 1.0 ],
					"numinlets" : 1,
					"fontname" : "Arial",
					"numoutlets" : 0,
					"patching_rect" : [ 216.0, 120.0, 83.0, 20.0 ],
					"id" : "obj-43"
				}

			}
, 			{
				"box" : 				{
					"maxclass" : "fpic",
					"xoffset" : -120.0,
					"numinlets" : 1,
					"numoutlets" : 0,
					"background" : 1,
					"patching_rect" : [ 337.0, 295.0, 80.0, 321.0 ],
					"pic" : "official-wii-remote.jpg",
					"id" : "obj-44"
				}

			}
 ],
		"lines" : [ 			{
				"patchline" : 				{
					"source" : [ "obj-36", 10 ],
					"destination" : [ "obj-6", 0 ],
					"hidden" : 0,
					"midpoints" : [  ]
				}

			}
, 			{
				"patchline" : 				{
					"source" : [ "obj-36", 9 ],
					"destination" : [ "obj-7", 0 ],
					"hidden" : 0,
					"midpoints" : [  ]
				}

			}
, 			{
				"patchline" : 				{
					"source" : [ "obj-36", 8 ],
					"destination" : [ "obj-8", 0 ],
					"hidden" : 0,
					"midpoints" : [  ]
				}

			}
, 			{
				"patchline" : 				{
					"source" : [ "obj-36", 7 ],
					"destination" : [ "obj-9", 0 ],
					"hidden" : 0,
					"midpoints" : [  ]
				}

			}
, 			{
				"patchline" : 				{
					"source" : [ "obj-36", 6 ],
					"destination" : [ "obj-10", 0 ],
					"hidden" : 0,
					"midpoints" : [  ]
				}

			}
, 			{
				"patchline" : 				{
					"source" : [ "obj-36", 4 ],
					"destination" : [ "obj-30", 0 ],
					"hidden" : 1,
					"midpoints" : [  ]
				}

			}
, 			{
				"patchline" : 				{
					"source" : [ "obj-36", 7 ],
					"destination" : [ "obj-25", 0 ],
					"hidden" : 1,
					"midpoints" : [  ]
				}

			}
, 			{
				"patchline" : 				{
					"source" : [ "obj-36", 10 ],
					"destination" : [ "obj-22", 0 ],
					"hidden" : 1,
					"midpoints" : [  ]
				}

			}
, 			{
				"patchline" : 				{
					"source" : [ "obj-36", 0 ],
					"destination" : [ "obj-35", 0 ],
					"hidden" : 1,
					"midpoints" : [  ]
				}

			}
, 			{
				"patchline" : 				{
					"source" : [ "obj-36", 5 ],
					"destination" : [ "obj-11", 0 ],
					"hidden" : 0,
					"midpoints" : [  ]
				}

			}
, 			{
				"patchline" : 				{
					"source" : [ "obj-36", 3 ],
					"destination" : [ "obj-27", 0 ],
					"hidden" : 1,
					"midpoints" : [  ]
				}

			}
, 			{
				"patchline" : 				{
					"source" : [ "obj-36", 2 ],
					"destination" : [ "obj-28", 0 ],
					"hidden" : 1,
					"midpoints" : [  ]
				}

			}
, 			{
				"patchline" : 				{
					"source" : [ "obj-36", 9 ],
					"destination" : [ "obj-23", 0 ],
					"hidden" : 1,
					"midpoints" : [  ]
				}

			}
, 			{
				"patchline" : 				{
					"source" : [ "obj-36", 8 ],
					"destination" : [ "obj-24", 0 ],
					"hidden" : 1,
					"midpoints" : [  ]
				}

			}
, 			{
				"patchline" : 				{
					"source" : [ "obj-36", 6 ],
					"destination" : [ "obj-26", 0 ],
					"hidden" : 1,
					"midpoints" : [  ]
				}

			}
, 			{
				"patchline" : 				{
					"source" : [ "obj-36", 5 ],
					"destination" : [ "obj-29", 0 ],
					"hidden" : 1,
					"midpoints" : [  ]
				}

			}
, 			{
				"patchline" : 				{
					"source" : [ "obj-36", 4 ],
					"destination" : [ "obj-12", 0 ],
					"hidden" : 0,
					"midpoints" : [  ]
				}

			}
, 			{
				"patchline" : 				{
					"source" : [ "obj-36", 3 ],
					"destination" : [ "obj-13", 0 ],
					"hidden" : 0,
					"midpoints" : [  ]
				}

			}
, 			{
				"patchline" : 				{
					"source" : [ "obj-36", 2 ],
					"destination" : [ "obj-14", 0 ],
					"hidden" : 0,
					"midpoints" : [  ]
				}

			}
, 			{
				"patchline" : 				{
					"source" : [ "obj-36", 1 ],
					"destination" : [ "obj-34", 0 ],
					"hidden" : 1,
					"midpoints" : [  ]
				}

			}
, 			{
				"patchline" : 				{
					"source" : [ "obj-36", 1 ],
					"destination" : [ "obj-15", 0 ],
					"hidden" : 0,
					"midpoints" : [  ]
				}

			}
, 			{
				"patchline" : 				{
					"source" : [ "obj-36", 0 ],
					"destination" : [ "obj-16", 0 ],
					"hidden" : 0,
					"midpoints" : [  ]
				}

			}
, 			{
				"patchline" : 				{
					"source" : [ "obj-39", 0 ],
					"destination" : [ "obj-36", 0 ],
					"hidden" : 0,
					"midpoints" : [ 51.5, 249.0, 216.0, 249.0, 216.0, 240.0, 239.5, 240.0 ]
				}

			}
, 			{
				"patchline" : 				{
					"source" : [ "obj-1", 0 ],
					"destination" : [ "obj-2", 0 ],
					"hidden" : 0,
					"midpoints" : [  ]
				}

			}
, 			{
				"patchline" : 				{
					"source" : [ "obj-17", 0 ],
					"destination" : [ "obj-19", 3 ],
					"hidden" : 0,
					"midpoints" : [  ]
				}

			}
, 			{
				"patchline" : 				{
					"source" : [ "obj-33", 3 ],
					"destination" : [ "obj-17", 0 ],
					"hidden" : 0,
					"midpoints" : [  ]
				}

			}
, 			{
				"patchline" : 				{
					"source" : [ "obj-20", 0 ],
					"destination" : [ "obj-19", 2 ],
					"hidden" : 0,
					"midpoints" : [  ]
				}

			}
, 			{
				"patchline" : 				{
					"source" : [ "obj-33", 2 ],
					"destination" : [ "obj-20", 0 ],
					"hidden" : 0,
					"midpoints" : [  ]
				}

			}
, 			{
				"patchline" : 				{
					"source" : [ "obj-21", 0 ],
					"destination" : [ "obj-19", 1 ],
					"hidden" : 0,
					"midpoints" : [  ]
				}

			}
, 			{
				"patchline" : 				{
					"source" : [ "obj-33", 1 ],
					"destination" : [ "obj-21", 0 ],
					"hidden" : 0,
					"midpoints" : [  ]
				}

			}
, 			{
				"patchline" : 				{
					"source" : [ "obj-19", 0 ],
					"destination" : [ "obj-18", 0 ],
					"hidden" : 0,
					"midpoints" : [  ]
				}

			}
, 			{
				"patchline" : 				{
					"source" : [ "obj-32", 0 ],
					"destination" : [ "obj-19", 0 ],
					"hidden" : 0,
					"midpoints" : [  ]
				}

			}
, 			{
				"patchline" : 				{
					"source" : [ "obj-33", 0 ],
					"destination" : [ "obj-32", 0 ],
					"hidden" : 0,
					"midpoints" : [  ]
				}

			}
, 			{
				"patchline" : 				{
					"source" : [ "obj-39", 0 ],
					"destination" : [ "obj-33", 0 ],
					"hidden" : 0,
					"midpoints" : [  ]
				}

			}
, 			{
				"patchline" : 				{
					"source" : [ "obj-41", 0 ],
					"destination" : [ "obj-39", 0 ],
					"hidden" : 0,
					"midpoints" : [  ]
				}

			}
, 			{
				"patchline" : 				{
					"source" : [ "obj-31", 0 ],
					"destination" : [ "obj-41", 0 ],
					"hidden" : 0,
					"midpoints" : [  ]
				}

			}
, 			{
				"patchline" : 				{
					"source" : [ "obj-37", 0 ],
					"destination" : [ "obj-41", 0 ],
					"hidden" : 0,
					"midpoints" : [  ]
				}

			}
, 			{
				"patchline" : 				{
					"source" : [ "obj-40", 0 ],
					"destination" : [ "obj-41", 0 ],
					"hidden" : 0,
					"midpoints" : [  ]
				}

			}
, 			{
				"patchline" : 				{
					"source" : [ "obj-38", 0 ],
					"destination" : [ "obj-41", 0 ],
					"hidden" : 0,
					"midpoints" : [  ]
				}

			}
, 			{
				"patchline" : 				{
					"source" : [ "obj-2", 0 ],
					"destination" : [ "obj-41", 0 ],
					"hidden" : 0,
					"midpoints" : [  ]
				}

			}
 ]
	}

}
