{
	"patcher" : 	{
		"fileversion" : 1,
		"rect" : [ 480.0, 45.0, 643.0, 540.0 ],
		"bgcolor" : [ 0.870588, 0.929412, 1.0, 1.0 ],
		"bglocked" : 0,
		"defrect" : [ 480.0, 45.0, 643.0, 540.0 ],
		"openrect" : [ 0.0, 0.0, 0.0, 0.0 ],
		"openinpresentation" : 0,
		"default_fontsize" : 12.0,
		"default_fontface" : 0,
		"default_fontname" : "Arial",
		"gridonopen" : 0,
		"gridsize" : [ 15.0, 15.0 ],
		"gridsnaponopen" : 0,
		"toolbarvisible" : 1,
		"boxanimatetime" : 200,
		"imprint" : 0,
		"boxes" : [ 			{
				"box" : 				{
					"maxclass" : "bpatcher",
					"prototypename" : "cnmat_badge",
					"name" : "badge.maxpat",
					"numinlets" : 0,
					"numoutlets" : 0,
					"patching_rect" : [ 173.0, 390.0, 296.0, 86.0 ],
					"id" : "obj-18",
					"args" : [ "OSC-Wiiremote", "1.0a", "Michael Zbyszynski", "OSC-Wiiremote", 6666 ]
				}

			}
, 			{
				"box" : 				{
					"maxclass" : "newobj",
					"text" : "prepend led",
					"fontsize" : 9.0,
					"numinlets" : 1,
					"fontname" : "Arial",
					"numoutlets" : 1,
					"patching_rect" : [ 428.0, 190.0, 61.0, 17.0 ],
					"id" : "obj-1",
					"outlettype" : [ "" ]
				}

			}
, 			{
				"box" : 				{
					"maxclass" : "newobj",
					"text" : "OSC-route /led",
					"fontsize" : 9.0,
					"numinlets" : 1,
					"fontname" : "Arial",
					"numoutlets" : 2,
					"patching_rect" : [ 430.0, 159.0, 79.0, 17.0 ],
					"id" : "obj-2",
					"outlettype" : [ "", "" ]
				}

			}
, 			{
				"box" : 				{
					"maxclass" : "message",
					"text" : "motion $1",
					"fontsize" : 9.0,
					"numinlets" : 2,
					"fontname" : "Arial",
					"numoutlets" : 1,
					"patching_rect" : [ 231.0, 90.0, 55.0, 15.0 ],
					"id" : "obj-3",
					"outlettype" : [ "" ]
				}

			}
, 			{
				"box" : 				{
					"maxclass" : "newobj",
					"text" : "print OSC-Wiiremote",
					"fontsize" : 9.0,
					"numinlets" : 1,
					"fontname" : "Arial",
					"numoutlets" : 0,
					"patching_rect" : [ 250.0, 324.0, 104.0, 17.0 ],
					"id" : "obj-4"
				}

			}
, 			{
				"box" : 				{
					"maxclass" : "message",
					"text" : "getbattery",
					"fontsize" : 9.0,
					"numinlets" : 2,
					"fontname" : "Arial",
					"numoutlets" : 1,
					"patching_rect" : [ 420.0, 102.0, 58.0, 15.0 ],
					"id" : "obj-5",
					"outlettype" : [ "" ]
				}

			}
, 			{
				"box" : 				{
					"maxclass" : "newobj",
					"text" : "OSC-route /getbattery",
					"fontsize" : 9.0,
					"numinlets" : 1,
					"fontname" : "Arial",
					"numoutlets" : 2,
					"patching_rect" : [ 420.0, 77.0, 114.0, 17.0 ],
					"id" : "obj-6",
					"outlettype" : [ "", "" ]
				}

			}
, 			{
				"box" : 				{
					"maxclass" : "newobj",
					"text" : "p remote",
					"fontsize" : 9.0,
					"numinlets" : 1,
					"fontname" : "Arial",
					"numoutlets" : 1,
					"patching_rect" : [ 87.0, 345.0, 50.0, 17.0 ],
					"id" : "obj-7",
					"outlettype" : [ "" ],
					"patcher" : 					{
						"fileversion" : 1,
						"rect" : [ 30.0, 89.0, 600.0, 426.0 ],
						"bglocked" : 0,
						"defrect" : [ 30.0, 89.0, 600.0, 426.0 ],
						"openrect" : [ 0.0, 0.0, 0.0, 0.0 ],
						"openinpresentation" : 0,
						"default_fontsize" : 12.0,
						"default_fontface" : 0,
						"default_fontname" : "Arial",
						"gridonopen" : 0,
						"gridsize" : [ 15.0, 15.0 ],
						"gridsnaponopen" : 0,
						"toolbarvisible" : 1,
						"boxanimatetime" : 200,
						"imprint" : 0,
						"boxes" : [ 							{
								"box" : 								{
									"maxclass" : "newobj",
									"text" : "p motion",
									"fontsize" : 9.0,
									"numinlets" : 1,
									"fontname" : "Arial",
									"numoutlets" : 1,
									"patching_rect" : [ 50.0, 76.0, 48.0, 17.0 ],
									"id" : "obj-1",
									"outlettype" : [ "" ],
									"patcher" : 									{
										"fileversion" : 1,
										"rect" : [ 40.0, 104.0, 600.0, 426.0 ],
										"bglocked" : 0,
										"defrect" : [ 40.0, 104.0, 600.0, 426.0 ],
										"openrect" : [ 0.0, 0.0, 0.0, 0.0 ],
										"openinpresentation" : 0,
										"default_fontsize" : 12.0,
										"default_fontface" : 0,
										"default_fontname" : "Arial",
										"gridonopen" : 0,
										"gridsize" : [ 15.0, 15.0 ],
										"gridsnaponopen" : 0,
										"toolbarvisible" : 1,
										"boxanimatetime" : 200,
										"imprint" : 0,
										"boxes" : [ 											{
												"box" : 												{
													"maxclass" : "newobj",
													"text" : "js OSC-unroute /remote/X /remote/Y /remote/Z /remote/orientation",
													"fontsize" : 9.0,
													"numinlets" : 4,
													"fontname" : "Arial",
													"numoutlets" : 1,
													"patching_rect" : [ 50.0, 123.0, 333.0, 17.0 ],
													"id" : "obj-1",
													"outlettype" : [ "" ]
												}

											}
, 											{
												"box" : 												{
													"maxclass" : "newobj",
													"text" : "unpack 0 0 0 0",
													"fontsize" : 9.0,
													"numinlets" : 1,
													"fontname" : "Arial",
													"numoutlets" : 4,
													"patching_rect" : [ 50.0, 50.0, 76.0, 17.0 ],
													"id" : "obj-2",
													"outlettype" : [ "int", "int", "int", "int" ]
												}

											}
, 											{
												"box" : 												{
													"maxclass" : "inlet",
													"numinlets" : 0,
													"numoutlets" : 1,
													"patching_rect" : [ 50.0, 30.0, 15.0, 15.0 ],
													"id" : "obj-3",
													"outlettype" : [ "" ],
													"comment" : ""
												}

											}
, 											{
												"box" : 												{
													"maxclass" : "outlet",
													"numinlets" : 1,
													"numoutlets" : 0,
													"patching_rect" : [ 50.0, 145.0, 15.0, 15.0 ],
													"id" : "obj-4",
													"comment" : ""
												}

											}
 ],
										"lines" : [ 											{
												"patchline" : 												{
													"source" : [ "obj-2", 3 ],
													"destination" : [ "obj-1", 3 ],
													"hidden" : 0,
													"midpoints" : [ 116.5, 93.0, 373.5, 93.0 ]
												}

											}
, 											{
												"patchline" : 												{
													"source" : [ "obj-2", 2 ],
													"destination" : [ "obj-1", 2 ],
													"hidden" : 0,
													"midpoints" : [ 97.5, 100.0, 268.833344, 100.0 ]
												}

											}
, 											{
												"patchline" : 												{
													"source" : [ "obj-2", 1 ],
													"destination" : [ "obj-1", 1 ],
													"hidden" : 0,
													"midpoints" : [ 78.5, 109.0, 164.166672, 109.0 ]
												}

											}
, 											{
												"patchline" : 												{
													"source" : [ "obj-1", 0 ],
													"destination" : [ "obj-4", 0 ],
													"hidden" : 0,
													"midpoints" : [  ]
												}

											}
, 											{
												"patchline" : 												{
													"source" : [ "obj-2", 0 ],
													"destination" : [ "obj-1", 0 ],
													"hidden" : 0,
													"midpoints" : [  ]
												}

											}
, 											{
												"patchline" : 												{
													"source" : [ "obj-3", 0 ],
													"destination" : [ "obj-2", 0 ],
													"hidden" : 0,
													"midpoints" : [  ]
												}

											}
 ]
									}
,
									"saved_object_attributes" : 									{
										"fontface" : 0,
										"fontsize" : 12.0,
										"globalpatchername" : "",
										"default_fontface" : 0,
										"fontname" : "Arial",
										"default_fontname" : "Arial",
										"default_fontsize" : 12.0
									}

								}

							}
, 							{
								"box" : 								{
									"maxclass" : "newobj",
									"text" : "p buttons",
									"fontsize" : 9.0,
									"numinlets" : 1,
									"fontname" : "Arial",
									"numoutlets" : 1,
									"patching_rect" : [ 85.0, 108.0, 51.0, 17.0 ],
									"id" : "obj-2",
									"outlettype" : [ "" ],
									"patcher" : 									{
										"fileversion" : 1,
										"rect" : [ 30.0, 89.0, 1047.0, 432.0 ],
										"bglocked" : 0,
										"defrect" : [ 30.0, 89.0, 1047.0, 432.0 ],
										"openrect" : [ 0.0, 0.0, 0.0, 0.0 ],
										"openinpresentation" : 0,
										"default_fontsize" : 12.0,
										"default_fontface" : 0,
										"default_fontname" : "Arial",
										"gridonopen" : 0,
										"gridsize" : [ 15.0, 15.0 ],
										"gridsnaponopen" : 0,
										"toolbarvisible" : 1,
										"boxanimatetime" : 200,
										"imprint" : 0,
										"boxes" : [ 											{
												"box" : 												{
													"maxclass" : "outlet",
													"numinlets" : 1,
													"numoutlets" : 0,
													"patching_rect" : [ 57.0, 280.0, 15.0, 15.0 ],
													"id" : "obj-1",
													"comment" : ""
												}

											}
, 											{
												"box" : 												{
													"maxclass" : "newobj",
													"text" : "js OSC-unroute /2 /1 /B /A /minus /home /left /right /down /up /plus",
													"fontsize" : 9.0,
													"numinlets" : 11,
													"fontname" : "Arial",
													"numoutlets" : 1,
													"patching_rect" : [ 57.0, 204.0, 503.0, 17.0 ],
													"id" : "obj-2",
													"outlettype" : [ "" ]
												}

											}
, 											{
												"box" : 												{
													"maxclass" : "newobj",
													"text" : "js OSC-unroute /remote",
													"fontsize" : 9.0,
													"numinlets" : 1,
													"fontname" : "Arial",
													"numoutlets" : 1,
													"patching_rect" : [ 57.0, 240.0, 120.0, 17.0 ],
													"id" : "obj-3",
													"outlettype" : [ "" ]
												}

											}
, 											{
												"box" : 												{
													"maxclass" : "newobj",
													"text" : "& 8095",
													"fontsize" : 9.0,
													"numinlets" : 2,
													"fontname" : "Arial",
													"numoutlets" : 1,
													"patching_rect" : [ 57.0, 58.0, 45.0, 17.0 ],
													"id" : "obj-4",
													"outlettype" : [ "int" ]
												}

											}
, 											{
												"box" : 												{
													"maxclass" : "newobj",
													"text" : "change",
													"fontsize" : 9.0,
													"numinlets" : 1,
													"fontname" : "Arial",
													"numoutlets" : 3,
													"patching_rect" : [ 57.0, 84.0, 40.0, 17.0 ],
													"id" : "obj-5",
													"outlettype" : [ "", "int", "int" ]
												}

											}
, 											{
												"box" : 												{
													"maxclass" : "toggle",
													"numinlets" : 1,
													"numoutlets" : 1,
													"patching_rect" : [ 547.0, 140.0, 15.0, 15.0 ],
													"id" : "obj-6",
													"outlettype" : [ "int" ]
												}

											}
, 											{
												"box" : 												{
													"maxclass" : "newobj",
													"text" : "& 4096",
													"fontsize" : 9.0,
													"numinlets" : 2,
													"fontname" : "Arial",
													"numoutlets" : 1,
													"patching_rect" : [ 547.0, 113.0, 45.0, 17.0 ],
													"id" : "obj-7",
													"outlettype" : [ "int" ]
												}

											}
, 											{
												"box" : 												{
													"maxclass" : "comment",
													"text" : "Plus",
													"fontsize" : 9.0,
													"frgb" : [ 0.0, 0.0, 0.0, 1.0 ],
													"numinlets" : 1,
													"fontname" : "Arial",
													"numoutlets" : 0,
													"patching_rect" : [ 562.0, 142.0, 38.0, 17.0 ],
													"id" : "obj-8"
												}

											}
, 											{
												"box" : 												{
													"maxclass" : "toggle",
													"numinlets" : 1,
													"numoutlets" : 1,
													"patching_rect" : [ 498.0, 140.0, 15.0, 15.0 ],
													"id" : "obj-9",
													"outlettype" : [ "int" ]
												}

											}
, 											{
												"box" : 												{
													"maxclass" : "newobj",
													"text" : "& 2048",
													"fontsize" : 9.0,
													"numinlets" : 2,
													"fontname" : "Arial",
													"numoutlets" : 1,
													"patching_rect" : [ 498.0, 113.0, 45.0, 17.0 ],
													"id" : "obj-10",
													"outlettype" : [ "int" ]
												}

											}
, 											{
												"box" : 												{
													"maxclass" : "comment",
													"text" : "Up",
													"fontsize" : 9.0,
													"frgb" : [ 0.0, 0.0, 0.0, 1.0 ],
													"numinlets" : 1,
													"fontname" : "Arial",
													"numoutlets" : 0,
													"patching_rect" : [ 513.0, 142.0, 38.0, 17.0 ],
													"id" : "obj-11"
												}

											}
, 											{
												"box" : 												{
													"maxclass" : "toggle",
													"numinlets" : 1,
													"numoutlets" : 1,
													"patching_rect" : [ 449.0, 140.0, 15.0, 15.0 ],
													"id" : "obj-12",
													"outlettype" : [ "int" ]
												}

											}
, 											{
												"box" : 												{
													"maxclass" : "newobj",
													"text" : "& 1024",
													"fontsize" : 9.0,
													"numinlets" : 2,
													"fontname" : "Arial",
													"numoutlets" : 1,
													"patching_rect" : [ 449.0, 113.0, 45.0, 17.0 ],
													"id" : "obj-13",
													"outlettype" : [ "int" ]
												}

											}
, 											{
												"box" : 												{
													"maxclass" : "comment",
													"text" : "Down",
													"fontsize" : 9.0,
													"frgb" : [ 0.0, 0.0, 0.0, 1.0 ],
													"numinlets" : 1,
													"fontname" : "Arial",
													"numoutlets" : 0,
													"patching_rect" : [ 464.0, 142.0, 38.0, 17.0 ],
													"id" : "obj-14"
												}

											}
, 											{
												"box" : 												{
													"maxclass" : "toggle",
													"numinlets" : 1,
													"numoutlets" : 1,
													"patching_rect" : [ 400.0, 140.0, 15.0, 15.0 ],
													"id" : "obj-15",
													"outlettype" : [ "int" ]
												}

											}
, 											{
												"box" : 												{
													"maxclass" : "newobj",
													"text" : "& 512",
													"fontsize" : 9.0,
													"numinlets" : 2,
													"fontname" : "Arial",
													"numoutlets" : 1,
													"patching_rect" : [ 400.0, 113.0, 39.0, 17.0 ],
													"id" : "obj-16",
													"outlettype" : [ "int" ]
												}

											}
, 											{
												"box" : 												{
													"maxclass" : "comment",
													"text" : "Right",
													"fontsize" : 9.0,
													"frgb" : [ 0.0, 0.0, 0.0, 1.0 ],
													"numinlets" : 1,
													"fontname" : "Arial",
													"numoutlets" : 0,
													"patching_rect" : [ 415.0, 142.0, 38.0, 17.0 ],
													"id" : "obj-17"
												}

											}
, 											{
												"box" : 												{
													"maxclass" : "toggle",
													"numinlets" : 1,
													"numoutlets" : 1,
													"patching_rect" : [ 351.0, 140.0, 15.0, 15.0 ],
													"id" : "obj-18",
													"outlettype" : [ "int" ]
												}

											}
, 											{
												"box" : 												{
													"maxclass" : "newobj",
													"text" : "& 256",
													"fontsize" : 9.0,
													"numinlets" : 2,
													"fontname" : "Arial",
													"numoutlets" : 1,
													"patching_rect" : [ 351.0, 113.0, 39.0, 17.0 ],
													"id" : "obj-19",
													"outlettype" : [ "int" ]
												}

											}
, 											{
												"box" : 												{
													"maxclass" : "comment",
													"text" : "Left",
													"fontsize" : 9.0,
													"frgb" : [ 0.0, 0.0, 0.0, 1.0 ],
													"numinlets" : 1,
													"fontname" : "Arial",
													"numoutlets" : 0,
													"patching_rect" : [ 366.0, 142.0, 38.0, 17.0 ],
													"id" : "obj-20"
												}

											}
, 											{
												"box" : 												{
													"maxclass" : "toggle",
													"numinlets" : 1,
													"numoutlets" : 1,
													"patching_rect" : [ 302.0, 140.0, 15.0, 15.0 ],
													"id" : "obj-21",
													"outlettype" : [ "int" ]
												}

											}
, 											{
												"box" : 												{
													"maxclass" : "newobj",
													"text" : "& 128",
													"fontsize" : 9.0,
													"numinlets" : 2,
													"fontname" : "Arial",
													"numoutlets" : 1,
													"patching_rect" : [ 302.0, 113.0, 39.0, 17.0 ],
													"id" : "obj-22",
													"outlettype" : [ "int" ]
												}

											}
, 											{
												"box" : 												{
													"maxclass" : "comment",
													"text" : "Home",
													"fontsize" : 9.0,
													"frgb" : [ 0.0, 0.0, 0.0, 1.0 ],
													"numinlets" : 1,
													"fontname" : "Arial",
													"numoutlets" : 0,
													"patching_rect" : [ 317.0, 142.0, 38.0, 17.0 ],
													"id" : "obj-23"
												}

											}
, 											{
												"box" : 												{
													"maxclass" : "toggle",
													"numinlets" : 1,
													"numoutlets" : 1,
													"patching_rect" : [ 253.0, 140.0, 15.0, 15.0 ],
													"id" : "obj-24",
													"outlettype" : [ "int" ]
												}

											}
, 											{
												"box" : 												{
													"maxclass" : "newobj",
													"text" : "& 16",
													"fontsize" : 9.0,
													"numinlets" : 2,
													"fontname" : "Arial",
													"numoutlets" : 1,
													"patching_rect" : [ 253.0, 113.0, 33.0, 17.0 ],
													"id" : "obj-25",
													"outlettype" : [ "int" ]
												}

											}
, 											{
												"box" : 												{
													"maxclass" : "comment",
													"text" : "Minus",
													"fontsize" : 9.0,
													"frgb" : [ 0.0, 0.0, 0.0, 1.0 ],
													"numinlets" : 1,
													"fontname" : "Arial",
													"numoutlets" : 0,
													"patching_rect" : [ 268.0, 142.0, 38.0, 17.0 ],
													"id" : "obj-26"
												}

											}
, 											{
												"box" : 												{
													"maxclass" : "toggle",
													"numinlets" : 1,
													"numoutlets" : 1,
													"patching_rect" : [ 204.0, 140.0, 15.0, 15.0 ],
													"id" : "obj-27",
													"outlettype" : [ "int" ]
												}

											}
, 											{
												"box" : 												{
													"maxclass" : "newobj",
													"text" : "& 8",
													"fontsize" : 9.0,
													"numinlets" : 2,
													"fontname" : "Arial",
													"numoutlets" : 1,
													"patching_rect" : [ 204.0, 113.0, 27.0, 17.0 ],
													"id" : "obj-28",
													"outlettype" : [ "int" ]
												}

											}
, 											{
												"box" : 												{
													"maxclass" : "comment",
													"text" : "A",
													"fontsize" : 9.0,
													"frgb" : [ 0.0, 0.0, 0.0, 1.0 ],
													"numinlets" : 1,
													"fontname" : "Arial",
													"numoutlets" : 0,
													"patching_rect" : [ 219.0, 142.0, 38.0, 17.0 ],
													"id" : "obj-29"
												}

											}
, 											{
												"box" : 												{
													"maxclass" : "toggle",
													"numinlets" : 1,
													"numoutlets" : 1,
													"patching_rect" : [ 155.0, 140.0, 15.0, 15.0 ],
													"id" : "obj-30",
													"outlettype" : [ "int" ]
												}

											}
, 											{
												"box" : 												{
													"maxclass" : "newobj",
													"text" : "& 4",
													"fontsize" : 9.0,
													"numinlets" : 2,
													"fontname" : "Arial",
													"numoutlets" : 1,
													"patching_rect" : [ 155.0, 113.0, 27.0, 17.0 ],
													"id" : "obj-31",
													"outlettype" : [ "int" ]
												}

											}
, 											{
												"box" : 												{
													"maxclass" : "comment",
													"text" : "B",
													"fontsize" : 9.0,
													"frgb" : [ 0.0, 0.0, 0.0, 1.0 ],
													"numinlets" : 1,
													"fontname" : "Arial",
													"numoutlets" : 0,
													"patching_rect" : [ 170.0, 142.0, 38.0, 17.0 ],
													"id" : "obj-32"
												}

											}
, 											{
												"box" : 												{
													"maxclass" : "toggle",
													"numinlets" : 1,
													"numoutlets" : 1,
													"patching_rect" : [ 106.0, 140.0, 15.0, 15.0 ],
													"id" : "obj-33",
													"outlettype" : [ "int" ]
												}

											}
, 											{
												"box" : 												{
													"maxclass" : "newobj",
													"text" : "& 2",
													"fontsize" : 9.0,
													"numinlets" : 2,
													"fontname" : "Arial",
													"numoutlets" : 1,
													"patching_rect" : [ 106.0, 113.0, 27.0, 17.0 ],
													"id" : "obj-34",
													"outlettype" : [ "int" ]
												}

											}
, 											{
												"box" : 												{
													"maxclass" : "comment",
													"text" : "1",
													"fontsize" : 9.0,
													"frgb" : [ 0.0, 0.0, 0.0, 1.0 ],
													"numinlets" : 1,
													"fontname" : "Arial",
													"numoutlets" : 0,
													"patching_rect" : [ 121.0, 142.0, 38.0, 17.0 ],
													"id" : "obj-35"
												}

											}
, 											{
												"box" : 												{
													"maxclass" : "toggle",
													"numinlets" : 1,
													"numoutlets" : 1,
													"patching_rect" : [ 57.0, 140.0, 15.0, 15.0 ],
													"id" : "obj-36",
													"outlettype" : [ "int" ]
												}

											}
, 											{
												"box" : 												{
													"maxclass" : "newobj",
													"text" : "& 1",
													"fontsize" : 9.0,
													"numinlets" : 2,
													"fontname" : "Arial",
													"numoutlets" : 1,
													"patching_rect" : [ 57.0, 113.0, 27.0, 17.0 ],
													"id" : "obj-37",
													"outlettype" : [ "int" ]
												}

											}
, 											{
												"box" : 												{
													"maxclass" : "comment",
													"text" : "2",
													"fontsize" : 9.0,
													"frgb" : [ 0.0, 0.0, 0.0, 1.0 ],
													"numinlets" : 1,
													"fontname" : "Arial",
													"numoutlets" : 0,
													"patching_rect" : [ 72.0, 141.0, 38.0, 17.0 ],
													"id" : "obj-38"
												}

											}
, 											{
												"box" : 												{
													"maxclass" : "inlet",
													"numinlets" : 0,
													"numoutlets" : 1,
													"patching_rect" : [ 57.0, 32.0, 15.0, 15.0 ],
													"id" : "obj-39",
													"outlettype" : [ "" ],
													"comment" : ""
												}

											}
 ],
										"lines" : [ 											{
												"patchline" : 												{
													"source" : [ "obj-6", 0 ],
													"destination" : [ "obj-2", 10 ],
													"hidden" : 0,
													"midpoints" : [  ]
												}

											}
, 											{
												"patchline" : 												{
													"source" : [ "obj-7", 0 ],
													"destination" : [ "obj-6", 0 ],
													"hidden" : 0,
													"midpoints" : [  ]
												}

											}
, 											{
												"patchline" : 												{
													"source" : [ "obj-5", 0 ],
													"destination" : [ "obj-7", 0 ],
													"hidden" : 0,
													"midpoints" : [ 66.5, 107.0, 556.5, 107.0 ]
												}

											}
, 											{
												"patchline" : 												{
													"source" : [ "obj-9", 0 ],
													"destination" : [ "obj-2", 9 ],
													"hidden" : 0,
													"midpoints" : [  ]
												}

											}
, 											{
												"patchline" : 												{
													"source" : [ "obj-10", 0 ],
													"destination" : [ "obj-9", 0 ],
													"hidden" : 0,
													"midpoints" : [  ]
												}

											}
, 											{
												"patchline" : 												{
													"source" : [ "obj-5", 0 ],
													"destination" : [ "obj-10", 0 ],
													"hidden" : 0,
													"midpoints" : [ 66.5, 107.0, 507.5, 107.0 ]
												}

											}
, 											{
												"patchline" : 												{
													"source" : [ "obj-12", 0 ],
													"destination" : [ "obj-2", 8 ],
													"hidden" : 0,
													"midpoints" : [  ]
												}

											}
, 											{
												"patchline" : 												{
													"source" : [ "obj-13", 0 ],
													"destination" : [ "obj-12", 0 ],
													"hidden" : 0,
													"midpoints" : [  ]
												}

											}
, 											{
												"patchline" : 												{
													"source" : [ "obj-5", 0 ],
													"destination" : [ "obj-13", 0 ],
													"hidden" : 0,
													"midpoints" : [ 66.5, 107.0, 458.5, 107.0 ]
												}

											}
, 											{
												"patchline" : 												{
													"source" : [ "obj-15", 0 ],
													"destination" : [ "obj-2", 7 ],
													"hidden" : 0,
													"midpoints" : [  ]
												}

											}
, 											{
												"patchline" : 												{
													"source" : [ "obj-16", 0 ],
													"destination" : [ "obj-15", 0 ],
													"hidden" : 0,
													"midpoints" : [  ]
												}

											}
, 											{
												"patchline" : 												{
													"source" : [ "obj-5", 0 ],
													"destination" : [ "obj-16", 0 ],
													"hidden" : 0,
													"midpoints" : [ 66.5, 107.0, 409.5, 107.0 ]
												}

											}
, 											{
												"patchline" : 												{
													"source" : [ "obj-18", 0 ],
													"destination" : [ "obj-2", 6 ],
													"hidden" : 0,
													"midpoints" : [  ]
												}

											}
, 											{
												"patchline" : 												{
													"source" : [ "obj-19", 0 ],
													"destination" : [ "obj-18", 0 ],
													"hidden" : 0,
													"midpoints" : [  ]
												}

											}
, 											{
												"patchline" : 												{
													"source" : [ "obj-5", 0 ],
													"destination" : [ "obj-19", 0 ],
													"hidden" : 0,
													"midpoints" : [ 66.5, 107.0, 360.5, 107.0 ]
												}

											}
, 											{
												"patchline" : 												{
													"source" : [ "obj-21", 0 ],
													"destination" : [ "obj-2", 5 ],
													"hidden" : 0,
													"midpoints" : [  ]
												}

											}
, 											{
												"patchline" : 												{
													"source" : [ "obj-22", 0 ],
													"destination" : [ "obj-21", 0 ],
													"hidden" : 0,
													"midpoints" : [  ]
												}

											}
, 											{
												"patchline" : 												{
													"source" : [ "obj-5", 0 ],
													"destination" : [ "obj-22", 0 ],
													"hidden" : 0,
													"midpoints" : [ 66.5, 107.0, 311.5, 107.0 ]
												}

											}
, 											{
												"patchline" : 												{
													"source" : [ "obj-24", 0 ],
													"destination" : [ "obj-2", 4 ],
													"hidden" : 0,
													"midpoints" : [  ]
												}

											}
, 											{
												"patchline" : 												{
													"source" : [ "obj-25", 0 ],
													"destination" : [ "obj-24", 0 ],
													"hidden" : 0,
													"midpoints" : [  ]
												}

											}
, 											{
												"patchline" : 												{
													"source" : [ "obj-5", 0 ],
													"destination" : [ "obj-25", 0 ],
													"hidden" : 0,
													"midpoints" : [ 66.5, 107.0, 262.5, 107.0 ]
												}

											}
, 											{
												"patchline" : 												{
													"source" : [ "obj-27", 0 ],
													"destination" : [ "obj-2", 3 ],
													"hidden" : 0,
													"midpoints" : [  ]
												}

											}
, 											{
												"patchline" : 												{
													"source" : [ "obj-28", 0 ],
													"destination" : [ "obj-27", 0 ],
													"hidden" : 0,
													"midpoints" : [  ]
												}

											}
, 											{
												"patchline" : 												{
													"source" : [ "obj-5", 0 ],
													"destination" : [ "obj-28", 0 ],
													"hidden" : 0,
													"midpoints" : [ 66.5, 107.0, 213.5, 107.0 ]
												}

											}
, 											{
												"patchline" : 												{
													"source" : [ "obj-30", 0 ],
													"destination" : [ "obj-2", 2 ],
													"hidden" : 0,
													"midpoints" : [  ]
												}

											}
, 											{
												"patchline" : 												{
													"source" : [ "obj-31", 0 ],
													"destination" : [ "obj-30", 0 ],
													"hidden" : 0,
													"midpoints" : [  ]
												}

											}
, 											{
												"patchline" : 												{
													"source" : [ "obj-5", 0 ],
													"destination" : [ "obj-31", 0 ],
													"hidden" : 0,
													"midpoints" : [ 66.5, 107.0, 164.5, 107.0 ]
												}

											}
, 											{
												"patchline" : 												{
													"source" : [ "obj-33", 0 ],
													"destination" : [ "obj-2", 1 ],
													"hidden" : 0,
													"midpoints" : [  ]
												}

											}
, 											{
												"patchline" : 												{
													"source" : [ "obj-34", 0 ],
													"destination" : [ "obj-33", 0 ],
													"hidden" : 0,
													"midpoints" : [  ]
												}

											}
, 											{
												"patchline" : 												{
													"source" : [ "obj-5", 0 ],
													"destination" : [ "obj-34", 0 ],
													"hidden" : 0,
													"midpoints" : [ 66.5, 107.0, 115.5, 107.0 ]
												}

											}
, 											{
												"patchline" : 												{
													"source" : [ "obj-3", 0 ],
													"destination" : [ "obj-1", 0 ],
													"hidden" : 0,
													"midpoints" : [  ]
												}

											}
, 											{
												"patchline" : 												{
													"source" : [ "obj-2", 0 ],
													"destination" : [ "obj-3", 0 ],
													"hidden" : 0,
													"midpoints" : [  ]
												}

											}
, 											{
												"patchline" : 												{
													"source" : [ "obj-36", 0 ],
													"destination" : [ "obj-2", 0 ],
													"hidden" : 0,
													"midpoints" : [  ]
												}

											}
, 											{
												"patchline" : 												{
													"source" : [ "obj-37", 0 ],
													"destination" : [ "obj-36", 0 ],
													"hidden" : 0,
													"midpoints" : [  ]
												}

											}
, 											{
												"patchline" : 												{
													"source" : [ "obj-5", 0 ],
													"destination" : [ "obj-37", 0 ],
													"hidden" : 0,
													"midpoints" : [ 66.5, 107.0, 66.5, 107.0 ]
												}

											}
, 											{
												"patchline" : 												{
													"source" : [ "obj-4", 0 ],
													"destination" : [ "obj-5", 0 ],
													"hidden" : 0,
													"midpoints" : [  ]
												}

											}
, 											{
												"patchline" : 												{
													"source" : [ "obj-39", 0 ],
													"destination" : [ "obj-4", 0 ],
													"hidden" : 0,
													"midpoints" : [  ]
												}

											}
 ]
									}
,
									"saved_object_attributes" : 									{
										"fontface" : 0,
										"fontsize" : 12.0,
										"globalpatchername" : "",
										"default_fontface" : 0,
										"fontname" : "Arial",
										"default_fontname" : "Arial",
										"default_fontsize" : 12.0
									}

								}

							}
, 							{
								"box" : 								{
									"maxclass" : "newobj",
									"text" : "route motion buttons ir",
									"fontsize" : 9.0,
									"numinlets" : 1,
									"fontname" : "Arial",
									"numoutlets" : 4,
									"patching_rect" : [ 50.0, 50.0, 114.0, 17.0 ],
									"id" : "obj-3",
									"outlettype" : [ "", "", "", "" ]
								}

							}
, 							{
								"box" : 								{
									"maxclass" : "inlet",
									"numinlets" : 0,
									"numoutlets" : 1,
									"patching_rect" : [ 50.0, 30.0, 15.0, 15.0 ],
									"id" : "obj-4",
									"outlettype" : [ "" ],
									"comment" : ""
								}

							}
, 							{
								"box" : 								{
									"maxclass" : "outlet",
									"numinlets" : 1,
									"numoutlets" : 0,
									"patching_rect" : [ 50.0, 206.0, 15.0, 15.0 ],
									"id" : "obj-5",
									"comment" : ""
								}

							}
 ],
						"lines" : [ 							{
								"patchline" : 								{
									"source" : [ "obj-3", 1 ],
									"destination" : [ "obj-2", 0 ],
									"hidden" : 0,
									"midpoints" : [  ]
								}

							}
, 							{
								"patchline" : 								{
									"source" : [ "obj-2", 0 ],
									"destination" : [ "obj-5", 0 ],
									"hidden" : 0,
									"midpoints" : [  ]
								}

							}
, 							{
								"patchline" : 								{
									"source" : [ "obj-1", 0 ],
									"destination" : [ "obj-5", 0 ],
									"hidden" : 0,
									"midpoints" : [  ]
								}

							}
, 							{
								"patchline" : 								{
									"source" : [ "obj-3", 0 ],
									"destination" : [ "obj-1", 0 ],
									"hidden" : 0,
									"midpoints" : [  ]
								}

							}
, 							{
								"patchline" : 								{
									"source" : [ "obj-4", 0 ],
									"destination" : [ "obj-3", 0 ],
									"hidden" : 0,
									"midpoints" : [  ]
								}

							}
 ]
					}
,
					"saved_object_attributes" : 					{
						"fontface" : 0,
						"fontsize" : 12.0,
						"globalpatchername" : "",
						"default_fontface" : 0,
						"fontname" : "Arial",
						"default_fontname" : "Arial",
						"default_fontsize" : 12.0
					}

				}

			}
, 			{
				"box" : 				{
					"maxclass" : "newobj",
					"text" : "t b i",
					"fontsize" : 9.0,
					"numinlets" : 1,
					"fontname" : "Arial",
					"numoutlets" : 2,
					"patching_rect" : [ 183.0, 124.0, 27.0, 17.0 ],
					"id" : "obj-8",
					"outlettype" : [ "bang", "int" ]
				}

			}
, 			{
				"box" : 				{
					"maxclass" : "newobj",
					"text" : "metro 50",
					"fontsize" : 9.0,
					"numinlets" : 2,
					"fontname" : "Arial",
					"numoutlets" : 1,
					"patching_rect" : [ 183.0, 147.0, 52.0, 17.0 ],
					"id" : "obj-9",
					"outlettype" : [ "bang" ]
				}

			}
, 			{
				"box" : 				{
					"maxclass" : "message",
					"text" : "disconnect",
					"fontsize" : 9.0,
					"numinlets" : 2,
					"fontname" : "Arial",
					"numoutlets" : 1,
					"patching_rect" : [ 135.0, 96.0, 57.0, 15.0 ],
					"id" : "obj-10",
					"outlettype" : [ "" ]
				}

			}
, 			{
				"box" : 				{
					"maxclass" : "message",
					"text" : "connect",
					"fontsize" : 9.0,
					"numinlets" : 2,
					"fontname" : "Arial",
					"numoutlets" : 1,
					"patching_rect" : [ 87.0, 77.0, 44.0, 15.0 ],
					"id" : "obj-11",
					"outlettype" : [ "" ]
				}

			}
, 			{
				"box" : 				{
					"maxclass" : "newobj",
					"text" : "OSC-route /connect /disconnect /poll /motion /ir /expansion /extraoutput",
					"fontsize" : 9.0,
					"numinlets" : 1,
					"fontname" : "Arial",
					"numoutlets" : 8,
					"patching_rect" : [ 87.0, 53.0, 352.0, 17.0 ],
					"id" : "obj-13",
					"outlettype" : [ "", "", "", "", "", "", "", "" ]
				}

			}
, 			{
				"box" : 				{
					"maxclass" : "inlet",
					"numinlets" : 0,
					"numoutlets" : 1,
					"patching_rect" : [ 87.0, 24.0, 15.0, 15.0 ],
					"id" : "obj-14",
					"outlettype" : [ "" ],
					"comment" : ""
				}

			}
, 			{
				"box" : 				{
					"maxclass" : "outlet",
					"numinlets" : 1,
					"numoutlets" : 0,
					"patching_rect" : [ 87.0, 470.0, 15.0, 15.0 ],
					"id" : "obj-15",
					"comment" : ""
				}

			}
, 			{
				"box" : 				{
					"maxclass" : "newobj",
					"text" : "route remote",
					"fontsize" : 9.0,
					"numinlets" : 1,
					"fontname" : "Arial",
					"numoutlets" : 2,
					"patching_rect" : [ 87.0, 319.0, 69.0, 17.0 ],
					"id" : "obj-16",
					"outlettype" : [ "", "" ]
				}

			}
, 			{
				"box" : 				{
					"maxclass" : "newobj",
					"text" : "aka.wiiremote",
					"fontsize" : 9.0,
					"numinlets" : 1,
					"fontname" : "Arial",
					"numoutlets" : 2,
					"patching_rect" : [ 87.0, 296.0, 74.0, 17.0 ],
					"id" : "obj-17",
					"outlettype" : [ "", "" ]
				}

			}
 ],
		"lines" : [ 			{
				"patchline" : 				{
					"source" : [ "obj-6", 1 ],
					"destination" : [ "obj-2", 0 ],
					"hidden" : 0,
					"midpoints" : [  ]
				}

			}
, 			{
				"patchline" : 				{
					"source" : [ "obj-2", 0 ],
					"destination" : [ "obj-1", 0 ],
					"hidden" : 0,
					"midpoints" : [  ]
				}

			}
, 			{
				"patchline" : 				{
					"source" : [ "obj-6", 0 ],
					"destination" : [ "obj-5", 0 ],
					"hidden" : 0,
					"midpoints" : [  ]
				}

			}
, 			{
				"patchline" : 				{
					"source" : [ "obj-13", 7 ],
					"destination" : [ "obj-6", 0 ],
					"hidden" : 0,
					"midpoints" : [  ]
				}

			}
, 			{
				"patchline" : 				{
					"source" : [ "obj-17", 1 ],
					"destination" : [ "obj-4", 0 ],
					"hidden" : 0,
					"midpoints" : [  ]
				}

			}
, 			{
				"patchline" : 				{
					"source" : [ "obj-13", 3 ],
					"destination" : [ "obj-3", 0 ],
					"hidden" : 0,
					"midpoints" : [  ]
				}

			}
, 			{
				"patchline" : 				{
					"source" : [ "obj-8", 1 ],
					"destination" : [ "obj-9", 1 ],
					"hidden" : 0,
					"midpoints" : [  ]
				}

			}
, 			{
				"patchline" : 				{
					"source" : [ "obj-8", 0 ],
					"destination" : [ "obj-9", 0 ],
					"hidden" : 0,
					"midpoints" : [  ]
				}

			}
, 			{
				"patchline" : 				{
					"source" : [ "obj-13", 2 ],
					"destination" : [ "obj-8", 0 ],
					"hidden" : 0,
					"midpoints" : [  ]
				}

			}
, 			{
				"patchline" : 				{
					"source" : [ "obj-13", 1 ],
					"destination" : [ "obj-10", 0 ],
					"hidden" : 0,
					"midpoints" : [  ]
				}

			}
, 			{
				"patchline" : 				{
					"source" : [ "obj-7", 0 ],
					"destination" : [ "obj-15", 0 ],
					"hidden" : 0,
					"midpoints" : [  ]
				}

			}
, 			{
				"patchline" : 				{
					"source" : [ "obj-16", 0 ],
					"destination" : [ "obj-7", 0 ],
					"hidden" : 0,
					"midpoints" : [  ]
				}

			}
, 			{
				"patchline" : 				{
					"source" : [ "obj-17", 0 ],
					"destination" : [ "obj-16", 0 ],
					"hidden" : 0,
					"midpoints" : [  ]
				}

			}
, 			{
				"patchline" : 				{
					"source" : [ "obj-5", 0 ],
					"destination" : [ "obj-17", 0 ],
					"hidden" : 0,
					"midpoints" : [  ]
				}

			}
, 			{
				"patchline" : 				{
					"source" : [ "obj-10", 0 ],
					"destination" : [ "obj-17", 0 ],
					"hidden" : 0,
					"midpoints" : [  ]
				}

			}
, 			{
				"patchline" : 				{
					"source" : [ "obj-11", 0 ],
					"destination" : [ "obj-17", 0 ],
					"hidden" : 0,
					"midpoints" : [  ]
				}

			}
, 			{
				"patchline" : 				{
					"source" : [ "obj-9", 0 ],
					"destination" : [ "obj-17", 0 ],
					"hidden" : 0,
					"midpoints" : [  ]
				}

			}
, 			{
				"patchline" : 				{
					"source" : [ "obj-3", 0 ],
					"destination" : [ "obj-17", 0 ],
					"hidden" : 0,
					"midpoints" : [  ]
				}

			}
, 			{
				"patchline" : 				{
					"source" : [ "obj-1", 0 ],
					"destination" : [ "obj-17", 0 ],
					"hidden" : 0,
					"midpoints" : [  ]
				}

			}
, 			{
				"patchline" : 				{
					"source" : [ "obj-13", 0 ],
					"destination" : [ "obj-11", 0 ],
					"hidden" : 0,
					"midpoints" : [  ]
				}

			}
, 			{
				"patchline" : 				{
					"source" : [ "obj-14", 0 ],
					"destination" : [ "obj-13", 0 ],
					"hidden" : 0,
					"midpoints" : [  ]
				}

			}
 ]
	}

}
