{
	"patcher" : 	{
		"fileversion" : 1,
		"rect" : [ 5.0, 51.0, 960.0, 720.0 ],
		"bgcolor" : [ 0.865, 0.88, 0.9, 1.0 ],
		"bglocked" : 0,
		"defrect" : [ 5.0, 51.0, 960.0, 720.0 ],
		"openrect" : [ 5.0, 51.0, 960.0, 720.0 ],
		"openinpresentation" : 0,
		"default_fontsize" : 9.0,
		"default_fontface" : 0,
		"default_fontname" : "Verdana",
		"gridonopen" : 0,
		"gridsize" : [ 20.0, 20.0 ],
		"gridsnaponopen" : 0,
		"toolbarvisible" : 0,
		"boxanimatetime" : 200,
		"imprint" : 0,
		"boxes" : [ 			{
				"box" : 				{
					"maxclass" : "newobj",
					"text" : "p firstsplit",
					"id" : "obj-2",
					"fontsize" : 10.0,
					"numinlets" : 0,
					"patching_rect" : [ 566.0, 421.0, 64.0, 19.0 ],
					"numoutlets" : 0,
					"fontname" : "Verdana",
					"patcher" : 					{
						"fileversion" : 1,
						"rect" : [ 141.0, 329.0, 583.0, 318.0 ],
						"bglocked" : 0,
						"defrect" : [ 141.0, 329.0, 583.0, 318.0 ],
						"openrect" : [ 0.0, 0.0, 0.0, 0.0 ],
						"openinpresentation" : 0,
						"default_fontsize" : 10.0,
						"default_fontface" : 0,
						"default_fontname" : "Verdana",
						"gridonopen" : 0,
						"gridsize" : [ 6.0, 6.0 ],
						"gridsnaponopen" : 0,
						"toolbarvisible" : 1,
						"boxanimatetime" : 200,
						"imprint" : 0,
						"boxes" : [ 							{
								"box" : 								{
									"maxclass" : "textbutton",
									"bgoveroncolor" : [ 0.694118, 0.694118, 0.694118, 1.0 ],
									"bordercolor" : [ 1.0, 1.0, 1.0, 1.0 ],
									"bgoncolor" : [ 0.694118, 0.694118, 0.694118, 1.0 ],
									"textoveroncolor" : [ 1.0, 1.0, 1.0, 1.0 ],
									"borderoncolor" : [ 1.0, 1.0, 1.0, 1.0 ],
									"id" : "obj-1",
									"fontsize" : 11.0,
									"border" : 0,
									"numinlets" : 1,
									"patching_rect" : [ 487.5, 200.5, 15.0, 15.0 ],
									"text" : "X",
									"bgcolor" : [ 0.827451, 0.827451, 0.827451, 1.0 ],
									"rounded" : 15.660002,
									"numoutlets" : 3,
									"textcolor" : [ 1.0, 1.0, 1.0, 1.0 ],
									"textovercolor" : [ 1.0, 1.0, 1.0, 1.0 ],
									"outlettype" : [ "", "", "int" ],
									"bgovercolor" : [ 0.827451, 0.827451, 0.827451, 1.0 ],
									"fontname" : "Verdana"
								}

							}
, 							{
								"box" : 								{
									"maxclass" : "message",
									"id" : "obj-3",
									"fontsize" : 10.0,
									"numinlets" : 2,
									"patching_rect" : [ 111.5, 199.5, 392.0, 17.0 ],
									"bgcolor2" : [ 1.0, 1.0, 1.0, 1.0 ],
									"bgcolor" : [ 1.0, 1.0, 1.0, 1.0 ],
									"numoutlets" : 1,
									"outlettype" : [ "" ],
									"fontname" : "Verdana"
								}

							}
, 							{
								"box" : 								{
									"maxclass" : "message",
									"text" : "set",
									"hidden" : 1,
									"id" : "obj-4",
									"fontsize" : 10.0,
									"numinlets" : 2,
									"patching_rect" : [ 444.5, 200.5, 32.5, 17.0 ],
									"bgcolor2" : [ 1.0, 1.0, 1.0, 1.0 ],
									"bgcolor" : [ 1.0, 1.0, 1.0, 1.0 ],
									"numoutlets" : 1,
									"outlettype" : [ "" ],
									"fontname" : "Verdana"
								}

							}
, 							{
								"box" : 								{
									"maxclass" : "textbutton",
									"bgoveroncolor" : [ 0.694118, 0.694118, 0.694118, 1.0 ],
									"bordercolor" : [ 1.0, 1.0, 1.0, 1.0 ],
									"bgoncolor" : [ 0.694118, 0.694118, 0.694118, 1.0 ],
									"textoveroncolor" : [ 1.0, 1.0, 1.0, 1.0 ],
									"borderoncolor" : [ 1.0, 1.0, 1.0, 1.0 ],
									"id" : "obj-77",
									"fontsize" : 11.0,
									"border" : 0,
									"numinlets" : 1,
									"patching_rect" : [ 446.5, 229.5, 15.0, 15.0 ],
									"text" : "X",
									"bgcolor" : [ 0.827451, 0.827451, 0.827451, 1.0 ],
									"rounded" : 15.660002,
									"numoutlets" : 3,
									"textcolor" : [ 1.0, 1.0, 1.0, 1.0 ],
									"textovercolor" : [ 1.0, 1.0, 1.0, 1.0 ],
									"outlettype" : [ "", "", "int" ],
									"bgovercolor" : [ 0.827451, 0.827451, 0.827451, 1.0 ],
									"fontname" : "Verdana"
								}

							}
, 							{
								"box" : 								{
									"maxclass" : "message",
									"id" : "obj-78",
									"fontsize" : 10.0,
									"numinlets" : 2,
									"patching_rect" : [ 70.5, 228.5, 392.0, 17.0 ],
									"bgcolor2" : [ 1.0, 1.0, 1.0, 1.0 ],
									"bgcolor" : [ 1.0, 1.0, 1.0, 1.0 ],
									"numoutlets" : 1,
									"outlettype" : [ "" ],
									"fontname" : "Verdana"
								}

							}
, 							{
								"box" : 								{
									"maxclass" : "message",
									"text" : "set",
									"hidden" : 1,
									"id" : "obj-76",
									"fontsize" : 10.0,
									"numinlets" : 2,
									"patching_rect" : [ 403.5, 229.5, 32.5, 17.0 ],
									"bgcolor2" : [ 1.0, 1.0, 1.0, 1.0 ],
									"bgcolor" : [ 1.0, 1.0, 1.0, 1.0 ],
									"numoutlets" : 1,
									"outlettype" : [ "" ],
									"fontname" : "Verdana"
								}

							}
, 							{
								"box" : 								{
									"maxclass" : "newobj",
									"text" : "prepend firstsplit",
									"id" : "obj-2",
									"fontsize" : 10.0,
									"numinlets" : 1,
									"patching_rect" : [ 71.0, 94.0, 98.0, 19.0 ],
									"numoutlets" : 1,
									"outlettype" : [ "" ],
									"fontname" : "Verdana"
								}

							}
, 							{
								"box" : 								{
									"maxclass" : "newobj",
									"text" : "print outofbounds",
									"id" : "obj-7",
									"fontsize" : 10.0,
									"numinlets" : 1,
									"patching_rect" : [ 158.0, 153.0, 100.0, 19.0 ],
									"numoutlets" : 0,
									"fontname" : "Verdana"
								}

							}
, 							{
								"box" : 								{
									"maxclass" : "newobj",
									"text" : "print upper",
									"id" : "obj-8",
									"fontsize" : 10.0,
									"numinlets" : 1,
									"patching_rect" : [ 115.0, 172.0, 65.0, 19.0 ],
									"numoutlets" : 0,
									"fontname" : "Verdana"
								}

							}
, 							{
								"box" : 								{
									"maxclass" : "newobj",
									"text" : "print lower",
									"id" : "obj-9",
									"fontsize" : 10.0,
									"numinlets" : 1,
									"patching_rect" : [ 71.0, 151.0, 67.0, 19.0 ],
									"numoutlets" : 0,
									"fontname" : "Verdana"
								}

							}
, 							{
								"box" : 								{
									"maxclass" : "number",
									"id" : "obj-10",
									"fontsize" : 10.0,
									"htextcolor" : [ 0.870588, 0.870588, 0.870588, 1.0 ],
									"numinlets" : 1,
									"patching_rect" : [ 71.0, 53.0, 37.0, 19.0 ],
									"triscale" : 0.9,
									"numoutlets" : 2,
									"outlettype" : [ "int", "bang" ],
									"fontname" : "Verdana"
								}

							}
, 							{
								"box" : 								{
									"maxclass" : "message",
									"text" : "$1 255 2678 2899 qwerz",
									"id" : "obj-11",
									"fontsize" : 10.0,
									"numinlets" : 2,
									"patching_rect" : [ 71.0, 74.0, 139.0, 17.0 ],
									"numoutlets" : 1,
									"outlettype" : [ "" ],
									"fontname" : "Verdana"
								}

							}
, 							{
								"box" : 								{
									"maxclass" : "newobj",
									"text" : "multisplit 0 64 128",
									"id" : "obj-12",
									"fontsize" : 10.0,
									"numinlets" : 1,
									"patching_rect" : [ 71.0, 115.0, 106.0, 19.0 ],
									"numoutlets" : 3,
									"outlettype" : [ "", "", "" ],
									"fontname" : "Verdana"
								}

							}
, 							{
								"box" : 								{
									"maxclass" : "comment",
									"text" : "first element of a list determines outputrange",
									"id" : "obj-13",
									"fontsize" : 10.0,
									"numinlets" : 1,
									"patching_rect" : [ 72.0, 31.0, 269.0, 19.0 ],
									"numoutlets" : 0,
									"fontname" : "Verdana"
								}

							}
 ],
						"lines" : [ 							{
								"patchline" : 								{
									"source" : [ "obj-12", 2 ],
									"destination" : [ "obj-7", 0 ],
									"hidden" : 0,
									"midpoints" : [  ]
								}

							}
, 							{
								"patchline" : 								{
									"source" : [ "obj-12", 1 ],
									"destination" : [ "obj-8", 0 ],
									"hidden" : 0,
									"midpoints" : [  ]
								}

							}
, 							{
								"patchline" : 								{
									"source" : [ "obj-12", 0 ],
									"destination" : [ "obj-9", 0 ],
									"hidden" : 0,
									"midpoints" : [  ]
								}

							}
, 							{
								"patchline" : 								{
									"source" : [ "obj-2", 0 ],
									"destination" : [ "obj-12", 0 ],
									"hidden" : 0,
									"midpoints" : [  ]
								}

							}
, 							{
								"patchline" : 								{
									"source" : [ "obj-11", 0 ],
									"destination" : [ "obj-2", 0 ],
									"hidden" : 0,
									"midpoints" : [  ]
								}

							}
, 							{
								"patchline" : 								{
									"source" : [ "obj-10", 0 ],
									"destination" : [ "obj-11", 0 ],
									"hidden" : 0,
									"midpoints" : [  ]
								}

							}
, 							{
								"patchline" : 								{
									"source" : [ "obj-77", 0 ],
									"destination" : [ "obj-76", 0 ],
									"hidden" : 1,
									"midpoints" : [ 451.197998, 245.5, 462.5, 245.5, 462.5, 227.5, 413.0, 227.5 ]
								}

							}
, 							{
								"patchline" : 								{
									"source" : [ "obj-76", 0 ],
									"destination" : [ "obj-78", 0 ],
									"hidden" : 1,
									"midpoints" : [ 413.0, 247.5, 455.5, 247.5, 455.5, 247.5, 71.5, 247.5, 71.5, 226.5, 80.0, 226.5 ]
								}

							}
, 							{
								"patchline" : 								{
									"source" : [ "obj-4", 0 ],
									"destination" : [ "obj-3", 0 ],
									"hidden" : 1,
									"midpoints" : [ 454.0, 218.5, 496.5, 218.5, 496.5, 218.5, 112.5, 218.5, 112.5, 197.5, 121.0, 197.5 ]
								}

							}
, 							{
								"patchline" : 								{
									"source" : [ "obj-1", 0 ],
									"destination" : [ "obj-4", 0 ],
									"hidden" : 1,
									"midpoints" : [ 492.197998, 216.5, 503.5, 216.5, 503.5, 198.5, 454.0, 198.5 ]
								}

							}
, 							{
								"patchline" : 								{
									"source" : [ "obj-12", 0 ],
									"destination" : [ "obj-78", 1 ],
									"hidden" : 0,
									"midpoints" : [ 80.5, 135.0, 57.0, 135.0, 57.0, 258.0, 462.0, 258.0, 462.0, 225.0, 453.0, 225.0 ]
								}

							}
, 							{
								"patchline" : 								{
									"source" : [ "obj-12", 1 ],
									"destination" : [ "obj-3", 1 ],
									"hidden" : 0,
									"midpoints" : [ 124.0, 135.0, 494.0, 135.0 ]
								}

							}
 ]
					}
,
					"saved_object_attributes" : 					{
						"default_fontsize" : 10.0,
						"fontface" : 0,
						"fontsize" : 10.0,
						"globalpatchername" : "",
						"default_fontface" : 0,
						"default_fontname" : "Verdana",
						"fontname" : "Verdana"
					}

				}

			}
, 			{
				"box" : 				{
					"maxclass" : "newobj",
					"text" : "p index_mode",
					"id" : "obj-4",
					"fontsize" : 10.0,
					"numinlets" : 0,
					"patching_rect" : [ 631.0, 421.0, 82.0, 19.0 ],
					"numoutlets" : 0,
					"fontname" : "Verdana",
					"patcher" : 					{
						"fileversion" : 1,
						"rect" : [ 85.0, 326.0, 360.0, 241.0 ],
						"bglocked" : 0,
						"defrect" : [ 85.0, 326.0, 360.0, 241.0 ],
						"openrect" : [ 0.0, 0.0, 0.0, 0.0 ],
						"openinpresentation" : 0,
						"default_fontsize" : 10.0,
						"default_fontface" : 0,
						"default_fontname" : "Verdana",
						"gridonopen" : 0,
						"gridsize" : [ 6.0, 6.0 ],
						"gridsnaponopen" : 0,
						"toolbarvisible" : 1,
						"boxanimatetime" : 200,
						"imprint" : 0,
						"boxes" : [ 							{
								"box" : 								{
									"maxclass" : "comment",
									"text" : "-1 if out of range",
									"id" : "obj-1",
									"fontsize" : 10.0,
									"numinlets" : 1,
									"patching_rect" : [ 94.0, 158.0, 110.0, 19.0 ],
									"numoutlets" : 0,
									"fontname" : "Verdana"
								}

							}
, 							{
								"box" : 								{
									"maxclass" : "message",
									"text" : "0 0.5 1 1.5",
									"id" : "obj-2",
									"fontsize" : 10.0,
									"numinlets" : 2,
									"patching_rect" : [ 272.0, 75.0, 66.0, 17.0 ],
									"numoutlets" : 1,
									"outlettype" : [ "" ],
									"fontname" : "Verdana"
								}

							}
, 							{
								"box" : 								{
									"maxclass" : "comment",
									"text" : "send list to initialize",
									"id" : "obj-3",
									"fontsize" : 10.0,
									"numinlets" : 1,
									"patching_rect" : [ 167.0, 101.0, 118.0, 19.0 ],
									"numoutlets" : 0,
									"fontname" : "Verdana"
								}

							}
, 							{
								"box" : 								{
									"maxclass" : "newobj",
									"text" : "loadbang",
									"id" : "obj-4",
									"fontsize" : 10.0,
									"numinlets" : 1,
									"patching_rect" : [ 170.0, 55.0, 67.0, 19.0 ],
									"numoutlets" : 1,
									"outlettype" : [ "bang" ],
									"fontname" : "Verdana"
								}

							}
, 							{
								"box" : 								{
									"maxclass" : "number",
									"id" : "obj-5",
									"fontsize" : 10.0,
									"htextcolor" : [ 0.870588, 0.870588, 0.870588, 1.0 ],
									"numinlets" : 1,
									"patching_rect" : [ 53.0, 140.0, 37.0, 19.0 ],
									"triscale" : 0.9,
									"numoutlets" : 2,
									"outlettype" : [ "int", "bang" ],
									"fontname" : "Verdana"
								}

							}
, 							{
								"box" : 								{
									"maxclass" : "message",
									"text" : "0 10 20 30 40 50",
									"id" : "obj-6",
									"fontsize" : 10.0,
									"numinlets" : 2,
									"patching_rect" : [ 170.0, 75.0, 100.0, 17.0 ],
									"numoutlets" : 1,
									"outlettype" : [ "" ],
									"fontname" : "Verdana"
								}

							}
, 							{
								"box" : 								{
									"maxclass" : "flonum",
									"id" : "obj-7",
									"fontsize" : 10.0,
									"htextcolor" : [ 0.870588, 0.870588, 0.870588, 1.0 ],
									"numinlets" : 1,
									"patching_rect" : [ 107.0, 75.0, 61.0, 19.0 ],
									"triscale" : 0.9,
									"numoutlets" : 2,
									"outlettype" : [ "float", "bang" ],
									"fontname" : "Verdana"
								}

							}
, 							{
								"box" : 								{
									"maxclass" : "number",
									"id" : "obj-8",
									"fontsize" : 10.0,
									"htextcolor" : [ 0.870588, 0.870588, 0.870588, 1.0 ],
									"numinlets" : 1,
									"patching_rect" : [ 71.0, 75.0, 37.0, 19.0 ],
									"triscale" : 0.9,
									"numoutlets" : 2,
									"outlettype" : [ "int", "bang" ],
									"fontname" : "Verdana"
								}

							}
, 							{
								"box" : 								{
									"maxclass" : "newobj",
									"text" : "multisplit",
									"id" : "obj-9",
									"fontsize" : 10.0,
									"numinlets" : 1,
									"patching_rect" : [ 53.0, 113.0, 58.0, 19.0 ],
									"numoutlets" : 1,
									"outlettype" : [ "" ],
									"fontname" : "Verdana"
								}

							}
, 							{
								"box" : 								{
									"maxclass" : "button",
									"id" : "obj-10",
									"numinlets" : 1,
									"patching_rect" : [ 53.0, 75.0, 15.0, 15.0 ],
									"numoutlets" : 1,
									"outlettype" : [ "bang" ]
								}

							}
, 							{
								"box" : 								{
									"maxclass" : "comment",
									"text" : "range index",
									"id" : "obj-11",
									"fontsize" : 10.0,
									"numinlets" : 1,
									"patching_rect" : [ 94.0, 142.0, 110.0, 19.0 ],
									"numoutlets" : 0,
									"fontname" : "Verdana"
								}

							}
, 							{
								"box" : 								{
									"maxclass" : "comment",
									"text" : "no argument -> index mode",
									"id" : "obj-12",
									"fontsize" : 10.0,
									"numinlets" : 1,
									"patching_rect" : [ 54.0, 31.0, 200.0, 19.0 ],
									"numoutlets" : 0,
									"fontname" : "Verdana"
								}

							}
 ],
						"lines" : [ 							{
								"patchline" : 								{
									"source" : [ "obj-4", 0 ],
									"destination" : [ "obj-6", 0 ],
									"hidden" : 0,
									"midpoints" : [  ]
								}

							}
, 							{
								"patchline" : 								{
									"source" : [ "obj-9", 0 ],
									"destination" : [ "obj-5", 0 ],
									"hidden" : 0,
									"midpoints" : [  ]
								}

							}
, 							{
								"patchline" : 								{
									"source" : [ "obj-10", 0 ],
									"destination" : [ "obj-9", 0 ],
									"hidden" : 0,
									"midpoints" : [  ]
								}

							}
, 							{
								"patchline" : 								{
									"source" : [ "obj-8", 0 ],
									"destination" : [ "obj-9", 0 ],
									"hidden" : 0,
									"midpoints" : [  ]
								}

							}
, 							{
								"patchline" : 								{
									"source" : [ "obj-7", 0 ],
									"destination" : [ "obj-9", 0 ],
									"hidden" : 0,
									"midpoints" : [  ]
								}

							}
, 							{
								"patchline" : 								{
									"source" : [ "obj-6", 0 ],
									"destination" : [ "obj-9", 0 ],
									"hidden" : 0,
									"midpoints" : [  ]
								}

							}
, 							{
								"patchline" : 								{
									"source" : [ "obj-2", 0 ],
									"destination" : [ "obj-9", 0 ],
									"hidden" : 0,
									"midpoints" : [  ]
								}

							}
 ]
					}
,
					"saved_object_attributes" : 					{
						"default_fontsize" : 10.0,
						"fontface" : 0,
						"fontsize" : 10.0,
						"globalpatchername" : "",
						"default_fontface" : 0,
						"default_fontname" : "Verdana",
						"fontname" : "Verdana"
					}

				}

			}
, 			{
				"box" : 				{
					"maxclass" : "comment",
					"text" : "ranges are >= lower splitpoint, upper edge not included",
					"linecount" : 2,
					"id" : "obj-5",
					"fontsize" : 10.0,
					"numinlets" : 1,
					"patching_rect" : [ 467.0, 365.0, 170.0, 31.0 ],
					"numoutlets" : 0,
					"fontname" : "Verdana"
				}

			}
, 			{
				"box" : 				{
					"maxclass" : "comment",
					"text" : "ranges cannot overlap nor have negative extent",
					"id" : "obj-6",
					"fontsize" : 10.0,
					"numinlets" : 1,
					"patching_rect" : [ 467.0, 350.0, 251.0, 19.0 ],
					"numoutlets" : 0,
					"fontname" : "Verdana"
				}

			}
, 			{
				"box" : 				{
					"maxclass" : "comment",
					"text" : "(but does not change the number of points)",
					"id" : "obj-7",
					"fontsize" : 10.0,
					"numinlets" : 1,
					"patching_rect" : [ 467.0, 312.0, 230.0, 19.0 ],
					"numoutlets" : 0,
					"fontname" : "Verdana"
				}

			}
, 			{
				"box" : 				{
					"maxclass" : "message",
					"text" : "-128 -64 0 64 128",
					"id" : "obj-10",
					"fontsize" : 10.0,
					"numinlets" : 2,
					"patching_rect" : [ 358.0, 297.0, 106.0, 17.0 ],
					"numoutlets" : 1,
					"outlettype" : [ "" ],
					"fontname" : "Verdana"
				}

			}
, 			{
				"box" : 				{
					"maxclass" : "flonum",
					"id" : "obj-11",
					"fontsize" : 10.0,
					"htextcolor" : [ 0.870588, 0.870588, 0.870588, 1.0 ],
					"numinlets" : 1,
					"patching_rect" : [ 393.0, 370.0, 40.0, 19.0 ],
					"bgcolor" : [ 0.866667, 0.866667, 0.866667, 1.0 ],
					"triscale" : 0.9,
					"numoutlets" : 2,
					"outlettype" : [ "float", "bang" ],
					"fontname" : "Verdana"
				}

			}
, 			{
				"box" : 				{
					"maxclass" : "flonum",
					"id" : "obj-12",
					"fontsize" : 10.0,
					"htextcolor" : [ 0.870588, 0.870588, 0.870588, 1.0 ],
					"numinlets" : 1,
					"patching_rect" : [ 354.0, 370.0, 40.0, 19.0 ],
					"bgcolor" : [ 0.866667, 0.866667, 0.866667, 1.0 ],
					"triscale" : 0.9,
					"numoutlets" : 2,
					"outlettype" : [ "float", "bang" ],
					"fontname" : "Verdana"
				}

			}
, 			{
				"box" : 				{
					"maxclass" : "flonum",
					"id" : "obj-13",
					"fontsize" : 10.0,
					"htextcolor" : [ 0.870588, 0.870588, 0.870588, 1.0 ],
					"numinlets" : 1,
					"patching_rect" : [ 315.0, 370.0, 40.0, 19.0 ],
					"bgcolor" : [ 0.866667, 0.866667, 0.866667, 1.0 ],
					"triscale" : 0.9,
					"numoutlets" : 2,
					"outlettype" : [ "float", "bang" ],
					"fontname" : "Verdana"
				}

			}
, 			{
				"box" : 				{
					"maxclass" : "flonum",
					"id" : "obj-14",
					"fontsize" : 10.0,
					"htextcolor" : [ 0.870588, 0.870588, 0.870588, 1.0 ],
					"numinlets" : 1,
					"patching_rect" : [ 276.0, 370.0, 40.0, 19.0 ],
					"bgcolor" : [ 0.866667, 0.866667, 0.866667, 1.0 ],
					"triscale" : 0.9,
					"numoutlets" : 2,
					"outlettype" : [ "float", "bang" ],
					"fontname" : "Verdana"
				}

			}
, 			{
				"box" : 				{
					"maxclass" : "flonum",
					"id" : "obj-15",
					"fontsize" : 10.0,
					"htextcolor" : [ 0.870588, 0.870588, 0.870588, 1.0 ],
					"numinlets" : 1,
					"patching_rect" : [ 237.0, 370.0, 40.0, 19.0 ],
					"bgcolor" : [ 0.866667, 0.866667, 0.866667, 1.0 ],
					"triscale" : 0.9,
					"numoutlets" : 2,
					"outlettype" : [ "float", "bang" ],
					"fontname" : "Verdana"
				}

			}
, 			{
				"box" : 				{
					"maxclass" : "message",
					"text" : "0",
					"id" : "obj-16",
					"fontsize" : 10.0,
					"numinlets" : 2,
					"patching_rect" : [ 419.0, 354.0, 18.0, 17.0 ],
					"numoutlets" : 1,
					"outlettype" : [ "" ],
					"fontname" : "Verdana"
				}

			}
, 			{
				"box" : 				{
					"maxclass" : "flonum",
					"id" : "obj-18",
					"fontsize" : 10.0,
					"htextcolor" : [ 0.870588, 0.870588, 0.870588, 1.0 ],
					"numinlets" : 1,
					"patching_rect" : [ 294.0, 295.0, 61.0, 19.0 ],
					"triscale" : 0.9,
					"numoutlets" : 2,
					"outlettype" : [ "float", "bang" ],
					"fontname" : "Verdana"
				}

			}
, 			{
				"box" : 				{
					"maxclass" : "number",
					"id" : "obj-19",
					"fontsize" : 10.0,
					"htextcolor" : [ 0.870588, 0.870588, 0.870588, 1.0 ],
					"numinlets" : 1,
					"patching_rect" : [ 255.0, 295.0, 37.0, 19.0 ],
					"triscale" : 0.9,
					"numoutlets" : 2,
					"outlettype" : [ "int", "bang" ],
					"fontname" : "Verdana"
				}

			}
, 			{
				"box" : 				{
					"maxclass" : "newobj",
					"text" : "multisplit 0 32 64 92 128",
					"id" : "obj-20",
					"fontsize" : 10.0,
					"numinlets" : 1,
					"patching_rect" : [ 237.0, 327.0, 175.0, 19.0 ],
					"numoutlets" : 5,
					"outlettype" : [ "", "", "", "", "" ],
					"fontname" : "Verdana"
				}

			}
, 			{
				"box" : 				{
					"maxclass" : "comment",
					"text" : "list sets new splitpoints",
					"id" : "obj-21",
					"fontsize" : 10.0,
					"numinlets" : 1,
					"patching_rect" : [ 467.0, 297.0, 129.0, 19.0 ],
					"numoutlets" : 0,
					"fontname" : "Verdana"
				}

			}
, 			{
				"box" : 				{
					"maxclass" : "button",
					"id" : "obj-28",
					"numinlets" : 1,
					"patching_rect" : [ 237.0, 295.0, 15.0, 15.0 ],
					"numoutlets" : 1,
					"outlettype" : [ "bang" ]
				}

			}
, 			{
				"box" : 				{
					"maxclass" : "textbutton",
					"bgoveroncolor" : [ 0.501961, 0.501961, 0.501961, 0.0 ],
					"bordercolor" : [ 0.6, 0.6, 0.6, 0.0 ],
					"outputmode" : 0,
					"id" : "obj-3",
					"fontsize" : 9.0,
					"border" : 0,
					"numinlets" : 1,
					"patching_rect" : [ 828.0, 683.0, 114.0, 17.0 ],
					"text" : "http://www.jasch.ch",
					"bgcolor" : [ 0.74902, 0.74902, 0.74902, 0.0 ],
					"rounded" : 0.0,
					"numoutlets" : 3,
					"textcolor" : [ 0.121569, 0.498039, 0.74902, 1.0 ],
					"textovercolor" : [ 0.121569, 0.498039, 0.74902, 1.0 ],
					"outlettype" : [ "", "", "int" ],
					"bgovercolor" : [ 0.698039, 0.698039, 0.698039, 0.0 ],
					"fontname" : "Verdana"
				}

			}
, 			{
				"box" : 				{
					"maxclass" : "message",
					"text" : ";\rmax launchbrowser http://www.jasch.ch",
					"linecount" : 2,
					"hidden" : 1,
					"id" : "obj-32",
					"fontsize" : 10.0,
					"numinlets" : 2,
					"patching_rect" : [ 614.0, 683.0, 214.0, 29.0 ],
					"bgcolor2" : [ 1.0, 1.0, 1.0, 1.0 ],
					"bgcolor" : [ 1.0, 1.0, 1.0, 1.0 ],
					"numoutlets" : 1,
					"textcolor" : [ 0.0, 0.0, 0.0, 0.101961 ],
					"gradient" : 1,
					"outlettype" : [ "" ],
					"fontname" : "Verdana"
				}

			}
, 			{
				"box" : 				{
					"maxclass" : "comment",
					"text" : "split a stream of values into different ranges - arguments (int, float): at least 3 arguments, defining ranges (max 256)",
					"frgb" : [ 1.0, 1.0, 1.0, 1.0 ],
					"id" : "obj-36",
					"fontsize" : 10.0,
					"numinlets" : 1,
					"patching_rect" : [ 121.0, 26.0, 611.0, 19.0 ],
					"numoutlets" : 0,
					"textcolor" : [ 1.0, 1.0, 1.0, 1.0 ],
					"fontname" : "Verdana"
				}

			}
, 			{
				"box" : 				{
					"maxclass" : "comment",
					"text" : "multisplit",
					"frgb" : [ 1.0, 1.0, 1.0, 1.0 ],
					"id" : "obj-8",
					"fontsize" : 20.0,
					"numinlets" : 1,
					"patching_rect" : [ 20.0, 16.0, 103.0, 31.0 ],
					"numoutlets" : 0,
					"textcolor" : [ 1.0, 1.0, 1.0, 1.0 ],
					"fontname" : "Verdana"
				}

			}
, 			{
				"box" : 				{
					"maxclass" : "message",
					"text" : "window size 5 51 965 771, window constrain 960 720 960 720, window exec",
					"hidden" : 1,
					"id" : "obj-55",
					"fontsize" : 9.0,
					"numinlets" : 2,
					"patching_rect" : [ 14.0, 682.0, 360.0, 15.0 ],
					"bgcolor2" : [ 1.0, 1.0, 1.0, 1.0 ],
					"bgcolor" : [ 1.0, 1.0, 1.0, 1.0 ],
					"numoutlets" : 1,
					"textcolor" : [ 0.0, 0.0, 0.0, 0.129412 ],
					"gradient" : 1,
					"outlettype" : [ "" ],
					"fontname" : "Verdana"
				}

			}
, 			{
				"box" : 				{
					"maxclass" : "newobj",
					"text" : "thispatcher",
					"hidden" : 1,
					"id" : "obj-1",
					"fontsize" : 9.0,
					"numinlets" : 1,
					"patching_rect" : [ 13.0, 697.0, 62.0, 17.0 ],
					"bgcolor" : [ 1.0, 1.0, 1.0, 0.0 ],
					"numoutlets" : 2,
					"textcolor" : [ 0.0, 0.0, 0.0, 0.243137 ],
					"color" : [ 0.698039, 0.698039, 0.698039, 0.0 ],
					"outlettype" : [ "", "" ],
					"fontname" : "Verdana",
					"save" : [ "#N", "thispatcher", ";", "#Q", "end", ";" ]
				}

			}
, 			{
				"box" : 				{
					"maxclass" : "fpic",
					"embed" : 1,
					"id" : "obj-17",
					"numinlets" : 1,
					"patching_rect" : [ 1.0, 0.0, 952.0, 64.0 ],
					"numoutlets" : 0,
					"data" : [ 846, "", "IBkSG0fBZn....PCIgDQRA..CfK....PHX.....LPrsr....DLmPIQEBHf.B7g.YHB..CTPRDEDU3wY6cGiUbCCEE.ExI8rQnd5IagzSSVWYIjsPnmZ1OPEmiiOXYYK4Qie4d6lQ1xeaW83OBc+CWd986....fStuM5B.....5AAbA...HBB3B...PDDvE...fHHfK....QP.W....hf.t....DAAbA...HBB3B...PDDvE...fHHfK....QP.W....hf.t....DAAbA...HBB3B...PDDvE...fHHfK....QP.W....hf.t....DAAbA...HBB3B...PD99nK....Ha+5m+3e97u+ye657slVudsd8m6rc+256ud+9uDcvE...fHHfK....QP.W....hf0fK...bSazqAzq4ZH8Ht9it9ulzAW....hf.t....DAAbA...HBVCt...voRq6Csa070r5n2Gd2pas8A3ijN3B...PDDvE...fHHfK....QvZvE...J5VaeTs08A1Qe8Oa6ityM5m+knCt....DAAbA...HBB3B...PDrFbA..fhN66Crsp00PZuWyq+u87eKzAW....hf.t....DAAbA...HB2+vkmeezEA....zJcvE...fHHfK....QP.W...NHOc4wE+9uZrkN9RyQoyokwqY9awQW+0Lds0YoO2yio1ZX52Wy8+dN+oeeM0ZOmqVXevE..fCvSWd7tWd8she+7i4kWeawyatoGyWcNktN0L9ZyeqN55esw2pZlidcLasdV69eOmeOqkqIAbA..XP5QnqdLO8X9m1YtZqmir9+7OVPxJc+M89esmuKM9dd90y4ZODvE..fAoktcczcJaqy+VqkqQm9l1UwylZd9r18WscUcow2yyudNW6g.t...b.V5maboNqs0Pek5Z5ZcvqlN7smtxtEWq5ukZe56wRg2Z8XV5mq9dq+0d20x726ZsmrO3B...PD7eQY....hf.t....DAAbA...HBB3B...PDDvE...fHHfK....QP.W....hf.t....DAAbA...HBB3B...PDDvE...fHHfK....QP.W....hvGLNxpUd8D4Mn.....jTQNQjqBAlf" ]
				}

			}
, 			{
				"box" : 				{
					"maxclass" : "panel",
					"id" : "obj-9",
					"numinlets" : 1,
					"patching_rect" : [ 0.0, 0.0, 960.0, 65.0 ],
					"bgcolor" : [ 0.0, 0.0, 0.0, 1.0 ],
					"rounded" : 0,
					"numoutlets" : 0
				}

			}
 ],
		"lines" : [ 			{
				"patchline" : 				{
					"source" : [ "obj-3", 0 ],
					"destination" : [ "obj-32", 0 ],
					"hidden" : 1,
					"color" : [ 1.0, 1.0, 1.0, 1.0 ],
					"midpoints" : [ 837.5, 716.0, 623.5, 716.0 ]
				}

			}
, 			{
				"patchline" : 				{
					"source" : [ "obj-55", 0 ],
					"destination" : [ "obj-1", 0 ],
					"hidden" : 1,
					"color" : [ 1.0, 1.0, 1.0, 1.0 ],
					"midpoints" : [  ]
				}

			}
, 			{
				"patchline" : 				{
					"source" : [ "obj-20", 4 ],
					"destination" : [ "obj-11", 0 ],
					"hidden" : 0,
					"midpoints" : [  ]
				}

			}
, 			{
				"patchline" : 				{
					"source" : [ "obj-16", 0 ],
					"destination" : [ "obj-11", 0 ],
					"hidden" : 1,
					"midpoints" : [  ]
				}

			}
, 			{
				"patchline" : 				{
					"source" : [ "obj-20", 3 ],
					"destination" : [ "obj-12", 0 ],
					"hidden" : 0,
					"midpoints" : [  ]
				}

			}
, 			{
				"patchline" : 				{
					"source" : [ "obj-16", 0 ],
					"destination" : [ "obj-12", 0 ],
					"hidden" : 1,
					"midpoints" : [  ]
				}

			}
, 			{
				"patchline" : 				{
					"source" : [ "obj-20", 2 ],
					"destination" : [ "obj-13", 0 ],
					"hidden" : 0,
					"midpoints" : [  ]
				}

			}
, 			{
				"patchline" : 				{
					"source" : [ "obj-16", 0 ],
					"destination" : [ "obj-13", 0 ],
					"hidden" : 1,
					"midpoints" : [  ]
				}

			}
, 			{
				"patchline" : 				{
					"source" : [ "obj-20", 1 ],
					"destination" : [ "obj-14", 0 ],
					"hidden" : 0,
					"midpoints" : [  ]
				}

			}
, 			{
				"patchline" : 				{
					"source" : [ "obj-16", 0 ],
					"destination" : [ "obj-14", 0 ],
					"hidden" : 1,
					"midpoints" : [  ]
				}

			}
, 			{
				"patchline" : 				{
					"source" : [ "obj-20", 0 ],
					"destination" : [ "obj-15", 0 ],
					"hidden" : 0,
					"midpoints" : [  ]
				}

			}
, 			{
				"patchline" : 				{
					"source" : [ "obj-16", 0 ],
					"destination" : [ "obj-15", 0 ],
					"hidden" : 1,
					"midpoints" : [  ]
				}

			}
, 			{
				"patchline" : 				{
					"source" : [ "obj-28", 0 ],
					"destination" : [ "obj-20", 0 ],
					"hidden" : 0,
					"midpoints" : [  ]
				}

			}
, 			{
				"patchline" : 				{
					"source" : [ "obj-19", 0 ],
					"destination" : [ "obj-20", 0 ],
					"hidden" : 0,
					"midpoints" : [  ]
				}

			}
, 			{
				"patchline" : 				{
					"source" : [ "obj-18", 0 ],
					"destination" : [ "obj-20", 0 ],
					"hidden" : 0,
					"midpoints" : [  ]
				}

			}
, 			{
				"patchline" : 				{
					"source" : [ "obj-10", 0 ],
					"destination" : [ "obj-20", 0 ],
					"hidden" : 0,
					"midpoints" : [  ]
				}

			}
 ]
	}

}
