{
	"patcher" : 	{
		"fileversion" : 1,
		"rect" : [ 5.0, 51.0, 960.0, 720.0 ],
		"bgcolor" : [ 0.865, 0.88, 0.9, 1.0 ],
		"bglocked" : 0,
		"defrect" : [ 5.0, 51.0, 960.0, 720.0 ],
		"openrect" : [ 5.0, 51.0, 960.0, 720.0 ],
		"openinpresentation" : 0,
		"default_fontsize" : 9.0,
		"default_fontface" : 0,
		"default_fontname" : "Verdana",
		"gridonopen" : 0,
		"gridsize" : [ 20.0, 20.0 ],
		"gridsnaponopen" : 0,
		"toolbarvisible" : 0,
		"boxanimatetime" : 200,
		"imprint" : 0,
		"boxes" : [ 			{
				"box" : 				{
					"maxclass" : "comment",
					"text" : "/reset",
					"id" : "obj-2",
					"fontsize" : 10.0,
					"numinlets" : 1,
					"patching_rect" : [ 401.0, 345.0, 45.0, 19.0 ],
					"numoutlets" : 0,
					"fontname" : "Verdana"
				}

			}
, 			{
				"box" : 				{
					"maxclass" : "comment",
					"text" : "counter",
					"id" : "obj-4",
					"fontsize" : 10.0,
					"numinlets" : 1,
					"patching_rect" : [ 354.0, 345.0, 47.0, 19.0 ],
					"numoutlets" : 0,
					"fontname" : "Verdana"
				}

			}
, 			{
				"box" : 				{
					"maxclass" : "number",
					"id" : "obj-5",
					"fontsize" : 10.0,
					"htextcolor" : [ 0.870588, 0.870588, 0.870588, 1.0 ],
					"numinlets" : 1,
					"patching_rect" : [ 318.0, 345.0, 37.0, 19.0 ],
					"triscale" : 0.9,
					"numoutlets" : 2,
					"outlettype" : [ "int", "bang" ],
					"fontname" : "Verdana"
				}

			}
, 			{
				"box" : 				{
					"maxclass" : "button",
					"id" : "obj-6",
					"numinlets" : 1,
					"patching_rect" : [ 351.0, 395.0, 17.0, 17.0 ],
					"numoutlets" : 1,
					"outlettype" : [ "bang" ]
				}

			}
, 			{
				"box" : 				{
					"maxclass" : "message",
					"text" : "1 ga ge gi go gu",
					"id" : "obj-7",
					"fontsize" : 10.0,
					"numinlets" : 2,
					"patching_rect" : [ 577.657043, 286.0, 91.0, 17.0 ],
					"numoutlets" : 1,
					"outlettype" : [ "" ],
					"fontname" : "Verdana"
				}

			}
, 			{
				"box" : 				{
					"maxclass" : "message",
					"text" : "pop",
					"id" : "obj-10",
					"fontsize" : 10.0,
					"numinlets" : 2,
					"patching_rect" : [ 395.100861, 286.0, 27.0, 17.0 ],
					"numoutlets" : 1,
					"outlettype" : [ "" ],
					"fontname" : "Verdana"
				}

			}
, 			{
				"box" : 				{
					"maxclass" : "number",
					"id" : "obj-11",
					"fontsize" : 10.0,
					"htextcolor" : [ 0.870588, 0.870588, 0.870588, 1.0 ],
					"numinlets" : 1,
					"patching_rect" : [ 357.195953, 286.0, 37.0, 19.0 ],
					"triscale" : 0.9,
					"numoutlets" : 2,
					"outlettype" : [ "int", "bang" ],
					"fontname" : "Verdana"
				}

			}
, 			{
				"box" : 				{
					"maxclass" : "flonum",
					"id" : "obj-12",
					"fontsize" : 10.0,
					"htextcolor" : [ 0.870588, 0.870588, 0.870588, 1.0 ],
					"numinlets" : 1,
					"patching_rect" : [ 318.291077, 286.0, 37.0, 19.0 ],
					"triscale" : 0.9,
					"numoutlets" : 2,
					"outlettype" : [ "float", "bang" ],
					"fontname" : "Verdana"
				}

			}
, 			{
				"box" : 				{
					"maxclass" : "newobj",
					"text" : "pop",
					"id" : "obj-13",
					"fontsize" : 10.0,
					"numinlets" : 2,
					"patching_rect" : [ 301.0, 367.0, 30.0, 19.0 ],
					"numoutlets" : 1,
					"outlettype" : [ "bang" ],
					"fontname" : "Verdana"
				}

			}
, 			{
				"box" : 				{
					"maxclass" : "newobj",
					"text" : "pak 0. 0. 0. 0.",
					"id" : "obj-14",
					"fontsize" : 10.0,
					"numinlets" : 4,
					"patching_rect" : [ 422.0, 313.0, 136.0, 19.0 ],
					"numoutlets" : 1,
					"outlettype" : [ "" ],
					"fontname" : "Verdana"
				}

			}
, 			{
				"box" : 				{
					"maxclass" : "flonum",
					"id" : "obj-15",
					"fontsize" : 10.0,
					"htextcolor" : [ 0.870588, 0.870588, 0.870588, 1.0 ],
					"numinlets" : 1,
					"patching_rect" : [ 538.752136, 286.0, 37.0, 19.0 ],
					"triscale" : 0.9,
					"numoutlets" : 2,
					"outlettype" : [ "float", "bang" ],
					"fontname" : "Verdana"
				}

			}
, 			{
				"box" : 				{
					"maxclass" : "flonum",
					"id" : "obj-16",
					"fontsize" : 10.0,
					"htextcolor" : [ 0.870588, 0.870588, 0.870588, 1.0 ],
					"numinlets" : 1,
					"patching_rect" : [ 499.84729, 286.0, 37.0, 19.0 ],
					"triscale" : 0.9,
					"numoutlets" : 2,
					"outlettype" : [ "float", "bang" ],
					"fontname" : "Verdana"
				}

			}
, 			{
				"box" : 				{
					"maxclass" : "flonum",
					"id" : "obj-18",
					"fontsize" : 10.0,
					"htextcolor" : [ 0.870588, 0.870588, 0.870588, 1.0 ],
					"numinlets" : 1,
					"patching_rect" : [ 460.942352, 286.0, 37.0, 19.0 ],
					"triscale" : 0.9,
					"numoutlets" : 2,
					"outlettype" : [ "float", "bang" ],
					"fontname" : "Verdana"
				}

			}
, 			{
				"box" : 				{
					"maxclass" : "flonum",
					"id" : "obj-19",
					"fontsize" : 10.0,
					"htextcolor" : [ 0.870588, 0.870588, 0.870588, 1.0 ],
					"numinlets" : 1,
					"patching_rect" : [ 422.037476, 286.0, 37.0, 19.0 ],
					"triscale" : 0.9,
					"numoutlets" : 2,
					"outlettype" : [ "float", "bang" ],
					"fontname" : "Verdana"
				}

			}
, 			{
				"box" : 				{
					"maxclass" : "newobj",
					"text" : "print pop",
					"id" : "obj-20",
					"fontsize" : 10.0,
					"numinlets" : 1,
					"patching_rect" : [ 301.0, 395.0, 54.0, 19.0 ],
					"numoutlets" : 0,
					"fontname" : "Verdana"
				}

			}
, 			{
				"box" : 				{
					"maxclass" : "comment",
					"text" : "positive counter: multiple bangs / negative counter: filtered bangs",
					"id" : "obj-21",
					"fontsize" : 10.0,
					"numinlets" : 1,
					"patching_rect" : [ 303.0, 422.0, 344.0, 19.0 ],
					"numoutlets" : 0,
					"fontname" : "Verdana"
				}

			}
, 			{
				"box" : 				{
					"maxclass" : "button",
					"id" : "obj-28",
					"numinlets" : 1,
					"patching_rect" : [ 301.0, 286.0, 15.0, 15.0 ],
					"numoutlets" : 1,
					"outlettype" : [ "bang" ]
				}

			}
, 			{
				"box" : 				{
					"maxclass" : "textbutton",
					"bgoveroncolor" : [ 0.501961, 0.501961, 0.501961, 0.0 ],
					"bordercolor" : [ 0.6, 0.6, 0.6, 0.0 ],
					"outputmode" : 0,
					"id" : "obj-3",
					"fontsize" : 9.0,
					"border" : 0,
					"numinlets" : 1,
					"patching_rect" : [ 828.0, 683.0, 114.0, 17.0 ],
					"text" : "http://www.jasch.ch",
					"bgcolor" : [ 0.74902, 0.74902, 0.74902, 0.0 ],
					"rounded" : 0.0,
					"numoutlets" : 3,
					"textcolor" : [ 0.121569, 0.498039, 0.74902, 1.0 ],
					"textovercolor" : [ 0.121569, 0.498039, 0.74902, 1.0 ],
					"outlettype" : [ "", "", "int" ],
					"bgovercolor" : [ 0.698039, 0.698039, 0.698039, 0.0 ],
					"fontname" : "Verdana"
				}

			}
, 			{
				"box" : 				{
					"maxclass" : "message",
					"text" : ";\rmax launchbrowser http://www.jasch.ch",
					"linecount" : 2,
					"hidden" : 1,
					"id" : "obj-32",
					"fontsize" : 10.0,
					"numinlets" : 2,
					"patching_rect" : [ 614.0, 683.0, 214.0, 29.0 ],
					"bgcolor2" : [ 1.0, 1.0, 1.0, 1.0 ],
					"bgcolor" : [ 1.0, 1.0, 1.0, 1.0 ],
					"numoutlets" : 1,
					"textcolor" : [ 0.0, 0.0, 0.0, 0.101961 ],
					"gradient" : 1,
					"outlettype" : [ "" ],
					"fontname" : "Verdana"
				}

			}
, 			{
				"box" : 				{
					"maxclass" : "comment",
					"text" : "bang counter - argument (optional) counter, default 1",
					"frgb" : [ 1.0, 1.0, 1.0, 1.0 ],
					"id" : "obj-36",
					"fontsize" : 10.0,
					"numinlets" : 1,
					"patching_rect" : [ 75.0, 26.0, 283.0, 19.0 ],
					"numoutlets" : 0,
					"textcolor" : [ 1.0, 1.0, 1.0, 1.0 ],
					"fontname" : "Verdana"
				}

			}
, 			{
				"box" : 				{
					"maxclass" : "comment",
					"text" : "pop",
					"frgb" : [ 1.0, 1.0, 1.0, 1.0 ],
					"id" : "obj-8",
					"fontsize" : 20.0,
					"numinlets" : 1,
					"patching_rect" : [ 20.0, 16.0, 48.0, 31.0 ],
					"numoutlets" : 0,
					"textcolor" : [ 1.0, 1.0, 1.0, 1.0 ],
					"fontname" : "Verdana"
				}

			}
, 			{
				"box" : 				{
					"maxclass" : "message",
					"text" : "window size 5 51 965 771, window constrain 960 720 960 720, window exec",
					"hidden" : 1,
					"id" : "obj-55",
					"fontsize" : 9.0,
					"numinlets" : 2,
					"patching_rect" : [ 14.0, 682.0, 360.0, 15.0 ],
					"bgcolor2" : [ 1.0, 1.0, 1.0, 1.0 ],
					"bgcolor" : [ 1.0, 1.0, 1.0, 1.0 ],
					"numoutlets" : 1,
					"textcolor" : [ 0.0, 0.0, 0.0, 0.129412 ],
					"gradient" : 1,
					"outlettype" : [ "" ],
					"fontname" : "Verdana"
				}

			}
, 			{
				"box" : 				{
					"maxclass" : "newobj",
					"text" : "thispatcher",
					"hidden" : 1,
					"id" : "obj-1",
					"fontsize" : 9.0,
					"numinlets" : 1,
					"patching_rect" : [ 13.0, 697.0, 62.0, 17.0 ],
					"bgcolor" : [ 1.0, 1.0, 1.0, 0.0 ],
					"numoutlets" : 2,
					"textcolor" : [ 0.0, 0.0, 0.0, 0.243137 ],
					"color" : [ 0.698039, 0.698039, 0.698039, 0.0 ],
					"outlettype" : [ "", "" ],
					"fontname" : "Verdana",
					"save" : [ "#N", "thispatcher", ";", "#Q", "end", ";" ]
				}

			}
, 			{
				"box" : 				{
					"maxclass" : "fpic",
					"embed" : 1,
					"id" : "obj-17",
					"numinlets" : 1,
					"patching_rect" : [ 1.0, 0.0, 952.0, 64.0 ],
					"numoutlets" : 0,
					"data" : [ 846, "", "IBkSG0fBZn....PCIgDQRA..CfK....PHX.....LPrsr....DLmPIQEBHf.B7g.YHB..CTPRDEDU3wY6cGiUbCCEE.ExI8rQnd5IagzSSVWYIjsPnmZ1OPEmiiOXYYK4Qie4d6lQ1xeaW83OBc+CWd986....fStuM5B.....5AAbA...HBB3B...PDDvE...fHHfK....QP.W....hf.t....DAAbA...HBB3B...PDDvE...fHHfK....QP.W....hf.t....DAAbA...HBB3B...PDDvE...fHHfK....QP.W....hf.t....DAAbA...HBB3B...PD99nK....Ha+5m+3e97u+ye657slVudsd8m6rc+256ud+9uDcvE...fHHfK....QP.W....hf0fK...bSazqAzq4ZH8Ht9it9ulzAW....hf.t....DAAbA...HBVCt...voRq6Csa070r5n2Gd2pas8A3ijN3B...PDDvE...fHHfK....QvZvE...J5VaeTs08A1Qe8Oa6ityM5m+knCt....DAAbA...HBB3B...PDrFbA..fhN66Crsp00PZuWyq+u87eKzAW....hf.t....DAAbA...HB2+vkmeezEA....zJcvE...fHHfK....QP.W...NHOc4wE+9uZrkN9RyQoyokwqY9awQW+0Lds0YoO2yio1ZX52Wy8+dN+oeeM0ZOmqVXevE..fCvSWd7tWd8she+7i4kWeawyatoGyWcNktN0L9ZyeqN55esw2pZlidcLasdV69eOmeOqkqIAbA..XP5QnqdLO8X9m1YtZqmir9+7OVPxJc+M89esmuKM9dd90y4ZODvE..fAoktcczcJaqy+VqkqQm9l1UwylZd9r18WscUcow2yyudNW6g.t...b.V5maboNqs0Pek5Z5ZcvqlN7smtxtEWq5ukZe56wRg2Z8XV5mq9dq+0d20x726ZsmrO3B...PD7eQY....hf.t....DAAbA...HBB3B...PDDvE...fHHfK....QP.W....hf.t....DAAbA...HBB3B...PDDvE...fHHfK....QP.W....hvGLNxpUd8D4Mn.....jTQNQjqBAlf" ]
				}

			}
, 			{
				"box" : 				{
					"maxclass" : "panel",
					"id" : "obj-9",
					"numinlets" : 1,
					"patching_rect" : [ 0.0, 0.0, 960.0, 65.0 ],
					"bgcolor" : [ 0.0, 0.0, 0.0, 1.0 ],
					"rounded" : 0,
					"numoutlets" : 0
				}

			}
 ],
		"lines" : [ 			{
				"patchline" : 				{
					"source" : [ "obj-3", 0 ],
					"destination" : [ "obj-32", 0 ],
					"hidden" : 1,
					"color" : [ 1.0, 1.0, 1.0, 1.0 ],
					"midpoints" : [ 837.5, 716.0, 623.5, 716.0 ]
				}

			}
, 			{
				"patchline" : 				{
					"source" : [ "obj-55", 0 ],
					"destination" : [ "obj-1", 0 ],
					"hidden" : 1,
					"color" : [ 1.0, 1.0, 1.0, 1.0 ],
					"midpoints" : [  ]
				}

			}
, 			{
				"patchline" : 				{
					"source" : [ "obj-15", 0 ],
					"destination" : [ "obj-14", 3 ],
					"hidden" : 0,
					"color" : [ 0.6667, 0.6667, 0.6667, 1.0 ],
					"midpoints" : [  ]
				}

			}
, 			{
				"patchline" : 				{
					"source" : [ "obj-16", 0 ],
					"destination" : [ "obj-14", 2 ],
					"hidden" : 0,
					"color" : [ 0.6667, 0.6667, 0.6667, 1.0 ],
					"midpoints" : [  ]
				}

			}
, 			{
				"patchline" : 				{
					"source" : [ "obj-18", 0 ],
					"destination" : [ "obj-14", 1 ],
					"hidden" : 0,
					"color" : [ 0.6667, 0.6667, 0.6667, 1.0 ],
					"midpoints" : [  ]
				}

			}
, 			{
				"patchline" : 				{
					"source" : [ "obj-19", 0 ],
					"destination" : [ "obj-14", 0 ],
					"hidden" : 0,
					"color" : [ 0.6667, 0.6667, 0.6667, 1.0 ],
					"midpoints" : [  ]
				}

			}
, 			{
				"patchline" : 				{
					"source" : [ "obj-13", 0 ],
					"destination" : [ "obj-6", 0 ],
					"hidden" : 0,
					"midpoints" : [ 310.5, 390.0, 360.5, 390.0 ]
				}

			}
, 			{
				"patchline" : 				{
					"source" : [ "obj-5", 0 ],
					"destination" : [ "obj-13", 1 ],
					"hidden" : 0,
					"color" : [ 0.6667, 0.6667, 0.6667, 1.0 ],
					"midpoints" : [  ]
				}

			}
, 			{
				"patchline" : 				{
					"source" : [ "obj-13", 0 ],
					"destination" : [ "obj-20", 0 ],
					"hidden" : 0,
					"midpoints" : [  ]
				}

			}
, 			{
				"patchline" : 				{
					"source" : [ "obj-14", 0 ],
					"destination" : [ "obj-13", 0 ],
					"hidden" : 0,
					"midpoints" : [ 431.5, 334.0, 310.5, 334.0 ]
				}

			}
, 			{
				"patchline" : 				{
					"source" : [ "obj-28", 0 ],
					"destination" : [ "obj-13", 0 ],
					"hidden" : 0,
					"midpoints" : [ 310.0, 338.0, 310.5, 338.0 ]
				}

			}
, 			{
				"patchline" : 				{
					"source" : [ "obj-12", 0 ],
					"destination" : [ "obj-13", 0 ],
					"hidden" : 0,
					"midpoints" : [ 327.791077, 334.0, 310.5, 334.0 ]
				}

			}
, 			{
				"patchline" : 				{
					"source" : [ "obj-11", 0 ],
					"destination" : [ "obj-13", 0 ],
					"hidden" : 0,
					"midpoints" : [ 366.695953, 334.0, 310.5, 334.0 ]
				}

			}
, 			{
				"patchline" : 				{
					"source" : [ "obj-10", 0 ],
					"destination" : [ "obj-13", 0 ],
					"hidden" : 0,
					"midpoints" : [ 404.600861, 334.0, 310.5, 334.0 ]
				}

			}
, 			{
				"patchline" : 				{
					"source" : [ "obj-7", 0 ],
					"destination" : [ "obj-13", 0 ],
					"hidden" : 0,
					"midpoints" : [ 587.157043, 334.0, 310.5, 334.0 ]
				}

			}
 ]
	}

}
