max v2;#N vpatcher 1 44 688 380;#P window setfont "Sans Serif" 9.;#P window linecount 1;#P hidden newex 378 109 38 196617 del 50;#P hidden newex 378 85 48 196617 loadbang;#P window setfont "Sans Serif" 18.;#P window linecount 2;#P message 355 205 264 196626 100 120 144 173 208 250 300 360 433 520 624 750;#P window setfont "Sans Serif" 9.;#P user ubumenu 354 146 52 196617 0 1 1 0;#X add display;#X add clear;#X prefix_set 0 0 <none> 0;#P window linecount 1;#P hidden newex 291 111 42 196617 lb 0.25;#P hidden newex 226 111 33 196617 lb 12;#P hidden newex 162 111 39 196617 lb 750;#P hidden newex 98 111 39 196617 lb 100;#P comment 226 132 53 196617 ED-values;#P comment 290 132 79 196617 brownian factor;#P comment 98 132 46 196617 min. ED;#P comment 161 132 46 196617 max. ED;#N vpatcher 32 322 523 725;#P window setfont "Sans Serif" 9.;#P window linecount 0;#P newex 350 220 48 196617 loadbang;#P newex 300 83 82 196617 sel 0 1;#P outlet 300 277 15 0;#P newex 300 249 46 196617 show;#P window linecount 1;#P newex 300 220 40 196617 Lround;#N comlet menu;#P inlet 300 33 15 0;#P window linecount 0;#P newex 300 189 77 196617 make-ED-scale;#P newex 86 83 202 196617 brownian 0 $3 $4;#N comlet toggle (on/off);#P inlet 39 33 15 0;#N comlet max. ED (ms);#P inlet 178 138 15 0;#N comlet min. ED (ms);#P inlet 132 138 15 0;#N comlet row index;#P outlet 67 189 15 0;#P number 110 216 35 9 0 0 0 3 0 0 0 221 221 221 222 222 222 0 0 0;#N comlet bang;#P outlet 39 241 15 0;#P newex 39 216 57 196617 metro 300;#P newex 86 189 148 196617 trans-log $1 $2;#N comlet ED (ms);#P outlet 110 241 15 0;#P number 132 163 35 9 0 0 0 3 0 0 0 221 221 221 222 222 222 0 0 0;#P number 224 163 35 9 0 0 0 3 0 0 0 221 221 221 222 222 222 0 0 0;#P number 178 163 35 9 0 0 0 3 0 0 0 221 221 221 222 222 222 0 0 0;#P newex 224 136 27 196617 - 1;#N comlet steps;#P inlet 224 33 15 0;#P number 224 58 35 9 2 0 1 3 0 0 0 221 221 221 222 222 222 0 0 0;#P window linecount 2;#P comment 113 52 104 196617 this numbox prohibits numbers < 2!;#N comlet brown factor (0-1);#P inlet 278 33 15 0;#P number 86 163 24 9 0 0 0 3 0 0 0 221 221 221 222 222 222 0 0 0;#P window linecount 1;#P newex 176 109 30 196617 sel 1;#P newex 224 109 36 196617 int $3;#P connect 19 0 13 0;#P connect 13 0 14 0;#P connect 2 0 16 0;#P connect 13 0 20 0;#P connect 20 0 2 0;#P connect 2 0 12 0;#P connect 12 0 13 1;#P connect 12 0 15 0;#P connect 15 0 11 0;#P connect 17 0 10 0;#P connect 10 0 12 1;#P fasten 19 0 1 0 44 108;#P connect 18 0 8 0;#P connect 8 0 12 2;#P connect 5 0 20 2;#P connect 6 0 5 0;#P connect 5 0 0 0;#P connect 1 0 0 0;#P connect 0 0 7 0;#P connect 7 0 9 0;#P connect 9 0 12 3;#P connect 3 0 20 3;#P connect 22 0 26 0;#P connect 26 0 21 0;#P connect 21 0 23 0;#P connect 23 0 24 0;#P connect 24 0 25 0;#P connect 10 0 21 1;#P connect 26 1 24 1;#P connect 27 0 24 1;#P connect 8 0 21 2;#P connect 0 0 21 3;#P pop;#P newobj 34 176 331 196617 p Brownian-Rhythm;#P message 34 206 20 196617 72;#P number 248 206 35 9 0 0 164 3 0 0 0 221 221 221 222 222 222 0 0 0;#P number 141 206 26 9 0 0 165 3 0 0 0 221 221 221 222 222 222 0 0 0;#P comment 171 206 53 196617 row index;#P comment 287 206 55 196617 chosen ED;#P toggle 34 140 22 0;#P number 98 146 35 9 50 0 5 3 0 0 0 221 221 221 222 222 222 0 0 0;#P number 162 146 42 9 50 0 5 3 0 0 0 221 221 221 222 222 222 0 0 0;#P flonum 290 146 35 9 0. 1. 7 3 0 0 0 221 221 221 222 222 222 0 0 0;#P number 226 146 35 9 2 0 69 3 0 0 0 221 221 221 222 222 222 0 0 0;#P user uslider 454 92 16 89 12 1 0 0;#P comment 445 76 40 196617 display;#P comment 473 92 46 196617 max. ED;#P comment 473 183 46 196617 min. ED;#P hidden message 454 57 41 196617 size \$1;#P hidden newex 454 34 32 196617 lb 12;#P newex 34 239 94 196617 QT-SndPlayer 175;#P window linecount 2;#P comment 31 113 31 196617 start stop;#P window setfont "Sans Serif" 18.;#P window linecount 1;#P comment 20 21 169 196626 Brownian Rhythm;#P window setfont "Sans Serif" 9.;#P comment 21 74 225 196617 © 1995-2008 by Karlheinz Essl <www.essl.at>;#P window linecount 2;#P comment 20 48 341 196617 Generates Brownian rhythms. First a list of entry delay (ED) is calculated from which values are chosen by using a Brownian random generator.;#P connect 15 0 21 0;#P connect 21 0 20 0;#P connect 20 0 4 0;#P hidden connect 26 0 14 0;#P connect 14 0 21 1;#P connect 21 1 18 0;#P hidden connect 27 0 13 0;#P connect 13 0 21 2;#P hidden connect 28 0 11 0;#P connect 11 0 21 3;#P connect 21 2 19 0;#P hidden connect 29 0 12 0;#P connect 12 0 21 4;#P hidden connect 33 0 30 0;#P connect 30 0 21 5;#P connect 21 3 31 0;#P hidden connect 32 0 33 0;#P hidden connect 11 0 6 0;#P hidden connect 5 0 6 0;#P hidden connect 6 0 10 0;#P hidden connect 18 0 10 0;#P pop;