max v2;#N vpatcher 1 44 566 431;#P window setfont "Sans Serif" 9.;#P hidden newex 480 88 33 196617 lb 10;#P hidden newex 413 87 45 196617 lb 1000;#P hidden newex 346 87 39 196617 lb 100;#P window linecount 2;#P comment 14 51 512 196617 Constructing rhythmical scales between a minimum and a maximum entry delay (ED) in a certain number of steps \, applying one of the three transition functions: logarithmical (=geometrical row) \, linear \, and exponential.;#P window setfont "Sans Serif" 20.;#P window linecount 1;#P comment 14 22 163 196628 Rhythm Scales;#P window setfont "Sans Serif" 9.;#P comment 14 76 225 196617 © 1995-2008 by Karlheinz Essl <www.essl.at>;#P number 480 126 28 9 2 0 1 3 0 0 0 221 221 221 222 222 222 0 0 0;#P comment 479 113 32 196617 steps;#P number 413 126 35 9 0 0 0 3 0 0 0 221 221 221 222 222 222 0 0 0;#P comment 412 113 41 196617 max. ED;#P number 346 126 35 9 0 0 0 3 0 0 0 221 221 221 222 222 222 0 0 0;#P comment 346 113 41 196617 min. ED;#P window linecount 2;#P message 305 236 186 196617 100 129 167 215 278 359 464 599 774 1000;#P window linecount 1;#N vpatcher 40 55 196 220;#N comlet ED list;#P inlet 40 39 15 0;#P window setfont "Sans Serif" 9.;#P newex 40 62 38 196617 Lround;#P newex 40 86 72 196617 show;#N comlet to display box;#P outlet 40 112 15 0;#N comlet clear display;#P inlet 102 39 15 0;#P connect 4 0 3 0;#P connect 3 0 2 0;#P connect 2 0 1 0;#P connect 0 0 2 1;#P pop;#P newobj 305 209 48 196617 p display;#P button 355 210 15 0;#P newex 279 182 212 196617 make-trans-scale 100 1000 10;#P user umenu 279 157 43 196645 1 64 173 0;#X add log;#X add lin;#X add exp;#P comment 316 297 19 196617 ED;#P number 279 296 35 9 0 0 164 3 0 0 0 221 221 221 222 222 222 0 0 0;#N vpatcher 134 200 348 419;#P window setfont "Sans Serif" 9.;#P newex 76 105 86 196617 sel-princ 3;#P newex 31 105 26 196617 > 0;#N comlet rhythm bangs;#P outlet 31 172 14 0;#P newex 31 139 54 196617 metro 250;#N comlet ED;#P outlet 92 139 14 0;#P newex 31 73 45 196617 pipe 300;#N vpatcher 50 40 259 210;#P button 102 60 15 0;#P window setfont "Sans Serif" 9.;#P newex 102 84 62 196617 s new-scale;#P outlet 31 111 15 0;#P inlet 31 36 15 0;#P newex 31 84 27 196617 + 1;#P newex 31 60 59 196617 contrario 3;#P connect 2 0 0 0;#P connect 0 0 1 0;#P connect 1 0 3 0;#P connect 2 0 5 0;#P connect 5 0 4 0;#P pop;#P newobj 114 73 29 196617 p foo;#N comlet umenu (sel-princ);#P inlet 114 44 14 0;#P inlet 152 44 14 0;#P connect 1 0 3 0;#P connect 3 0 7 0;#P connect 7 0 5 0;#P connect 5 0 6 0;#P connect 8 0 5 1;#P connect 5 0 8 0;#P connect 8 0 4 0;#P connect 1 0 2 0;#P connect 2 0 8 1;#P connect 0 0 8 2;#P pop;#P newobj 187 265 102 196617 p rhythm;#P user umenu 187 237 69 196645 1 64 253 0;#X add stop;#X add sequence;#X add series;#X add alea;#P user umenu 95 292 93 196645 1 64 308 0;#X add single-note;#X add brown-melody;#N vpatcher 540 327 835 559;#P window setfont "Sans Serif" 9.;#P message 19 56 14 196617 1;#P newex 19 29 45 196617 loadbang;#P newex 38 56 27 196617 + 1;#N comlet rhythm bangs;#P inlet 67 29 15 0;#P newex 38 80 39 196617 gate 2;#P message 38 109 20 196617 60;#P newex 67 109 125 196617 brown-melody 24 108 0.2;#P newex 38 169 103 196617 QT-SndPlayer 1 500;#N comlet duration;#P inlet 216 29 15 0;#P newex 216 109 39 196617 * 0.99;#N comlet umenu;#P inlet 2 29 15 0;#P connect 9 0 10 0;#P connect 0 0 8 0;#P connect 10 0 6 0;#P connect 8 0 6 0;#P connect 6 0 5 0;#P connect 5 0 3 0;#P connect 4 0 3 0;#P connect 7 0 6 1;#P connect 6 1 4 0;#P connect 1 0 3 2;#P connect 2 0 1 0;#P pop;#P newobj 95 323 195 196617 p player;#P comment 15 127 323 196617 1) Define the parameters of the rhythmical material..........................;#P comment 15 239 169 196617 3) Selection principle.....................;#P comment 15 159 256 196617 2) Choose a transition function....................................;#P comment 15 293 78 196617 4) Harmony.....;#P comment 494 243 51 196617 ED supply;#P comment 373 211 65 196617 clear display;#P connect 7 0 6 0;#P connect 8 0 9 0;#P connect 9 0 6 1;#P connect 12 0 13 0;#P connect 13 0 9 1;#P connect 9 1 10 0;#P connect 10 0 6 2;#P connect 13 0 15 0;#P connect 15 0 16 0;#P hidden connect 14 0 15 1;#P hidden connect 26 0 18 0;#P connect 18 0 13 1;#P hidden connect 27 0 20 0;#P connect 20 0 13 2;#P hidden connect 28 0 22 0;#P connect 22 0 13 3;#P pop;