max v2;#N vpatcher 0 44 676 337;#P window setfont "Sans Serif" 9.;#P comment 13 66 225 196617 © 1995-2008 by Karlheinz Essl <www.essl.at>;#P newex 25 240 490 196617 QT-SndPlayer 1 500;#N vpreset 2;#X append 1 2 12 172 139 flonum float 0.72 \; 10 172 505 number int 375 \; 20 116 297 number int 4 \; 22 116 161 number int 0 \; 23 116 229 number int 1 \; 24 116 365 flonum float;#X append 1 2 0. \; 25 116 433 flonum float 0. \; 28 108 25 toggle int 1 \; 29 116 93 umenu int 3 \; 7 172 345 number int 3 \;;#X append 2 2 12 172 139 flonum float 0.72 \; 10 172 505 number int 250 \; 20 116 297 number int 1 \; 22 116 161 number int 0 \; 23 116 229 number int 4 \; 24 116 365 flonum float;#X append 2 2 0.75 \; 25 116 433 flonum float 0.25 \; 28 108 25 toggle int 1 \; 29 116 93 umenu int 2 \; 7 172 345 number int 1 \;;#P preset 501 28 49 17;#P comment 93 99 50 196617 sel-princ;#P user umenu 93 116 65 196645 1 64 132 0;#X add choose...;#X add alea;#X add series;#X add sequence;#P toggle 25 108 21 0;#P newex 25 142 490 196617 super-rhythm;#P comment 161 99 33 196617 %dev;#P flonum 433 116 35 9 0. 1. 67 3 0 0 0 221 221 221 222 222 222 0 0 0;#P flonum 365 116 35 9 0. 1. 67 3 0 0 0 221 221 221 222 222 222 0 0 0;#P number 229 116 25 9 1 8 67 3 0 0 0 221 221 221 222 222 222 0 0 0;#P number 161 116 31 9 0 0 1 3 0 0 0 221 221 221 222 222 222 0 0 0;#N vpatcher 677 198 905 336;#P window setfont "Sans Serif" 9.;#P window linecount 0;#P message 12 53 68 196617 200 400 600;#P message 12 32 95 196617 250 250 500 1000;#P window linecount 2;#P comment 116 25 86 196617 select a given supply of ED's;#P window linecount 1;#P comment 116 63 27 196617 or...;#P hidden outlet 13 71 15 0;#P hidden newex 35 70 45 196617 loadbang;#P window linecount 2;#P comment 116 82 76 196617 construct your own supply;#P window linecount 1;#N vpatcher 677 44 903 176;#P window setfont "Sans Serif" 9.;#P window linecount 4;#P comment 116 34 51 196617 select one of the these methods...;#P window linecount 1;#N vpatcher 3 190 251 424;#P button 15 69 23 0;#P window setfont "Sans Serif" 9.;#P number 119 78 35 9 50 0 65 3 0 0 0 221 221 221 222 222 222 0 0 0;#P number 171 78 35 9 2 0 65 3 0 0 0 221 221 221 222 222 222 0 0 0;#P comment 171 61 32 196617 steps;#P comment 119 61 41 196617 max.ED;#P newex 15 102 167 196617 make-ED-scale 100 1000 12;#P message 15 170 167 196617;#P button 48 141 15 0;#P newex 15 140 31 196617 show;#P newex 117 140 65 196617 s ED-supply;#P comment 65 136 40 196617 clear display;#P hidden message 119 41 32 196617 1000;#P hidden message 171 41 20 196617 12;#P number 67 78 35 9 50 0 65 3 0 0 0 221 221 221 222 222 222 0 0 0;#P comment 67 61 38 196617 min.ED;#P hidden message 67 41 26 196617 100;#P hidden newex 68 21 50 196617 loadbang;#P connect 16 0 11 0;#P connect 11 0 8 0;#P connect 8 0 10 0;#P hidden connect 9 0 8 1;#P hidden connect 0 0 1 0;#P hidden connect 1 0 3 0;#P connect 3 0 11 1;#P fasten 11 0 7 0 20 129 122 129;#P hidden connect 0 0 5 0;#P hidden connect 5 0 15 0;#P connect 15 0 11 2;#P hidden connect 0 0 4 0;#P hidden connect 4 0 14 0;#P connect 14 0 11 3;#P pop;#P newobj 18 50 89 196617 p geometric-scale;#N vpatcher 211 51 509 327;#P window setfont "Sans Serif" 36.;#P comment 188 44 22 196644 };#P window setfont "Sans Serif" 9.;#P comment 209 56 41 196617 select a pattern;#P message 42 95 32 196617 1 2 3;#P message 17 35 160 196617 0.2 0.2 0.2 0.2 0.2 0.66 0.66 0.66 0.5 0.5 0.75 0.75 0.75 0.75;#P message 28 71 89 196617 0.5 1.66 2.5 0.33;#P comment 234 127 26 196617 grid;#N vpatcher 50 40 387 225;#P window setfont "Sans Serif" 9.;#P comment 123 45 100 196617 pattern element;#P comment 16 46 47 196617 retrigger;#P button 66 44 15 0;#P flonum 84 44 35 9 0. 0 65 3 0 0 0 221 221 221 222 222 222 0 0 0;#P comment 141 68 31 196617 clear;#P button 125 67 15 0;#P message 84 93 229 196617 0.14 0.14 0.14 0.14 0.14 0.14 0.14 0.8 0.8 0.8 0.8 0.8 0.33 0.33 0.33 0.33 1.519999 1.509999 1.509999 1.509999;#P newex 84 66 38 196617 collect;#P comment 35 68 28 196617 send;#P button 66 67 15 0;#N comlet pattern;#P outlet 84 121 15 0;#P hidden connect 8 0 7 0;#P connect 7 0 3 0;#P connect 3 0 4 0;#P connect 1 0 4 0;#P connect 4 0 0 0;#P hidden connect 5 0 3 1;#P pop;#P newobj 56 127 83 196617 p create-pattern;#N vpatcher 300 83 466 318;#N comlet pattern;#P inlet 30 41 15 0;#P window setfont "Sans Serif" 9.;#P newex 58 66 27 196617 t b i;#N comlet grid;#P inlet 58 41 15 0;#P newex 30 91 38 196617 listreg;#P newex 30 120 55 196617 Lmult;#N comlet ED-list;#P outlet 30 176 15 0;#P newex 51 176 65 196617 s ED-supply;#P newex 30 147 38 196617 Lround;#P connect 6 0 4 0;#P connect 7 0 4 0;#P connect 4 0 3 0;#P connect 3 0 0 0;#P connect 0 0 2 0;#P connect 0 0 1 0;#P connect 5 0 6 0;#P connect 6 1 3 1;#P pop;#P newobj 17 159 189 196617 p crunch;#P newex 17 190 31 196617 show;#P message 17 217 190 196617;#P button 49 191 15 0;#P comment 65 192 65 196617 clear display;#P hidden message 196 107 26 196617 500;#P hidden newex 225 105 45 196617 loadbang;#P number 196 127 35 9 50 0 65 3 0 0 0 221 221 221 222 222 222 0 0 0;#P connect 8 0 7 0;#P connect 10 0 7 0;#P connect 11 0 7 0;#P connect 12 0 7 0;#P connect 7 0 6 0;#P connect 6 0 5 0;#P hidden connect 4 0 6 1;#P hidden connect 1 0 2 0;#P hidden connect 2 0 0 0;#P connect 0 0 7 1;#P pop;#P newobj 18 76 72 196617 p grid-pattern;#N vpatcher 147 208 388 399;#P window setfont "Sans Serif" 9.;#P comment 20 40 47 196617 retrigger;#P button 71 39 15 0;#P button 71 64 15 0;#P comment 40 65 28 196617 send;#P newex 89 63 38 196617 collect;#P number 89 39 38 9 50 0 65 3 0 0 0 221 221 221 222 222 222 0 0 0;#P message 89 90 107 196617 125 125 125 375 250 250 666 666 666;#P button 130 64 15 0;#P comment 146 65 31 196617 clear;#P comment 130 40 19 196617 ED;#P newex 89 131 65 196617 s ED-supply;#P hidden connect 9 0 5 0;#P connect 5 0 6 0;#P connect 6 0 4 0;#P connect 8 0 4 0;#P connect 4 0 0 0;#P hidden connect 3 0 6 1;#P pop;#P newobj 18 23 55 196617 p manually;#P pop 1;#P newobj 12 86 89 196617 p make-ED-supply;#P hidden newex 145 55 65 196617 r ED-supply;#P hidden connect 3 0 8 0;#P hidden connect 0 0 4 0;#P hidden connect 7 0 4 0;#P hidden connect 8 0 4 0;#P pop;#P newobj 501 115 61 196617 p ED-supply;#P number 297 116 25 9 1 8 67 3 0 0 0 221 221 221 222 222 222 0 0 0;#P window setfont "Sans Serif" 14.;#P comment 223 96 106 196622 - chord size -;#P comment 366 96 101 196622 - periodicity -;#P window setfont "Sans Serif" 9.;#P comment 277 82 55 196617 max. index;#P comment 222 82 54 196617 min. index;#P comment 417 82 55 196617 max. index;#P comment 362 82 54 196617 min. index;#P comment 176 172 65 196617 brown factor;#P flonum 139 172 35 9 0. 1. 67 3 0 0 0 221 221 221 222 222 222 0 0 0;#P newex 25 200 125 196617 brown-melody 24 108 0.1;#P number 505 172 35 9 0 0 164 3 0 0 0 221 221 221 222 222 222 0 0 0;#P comment 545 172 52 196617 chosen ED;#P newex 505 200 39 196617 * 0.99;#P number 345 172 22 9 0 0 164 3 0 0 0 221 221 221 222 222 222 0 0 0;#P comment 376 172 85 196617 chosen chord size;#P newex 253 171 31 196617 show;#P message 253 201 141 196617 200 400 600;#P button 286 172 15 0;#P comment 397 201 35 196617 ED list;#P window setfont "Sans Serif" 18.;#P comment 13 23 133 196626 Super-Rhythm;#P window setfont "Sans Serif" 9.;#P comment 13 50 636 196617 Rhythm model based on a supply of entry delays (ED) which elements are chosen by one of the selection principles alea \, series or sequence.;#P connect 28 0 27 0;#P connect 27 0 11 0;#P connect 11 0 32 0;#P connect 29 0 27 1;#P connect 12 0 11 3;#P connect 22 0 27 2;#P connect 23 0 27 3;#P hidden connect 21 0 5 0;#P connect 5 0 4 0;#P hidden connect 3 0 5 1;#P connect 20 0 27 4;#P connect 27 2 7 0;#P fasten 8 0 32 2 510 228 350 228;#P connect 24 0 27 5;#P connect 25 0 27 6;#P connect 21 0 27 7;#P connect 27 3 10 0;#P connect 10 0 8 0;#P pop;