{
	"patcher" : 	{
		"fileversion" : 1,
		"rect" : [ 143.0, 44.0, 532.0, 293.0 ],
		"bgcolor" : [ 0.87451, 0.933333, 1.0, 1.0 ],
		"bglocked" : 0,
		"defrect" : [ 143.0, 44.0, 532.0, 293.0 ],
		"openrect" : [ 0.0, 0.0, 0.0, 0.0 ],
		"openinpresentation" : 0,
		"default_fontsize" : 12.0,
		"default_fontface" : 0,
		"default_fontname" : "Arial",
		"gridonopen" : 0,
		"gridsize" : [ 15.0, 15.0 ],
		"gridsnaponopen" : 0,
		"toolbarvisible" : 1,
		"boxanimatetime" : 200,
		"imprint" : 0,
		"boxes" : [ 			{
				"box" : 				{
					"maxclass" : "bpatcher",
					"id" : "obj-2",
					"offset" : [ -18.0, -68.0 ],
					"numinlets" : 0,
					"numoutlets" : 0,
					"args" : [ "MIDI-bend-scaler", "map midi pitch bend values (0-127) to values between -1 and 1" ],
					"patching_rect" : [ 9.0, 9.0, 511.0, 76.0 ],
					"name" : "banner.maxpat"
				}

			}
, 			{
				"box" : 				{
					"maxclass" : "bpatcher",
					"id" : "obj-3",
					"numinlets" : 0,
					"numoutlets" : 0,
					"args" : [ "MIDI-bend-scaler.help", "1.1a", "Matt Wright", "MIDI-bend-scaler", 2823 ],
					"patching_rect" : [ 194.0, 194.0, 292.0, 86.0 ],
					"name" : "badge.maxpat"
				}

			}
, 			{
				"box" : 				{
					"maxclass" : "newobj",
					"text" : "p status",
					"id" : "obj-4",
					"fontname" : "Arial",
					"numinlets" : 0,
					"numoutlets" : 0,
					"fontsize" : 12.0,
					"patching_rect" : [ 427.0, 171.0, 59.0, 20.0 ],
					"color" : [ 1.0, 0.890196, 0.090196, 1.0 ],
					"patcher" : 					{
						"fileversion" : 1,
						"rect" : [ 298.0, 133.0, 429.0, 322.0 ],
						"bglocked" : 0,
						"defrect" : [ 298.0, 133.0, 429.0, 322.0 ],
						"openrect" : [ 0.0, 0.0, 0.0, 0.0 ],
						"openinpresentation" : 0,
						"default_fontsize" : 12.0,
						"default_fontface" : 0,
						"default_fontname" : "Arial",
						"gridonopen" : 0,
						"gridsize" : [ 15.0, 15.0 ],
						"gridsnaponopen" : 0,
						"toolbarvisible" : 1,
						"boxanimatetime" : 200,
						"imprint" : 0,
						"boxes" : [ 							{
								"box" : 								{
									"maxclass" : "comment",
									"text" : "Updated Max 5, January 2009. mzed",
									"id" : "obj-2",
									"fontname" : "Arial",
									"numinlets" : 1,
									"presentation_rect" : [ 20.0, 84.0, 0.0, 0.0 ],
									"numoutlets" : 0,
									"frgb" : [ 0.0, 0.0, 0.0, 1.0 ],
									"fontsize" : 9.0,
									"patching_rect" : [ 20.0, 84.0, 290.0, 17.0 ]
								}

							}
, 							{
								"box" : 								{
									"maxclass" : "comment",
									"text" : "Matt Wright reviewed this patch in August 2007 for for correctness, style, generality, efficiency, and overall design.",
									"linecount" : 2,
									"id" : "obj-1",
									"fontname" : "Arial",
									"numinlets" : 1,
									"numoutlets" : 0,
									"frgb" : [ 0.0, 0.0, 0.0, 1.0 ],
									"fontsize" : 9.0,
									"patching_rect" : [ 18.0, 41.0, 290.0, 27.0 ]
								}

							}
 ],
						"lines" : [  ]
					}
,
					"saved_object_attributes" : 					{
						"fontname" : "Arial",
						"default_fontface" : 0,
						"globalpatchername" : "",
						"fontface" : 0,
						"default_fontname" : "Arial",
						"fontsize" : 12.0,
						"default_fontsize" : 12.0
					}

				}

			}
, 			{
				"box" : 				{
					"maxclass" : "message",
					"text" : "64",
					"id" : "obj-5",
					"fontname" : "Arial",
					"numinlets" : 2,
					"numoutlets" : 1,
					"fontsize" : 12.0,
					"patching_rect" : [ 56.0, 139.0, 32.5, 18.0 ],
					"outlettype" : [ "" ]
				}

			}
, 			{
				"box" : 				{
					"maxclass" : "flonum",
					"id" : "obj-6",
					"fontname" : "Arial",
					"numinlets" : 1,
					"numoutlets" : 2,
					"fontsize" : 12.0,
					"patching_rect" : [ 56.0, 234.0, 76.0, 20.0 ],
					"outlettype" : [ "float", "bang" ],
					"htextcolor" : [ 0.870588, 0.870588, 0.870588, 1.0 ],
					"bgcolor" : [ 0.866667, 0.866667, 0.866667, 1.0 ],
					"triscale" : 0.9
				}

			}
, 			{
				"box" : 				{
					"maxclass" : "slider",
					"id" : "obj-7",
					"numinlets" : 1,
					"numoutlets" : 1,
					"patching_rect" : [ 56.0, 165.0, 144.0, 18.0 ],
					"outlettype" : [ "" ],
					"orientation" : 1
				}

			}
, 			{
				"box" : 				{
					"maxclass" : "number",
					"id" : "obj-8",
					"fontname" : "Arial",
					"numinlets" : 1,
					"numoutlets" : 2,
					"fontsize" : 12.0,
					"patching_rect" : [ 56.0, 189.0, 37.0, 20.0 ],
					"outlettype" : [ "int", "bang" ],
					"htextcolor" : [ 0.870588, 0.870588, 0.870588, 1.0 ],
					"bgcolor" : [ 0.866667, 0.866667, 0.866667, 1.0 ],
					"triscale" : 0.9
				}

			}
, 			{
				"box" : 				{
					"maxclass" : "newobj",
					"text" : "MIDI-bend-scaler",
					"id" : "obj-9",
					"fontname" : "Arial",
					"numinlets" : 1,
					"numoutlets" : 1,
					"fontsize" : 12.0,
					"patching_rect" : [ 56.0, 212.0, 114.0, 20.0 ],
					"outlettype" : [ "" ],
					"color" : [ 1.0, 0.890196, 0.090196, 1.0 ]
				}

			}
, 			{
				"box" : 				{
					"maxclass" : "comment",
					"text" : "Map MIDI pitch bend so that 0 goes to -1, 64 goes to 0, and 127 goes to 1",
					"id" : "obj-10",
					"fontname" : "Arial",
					"numinlets" : 1,
					"numoutlets" : 0,
					"frgb" : [ 0.0, 0.0, 0.0, 1.0 ],
					"fontsize" : 12.0,
					"patching_rect" : [ 50.0, 98.0, 403.0, 20.0 ]
				}

			}
 ],
		"lines" : [ 			{
				"patchline" : 				{
					"source" : [ "obj-8", 0 ],
					"destination" : [ "obj-9", 0 ],
					"hidden" : 0,
					"midpoints" : [  ]
				}

			}
, 			{
				"patchline" : 				{
					"source" : [ "obj-9", 0 ],
					"destination" : [ "obj-6", 0 ],
					"hidden" : 0,
					"midpoints" : [  ]
				}

			}
, 			{
				"patchline" : 				{
					"source" : [ "obj-7", 0 ],
					"destination" : [ "obj-8", 0 ],
					"hidden" : 0,
					"midpoints" : [  ]
				}

			}
, 			{
				"patchline" : 				{
					"source" : [ "obj-5", 0 ],
					"destination" : [ "obj-7", 0 ],
					"hidden" : 0,
					"midpoints" : [  ]
				}

			}
 ]
	}

}
