max v2;#N vpatcher 183 77 854 568;#P window setfont "Sans Serif" 9.;#P window linecount 1;#N vpatcher 10 59 610 459;#P window setfont "Sans Serif" 9.;#P message 268 125 62 196617 enghorn.coll;#N coll enghorn.coll;#P newobj 55 104 81 196617 coll enghorn.coll;#N coll 158piano.coll;#P newobj 55 83 85 196617 coll 158piano.coll;#P message 297 162 68 196617 158piano.coll;#N coll enghorn-in-tune.coll;#P newobj 55 124 118 196617 coll enghorn-in-tune.coll;#P message 335 125 99 196617 enghorn-in-tune.coll;#P outlet 66 180 15 0;#P connect 6 0 0 0;#P connect 3 0 0 0;#P connect 1 0 0 0;#P pop;#P newobj 502 184 85 196617 p old_collections;#P message 421 145 117 196617 MMJ_Depot_Sounds.txt;#N coll MMJ_Depot_Sounds.txt;#P newobj 421 110 136 196617 coll MMJ_Depot_Sounds.txt;#P button 307 108 47 0;#P newex 421 229 68 196617 prepend /coll;#P comment 134 28 130 196617 ... or from this "keyboard";#P window linecount 2;#P comment 12 44 100 196617 You can play notes from MIDI...;#P window linecount 3;#P comment 162 136 106 196617 Use square of midi velocity \, scaled to [0 \, 1] range \, for gain.;#P window setfont "Sans Serif" 14.;#P window linecount 1;#P newex 49 259 270 196622 poly~-multisample-player 50;#P toggle 9 346 26 0;#P window setfont "Sans Serif" 9.;#P newex 49 386 29 196617 dac~;#P user gain~ 49 294 29 60 158 8 1.071519 7.94321 10.;#P user kslider 126 48 35 1 48 48 19 7 0 128 128 128 128 128 128 255 255 255 0 0 0 0 0 0;#P window setfont "Sans Serif" 14.;#P newex 421 255 62 196622 multibuf;#P window setfont "Sans Serif" 9.;#P newex 49 147 40 196617 pack i i;#P newex 101 147 44 196617 select 0;#P newex 135 177 135 196617 expr $f1 * $f1 * 0.000062;#P window setfont "Sans Serif" 14.;#P flonum 135 222 47 14 0 0 0 3 0 0 0 221 221 221 222 222 222 0 0 0;#P window setfont "Sans Serif" 9.;#P newex 49 85 71 196617 notein;#P newex 126 92 92 196617 makenote 60 3000;#P window linecount 3;#P comment 125 333 152 196617 test poly~-multisample-player \; version 1.2 \; by Matt Wright;#P window linecount 1;#N vpatcher 50 40 415 386;#P window setfont "Sans Serif" 9.;#P comment 39 180 307 196617 IN NO EVENT SHALL REGENTS BE LIABLE TO ANY PARTY FOR DIRECT \, INDIRECT \, SPECIAL \, INCIDENTAL \, OR CONSEQUENTIAL DAMAGES \, INCLUDING LOST PROFITS \, ARISING OUT OF THE USE OF THIS SOFTWARE AND ITS DOCUMENTATION \, EVEN IF REGENTS HAS BEEN ADVISED OF THE POSSIBILITY OF SUCH DAMAGE.;#P comment 39 244 307 196617 REGENTS SPECIFICALLY DISCLAIMS ANY WARRANTIES \, INCLUDING \, BUT NOT LIMITED TO \, THE IMPLIED WARRANTIES OF MERCHANTABILITY AND FITNESS FOR A PARTICULAR PURPOSE. THE SOFTWARE AND ACCOMPANYING DOCUMENTATION \, IF ANY \, PROVIDED HEREUNDER IS PROVIDED "AS IS." REGENTS HAS NO OBLIGATION TO PROVIDE MAINTENANCE \, SUPPORT \, UPDATES \, ENHANCEMENTS \, OR MODIFICATIONS.;#P comment 6 151 340 196617 Written by Matt Wright \, The Center for New Music and Audio Technologies \, University of California \, Berkeley.;#P comment 5 26 341 196617 Copyright (c) 1998. The Regents of the University of California (Regents). All Rights Reserved.;#P comment 6 53 340 196617 Permission to use \, copy \, modify \, and distribute this software and its documentation for educational \, research \, and not-for-profit purposes \, without fee and without a signed licensing agreement \, is hereby granted \, provided that the above copyright notice \, this paragraph and the following two paragraphs appear in all copies \, modifications \, and distributions. Contact The Office of Technology Licensing \, UC Berkeley \, 2150 Shattuck Avenue \, Suite 510 \, Berkeley \, CA 94720-1620 \, (510) 643-7201 \, for commercial licensing opportunities.;#P pop;#P newobj 158 373 59 196617 p copyright;#P comment 305 93 62 196617 all notes off;#P user panel 104 317 185 83;#X brgb 255 255 255;#X frgb 0 0 255;#X border 4;#X rounded 40;#X shadow 0;#X done;#P connect 4 0 9 0;#P connect 5 0 9 0;#P connect 9 0 15 0;#P connect 15 0 12 0;#P connect 12 0 13 0;#P connect 14 0 13 0;#P connect 12 0 13 1;#P connect 5 1 9 1;#P connect 4 1 9 1;#P connect 5 1 8 0;#P connect 4 1 8 0;#P connect 11 0 4 0;#P connect 8 1 7 0;#P connect 7 0 6 0;#P connect 6 0 15 1;#P connect 11 1 4 1;#P connect 22 0 15 2;#P connect 23 0 15 2;#P connect 20 0 15 3;#P connect 23 0 19 0;#P connect 22 0 19 0;#P connect 19 0 10 0;#P pop;