max v2;#N vpatcher 292 178 769 482;#P window setfont "Sans Serif" 9.;#P window linecount 2;#P newex 27 81 77 196617 if $i2 then $i1 else out2 bang;#P window linecount 1;#P comment 200 41 55 196617 instrument;#P comment 147 41 45 196617 envelope;#P comment 105 41 27 196617 stop;#N in 4;#P newobj 203 57 25 196617 in 4;#N out~ 1;#P newobj 59 197 35 196617 out~ 1;#P newex 59 147 27 196617 t f b;#P message 183 210 52 196617 0 \, mute 1;#P message 129 210 52 196617 mute 0 \, 1;#P newex 148 237 50 196617 thispoly~;#N in 3;#P newobj 155 57 25 196617 in 3;#N in 2;#P newobj 107 57 25 196617 in 2;#N in 1;#P newobj 27 57 25 196617 in 1;#P window linecount 2;#P comment 243 126 131 196617 sampler-voice-noloop.vox \; version 1. \, by Matt Wright;#P window linecount 1;#N vpatcher 50 40 415 386;#P window setfont "Sans Serif" 9.;#P comment 39 180 307 196617 IN NO EVENT SHALL REGENTS BE LIABLE TO ANY PARTY FOR DIRECT \, INDIRECT \, SPECIAL \, INCIDENTAL \, OR CONSEQUENTIAL DAMAGES \, INCLUDING LOST PROFITS \, ARISING OUT OF THE USE OF THIS SOFTWARE AND ITS DOCUMENTATION \, EVEN IF REGENTS HAS BEEN ADVISED OF THE POSSIBILITY OF SUCH DAMAGE.;#P comment 39 244 307 196617 REGENTS SPECIFICALLY DISCLAIMS ANY WARRANTIES \, INCLUDING \, BUT NOT LIMITED TO \, THE IMPLIED WARRANTIES OF MERCHANTABILITY AND FITNESS FOR A PARTICULAR PURPOSE. THE SOFTWARE AND ACCOMPANYING DOCUMENTATION \, IF ANY \, PROVIDED HEREUNDER IS PROVIDED "AS IS." REGENTS HAS NO OBLIGATION TO PROVIDE MAINTENANCE \, SUPPORT \, UPDATES \, ENHANCEMENTS \, OR MODIFICATIONS.;#P comment 6 151 340 196617 Written by Matt Wright \, The Center for New Music and Audio Technologies \, University of California \, Berkeley.;#P comment 5 26 341 196617 Copyright (c) 1998. The Regents of the University of California (Regents). All Rights Reserved.;#P comment 6 53 340 196617 Permission to use \, copy \, modify \, and distribute this software and its documentation for educational \, research \, and not-for-profit purposes \, without fee and without a signed licensing agreement \, is hereby granted \, provided that the above copyright notice \, this paragraph and the following two paragraphs appear in all copies \, modifications \, and distributions. Contact The Office of Technology Licensing \, UC Berkeley \, 2150 Shattuck Avenue \, Suite 510 \, Berkeley \, CA 94720-1620 \, (510) 643-7201 \, for commercial licensing opportunities.;#P pop;#P newobj 282 155 59 196617 p copyright;#P newex 59 172 156 196617 mono-msp-nl;#P window linecount 2;#P comment 17 29 52 196617 pitch + "velocity";#P user panel 233 116 162 68;#X brgb 255 255 255;#X frgb 0 0 255;#X border 4;#X rounded 40;#X shadow 0;#X done;#P connect 5 0 17 0;#P connect 17 0 11 0;#P connect 11 0 2 0;#P connect 2 0 12 0;#P connect 6 0 2 1;#P connect 17 1 2 1;#P connect 11 1 9 0;#P connect 9 0 8 0;#P connect 10 0 8 0;#P connect 7 0 2 2;#P connect 2 1 10 0;#P connect 13 0 2 3;#P pop;