max v2;#N vpatcher 128 82 826 593;#P button 249 290 30 0;#P window setfont "Sans Serif" 9.;#P newex 302 248 68 196617 prepend /coll;#N vpatcher 50 40 415 386;#P window setfont "Sans Serif" 9.;#P comment 39 180 307 196617 IN NO EVENT SHALL REGENTS BE LIABLE TO ANY PARTY FOR DIRECT \, INDIRECT \, SPECIAL \, INCIDENTAL \, OR CONSEQUENTIAL DAMAGES \, INCLUDING LOST PROFITS \, ARISING OUT OF THE USE OF THIS SOFTWARE AND ITS DOCUMENTATION \, EVEN IF REGENTS HAS BEEN ADVISED OF THE POSSIBILITY OF SUCH DAMAGE.;#P comment 39 244 307 196617 REGENTS SPECIFICALLY DISCLAIMS ANY WARRANTIES \, INCLUDING \, BUT NOT LIMITED TO \, THE IMPLIED WARRANTIES OF MERCHANTABILITY AND FITNESS FOR A PARTICULAR PURPOSE. THE SOFTWARE AND ACCOMPANYING DOCUMENTATION \, IF ANY \, PROVIDED HEREUNDER IS PROVIDED "AS IS." REGENTS HAS NO OBLIGATION TO PROVIDE MAINTENANCE \, SUPPORT \, UPDATES \, ENHANCEMENTS \, OR MODIFICATIONS.;#P comment 6 151 340 196617 Written by Matt Wright \, The Center for New Music and Audio Technologies \, University of California \, Berkeley.;#P comment 5 26 341 196617 Copyright (c) 1998. The Regents of the University of California (Regents). All Rights Reserved.;#P comment 6 53 340 196617 Permission to use \, copy \, modify \, and distribute this software and its documentation for educational \, research \, and not-for-profit purposes \, without fee and without a signed licensing agreement \, is hereby granted \, provided that the above copyright notice \, this paragraph and the following two paragraphs appear in all copies \, modifications \, and distributions. Contact The Office of Technology Licensing \, UC Berkeley \, 2150 Shattuck Avenue \, Suite 510 \, Berkeley \, CA 94720-1620 \, (510) 643-7201 \, for commercial licensing opportunities.;#P pop;#P newobj 132 393 59 196617 p copyright;#P comment 119 364 143 196617 test mono-multisample-player version 1.2 \, by Matt Wright;#P newex 114 88 92 196617 makenote 60 3000;#P window setfont "Sans Serif" 14.;#P number 51 218 35 14 0 0 0 3 0 0 0 221 221 221 222 222 222 0 0 0;#P window setfont "Sans Serif" 9.;#P message 309 200 99 196617 enghorn-in-tune.coll;#N coll enghorn-in-tune.coll;#P newobj 309 357 118 196617 coll enghorn-in-tune.coll;#P message 266 220 68 196617 158piano.coll;#N coll 158piano.coll;#P newobj 309 316 85 196617 coll 158piano.coll;#P newex 42 78 40 196617 notein;#P window setfont "Sans Serif" 14.;#P flonum 145 218 47 14 0 0 0 3 0 0 0 221 221 221 222 222 222 0 0 0;#P window setfont "Sans Serif" 9.;#P newex 145 173 145 196617 expr $f1 * $f1 / (127.*127.);#P newex 51 149 49 196617 stripnote;#P newex 104 150 44 196617 select 0;#P newex 61 120 45 196617 poly 1 1;#P window setfont "Sans Serif" 14.;#P newex 304 275 62 196622 multibuf;#P window setfont "Sans Serif" 9.;#N coll enghorn.coll;#P newobj 309 337 81 196617 coll enghorn.coll;#P user kslider 119 41 35 1 48 48 19 7 0 128 128 128 128 128 128 255 255 255 0 0 0 0 0 0;#P message 242 200 62 196617 enghorn.coll;#P button 98 218 30 0;#P user gain~ 51 287 29 60 158 8 1.071519 7.94321 10.;#P newex 50 379 29 196617 dac~;#P toggle 23 341 26 0;#P window setfont "Sans Serif" 14.;#P newex 51 254 229 196622 mono-multisample-player-noloop;#P window setfont "Sans Serif" 9.;#P comment 172 132 106 196617 Use square of midi velocity \, scaled to [0 \, 1] range \, for gain.;#P comment 5 37 100 196617 You can play notes from MIDI...;#P comment 127 21 130 196617 ... or from this "keyboard";#P user panel 105 351 185 83;#X brgb 255 255 255;#X frgb 0 0 255;#X border 4;#X rounded 40;#X shadow 0;#X done;#P connect 7 0 6 0;#P connect 5 0 6 0;#P connect 13 1 15 0;#P connect 15 0 23 0;#P connect 23 0 4 0;#P connect 4 0 7 0;#P connect 24 0 13 0;#P connect 18 0 13 0;#P connect 7 0 6 1;#P connect 13 2 15 1;#P connect 24 1 13 1;#P connect 18 1 13 1;#P connect 14 0 8 0;#P connect 13 2 14 0;#P connect 10 0 24 0;#P connect 8 0 4 1;#P connect 14 1 16 0;#P connect 16 0 17 0;#P connect 10 1 24 1;#P connect 17 0 4 2;#P connect 4 1 28 0;#P connect 20 0 4 3;#P connect 9 0 4 3;#P connect 22 0 4 3;#P connect 9 0 27 0;#P connect 20 0 27 0;#P connect 22 0 27 0;#P connect 27 0 12 0;#P pop;