{
	"patcher" : 	{
		"fileversion" : 1,
		"rect" : [ 18.0, 44.0, 700.0, 683.0 ],
		"bglocked" : 0,
		"defrect" : [ 18.0, 44.0, 700.0, 683.0 ],
		"openrect" : [ 0.0, 0.0, 0.0, 0.0 ],
		"openinpresentation" : 0,
		"default_fontsize" : 12.0,
		"default_fontface" : 0,
		"default_fontname" : "Arial",
		"gridonopen" : 0,
		"gridsize" : [ 15.0, 15.0 ],
		"gridsnaponopen" : 0,
		"toolbarvisible" : 1,
		"boxanimatetime" : 200,
		"imprint" : 0,
		"boxes" : [ 			{
				"box" : 				{
					"maxclass" : "comment",
					"text" : "Press ctl/cmd-Y to \"align\" patch cords. This creates a segmented patch cord that should have a clear path.",
					"linecount" : 2,
					"fontsize" : 14.0,
					"presentation_rect" : [ 215.0, 524.0, 0.0, 0.0 ],
					"frgb" : [ 0.0, 0.0, 0.0, 1.0 ],
					"patching_rect" : [ 215.0, 532.0, 415.0, 39.0 ],
					"numinlets" : 1,
					"id" : "obj-28",
					"fontname" : "Arial",
					"numoutlets" : 0
				}

			}
, 			{
				"box" : 				{
					"maxclass" : "comment",
					"text" : "Hold down alt/opt while clicking or dragging to select patch cords.",
					"fontsize" : 14.0,
					"presentation_rect" : [ 257.0, 533.0, 0.0, 0.0 ],
					"frgb" : [ 0.0, 0.0, 0.0, 1.0 ],
					"patching_rect" : [ 213.0, 493.0, 415.0, 23.0 ],
					"numinlets" : 1,
					"id" : "obj-27",
					"fontname" : "Arial",
					"numoutlets" : 0
				}

			}
, 			{
				"box" : 				{
					"maxclass" : "comment",
					"text" : "Jitter patch cord",
					"fontsize" : 14.0,
					"presentation_rect" : [ 586.0, 103.0, 0.0, 0.0 ],
					"frgb" : [ 0.0, 0.0, 0.0, 1.0 ],
					"patching_rect" : [ 586.0, 103.0, 110.0, 23.0 ],
					"numinlets" : 1,
					"id" : "obj-26",
					"fontname" : "Arial",
					"numoutlets" : 0
				}

			}
, 			{
				"box" : 				{
					"maxclass" : "newobj",
					"text" : "jit.op",
					"outlettype" : [ "jit_matrix", "" ],
					"fontsize" : 12.0,
					"presentation_rect" : [ 548.0, 154.0, 0.0, 0.0 ],
					"patching_rect" : [ 548.0, 154.0, 36.0, 20.0 ],
					"numinlets" : 2,
					"id" : "obj-25",
					"fontname" : "Arial",
					"numoutlets" : 2
				}

			}
, 			{
				"box" : 				{
					"maxclass" : "newobj",
					"text" : "jit.op",
					"outlettype" : [ "jit_matrix", "" ],
					"fontsize" : 12.0,
					"patching_rect" : [ 547.0, 48.0, 36.0, 20.0 ],
					"numinlets" : 2,
					"id" : "obj-24",
					"fontname" : "Arial",
					"numoutlets" : 2
				}

			}
, 			{
				"box" : 				{
					"maxclass" : "comment",
					"text" : "MSP signal patch cords",
					"fontsize" : 14.0,
					"frgb" : [ 0.0, 0.0, 0.0, 1.0 ],
					"patching_rect" : [ 321.0, 70.0, 158.0, 23.0 ],
					"numinlets" : 1,
					"id" : "obj-1",
					"fontname" : "Arial",
					"numoutlets" : 0
				}

			}
, 			{
				"box" : 				{
					"maxclass" : "newobj",
					"text" : "+~",
					"outlettype" : [ "signal" ],
					"fontsize" : 14.0,
					"patching_rect" : [ 288.0, 163.0, 32.5, 23.0 ],
					"numinlets" : 2,
					"id" : "obj-2",
					"fontname" : "Arial",
					"numoutlets" : 1
				}

			}
, 			{
				"box" : 				{
					"maxclass" : "newobj",
					"text" : "+~",
					"outlettype" : [ "signal" ],
					"fontsize" : 14.0,
					"patching_rect" : [ 274.0, 40.0, 32.5, 23.0 ],
					"numinlets" : 2,
					"id" : "obj-3",
					"fontname" : "Arial",
					"numoutlets" : 1
				}

			}
, 			{
				"box" : 				{
					"maxclass" : "comment",
					"text" : "patch cords:",
					"fontsize" : 18.0,
					"frgb" : [ 0.0, 0.0, 0.0, 1.0 ],
					"patching_rect" : [ 11.0, 5.0, 114.0, 27.0 ],
					"numinlets" : 1,
					"id" : "obj-4",
					"fontname" : "Arial",
					"numoutlets" : 0
				}

			}
, 			{
				"box" : 				{
					"maxclass" : "button",
					"outlettype" : [ "bang" ],
					"patching_rect" : [ 62.0, 163.0, 20.0, 20.0 ],
					"numinlets" : 1,
					"id" : "obj-5",
					"numoutlets" : 1
				}

			}
, 			{
				"box" : 				{
					"maxclass" : "button",
					"outlettype" : [ "bang" ],
					"patching_rect" : [ 67.0, 40.0, 20.0, 20.0 ],
					"numinlets" : 1,
					"id" : "obj-6",
					"numoutlets" : 1
				}

			}
, 			{
				"box" : 				{
					"maxclass" : "comment",
					"text" : "segmented patch cords can cause problems when you try to rearrange the position of things later",
					"linecount" : 2,
					"fontsize" : 14.0,
					"frgb" : [ 0.0, 0.0, 0.0, 1.0 ],
					"patching_rect" : [ 112.0, 426.0, 362.0, 39.0 ],
					"numinlets" : 1,
					"id" : "obj-7",
					"fontname" : "Arial",
					"numoutlets" : 0
				}

			}
, 			{
				"box" : 				{
					"maxclass" : "number",
					"outlettype" : [ "int", "bang" ],
					"fontsize" : 12.0,
					"htextcolor" : [ 0.870588, 0.870588, 0.870588, 1.0 ],
					"patching_rect" : [ 152.0, 502.0, 37.0, 20.0 ],
					"numinlets" : 1,
					"id" : "obj-8",
					"fontname" : "Arial",
					"triscale" : 0.9,
					"numoutlets" : 2,
					"bgcolor" : [ 0.866667, 0.866667, 0.866667, 1.0 ]
				}

			}
, 			{
				"box" : 				{
					"maxclass" : "number",
					"outlettype" : [ "int", "bang" ],
					"fontsize" : 12.0,
					"htextcolor" : [ 0.870588, 0.870588, 0.870588, 1.0 ],
					"patching_rect" : [ 125.0, 475.0, 37.0, 20.0 ],
					"numinlets" : 1,
					"id" : "obj-9",
					"fontname" : "Arial",
					"triscale" : 0.9,
					"numoutlets" : 2,
					"bgcolor" : [ 0.866667, 0.866667, 0.866667, 1.0 ]
				}

			}
, 			{
				"box" : 				{
					"maxclass" : "comment",
					"text" : "hold down the shift key and use mouse clicks to create segmented patch cords or check segmented patch cords in the menu/Options/segmented patch cords",
					"linecount" : 3,
					"fontsize" : 14.0,
					"frgb" : [ 0.0, 0.0, 0.0, 1.0 ],
					"patching_rect" : [ 28.0, 359.0, 402.0, 55.0 ],
					"numinlets" : 1,
					"id" : "obj-10",
					"fontname" : "Arial",
					"numoutlets" : 0
				}

			}
, 			{
				"box" : 				{
					"maxclass" : "number",
					"outlettype" : [ "int", "bang" ],
					"fontsize" : 12.0,
					"htextcolor" : [ 0.870588, 0.870588, 0.870588, 1.0 ],
					"patching_rect" : [ 79.0, 611.0, 37.0, 20.0 ],
					"numinlets" : 1,
					"id" : "obj-11",
					"fontname" : "Arial",
					"triscale" : 0.9,
					"numoutlets" : 2,
					"bgcolor" : [ 0.866667, 0.866667, 0.866667, 1.0 ]
				}

			}
, 			{
				"box" : 				{
					"maxclass" : "number",
					"outlettype" : [ "int", "bang" ],
					"fontsize" : 12.0,
					"htextcolor" : [ 0.870588, 0.870588, 0.870588, 1.0 ],
					"patching_rect" : [ 38.0, 433.0, 37.0, 20.0 ],
					"numinlets" : 1,
					"id" : "obj-12",
					"fontname" : "Arial",
					"triscale" : 0.9,
					"numoutlets" : 2,
					"bgcolor" : [ 0.866667, 0.866667, 0.866667, 1.0 ]
				}

			}
, 			{
				"box" : 				{
					"maxclass" : "number",
					"outlettype" : [ "int", "bang" ],
					"fontsize" : 12.0,
					"htextcolor" : [ 0.870588, 0.870588, 0.870588, 1.0 ],
					"patching_rect" : [ 456.0, 378.0, 37.0, 20.0 ],
					"numinlets" : 1,
					"id" : "obj-13",
					"fontname" : "Arial",
					"triscale" : 0.9,
					"numoutlets" : 2,
					"bgcolor" : [ 0.866667, 0.866667, 0.866667, 1.0 ]
				}

			}
, 			{
				"box" : 				{
					"maxclass" : "number",
					"outlettype" : [ "int", "bang" ],
					"fontsize" : 12.0,
					"htextcolor" : [ 0.870588, 0.870588, 0.870588, 1.0 ],
					"patching_rect" : [ 589.0, 285.0, 37.0, 20.0 ],
					"numinlets" : 1,
					"id" : "obj-14",
					"fontname" : "Arial",
					"triscale" : 0.9,
					"numoutlets" : 2,
					"bgcolor" : [ 0.866667, 0.866667, 0.866667, 1.0 ]
				}

			}
, 			{
				"box" : 				{
					"maxclass" : "number",
					"outlettype" : [ "int", "bang" ],
					"fontsize" : 12.0,
					"htextcolor" : [ 0.870588, 0.870588, 0.870588, 1.0 ],
					"patching_rect" : [ 572.0, 257.0, 37.0, 20.0 ],
					"numinlets" : 1,
					"id" : "obj-15",
					"fontname" : "Arial",
					"triscale" : 0.9,
					"numoutlets" : 2,
					"bgcolor" : [ 0.866667, 0.866667, 0.866667, 1.0 ]
				}

			}
, 			{
				"box" : 				{
					"maxclass" : "number",
					"outlettype" : [ "int", "bang" ],
					"fontsize" : 12.0,
					"htextcolor" : [ 0.870588, 0.870588, 0.870588, 1.0 ],
					"patching_rect" : [ 607.0, 315.0, 37.0, 20.0 ],
					"numinlets" : 1,
					"id" : "obj-16",
					"fontname" : "Arial",
					"triscale" : 0.9,
					"numoutlets" : 2,
					"bgcolor" : [ 0.866667, 0.866667, 0.866667, 1.0 ]
				}

			}
, 			{
				"box" : 				{
					"maxclass" : "number",
					"outlettype" : [ "int", "bang" ],
					"fontsize" : 12.0,
					"htextcolor" : [ 0.870588, 0.870588, 0.870588, 1.0 ],
					"patching_rect" : [ 581.0, 337.0, 37.0, 20.0 ],
					"numinlets" : 1,
					"id" : "obj-17",
					"fontname" : "Arial",
					"triscale" : 0.9,
					"numoutlets" : 2,
					"bgcolor" : [ 0.866667, 0.866667, 0.866667, 1.0 ]
				}

			}
, 			{
				"box" : 				{
					"maxclass" : "number",
					"outlettype" : [ "int", "bang" ],
					"fontsize" : 12.0,
					"htextcolor" : [ 0.870588, 0.870588, 0.870588, 1.0 ],
					"patching_rect" : [ 559.0, 355.0, 37.0, 20.0 ],
					"numinlets" : 1,
					"id" : "obj-18",
					"fontname" : "Arial",
					"triscale" : 0.9,
					"numoutlets" : 2,
					"bgcolor" : [ 0.866667, 0.866667, 0.866667, 1.0 ]
				}

			}
, 			{
				"box" : 				{
					"maxclass" : "number",
					"outlettype" : [ "int", "bang" ],
					"fontsize" : 12.0,
					"htextcolor" : [ 0.870588, 0.870588, 0.870588, 1.0 ],
					"patching_rect" : [ 536.0, 374.0, 37.0, 20.0 ],
					"numinlets" : 1,
					"id" : "obj-19",
					"fontname" : "Arial",
					"triscale" : 0.9,
					"numoutlets" : 2,
					"bgcolor" : [ 0.866667, 0.866667, 0.866667, 1.0 ]
				}

			}
, 			{
				"box" : 				{
					"maxclass" : "number",
					"outlettype" : [ "int", "bang" ],
					"fontsize" : 12.0,
					"htextcolor" : [ 0.870588, 0.870588, 0.870588, 1.0 ],
					"patching_rect" : [ 497.0, 362.0, 37.0, 20.0 ],
					"numinlets" : 1,
					"id" : "obj-20",
					"fontname" : "Arial",
					"triscale" : 0.9,
					"numoutlets" : 2,
					"bgcolor" : [ 0.866667, 0.866667, 0.866667, 1.0 ]
				}

			}
, 			{
				"box" : 				{
					"maxclass" : "number",
					"outlettype" : [ "int", "bang" ],
					"fontsize" : 12.0,
					"htextcolor" : [ 0.870588, 0.870588, 0.870588, 1.0 ],
					"patching_rect" : [ 430.0, 248.0, 37.0, 20.0 ],
					"numinlets" : 1,
					"id" : "obj-21",
					"fontname" : "Arial",
					"triscale" : 0.9,
					"numoutlets" : 2,
					"bgcolor" : [ 0.866667, 0.866667, 0.866667, 1.0 ]
				}

			}
, 			{
				"box" : 				{
					"maxclass" : "comment",
					"text" : "when a patch cord is connected with a single stroke, then in programming mode, the two objects can be rotated in any way in the patcher window, and stay connected in a clear, flexible way.",
					"linecount" : 4,
					"fontsize" : 14.0,
					"frgb" : [ 0.0, 0.0, 0.0, 1.0 ],
					"patching_rect" : [ 39.0, 246.0, 370.0, 71.0 ],
					"numinlets" : 1,
					"id" : "obj-22",
					"fontname" : "Arial",
					"numoutlets" : 0
				}

			}
, 			{
				"box" : 				{
					"maxclass" : "comment",
					"text" : "max event patch cords",
					"fontsize" : 14.0,
					"frgb" : [ 0.0, 0.0, 0.0, 1.0 ],
					"patching_rect" : [ 94.0, 40.0, 169.0, 23.0 ],
					"numinlets" : 1,
					"id" : "obj-23",
					"fontname" : "Arial",
					"numoutlets" : 0
				}

			}
 ],
		"lines" : [ 			{
				"patchline" : 				{
					"source" : [ "obj-24", 0 ],
					"destination" : [ "obj-25", 0 ],
					"hidden" : 0,
					"midpoints" : [ 619.0, 93.0, 518.0, 103.0, 606.0, 130.0 ]
				}

			}
, 			{
				"patchline" : 				{
					"source" : [ "obj-21", 0 ],
					"destination" : [ "obj-16", 0 ],
					"hidden" : 0,
					"midpoints" : [  ]
				}

			}
, 			{
				"patchline" : 				{
					"source" : [ "obj-21", 0 ],
					"destination" : [ "obj-14", 0 ],
					"hidden" : 0,
					"midpoints" : [  ]
				}

			}
, 			{
				"patchline" : 				{
					"source" : [ "obj-21", 0 ],
					"destination" : [ "obj-17", 0 ],
					"hidden" : 0,
					"midpoints" : [  ]
				}

			}
, 			{
				"patchline" : 				{
					"source" : [ "obj-21", 0 ],
					"destination" : [ "obj-15", 0 ],
					"hidden" : 0,
					"midpoints" : [  ]
				}

			}
, 			{
				"patchline" : 				{
					"source" : [ "obj-21", 0 ],
					"destination" : [ "obj-18", 0 ],
					"hidden" : 0,
					"midpoints" : [  ]
				}

			}
, 			{
				"patchline" : 				{
					"source" : [ "obj-21", 0 ],
					"destination" : [ "obj-19", 0 ],
					"hidden" : 0,
					"midpoints" : [  ]
				}

			}
, 			{
				"patchline" : 				{
					"source" : [ "obj-21", 0 ],
					"destination" : [ "obj-20", 0 ],
					"hidden" : 0,
					"midpoints" : [  ]
				}

			}
, 			{
				"patchline" : 				{
					"source" : [ "obj-21", 0 ],
					"destination" : [ "obj-13", 0 ],
					"hidden" : 0,
					"midpoints" : [  ]
				}

			}
, 			{
				"patchline" : 				{
					"source" : [ "obj-3", 0 ],
					"destination" : [ "obj-2", 0 ],
					"hidden" : 0,
					"midpoints" : [ 283.5, 85.0, 312.0, 85.0, 335.0, 112.0, 326.0, 130.0 ]
				}

			}
, 			{
				"patchline" : 				{
					"source" : [ "obj-9", 0 ],
					"destination" : [ "obj-8", 0 ],
					"hidden" : 0,
					"midpoints" : [ 134.5, 525.0, 173.0, 525.0, 173.0, 563.0, 117.0, 563.0, 145.0, 607.0, 192.0, 607.0, 192.0, 636.0, 161.5, 636.0 ]
				}

			}
, 			{
				"patchline" : 				{
					"source" : [ "obj-12", 0 ],
					"destination" : [ "obj-11", 0 ],
					"hidden" : 0,
					"midpoints" : [ 47.5, 483.0, 86.0, 483.0, 86.0, 521.0, 30.0, 521.0, 58.0, 565.0, 105.0, 565.0, 105.0, 594.0, 88.5, 594.0 ]
				}

			}
, 			{
				"patchline" : 				{
					"source" : [ "obj-6", 0 ],
					"destination" : [ "obj-5", 0 ],
					"hidden" : 0,
					"midpoints" : [ 76.5, 73.0, 25.0, 73.0, 65.0, 118.0, 102.0, 98.0 ]
				}

			}
 ]
	}

}
