{
	"patcher" : 	{
		"fileversion" : 1,
		"rect" : [ 45.0, 57.0, 644.0, 550.0 ],
		"bglocked" : 0,
		"defrect" : [ 45.0, 57.0, 644.0, 550.0 ],
		"openrect" : [ 0.0, 0.0, 0.0, 0.0 ],
		"openinpresentation" : 0,
		"default_fontsize" : 12.0,
		"default_fontface" : 0,
		"default_fontname" : "Arial",
		"gridonopen" : 0,
		"gridsize" : [ 15.0, 15.0 ],
		"gridsnaponopen" : 0,
		"toolbarvisible" : 1,
		"boxanimatetime" : 200,
		"imprint" : 0,
		"boxes" : [ 			{
				"box" : 				{
					"maxclass" : "comment",
					"text" : "notice the direction flip",
					"fontsize" : 18.0,
					"frgb" : [ 0.0, 0.0, 0.0, 1.0 ],
					"numinlets" : 1,
					"numoutlets" : 0,
					"fontname" : "Arial",
					"patching_rect" : [ 92.0, 393.0, 332.0, 27.0 ],
					"id" : "obj-1"
				}

			}
, 			{
				"box" : 				{
					"maxclass" : "number",
					"htextcolor" : [ 0.870588, 0.870588, 0.870588, 1.0 ],
					"fontsize" : 18.0,
					"triscale" : 0.9,
					"bgcolor" : [ 0.866667, 0.866667, 0.866667, 1.0 ],
					"numinlets" : 1,
					"numoutlets" : 2,
					"fontname" : "Arial",
					"outlettype" : [ "int", "bang" ],
					"patching_rect" : [ 32.0, 300.0, 58.0, 27.0 ],
					"id" : "obj-2"
				}

			}
, 			{
				"box" : 				{
					"maxclass" : "flonum",
					"htextcolor" : [ 0.870588, 0.870588, 0.870588, 1.0 ],
					"fontsize" : 18.0,
					"triscale" : 0.9,
					"bgcolor" : [ 0.866667, 0.866667, 0.866667, 1.0 ],
					"numinlets" : 1,
					"numoutlets" : 2,
					"fontname" : "Arial",
					"outlettype" : [ "float", "bang" ],
					"patching_rect" : [ 32.0, 392.0, 58.0, 27.0 ],
					"id" : "obj-3"
				}

			}
, 			{
				"box" : 				{
					"maxclass" : "comment",
					"text" : "change one range into another range",
					"fontsize" : 18.0,
					"frgb" : [ 0.0, 0.0, 0.0, 1.0 ],
					"numinlets" : 1,
					"numoutlets" : 0,
					"fontname" : "Arial",
					"patching_rect" : [ 196.0, 338.0, 332.0, 27.0 ],
					"id" : "obj-4"
				}

			}
, 			{
				"box" : 				{
					"maxclass" : "newobj",
					"text" : "scale 0 127 1. 0.",
					"fontsize" : 18.0,
					"numinlets" : 6,
					"numoutlets" : 1,
					"fontname" : "Arial",
					"outlettype" : [ "float" ],
					"patching_rect" : [ 32.0, 337.0, 161.0, 27.0 ],
					"id" : "obj-5"
				}

			}
, 			{
				"box" : 				{
					"maxclass" : "comment",
					"text" : "Get inputs in the given range out a separate outlet",
					"linecount" : 2,
					"fontsize" : 18.0,
					"frgb" : [ 0.0, 0.0, 0.0, 1.0 ],
					"numinlets" : 1,
					"numoutlets" : 0,
					"fontname" : "Arial",
					"patching_rect" : [ 144.0, 197.0, 254.0, 48.0 ],
					"id" : "obj-6"
				}

			}
, 			{
				"box" : 				{
					"maxclass" : "number",
					"htextcolor" : [ 0.870588, 0.870588, 0.870588, 1.0 ],
					"fontsize" : 18.0,
					"triscale" : 0.9,
					"bgcolor" : [ 0.866667, 0.866667, 0.866667, 1.0 ],
					"numinlets" : 1,
					"numoutlets" : 2,
					"fontname" : "Arial",
					"outlettype" : [ "int", "bang" ],
					"patching_rect" : [ 128.0, 252.0, 63.0, 27.0 ],
					"id" : "obj-7"
				}

			}
, 			{
				"box" : 				{
					"maxclass" : "number",
					"htextcolor" : [ 0.870588, 0.870588, 0.870588, 1.0 ],
					"fontsize" : 18.0,
					"triscale" : 0.9,
					"bgcolor" : [ 0.866667, 0.866667, 0.866667, 1.0 ],
					"numinlets" : 1,
					"numoutlets" : 2,
					"fontname" : "Arial",
					"outlettype" : [ "int", "bang" ],
					"patching_rect" : [ 33.0, 179.0, 63.0, 27.0 ],
					"id" : "obj-8"
				}

			}
, 			{
				"box" : 				{
					"maxclass" : "number",
					"htextcolor" : [ 0.870588, 0.870588, 0.870588, 1.0 ],
					"fontsize" : 18.0,
					"triscale" : 0.9,
					"bgcolor" : [ 0.866667, 0.866667, 0.866667, 1.0 ],
					"numinlets" : 1,
					"numoutlets" : 2,
					"fontname" : "Arial",
					"outlettype" : [ "int", "bang" ],
					"patching_rect" : [ 33.0, 253.0, 63.0, 27.0 ],
					"id" : "obj-9"
				}

			}
, 			{
				"box" : 				{
					"maxclass" : "newobj",
					"text" : "split 10 30",
					"fontsize" : 18.0,
					"numinlets" : 3,
					"numoutlets" : 2,
					"fontname" : "Arial",
					"outlettype" : [ "int", "int" ],
					"patching_rect" : [ 33.0, 213.0, 105.0, 27.0 ],
					"id" : "obj-10"
				}

			}
, 			{
				"box" : 				{
					"maxclass" : "number",
					"htextcolor" : [ 0.870588, 0.870588, 0.870588, 1.0 ],
					"fontsize" : 18.0,
					"triscale" : 0.9,
					"bgcolor" : [ 0.866667, 0.866667, 0.866667, 1.0 ],
					"numinlets" : 1,
					"numoutlets" : 2,
					"fontname" : "Arial",
					"outlettype" : [ "int", "bang" ],
					"patching_rect" : [ 34.0, 38.0, 63.0, 27.0 ],
					"id" : "obj-11"
				}

			}
, 			{
				"box" : 				{
					"maxclass" : "number",
					"htextcolor" : [ 0.870588, 0.870588, 0.870588, 1.0 ],
					"fontsize" : 18.0,
					"triscale" : 0.9,
					"bgcolor" : [ 0.866667, 0.866667, 0.866667, 1.0 ],
					"numinlets" : 1,
					"numoutlets" : 2,
					"fontname" : "Arial",
					"outlettype" : [ "int", "bang" ],
					"patching_rect" : [ 34.0, 112.0, 63.0, 27.0 ],
					"id" : "obj-12"
				}

			}
, 			{
				"box" : 				{
					"maxclass" : "comment",
					"text" : "Keep output in the given range",
					"fontsize" : 18.0,
					"frgb" : [ 0.0, 0.0, 0.0, 1.0 ],
					"numinlets" : 1,
					"numoutlets" : 0,
					"fontname" : "Arial",
					"patching_rect" : [ 142.0, 73.0, 283.0, 27.0 ],
					"id" : "obj-13"
				}

			}
, 			{
				"box" : 				{
					"maxclass" : "newobj",
					"text" : "clip 10 30",
					"fontsize" : 18.0,
					"numinlets" : 3,
					"numoutlets" : 1,
					"fontname" : "Arial",
					"outlettype" : [ "" ],
					"patching_rect" : [ 34.0, 72.0, 97.0, 27.0 ],
					"id" : "obj-14"
				}

			}
 ],
		"lines" : [ 			{
				"patchline" : 				{
					"source" : [ "obj-10", 1 ],
					"destination" : [ "obj-7", 0 ],
					"hidden" : 0,
					"midpoints" : [  ]
				}

			}
, 			{
				"patchline" : 				{
					"source" : [ "obj-14", 0 ],
					"destination" : [ "obj-12", 0 ],
					"hidden" : 0,
					"midpoints" : [  ]
				}

			}
, 			{
				"patchline" : 				{
					"source" : [ "obj-11", 0 ],
					"destination" : [ "obj-14", 0 ],
					"hidden" : 0,
					"midpoints" : [  ]
				}

			}
, 			{
				"patchline" : 				{
					"source" : [ "obj-10", 0 ],
					"destination" : [ "obj-9", 0 ],
					"hidden" : 0,
					"midpoints" : [  ]
				}

			}
, 			{
				"patchline" : 				{
					"source" : [ "obj-8", 0 ],
					"destination" : [ "obj-10", 0 ],
					"hidden" : 0,
					"midpoints" : [  ]
				}

			}
, 			{
				"patchline" : 				{
					"source" : [ "obj-5", 0 ],
					"destination" : [ "obj-3", 0 ],
					"hidden" : 0,
					"midpoints" : [  ]
				}

			}
, 			{
				"patchline" : 				{
					"source" : [ "obj-2", 0 ],
					"destination" : [ "obj-5", 0 ],
					"hidden" : 0,
					"midpoints" : [  ]
				}

			}
 ]
	}

}
