{
	"patcher" : 	{
		"fileversion" : 1,
		"rect" : [ 72.0, 44.0, 1233.0, 832.0 ],
		"bgcolor" : [ 0.870588, 0.929412, 1.0, 1.0 ],
		"bglocked" : 0,
		"defrect" : [ 72.0, 44.0, 1233.0, 832.0 ],
		"openrect" : [ 0.0, 0.0, 0.0, 0.0 ],
		"openinpresentation" : 0,
		"default_fontsize" : 12.0,
		"default_fontface" : 0,
		"default_fontname" : "Arial",
		"gridonopen" : 0,
		"gridsize" : [ 15.0, 15.0 ],
		"gridsnaponopen" : 0,
		"toolbarvisible" : 1,
		"boxanimatetime" : 200,
		"imprint" : 0,
		"boxes" : [ 			{
				"box" : 				{
					"maxclass" : "bpatcher",
					"id" : "obj-1",
					"args" : [ "routing_data_types", "0.3a", "Michael Zbyszynski", "routing_data_types", 4187 ],
					"patching_rect" : [ 787.0, 683.0, 292.0, 86.0 ],
					"numinlets" : 0,
					"name" : "badge.maxpat",
					"numoutlets" : 0
				}

			}
, 			{
				"box" : 				{
					"maxclass" : "message",
					"text" : "dogs",
					"id" : "obj-2",
					"fontname" : "Arial",
					"outlettype" : [ "" ],
					"fontsize" : 12.0,
					"patching_rect" : [ 774.0, 489.0, 62.0, 18.0 ],
					"numinlets" : 2,
					"numoutlets" : 1
				}

			}
, 			{
				"box" : 				{
					"maxclass" : "message",
					"text" : "cats",
					"id" : "obj-4",
					"fontname" : "Arial",
					"outlettype" : [ "" ],
					"fontsize" : 9.0,
					"patching_rect" : [ 695.0, 310.0, 29.0, 15.0 ],
					"numinlets" : 2,
					"numoutlets" : 1
				}

			}
, 			{
				"box" : 				{
					"maxclass" : "message",
					"text" : "dogs",
					"id" : "obj-5",
					"fontname" : "Arial",
					"outlettype" : [ "" ],
					"fontsize" : 9.0,
					"patching_rect" : [ 658.0, 307.0, 30.0, 15.0 ],
					"numinlets" : 2,
					"numoutlets" : 1
				}

			}
, 			{
				"box" : 				{
					"maxclass" : "newobj",
					"text" : "sel 8 64",
					"id" : "obj-6",
					"fontname" : "Arial",
					"outlettype" : [ "bang", "bang", "" ],
					"fontsize" : 9.0,
					"patching_rect" : [ 658.0, 283.0, 47.0, 17.0 ],
					"numinlets" : 1,
					"numoutlets" : 3
				}

			}
, 			{
				"box" : 				{
					"maxclass" : "number",
					"id" : "obj-7",
					"fontname" : "Arial",
					"outlettype" : [ "int", "bang" ],
					"triscale" : 0.9,
					"fontsize" : 9.0,
					"htextcolor" : [ 0.870588, 0.870588, 0.870588, 1.0 ],
					"patching_rect" : [ 104.0, 209.0, 35.0, 17.0 ],
					"numinlets" : 1,
					"bgcolor" : [ 0.866667, 0.866667, 0.866667, 1.0 ],
					"numoutlets" : 2
				}

			}
, 			{
				"box" : 				{
					"maxclass" : "number",
					"id" : "obj-8",
					"fontname" : "Arial",
					"outlettype" : [ "int", "bang" ],
					"triscale" : 0.9,
					"fontsize" : 12.0,
					"htextcolor" : [ 0.870588, 0.870588, 0.870588, 1.0 ],
					"patching_rect" : [ 1016.0, 634.0, 41.0, 20.0 ],
					"numinlets" : 1,
					"bgcolor" : [ 0.866667, 0.866667, 0.866667, 1.0 ],
					"numoutlets" : 2
				}

			}
, 			{
				"box" : 				{
					"maxclass" : "toggle",
					"id" : "obj-9",
					"outlettype" : [ "int" ],
					"patching_rect" : [ 54.0, 79.0, 15.0, 15.0 ],
					"numinlets" : 1,
					"numoutlets" : 1
				}

			}
, 			{
				"box" : 				{
					"maxclass" : "newobj",
					"text" : "metro 750",
					"id" : "obj-10",
					"fontname" : "Arial",
					"outlettype" : [ "bang" ],
					"fontsize" : 9.0,
					"patching_rect" : [ 33.0, 110.0, 58.0, 17.0 ],
					"numinlets" : 2,
					"numoutlets" : 1
				}

			}
, 			{
				"box" : 				{
					"maxclass" : "newobj",
					"text" : "counter 0 127",
					"id" : "obj-11",
					"fontname" : "Arial",
					"outlettype" : [ "int", "", "", "int" ],
					"fontsize" : 9.0,
					"patching_rect" : [ 33.0, 171.0, 74.0, 17.0 ],
					"numinlets" : 5,
					"numoutlets" : 4
				}

			}
, 			{
				"box" : 				{
					"maxclass" : "newobj",
					"text" : "OSC-route /OSC",
					"id" : "obj-12",
					"fontname" : "Arial",
					"outlettype" : [ "", "" ],
					"fontsize" : 12.0,
					"patching_rect" : [ 1016.0, 601.0, 110.0, 20.0 ],
					"numinlets" : 1,
					"numoutlets" : 2
				}

			}
, 			{
				"box" : 				{
					"maxclass" : "newobj",
					"text" : "OpenSoundControl",
					"id" : "obj-13",
					"fontname" : "Arial",
					"outlettype" : [ "", "", "OSCTimeTag" ],
					"fontsize" : 12.0,
					"patching_rect" : [ 967.0, 562.0, 117.0, 20.0 ],
					"numinlets" : 1,
					"numoutlets" : 3
				}

			}
, 			{
				"box" : 				{
					"maxclass" : "newobj",
					"text" : "prepend FullPacket",
					"id" : "obj-14",
					"fontname" : "Arial",
					"outlettype" : [ "" ],
					"fontsize" : 12.0,
					"patching_rect" : [ 967.0, 538.0, 123.0, 20.0 ],
					"numinlets" : 1,
					"numoutlets" : 1
				}

			}
, 			{
				"box" : 				{
					"maxclass" : "newobj",
					"text" : "OpenSoundControl",
					"id" : "obj-15",
					"fontname" : "Arial",
					"outlettype" : [ "", "", "OSCTimeTag" ],
					"fontsize" : 9.0,
					"patching_rect" : [ 22.0, 247.0, 90.0, 17.0 ],
					"numinlets" : 1,
					"numoutlets" : 3
				}

			}
, 			{
				"box" : 				{
					"maxclass" : "message",
					"text" : "/OSC $1, bang",
					"id" : "obj-16",
					"fontname" : "Arial",
					"outlettype" : [ "" ],
					"fontsize" : 9.0,
					"patching_rect" : [ 27.0, 208.0, 76.0, 15.0 ],
					"numinlets" : 2,
					"numoutlets" : 1
				}

			}
, 			{
				"box" : 				{
					"maxclass" : "multislider",
					"id" : "obj-17",
					"outlettype" : [ "", "" ],
					"candicane3" : [ 0.290196, 0.411765, 0.713726, 1.0 ],
					"candicane8" : [ 0.027451, 0.447059, 0.501961, 1.0 ],
					"settype" : 0,
					"setminmax" : [ 0.0, 20.0 ],
					"peakcolor" : [ 0.498039, 0.498039, 0.498039, 1.0 ],
					"candicane6" : [ 0.733333, 0.035294, 0.788235, 1.0 ],
					"patching_rect" : [ 764.0, 583.0, 170.0, 87.0 ],
					"setstyle" : 1,
					"spacing" : 3,
					"candicane4" : [ 0.439216, 0.619608, 0.070588, 1.0 ],
					"numinlets" : 1,
					"candicane2" : [ 0.145098, 0.203922, 0.356863, 1.0 ],
					"candicane7" : [ 0.878431, 0.243137, 0.145098, 1.0 ],
					"numoutlets" : 2,
					"size" : 5,
					"slidercolor" : [ 0.4, 0.4, 0.8, 1.0 ],
					"candicane5" : [ 0.584314, 0.827451, 0.431373, 1.0 ]
				}

			}
, 			{
				"box" : 				{
					"maxclass" : "toggle",
					"id" : "obj-18",
					"outlettype" : [ "int" ],
					"patching_rect" : [ 931.0, 151.0, 15.0, 15.0 ],
					"numinlets" : 1,
					"numoutlets" : 1
				}

			}
, 			{
				"box" : 				{
					"maxclass" : "newobj",
					"text" : "metro 250",
					"id" : "obj-19",
					"fontname" : "Arial",
					"outlettype" : [ "bang" ],
					"fontsize" : 9.0,
					"patching_rect" : [ 931.0, 182.0, 58.0, 17.0 ],
					"numinlets" : 2,
					"numoutlets" : 1
				}

			}
, 			{
				"box" : 				{
					"maxclass" : "newobj",
					"text" : "counter 1 20",
					"id" : "obj-20",
					"fontname" : "Arial",
					"outlettype" : [ "int", "", "", "int" ],
					"fontsize" : 9.0,
					"patching_rect" : [ 931.0, 209.0, 68.0, 17.0 ],
					"numinlets" : 5,
					"numoutlets" : 4
				}

			}
, 			{
				"box" : 				{
					"maxclass" : "newobj",
					"text" : "list-of-last-n 5",
					"id" : "obj-21",
					"fontname" : "Arial",
					"outlettype" : [ "" ],
					"fontsize" : 9.0,
					"patching_rect" : [ 931.0, 235.0, 80.0, 17.0 ],
					"numinlets" : 2,
					"numoutlets" : 1
				}

			}
, 			{
				"box" : 				{
					"maxclass" : "newobj",
					"text" : "wacom",
					"id" : "obj-22",
					"fontname" : "Arial",
					"outlettype" : [ "list", "int", "list", "int", "int", "int", "int", "int", "list", "list" ],
					"fontsize" : 9.0,
					"patching_rect" : [ 738.0, 687.0, 140.5, 17.0 ],
					"numinlets" : 1,
					"numoutlets" : 10,
					"color" : [ 1.0, 0.890196, 0.090196, 1.0 ]
				}

			}
, 			{
				"box" : 				{
					"maxclass" : "message",
					"text" : "startwindow",
					"id" : "obj-23",
					"fontname" : "Arial",
					"outlettype" : [ "" ],
					"fontsize" : 9.0,
					"patching_rect" : [ 391.0, 39.0, 67.0, 15.0 ],
					"numinlets" : 2,
					"numoutlets" : 1
				}

			}
, 			{
				"box" : 				{
					"maxclass" : "newobj",
					"text" : "t b b",
					"id" : "obj-24",
					"fontname" : "Arial",
					"outlettype" : [ "bang", "bang" ],
					"fontsize" : 9.0,
					"patching_rect" : [ 238.0, 50.0, 73.0, 17.0 ],
					"numinlets" : 1,
					"numoutlets" : 2
				}

			}
, 			{
				"box" : 				{
					"maxclass" : "newobj",
					"text" : "loadbang",
					"id" : "obj-25",
					"fontname" : "Arial",
					"outlettype" : [ "bang" ],
					"fontsize" : 9.0,
					"patching_rect" : [ 238.0, 21.0, 73.0, 17.0 ],
					"numinlets" : 1,
					"numoutlets" : 1
				}

			}
, 			{
				"box" : 				{
					"maxclass" : "toggle",
					"id" : "obj-26",
					"outlettype" : [ "int" ],
					"patching_rect" : [ 238.0, 72.0, 15.0, 15.0 ],
					"numinlets" : 1,
					"numoutlets" : 1
				}

			}
, 			{
				"box" : 				{
					"maxclass" : "button",
					"id" : "obj-27",
					"outlettype" : [ "bang" ],
					"patching_rect" : [ 280.0, 279.0, 15.0, 15.0 ],
					"numinlets" : 1,
					"numoutlets" : 1
				}

			}
, 			{
				"box" : 				{
					"maxclass" : "scope~",
					"id" : "obj-28",
					"fgcolor" : [ 0.047059, 0.913725, 0.913725, 1.0 ],
					"rounded" : 0,
					"patching_rect" : [ 227.0, 550.0, 130.0, 130.0 ],
					"numinlets" : 2,
					"bgcolor" : [ 0.529412, 0.529412, 0.529412, 1.0 ],
					"numoutlets" : 0
				}

			}
, 			{
				"box" : 				{
					"maxclass" : "flonum",
					"id" : "obj-29",
					"fontname" : "Arial",
					"outlettype" : [ "float", "bang" ],
					"triscale" : 0.9,
					"fontsize" : 12.0,
					"htextcolor" : [ 0.870588, 0.870588, 0.870588, 1.0 ],
					"patching_rect" : [ 499.0, 503.0, 42.0, 20.0 ],
					"numinlets" : 1,
					"bgcolor" : [ 0.866667, 0.866667, 0.866667, 1.0 ],
					"numoutlets" : 2
				}

			}
, 			{
				"box" : 				{
					"maxclass" : "flonum",
					"id" : "obj-30",
					"fontname" : "Arial",
					"outlettype" : [ "float", "bang" ],
					"triscale" : 0.9,
					"fontsize" : 9.0,
					"htextcolor" : [ 0.870588, 0.870588, 0.870588, 1.0 ],
					"patching_rect" : [ 787.0, 291.0, 35.0, 17.0 ],
					"numinlets" : 1,
					"bgcolor" : [ 0.866667, 0.866667, 0.866667, 1.0 ],
					"numoutlets" : 2
				}

			}
, 			{
				"box" : 				{
					"maxclass" : "newobj",
					"text" : "/ 100.",
					"id" : "obj-31",
					"fontname" : "Arial",
					"outlettype" : [ "float" ],
					"fontsize" : 9.0,
					"patching_rect" : [ 786.0, 256.0, 40.0, 17.0 ],
					"numinlets" : 2,
					"numoutlets" : 1
				}

			}
, 			{
				"box" : 				{
					"maxclass" : "toggle",
					"id" : "obj-32",
					"outlettype" : [ "int" ],
					"patching_rect" : [ 812.0, 134.0, 15.0, 15.0 ],
					"numinlets" : 1,
					"numoutlets" : 1
				}

			}
, 			{
				"box" : 				{
					"maxclass" : "newobj",
					"text" : "metro 13",
					"id" : "obj-33",
					"fontname" : "Arial",
					"outlettype" : [ "bang" ],
					"fontsize" : 9.0,
					"patching_rect" : [ 791.0, 165.0, 52.0, 17.0 ],
					"numinlets" : 2,
					"numoutlets" : 1
				}

			}
, 			{
				"box" : 				{
					"maxclass" : "newobj",
					"text" : "counter 0 100.",
					"id" : "obj-34",
					"fontname" : "Arial",
					"outlettype" : [ "int", "", "", "int" ],
					"fontsize" : 9.0,
					"patching_rect" : [ 791.0, 226.0, 77.0, 17.0 ],
					"numinlets" : 5,
					"numoutlets" : 4
				}

			}
, 			{
				"box" : 				{
					"maxclass" : "multislider",
					"id" : "obj-35",
					"outlettype" : [ "", "" ],
					"candicane3" : [ 0.290196, 0.411765, 0.713726, 1.0 ],
					"candicane8" : [ 0.027451, 0.447059, 0.501961, 1.0 ],
					"setminmax" : [ 0.0, 1.0 ],
					"peakcolor" : [ 0.498039, 0.498039, 0.498039, 1.0 ],
					"candicane6" : [ 0.733333, 0.035294, 0.788235, 1.0 ],
					"patching_rect" : [ 564.0, 586.0, 170.0, 87.0 ],
					"setstyle" : 3,
					"candicane4" : [ 0.439216, 0.619608, 0.070588, 1.0 ],
					"numinlets" : 1,
					"candicane2" : [ 0.145098, 0.203922, 0.356863, 1.0 ],
					"candicane7" : [ 0.878431, 0.243137, 0.145098, 1.0 ],
					"numoutlets" : 2,
					"slidercolor" : [ 0.4, 0.4, 0.8, 1.0 ],
					"candicane5" : [ 0.584314, 0.827451, 0.431373, 1.0 ]
				}

			}
, 			{
				"box" : 				{
					"maxclass" : "number",
					"id" : "obj-36",
					"fontname" : "Arial",
					"outlettype" : [ "int", "bang" ],
					"triscale" : 0.9,
					"fontsize" : 12.0,
					"htextcolor" : [ 0.870588, 0.870588, 0.870588, 1.0 ],
					"patching_rect" : [ 389.0, 504.0, 39.0, 20.0 ],
					"numinlets" : 1,
					"bgcolor" : [ 0.866667, 0.866667, 0.866667, 1.0 ],
					"numoutlets" : 2
				}

			}
, 			{
				"box" : 				{
					"maxclass" : "number",
					"id" : "obj-37",
					"fontname" : "Arial",
					"outlettype" : [ "int", "bang" ],
					"triscale" : 0.9,
					"fontsize" : 9.0,
					"htextcolor" : [ 0.870588, 0.870588, 0.870588, 1.0 ],
					"patching_rect" : [ 661.0, 254.0, 35.0, 17.0 ],
					"numinlets" : 1,
					"bgcolor" : [ 0.866667, 0.866667, 0.866667, 1.0 ],
					"numoutlets" : 2
				}

			}
, 			{
				"box" : 				{
					"maxclass" : "toggle",
					"id" : "obj-38",
					"outlettype" : [ "int" ],
					"patching_rect" : [ 685.0, 136.0, 15.0, 15.0 ],
					"numinlets" : 1,
					"numoutlets" : 1
				}

			}
, 			{
				"box" : 				{
					"maxclass" : "newobj",
					"text" : "metro 10",
					"id" : "obj-39",
					"fontname" : "Arial",
					"outlettype" : [ "bang" ],
					"fontsize" : 9.0,
					"patching_rect" : [ 664.0, 167.0, 52.0, 17.0 ],
					"numinlets" : 2,
					"numoutlets" : 1
				}

			}
, 			{
				"box" : 				{
					"maxclass" : "multislider",
					"id" : "obj-40",
					"outlettype" : [ "", "" ],
					"candicane3" : [ 0.290196, 0.411765, 0.713726, 1.0 ],
					"candicane8" : [ 0.027451, 0.447059, 0.501961, 1.0 ],
					"settype" : 0,
					"setminmax" : [ 0.0, 127.0 ],
					"peakcolor" : [ 0.498039, 0.498039, 0.498039, 1.0 ],
					"candicane6" : [ 0.733333, 0.035294, 0.788235, 1.0 ],
					"patching_rect" : [ 388.0, 586.0, 170.0, 87.0 ],
					"setstyle" : 3,
					"candicane4" : [ 0.439216, 0.619608, 0.070588, 1.0 ],
					"numinlets" : 1,
					"candicane2" : [ 0.145098, 0.203922, 0.356863, 1.0 ],
					"candicane7" : [ 0.878431, 0.243137, 0.145098, 1.0 ],
					"numoutlets" : 2,
					"slidercolor" : [ 0.4, 0.4, 0.8, 1.0 ],
					"candicane5" : [ 0.584314, 0.827451, 0.431373, 1.0 ]
				}

			}
, 			{
				"box" : 				{
					"maxclass" : "newobj",
					"text" : "loadmess 2",
					"id" : "obj-41",
					"fontname" : "Arial",
					"outlettype" : [ "" ],
					"fontsize" : 9.0,
					"patching_rect" : [ 691.0, 203.0, 60.0, 17.0 ],
					"numinlets" : 1,
					"numoutlets" : 1
				}

			}
, 			{
				"box" : 				{
					"maxclass" : "newobj",
					"text" : "counter 0 127",
					"id" : "obj-42",
					"fontname" : "Arial",
					"outlettype" : [ "int", "", "", "int" ],
					"fontsize" : 9.0,
					"patching_rect" : [ 664.0, 228.0, 74.0, 17.0 ],
					"numinlets" : 5,
					"numoutlets" : 4
				}

			}
, 			{
				"box" : 				{
					"maxclass" : "button",
					"id" : "obj-43",
					"outlettype" : [ "bang" ],
					"patching_rect" : [ 316.0, 503.0, 20.0, 20.0 ],
					"numinlets" : 1,
					"numoutlets" : 1
				}

			}
, 			{
				"box" : 				{
					"maxclass" : "toggle",
					"id" : "obj-44",
					"outlettype" : [ "int" ],
					"patching_rect" : [ 238.0, 218.0, 15.0, 15.0 ],
					"numinlets" : 1,
					"numoutlets" : 1
				}

			}
, 			{
				"box" : 				{
					"maxclass" : "ezdac~",
					"id" : "obj-45",
					"patching_rect" : [ 391.0, 59.0, 33.0, 33.0 ],
					"numinlets" : 2,
					"numoutlets" : 0
				}

			}
, 			{
				"box" : 				{
					"maxclass" : "message",
					"text" : "signal",
					"id" : "obj-46",
					"fontname" : "Arial",
					"outlettype" : [ "" ],
					"fontsize" : 12.0,
					"patching_rect" : [ 227.0, 499.0, 42.0, 18.0 ],
					"numinlets" : 2,
					"numoutlets" : 1
				}

			}
, 			{
				"box" : 				{
					"maxclass" : "newobj",
					"text" : "prepend jit_matrix",
					"id" : "obj-47",
					"fontname" : "Arial",
					"outlettype" : [ "" ],
					"fontsize" : 12.0,
					"patching_rect" : [ 74.0, 498.0, 106.0, 20.0 ],
					"numinlets" : 1,
					"numoutlets" : 1,
					"color" : [ 1.0, 0.890196, 0.090196, 1.0 ]
				}

			}
, 			{
				"box" : 				{
					"maxclass" : "jit.pwindow",
					"id" : "obj-48",
					"outlettype" : [ "", "" ],
					"depthbuffer" : 0,
					"patching_rect" : [ 73.0, 561.0, 135.0, 98.0 ],
					"numinlets" : 1,
					"numoutlets" : 2
				}

			}
, 			{
				"box" : 				{
					"maxclass" : "flonum",
					"id" : "obj-49",
					"fontname" : "Arial",
					"outlettype" : [ "float", "bang" ],
					"triscale" : 0.9,
					"fontsize" : 9.0,
					"htextcolor" : [ 0.870588, 0.870588, 0.870588, 1.0 ],
					"patching_rect" : [ 432.0, 160.0, 35.0, 17.0 ],
					"numinlets" : 1,
					"bgcolor" : [ 0.866667, 0.866667, 0.866667, 1.0 ],
					"numoutlets" : 2
				}

			}
, 			{
				"box" : 				{
					"maxclass" : "message",
					"text" : "rate $1",
					"id" : "obj-50",
					"fontname" : "Arial",
					"outlettype" : [ "" ],
					"fontsize" : 9.0,
					"patching_rect" : [ 432.0, 180.0, 42.0, 15.0 ],
					"numinlets" : 2,
					"numoutlets" : 1
				}

			}
, 			{
				"box" : 				{
					"maxclass" : "message",
					"text" : "read dozer.mov",
					"id" : "obj-51",
					"fontname" : "Arial",
					"outlettype" : [ "" ],
					"fontsize" : 9.0,
					"patching_rect" : [ 492.0, 160.0, 80.0, 15.0 ],
					"numinlets" : 2,
					"numoutlets" : 1
				}

			}
, 			{
				"box" : 				{
					"maxclass" : "flonum",
					"id" : "obj-52",
					"fontname" : "Arial",
					"minimum" : 0.5,
					"outlettype" : [ "float", "bang" ],
					"triscale" : 0.9,
					"fontsize" : 9.0,
					"htextcolor" : [ 0.870588, 0.870588, 0.870588, 1.0 ],
					"patching_rect" : [ 391.0, 160.0, 35.0, 17.0 ],
					"numinlets" : 1,
					"bgcolor" : [ 0.866667, 0.866667, 0.866667, 1.0 ],
					"numoutlets" : 2
				}

			}
, 			{
				"box" : 				{
					"maxclass" : "toggle",
					"id" : "obj-53",
					"outlettype" : [ "int" ],
					"patching_rect" : [ 357.0, 160.0, 15.0, 15.0 ],
					"numinlets" : 1,
					"numoutlets" : 1
				}

			}
, 			{
				"box" : 				{
					"maxclass" : "newobj",
					"text" : "qmetro 2",
					"id" : "obj-54",
					"fontname" : "Arial",
					"outlettype" : [ "bang" ],
					"fontsize" : 9.0,
					"patching_rect" : [ 357.0, 180.0, 51.0, 17.0 ],
					"numinlets" : 2,
					"numoutlets" : 1
				}

			}
, 			{
				"box" : 				{
					"maxclass" : "newobj",
					"text" : "jit.qt.movie 320 240 @unique 1 @vol 0.",
					"id" : "obj-55",
					"fontname" : "Arial",
					"outlettype" : [ "jit_matrix", "" ],
					"fontsize" : 9.0,
					"patching_rect" : [ 357.0, 217.0, 190.0, 17.0 ],
					"numinlets" : 1,
					"numoutlets" : 2,
					"color" : [ 1.0, 0.890196, 0.090196, 1.0 ]
				}

			}
, 			{
				"box" : 				{
					"maxclass" : "newobj",
					"text" : "cycle~ 2",
					"id" : "obj-56",
					"fontname" : "Arial",
					"outlettype" : [ "signal" ],
					"fontsize" : 9.0,
					"patching_rect" : [ 186.0, 248.0, 49.0, 17.0 ],
					"numinlets" : 2,
					"numoutlets" : 1
				}

			}
, 			{
				"box" : 				{
					"maxclass" : "newobj",
					"text" : "metro 500",
					"id" : "obj-57",
					"fontname" : "Arial",
					"outlettype" : [ "bang" ],
					"fontsize" : 9.0,
					"patching_rect" : [ 238.0, 248.0, 58.0, 17.0 ],
					"numinlets" : 2,
					"numoutlets" : 1
				}

			}
, 			{
				"box" : 				{
					"maxclass" : "newobj",
					"text" : "nothing",
					"id" : "obj-58",
					"fontname" : "Arial",
					"outlettype" : [ "float" ],
					"fontsize" : 12.0,
					"patching_rect" : [ 238.0, 354.0, 50.0, 20.0 ],
					"numinlets" : 1,
					"numoutlets" : 1,
					"color" : [ 1.0, 0.890196, 0.090196, 1.0 ]
				}

			}
, 			{
				"box" : 				{
					"maxclass" : "newobj",
					"text" : "route jit_matrix signal bang int float list FullPacket",
					"id" : "obj-59",
					"fontname" : "Arial",
					"outlettype" : [ "", "", "", "", "", "", "", "" ],
					"fontsize" : 12.0,
					"patching_rect" : [ 238.0, 435.0, 273.0, 20.0 ],
					"numinlets" : 1,
					"numoutlets" : 8,
					"color" : [ 1.0, 0.890196, 0.090196, 1.0 ]
				}

			}
, 			{
				"box" : 				{
					"maxclass" : "comment",
					"text" : "all of the data are passing over this one patch cord",
					"id" : "obj-60",
					"fontname" : "Arial",
					"frgb" : [ 0.0, 0.0, 0.0, 1.0 ],
					"fontsize" : 12.0,
					"patching_rect" : [ 247.0, 392.0, 279.0, 20.0 ],
					"numinlets" : 1,
					"numoutlets" : 0
				}

			}
 ],
		"lines" : [ 			{
				"patchline" : 				{
					"source" : [ "obj-59", 7 ],
					"destination" : [ "obj-2", 1 ],
					"hidden" : 0,
					"midpoints" : [  ]
				}

			}
, 			{
				"patchline" : 				{
					"source" : [ "obj-16", 0 ],
					"destination" : [ "obj-15", 0 ],
					"hidden" : 0,
					"midpoints" : [  ]
				}

			}
, 			{
				"patchline" : 				{
					"source" : [ "obj-11", 0 ],
					"destination" : [ "obj-16", 0 ],
					"hidden" : 0,
					"midpoints" : [  ]
				}

			}
, 			{
				"patchline" : 				{
					"source" : [ "obj-9", 0 ],
					"destination" : [ "obj-10", 0 ],
					"hidden" : 0,
					"midpoints" : [  ]
				}

			}
, 			{
				"patchline" : 				{
					"source" : [ "obj-10", 0 ],
					"destination" : [ "obj-11", 0 ],
					"hidden" : 0,
					"midpoints" : [  ]
				}

			}
, 			{
				"patchline" : 				{
					"source" : [ "obj-26", 0 ],
					"destination" : [ "obj-9", 0 ],
					"hidden" : 0,
					"midpoints" : [  ]
				}

			}
, 			{
				"patchline" : 				{
					"source" : [ "obj-59", 0 ],
					"destination" : [ "obj-47", 0 ],
					"hidden" : 0,
					"midpoints" : [  ]
				}

			}
, 			{
				"patchline" : 				{
					"source" : [ "obj-47", 0 ],
					"destination" : [ "obj-48", 0 ],
					"hidden" : 0,
					"midpoints" : [  ]
				}

			}
, 			{
				"patchline" : 				{
					"source" : [ "obj-11", 0 ],
					"destination" : [ "obj-7", 0 ],
					"hidden" : 0,
					"midpoints" : [  ]
				}

			}
, 			{
				"patchline" : 				{
					"source" : [ "obj-59", 1 ],
					"destination" : [ "obj-46", 0 ],
					"hidden" : 0,
					"midpoints" : [  ]
				}

			}
, 			{
				"patchline" : 				{
					"source" : [ "obj-46", 0 ],
					"destination" : [ "obj-28", 0 ],
					"hidden" : 0,
					"midpoints" : [  ]
				}

			}
, 			{
				"patchline" : 				{
					"source" : [ "obj-25", 0 ],
					"destination" : [ "obj-24", 0 ],
					"hidden" : 0,
					"midpoints" : [  ]
				}

			}
, 			{
				"patchline" : 				{
					"source" : [ "obj-24", 0 ],
					"destination" : [ "obj-26", 0 ],
					"hidden" : 0,
					"midpoints" : [  ]
				}

			}
, 			{
				"patchline" : 				{
					"source" : [ "obj-26", 0 ],
					"destination" : [ "obj-44", 0 ],
					"hidden" : 0,
					"midpoints" : [  ]
				}

			}
, 			{
				"patchline" : 				{
					"source" : [ "obj-44", 0 ],
					"destination" : [ "obj-57", 0 ],
					"hidden" : 0,
					"midpoints" : [  ]
				}

			}
, 			{
				"patchline" : 				{
					"source" : [ "obj-31", 0 ],
					"destination" : [ "obj-58", 0 ],
					"hidden" : 0,
					"midpoints" : [  ]
				}

			}
, 			{
				"patchline" : 				{
					"source" : [ "obj-42", 0 ],
					"destination" : [ "obj-58", 0 ],
					"hidden" : 0,
					"midpoints" : [  ]
				}

			}
, 			{
				"patchline" : 				{
					"source" : [ "obj-57", 0 ],
					"destination" : [ "obj-58", 0 ],
					"hidden" : 0,
					"midpoints" : [  ]
				}

			}
, 			{
				"patchline" : 				{
					"source" : [ "obj-56", 0 ],
					"destination" : [ "obj-58", 0 ],
					"hidden" : 0,
					"midpoints" : [  ]
				}

			}
, 			{
				"patchline" : 				{
					"source" : [ "obj-55", 0 ],
					"destination" : [ "obj-58", 0 ],
					"hidden" : 0,
					"midpoints" : [  ]
				}

			}
, 			{
				"patchline" : 				{
					"source" : [ "obj-15", 0 ],
					"destination" : [ "obj-58", 0 ],
					"hidden" : 0,
					"midpoints" : [  ]
				}

			}
, 			{
				"patchline" : 				{
					"source" : [ "obj-21", 0 ],
					"destination" : [ "obj-58", 0 ],
					"hidden" : 0,
					"midpoints" : [  ]
				}

			}
, 			{
				"patchline" : 				{
					"source" : [ "obj-5", 0 ],
					"destination" : [ "obj-58", 0 ],
					"hidden" : 0,
					"midpoints" : [  ]
				}

			}
, 			{
				"patchline" : 				{
					"source" : [ "obj-4", 0 ],
					"destination" : [ "obj-58", 0 ],
					"hidden" : 0,
					"midpoints" : [  ]
				}

			}
, 			{
				"patchline" : 				{
					"source" : [ "obj-58", 0 ],
					"destination" : [ "obj-59", 0 ],
					"hidden" : 0,
					"midpoints" : [  ]
				}

			}
, 			{
				"patchline" : 				{
					"source" : [ "obj-57", 0 ],
					"destination" : [ "obj-27", 0 ],
					"hidden" : 0,
					"midpoints" : [  ]
				}

			}
, 			{
				"patchline" : 				{
					"source" : [ "obj-59", 2 ],
					"destination" : [ "obj-43", 0 ],
					"hidden" : 0,
					"midpoints" : [  ]
				}

			}
, 			{
				"patchline" : 				{
					"source" : [ "obj-26", 0 ],
					"destination" : [ "obj-53", 0 ],
					"hidden" : 0,
					"midpoints" : [  ]
				}

			}
, 			{
				"patchline" : 				{
					"source" : [ "obj-53", 0 ],
					"destination" : [ "obj-54", 0 ],
					"hidden" : 0,
					"midpoints" : [  ]
				}

			}
, 			{
				"patchline" : 				{
					"source" : [ "obj-54", 0 ],
					"destination" : [ "obj-55", 0 ],
					"hidden" : 0,
					"midpoints" : [ 366.5, 210.0, 366.5, 210.0 ]
				}

			}
, 			{
				"patchline" : 				{
					"source" : [ "obj-51", 0 ],
					"destination" : [ "obj-55", 0 ],
					"hidden" : 0,
					"midpoints" : [ 501.5, 207.0, 366.5, 207.0 ]
				}

			}
, 			{
				"patchline" : 				{
					"source" : [ "obj-50", 0 ],
					"destination" : [ "obj-55", 0 ],
					"hidden" : 0,
					"midpoints" : [ 441.5, 207.0, 366.5, 207.0 ]
				}

			}
, 			{
				"patchline" : 				{
					"source" : [ "obj-59", 3 ],
					"destination" : [ "obj-40", 0 ],
					"hidden" : 0,
					"midpoints" : [  ]
				}

			}
, 			{
				"patchline" : 				{
					"source" : [ "obj-25", 0 ],
					"destination" : [ "obj-23", 0 ],
					"hidden" : 0,
					"midpoints" : [  ]
				}

			}
, 			{
				"patchline" : 				{
					"source" : [ "obj-23", 0 ],
					"destination" : [ "obj-45", 0 ],
					"hidden" : 0,
					"midpoints" : [  ]
				}

			}
, 			{
				"patchline" : 				{
					"source" : [ "obj-52", 0 ],
					"destination" : [ "obj-54", 1 ],
					"hidden" : 0,
					"midpoints" : [  ]
				}

			}
, 			{
				"patchline" : 				{
					"source" : [ "obj-59", 3 ],
					"destination" : [ "obj-36", 0 ],
					"hidden" : 0,
					"midpoints" : [  ]
				}

			}
, 			{
				"patchline" : 				{
					"source" : [ "obj-49", 0 ],
					"destination" : [ "obj-50", 0 ],
					"hidden" : 0,
					"midpoints" : [  ]
				}

			}
, 			{
				"patchline" : 				{
					"source" : [ "obj-24", 1 ],
					"destination" : [ "obj-51", 0 ],
					"hidden" : 0,
					"midpoints" : [  ]
				}

			}
, 			{
				"patchline" : 				{
					"source" : [ "obj-59", 4 ],
					"destination" : [ "obj-29", 0 ],
					"hidden" : 0,
					"midpoints" : [  ]
				}

			}
, 			{
				"patchline" : 				{
					"source" : [ "obj-59", 4 ],
					"destination" : [ "obj-35", 0 ],
					"hidden" : 0,
					"midpoints" : [  ]
				}

			}
, 			{
				"patchline" : 				{
					"source" : [ "obj-37", 0 ],
					"destination" : [ "obj-6", 0 ],
					"hidden" : 0,
					"midpoints" : [  ]
				}

			}
, 			{
				"patchline" : 				{
					"source" : [ "obj-6", 0 ],
					"destination" : [ "obj-5", 0 ],
					"hidden" : 0,
					"midpoints" : [  ]
				}

			}
, 			{
				"patchline" : 				{
					"source" : [ "obj-42", 0 ],
					"destination" : [ "obj-37", 0 ],
					"hidden" : 0,
					"midpoints" : [  ]
				}

			}
, 			{
				"patchline" : 				{
					"source" : [ "obj-38", 0 ],
					"destination" : [ "obj-39", 0 ],
					"hidden" : 0,
					"midpoints" : [  ]
				}

			}
, 			{
				"patchline" : 				{
					"source" : [ "obj-39", 0 ],
					"destination" : [ "obj-42", 0 ],
					"hidden" : 0,
					"midpoints" : [  ]
				}

			}
, 			{
				"patchline" : 				{
					"source" : [ "obj-41", 0 ],
					"destination" : [ "obj-42", 1 ],
					"hidden" : 0,
					"midpoints" : [  ]
				}

			}
, 			{
				"patchline" : 				{
					"source" : [ "obj-26", 0 ],
					"destination" : [ "obj-38", 0 ],
					"hidden" : 0,
					"midpoints" : [  ]
				}

			}
, 			{
				"patchline" : 				{
					"source" : [ "obj-6", 1 ],
					"destination" : [ "obj-4", 0 ],
					"hidden" : 0,
					"midpoints" : [  ]
				}

			}
, 			{
				"patchline" : 				{
					"source" : [ "obj-59", 5 ],
					"destination" : [ "obj-17", 0 ],
					"hidden" : 0,
					"midpoints" : [  ]
				}

			}
, 			{
				"patchline" : 				{
					"source" : [ "obj-34", 0 ],
					"destination" : [ "obj-31", 0 ],
					"hidden" : 0,
					"midpoints" : [  ]
				}

			}
, 			{
				"patchline" : 				{
					"source" : [ "obj-31", 0 ],
					"destination" : [ "obj-30", 0 ],
					"hidden" : 0,
					"midpoints" : [  ]
				}

			}
, 			{
				"patchline" : 				{
					"source" : [ "obj-32", 0 ],
					"destination" : [ "obj-33", 0 ],
					"hidden" : 0,
					"midpoints" : [  ]
				}

			}
, 			{
				"patchline" : 				{
					"source" : [ "obj-33", 0 ],
					"destination" : [ "obj-34", 0 ],
					"hidden" : 0,
					"midpoints" : [  ]
				}

			}
, 			{
				"patchline" : 				{
					"source" : [ "obj-26", 0 ],
					"destination" : [ "obj-32", 0 ],
					"hidden" : 0,
					"midpoints" : [  ]
				}

			}
, 			{
				"patchline" : 				{
					"source" : [ "obj-26", 0 ],
					"destination" : [ "obj-18", 0 ],
					"hidden" : 0,
					"midpoints" : [  ]
				}

			}
, 			{
				"patchline" : 				{
					"source" : [ "obj-18", 0 ],
					"destination" : [ "obj-19", 0 ],
					"hidden" : 0,
					"midpoints" : [  ]
				}

			}
, 			{
				"patchline" : 				{
					"source" : [ "obj-19", 0 ],
					"destination" : [ "obj-20", 0 ],
					"hidden" : 0,
					"midpoints" : [  ]
				}

			}
, 			{
				"patchline" : 				{
					"source" : [ "obj-20", 0 ],
					"destination" : [ "obj-21", 0 ],
					"hidden" : 0,
					"midpoints" : [  ]
				}

			}
, 			{
				"patchline" : 				{
					"source" : [ "obj-59", 6 ],
					"destination" : [ "obj-14", 0 ],
					"hidden" : 0,
					"midpoints" : [  ]
				}

			}
, 			{
				"patchline" : 				{
					"source" : [ "obj-14", 0 ],
					"destination" : [ "obj-13", 0 ],
					"hidden" : 0,
					"midpoints" : [  ]
				}

			}
, 			{
				"patchline" : 				{
					"source" : [ "obj-13", 1 ],
					"destination" : [ "obj-12", 0 ],
					"hidden" : 0,
					"midpoints" : [  ]
				}

			}
, 			{
				"patchline" : 				{
					"source" : [ "obj-12", 0 ],
					"destination" : [ "obj-8", 0 ],
					"hidden" : 0,
					"midpoints" : [  ]
				}

			}
 ]
	}

}
