{
	"patcher" : 	{
		"fileversion" : 1,
		"rect" : [ 141.0, 44.0, 564.0, 367.0 ],
		"bgcolor" : [ 0.870588, 0.929412, 1.0, 1.0 ],
		"bglocked" : 0,
		"defrect" : [ 141.0, 44.0, 564.0, 367.0 ],
		"openrect" : [ 0.0, 0.0, 0.0, 0.0 ],
		"openinpresentation" : 0,
		"default_fontsize" : 12.0,
		"default_fontface" : 0,
		"default_fontname" : "Arial",
		"gridonopen" : 0,
		"gridsize" : [ 15.0, 15.0 ],
		"gridsnaponopen" : 0,
		"toolbarvisible" : 1,
		"boxanimatetime" : 200,
		"imprint" : 0,
		"metadata" : [  ],
		"boxes" : [ 			{
				"box" : 				{
					"maxclass" : "bpatcher",
					"prototypename" : "cnmat_badge",
					"id" : "obj-17",
					"patching_rect" : [ 224.0, 268.0, 292.0, 86.0 ],
					"numinlets" : 0,
					"name" : "badge.maxpat",
					"numoutlets" : 0,
					"args" : [ "list-normalized-sum.help", "1.1b", "Wright & Zbyszynski", "list-normalized-sum", 6666 ]
				}

			}
, 			{
				"box" : 				{
					"maxclass" : "message",
					"text" : "0.166667 0.333333 0.5",
					"linecount" : 2,
					"presentation_rect" : [ 77.0, 347.0, 0.0, 0.0 ],
					"id" : "obj-16",
					"fontname" : "Arial",
					"patching_rect" : [ 73.0, 316.0, 112.0, 32.0 ],
					"numinlets" : 2,
					"fontsize" : 12.0,
					"numoutlets" : 1,
					"outlettype" : [ "" ]
				}

			}
, 			{
				"box" : 				{
					"maxclass" : "flonum",
					"id" : "obj-2",
					"fontname" : "Arial",
					"bgcolor" : [ 0.866667, 0.866667, 0.866667, 1.0 ],
					"triscale" : 0.9,
					"patching_rect" : [ 72.0, 285.0, 40.0, 20.0 ],
					"htextcolor" : [ 0.870588, 0.870588, 0.870588, 1.0 ],
					"numinlets" : 1,
					"fontsize" : 12.0,
					"numoutlets" : 2,
					"outlettype" : [ "float", "bang" ]
				}

			}
, 			{
				"box" : 				{
					"maxclass" : "newobj",
					"text" : "zl sum",
					"id" : "obj-3",
					"fontname" : "Arial",
					"patching_rect" : [ 72.0, 264.0, 45.0, 20.0 ],
					"numinlets" : 2,
					"fontsize" : 12.0,
					"numoutlets" : 2,
					"outlettype" : [ "", "" ]
				}

			}
, 			{
				"box" : 				{
					"maxclass" : "flonum",
					"id" : "obj-6",
					"fontname" : "Arial",
					"bgcolor" : [ 0.866667, 0.866667, 0.866667, 1.0 ],
					"triscale" : 0.9,
					"patching_rect" : [ 171.0, 207.0, 40.0, 20.0 ],
					"htextcolor" : [ 0.870588, 0.870588, 0.870588, 1.0 ],
					"numinlets" : 1,
					"fontsize" : 12.0,
					"numoutlets" : 2,
					"outlettype" : [ "float", "bang" ]
				}

			}
, 			{
				"box" : 				{
					"maxclass" : "message",
					"text" : "-1 -2 -3",
					"id" : "obj-7",
					"fontname" : "Arial",
					"patching_rect" : [ 221.0, 155.0, 61.0, 18.0 ],
					"numinlets" : 2,
					"fontsize" : 12.0,
					"numoutlets" : 1,
					"outlettype" : [ "" ]
				}

			}
, 			{
				"box" : 				{
					"maxclass" : "message",
					"text" : "0.1 -1234",
					"id" : "obj-8",
					"fontname" : "Arial",
					"patching_rect" : [ 181.0, 128.0, 72.0, 18.0 ],
					"numinlets" : 2,
					"fontsize" : 12.0,
					"numoutlets" : 1,
					"outlettype" : [ "" ]
				}

			}
, 			{
				"box" : 				{
					"maxclass" : "message",
					"text" : "1 2 3 3.9",
					"id" : "obj-9",
					"fontname" : "Arial",
					"patching_rect" : [ 75.0, 165.0, 65.0, 18.0 ],
					"numinlets" : 2,
					"fontsize" : 12.0,
					"numoutlets" : 1,
					"outlettype" : [ "" ]
				}

			}
, 			{
				"box" : 				{
					"maxclass" : "message",
					"text" : "0.1 0.2 0.3 0.4 0.5",
					"id" : "obj-10",
					"fontname" : "Arial",
					"patching_rect" : [ 25.0, 110.0, 126.0, 18.0 ],
					"numinlets" : 2,
					"fontsize" : 12.0,
					"numoutlets" : 1,
					"outlettype" : [ "" ]
				}

			}
, 			{
				"box" : 				{
					"maxclass" : "message",
					"text" : "1 2 3 4 5",
					"id" : "obj-11",
					"fontname" : "Arial",
					"patching_rect" : [ 52.0, 134.0, 65.0, 18.0 ],
					"numinlets" : 2,
					"fontsize" : 12.0,
					"numoutlets" : 1,
					"outlettype" : [ "" ]
				}

			}
, 			{
				"box" : 				{
					"maxclass" : "bpatcher",
					"id" : "obj-13",
					"lockeddragscroll" : 1,
					"patching_rect" : [ 0.0, 20.0, 527.0, 70.0 ],
					"numinlets" : 0,
					"name" : "_aLib-CNMAT-info.maxpat",
					"numoutlets" : 0,
					"args" : [ "Scale a list of numbers to have the given sum", "list-normalize-sum" ]
				}

			}
, 			{
				"box" : 				{
					"maxclass" : "newobj",
					"text" : "list-normalize-sum 1.",
					"id" : "obj-14",
					"fontname" : "Arial",
					"patching_rect" : [ 72.0, 230.0, 141.0, 20.0 ],
					"color" : [ 0.945098, 0.913725, 0.407843, 1.0 ],
					"numinlets" : 2,
					"fontsize" : 12.0,
					"numoutlets" : 1,
					"outlettype" : [ "" ]
				}

			}
, 			{
				"box" : 				{
					"maxclass" : "comment",
					"text" : "argument or right inlet is the desired sum. (Default 1.0)",
					"linecount" : 2,
					"id" : "obj-15",
					"fontname" : "Arial",
					"patching_rect" : [ 233.0, 221.0, 160.0, 34.0 ],
					"numinlets" : 1,
					"fontsize" : 12.0,
					"numoutlets" : 0
				}

			}
 ],
		"lines" : [ 			{
				"patchline" : 				{
					"source" : [ "obj-14", 0 ],
					"destination" : [ "obj-16", 1 ],
					"hidden" : 0,
					"midpoints" : [ 81.5, 258.0, 175.5, 258.0 ]
				}

			}
, 			{
				"patchline" : 				{
					"source" : [ "obj-14", 0 ],
					"destination" : [ "obj-3", 0 ],
					"hidden" : 0,
					"midpoints" : [  ]
				}

			}
, 			{
				"patchline" : 				{
					"source" : [ "obj-3", 0 ],
					"destination" : [ "obj-2", 0 ],
					"hidden" : 0,
					"midpoints" : [  ]
				}

			}
, 			{
				"patchline" : 				{
					"source" : [ "obj-6", 0 ],
					"destination" : [ "obj-14", 1 ],
					"hidden" : 0,
					"midpoints" : [  ]
				}

			}
, 			{
				"patchline" : 				{
					"source" : [ "obj-10", 0 ],
					"destination" : [ "obj-14", 0 ],
					"hidden" : 0,
					"midpoints" : [  ]
				}

			}
, 			{
				"patchline" : 				{
					"source" : [ "obj-11", 0 ],
					"destination" : [ "obj-14", 0 ],
					"hidden" : 0,
					"midpoints" : [  ]
				}

			}
, 			{
				"patchline" : 				{
					"source" : [ "obj-9", 0 ],
					"destination" : [ "obj-14", 0 ],
					"hidden" : 0,
					"midpoints" : [  ]
				}

			}
, 			{
				"patchline" : 				{
					"source" : [ "obj-8", 0 ],
					"destination" : [ "obj-14", 0 ],
					"hidden" : 0,
					"midpoints" : [  ]
				}

			}
, 			{
				"patchline" : 				{
					"source" : [ "obj-7", 0 ],
					"destination" : [ "obj-14", 0 ],
					"hidden" : 0,
					"midpoints" : [  ]
				}

			}
 ]
	}

}
