{
	"patcher" : 	{
		"fileversion" : 1,
		"rect" : [ 64.0, 44.0, 833.0, 689.0 ],
		"bgcolor" : [ 0.972549, 0.972549, 0.784314, 1.0 ],
		"bglocked" : 0,
		"defrect" : [ 64.0, 44.0, 833.0, 689.0 ],
		"openrect" : [ 0.0, 0.0, 0.0, 0.0 ],
		"openinpresentation" : 0,
		"default_fontsize" : 12.0,
		"default_fontface" : 0,
		"default_fontname" : "Arial",
		"gridonopen" : 0,
		"gridsize" : [ 15.0, 15.0 ],
		"gridsnaponopen" : 0,
		"toolbarvisible" : 0,
		"boxanimatetime" : 200,
		"imprint" : 0,
		"boxes" : [ 			{
				"box" : 				{
					"maxclass" : "bpatcher",
					"offset" : [ 2.0, 1.0 ],
					"name" : "z.banner.maxpat",
					"numinlets" : 0,
					"numoutlets" : 0,
					"patching_rect" : [ 16.0, 14.0, 817.0, 101.0 ],
					"id" : "obj-1",
					"args" : [  ]
				}

			}
, 			{
				"box" : 				{
					"maxclass" : "button",
					"outlettype" : [ "bang" ],
					"hidden" : 1,
					"numinlets" : 1,
					"numoutlets" : 1,
					"patching_rect" : [ 792.0, 287.0, 15.0, 15.0 ],
					"id" : "obj-4"
				}

			}
, 			{
				"box" : 				{
					"maxclass" : "button",
					"outlettype" : [ "bang" ],
					"hidden" : 1,
					"numinlets" : 1,
					"numoutlets" : 1,
					"patching_rect" : [ 34.0, 271.0, 15.0, 15.0 ],
					"id" : "obj-5"
				}

			}
, 			{
				"box" : 				{
					"maxclass" : "newobj",
					"text" : "pcontrol",
					"outlettype" : [ "" ],
					"fontsize" : 9.0,
					"hidden" : 1,
					"numinlets" : 1,
					"fontname" : "Arial",
					"numoutlets" : 1,
					"patching_rect" : [ 651.0, 672.0, 47.0, 17.0 ],
					"id" : "obj-6"
				}

			}
, 			{
				"box" : 				{
					"maxclass" : "newobj",
					"text" : "thispatcher",
					"outlettype" : [ "", "" ],
					"fontsize" : 9.0,
					"hidden" : 1,
					"numinlets" : 1,
					"fontname" : "Arial",
					"numoutlets" : 2,
					"patching_rect" : [ 17.0, 671.0, 61.0, 17.0 ],
					"id" : "obj-7",
					"save" : [ "#N", "thispatcher", ";", "#Q", "end", ";" ]
				}

			}
, 			{
				"box" : 				{
					"maxclass" : "bpatcher",
					"offset" : [ 0.0, -32.0 ],
					"outlettype" : [ "", "" ],
					"name" : "z.nav_buttons.maxpat",
					"numinlets" : 1,
					"lockeddragscroll" : 1,
					"numoutlets" : 2,
					"patching_rect" : [ 0.0, 630.0, 792.0, 41.0 ],
					"id" : "obj-8",
					"args" : [  ]
				}

			}
, 			{
				"box" : 				{
					"maxclass" : "newobj",
					"text" : "loadmess set 5",
					"outlettype" : [ "" ],
					"fontsize" : 9.0,
					"hidden" : 1,
					"numinlets" : 1,
					"fontname" : "Arial",
					"numoutlets" : 1,
					"patching_rect" : [ 21.0, 611.0, 77.0, 17.0 ],
					"id" : "obj-9"
				}

			}
, 			{
				"box" : 				{
					"maxclass" : "comment",
					"text" : "There are also harmonics~ and oscillators~, which will be addressed in later tutorials.",
					"fontsize" : 12.0,
					"frgb" : [ 0.0, 0.0, 0.0, 1.0 ],
					"numinlets" : 1,
					"fontname" : "Helvetica",
					"numoutlets" : 0,
					"patching_rect" : [ 171.0, 514.0, 531.0, 18.0 ],
					"id" : "obj-10"
				}

			}
, 			{
				"box" : 				{
					"maxclass" : "comment",
					"text" : "Sounds can be used to excite the model.",
					"linecount" : 2,
					"fontsize" : 14.0,
					"frgb" : [ 0.0, 0.0, 0.0, 1.0 ],
					"numinlets" : 1,
					"fontname" : "Helvetica",
					"numoutlets" : 0,
					"patching_rect" : [ 644.0, 430.0, 140.0, 34.0 ],
					"id" : "obj-11"
				}

			}
, 			{
				"box" : 				{
					"maxclass" : "comment",
					"text" : "Time machine",
					"fontsize" : 14.0,
					"frgb" : [ 0.0, 0.0, 0.0, 1.0 ],
					"numinlets" : 1,
					"fontname" : "Helvetica",
					"numoutlets" : 0,
					"patching_rect" : [ 644.0, 366.0, 154.0, 20.0 ],
					"id" : "obj-12"
				}

			}
, 			{
				"box" : 				{
					"maxclass" : "comment",
					"text" : "Can reproduce an additive model of a long phrase",
					"linecount" : 3,
					"fontsize" : 14.0,
					"frgb" : [ 0.0, 0.0, 0.0, 1.0 ],
					"numinlets" : 1,
					"fontname" : "Helvetica",
					"numoutlets" : 0,
					"patching_rect" : [ 644.0, 300.0, 155.0, 48.0 ],
					"id" : "obj-13"
				}

			}
, 			{
				"box" : 				{
					"maxclass" : "comment",
					"text" : "bowed or blown timbres",
					"linecount" : 2,
					"fontsize" : 14.0,
					"frgb" : [ 0.0, 0.0, 0.0, 1.0 ],
					"numinlets" : 1,
					"fontname" : "Helvetica",
					"numoutlets" : 0,
					"patching_rect" : [ 493.0, 300.0, 103.0, 34.0 ],
					"id" : "obj-14"
				}

			}
, 			{
				"box" : 				{
					"maxclass" : "comment",
					"text" : "percussive or plucked timbres",
					"linecount" : 2,
					"fontsize" : 14.0,
					"frgb" : [ 0.0, 0.0, 0.0, 1.0 ],
					"numinlets" : 1,
					"fontname" : "Helvetica",
					"numoutlets" : 0,
					"patching_rect" : [ 493.0, 430.0, 120.0, 34.0 ],
					"id" : "obj-15"
				}

			}
, 			{
				"box" : 				{
					"maxclass" : "comment",
					"text" : "percussive or plucked timbres",
					"linecount" : 2,
					"fontsize" : 14.0,
					"frgb" : [ 0.0, 0.0, 0.0, 1.0 ],
					"numinlets" : 1,
					"fontname" : "Helvetica",
					"numoutlets" : 0,
					"patching_rect" : [ 493.0, 366.0, 120.0, 34.0 ],
					"id" : "obj-16"
				}

			}
, 			{
				"box" : 				{
					"maxclass" : "comment",
					"text" : "good at:",
					"fontface" : 2,
					"fontsize" : 14.0,
					"frgb" : [ 0.0, 0.0, 0.0, 1.0 ],
					"numinlets" : 1,
					"fontname" : "Helvetica",
					"numoutlets" : 0,
					"patching_rect" : [ 493.0, 265.0, 118.0, 20.0 ],
					"id" : "obj-17"
				}

			}
, 			{
				"box" : 				{
					"maxclass" : "comment",
					"text" : "duples:",
					"fontsize" : 14.0,
					"frgb" : [ 0.0, 0.0, 0.0, 1.0 ],
					"numinlets" : 1,
					"fontname" : "Helvetica",
					"numoutlets" : 0,
					"patching_rect" : [ 238.0, 300.0, 187.0, 20.0 ],
					"id" : "obj-18"
				}

			}
, 			{
				"box" : 				{
					"maxclass" : "comment",
					"text" : "triples:",
					"fontsize" : 14.0,
					"frgb" : [ 0.0, 0.0, 0.0, 1.0 ],
					"numinlets" : 1,
					"fontname" : "Helvetica",
					"numoutlets" : 0,
					"patching_rect" : [ 238.0, 430.0, 185.0, 20.0 ],
					"id" : "obj-19"
				}

			}
, 			{
				"box" : 				{
					"maxclass" : "comment",
					"text" : "triples:",
					"fontsize" : 14.0,
					"frgb" : [ 0.0, 0.0, 0.0, 1.0 ],
					"numinlets" : 1,
					"fontname" : "Helvetica",
					"numoutlets" : 0,
					"patching_rect" : [ 238.0, 366.0, 185.0, 20.0 ],
					"id" : "obj-20"
				}

			}
, 			{
				"box" : 				{
					"maxclass" : "comment",
					"text" : "frequency, amplitude, decayrate",
					"fontsize" : 14.0,
					"frgb" : [ 0.0, 0.0, 0.0, 1.0 ],
					"numinlets" : 1,
					"fontname" : "Helvetica",
					"numoutlets" : 0,
					"patching_rect" : [ 238.0, 446.0, 240.0, 20.0 ],
					"id" : "obj-21"
				}

			}
, 			{
				"box" : 				{
					"maxclass" : "newobj",
					"text" : "resonators~",
					"outlettype" : [ "signal", "list" ],
					"fontsize" : 14.0,
					"numinlets" : 1,
					"fontname" : "Helvetica",
					"numoutlets" : 2,
					"color" : [ 1.0, 0.890196, 0.090196, 1.0 ],
					"patching_rect" : [ 58.0, 430.0, 97.0, 20.0 ],
					"id" : "obj-22"
				}

			}
, 			{
				"box" : 				{
					"maxclass" : "comment",
					"text" : "frequency, amplitude, decayrate",
					"fontsize" : 14.0,
					"frgb" : [ 0.0, 0.0, 0.0, 1.0 ],
					"numinlets" : 1,
					"fontname" : "Helvetica",
					"numoutlets" : 0,
					"patching_rect" : [ 238.0, 383.0, 240.0, 20.0 ],
					"id" : "obj-23"
				}

			}
, 			{
				"box" : 				{
					"maxclass" : "newobj",
					"text" : "decaying-sinusoids~",
					"outlettype" : [ "signal" ],
					"fontsize" : 14.0,
					"numinlets" : 1,
					"fontname" : "Helvetica",
					"numoutlets" : 1,
					"color" : [ 1.0, 0.890196, 0.090196, 1.0 ],
					"patching_rect" : [ 58.0, 366.0, 151.0, 20.0 ],
					"id" : "obj-24"
				}

			}
, 			{
				"box" : 				{
					"maxclass" : "newobj",
					"text" : "sinusoids~",
					"outlettype" : [ "signal" ],
					"fontsize" : 14.0,
					"numinlets" : 1,
					"fontname" : "Helvetica",
					"numoutlets" : 1,
					"color" : [ 1.0, 0.890196, 0.090196, 1.0 ],
					"patching_rect" : [ 59.0, 300.0, 84.0, 20.0 ],
					"id" : "obj-25"
				}

			}
, 			{
				"box" : 				{
					"maxclass" : "comment",
					"text" : "Methods of (re)synthesis:",
					"fontface" : 1,
					"fontsize" : 24.0,
					"frgb" : [ 0.0, 0.0, 0.0, 1.0 ],
					"numinlets" : 1,
					"fontname" : "Trebuchet MS",
					"numoutlets" : 0,
					"patching_rect" : [ 24.0, 154.0, 322.0, 34.0 ],
					"id" : "obj-26"
				}

			}
, 			{
				"box" : 				{
					"maxclass" : "comment",
					"text" : "So far we've looked at three methods of synthesis, each of which has its own special characteristics. The table below is a summary.",
					"linecount" : 2,
					"fontsize" : 12.0,
					"frgb" : [ 0.0, 0.0, 0.0, 1.0 ],
					"numinlets" : 1,
					"fontname" : "Helvetica",
					"numoutlets" : 0,
					"patching_rect" : [ 35.0, 191.0, 375.0, 30.0 ],
					"id" : "obj-27"
				}

			}
, 			{
				"box" : 				{
					"maxclass" : "comment",
					"text" : "frequency, amplitude",
					"fontsize" : 14.0,
					"frgb" : [ 0.0, 0.0, 0.0, 1.0 ],
					"numinlets" : 1,
					"fontname" : "Helvetica",
					"numoutlets" : 0,
					"patching_rect" : [ 238.0, 317.0, 158.0, 20.0 ],
					"id" : "obj-28"
				}

			}
, 			{
				"box" : 				{
					"maxclass" : "comment",
					"text" : "special powers:",
					"fontface" : 2,
					"fontsize" : 14.0,
					"frgb" : [ 0.0, 0.0, 0.0, 1.0 ],
					"numinlets" : 1,
					"fontname" : "Helvetica",
					"numoutlets" : 0,
					"patching_rect" : [ 644.0, 265.0, 116.0, 20.0 ],
					"id" : "obj-29"
				}

			}
, 			{
				"box" : 				{
					"maxclass" : "comment",
					"text" : "information it needs:",
					"fontface" : 2,
					"fontsize" : 14.0,
					"frgb" : [ 0.0, 0.0, 0.0, 1.0 ],
					"numinlets" : 1,
					"fontname" : "Helvetica",
					"numoutlets" : 0,
					"patching_rect" : [ 236.0, 263.0, 157.0, 20.0 ],
					"id" : "obj-30"
				}

			}
, 			{
				"box" : 				{
					"maxclass" : "comment",
					"text" : "object:",
					"fontface" : 2,
					"fontsize" : 14.0,
					"frgb" : [ 0.0, 0.0, 0.0, 1.0 ],
					"numinlets" : 1,
					"fontname" : "Helvetica",
					"numoutlets" : 0,
					"patching_rect" : [ 64.0, 263.0, 58.0, 20.0 ],
					"id" : "obj-31"
				}

			}
, 			{
				"box" : 				{
					"maxclass" : "panel",
					"shadow" : 2,
					"rounded" : 15,
					"bgcolor" : [ 1.0, 1.0, 1.0, 1.0 ],
					"bordercolor" : [ 0.4, 0.4, 0.8, 1.0 ],
					"numinlets" : 1,
					"background" : 1,
					"numoutlets" : 0,
					"patching_rect" : [ 16.0, 145.0, 800.0, 394.0 ],
					"id" : "obj-32"
				}

			}
 ],
		"lines" : [ 			{
				"patchline" : 				{
					"source" : [ "obj-5", 0 ],
					"destination" : [ "obj-4", 0 ],
					"hidden" : 0,
					"midpoints" : [  ]
				}

			}
, 			{
				"patchline" : 				{
					"source" : [ "obj-8", 1 ],
					"destination" : [ "obj-6", 0 ],
					"hidden" : 1,
					"midpoints" : [  ]
				}

			}
, 			{
				"patchline" : 				{
					"source" : [ "obj-8", 0 ],
					"destination" : [ "obj-7", 0 ],
					"hidden" : 1,
					"midpoints" : [  ]
				}

			}
, 			{
				"patchline" : 				{
					"source" : [ "obj-9", 0 ],
					"destination" : [ "obj-8", 0 ],
					"hidden" : 1,
					"midpoints" : [  ]
				}

			}
 ]
	}

}
