{
	"patcher" : 	{
		"fileversion" : 1,
		"rect" : [ 64.0, 44.0, 833.0, 689.0 ],
		"bgcolor" : [ 0.972549, 0.972549, 0.784314, 1.0 ],
		"bglocked" : 0,
		"defrect" : [ 64.0, 44.0, 833.0, 689.0 ],
		"openrect" : [ 0.0, 0.0, 0.0, 0.0 ],
		"openinpresentation" : 0,
		"default_fontsize" : 12.0,
		"default_fontface" : 0,
		"default_fontname" : "Arial",
		"gridonopen" : 0,
		"gridsize" : [ 15.0, 15.0 ],
		"gridsnaponopen" : 0,
		"toolbarvisible" : 0,
		"boxanimatetime" : 200,
		"imprint" : 0,
		"boxes" : [ 			{
				"box" : 				{
					"maxclass" : "bpatcher",
					"prototypename" : "cnmat_startaudio",
					"offset" : [ -5.0, -23.0 ],
					"outlettype" : [ "" ],
					"name" : "startaudio.maxpat",
					"numinlets" : 0,
					"lockeddragscroll" : 1,
					"numoutlets" : 1,
					"patching_rect" : [ 82.0, 489.0, 133.0, 54.0 ],
					"id" : "obj-38",
					"args" : [  ]
				}

			}
, 			{
				"box" : 				{
					"maxclass" : "bpatcher",
					"offset" : [ 2.0, 1.0 ],
					"name" : "z.banner.maxpat",
					"numinlets" : 0,
					"numoutlets" : 0,
					"patching_rect" : [ 16.0, 14.0, 817.0, 101.0 ],
					"id" : "obj-1",
					"args" : [  ]
				}

			}
, 			{
				"box" : 				{
					"maxclass" : "newobj",
					"text" : "threefates",
					"outlettype" : [ "list" ],
					"fontsize" : 12.0,
					"numinlets" : 1,
					"fontname" : "Helvetica",
					"numoutlets" : 1,
					"color" : [ 1.0, 0.890196, 0.090196, 1.0 ],
					"patching_rect" : [ 51.0, 365.0, 73.0, 18.0 ],
					"id" : "obj-2"
				}

			}
, 			{
				"box" : 				{
					"maxclass" : "comment",
					"text" : "drag in here, too.",
					"fontsize" : 12.0,
					"frgb" : [ 0.0, 0.0, 0.0, 1.0 ],
					"numinlets" : 1,
					"fontname" : "Helvetica",
					"numoutlets" : 0,
					"patching_rect" : [ 103.0, 293.0, 114.0, 18.0 ],
					"id" : "obj-3"
				}

			}
, 			{
				"box" : 				{
					"maxclass" : "comment",
					"text" : "also...",
					"fontsize" : 12.0,
					"frgb" : [ 0.0, 0.0, 0.0, 1.0 ],
					"numinlets" : 1,
					"fontname" : "Helvetica",
					"numoutlets" : 0,
					"patching_rect" : [ 215.0, 178.0, 43.0, 18.0 ],
					"id" : "obj-4"
				}

			}
, 			{
				"box" : 				{
					"maxclass" : "message",
					"text" : "3.6, 4.2 5000",
					"outlettype" : [ "" ],
					"fontsize" : 12.0,
					"textcolor" : [ 1.0, 1.0, 1.0, 1.0 ],
					"bgcolor" : [ 0.4, 0.4, 0.8, 1.0 ],
					"numinlets" : 2,
					"fontname" : "Helvetica",
					"numoutlets" : 1,
					"patching_rect" : [ 226.0, 196.0, 81.0, 16.0 ],
					"id" : "obj-5"
				}

			}
, 			{
				"box" : 				{
					"maxclass" : "message",
					"text" : "5., 0. 5000",
					"outlettype" : [ "" ],
					"fontsize" : 12.0,
					"textcolor" : [ 1.0, 1.0, 1.0, 1.0 ],
					"bgcolor" : [ 0.4, 0.4, 0.8, 1.0 ],
					"numinlets" : 2,
					"fontname" : "Helvetica",
					"numoutlets" : 1,
					"patching_rect" : [ 144.0, 196.0, 67.0, 16.0 ],
					"id" : "obj-6"
				}

			}
, 			{
				"box" : 				{
					"maxclass" : "button",
					"outlettype" : [ "bang" ],
					"numinlets" : 1,
					"fgcolor" : [ 0.4, 0.4, 0.8, 1.0 ],
					"numoutlets" : 1,
					"patching_rect" : [ 51.0, 150.0, 32.0, 32.0 ],
					"id" : "obj-7"
				}

			}
, 			{
				"box" : 				{
					"maxclass" : "comment",
					"text" : "(Don't worry, there will be more about SDIF in subsequent tutorials.)",
					"fontsize" : 12.0,
					"frgb" : [ 0.0, 0.0, 0.0, 1.0 ],
					"numinlets" : 1,
					"fontname" : "Helvetica",
					"numoutlets" : 0,
					"patching_rect" : [ 391.0, 358.0, 371.0, 18.0 ],
					"id" : "obj-8"
				}

			}
, 			{
				"box" : 				{
					"maxclass" : "comment",
					"text" : "SDIF Files",
					"fontsize" : 18.0,
					"frgb" : [ 0.0, 0.0, 0.0, 1.0 ],
					"numinlets" : 1,
					"fontname" : "Trebuchet MS",
					"numoutlets" : 0,
					"patching_rect" : [ 400.0, 125.0, 288.0, 27.0 ],
					"id" : "obj-9"
				}

			}
, 			{
				"box" : 				{
					"maxclass" : "comment",
					"text" : "An SDIF-stream can be stored in an SDIF-buffer object, which has a unique name. Other objects, like SDIF-tuples, can read from that named buffer.",
					"linecount" : 3,
					"fontsize" : 12.0,
					"frgb" : [ 0.0, 0.0, 0.0, 1.0 ],
					"numinlets" : 1,
					"fontname" : "Helvetica",
					"numoutlets" : 0,
					"patching_rect" : [ 406.0, 282.0, 321.0, 42.0 ],
					"id" : "obj-10"
				}

			}
, 			{
				"box" : 				{
					"maxclass" : "newobj",
					"text" : "loadbang",
					"outlettype" : [ "bang" ],
					"fontsize" : 12.0,
					"numinlets" : 1,
					"fontname" : "Helvetica",
					"numoutlets" : 1,
					"patching_rect" : [ 480.0, 203.0, 60.0, 18.0 ],
					"id" : "obj-11"
				}

			}
, 			{
				"box" : 				{
					"maxclass" : "message",
					"text" : "clear",
					"outlettype" : [ "" ],
					"fontsize" : 12.0,
					"numinlets" : 2,
					"fontname" : "Helvetica",
					"numoutlets" : 1,
					"patching_rect" : [ 237.0, 347.0, 42.0, 16.0 ],
					"id" : "obj-12"
				}

			}
, 			{
				"box" : 				{
					"maxclass" : "message",
					"text" : "0., 10. 10000",
					"outlettype" : [ "" ],
					"fontsize" : 12.0,
					"textcolor" : [ 1.0, 1.0, 1.0, 1.0 ],
					"bgcolor" : [ 0.4, 0.4, 0.8, 1.0 ],
					"numinlets" : 2,
					"fontname" : "Helvetica",
					"numoutlets" : 1,
					"patching_rect" : [ 51.0, 190.0, 81.0, 16.0 ],
					"id" : "obj-13"
				}

			}
, 			{
				"box" : 				{
					"maxclass" : "newobj",
					"text" : "line 0. 10.",
					"outlettype" : [ "", "" ],
					"fontsize" : 12.0,
					"numinlets" : 3,
					"fontname" : "Helvetica",
					"numoutlets" : 2,
					"patching_rect" : [ 51.0, 225.0, 63.0, 18.0 ],
					"id" : "obj-14"
				}

			}
, 			{
				"box" : 				{
					"maxclass" : "spectroscope~",
					"rounded" : 0,
					"domain" : [ 0.0, 10000.0 ],
					"bgcolor" : [ 1.0, 1.0, 1.0, 1.0 ],
					"peakcolor" : [ 0.952941, 0.8, 0.8, 1.0 ],
					"sonomedhicolor" : [ 1.0, 0.74902, 0.0, 1.0 ],
					"monochrome" : 0,
					"markercolor" : [ 0.721569, 0.721569, 0.721569, 1.0 ],
					"bordercolor" : [ 0.0, 0.0, 0.0, 1.0 ],
					"numinlets" : 2,
					"sonomedcolor" : [ 0.0, 0.74902, 0.498039, 1.0 ],
					"fgcolor" : [ 0.878431, 0.878431, 0.878431, 1.0 ],
					"numoutlets" : 0,
					"patching_rect" : [ 303.0, 511.0, 380.0, 117.0 ],
					"sono" : 1,
					"sonomedlocolor" : [ 0.498039, 0.0, 0.498039, 1.0 ],
					"id" : "obj-15"
				}

			}
, 			{
				"box" : 				{
					"maxclass" : "spectroscope~",
					"rounded" : 0,
					"curvecolor" : [ 0.058824, 0.058824, 0.6, 1.0 ],
					"domain" : [ 0.0, 10000.0 ],
					"bgcolor" : [ 1.0, 1.0, 1.0, 1.0 ],
					"peakcolor" : [ 0.952941, 0.8, 0.8, 1.0 ],
					"sonomedhicolor" : [ 1.0, 0.74902, 0.0, 1.0 ],
					"markercolor" : [ 1.0, 1.0, 1.0, 0.0 ],
					"bordercolor" : [ 0.058824, 0.058824, 0.6, 1.0 ],
					"numinlets" : 2,
					"sonomedcolor" : [ 0.0, 0.74902, 0.498039, 1.0 ],
					"fgcolor" : [ 0.4, 0.4, 0.941176, 1.0 ],
					"numoutlets" : 0,
					"patching_rect" : [ 303.0, 394.0, 380.0, 117.0 ],
					"sonomedlocolor" : [ 0.498039, 0.0, 0.498039, 1.0 ],
					"id" : "obj-16"
				}

			}
, 			{
				"box" : 				{
					"maxclass" : "multislider",
					"setstyle" : 1,
					"outlettype" : [ "", "" ],
					"candicane3" : [ 0.290196, 0.411765, 0.713726, 1.0 ],
					"orientation" : 0,
					"candicane8" : [ 0.027451, 0.447059, 0.501961, 1.0 ],
					"contdata" : 1,
					"peakcolor" : [ 0.498039, 0.498039, 0.498039, 1.0 ],
					"candicane6" : [ 0.733333, 0.035294, 0.788235, 1.0 ],
					"candicane4" : [ 0.439216, 0.619608, 0.070588, 1.0 ],
					"bordercolor" : [ 0.4, 0.4, 0.8, 1.0 ],
					"numinlets" : 1,
					"candicane2" : [ 0.145098, 0.203922, 0.356863, 1.0 ],
					"candicane7" : [ 0.878431, 0.243137, 0.145098, 1.0 ],
					"setminmax" : [ 0.0, 10.0 ],
					"numoutlets" : 2,
					"patching_rect" : [ 51.0, 249.0, 178.0, 42.0 ],
					"slidercolor" : [ 0.4, 0.4, 0.8, 1.0 ],
					"candicane5" : [ 0.584314, 0.827451, 0.431373, 1.0 ],
					"id" : "obj-17"
				}

			}
, 			{
				"box" : 				{
					"maxclass" : "message",
					"text" : "read-stream-number moanin.add.sdif 0",
					"outlettype" : [ "" ],
					"fontsize" : 12.0,
					"textcolor" : [ 1.0, 1.0, 1.0, 1.0 ],
					"bgcolor" : [ 0.4, 0.4, 0.8, 1.0 ],
					"numinlets" : 2,
					"fontname" : "Helvetica",
					"numoutlets" : 1,
					"patching_rect" : [ 480.0, 224.0, 218.0, 16.0 ],
					"id" : "obj-18"
				}

			}
, 			{
				"box" : 				{
					"maxclass" : "flonum",
					"htextcolor" : [ 0.870588, 0.870588, 0.870588, 1.0 ],
					"outlettype" : [ "float", "bang" ],
					"triscale" : 0.9,
					"fontsize" : 12.0,
					"bgcolor" : [ 0.866667, 0.866667, 0.866667, 1.0 ],
					"numinlets" : 1,
					"fontname" : "Helvetica",
					"numoutlets" : 2,
					"patching_rect" : [ 51.0, 297.0, 40.0, 18.0 ],
					"id" : "obj-19"
				}

			}
, 			{
				"box" : 				{
					"maxclass" : "message",
					"text" : "tuples time $1 columns 1 2 3",
					"outlettype" : [ "" ],
					"fontsize" : 12.0,
					"numinlets" : 2,
					"fontname" : "Helvetica",
					"numoutlets" : 1,
					"patching_rect" : [ 51.0, 320.0, 185.0, 16.0 ],
					"id" : "obj-20"
				}

			}
, 			{
				"box" : 				{
					"maxclass" : "newobj",
					"text" : "sinusoids~",
					"outlettype" : [ "signal" ],
					"fontsize" : 12.0,
					"numinlets" : 1,
					"fontname" : "Helvetica",
					"numoutlets" : 1,
					"color" : [ 1.0, 0.890196, 0.090196, 1.0 ],
					"patching_rect" : [ 51.0, 387.0, 74.0, 18.0 ],
					"id" : "obj-21"
				}

			}
, 			{
				"box" : 				{
					"maxclass" : "newobj",
					"text" : "SDIF-tuples ss-toot",
					"outlettype" : [ "list" ],
					"fontsize" : 12.0,
					"numinlets" : 1,
					"fontname" : "Helvetica",
					"numoutlets" : 1,
					"color" : [ 1.0, 0.890196, 0.090196, 1.0 ],
					"patching_rect" : [ 51.0, 342.0, 127.0, 18.0 ],
					"id" : "obj-22"
				}

			}
, 			{
				"box" : 				{
					"maxclass" : "newobj",
					"text" : "SDIF-buffer ss-toot",
					"outlettype" : [ "bang" ],
					"fontsize" : 12.0,
					"numinlets" : 1,
					"fontname" : "Helvetica",
					"numoutlets" : 1,
					"color" : [ 1.0, 0.890196, 0.090196, 1.0 ],
					"patching_rect" : [ 480.0, 243.0, 112.0, 18.0 ],
					"id" : "obj-23"
				}

			}
, 			{
				"box" : 				{
					"maxclass" : "gain~",
					"outlettype" : [ "signal", "int" ],
					"orientation" : 2,
					"stripecolor" : [ 0.66667, 0.66667, 0.66667, 1.0 ],
					"bgcolor" : [ 0.4, 0.4, 0.8, 1.0 ],
					"numinlets" : 2,
					"numoutlets" : 2,
					"patching_rect" : [ 52.0, 419.0, 22.0, 122.0 ],
					"id" : "obj-28"
				}

			}
, 			{
				"box" : 				{
					"maxclass" : "newobj",
					"text" : "dac~",
					"fontsize" : 12.0,
					"numinlets" : 2,
					"fontname" : "Arial",
					"numoutlets" : 0,
					"patching_rect" : [ 51.0, 563.0, 39.0, 20.0 ],
					"id" : "obj-29"
				}

			}
, 			{
				"box" : 				{
					"maxclass" : "newobj",
					"text" : "pcontrol",
					"outlettype" : [ "" ],
					"fontsize" : 9.0,
					"hidden" : 1,
					"numinlets" : 1,
					"fontname" : "Arial",
					"numoutlets" : 1,
					"patching_rect" : [ 663.0, 691.0, 47.0, 17.0 ],
					"id" : "obj-30"
				}

			}
, 			{
				"box" : 				{
					"maxclass" : "newobj",
					"text" : "thispatcher",
					"outlettype" : [ "", "" ],
					"fontsize" : 9.0,
					"hidden" : 1,
					"numinlets" : 1,
					"fontname" : "Arial",
					"numoutlets" : 2,
					"patching_rect" : [ 22.0, 691.0, 61.0, 17.0 ],
					"id" : "obj-31",
					"save" : [ "#N", "thispatcher", ";", "#Q", "end", ";" ]
				}

			}
, 			{
				"box" : 				{
					"maxclass" : "bpatcher",
					"offset" : [ 0.0, -32.0 ],
					"outlettype" : [ "", "" ],
					"name" : "z.nav_buttons.maxpat",
					"numinlets" : 1,
					"lockeddragscroll" : 1,
					"numoutlets" : 2,
					"patching_rect" : [ 0.0, 630.0, 792.0, 41.0 ],
					"id" : "obj-32",
					"args" : [  ]
				}

			}
, 			{
				"box" : 				{
					"maxclass" : "newobj",
					"text" : "loadmess set 9",
					"outlettype" : [ "" ],
					"fontsize" : 9.0,
					"hidden" : 1,
					"numinlets" : 1,
					"fontname" : "Arial",
					"numoutlets" : 1,
					"patching_rect" : [ 22.0, 628.0, 77.0, 17.0 ],
					"id" : "obj-33"
				}

			}
, 			{
				"box" : 				{
					"maxclass" : "comment",
					"text" : "Sinusoidal Models often have much more data than Resonant Models. The model below has 80 partials for each frame. A good way to handle these models is with SDIF files.",
					"linecount" : 3,
					"fontsize" : 12.0,
					"frgb" : [ 0.0, 0.0, 0.0, 1.0 ],
					"numinlets" : 1,
					"fontname" : "Helvetica",
					"numoutlets" : 0,
					"patching_rect" : [ 402.0, 154.0, 340.0, 42.0 ],
					"id" : "obj-35"
				}

			}
, 			{
				"box" : 				{
					"maxclass" : "comment",
					"text" : "bang to play",
					"fontsize" : 14.0,
					"textcolor" : [ 0.4, 0.4, 0.8, 1.0 ],
					"frgb" : [ 0.4, 0.4, 0.8, 1.0 ],
					"numinlets" : 1,
					"fontname" : "Arial",
					"numoutlets" : 0,
					"patching_rect" : [ 85.0, 155.0, 100.0, 23.0 ],
					"id" : "obj-36"
				}

			}
, 			{
				"box" : 				{
					"maxclass" : "panel",
					"shadow" : 2,
					"rounded" : 15,
					"bgcolor" : [ 1.0, 1.0, 1.0, 1.0 ],
					"bordercolor" : [ 0.4, 0.4, 0.8, 1.0 ],
					"numinlets" : 1,
					"background" : 1,
					"numoutlets" : 0,
					"patching_rect" : [ 391.0, 118.0, 367.0, 268.0 ],
					"id" : "obj-37"
				}

			}
 ],
		"lines" : [ 			{
				"patchline" : 				{
					"source" : [ "obj-38", 0 ],
					"destination" : [ "obj-29", 0 ],
					"hidden" : 1,
					"midpoints" : [  ]
				}

			}
, 			{
				"patchline" : 				{
					"source" : [ "obj-32", 1 ],
					"destination" : [ "obj-30", 0 ],
					"hidden" : 1,
					"midpoints" : [  ]
				}

			}
, 			{
				"patchline" : 				{
					"source" : [ "obj-18", 0 ],
					"destination" : [ "obj-23", 0 ],
					"hidden" : 0,
					"midpoints" : [  ]
				}

			}
, 			{
				"patchline" : 				{
					"source" : [ "obj-11", 0 ],
					"destination" : [ "obj-18", 0 ],
					"hidden" : 0,
					"midpoints" : [  ]
				}

			}
, 			{
				"patchline" : 				{
					"source" : [ "obj-21", 0 ],
					"destination" : [ "obj-15", 0 ],
					"hidden" : 1,
					"midpoints" : [ 60.5, 414.0, 84.0, 414.0, 84.0, 474.0, 288.0, 474.0, 288.0, 507.0, 312.5, 507.0 ]
				}

			}
, 			{
				"patchline" : 				{
					"source" : [ "obj-21", 0 ],
					"destination" : [ "obj-16", 0 ],
					"hidden" : 1,
					"midpoints" : [ 60.5, 412.0, 288.0, 412.0, 288.0, 390.0, 312.5, 390.0 ]
				}

			}
, 			{
				"patchline" : 				{
					"source" : [ "obj-14", 1 ],
					"destination" : [ "obj-12", 0 ],
					"hidden" : 0,
					"midpoints" : [ 104.5, 243.0, 246.5, 243.0 ]
				}

			}
, 			{
				"patchline" : 				{
					"source" : [ "obj-28", 0 ],
					"destination" : [ "obj-29", 1 ],
					"hidden" : 0,
					"midpoints" : [  ]
				}

			}
, 			{
				"patchline" : 				{
					"source" : [ "obj-28", 0 ],
					"destination" : [ "obj-29", 0 ],
					"hidden" : 0,
					"midpoints" : [  ]
				}

			}
, 			{
				"patchline" : 				{
					"source" : [ "obj-21", 0 ],
					"destination" : [ "obj-28", 0 ],
					"hidden" : 0,
					"midpoints" : [  ]
				}

			}
, 			{
				"patchline" : 				{
					"source" : [ "obj-12", 0 ],
					"destination" : [ "obj-21", 0 ],
					"hidden" : 0,
					"midpoints" : [ 246.5, 385.0, 60.5, 385.0 ]
				}

			}
, 			{
				"patchline" : 				{
					"source" : [ "obj-2", 0 ],
					"destination" : [ "obj-21", 0 ],
					"hidden" : 0,
					"midpoints" : [  ]
				}

			}
, 			{
				"patchline" : 				{
					"source" : [ "obj-22", 0 ],
					"destination" : [ "obj-2", 0 ],
					"hidden" : 0,
					"midpoints" : [  ]
				}

			}
, 			{
				"patchline" : 				{
					"source" : [ "obj-20", 0 ],
					"destination" : [ "obj-22", 0 ],
					"hidden" : 0,
					"midpoints" : [  ]
				}

			}
, 			{
				"patchline" : 				{
					"source" : [ "obj-19", 0 ],
					"destination" : [ "obj-20", 0 ],
					"hidden" : 0,
					"midpoints" : [  ]
				}

			}
, 			{
				"patchline" : 				{
					"source" : [ "obj-17", 0 ],
					"destination" : [ "obj-19", 0 ],
					"hidden" : 0,
					"midpoints" : [  ]
				}

			}
, 			{
				"patchline" : 				{
					"source" : [ "obj-14", 0 ],
					"destination" : [ "obj-17", 0 ],
					"hidden" : 0,
					"midpoints" : [  ]
				}

			}
, 			{
				"patchline" : 				{
					"source" : [ "obj-5", 0 ],
					"destination" : [ "obj-14", 0 ],
					"hidden" : 0,
					"midpoints" : [  ]
				}

			}
, 			{
				"patchline" : 				{
					"source" : [ "obj-6", 0 ],
					"destination" : [ "obj-14", 0 ],
					"hidden" : 0,
					"midpoints" : [  ]
				}

			}
, 			{
				"patchline" : 				{
					"source" : [ "obj-13", 0 ],
					"destination" : [ "obj-14", 0 ],
					"hidden" : 0,
					"midpoints" : [  ]
				}

			}
, 			{
				"patchline" : 				{
					"source" : [ "obj-7", 0 ],
					"destination" : [ "obj-13", 0 ],
					"hidden" : 0,
					"midpoints" : [  ]
				}

			}
, 			{
				"patchline" : 				{
					"source" : [ "obj-32", 0 ],
					"destination" : [ "obj-31", 0 ],
					"hidden" : 1,
					"midpoints" : [  ]
				}

			}
, 			{
				"patchline" : 				{
					"source" : [ "obj-33", 0 ],
					"destination" : [ "obj-32", 0 ],
					"hidden" : 1,
					"midpoints" : [  ]
				}

			}
 ]
	}

}
