{
	"patcher" : 	{
		"fileversion" : 1,
		"rect" : [ 64.0, 44.0, 833.0, 689.0 ],
		"bgcolor" : [ 0.972549, 0.972549, 0.784314, 1.0 ],
		"bglocked" : 0,
		"defrect" : [ 64.0, 44.0, 833.0, 689.0 ],
		"openrect" : [ 0.0, 0.0, 0.0, 0.0 ],
		"openinpresentation" : 0,
		"default_fontsize" : 12.0,
		"default_fontface" : 0,
		"default_fontname" : "Arial",
		"gridonopen" : 0,
		"gridsize" : [ 15.0, 15.0 ],
		"gridsnaponopen" : 0,
		"toolbarvisible" : 0,
		"boxanimatetime" : 200,
		"imprint" : 0,
		"boxes" : [ 			{
				"box" : 				{
					"maxclass" : "bpatcher",
					"offset" : [ 1.0, 1.0 ],
					"name" : "z.banner.maxpat",
					"numinlets" : 0,
					"numoutlets" : 0,
					"patching_rect" : [ 16.0, 14.0, 817.0, 101.0 ],
					"id" : "obj-1",
					"args" : [  ]
				}

			}
, 			{
				"box" : 				{
					"maxclass" : "ubutton",
					"outlettype" : [ "bang", "bang", "", "int" ],
					"handoff" : "",
					"numinlets" : 1,
					"numoutlets" : 4,
					"patching_rect" : [ 634.0, 122.0, 156.0, 44.0 ],
					"id" : "obj-2"
				}

			}
, 			{
				"box" : 				{
					"maxclass" : "comment",
					"text" : "For each stream:",
					"fontsize" : 12.0,
					"frgb" : [ 0.0, 0.0, 0.0, 1.0 ],
					"numinlets" : 1,
					"fontname" : "Helvetica",
					"numoutlets" : 0,
					"patching_rect" : [ 29.0, 268.0, 101.0, 18.0 ],
					"id" : "obj-3"
				}

			}
, 			{
				"box" : 				{
					"maxclass" : "comment",
					"text" : "stream number",
					"fontsize" : 12.0,
					"frgb" : [ 0.0, 0.0, 0.0, 1.0 ],
					"numinlets" : 1,
					"fontname" : "Helvetica",
					"numoutlets" : 0,
					"patching_rect" : [ 392.0, 267.0, 91.0, 18.0 ],
					"id" : "obj-4"
				}

			}
, 			{
				"box" : 				{
					"maxclass" : "comment",
					"text" : "end time -",
					"fontsize" : 12.0,
					"frgb" : [ 0.0, 0.0, 0.0, 1.0 ],
					"numinlets" : 1,
					"fontname" : "Helvetica",
					"numoutlets" : 0,
					"patching_rect" : [ 335.0, 267.0, 64.0, 18.0 ],
					"id" : "obj-5"
				}

			}
, 			{
				"box" : 				{
					"maxclass" : "comment",
					"text" : "start time -",
					"fontsize" : 12.0,
					"frgb" : [ 0.0, 0.0, 0.0, 1.0 ],
					"numinlets" : 1,
					"fontname" : "Helvetica",
					"numoutlets" : 0,
					"patching_rect" : [ 272.0, 267.0, 67.0, 18.0 ],
					"id" : "obj-6"
				}

			}
, 			{
				"box" : 				{
					"maxclass" : "comment",
					"text" : "type -",
					"fontsize" : 12.0,
					"frgb" : [ 0.0, 0.0, 0.0, 1.0 ],
					"numinlets" : 1,
					"fontname" : "Helvetica",
					"numoutlets" : 0,
					"patching_rect" : [ 233.0, 267.0, 41.0, 18.0 ],
					"id" : "obj-7"
				}

			}
, 			{
				"box" : 				{
					"maxclass" : "comment",
					"text" : "stream number -",
					"fontsize" : 12.0,
					"frgb" : [ 0.0, 0.0, 0.0, 1.0 ],
					"numinlets" : 1,
					"fontname" : "Helvetica",
					"numoutlets" : 0,
					"patching_rect" : [ 139.0, 267.0, 99.0, 18.0 ],
					"id" : "obj-8"
				}

			}
, 			{
				"box" : 				{
					"maxclass" : "message",
					"text" : ";\rmax launch_browser http://recherche.ircam.fr/equipes/analyse-synthese/sdif/standard/types-main.html",
					"linecount" : 5,
					"outlettype" : [ "" ],
					"fontsize" : 9.0,
					"hidden" : 1,
					"numinlets" : 2,
					"fontname" : "Arial",
					"numoutlets" : 1,
					"patching_rect" : [ 679.0, 198.0, 146.0, 56.0 ],
					"id" : "obj-9"
				}

			}
, 			{
				"box" : 				{
					"maxclass" : "comment",
					"text" : "<- click to select your own file",
					"fontsize" : 12.0,
					"frgb" : [ 0.0, 0.0, 0.0, 1.0 ],
					"numinlets" : 1,
					"fontname" : "Helvetica",
					"numoutlets" : 0,
					"patching_rect" : [ 51.0, 159.0, 167.0, 18.0 ],
					"id" : "obj-10"
				}

			}
, 			{
				"box" : 				{
					"maxclass" : "comment",
					"text" : "choose stream number by sending an integer",
					"linecount" : 2,
					"fontsize" : 12.0,
					"frgb" : [ 0.0, 0.0, 0.0, 1.0 ],
					"numinlets" : 1,
					"fontname" : "Helvetica",
					"numoutlets" : 0,
					"patching_rect" : [ 319.0, 163.0, 143.0, 30.0 ],
					"id" : "obj-11"
				}

			}
, 			{
				"box" : 				{
					"maxclass" : "number",
					"htextcolor" : [ 0.870588, 0.870588, 0.870588, 1.0 ],
					"outlettype" : [ "int", "bang" ],
					"triscale" : 0.9,
					"fontsize" : 12.0,
					"textcolor" : [ 1.0, 1.0, 1.0, 1.0 ],
					"bgcolor" : [ 0.4, 0.4, 0.8, 1.0 ],
					"numinlets" : 1,
					"fontname" : "Helvetica",
					"numoutlets" : 2,
					"patching_rect" : [ 336.0, 196.0, 37.0, 18.0 ],
					"id" : "obj-12"
				}

			}
, 			{
				"box" : 				{
					"maxclass" : "comment",
					"text" : "comes out right outlet",
					"fontsize" : 12.0,
					"frgb" : [ 0.0, 0.0, 0.0, 1.0 ],
					"numinlets" : 1,
					"fontname" : "Helvetica",
					"numoutlets" : 0,
					"patching_rect" : [ 447.0, 217.0, 140.0, 18.0 ],
					"id" : "obj-13"
				}

			}
, 			{
				"box" : 				{
					"maxclass" : "number",
					"htextcolor" : [ 0.870588, 0.870588, 0.870588, 1.0 ],
					"outlettype" : [ "int", "bang" ],
					"triscale" : 0.9,
					"fontsize" : 12.0,
					"bgcolor" : [ 0.866667, 0.866667, 0.866667, 1.0 ],
					"numinlets" : 1,
					"fontname" : "Helvetica",
					"numoutlets" : 2,
					"patching_rect" : [ 764.0, 518.0, 37.0, 18.0 ],
					"id" : "obj-14"
				}

			}
, 			{
				"box" : 				{
					"maxclass" : "toggle",
					"outlettype" : [ "int" ],
					"numinlets" : 1,
					"numoutlets" : 1,
					"patching_rect" : [ 247.0, 530.0, 20.0, 20.0 ],
					"id" : "obj-15"
				}

			}
, 			{
				"box" : 				{
					"maxclass" : "newobj",
					"text" : "gate",
					"outlettype" : [ "" ],
					"fontsize" : 12.0,
					"numinlets" : 2,
					"fontname" : "Helvetica",
					"numoutlets" : 1,
					"patching_rect" : [ 247.0, 554.0, 34.0, 18.0 ],
					"id" : "obj-16"
				}

			}
, 			{
				"box" : 				{
					"maxclass" : "newobj",
					"text" : "prepend scan",
					"outlettype" : [ "" ],
					"fontsize" : 12.0,
					"numinlets" : 1,
					"fontname" : "Helvetica",
					"numoutlets" : 1,
					"patching_rect" : [ 32.0, 198.0, 83.0, 18.0 ],
					"id" : "obj-17"
				}

			}
, 			{
				"box" : 				{
					"maxclass" : "button",
					"outlettype" : [ "bang" ],
					"numinlets" : 1,
					"fgcolor" : [ 0.4, 0.4, 0.8, 1.0 ],
					"numoutlets" : 1,
					"patching_rect" : [ 32.0, 157.0, 20.0, 20.0 ],
					"id" : "obj-18"
				}

			}
, 			{
				"box" : 				{
					"maxclass" : "newobj",
					"text" : "opendialog",
					"outlettype" : [ "", "bang" ],
					"fontsize" : 12.0,
					"numinlets" : 1,
					"fontname" : "Helvetica",
					"numoutlets" : 2,
					"patching_rect" : [ 32.0, 179.0, 69.0, 18.0 ],
					"id" : "obj-19"
				}

			}
, 			{
				"box" : 				{
					"maxclass" : "message",
					"text" : "print",
					"outlettype" : [ "" ],
					"fontsize" : 12.0,
					"textcolor" : [ 1.0, 1.0, 1.0, 1.0 ],
					"bgcolor" : [ 0.4, 0.4, 0.8, 1.0 ],
					"numinlets" : 2,
					"fontname" : "Helvetica",
					"numoutlets" : 1,
					"patching_rect" : [ 212.0, 573.0, 34.0, 16.0 ],
					"id" : "obj-20"
				}

			}
, 			{
				"box" : 				{
					"maxclass" : "newobj",
					"text" : "print OUTPUT",
					"fontsize" : 12.0,
					"numinlets" : 1,
					"fontname" : "Helvetica",
					"numoutlets" : 0,
					"patching_rect" : [ 133.0, 613.0, 87.0, 18.0 ],
					"id" : "obj-21"
				}

			}
, 			{
				"box" : 				{
					"maxclass" : "newobj",
					"text" : "prepend read-stream-number",
					"outlettype" : [ "" ],
					"fontsize" : 12.0,
					"numinlets" : 1,
					"fontname" : "Helvetica",
					"numoutlets" : 1,
					"patching_rect" : [ 247.0, 580.0, 167.0, 18.0 ],
					"id" : "obj-22"
				}

			}
, 			{
				"box" : 				{
					"maxclass" : "newobj",
					"text" : "SDIF-buffer 52-sdfi",
					"outlettype" : [ "bang" ],
					"fontsize" : 12.0,
					"numinlets" : 1,
					"fontname" : "Helvetica",
					"numoutlets" : 1,
					"patching_rect" : [ 247.0, 603.0, 112.0, 18.0 ],
					"id" : "obj-23"
				}

			}
, 			{
				"box" : 				{
					"maxclass" : "comment",
					"text" : "When you select a stream (by clicking on a row of the menu or by sending in an int), SDIF-menu2 outputs the filename and the stream number, suitable for use with SDIF-buffer as shown.",
					"linecount" : 3,
					"fontsize" : 12.0,
					"frgb" : [ 0.0, 0.0, 0.0, 1.0 ],
					"numinlets" : 1,
					"fontname" : "Helvetica",
					"numoutlets" : 0,
					"patching_rect" : [ 297.0, 524.0, 350.0, 42.0 ],
					"id" : "obj-24"
				}

			}
, 			{
				"box" : 				{
					"maxclass" : "message",
					"text" : "scan moanin.add.sdif",
					"outlettype" : [ "" ],
					"fontsize" : 12.0,
					"textcolor" : [ 1.0, 1.0, 1.0, 1.0 ],
					"bgcolor" : [ 0.4, 0.4, 0.8, 1.0 ],
					"numinlets" : 2,
					"fontname" : "Helvetica",
					"numoutlets" : 1,
					"patching_rect" : [ 182.0, 179.0, 124.0, 16.0 ],
					"id" : "obj-25"
				}

			}
, 			{
				"box" : 				{
					"maxclass" : "message",
					"text" : "clear",
					"outlettype" : [ "" ],
					"fontsize" : 12.0,
					"textcolor" : [ 1.0, 1.0, 1.0, 1.0 ],
					"bgcolor" : [ 0.4, 0.4, 0.8, 1.0 ],
					"numinlets" : 2,
					"fontname" : "Helvetica",
					"numoutlets" : 1,
					"patching_rect" : [ 607.0, 196.0, 40.0, 16.0 ],
					"id" : "obj-26"
				}

			}
, 			{
				"box" : 				{
					"maxclass" : "message",
					"text" : "howmany",
					"outlettype" : [ "" ],
					"fontsize" : 12.0,
					"textcolor" : [ 1.0, 1.0, 1.0, 1.0 ],
					"bgcolor" : [ 0.4, 0.4, 0.8, 1.0 ],
					"numinlets" : 2,
					"fontname" : "Helvetica",
					"numoutlets" : 1,
					"patching_rect" : [ 428.0, 196.0, 66.0, 16.0 ],
					"id" : "obj-27"
				}

			}
, 			{
				"box" : 				{
					"maxclass" : "message",
					"text" : "scan kyorei.add.sdif",
					"outlettype" : [ "" ],
					"fontsize" : 12.0,
					"textcolor" : [ 1.0, 1.0, 1.0, 1.0 ],
					"bgcolor" : [ 0.4, 0.4, 0.8, 1.0 ],
					"numinlets" : 2,
					"fontname" : "Helvetica",
					"numoutlets" : 1,
					"patching_rect" : [ 189.0, 196.0, 117.0, 16.0 ],
					"id" : "obj-28"
				}

			}
, 			{
				"box" : 				{
					"maxclass" : "newobj",
					"text" : "SDIF-fileinfo",
					"outlettype" : [ "" ],
					"fontsize" : 12.0,
					"numinlets" : 1,
					"fontname" : "Helvetica",
					"numoutlets" : 1,
					"color" : [ 1.0, 0.890196, 0.090196, 1.0 ],
					"patching_rect" : [ 133.0, 226.0, 87.0, 18.0 ],
					"id" : "obj-29"
				}

			}
, 			{
				"box" : 				{
					"maxclass" : "jsui",
					"jsarguments" : [  ],
					"outlettype" : [ "", "" ],
					"filename" : "SDIF-menu2.js",
					"numinlets" : 1,
					"numoutlets" : 2,
					"patching_rect" : [ 133.0, 281.0, 650.0, 232.0 ],
					"id" : "obj-30"
				}

			}
, 			{
				"box" : 				{
					"maxclass" : "comment",
					"text" : "To get specific information about streams in a file:",
					"fontface" : 1,
					"fontsize" : 18.0,
					"frgb" : [ 0.0, 0.0, 0.0, 1.0 ],
					"numinlets" : 1,
					"fontname" : "Trebuchet MS",
					"numoutlets" : 0,
					"patching_rect" : [ 34.0, 120.0, 520.0, 27.0 ],
					"id" : "obj-31"
				}

			}
, 			{
				"box" : 				{
					"maxclass" : "newobj",
					"text" : "pcontrol",
					"outlettype" : [ "" ],
					"fontsize" : 9.0,
					"hidden" : 1,
					"numinlets" : 1,
					"fontname" : "Arial",
					"numoutlets" : 1,
					"patching_rect" : [ 663.0, 696.0, 47.0, 17.0 ],
					"id" : "obj-32"
				}

			}
, 			{
				"box" : 				{
					"maxclass" : "newobj",
					"text" : "thispatcher",
					"outlettype" : [ "", "" ],
					"fontsize" : 9.0,
					"hidden" : 1,
					"numinlets" : 1,
					"fontname" : "Arial",
					"numoutlets" : 2,
					"patching_rect" : [ 22.0, 696.0, 61.0, 17.0 ],
					"id" : "obj-33",
					"save" : [ "#N", "thispatcher", ";", "#Q", "end", ";" ]
				}

			}
, 			{
				"box" : 				{
					"maxclass" : "bpatcher",
					"offset" : [ 0.0, -32.0 ],
					"outlettype" : [ "", "" ],
					"name" : "z.nav_buttons.maxpat",
					"numinlets" : 1,
					"lockeddragscroll" : 1,
					"numoutlets" : 2,
					"patching_rect" : [ 0.0, 630.0, 792.0, 41.0 ],
					"id" : "obj-34",
					"args" : [  ]
				}

			}
, 			{
				"box" : 				{
					"maxclass" : "newobj",
					"text" : "loadmess set 28",
					"outlettype" : [ "" ],
					"fontsize" : 9.0,
					"hidden" : 1,
					"numinlets" : 1,
					"fontname" : "Arial",
					"numoutlets" : 1,
					"patching_rect" : [ 23.0, 635.0, 83.0, 17.0 ],
					"id" : "obj-35"
				}

			}
, 			{
				"box" : 				{
					"maxclass" : "button",
					"outlettype" : [ "bang" ],
					"numinlets" : 1,
					"fgcolor" : [ 0.4, 0.4, 0.8, 1.0 ],
					"numoutlets" : 1,
					"patching_rect" : [ 119.0, 527.0, 20.0, 20.0 ],
					"id" : "obj-37"
				}

			}
, 			{
				"box" : 				{
					"maxclass" : "comment",
					"text" : "click for excruciating detail about types",
					"linecount" : 2,
					"fontsize" : 14.0,
					"textcolor" : [ 0.4, 0.4, 0.8, 1.0 ],
					"frgb" : [ 0.4, 0.4, 0.8, 1.0 ],
					"numinlets" : 1,
					"fontname" : "Helvetica",
					"numoutlets" : 0,
					"patching_rect" : [ 636.0, 125.0, 151.0, 34.0 ],
					"id" : "obj-38"
				}

			}
, 			{
				"box" : 				{
					"maxclass" : "panel",
					"shadow" : 2,
					"rounded" : 15,
					"bgcolor" : [ 1.0, 1.0, 1.0, 1.0 ],
					"bordercolor" : [ 0.4, 0.4, 0.8, 1.0 ],
					"numinlets" : 1,
					"background" : 1,
					"numoutlets" : 0,
					"patching_rect" : [ 635.0, 122.0, 153.0, 45.0 ],
					"id" : "obj-39"
				}

			}
 ],
		"lines" : [ 			{
				"patchline" : 				{
					"source" : [ "obj-35", 0 ],
					"destination" : [ "obj-34", 0 ],
					"hidden" : 1,
					"midpoints" : [  ]
				}

			}
, 			{
				"patchline" : 				{
					"source" : [ "obj-34", 0 ],
					"destination" : [ "obj-33", 0 ],
					"hidden" : 1,
					"midpoints" : [  ]
				}

			}
, 			{
				"patchline" : 				{
					"source" : [ "obj-18", 0 ],
					"destination" : [ "obj-19", 0 ],
					"hidden" : 0,
					"midpoints" : [  ]
				}

			}
, 			{
				"patchline" : 				{
					"source" : [ "obj-19", 0 ],
					"destination" : [ "obj-17", 0 ],
					"hidden" : 0,
					"midpoints" : [  ]
				}

			}
, 			{
				"patchline" : 				{
					"source" : [ "obj-30", 0 ],
					"destination" : [ "obj-37", 0 ],
					"hidden" : 0,
					"midpoints" : [  ]
				}

			}
, 			{
				"patchline" : 				{
					"source" : [ "obj-17", 0 ],
					"destination" : [ "obj-29", 0 ],
					"hidden" : 0,
					"midpoints" : [  ]
				}

			}
, 			{
				"patchline" : 				{
					"source" : [ "obj-25", 0 ],
					"destination" : [ "obj-29", 0 ],
					"hidden" : 0,
					"midpoints" : [  ]
				}

			}
, 			{
				"patchline" : 				{
					"source" : [ "obj-28", 0 ],
					"destination" : [ "obj-29", 0 ],
					"hidden" : 0,
					"midpoints" : [  ]
				}

			}
, 			{
				"patchline" : 				{
					"source" : [ "obj-27", 0 ],
					"destination" : [ "obj-30", 0 ],
					"hidden" : 0,
					"midpoints" : [ 437.5, 246.0, 142.5, 246.0 ]
				}

			}
, 			{
				"patchline" : 				{
					"source" : [ "obj-26", 0 ],
					"destination" : [ "obj-30", 0 ],
					"hidden" : 0,
					"midpoints" : [ 616.5, 246.0, 142.5, 246.0 ]
				}

			}
, 			{
				"patchline" : 				{
					"source" : [ "obj-12", 0 ],
					"destination" : [ "obj-30", 0 ],
					"hidden" : 0,
					"midpoints" : [ 345.5, 246.0, 142.5, 246.0 ]
				}

			}
, 			{
				"patchline" : 				{
					"source" : [ "obj-29", 0 ],
					"destination" : [ "obj-30", 0 ],
					"hidden" : 0,
					"midpoints" : [  ]
				}

			}
, 			{
				"patchline" : 				{
					"source" : [ "obj-30", 0 ],
					"destination" : [ "obj-21", 0 ],
					"hidden" : 0,
					"midpoints" : [  ]
				}

			}
, 			{
				"patchline" : 				{
					"source" : [ "obj-15", 0 ],
					"destination" : [ "obj-16", 0 ],
					"hidden" : 0,
					"midpoints" : [  ]
				}

			}
, 			{
				"patchline" : 				{
					"source" : [ "obj-16", 0 ],
					"destination" : [ "obj-22", 0 ],
					"hidden" : 0,
					"midpoints" : [  ]
				}

			}
, 			{
				"patchline" : 				{
					"source" : [ "obj-22", 0 ],
					"destination" : [ "obj-23", 0 ],
					"hidden" : 0,
					"midpoints" : [  ]
				}

			}
, 			{
				"patchline" : 				{
					"source" : [ "obj-20", 0 ],
					"destination" : [ "obj-23", 0 ],
					"hidden" : 0,
					"midpoints" : [  ]
				}

			}
, 			{
				"patchline" : 				{
					"source" : [ "obj-30", 0 ],
					"destination" : [ "obj-16", 1 ],
					"hidden" : 0,
					"midpoints" : [  ]
				}

			}
, 			{
				"patchline" : 				{
					"source" : [ "obj-34", 1 ],
					"destination" : [ "obj-32", 0 ],
					"hidden" : 1,
					"midpoints" : [  ]
				}

			}
, 			{
				"patchline" : 				{
					"source" : [ "obj-2", 1 ],
					"destination" : [ "obj-9", 0 ],
					"hidden" : 1,
					"midpoints" : [  ]
				}

			}
, 			{
				"patchline" : 				{
					"source" : [ "obj-30", 1 ],
					"destination" : [ "obj-14", 0 ],
					"hidden" : 0,
					"midpoints" : [  ]
				}

			}
 ]
	}

}
