{
	"patcher" : 	{
		"fileversion" : 1,
		"rect" : [ 64.0, 44.0, 833.0, 689.0 ],
		"bgcolor" : [ 0.972549, 0.972549, 0.784314, 1.0 ],
		"bglocked" : 1,
		"defrect" : [ 64.0, 44.0, 833.0, 689.0 ],
		"openrect" : [ 0.0, 0.0, 0.0, 0.0 ],
		"openinpresentation" : 0,
		"default_fontsize" : 12.0,
		"default_fontface" : 0,
		"default_fontname" : "Arial",
		"gridonopen" : 0,
		"gridsize" : [ 15.0, 15.0 ],
		"gridsnaponopen" : 0,
		"toolbarvisible" : 0,
		"boxanimatetime" : 200,
		"imprint" : 0,
		"boxes" : [ 			{
				"box" : 				{
					"maxclass" : "ubutton",
					"outlettype" : [ "bang", "bang", "", "int" ],
					"handoff" : "",
					"numinlets" : 1,
					"numoutlets" : 4,
					"patching_rect" : [ 91.0, 572.0, 658.0, 37.0 ],
					"id" : "obj-1"
				}

			}
, 			{
				"box" : 				{
					"maxclass" : "message",
					"text" : ";\rmax launch_browser http://www.cnmat.berkeley.edu/SDIF/",
					"linecount" : 2,
					"outlettype" : [ "" ],
					"fontsize" : 9.0,
					"hidden" : 1,
					"numinlets" : 2,
					"fontname" : "Arial",
					"numoutlets" : 1,
					"patching_rect" : [ 120.0, 675.0, 287.0, 25.0 ],
					"id" : "obj-2"
				}

			}
, 			{
				"box" : 				{
					"maxclass" : "comment",
					"text" : "more info:",
					"fontface" : 1,
					"fontsize" : 24.0,
					"frgb" : [ 0.0, 0.0, 0.0, 1.0 ],
					"numinlets" : 1,
					"fontname" : "Trebuchet MS",
					"numoutlets" : 0,
					"patching_rect" : [ 95.0, 573.0, 129.0, 34.0 ],
					"id" : "obj-3"
				}

			}
, 			{
				"box" : 				{
					"maxclass" : "comment",
					"text" : "(NB: RBEP is not an officially defined frame type, but is included here because it is used by SPEAR and Loris",
					"fontface" : 2,
					"fontsize" : 9.0,
					"frgb" : [ 0.0, 0.0, 0.0, 1.0 ],
					"numinlets" : 1,
					"fontname" : "Arial",
					"numoutlets" : 0,
					"patching_rect" : [ 172.0, 554.0, 504.0, 17.0 ],
					"id" : "obj-4"
				}

			}
, 			{
				"box" : 				{
					"maxclass" : "comment",
					"text" : "index, frequency, amplitude, phase, noise, timeOffset",
					"fontsize" : 12.0,
					"frgb" : [ 0.0, 0.0, 0.0, 1.0 ],
					"numinlets" : 1,
					"fontname" : "Helvetica",
					"numoutlets" : 0,
					"patching_rect" : [ 434.0, 534.0, 293.0, 18.0 ],
					"id" : "obj-5"
				}

			}
, 			{
				"box" : 				{
					"maxclass" : "comment",
					"text" : "Bandwidth-enhanced partial tracks",
					"fontsize" : 12.0,
					"frgb" : [ 0.0, 0.0, 0.0, 1.0 ],
					"numinlets" : 1,
					"fontname" : "Helvetica",
					"numoutlets" : 0,
					"patching_rect" : [ 137.0, 534.0, 195.0, 18.0 ],
					"id" : "obj-6"
				}

			}
, 			{
				"box" : 				{
					"maxclass" : "comment",
					"text" : "RBEP",
					"fontsize" : 18.0,
					"frgb" : [ 0.0, 0.0, 0.0, 1.0 ],
					"numinlets" : 1,
					"fontname" : "Trebuchet MS",
					"numoutlets" : 0,
					"patching_rect" : [ 54.0, 529.0, 54.0, 27.0 ],
					"id" : "obj-7"
				}

			}
, 			{
				"box" : 				{
					"maxclass" : "comment",
					"text" : "frequency, amplitude, decay rate, phase",
					"fontsize" : 12.0,
					"frgb" : [ 0.0, 0.0, 0.0, 1.0 ],
					"numinlets" : 1,
					"fontname" : "Helvetica",
					"numoutlets" : 0,
					"patching_rect" : [ 434.0, 508.0, 224.0, 18.0 ],
					"id" : "obj-8"
				}

			}
, 			{
				"box" : 				{
					"maxclass" : "comment",
					"text" : "Resonances/Exponentially Decaying Sinusoids",
					"fontsize" : 12.0,
					"frgb" : [ 0.0, 0.0, 0.0, 1.0 ],
					"numinlets" : 1,
					"fontname" : "Helvetica",
					"numoutlets" : 0,
					"patching_rect" : [ 137.0, 508.0, 261.0, 18.0 ],
					"id" : "obj-9"
				}

			}
, 			{
				"box" : 				{
					"maxclass" : "comment",
					"text" : "1RES",
					"fontsize" : 18.0,
					"frgb" : [ 0.0, 0.0, 0.0, 1.0 ],
					"numinlets" : 1,
					"fontname" : "Trebuchet MS",
					"numoutlets" : 0,
					"patching_rect" : [ 54.0, 503.0, 53.0, 27.0 ],
					"id" : "obj-10"
				}

			}
, 			{
				"box" : 				{
					"maxclass" : "comment",
					"text" : "harmonic partial number, frequency, amplitude, phase",
					"fontsize" : 12.0,
					"frgb" : [ 0.0, 0.0, 0.0, 1.0 ],
					"numinlets" : 1,
					"fontname" : "Helvetica",
					"numoutlets" : 0,
					"patching_rect" : [ 434.0, 482.0, 297.0, 18.0 ],
					"id" : "obj-11"
				}

			}
, 			{
				"box" : 				{
					"maxclass" : "comment",
					"text" : "Pseudo-harmonic Sinusoidal Tracks",
					"fontsize" : 12.0,
					"frgb" : [ 0.0, 0.0, 0.0, 1.0 ],
					"numinlets" : 1,
					"fontname" : "Helvetica",
					"numoutlets" : 0,
					"patching_rect" : [ 137.0, 482.0, 203.0, 18.0 ],
					"id" : "obj-12"
				}

			}
, 			{
				"box" : 				{
					"maxclass" : "comment",
					"text" : "1HRM",
					"fontsize" : 18.0,
					"frgb" : [ 0.0, 0.0, 0.0, 1.0 ],
					"numinlets" : 1,
					"fontname" : "Trebuchet MS",
					"numoutlets" : 0,
					"patching_rect" : [ 54.0, 477.0, 56.0, 27.0 ],
					"id" : "obj-13"
				}

			}
, 			{
				"box" : 				{
					"maxclass" : "comment",
					"text" : "columns in matrix:",
					"fontsize" : 12.0,
					"textcolor" : [ 0.4, 0.4, 0.8, 1.0 ],
					"frgb" : [ 0.4, 0.4, 0.8, 1.0 ],
					"numinlets" : 1,
					"fontname" : "Helvetica",
					"numoutlets" : 0,
					"patching_rect" : [ 434.0, 427.0, 121.0, 18.0 ],
					"id" : "obj-14"
				}

			}
, 			{
				"box" : 				{
					"maxclass" : "comment",
					"text" : "frame type:",
					"fontsize" : 12.0,
					"textcolor" : [ 0.4, 0.4, 0.8, 1.0 ],
					"frgb" : [ 0.4, 0.4, 0.8, 1.0 ],
					"numinlets" : 1,
					"fontname" : "Helvetica",
					"numoutlets" : 0,
					"patching_rect" : [ 137.0, 427.0, 82.0, 18.0 ],
					"id" : "obj-15"
				}

			}
, 			{
				"box" : 				{
					"maxclass" : "comment",
					"text" : "frame ID:",
					"fontsize" : 12.0,
					"textcolor" : [ 0.4, 0.4, 0.8, 1.0 ],
					"frgb" : [ 0.4, 0.4, 0.8, 1.0 ],
					"numinlets" : 1,
					"fontname" : "Helvetica",
					"numoutlets" : 0,
					"patching_rect" : [ 54.0, 427.0, 66.0, 18.0 ],
					"id" : "obj-16"
				}

			}
, 			{
				"box" : 				{
					"maxclass" : "button",
					"outlettype" : [ "bang" ],
					"hidden" : 1,
					"numinlets" : 1,
					"numoutlets" : 1,
					"patching_rect" : [ 789.0, 445.0, 15.0, 15.0 ],
					"id" : "obj-17"
				}

			}
, 			{
				"box" : 				{
					"maxclass" : "button",
					"outlettype" : [ "bang" ],
					"hidden" : 1,
					"numinlets" : 1,
					"numoutlets" : 1,
					"patching_rect" : [ 31.0, 431.0, 15.0, 15.0 ],
					"id" : "obj-18"
				}

			}
, 			{
				"box" : 				{
					"maxclass" : "comment",
					"text" : "index, frequency, amplitude, phase",
					"fontsize" : 12.0,
					"frgb" : [ 0.0, 0.0, 0.0, 1.0 ],
					"numinlets" : 1,
					"fontname" : "Helvetica",
					"numoutlets" : 0,
					"patching_rect" : [ 434.0, 456.0, 197.0, 18.0 ],
					"id" : "obj-19"
				}

			}
, 			{
				"box" : 				{
					"maxclass" : "comment",
					"text" : "Sinusoidal Tracks",
					"fontsize" : 12.0,
					"frgb" : [ 0.0, 0.0, 0.0, 1.0 ],
					"numinlets" : 1,
					"fontname" : "Helvetica",
					"numoutlets" : 0,
					"patching_rect" : [ 137.0, 456.0, 105.0, 18.0 ],
					"id" : "obj-20"
				}

			}
, 			{
				"box" : 				{
					"maxclass" : "comment",
					"text" : "1TRC",
					"fontsize" : 18.0,
					"frgb" : [ 0.0, 0.0, 0.0, 1.0 ],
					"numinlets" : 1,
					"fontname" : "Trebuchet MS",
					"numoutlets" : 0,
					"patching_rect" : [ 54.0, 451.0, 57.0, 27.0 ],
					"id" : "obj-21"
				}

			}
, 			{
				"box" : 				{
					"maxclass" : "comment",
					"text" : "(These are just a few common frame types)",
					"fontsize" : 12.0,
					"frgb" : [ 0.0, 0.0, 0.0, 1.0 ],
					"numinlets" : 1,
					"fontname" : "Arial",
					"numoutlets" : 0,
					"patching_rect" : [ 278.0, 400.0, 503.0, 20.0 ],
					"id" : "obj-22"
				}

			}
, 			{
				"box" : 				{
					"maxclass" : "comment",
					"text" : "http://www.cnmat.berkeley.edu/SDIF/",
					"fontface" : 1,
					"fontsize" : 24.0,
					"textcolor" : [ 0.4, 0.4, 0.8, 1.0 ],
					"frgb" : [ 0.4, 0.4, 0.8, 1.0 ],
					"numinlets" : 1,
					"fontname" : "Trebuchet MS",
					"numoutlets" : 0,
					"patching_rect" : [ 234.0, 573.0, 445.0, 34.0 ],
					"id" : "obj-23"
				}

			}
, 			{
				"box" : 				{
					"maxclass" : "comment",
					"text" : "SDIF frame types:",
					"fontface" : 1,
					"fontsize" : 24.0,
					"frgb" : [ 0.0, 0.0, 0.0, 1.0 ],
					"numinlets" : 1,
					"fontname" : "Trebuchet MS",
					"numoutlets" : 0,
					"patching_rect" : [ 22.0, 392.0, 209.0, 34.0 ],
					"id" : "obj-24"
				}

			}
, 			{
				"box" : 				{
					"maxclass" : "comment",
					"text" : "/",
					"fontsize" : 24.0,
					"frgb" : [ 0.0, 0.0, 0.0, 1.0 ],
					"numinlets" : 1,
					"fontname" : "Helvetica",
					"numoutlets" : 0,
					"patching_rect" : [ 155.0, 320.0, 28.0, 30.0 ],
					"id" : "obj-25"
				}

			}
, 			{
				"box" : 				{
					"maxclass" : "newobj",
					"text" : "interleave",
					"outlettype" : [ "list" ],
					"fontsize" : 14.0,
					"numinlets" : 2,
					"fontname" : "Helvetica",
					"numoutlets" : 1,
					"color" : [ 1.0, 0.890196, 0.090196, 1.0 ],
					"patching_rect" : [ 181.0, 322.0, 71.0, 20.0 ],
					"id" : "obj-26"
				}

			}
, 			{
				"box" : 				{
					"maxclass" : "button",
					"outlettype" : [ "bang" ],
					"hidden" : 1,
					"numinlets" : 1,
					"numoutlets" : 1,
					"patching_rect" : [ 790.0, 277.0, 15.0, 15.0 ],
					"id" : "obj-27"
				}

			}
, 			{
				"box" : 				{
					"maxclass" : "button",
					"outlettype" : [ "bang" ],
					"hidden" : 1,
					"numinlets" : 1,
					"numoutlets" : 1,
					"patching_rect" : [ 32.0, 263.0, 15.0, 15.0 ],
					"id" : "obj-28"
				}

			}
, 			{
				"box" : 				{
					"maxclass" : "comment",
					"text" : "parses out and rebuilds lists of partials for processing in Max",
					"fontsize" : 12.0,
					"frgb" : [ 0.0, 0.0, 0.0, 1.0 ],
					"numinlets" : 1,
					"fontname" : "Helvetica",
					"numoutlets" : 0,
					"patching_rect" : [ 278.0, 326.0, 332.0, 18.0 ],
					"id" : "obj-29"
				}

			}
, 			{
				"box" : 				{
					"maxclass" : "comment",
					"text" : "manages the births and deaths of partials when playing sinusoidal models",
					"fontsize" : 12.0,
					"frgb" : [ 0.0, 0.0, 0.0, 1.0 ],
					"numinlets" : 1,
					"fontname" : "Helvetica",
					"numoutlets" : 0,
					"patching_rect" : [ 278.0, 354.0, 403.0, 18.0 ],
					"id" : "obj-30"
				}

			}
, 			{
				"box" : 				{
					"maxclass" : "newobj",
					"text" : "threefates",
					"outlettype" : [ "list" ],
					"fontsize" : 14.0,
					"numinlets" : 1,
					"fontname" : "Helvetica",
					"numoutlets" : 1,
					"color" : [ 1.0, 0.890196, 0.090196, 1.0 ],
					"patching_rect" : [ 55.0, 353.0, 73.0, 20.0 ],
					"id" : "obj-31"
				}

			}
, 			{
				"box" : 				{
					"maxclass" : "newobj",
					"text" : "deinterleave",
					"outlettype" : [ "list", "list" ],
					"fontsize" : 14.0,
					"numinlets" : 1,
					"fontname" : "Helvetica",
					"numoutlets" : 2,
					"color" : [ 1.0, 0.890196, 0.090196, 1.0 ],
					"patching_rect" : [ 55.0, 322.0, 87.0, 20.0 ],
					"id" : "obj-32"
				}

			}
, 			{
				"box" : 				{
					"maxclass" : "comment",
					"text" : "SDIF helper objects:",
					"fontface" : 1,
					"fontsize" : 24.0,
					"frgb" : [ 0.0, 0.0, 0.0, 1.0 ],
					"numinlets" : 1,
					"fontname" : "Trebuchet MS",
					"numoutlets" : 0,
					"patching_rect" : [ 22.0, 284.0, 238.0, 34.0 ],
					"id" : "obj-33"
				}

			}
, 			{
				"box" : 				{
					"maxclass" : "bpatcher",
					"offset" : [ 1.0, 1.0 ],
					"name" : "z.banner.maxpat",
					"numinlets" : 0,
					"numoutlets" : 0,
					"patching_rect" : [ 16.0, 14.0, 817.0, 101.0 ],
					"id" : "obj-34",
					"args" : [  ]
				}

			}
, 			{
				"box" : 				{
					"maxclass" : "button",
					"outlettype" : [ "bang" ],
					"hidden" : 1,
					"numinlets" : 1,
					"numoutlets" : 1,
					"patching_rect" : [ 790.0, 182.0, 15.0, 15.0 ],
					"id" : "obj-37"
				}

			}
, 			{
				"box" : 				{
					"maxclass" : "button",
					"outlettype" : [ "bang" ],
					"hidden" : 1,
					"numinlets" : 1,
					"numoutlets" : 1,
					"patching_rect" : [ 32.0, 168.0, 15.0, 15.0 ],
					"id" : "obj-38"
				}

			}
, 			{
				"box" : 				{
					"maxclass" : "newobj",
					"text" : "pcontrol",
					"outlettype" : [ "" ],
					"fontsize" : 9.0,
					"hidden" : 1,
					"numinlets" : 1,
					"fontname" : "Arial",
					"numoutlets" : 1,
					"patching_rect" : [ 663.0, 687.0, 47.0, 17.0 ],
					"id" : "obj-39"
				}

			}
, 			{
				"box" : 				{
					"maxclass" : "newobj",
					"text" : "thispatcher",
					"outlettype" : [ "", "" ],
					"fontsize" : 9.0,
					"hidden" : 1,
					"numinlets" : 1,
					"fontname" : "Arial",
					"numoutlets" : 2,
					"patching_rect" : [ 22.0, 687.0, 61.0, 17.0 ],
					"id" : "obj-40",
					"save" : [ "#N", "thispatcher", ";", "#Q", "end", ";" ]
				}

			}
, 			{
				"box" : 				{
					"maxclass" : "bpatcher",
					"offset" : [ 0.0, -32.0 ],
					"outlettype" : [ "", "" ],
					"name" : "z.nav_buttons.maxpat",
					"numinlets" : 1,
					"lockeddragscroll" : 1,
					"numoutlets" : 2,
					"patching_rect" : [ 0.0, 630.0, 792.0, 41.0 ],
					"id" : "obj-41",
					"args" : [  ]
				}

			}
, 			{
				"box" : 				{
					"maxclass" : "newobj",
					"text" : "loadmess set 30",
					"outlettype" : [ "" ],
					"fontsize" : 9.0,
					"hidden" : 1,
					"numinlets" : 1,
					"fontname" : "Arial",
					"numoutlets" : 1,
					"patching_rect" : [ 22.0, 624.0, 83.0, 17.0 ],
					"id" : "obj-42"
				}

			}
, 			{
				"box" : 				{
					"maxclass" : "comment",
					"text" : "reads a stream from an SDIF file and stores it in Max.",
					"fontsize" : 12.0,
					"frgb" : [ 0.0, 0.0, 0.0, 1.0 ],
					"numinlets" : 1,
					"fontname" : "Helvetica",
					"numoutlets" : 0,
					"patching_rect" : [ 278.0, 197.0, 295.0, 18.0 ],
					"id" : "obj-43"
				}

			}
, 			{
				"box" : 				{
					"maxclass" : "comment",
					"text" : "gives information about an SDIF-buffer",
					"fontsize" : 12.0,
					"frgb" : [ 0.0, 0.0, 0.0, 1.0 ],
					"numinlets" : 1,
					"fontname" : "Helvetica",
					"numoutlets" : 0,
					"patching_rect" : [ 278.0, 249.0, 217.0, 18.0 ],
					"id" : "obj-44"
				}

			}
, 			{
				"box" : 				{
					"maxclass" : "comment",
					"text" : "gets data out of an SDIF-buffer into Max lists",
					"fontsize" : 12.0,
					"frgb" : [ 0.0, 0.0, 0.0, 1.0 ],
					"numinlets" : 1,
					"fontname" : "Helvetica",
					"numoutlets" : 0,
					"patching_rect" : [ 278.0, 222.0, 248.0, 18.0 ],
					"id" : "obj-45"
				}

			}
, 			{
				"box" : 				{
					"maxclass" : "newobj",
					"text" : "SDIF-info",
					"outlettype" : [ "list" ],
					"fontsize" : 14.0,
					"numinlets" : 1,
					"fontname" : "Helvetica",
					"numoutlets" : 1,
					"color" : [ 1.0, 0.890196, 0.090196, 1.0 ],
					"patching_rect" : [ 57.0, 249.0, 70.0, 20.0 ],
					"id" : "obj-46"
				}

			}
, 			{
				"box" : 				{
					"maxclass" : "newobj",
					"text" : "SDIF-tuples",
					"outlettype" : [ "list" ],
					"fontsize" : 14.0,
					"numinlets" : 1,
					"fontname" : "Helvetica",
					"numoutlets" : 1,
					"color" : [ 1.0, 0.890196, 0.090196, 1.0 ],
					"patching_rect" : [ 57.0, 222.0, 84.0, 20.0 ],
					"id" : "obj-47"
				}

			}
, 			{
				"box" : 				{
					"maxclass" : "newobj",
					"text" : "SDIF-buffer overview",
					"outlettype" : [ "bang" ],
					"fontsize" : 14.0,
					"numinlets" : 1,
					"fontname" : "Helvetica",
					"numoutlets" : 1,
					"color" : [ 1.0, 0.890196, 0.090196, 1.0 ],
					"patching_rect" : [ 57.0, 197.0, 142.0, 20.0 ],
					"id" : "obj-48"
				}

			}
, 			{
				"box" : 				{
					"maxclass" : "comment",
					"text" : "SDIF objects:",
					"fontface" : 1,
					"fontsize" : 24.0,
					"frgb" : [ 0.0, 0.0, 0.0, 1.0 ],
					"numinlets" : 1,
					"fontname" : "Trebuchet MS",
					"numoutlets" : 0,
					"patching_rect" : [ 22.0, 123.0, 157.0, 34.0 ],
					"id" : "obj-49"
				}

			}
, 			{
				"box" : 				{
					"maxclass" : "comment",
					"text" : "function:",
					"fontsize" : 12.0,
					"textcolor" : [ 0.4, 0.4, 0.8, 1.0 ],
					"frgb" : [ 0.4, 0.4, 0.8, 1.0 ],
					"numinlets" : 1,
					"fontname" : "Helvetica",
					"numoutlets" : 0,
					"patching_rect" : [ 276.0, 160.0, 136.0, 18.0 ],
					"id" : "obj-50"
				}

			}
, 			{
				"box" : 				{
					"maxclass" : "comment",
					"text" : "object:",
					"fontsize" : 12.0,
					"textcolor" : [ 0.4, 0.4, 0.8, 1.0 ],
					"frgb" : [ 0.4, 0.4, 0.8, 1.0 ],
					"numinlets" : 1,
					"fontname" : "Helvetica",
					"numoutlets" : 0,
					"patching_rect" : [ 62.0, 160.0, 51.0, 18.0 ],
					"id" : "obj-51"
				}

			}
, 			{
				"box" : 				{
					"maxclass" : "panel",
					"shadow" : 2,
					"rounded" : 20,
					"bgcolor" : [ 1.0, 1.0, 1.0, 1.0 ],
					"bordercolor" : [ 0.4, 0.4, 0.8, 1.0 ],
					"numinlets" : 1,
					"background" : 1,
					"numoutlets" : 0,
					"patching_rect" : [ 15.0, 388.0, 795.0, 237.0 ],
					"id" : "obj-52"
				}

			}
, 			{
				"box" : 				{
					"maxclass" : "panel",
					"shadow" : 2,
					"rounded" : 20,
					"bgcolor" : [ 1.0, 1.0, 1.0, 1.0 ],
					"bordercolor" : [ 0.4, 0.4, 0.8, 1.0 ],
					"numinlets" : 1,
					"background" : 1,
					"numoutlets" : 0,
					"patching_rect" : [ 15.0, 117.0, 795.0, 269.0 ],
					"id" : "obj-53"
				}

			}
 ],
		"lines" : [ 			{
				"patchline" : 				{
					"source" : [ "obj-42", 0 ],
					"destination" : [ "obj-41", 0 ],
					"hidden" : 1,
					"midpoints" : [  ]
				}

			}
, 			{
				"patchline" : 				{
					"source" : [ "obj-41", 0 ],
					"destination" : [ "obj-40", 0 ],
					"hidden" : 1,
					"midpoints" : [  ]
				}

			}
, 			{
				"patchline" : 				{
					"source" : [ "obj-1", 1 ],
					"destination" : [ "obj-2", 0 ],
					"hidden" : 1,
					"midpoints" : [  ]
				}

			}
, 			{
				"patchline" : 				{
					"source" : [ "obj-41", 1 ],
					"destination" : [ "obj-39", 0 ],
					"hidden" : 1,
					"midpoints" : [  ]
				}

			}
, 			{
				"patchline" : 				{
					"source" : [ "obj-18", 0 ],
					"destination" : [ "obj-17", 0 ],
					"hidden" : 0,
					"midpoints" : [  ]
				}

			}
, 			{
				"patchline" : 				{
					"source" : [ "obj-38", 0 ],
					"destination" : [ "obj-37", 0 ],
					"hidden" : 0,
					"midpoints" : [  ]
				}

			}
, 			{
				"patchline" : 				{
					"source" : [ "obj-28", 0 ],
					"destination" : [ "obj-27", 0 ],
					"hidden" : 0,
					"midpoints" : [  ]
				}

			}
 ]
	}

}
