max v2;#N vpatcher 22 101 484 524;#P window setfont "Sans Serif" 9.;#P comment 119 342 153 196617 the "out~ 1" is used for poly~;#N out~ 1;#P newobj 67 339 48 196617 out~ 1;#P comment 94 33 243 196617 the "in 1" object is for using this patch in poly~;#N in 1;#P newobj 62 31 30 196617 in 1;#B color 5;#N vpatcher 524 176 765 375;#P window setfont "Sans Serif" 9.;#P comment 75 87 126 196617 example: pitch of 2. and duration of 1000 is converted to the list that line~ understands to mean "count to 1000 in 500 ms";#P comment 75 35 126 196617 this converts the "pitch" and "duration" values into a list that line~ can understand;#P inlet 47 28 15 0;#P outlet 22 142 15 0;#P inlet 22 28 15 0;#P newex 22 112 35 196617 zl rev;#P newex 22 61 29 196617 !/ 1.;#P newex 22 90 43 196617 pack f f;#P connect 3 0 1 0;#P connect 1 0 0 0;#P connect 0 0 2 0;#P connect 2 0 4 0;#P connect 5 0 1 1;#P connect 5 0 0 1;#P pop;#P newobj 33 162 78 196617 p list-for-line~;#P comment 151 302 212 196617 ¥compare play~ with groove~ \, wave~ \, index~;#P comment 78 222 78 196617 for observation;#P message 73 205 162 196617;#P newex 73 182 61 196617 prepend set;#P newex 33 86 159 196617 unpack 1. 1000 1. name;#P comment 144 274 212 196617 play~ takes playback instructions in the form of a signal as millisecond location to playback;#P inlet 33 33 15 0;#P outlet 33 332 15 0;#P newex 33 306 108 196617 *~ 0.5;#P newex 33 217 27 196617 t l 0;#P newex 231 150 61 196617 prepend set;#P newex 33 246 31 196617 line~;#P newex 33 271 74 196617 play~ sample1;#P user panel 53 22 291 33;#X brgb 255 255 255;#X frgb 94 255 43;#X border 5;#X rounded 0;#X shadow 0;#X done;#P user panel 56 332 241 32;#X brgb 255 255 255;#X frgb 94 255 43;#X border 5;#X rounded 0;#X shadow 0;#X done;#P connect 16 0 10 0;#P connect 8 0 10 0;#P connect 10 0 15 0;#P connect 15 0 5 0;#P connect 5 0 3 0;#P connect 5 1 3 0;#P connect 3 0 2 0;#P fasten 4 0 2 0 236 268 38 268;#P connect 2 0 6 0;#P connect 6 0 7 0;#P connect 6 0 18 0;#P connect 15 0 11 0;#P connect 11 0 12 0;#P connect 10 1 15 1;#P connect 10 2 6 1;#P fasten 10 3 4 0 215 110;#P pop;