max v2;#N vpatcher 11 58 874 611;#P origin 67 0;#P window setfont "Sans Serif" 18.;#P comment 31 291 164 196626 ...which triggers an envelope.;#B color 14;#P window setfont "Sans Serif" 9.;#P message 18 346 105 196617 0 \, 1 10 0.5 50 0 700;#P outlet 199 494 15 0;#P newex 18 376 31 196617 line~;#P newex 18 44 27 196617 t b l;#P newex 199 160 27 196617 * 0.;#P comment 128 76 32 196617 slope;#P comment 279 74 468 196617 the third through tenth list elements are frequency ratios \, multiplied by the fundamental frequency.;#P comment 813 329 23 196617 s^7;#P comment 725 329 23 196617 s^6;#P comment 639 329 23 196617 s^5;#P comment 552 327 23 196617 s^4;#P comment 464 327 23 196617 s^3;#P comment 395 326 23 196617 s^2;#P newex 778 329 27 196617 * 0.;#P newex 691 328 27 196617 * 0.;#P newex 604 327 27 196617 * 0.;#P newex 517 326 27 196617 * 0.;#P newex 430 325 27 196617 * 0.;#P newex 361 326 27 196617 * 0.;#P newex 286 251 27 196617 f;#P newex 199 460 27 196617 *~;#P newex 761 161 27 196617 * 0.;#P newex 761 372 27 196617 *~;#P newex 761 188 39 196617 cycle~;#P newex 674 161 27 196617 * 0.;#P newex 674 372 27 196617 *~;#P newex 674 188 39 196617 cycle~;#P newex 587 161 27 196617 * 0.;#P newex 587 372 27 196617 *~;#P newex 587 188 39 196617 cycle~;#P newex 500 161 27 196617 * 0.;#P newex 500 372 27 196617 *~;#P newex 500 188 39 196617 cycle~;#P newex 413 161 27 196617 * 0.;#P newex 413 372 27 196617 *~;#P newex 413 188 39 196617 cycle~;#P newex 344 161 27 196617 * 0.;#P newex 269 162 27 196617 * 0.;#P newex 344 372 27 196617 *~;#P newex 344 188 39 196617 cycle~;#P newex 269 372 27 196617 *~;#P newex 122 88 651 196617 unpack f f f f f f f f f f;#N comlet list (slope \, base freq \, 8 ratios);#P inlet 18 25 15 0;#P newex 269 188 39 196617 cycle~;#P newex 199 188 39 196617 cycle~;#P comment 293 230 48 196617 s (slope);#P comment 164 76 111 196617 fundamental frequency;#P window setfont "Sans Serif" 18.;#P comment 45 38 589 196626 <--- after all the values are set \, a bang is sent...;#B color 14;#P connect 5 0 44 0;#P connect 44 0 47 0;#P connect 47 0 45 0;#P connect 44 1 6 0;#P connect 6 1 43 0;#P connect 43 0 3 0;#P connect 3 0 27 0;#P connect 7 0 27 0;#P connect 9 0 27 0;#P connect 13 0 27 0;#P connect 16 0 27 0;#P connect 19 0 27 0;#P connect 22 0 27 0;#P connect 25 0 27 0;#P connect 27 0 46 0;#P connect 6 2 43 1;#P connect 45 0 27 1;#P connect 6 1 10 0;#P connect 10 0 4 0;#P connect 4 0 7 0;#P connect 6 3 10 1;#P fasten 6 0 28 0 127 226 291 226;#P connect 28 0 7 1;#P connect 6 1 11 0;#P connect 11 0 8 0;#P connect 8 0 9 0;#P connect 6 4 11 1;#P connect 28 0 29 0;#P connect 29 0 9 1;#P connect 28 0 29 1;#P connect 6 1 14 0;#P connect 14 0 12 0;#P connect 12 0 13 0;#P connect 6 5 14 1;#P fasten 29 0 30 0 366 350 423 350 423 321 435 321;#P connect 30 0 13 1;#P connect 28 0 30 1;#P connect 6 1 17 0;#P connect 17 0 15 0;#P connect 15 0 16 0;#P connect 6 6 17 1;#P fasten 30 0 31 0 435 350 503 350 503 323 522 323;#P connect 31 0 16 1;#P connect 28 0 31 1;#P connect 6 1 20 0;#P connect 20 0 18 0;#P connect 18 0 19 0;#P connect 6 7 20 1;#P fasten 31 0 32 0 522 351 593 351 593 325 609 325;#P connect 32 0 19 1;#P connect 28 0 32 1;#P connect 6 1 23 0;#P connect 23 0 21 0;#P connect 21 0 22 0;#P connect 6 8 23 1;#P fasten 32 0 33 0 609 351 682 351 682 326 696 326;#P connect 33 0 22 1;#P connect 28 0 33 1;#P connect 6 1 26 0;#P connect 26 0 24 0;#P connect 24 0 25 0;#P connect 6 9 26 1;#P fasten 33 0 34 0 696 351 770 351 770 326 783 326;#P connect 34 0 25 1;#P connect 28 0 34 1;#P pop;