max v2;#N vpatcher 1 44 754 356;#P button 619 156 15 0;#P window setfont "Sans Serif" 9.;#P window linecount 1;#P newex 619 184 88 196617 sneak-random 10;#P hidden newex 619 73 33 196617 lb 10;#P number 619 97 35 9 2 10 7 3 0 0 0 221 221 221 222 222 222 0 0 0;#P hidden newex 175 156 43 196617 r range;#P user umenu 50 184 67 196645 1 64 200 0;#X add unfiltered;#X add anti-bis;#X add anti-osc;#X add anti-bis&osc;#N vpatcher 50 40 362 299;#N comlet data;#P inlet 202 38 15 0;#N comlet filter type;#P inlet 48 38 15 0;#P window setfont "Sans Serif" 9.;#P newex 108 38 45 196617 loadbang;#P newex 48 61 27 196617 + 1;#P number 48 84 28 9 1 4 3 3 0 0 0 221 221 221 222 222 222 0 0 0;#P message 108 84 14 196617 1;#N comlet to display;#P outlet 48 186 15 0;#P newex 150 137 45 196617 anti-osc;#P newex 99 137 43 196617 anti-bis;#P newex 201 137 65 196617 anti-bis&osc;#P newex 48 110 164 196617 gate 4;#P newex 185 186 39 196617 s again;#P connect 10 0 8 0;#P connect 8 0 7 0;#P connect 7 0 1 0;#P connect 6 0 1 0;#P connect 4 0 5 0;#P connect 2 0 5 0;#P connect 1 0 5 0;#P connect 3 0 5 0;#P connect 1 1 3 0;#P connect 9 0 6 0;#P connect 1 2 4 0;#P connect 4 1 0 0;#P connect 2 1 0 0;#P connect 3 1 0 0;#P connect 1 3 2 0;#P connect 11 0 1 1;#P pop;#P newobj 50 222 87 196617 p filter;#N vpatcher 50 40 300 337;#N comlet number;#P inlet 21 53 15 0;#P window setfont "Sans Serif" 9.;#P number 73 159 35 9 0 0 64 3 0 0 0 221 221 221 222 222 222 0 0 0;#P number 21 159 35 9 0 0 0 3 0 0 0 221 221 221 222 222 222 0 0 0;#N counter;#X flags 0 0;#P newobj 21 129 88 196617 counter;#P button 78 105 15 0;#P button 21 106 15 0;#P newex 78 53 39 196617 r start;#N comlet clear display;#P inlet 127 53 15 0;#P newex 21 212 62 196617 pack;#N vtable 84 1 379 755 545 979705 10 display;#P newobj 21 243 65 196617 table display;#P newex 21 184 27 196617 - 1;#P newex 152 53 45 196617 loadbang;#P message 116 130 14 196617 0;#P message 146 130 31 196617 clear;#P comment 101 107 74 196617 < clear display;#P connect 14 0 9 0;#P connect 9 0 11 0;#P connect 11 0 12 0;#P connect 12 0 4 0;#P connect 4 0 6 0;#P connect 1 0 5 0;#P connect 6 0 5 0;#P connect 2 0 13 0;#P connect 14 0 13 0;#P connect 13 0 6 1;#P connect 8 0 10 0;#P connect 3 0 10 0;#P connect 7 0 10 0;#P connect 10 0 11 3;#P connect 10 0 2 0;#P connect 10 0 1 0;#P pop;#P newobj 50 252 48 196617 p display;#P button 100 252 17 0;#P comment 118 253 33 196617 clear;#P button 496 156 15 0;#P newex 496 184 91 196617 periodic 10 0.66;#P flonum 576 156 37 9 0. 1. 71 3 0 0 0 221 221 221 222 222 222 0 0 0;#P flonum 424 156 36 9 0. 1. 71 3 0 0 0 221 221 221 222 222 222 0 0 0;#P newex 337 184 97 196617 brownian 0 10 0.2;#P button 337 156 15 0;#P newex 232 184 62 196617 xrandom 10;#P button 232 156 15 0;#P user umenu 127 96 90 196645 1 64 112 0;#X add select...;#X add random;#X add xrandom;#X add brownian;#X add periodic;#X add sneak-random;#P hidden message 127 80 14 196617 4;#P hidden message 141 80 14 196617 3;#N vpatcher 131 318 392 549;#N comlet brownian;#P outlet 114 172 15 0;#P window setfont "Sans Serif" 9.;#P newex 17 55 27 196617 t b i;#P newex 164 79 43 196617 s range;#P inlet 164 32 15 0;#N comlet random;#P outlet 34 172 15 0;#N comlet xrandom;#P outlet 54 172 15 0;#P newex 34 140 93 196617 gate 5;#N comlet sneak-random;#P outlet 74 172 15 0;#N comlet brownian;#P outlet 94 172 15 0;#N comlet umenu;#P inlet 17 32 15 0;#P button 117 92 15 0;#N vpatcher 48 48 229 230;#P window setfont "Sans Serif" 9.;#P newex 44 73 40 196617 Uzi;#P outlet 44 108 15 0;#P message 44 52 20 196617 84;#P inlet 44 26 15 0;#P newex 68 52 39 196617 s start;#P connect 1 0 2 0;#P connect 2 0 4 0;#P connect 4 0 3 0;#P connect 1 0 0 0;#P pop;#P newobj 117 114 59 196617 p calculate!;#P newex 74 114 39 196617 r again;#P connect 3 0 11 0;#P connect 11 1 6 0;#P connect 6 0 8 0;#P connect 6 1 7 0;#P connect 6 2 5 0;#P connect 6 3 4 0;#P connect 6 4 12 0;#P connect 11 0 2 0;#P connect 2 0 1 0;#P connect 1 0 6 1;#P connect 0 0 6 1;#P connect 9 0 10 0;#P pop;#P newobj 127 122 502 196617 p select-method;#P button 127 156 15 0;#P newex 127 184 58 196617 random 10;#P comment 98 97 30 196617 type;#P comment 359 157 65 196617 brown factor;#P comment 520 157 55 196617 periodicity;#P comment 17 48 513 196617 Exploring different types of random number generators and how they can be influenced by filter methods.;#P comment 14 186 35 196617 filters;#P window setfont "Sans Serif" 20.;#P comment 17 20 296 196628 Random Number Generators;#P window setfont "Sans Serif" 9.;#P comment 17 62 225 196617 © 1995-2008 by Karlheinz Essl <www.essl.at>;#P comment 586 98 35 196617 range;#P connect 26 0 25 0;#P connect 25 0 24 0;#P hidden connect 23 0 24 1;#P hidden connect 19 0 12 0;#P hidden connect 12 0 13 0;#P hidden connect 11 0 13 0;#P connect 13 0 10 0;#P connect 10 0 9 0;#P connect 9 0 8 0;#P fasten 20 0 25 1 501 210 132 210;#P fasten 17 0 25 1 342 210 132 210;#P fasten 15 0 25 1 237 210 132 210;#P fasten 8 0 25 1 132 210 132 210;#P fasten 30 0 25 1 624 210 132 210;#P hidden connect 18 0 11 0;#P hidden connect 27 0 8 1;#P fasten 10 1 14 0 255 148 237 148;#P connect 14 0 15 0;#P hidden fasten 27 0 15 1 180 178 289 178;#P fasten 10 2 16 0 378 148 342 148;#P connect 16 0 17 0;#P hidden fasten 27 0 17 2 180 177 400 177;#P connect 18 0 17 3;#P connect 10 3 21 0;#P connect 21 0 20 0;#P hidden fasten 27 0 20 1 180 177 541 177;#P connect 19 0 20 2;#P hidden connect 29 0 28 0;#P connect 28 0 10 1;#P connect 10 4 31 0;#P connect 31 0 30 0;#P hidden fasten 27 0 30 1 180 178 702 178;#P pop;