max v2;#N vpatcher 2 44 548 495;#P origin 0 -1;#P window setfont "Sans Serif" 9.;#P window linecount 1;#P hidden newex 218 218 66 196617 key-bang 27;#P newex 37 130 66 196617 key-bang 32;#N vpatcher 476 340 725 624;#P window setfont "Sans Serif" 9.;#P newex 39 106 36 196617 int $1;#P number 39 129 22 9 1 4 3 3 0 0 0 221 221 221 222 222 222 0 0 0;#N comlet chosen element;#P outlet 39 226 15 0;#P newex 39 189 36 196617 alea;#P newex 39 154 90 196617 gate 3;#P newex 119 190 48 196617 sequence;#P newex 79 190 36 196617 series;#P newex 21 59 28 196617 t b b;#N comlet bang (choose one element);#P inlet 21 33 15 0;#N comlet selection principle (1-3);#P inlet 94 33 15 0;#N comlet list (supply);#P inlet 157 33 15 0;#N comlet bang (when supply is exhausted);#P outlet 92 226 15 0;#P connect 3 0 4 0;#P connect 4 1 11 0;#P connect 2 0 11 0;#P connect 11 0 10 0;#P connect 10 0 7 0;#P connect 7 0 8 0;#P connect 6 0 9 0;#P connect 5 0 9 0;#P connect 8 0 9 0;#P connect 1 0 8 1;#P connect 7 1 5 0;#P connect 5 1 0 0;#P connect 6 1 0 0;#P connect 1 0 5 1;#P connect 4 0 7 1;#P connect 7 2 6 0;#P connect 1 0 6 1;#P pop;#P newobj 37 192 249 196617 p selection-principles;#P message 275 120 29 196617 a b c;#P message 292 139 50 196617 1 2 3 4 5;#P button 37 156 23 0;#P message 306 159 118 196617 fl cl perc pno vl vla vcl;#P user umenu 156 159 56 196645 1 64 175 0;#X add select...;#X add alea;#X add series;#X add sequence;#P window linecount 2;#P comment 214 155 48 196617 selection principle;#P window linecount 1;#P comment 61 161 93 196617 select one element;#P hidden message 156 137 14 196617 3;#P newex 37 226 38 196617 collect;#P button 76 226 17 0;#P hidden newex 156 111 45 196617 loadbang;#P comment 94 228 94 196617 clear display [esc];#P button 276 226 15 0;#P comment 294 227 154 196617 bang (when supply is exhausted);#P window linecount 2;#P comment 17 50 391 196617 Exploring the different selection principles that have been introduced by G. M . Koenig in his algorithmic composition program "Projekt 1" (PR1).;#P window setfont "Sans Serif" 20.;#P window linecount 1;#P comment 17 21 191 196628 Selection Principles;#P window setfont "Sans Serif" 9.;#P comment 18 76 225 196617 © 1995-2008 by Karlheinz Essl <www.essl.at>;#P window setfont "Sans Serif" 36.;#P comment 425 122 24 196644 };#P window setfont "Sans Serif" 9.;#P comment 450 142 39 196617 supply;#P comment 104 132 43 196617 [space];#P window setfont "Sans Serif" 18.;#P user textedit 37 260 466 386 32896 3 18;#P connect 22 0 18 0;#P connect 18 0 21 0;#P connect 21 0 12 0;#P connect 12 0 0 0;#P hidden connect 11 0 12 1;#P hidden connect 10 0 11 0;#P hidden connect 16 0 11 0;#P hidden connect 23 0 11 0;#P hidden connect 10 0 13 0;#P hidden connect 13 0 16 0;#P connect 16 0 21 1;#P hidden connect 10 0 20 0;#P connect 20 0 21 2;#P fasten 19 0 21 2 297 182 280 182;#P fasten 17 0 21 2 311 182 280 182;#P connect 21 1 8 0;#P pop;