{
	"patcher" : 	{
		"fileversion" : 1,
		"rect" : [ 161.0, 78.0, 454.0, 553.0 ],
		"bglocked" : 0,
		"defrect" : [ 161.0, 78.0, 454.0, 553.0 ],
		"openrect" : [ 0.0, 0.0, 0.0, 0.0 ],
		"openinpresentation" : 0,
		"default_fontsize" : 12.0,
		"default_fontface" : 0,
		"default_fontname" : "Arial",
		"gridonopen" : 0,
		"gridsize" : [ 15.0, 15.0 ],
		"gridsnaponopen" : 0,
		"toolbarvisible" : 1,
		"boxanimatetime" : 200,
		"imprint" : 0,
		"boxes" : [ 			{
				"box" : 				{
					"maxclass" : "comment",
					"text" : "This abstraction is obsolete. Use zl scramble instead.",
					"linecount" : 2,
					"fontsize" : 12.0,
					"numoutlets" : 0,
					"patching_rect" : [ 237.0, 147.0, 164.0, 34.0 ],
					"frgb" : [ 0.0, 0.0, 0.0, 1.0 ],
					"fontname" : "Arial",
					"id" : "obj-18",
					"numinlets" : 1
				}

			}
, 			{
				"box" : 				{
					"maxclass" : "newobj",
					"text" : "zl scramble",
					"fontsize" : 12.0,
					"numoutlets" : 2,
					"patching_rect" : [ 265.0, 189.0, 71.0, 20.0 ],
					"outlettype" : [ "", "" ],
					"fontname" : "Arial",
					"id" : "obj-15",
					"numinlets" : 2
				}

			}
, 			{
				"box" : 				{
					"maxclass" : "bpatcher",
					"prototypename" : "cnmat_badge",
					"numoutlets" : 0,
					"patching_rect" : [ 17.0, 383.0, 296.0, 86.0 ],
					"id" : "obj-14",
					"name" : "badge.maxpat",
					"args" : [ "scramble", "2.0b", "Wright & Zbyszynski", "scramble", 6666 ],
					"numinlets" : 0
				}

			}
, 			{
				"box" : 				{
					"maxclass" : "newobj",
					"text" : "t b i",
					"fontsize" : 9.0,
					"numoutlets" : 2,
					"patching_rect" : [ 34.0, 221.0, 27.0, 17.0 ],
					"outlettype" : [ "bang", "int" ],
					"fontname" : "Arial",
					"id" : "obj-2",
					"numinlets" : 1
				}

			}
, 			{
				"box" : 				{
					"maxclass" : "newobj",
					"text" : "Uzi",
					"fontsize" : 9.0,
					"numoutlets" : 3,
					"patching_rect" : [ 75.0, 153.0, 40.0, 17.0 ],
					"outlettype" : [ "bang", "bang", "int" ],
					"fontname" : "Arial",
					"id" : "obj-3",
					"numinlets" : 2
				}

			}
, 			{
				"box" : 				{
					"maxclass" : "newobj",
					"text" : "t i i i",
					"fontsize" : 9.0,
					"numoutlets" : 3,
					"patching_rect" : [ 92.0, 120.0, 57.0, 17.0 ],
					"outlettype" : [ "int", "int", "int" ],
					"fontname" : "Arial",
					"id" : "obj-4",
					"numinlets" : 1
				}

			}
, 			{
				"box" : 				{
					"maxclass" : "newobj",
					"text" : "zl mth -1",
					"fontsize" : 9.0,
					"numoutlets" : 2,
					"patching_rect" : [ 57.0, 266.0, 52.0, 17.0 ],
					"outlettype" : [ "", "" ],
					"fontname" : "Arial",
					"id" : "obj-5",
					"numinlets" : 2
				}

			}
, 			{
				"box" : 				{
					"maxclass" : "outlet",
					"numoutlets" : 0,
					"patching_rect" : [ 168.0, 360.0, 15.0, 15.0 ],
					"id" : "obj-6",
					"numinlets" : 1,
					"comment" : ""
				}

			}
, 			{
				"box" : 				{
					"maxclass" : "inlet",
					"numoutlets" : 1,
					"patching_rect" : [ 92.0, 37.0, 15.0, 15.0 ],
					"outlettype" : [ "" ],
					"id" : "obj-7",
					"numinlets" : 0,
					"comment" : ""
				}

			}
, 			{
				"box" : 				{
					"maxclass" : "newobj",
					"text" : "t -1 zlclear b",
					"fontsize" : 9.0,
					"numoutlets" : 3,
					"patching_rect" : [ 105.0, 209.0, 70.0, 17.0 ],
					"outlettype" : [ "int", "zlclear", "bang" ],
					"fontname" : "Arial",
					"id" : "obj-8",
					"numinlets" : 1
				}

			}
, 			{
				"box" : 				{
					"maxclass" : "newobj",
					"text" : "Urn 10",
					"fontsize" : 9.0,
					"numoutlets" : 2,
					"patching_rect" : [ 74.0, 183.0, 41.0, 17.0 ],
					"outlettype" : [ "int", "bang" ],
					"fontname" : "Arial",
					"id" : "obj-9",
					"numinlets" : 2
				}

			}
, 			{
				"box" : 				{
					"maxclass" : "newobj",
					"text" : "t l clear l",
					"fontsize" : 9.0,
					"numoutlets" : 3,
					"patching_rect" : [ 92.0, 71.0, 119.0, 17.0 ],
					"outlettype" : [ "", "clear", "" ],
					"fontname" : "Arial",
					"id" : "obj-10",
					"numinlets" : 1
				}

			}
, 			{
				"box" : 				{
					"maxclass" : "newobj",
					"text" : "zl len",
					"fontsize" : 9.0,
					"numoutlets" : 2,
					"patching_rect" : [ 92.0, 98.0, 34.0, 17.0 ],
					"outlettype" : [ "", "" ],
					"fontname" : "Arial",
					"id" : "obj-11",
					"numinlets" : 2
				}

			}
, 			{
				"box" : 				{
					"maxclass" : "newobj",
					"text" : "zl group 256",
					"fontsize" : 9.0,
					"numoutlets" : 2,
					"patching_rect" : [ 168.0, 328.0, 67.0, 17.0 ],
					"outlettype" : [ "", "" ],
					"fontname" : "Arial",
					"id" : "obj-12",
					"numinlets" : 2
				}

			}
 ],
		"lines" : [ 			{
				"patchline" : 				{
					"source" : [ "obj-4", 2 ],
					"destination" : [ "obj-12", 1 ],
					"hidden" : 0,
					"midpoints" : [  ]
				}

			}
, 			{
				"patchline" : 				{
					"source" : [ "obj-12", 0 ],
					"destination" : [ "obj-6", 0 ],
					"hidden" : 0,
					"midpoints" : [  ]
				}

			}
, 			{
				"patchline" : 				{
					"source" : [ "obj-8", 1 ],
					"destination" : [ "obj-12", 0 ],
					"hidden" : 0,
					"midpoints" : [  ]
				}

			}
, 			{
				"patchline" : 				{
					"source" : [ "obj-8", 2 ],
					"destination" : [ "obj-12", 0 ],
					"hidden" : 0,
					"midpoints" : [  ]
				}

			}
, 			{
				"patchline" : 				{
					"source" : [ "obj-5", 0 ],
					"destination" : [ "obj-12", 0 ],
					"hidden" : 0,
					"midpoints" : [  ]
				}

			}
, 			{
				"patchline" : 				{
					"source" : [ "obj-9", 1 ],
					"destination" : [ "obj-8", 0 ],
					"hidden" : 0,
					"midpoints" : [  ]
				}

			}
, 			{
				"patchline" : 				{
					"source" : [ "obj-4", 1 ],
					"destination" : [ "obj-9", 1 ],
					"hidden" : 0,
					"midpoints" : [  ]
				}

			}
, 			{
				"patchline" : 				{
					"source" : [ "obj-8", 0 ],
					"destination" : [ "obj-5", 1 ],
					"hidden" : 0,
					"midpoints" : [  ]
				}

			}
, 			{
				"patchline" : 				{
					"source" : [ "obj-2", 1 ],
					"destination" : [ "obj-5", 1 ],
					"hidden" : 0,
					"midpoints" : [  ]
				}

			}
, 			{
				"patchline" : 				{
					"source" : [ "obj-11", 0 ],
					"destination" : [ "obj-4", 0 ],
					"hidden" : 0,
					"midpoints" : [  ]
				}

			}
, 			{
				"patchline" : 				{
					"source" : [ "obj-10", 0 ],
					"destination" : [ "obj-11", 0 ],
					"hidden" : 0,
					"midpoints" : [  ]
				}

			}
, 			{
				"patchline" : 				{
					"source" : [ "obj-7", 0 ],
					"destination" : [ "obj-10", 0 ],
					"hidden" : 0,
					"midpoints" : [  ]
				}

			}
, 			{
				"patchline" : 				{
					"source" : [ "obj-4", 0 ],
					"destination" : [ "obj-3", 0 ],
					"hidden" : 0,
					"midpoints" : [  ]
				}

			}
, 			{
				"patchline" : 				{
					"source" : [ "obj-10", 1 ],
					"destination" : [ "obj-9", 0 ],
					"hidden" : 0,
					"midpoints" : [  ]
				}

			}
, 			{
				"patchline" : 				{
					"source" : [ "obj-3", 0 ],
					"destination" : [ "obj-9", 0 ],
					"hidden" : 0,
					"midpoints" : [  ]
				}

			}
, 			{
				"patchline" : 				{
					"source" : [ "obj-2", 0 ],
					"destination" : [ "obj-5", 0 ],
					"hidden" : 0,
					"midpoints" : [  ]
				}

			}
, 			{
				"patchline" : 				{
					"source" : [ "obj-10", 2 ],
					"destination" : [ "obj-5", 0 ],
					"hidden" : 0,
					"midpoints" : [  ]
				}

			}
, 			{
				"patchline" : 				{
					"source" : [ "obj-9", 0 ],
					"destination" : [ "obj-2", 0 ],
					"hidden" : 0,
					"midpoints" : [  ]
				}

			}
 ]
	}

}
