{
	"patcher" : 	{
		"fileversion" : 1,
		"rect" : [ 440.0, 264.0, 724.0, 525.0 ],
		"bglocked" : 0,
		"defrect" : [ 440.0, 264.0, 724.0, 525.0 ],
		"openrect" : [ 0.0, 0.0, 0.0, 0.0 ],
		"openinpresentation" : 0,
		"default_fontsize" : 12.0,
		"default_fontface" : 0,
		"default_fontname" : "Arial",
		"gridonopen" : 0,
		"gridsize" : [ 15.0, 15.0 ],
		"gridsnaponopen" : 0,
		"toolbarvisible" : 1,
		"boxanimatetime" : 200,
		"imprint" : 0,
		"boxes" : [ 			{
				"box" : 				{
					"maxclass" : "message",
					"text" : "3100 120",
					"id" : "obj-1",
					"patching_rect" : [ 231.0, 383.0, 54.0, 15.0 ],
					"outlettype" : [ "" ],
					"fontsize" : 9.0,
					"numinlets" : 2,
					"fontname" : "Arial",
					"numoutlets" : 1
				}

			}
, 			{
				"box" : 				{
					"maxclass" : "flonum",
					"id" : "obj-2",
					"patching_rect" : [ 53.0, 413.0, 35.0, 17.0 ],
					"outlettype" : [ "float", "bang" ],
					"fontsize" : 9.0,
					"bgcolor" : [ 0.866667, 0.866667, 0.866667, 1.0 ],
					"triscale" : 0.9,
					"numinlets" : 1,
					"fontname" : "Arial",
					"htextcolor" : [ 0.870588, 0.870588, 0.870588, 1.0 ],
					"numoutlets" : 2
				}

			}
, 			{
				"box" : 				{
					"maxclass" : "flonum",
					"id" : "obj-3",
					"patching_rect" : [ 20.0, 357.0, 54.0, 17.0 ],
					"outlettype" : [ "float", "bang" ],
					"fontsize" : 9.0,
					"bgcolor" : [ 0.866667, 0.866667, 0.866667, 1.0 ],
					"triscale" : 0.9,
					"numinlets" : 1,
					"fontname" : "Arial",
					"htextcolor" : [ 0.870588, 0.870588, 0.870588, 1.0 ],
					"numoutlets" : 2
				}

			}
, 			{
				"box" : 				{
					"maxclass" : "newobj",
					"text" : "!/ 4000.",
					"id" : "obj-4",
					"patching_rect" : [ 133.0, 278.0, 48.0, 17.0 ],
					"outlettype" : [ "float" ],
					"fontsize" : 9.0,
					"numinlets" : 2,
					"fontname" : "Arial",
					"numoutlets" : 1
				}

			}
, 			{
				"box" : 				{
					"maxclass" : "newobj",
					"text" : "* 100.",
					"id" : "obj-5",
					"patching_rect" : [ 455.0, 319.0, 40.0, 17.0 ],
					"outlettype" : [ "float" ],
					"fontsize" : 9.0,
					"numinlets" : 2,
					"fontname" : "Arial",
					"numoutlets" : 1
				}

			}
, 			{
				"box" : 				{
					"maxclass" : "button",
					"id" : "obj-6",
					"patching_rect" : [ 462.0, 186.0, 15.0, 15.0 ],
					"outlettype" : [ "bang" ],
					"numinlets" : 1,
					"numoutlets" : 1
				}

			}
, 			{
				"box" : 				{
					"maxclass" : "message",
					"text" : "clear",
					"id" : "obj-7",
					"patching_rect" : [ 397.0, 348.0, 32.0, 15.0 ],
					"outlettype" : [ "" ],
					"fontsize" : 9.0,
					"numinlets" : 2,
					"fontname" : "Arial",
					"numoutlets" : 1
				}

			}
, 			{
				"box" : 				{
					"maxclass" : "newobj",
					"text" : "ftom 0.",
					"id" : "obj-8",
					"patching_rect" : [ 466.0, 294.0, 42.0, 17.0 ],
					"outlettype" : [ "" ],
					"fontsize" : 9.0,
					"numinlets" : 1,
					"fontname" : "Arial",
					"numoutlets" : 1
				}

			}
, 			{
				"box" : 				{
					"maxclass" : "newobj",
					"text" : "pack i 100",
					"id" : "obj-9",
					"patching_rect" : [ 456.0, 342.0, 55.0, 17.0 ],
					"outlettype" : [ "" ],
					"fontsize" : 9.0,
					"numinlets" : 2,
					"fontname" : "Arial",
					"numoutlets" : 1
				}

			}
, 			{
				"box" : 				{
					"maxclass" : "newobj",
					"text" : "* 98.",
					"id" : "obj-10",
					"patching_rect" : [ 481.0, 267.0, 34.0, 17.0 ],
					"outlettype" : [ "float" ],
					"fontsize" : 9.0,
					"numinlets" : 2,
					"fontname" : "Arial",
					"numoutlets" : 1
				}

			}
, 			{
				"box" : 				{
					"maxclass" : "message",
					"text" : "31.",
					"id" : "obj-11",
					"patching_rect" : [ 566.0, 209.0, 23.0, 15.0 ],
					"outlettype" : [ "" ],
					"fontsize" : 9.0,
					"numinlets" : 2,
					"fontname" : "Arial",
					"numoutlets" : 1
				}

			}
, 			{
				"box" : 				{
					"maxclass" : "newobj",
					"text" : "mtof",
					"id" : "obj-12",
					"patching_rect" : [ 573.0, 244.0, 30.0, 17.0 ],
					"outlettype" : [ "" ],
					"fontsize" : 9.0,
					"numinlets" : 1,
					"fontname" : "Arial",
					"numoutlets" : 1
				}

			}
, 			{
				"box" : 				{
					"maxclass" : "newobj",
					"text" : "Uzi 10",
					"id" : "obj-13",
					"patching_rect" : [ 468.0, 215.0, 40.0, 17.0 ],
					"outlettype" : [ "bang", "bang", "int" ],
					"fontsize" : 9.0,
					"numinlets" : 2,
					"fontname" : "Arial",
					"numoutlets" : 3
				}

			}
, 			{
				"box" : 				{
					"maxclass" : "newobj",
					"text" : "table harmseries",
					"id" : "obj-14",
					"patching_rect" : [ 443.0, 369.0, 85.0, 17.0 ],
					"outlettype" : [ "int", "bang" ],
					"fontsize" : 9.0,
					"numinlets" : 2,
					"fontname" : "Arial",
					"numoutlets" : 2,
					"showeditor" : 0,
					"editor_rect" : [ 10.0, 59.0, 699.0, 266.0 ],
					"saved_object_attributes" : 					{
						"range" : 128,
						"signed" : 0,
						"name" : "harmseries",
						"embed" : 0,
						"showeditor" : 0,
						"notename" : 0,
						"size" : 9600
					}

				}

			}
, 			{
				"box" : 				{
					"maxclass" : "message",
					"text" : "clear",
					"id" : "obj-15",
					"patching_rect" : [ 37.0, 312.0, 32.0, 15.0 ],
					"outlettype" : [ "" ],
					"fontsize" : 9.0,
					"numinlets" : 2,
					"fontname" : "Arial",
					"numoutlets" : 1
				}

			}
, 			{
				"box" : 				{
					"maxclass" : "newobj",
					"text" : "ftom 0.",
					"id" : "obj-16",
					"patching_rect" : [ 104.0, 238.0, 42.0, 17.0 ],
					"outlettype" : [ "" ],
					"fontsize" : 9.0,
					"numinlets" : 1,
					"fontname" : "Arial",
					"numoutlets" : 1
				}

			}
, 			{
				"box" : 				{
					"maxclass" : "message",
					"text" : "31",
					"id" : "obj-17",
					"patching_rect" : [ 79.0, 35.0, 20.0, 15.0 ],
					"outlettype" : [ "" ],
					"fontsize" : 9.0,
					"numinlets" : 2,
					"fontname" : "Arial",
					"numoutlets" : 1
				}

			}
, 			{
				"box" : 				{
					"maxclass" : "newobj",
					"text" : "mtof",
					"id" : "obj-18",
					"patching_rect" : [ 86.0, 70.0, 30.0, 17.0 ],
					"outlettype" : [ "" ],
					"fontsize" : 9.0,
					"numinlets" : 1,
					"fontname" : "Arial",
					"numoutlets" : 1
				}

			}
, 			{
				"box" : 				{
					"maxclass" : "flonum",
					"id" : "obj-19",
					"patching_rect" : [ 245.0, 240.0, 35.0, 17.0 ],
					"outlettype" : [ "float", "bang" ],
					"fontsize" : 9.0,
					"bgcolor" : [ 0.866667, 0.866667, 0.866667, 1.0 ],
					"triscale" : 0.9,
					"numinlets" : 1,
					"fontname" : "Arial",
					"htextcolor" : [ 0.870588, 0.870588, 0.870588, 1.0 ],
					"numoutlets" : 2
				}

			}
, 			{
				"box" : 				{
					"maxclass" : "flonum",
					"id" : "obj-20",
					"patching_rect" : [ 200.0, 261.0, 35.0, 17.0 ],
					"outlettype" : [ "float", "bang" ],
					"fontsize" : 9.0,
					"bgcolor" : [ 0.866667, 0.866667, 0.866667, 1.0 ],
					"triscale" : 0.9,
					"numinlets" : 1,
					"fontname" : "Arial",
					"htextcolor" : [ 0.870588, 0.870588, 0.870588, 1.0 ],
					"numoutlets" : 2
				}

			}
, 			{
				"box" : 				{
					"maxclass" : "newobj",
					"text" : "print",
					"id" : "obj-21",
					"patching_rect" : [ 117.0, 357.0, 31.0, 17.0 ],
					"fontsize" : 9.0,
					"numinlets" : 1,
					"fontname" : "Arial",
					"numoutlets" : 0
				}

			}
, 			{
				"box" : 				{
					"maxclass" : "newobj",
					"text" : "pipe 100",
					"id" : "obj-22",
					"patching_rect" : [ 175.0, 207.0, 48.0, 17.0 ],
					"outlettype" : [ "" ],
					"fontsize" : 9.0,
					"numinlets" : 2,
					"fontname" : "Arial",
					"numoutlets" : 1
				}

			}
, 			{
				"box" : 				{
					"maxclass" : "newobj",
					"text" : "split 0 10000",
					"id" : "obj-23",
					"patching_rect" : [ 173.0, 185.0, 71.0, 17.0 ],
					"outlettype" : [ "int", "int" ],
					"fontsize" : 9.0,
					"numinlets" : 3,
					"fontname" : "Arial",
					"numoutlets" : 2
				}

			}
, 			{
				"box" : 				{
					"maxclass" : "newobj",
					"text" : "pack i 100",
					"id" : "obj-24",
					"patching_rect" : [ 91.0, 328.0, 55.0, 17.0 ],
					"outlettype" : [ "" ],
					"fontsize" : 9.0,
					"numinlets" : 2,
					"fontname" : "Arial",
					"numoutlets" : 1
				}

			}
, 			{
				"box" : 				{
					"maxclass" : "newobj",
					"text" : "* 100.",
					"id" : "obj-25",
					"patching_rect" : [ 87.0, 273.0, 40.0, 17.0 ],
					"outlettype" : [ "float" ],
					"fontsize" : 9.0,
					"numinlets" : 2,
					"fontname" : "Arial",
					"numoutlets" : 1
				}

			}
, 			{
				"box" : 				{
					"maxclass" : "newobj",
					"text" : "table fiboseries",
					"id" : "obj-26",
					"patching_rect" : [ 64.0, 382.0, 79.0, 17.0 ],
					"outlettype" : [ "int", "bang" ],
					"fontsize" : 9.0,
					"numinlets" : 2,
					"fontname" : "Arial",
					"numoutlets" : 2,
					"showeditor" : 0,
					"editor_rect" : [ 20.0, 74.0, 805.0, 320.0 ],
					"saved_object_attributes" : 					{
						"range" : 128,
						"signed" : 0,
						"name" : "fiboseries",
						"embed" : 0,
						"showeditor" : 0,
						"notename" : 0,
						"size" : 9600
					}

				}

			}
, 			{
				"box" : 				{
					"maxclass" : "newobj",
					"text" : "t f f",
					"id" : "obj-27",
					"patching_rect" : [ 122.0, 119.0, 27.0, 17.0 ],
					"outlettype" : [ "float", "float" ],
					"fontsize" : 9.0,
					"numinlets" : 1,
					"fontname" : "Arial",
					"numoutlets" : 2
				}

			}
, 			{
				"box" : 				{
					"maxclass" : "newobj",
					"text" : "* 1.618",
					"id" : "obj-28",
					"patching_rect" : [ 159.0, 151.0, 45.0, 17.0 ],
					"outlettype" : [ "float" ],
					"fontsize" : 9.0,
					"numinlets" : 2,
					"fontname" : "Arial",
					"numoutlets" : 1
				}

			}
 ],
		"lines" : [ 			{
				"patchline" : 				{
					"source" : [ "obj-11", 0 ],
					"destination" : [ "obj-12", 0 ],
					"hidden" : 0,
					"midpoints" : [  ]
				}

			}
, 			{
				"patchline" : 				{
					"source" : [ "obj-13", 2 ],
					"destination" : [ "obj-10", 0 ],
					"hidden" : 0,
					"midpoints" : [  ]
				}

			}
, 			{
				"patchline" : 				{
					"source" : [ "obj-6", 0 ],
					"destination" : [ "obj-13", 0 ],
					"hidden" : 0,
					"midpoints" : [  ]
				}

			}
, 			{
				"patchline" : 				{
					"source" : [ "obj-10", 0 ],
					"destination" : [ "obj-8", 0 ],
					"hidden" : 0,
					"midpoints" : [  ]
				}

			}
, 			{
				"patchline" : 				{
					"source" : [ "obj-5", 0 ],
					"destination" : [ "obj-9", 0 ],
					"hidden" : 0,
					"midpoints" : [  ]
				}

			}
, 			{
				"patchline" : 				{
					"source" : [ "obj-8", 0 ],
					"destination" : [ "obj-5", 0 ],
					"hidden" : 0,
					"midpoints" : [  ]
				}

			}
, 			{
				"patchline" : 				{
					"source" : [ "obj-7", 0 ],
					"destination" : [ "obj-14", 0 ],
					"hidden" : 0,
					"midpoints" : [  ]
				}

			}
, 			{
				"patchline" : 				{
					"source" : [ "obj-9", 0 ],
					"destination" : [ "obj-14", 0 ],
					"hidden" : 0,
					"midpoints" : [  ]
				}

			}
, 			{
				"patchline" : 				{
					"source" : [ "obj-23", 1 ],
					"destination" : [ "obj-19", 0 ],
					"hidden" : 0,
					"midpoints" : [  ]
				}

			}
, 			{
				"patchline" : 				{
					"source" : [ "obj-22", 0 ],
					"destination" : [ "obj-20", 0 ],
					"hidden" : 0,
					"midpoints" : [  ]
				}

			}
, 			{
				"patchline" : 				{
					"source" : [ "obj-23", 0 ],
					"destination" : [ "obj-22", 0 ],
					"hidden" : 0,
					"midpoints" : [  ]
				}

			}
, 			{
				"patchline" : 				{
					"source" : [ "obj-28", 0 ],
					"destination" : [ "obj-23", 0 ],
					"hidden" : 0,
					"midpoints" : [  ]
				}

			}
, 			{
				"patchline" : 				{
					"source" : [ "obj-27", 1 ],
					"destination" : [ "obj-28", 0 ],
					"hidden" : 0,
					"midpoints" : [  ]
				}

			}
, 			{
				"patchline" : 				{
					"source" : [ "obj-4", 0 ],
					"destination" : [ "obj-24", 1 ],
					"hidden" : 0,
					"midpoints" : [  ]
				}

			}
, 			{
				"patchline" : 				{
					"source" : [ "obj-16", 0 ],
					"destination" : [ "obj-4", 0 ],
					"hidden" : 0,
					"midpoints" : [  ]
				}

			}
, 			{
				"patchline" : 				{
					"source" : [ "obj-18", 0 ],
					"destination" : [ "obj-27", 0 ],
					"hidden" : 0,
					"midpoints" : [  ]
				}

			}
, 			{
				"patchline" : 				{
					"source" : [ "obj-22", 0 ],
					"destination" : [ "obj-27", 0 ],
					"hidden" : 0,
					"midpoints" : [ 184.5, 242.0, 370.0, 213.0, 169.0, 91.0 ]
				}

			}
, 			{
				"patchline" : 				{
					"source" : [ "obj-24", 0 ],
					"destination" : [ "obj-21", 0 ],
					"hidden" : 0,
					"midpoints" : [  ]
				}

			}
, 			{
				"patchline" : 				{
					"source" : [ "obj-22", 0 ],
					"destination" : [ "obj-16", 0 ],
					"hidden" : 0,
					"midpoints" : [  ]
				}

			}
, 			{
				"patchline" : 				{
					"source" : [ "obj-27", 0 ],
					"destination" : [ "obj-16", 0 ],
					"hidden" : 0,
					"midpoints" : [  ]
				}

			}
, 			{
				"patchline" : 				{
					"source" : [ "obj-25", 0 ],
					"destination" : [ "obj-24", 0 ],
					"hidden" : 0,
					"midpoints" : [  ]
				}

			}
, 			{
				"patchline" : 				{
					"source" : [ "obj-16", 0 ],
					"destination" : [ "obj-25", 0 ],
					"hidden" : 0,
					"midpoints" : [  ]
				}

			}
, 			{
				"patchline" : 				{
					"source" : [ "obj-17", 0 ],
					"destination" : [ "obj-18", 0 ],
					"hidden" : 0,
					"midpoints" : [  ]
				}

			}
, 			{
				"patchline" : 				{
					"source" : [ "obj-15", 0 ],
					"destination" : [ "obj-26", 0 ],
					"hidden" : 0,
					"midpoints" : [  ]
				}

			}
, 			{
				"patchline" : 				{
					"source" : [ "obj-24", 0 ],
					"destination" : [ "obj-26", 0 ],
					"hidden" : 0,
					"midpoints" : [  ]
				}

			}
, 			{
				"patchline" : 				{
					"source" : [ "obj-3", 0 ],
					"destination" : [ "obj-26", 0 ],
					"hidden" : 0,
					"midpoints" : [  ]
				}

			}
, 			{
				"patchline" : 				{
					"source" : [ "obj-1", 0 ],
					"destination" : [ "obj-26", 0 ],
					"hidden" : 0,
					"midpoints" : [  ]
				}

			}
, 			{
				"patchline" : 				{
					"source" : [ "obj-26", 0 ],
					"destination" : [ "obj-2", 0 ],
					"hidden" : 0,
					"midpoints" : [  ]
				}

			}
 ]
	}

}
