{
	"patcher" : 	{
		"fileversion" : 1,
		"rect" : [ 4.0, 48.0, 1142.0, 796.0 ],
		"bglocked" : 0,
		"defrect" : [ 4.0, 48.0, 1142.0, 796.0 ],
		"openrect" : [ 0.0, 0.0, 0.0, 0.0 ],
		"openinpresentation" : 0,
		"default_fontsize" : 12.0,
		"default_fontface" : 0,
		"default_fontname" : "Arial",
		"gridonopen" : 0,
		"gridsize" : [ 15.0, 15.0 ],
		"gridsnaponopen" : 0,
		"toolbarvisible" : 1,
		"boxanimatetime" : 200,
		"imprint" : 0,
		"boxes" : [ 			{
				"box" : 				{
					"maxclass" : "newobj",
					"text" : "print 2",
					"fontname" : "Arial",
					"numinlets" : 1,
					"numoutlets" : 0,
					"fontsize" : 9.0,
					"patching_rect" : [ 331.0, 488.0, 44.0, 17.0 ],
					"id" : "obj-1"
				}

			}
, 			{
				"box" : 				{
					"maxclass" : "newobj",
					"text" : "print 1",
					"fontname" : "Arial",
					"numinlets" : 1,
					"numoutlets" : 0,
					"fontsize" : 9.0,
					"patching_rect" : [ 268.0, 486.0, 41.0, 17.0 ],
					"id" : "obj-2"
				}

			}
, 			{
				"box" : 				{
					"maxclass" : "newobj",
					"text" : "buffer~ joojoo 1 2",
					"fontname" : "Arial",
					"numinlets" : 1,
					"numoutlets" : 2,
					"fontsize" : 9.0,
					"outlettype" : [ "float", "bang" ],
					"patching_rect" : [ 317.0, 520.0, 93.0, 17.0 ],
					"id" : "obj-3"
				}

			}
, 			{
				"box" : 				{
					"maxclass" : "comment",
					"text" : "source-file-path destination-file-path",
					"fontname" : "Arial",
					"numinlets" : 1,
					"numoutlets" : 0,
					"fontsize" : 9.0,
					"patching_rect" : [ 381.0, 237.0, 180.0, 17.0 ],
					"id" : "obj-4"
				}

			}
, 			{
				"box" : 				{
					"maxclass" : "comment",
					"text" : "URL local-file-path",
					"fontname" : "Arial",
					"numinlets" : 1,
					"numoutlets" : 0,
					"fontsize" : 9.0,
					"patching_rect" : [ 487.0, 313.0, 100.0, 17.0 ],
					"id" : "obj-5"
				}

			}
, 			{
				"box" : 				{
					"maxclass" : "comment",
					"text" : "URL buffer-name",
					"fontname" : "Arial",
					"numinlets" : 1,
					"numoutlets" : 0,
					"fontsize" : 9.0,
					"patching_rect" : [ 500.0, 381.0, 86.0, 17.0 ],
					"id" : "obj-6"
				}

			}
, 			{
				"box" : 				{
					"maxclass" : "newobj",
					"text" : "bitsafe~",
					"fontname" : "Arial",
					"numinlets" : 1,
					"numoutlets" : 1,
					"fontsize" : 9.0,
					"outlettype" : [ "signal" ],
					"patching_rect" : [ 921.0, 667.0, 50.0, 17.0 ],
					"id" : "obj-7"
				}

			}
, 			{
				"box" : 				{
					"maxclass" : "newobj",
					"text" : "bitsafe~",
					"fontname" : "Arial",
					"numinlets" : 1,
					"numoutlets" : 1,
					"fontsize" : 9.0,
					"outlettype" : [ "signal" ],
					"patching_rect" : [ 895.0, 638.0, 50.0, 17.0 ],
					"id" : "obj-8"
				}

			}
, 			{
				"box" : 				{
					"maxclass" : "message",
					"text" : "stop",
					"fontname" : "Arial",
					"numinlets" : 2,
					"numoutlets" : 1,
					"fontsize" : 9.0,
					"outlettype" : [ "" ],
					"patching_rect" : [ 837.0, 649.0, 29.0, 15.0 ],
					"id" : "obj-9"
				}

			}
, 			{
				"box" : 				{
					"maxclass" : "message",
					"text" : "startwindow",
					"fontname" : "Arial",
					"numinlets" : 2,
					"numoutlets" : 1,
					"fontsize" : 9.0,
					"outlettype" : [ "" ],
					"patching_rect" : [ 820.0, 669.0, 67.0, 15.0 ],
					"id" : "obj-10"
				}

			}
, 			{
				"box" : 				{
					"maxclass" : "gain~",
					"numinlets" : 2,
					"orientation" : 2,
					"numoutlets" : 2,
					"outlettype" : [ "signal", "int" ],
					"patching_rect" : [ 896.0, 565.0, 23.0, 47.0 ],
					"id" : "obj-11"
				}

			}
, 			{
				"box" : 				{
					"maxclass" : "gain~",
					"numinlets" : 2,
					"orientation" : 2,
					"numoutlets" : 2,
					"outlettype" : [ "signal", "int" ],
					"patching_rect" : [ 922.0, 565.0, 23.0, 47.0 ],
					"id" : "obj-12"
				}

			}
, 			{
				"box" : 				{
					"maxclass" : "newobj",
					"text" : "dac~",
					"fontname" : "Arial",
					"numinlets" : 2,
					"numoutlets" : 0,
					"fontsize" : 9.0,
					"patching_rect" : [ 824.0, 726.0, 36.0, 17.0 ],
					"id" : "obj-13"
				}

			}
, 			{
				"box" : 				{
					"maxclass" : "message",
					"text" : "0, 4000. 4000.",
					"fontname" : "Arial",
					"numinlets" : 2,
					"numoutlets" : 1,
					"fontsize" : 9.0,
					"outlettype" : [ "" ],
					"patching_rect" : [ 877.0, 431.0, 80.0, 15.0 ],
					"id" : "obj-14"
				}

			}
, 			{
				"box" : 				{
					"maxclass" : "newobj",
					"text" : "line~",
					"fontname" : "Arial",
					"numinlets" : 2,
					"numoutlets" : 2,
					"fontsize" : 9.0,
					"outlettype" : [ "signal", "bang" ],
					"patching_rect" : [ 889.0, 486.0, 32.0, 17.0 ],
					"id" : "obj-15"
				}

			}
, 			{
				"box" : 				{
					"maxclass" : "newobj",
					"text" : "play~ joojoo 2",
					"fontname" : "Arial",
					"numinlets" : 1,
					"numoutlets" : 2,
					"fontsize" : 9.0,
					"outlettype" : [ "signal", "signal" ],
					"patching_rect" : [ 892.0, 522.0, 75.0, 17.0 ],
					"id" : "obj-16"
				}

			}
, 			{
				"box" : 				{
					"maxclass" : "comment",
					"text" : "decode a network MP3 and put it in an msp buffer",
					"fontname" : "Arial",
					"numinlets" : 1,
					"numoutlets" : 0,
					"fontsize" : 9.0,
					"patching_rect" : [ 454.0, 344.0, 276.0, 17.0 ],
					"id" : "obj-17"
				}

			}
, 			{
				"box" : 				{
					"maxclass" : "comment",
					"text" : "decode a network file",
					"fontname" : "Arial",
					"numinlets" : 1,
					"numoutlets" : 0,
					"fontsize" : 9.0,
					"patching_rect" : [ 431.0, 268.0, 106.0, 17.0 ],
					"id" : "obj-18"
				}

			}
, 			{
				"box" : 				{
					"maxclass" : "comment",
					"text" : "decode a local file",
					"fontname" : "Arial",
					"numinlets" : 1,
					"numoutlets" : 0,
					"fontsize" : 9.0,
					"patching_rect" : [ 359.0, 207.0, 90.0, 17.0 ],
					"id" : "obj-19"
				}

			}
, 			{
				"box" : 				{
					"maxclass" : "comment",
					"text" : "put a file somewhere with FTP",
					"fontname" : "Arial",
					"numinlets" : 1,
					"numoutlets" : 0,
					"fontsize" : 9.0,
					"patching_rect" : [ 316.0, 149.0, 147.0, 17.0 ],
					"id" : "obj-20"
				}

			}
, 			{
				"box" : 				{
					"maxclass" : "message",
					"text" : "decodeNetworkFileToBuf http://alimomeni.net/files/random/08SolNaCara.mp3 joojoo",
					"fontname" : "Arial",
					"numinlets" : 2,
					"numoutlets" : 1,
					"fontsize" : 9.0,
					"outlettype" : [ "" ],
					"patching_rect" : [ 453.0, 362.0, 401.0, 15.0 ],
					"id" : "obj-21"
				}

			}
, 			{
				"box" : 				{
					"maxclass" : "message",
					"text" : "decodeNetworkFile http://alimomeni.net/files/random/08SolNaCara.mp3 /test.aif",
					"fontname" : "Arial",
					"numinlets" : 2,
					"numoutlets" : 1,
					"fontsize" : 9.0,
					"outlettype" : [ "" ],
					"patching_rect" : [ 409.0, 283.0, 386.0, 15.0 ],
					"id" : "obj-22"
				}

			}
, 			{
				"box" : 				{
					"maxclass" : "message",
					"text" : "decodeFile /08SolNaCara.mp3 /08SolNaCara.aiff",
					"fontname" : "Arial",
					"numinlets" : 2,
					"numoutlets" : 1,
					"fontsize" : 9.0,
					"outlettype" : [ "" ],
					"patching_rect" : [ 359.0, 221.0, 231.0, 15.0 ],
					"id" : "obj-23"
				}

			}
, 			{
				"box" : 				{
					"maxclass" : "message",
					"text" : "putFile 192.168.0.130 babylove babylove babylove-FTP-test.txt babylove-FTP-test2.txt",
					"fontname" : "Arial",
					"numinlets" : 2,
					"numoutlets" : 1,
					"fontsize" : 9.0,
					"outlettype" : [ "" ],
					"patching_rect" : [ 316.0, 164.0, 467.0, 15.0 ],
					"id" : "obj-24"
				}

			}
, 			{
				"box" : 				{
					"maxclass" : "message",
					"text" : "getFile http://alimomeni.net/files/random/I_saw_a_Polysexual.mp3 /file.mp3",
					"fontname" : "Arial",
					"numinlets" : 2,
					"numoutlets" : 1,
					"fontsize" : 9.0,
					"outlettype" : [ "" ],
					"patching_rect" : [ 260.0, 111.0, 371.0, 15.0 ],
					"id" : "obj-25"
				}

			}
, 			{
				"box" : 				{
					"maxclass" : "message",
					"text" : "viewsource",
					"fontname" : "Arial",
					"numinlets" : 2,
					"numoutlets" : 1,
					"fontsize" : 9.0,
					"outlettype" : [ "" ],
					"patching_rect" : [ 198.0, 358.0, 62.0, 15.0 ],
					"id" : "obj-26"
				}

			}
, 			{
				"box" : 				{
					"maxclass" : "comment",
					"text" : "get a file from a URL",
					"fontname" : "Arial",
					"numinlets" : 1,
					"numoutlets" : 0,
					"fontsize" : 9.0,
					"patching_rect" : [ 264.0, 88.0, 103.0, 17.0 ],
					"id" : "obj-27"
				}

			}
, 			{
				"box" : 				{
					"maxclass" : "comment",
					"text" : "final String ftpServer = args[0];\rfinal String user = args[1];\rfinal String pwd = args[2];\rfinal String fileName = args[3];\rfinal String source = args[4];\r",
					"linecount" : 5,
					"fontname" : "Arial",
					"numinlets" : 1,
					"numoutlets" : 0,
					"fontsize" : 9.0,
					"patching_rect" : [ 789.0, 140.0, 171.0, 58.0 ],
					"id" : "obj-28"
				}

			}
, 			{
				"box" : 				{
					"maxclass" : "newobj",
					"text" : "mxj ali.net.fileIO",
					"fontname" : "Arial",
					"numinlets" : 1,
					"numoutlets" : 2,
					"fontsize" : 9.0,
					"outlettype" : [ "", "" ],
					"patching_rect" : [ 291.0, 437.0, 86.0, 17.0 ],
					"id" : "obj-29"
				}

			}
 ],
		"lines" : [ 			{
				"patchline" : 				{
					"source" : [ "obj-12", 0 ],
					"destination" : [ "obj-7", 0 ],
					"hidden" : 0,
					"midpoints" : [  ]
				}

			}
, 			{
				"patchline" : 				{
					"source" : [ "obj-11", 1 ],
					"destination" : [ "obj-12", 0 ],
					"hidden" : 0,
					"midpoints" : [  ]
				}

			}
, 			{
				"patchline" : 				{
					"source" : [ "obj-16", 1 ],
					"destination" : [ "obj-12", 0 ],
					"hidden" : 0,
					"midpoints" : [  ]
				}

			}
, 			{
				"patchline" : 				{
					"source" : [ "obj-11", 0 ],
					"destination" : [ "obj-8", 0 ],
					"hidden" : 0,
					"midpoints" : [  ]
				}

			}
, 			{
				"patchline" : 				{
					"source" : [ "obj-16", 0 ],
					"destination" : [ "obj-11", 0 ],
					"hidden" : 0,
					"midpoints" : [  ]
				}

			}
, 			{
				"patchline" : 				{
					"source" : [ "obj-15", 0 ],
					"destination" : [ "obj-16", 0 ],
					"hidden" : 0,
					"midpoints" : [  ]
				}

			}
, 			{
				"patchline" : 				{
					"source" : [ "obj-14", 0 ],
					"destination" : [ "obj-15", 0 ],
					"hidden" : 0,
					"midpoints" : [  ]
				}

			}
, 			{
				"patchline" : 				{
					"source" : [ "obj-7", 0 ],
					"destination" : [ "obj-13", 1 ],
					"hidden" : 0,
					"midpoints" : [  ]
				}

			}
, 			{
				"patchline" : 				{
					"source" : [ "obj-8", 0 ],
					"destination" : [ "obj-13", 0 ],
					"hidden" : 0,
					"midpoints" : [  ]
				}

			}
, 			{
				"patchline" : 				{
					"source" : [ "obj-9", 0 ],
					"destination" : [ "obj-13", 0 ],
					"hidden" : 0,
					"midpoints" : [  ]
				}

			}
, 			{
				"patchline" : 				{
					"source" : [ "obj-10", 0 ],
					"destination" : [ "obj-13", 0 ],
					"hidden" : 0,
					"midpoints" : [  ]
				}

			}
, 			{
				"patchline" : 				{
					"source" : [ "obj-29", 1 ],
					"destination" : [ "obj-1", 0 ],
					"hidden" : 0,
					"midpoints" : [  ]
				}

			}
, 			{
				"patchline" : 				{
					"source" : [ "obj-26", 0 ],
					"destination" : [ "obj-29", 0 ],
					"hidden" : 0,
					"midpoints" : [  ]
				}

			}
, 			{
				"patchline" : 				{
					"source" : [ "obj-25", 0 ],
					"destination" : [ "obj-29", 0 ],
					"hidden" : 0,
					"midpoints" : [  ]
				}

			}
, 			{
				"patchline" : 				{
					"source" : [ "obj-24", 0 ],
					"destination" : [ "obj-29", 0 ],
					"hidden" : 0,
					"midpoints" : [  ]
				}

			}
, 			{
				"patchline" : 				{
					"source" : [ "obj-23", 0 ],
					"destination" : [ "obj-29", 0 ],
					"hidden" : 0,
					"midpoints" : [  ]
				}

			}
, 			{
				"patchline" : 				{
					"source" : [ "obj-21", 0 ],
					"destination" : [ "obj-29", 0 ],
					"hidden" : 0,
					"midpoints" : [  ]
				}

			}
, 			{
				"patchline" : 				{
					"source" : [ "obj-22", 0 ],
					"destination" : [ "obj-29", 0 ],
					"hidden" : 0,
					"midpoints" : [  ]
				}

			}
, 			{
				"patchline" : 				{
					"source" : [ "obj-29", 0 ],
					"destination" : [ "obj-2", 0 ],
					"hidden" : 0,
					"midpoints" : [  ]
				}

			}
 ]
	}

}
