{
	"patcher" : 	{
		"fileversion" : 1,
		"rect" : [ 20.0, 78.0, 634.0, 442.0 ],
		"bgcolor" : [ 0.870588, 0.929412, 1.0, 1.0 ],
		"bglocked" : 0,
		"defrect" : [ 20.0, 78.0, 634.0, 442.0 ],
		"openrect" : [ 0.0, 0.0, 0.0, 0.0 ],
		"openinpresentation" : 0,
		"default_fontsize" : 12.0,
		"default_fontface" : 0,
		"default_fontname" : "Arial",
		"gridonopen" : 0,
		"gridsize" : [ 15.0, 15.0 ],
		"gridsnaponopen" : 0,
		"toolbarvisible" : 1,
		"boxanimatetime" : 200,
		"imprint" : 0,
		"boxes" : [ 			{
				"box" : 				{
					"maxclass" : "bpatcher",
					"prototypename" : "cnmat_badge",
					"name" : "badge.maxpat",
					"numinlets" : 0,
					"numoutlets" : 0,
					"patching_rect" : [ 304.0, 71.0, 296.0, 86.0 ],
					"id" : "obj-33",
					"args" : [ "readwrite-ui", "1.0a", "Ali Momeni", "readwrite-ui", 6666 ]
				}

			}
, 			{
				"box" : 				{
					"maxclass" : "comment",
					"text" : ">",
					"fontsize" : 10.0,
					"frgb" : [ 0.0, 0.0, 0.0, 1.0 ],
					"numinlets" : 1,
					"fontname" : "Gill Sans",
					"numoutlets" : 0,
					"patching_rect" : [ 34.0, 1.0, 16.0, 18.0 ],
					"id" : "obj-3"
				}

			}
, 			{
				"box" : 				{
					"maxclass" : "newobj",
					"text" : "route bang",
					"outlettype" : [ "", "" ],
					"fontsize" : 9.0,
					"hidden" : 1,
					"numinlets" : 1,
					"fontname" : "Gill Sans",
					"numoutlets" : 2,
					"patching_rect" : [ -31.0, -65.0, 55.0, 17.0 ],
					"id" : "obj-4"
				}

			}
, 			{
				"box" : 				{
					"maxclass" : "newobj",
					"text" : "route bang",
					"outlettype" : [ "", "" ],
					"fontsize" : 9.0,
					"hidden" : 1,
					"numinlets" : 1,
					"fontname" : "Gill Sans",
					"numoutlets" : 2,
					"patching_rect" : [ -69.0, -47.0, 55.0, 17.0 ],
					"id" : "obj-5"
				}

			}
, 			{
				"box" : 				{
					"maxclass" : "newobj",
					"text" : "t b s",
					"outlettype" : [ "bang", "" ],
					"fontsize" : 9.0,
					"hidden" : 1,
					"numinlets" : 1,
					"fontname" : "Gill Sans",
					"numoutlets" : 2,
					"patching_rect" : [ 188.0, -92.0, 29.0, 17.0 ],
					"id" : "obj-6"
				}

			}
, 			{
				"box" : 				{
					"maxclass" : "newobj",
					"text" : "t b s",
					"outlettype" : [ "bang", "" ],
					"fontsize" : 9.0,
					"hidden" : 1,
					"numinlets" : 1,
					"fontname" : "Gill Sans",
					"numoutlets" : 2,
					"patching_rect" : [ 132.0, -61.0, 29.0, 17.0 ],
					"id" : "obj-7"
				}

			}
, 			{
				"box" : 				{
					"maxclass" : "newobj",
					"text" : "prepend /read",
					"outlettype" : [ "" ],
					"fontsize" : 9.0,
					"hidden" : 1,
					"numinlets" : 1,
					"fontname" : "Gill Sans",
					"numoutlets" : 1,
					"patching_rect" : [ 305.0, 198.0, 72.0, 17.0 ],
					"id" : "obj-8"
				}

			}
, 			{
				"box" : 				{
					"maxclass" : "newobj",
					"text" : "prepend /write",
					"outlettype" : [ "" ],
					"fontsize" : 9.0,
					"hidden" : 1,
					"numinlets" : 1,
					"fontname" : "Gill Sans",
					"numoutlets" : 1,
					"patching_rect" : [ 455.0, 198.0, 75.0, 17.0 ],
					"id" : "obj-9"
				}

			}
, 			{
				"box" : 				{
					"maxclass" : "outlet",
					"numinlets" : 1,
					"numoutlets" : 0,
					"patching_rect" : [ 316.0, 230.0, 15.0, 15.0 ],
					"id" : "obj-10",
					"comment" : "/read /write <name>"
				}

			}
, 			{
				"box" : 				{
					"maxclass" : "newobj",
					"text" : "route 0",
					"outlettype" : [ "", "" ],
					"fontsize" : 9.0,
					"hidden" : 1,
					"numinlets" : 1,
					"fontname" : "Gill Sans",
					"numoutlets" : 2,
					"patching_rect" : [ 109.0, 150.0, 41.0, 17.0 ],
					"id" : "obj-11"
				}

			}
, 			{
				"box" : 				{
					"maxclass" : "newobj",
					"text" : "route 0",
					"outlettype" : [ "", "" ],
					"fontsize" : 9.0,
					"hidden" : 1,
					"numinlets" : 1,
					"fontname" : "Gill Sans",
					"numoutlets" : 2,
					"patching_rect" : [ 22.0, 153.0, 41.0, 17.0 ],
					"id" : "obj-12"
				}

			}
, 			{
				"box" : 				{
					"maxclass" : "message",
					"text" : "write",
					"outlettype" : [ "" ],
					"fontsize" : 9.0,
					"numinlets" : 2,
					"fontname" : "Gill Sans",
					"numoutlets" : 1,
					"patching_rect" : [ 153.0, 197.0, 33.0, 15.0 ],
					"id" : "obj-13"
				}

			}
, 			{
				"box" : 				{
					"maxclass" : "message",
					"text" : "read",
					"outlettype" : [ "" ],
					"fontsize" : 9.0,
					"numinlets" : 2,
					"fontname" : "Gill Sans",
					"numoutlets" : 1,
					"patching_rect" : [ 10.0, 196.0, 28.0, 15.0 ],
					"id" : "obj-14"
				}

			}
, 			{
				"box" : 				{
					"maxclass" : "newobj",
					"text" : "prepend set",
					"outlettype" : [ "" ],
					"fontsize" : 9.0,
					"hidden" : 1,
					"numinlets" : 1,
					"fontname" : "Gill Sans",
					"numoutlets" : 1,
					"patching_rect" : [ 170.0, 40.0, 60.0, 17.0 ],
					"id" : "obj-15"
				}

			}
, 			{
				"box" : 				{
					"maxclass" : "inlet",
					"outlettype" : [ "" ],
					"hidden" : 1,
					"numinlets" : 0,
					"numoutlets" : 1,
					"patching_rect" : [ 244.0, -34.0, 15.0, 15.0 ],
					"id" : "obj-16",
					"comment" : "file name"
				}

			}
, 			{
				"box" : 				{
					"maxclass" : "inlet",
					"outlettype" : [ "" ],
					"hidden" : 1,
					"numinlets" : 0,
					"numoutlets" : 1,
					"patching_rect" : [ -18.0, -88.0, 15.0, 15.0 ],
					"id" : "obj-17",
					"comment" : "bang to write"
				}

			}
, 			{
				"box" : 				{
					"maxclass" : "inlet",
					"outlettype" : [ "" ],
					"hidden" : 1,
					"numinlets" : 0,
					"numoutlets" : 1,
					"patching_rect" : [ -37.0, -88.0, 15.0, 15.0 ],
					"id" : "obj-18",
					"comment" : "bang to read"
				}

			}
, 			{
				"box" : 				{
					"maxclass" : "outlet",
					"numinlets" : 1,
					"numoutlets" : 0,
					"patching_rect" : [ 100.0, 230.0, 15.0, 15.0 ],
					"id" : "obj-19",
					"comment" : "read/write <name>"
				}

			}
, 			{
				"box" : 				{
					"maxclass" : "newobj",
					"text" : "b",
					"outlettype" : [ "bang", "bang" ],
					"fontsize" : 9.0,
					"hidden" : 1,
					"numinlets" : 1,
					"fontname" : "Gill Sans",
					"numoutlets" : 2,
					"patching_rect" : [ -35.0, 77.0, 27.0, 17.0 ],
					"id" : "obj-20"
				}

			}
, 			{
				"box" : 				{
					"maxclass" : "newobj",
					"text" : "zl reg",
					"outlettype" : [ "", "" ],
					"fontsize" : 9.0,
					"hidden" : 1,
					"numinlets" : 2,
					"fontname" : "Gill Sans",
					"numoutlets" : 2,
					"patching_rect" : [ 109.0, 124.0, 34.0, 17.0 ],
					"id" : "obj-21"
				}

			}
, 			{
				"box" : 				{
					"maxclass" : "newobj",
					"text" : "zl reg",
					"outlettype" : [ "", "" ],
					"fontsize" : 9.0,
					"hidden" : 1,
					"numinlets" : 2,
					"fontname" : "Gill Sans",
					"numoutlets" : 2,
					"patching_rect" : [ 72.0, 124.0, 34.0, 17.0 ],
					"id" : "obj-22"
				}

			}
, 			{
				"box" : 				{
					"maxclass" : "newobj",
					"text" : "prepend read",
					"outlettype" : [ "" ],
					"fontsize" : 9.0,
					"hidden" : 1,
					"numinlets" : 1,
					"fontname" : "Gill Sans",
					"numoutlets" : 1,
					"patching_rect" : [ 39.0, 196.0, 65.0, 17.0 ],
					"id" : "obj-23"
				}

			}
, 			{
				"box" : 				{
					"maxclass" : "newobj",
					"text" : "sprintf write :%s",
					"outlettype" : [ "" ],
					"fontsize" : 9.0,
					"hidden" : 1,
					"numinlets" : 1,
					"fontname" : "Gill Sans",
					"numoutlets" : 1,
					"patching_rect" : [ 189.0, 196.0, 88.0, 17.0 ],
					"id" : "obj-24"
				}

			}
, 			{
				"box" : 				{
					"maxclass" : "newobj",
					"text" : "b",
					"outlettype" : [ "bang", "bang" ],
					"fontsize" : 9.0,
					"hidden" : 1,
					"numinlets" : 1,
					"fontname" : "Gill Sans",
					"numoutlets" : 2,
					"patching_rect" : [ 15.0, 77.0, 27.0, 17.0 ],
					"id" : "obj-25"
				}

			}
, 			{
				"box" : 				{
					"maxclass" : "newobj",
					"text" : "route text",
					"outlettype" : [ "", "" ],
					"fontsize" : 9.0,
					"hidden" : 1,
					"numinlets" : 1,
					"fontname" : "Gill Sans",
					"numoutlets" : 2,
					"patching_rect" : [ 76.0, 69.0, 54.0, 17.0 ],
					"id" : "obj-26"
				}

			}
, 			{
				"box" : 				{
					"maxclass" : "comment",
					"text" : "R",
					"fontsize" : 9.0,
					"frgb" : [ 0.0, 0.0, 0.0, 1.0 ],
					"numinlets" : 1,
					"fontname" : "Gill Sans",
					"numoutlets" : 0,
					"patching_rect" : [ 2.0, 2.0, 17.0, 17.0 ],
					"id" : "obj-27"
				}

			}
, 			{
				"box" : 				{
					"maxclass" : "comment",
					"text" : "W",
					"fontsize" : 9.0,
					"frgb" : [ 0.0, 0.0, 0.0, 1.0 ],
					"numinlets" : 1,
					"fontname" : "Gill Sans",
					"numoutlets" : 0,
					"patching_rect" : [ 17.0, 2.0, 18.0, 17.0 ],
					"id" : "obj-28"
				}

			}
, 			{
				"box" : 				{
					"maxclass" : "button",
					"outlettype" : [ "bang" ],
					"numinlets" : 1,
					"fgcolor" : [ 0.6, 0.6, 1.0, 1.0 ],
					"numoutlets" : 1,
					"patching_rect" : [ 0.0, 0.0, 17.0, 17.0 ],
					"id" : "obj-29"
				}

			}
, 			{
				"box" : 				{
					"maxclass" : "button",
					"outlettype" : [ "bang" ],
					"numinlets" : 1,
					"fgcolor" : [ 1.0, 0.360784, 0.682353, 1.0 ],
					"numoutlets" : 1,
					"patching_rect" : [ 16.0, 0.0, 17.0, 17.0 ],
					"id" : "obj-30"
				}

			}
, 			{
				"box" : 				{
					"maxclass" : "textedit",
					"text" : "#1",
					"outlettype" : [ "", "int", "", "" ],
					"fontsize" : 9.0,
					"frgb" : [ 0.0, 0.0, 0.0, 1.0 ],
					"numinlets" : 1,
					"fontname" : "Gill Sans",
					"numoutlets" : 4,
					"patching_rect" : [ 47.0, 0.0, 155.0, 17.0 ],
					"id" : "obj-31"
				}

			}
, 			{
				"box" : 				{
					"maxclass" : "panel",
					"rounded" : 0,
					"bgcolor" : [ 0.0, 0.776471, 0.121569, 1.0 ],
					"border" : 1,
					"numinlets" : 1,
					"numoutlets" : 0,
					"patching_rect" : [ 32.0, 0.0, 16.0, 17.0 ],
					"id" : "obj-32"
				}

			}
 ],
		"lines" : [ 			{
				"patchline" : 				{
					"source" : [ "obj-11", 1 ],
					"destination" : [ "obj-9", 0 ],
					"hidden" : 0,
					"midpoints" : [  ]
				}

			}
, 			{
				"patchline" : 				{
					"source" : [ "obj-8", 0 ],
					"destination" : [ "obj-10", 0 ],
					"hidden" : 0,
					"midpoints" : [  ]
				}

			}
, 			{
				"patchline" : 				{
					"source" : [ "obj-9", 0 ],
					"destination" : [ "obj-10", 0 ],
					"hidden" : 0,
					"midpoints" : [  ]
				}

			}
, 			{
				"patchline" : 				{
					"source" : [ "obj-12", 1 ],
					"destination" : [ "obj-8", 0 ],
					"hidden" : 0,
					"midpoints" : [  ]
				}

			}
, 			{
				"patchline" : 				{
					"source" : [ "obj-11", 1 ],
					"destination" : [ "obj-24", 0 ],
					"hidden" : 0,
					"midpoints" : [  ]
				}

			}
, 			{
				"patchline" : 				{
					"source" : [ "obj-4", 1 ],
					"destination" : [ "obj-6", 0 ],
					"hidden" : 1,
					"midpoints" : [  ]
				}

			}
, 			{
				"patchline" : 				{
					"source" : [ "obj-7", 1 ],
					"destination" : [ "obj-15", 0 ],
					"hidden" : 1,
					"midpoints" : [  ]
				}

			}
, 			{
				"patchline" : 				{
					"source" : [ "obj-6", 1 ],
					"destination" : [ "obj-15", 0 ],
					"hidden" : 1,
					"midpoints" : [  ]
				}

			}
, 			{
				"patchline" : 				{
					"source" : [ "obj-16", 0 ],
					"destination" : [ "obj-15", 0 ],
					"hidden" : 1,
					"midpoints" : [  ]
				}

			}
, 			{
				"patchline" : 				{
					"source" : [ "obj-11", 0 ],
					"destination" : [ "obj-13", 0 ],
					"hidden" : 0,
					"midpoints" : [  ]
				}

			}
, 			{
				"patchline" : 				{
					"source" : [ "obj-26", 0 ],
					"destination" : [ "obj-21", 1 ],
					"hidden" : 1,
					"midpoints" : [  ]
				}

			}
, 			{
				"patchline" : 				{
					"source" : [ "obj-5", 1 ],
					"destination" : [ "obj-7", 0 ],
					"hidden" : 1,
					"midpoints" : [  ]
				}

			}
, 			{
				"patchline" : 				{
					"source" : [ "obj-21", 0 ],
					"destination" : [ "obj-11", 0 ],
					"hidden" : 0,
					"midpoints" : [  ]
				}

			}
, 			{
				"patchline" : 				{
					"source" : [ "obj-25", 0 ],
					"destination" : [ "obj-21", 0 ],
					"hidden" : 1,
					"midpoints" : [  ]
				}

			}
, 			{
				"patchline" : 				{
					"source" : [ "obj-24", 0 ],
					"destination" : [ "obj-19", 0 ],
					"hidden" : 0,
					"midpoints" : [  ]
				}

			}
, 			{
				"patchline" : 				{
					"source" : [ "obj-14", 0 ],
					"destination" : [ "obj-19", 0 ],
					"hidden" : 0,
					"midpoints" : [  ]
				}

			}
, 			{
				"patchline" : 				{
					"source" : [ "obj-23", 0 ],
					"destination" : [ "obj-19", 0 ],
					"hidden" : 0,
					"midpoints" : [  ]
				}

			}
, 			{
				"patchline" : 				{
					"source" : [ "obj-13", 0 ],
					"destination" : [ "obj-19", 0 ],
					"hidden" : 0,
					"midpoints" : [  ]
				}

			}
, 			{
				"patchline" : 				{
					"source" : [ "obj-26", 0 ],
					"destination" : [ "obj-22", 1 ],
					"hidden" : 1,
					"midpoints" : [  ]
				}

			}
, 			{
				"patchline" : 				{
					"source" : [ "obj-31", 0 ],
					"destination" : [ "obj-26", 0 ],
					"hidden" : 1,
					"midpoints" : [  ]
				}

			}
, 			{
				"patchline" : 				{
					"source" : [ "obj-20", 0 ],
					"destination" : [ "obj-22", 0 ],
					"hidden" : 1,
					"midpoints" : [  ]
				}

			}
, 			{
				"patchline" : 				{
					"source" : [ "obj-15", 0 ],
					"destination" : [ "obj-31", 0 ],
					"hidden" : 1,
					"midpoints" : [  ]
				}

			}
, 			{
				"patchline" : 				{
					"source" : [ "obj-25", 1 ],
					"destination" : [ "obj-31", 0 ],
					"hidden" : 1,
					"midpoints" : [  ]
				}

			}
, 			{
				"patchline" : 				{
					"source" : [ "obj-20", 1 ],
					"destination" : [ "obj-31", 0 ],
					"hidden" : 1,
					"midpoints" : [  ]
				}

			}
, 			{
				"patchline" : 				{
					"source" : [ "obj-12", 1 ],
					"destination" : [ "obj-23", 0 ],
					"hidden" : 0,
					"midpoints" : [  ]
				}

			}
, 			{
				"patchline" : 				{
					"source" : [ "obj-22", 0 ],
					"destination" : [ "obj-12", 0 ],
					"hidden" : 0,
					"midpoints" : [  ]
				}

			}
, 			{
				"patchline" : 				{
					"source" : [ "obj-6", 0 ],
					"destination" : [ "obj-30", 0 ],
					"hidden" : 1,
					"midpoints" : [  ]
				}

			}
, 			{
				"patchline" : 				{
					"source" : [ "obj-4", 0 ],
					"destination" : [ "obj-30", 0 ],
					"hidden" : 1,
					"midpoints" : [  ]
				}

			}
, 			{
				"patchline" : 				{
					"source" : [ "obj-30", 0 ],
					"destination" : [ "obj-25", 0 ],
					"hidden" : 1,
					"midpoints" : [  ]
				}

			}
, 			{
				"patchline" : 				{
					"source" : [ "obj-12", 0 ],
					"destination" : [ "obj-14", 0 ],
					"hidden" : 0,
					"midpoints" : [  ]
				}

			}
, 			{
				"patchline" : 				{
					"source" : [ "obj-7", 0 ],
					"destination" : [ "obj-29", 0 ],
					"hidden" : 1,
					"midpoints" : [  ]
				}

			}
, 			{
				"patchline" : 				{
					"source" : [ "obj-5", 0 ],
					"destination" : [ "obj-29", 0 ],
					"hidden" : 1,
					"midpoints" : [  ]
				}

			}
, 			{
				"patchline" : 				{
					"source" : [ "obj-17", 0 ],
					"destination" : [ "obj-4", 0 ],
					"hidden" : 1,
					"midpoints" : [  ]
				}

			}
, 			{
				"patchline" : 				{
					"source" : [ "obj-29", 0 ],
					"destination" : [ "obj-20", 0 ],
					"hidden" : 1,
					"midpoints" : [  ]
				}

			}
, 			{
				"patchline" : 				{
					"source" : [ "obj-18", 0 ],
					"destination" : [ "obj-5", 0 ],
					"hidden" : 1,
					"midpoints" : [  ]
				}

			}
 ]
	}

}
