max v2;#N vpatcher 34 44 1234 865;#P origin 20 -124;#P window setfont "Sans Serif" 10.;#P window linecount 1;#P newex 108 323 50 196618 phasor~;#P window setfont "Sans Serif" 9.;#P newex 404 125 41 196617 *~ 1.6;#P window setfont "Sans Serif" 10.;#P newex 688 459 155 196618 biquad~ 1. -1. 0. -0.9997 0.;#P outlet 829 791 15 0;#P window setfont "Sans Serif" 9.;#P flonum 894 389 35 9 0 0 0 3 0 0 0 221 221 221 222 222 222 0 0 0;#N vpatcher 0 44 600 444;#P window setfont "Sans Serif" 9.;#P newex 144 189 31 196617 mtof;#P newex 144 168 33 196617 - 12.;#P newex 144 146 31 196617 ftom;#P newex 50 64 76 196617 route list float;#P newex 50 208 66 196617 pack 1. 100.;#P newex 50 124 76 196617 unpack 1. 100.;#P newex 50 187 31 196617 mtof;#P newex 50 166 33 196617 - 12.;#P newex 50 144 31 196617 ftom;#P inlet 50 30 15 0;#P outlet 50 288 15 0;#P connect 1 0 7 0;#P connect 7 0 5 0;#P connect 5 0 2 0;#P connect 2 0 3 0;#P connect 3 0 4 0;#P connect 4 0 6 0;#P connect 6 0 0 0;#P connect 10 0 0 0;#P connect 5 1 6 1;#P connect 7 1 8 0;#P connect 8 0 9 0;#P connect 9 0 10 0;#P pop;#P newobj 116 34 70 196617 p list or float;#P window setfont "Sans Serif" 10.;#P newex 218 135 42 196618 cycle~;#P button 643 397 15 0;#P newex 526 63 65 196618 pack 1. 30.;#P window setfont "Sans Serif" 9.;#N vpatcher 134 367 734 767;#P window setfont "Sans Serif" 9.;#P newex 173 217 31 196617 cos~;#P newex 128 289 27 196617 +~;#P outlet 132 320 15 0;#P newex 213 123 57 196617 phasor~;#P newex 59 289 27 196617 -~;#P newex 109 252 35 196617 *~;#P newex 59 252 35 196617 *~;#P newex 107 182 31 196617 cos~;#P comment 181 72 109 196617 frequency of shift;#P comment 89 70 64 196617 imaginary;#P comment 52 71 33 196617 real;#P newex 178 182 44 196617 +~ 0.25;#P comment 157 312 171 196617 frequency shifted signal;#P comment 50 50 114 196617 signal to modulate;#P inlet 11 144 15 0;#P inlet 61 144 15 0;#P inlet 213 103 15 0;#P outlet 59 320 15 0;#P connect 3 0 11 0;#P connect 11 0 13 0;#P connect 13 0 0 0;#P connect 12 0 13 1;#P connect 10 0 11 1;#P connect 14 0 10 0;#P connect 2 0 12 0;#P connect 11 0 16 0;#P connect 16 0 15 0;#P connect 17 0 12 1;#P connect 12 0 16 1;#P connect 6 0 17 0;#P connect 14 0 6 0;#P connect 1 0 14 0;#P pop;#P newobj 687 529 84 196617 p complex-mod~;#P window setfont "Sans Serif" 10.;#P newex 284 183 41 196618 sig~ 1;#P inlet 244 -41 15 0;#P outlet 382 733 15 0;#P newex 291 87 36 196618 line~;#P newex 371 82 36 196618 line~;#P newex 207 87 36 196618 line~;#P window setfont "Sans Serif" 9.;#P newex 247 5 407 196617 route freq vfr vib bw amp cf shift phase cfgliss;#P window setfont "Sans Serif" 10.;#P newex 192 521 27 196618 *~;#P newex 192 571 32 196618 cos~;#P newex 290 327 27 196618 *~;#P newex 350 292 27 196618 *~;#P comment 391 316 116 196618 divide by fundamental;#P newex 108 348 62 196618 clip~ 0. 1.;#P newex 472 383 45 196618 +~ 0.5;#P newex 472 408 40 196618 %~ 1.;#P comment 463 361 103 196618 second phase signal;#P newex 192 607 35 196618 +~ 1;#P newex 97 428 44 196618 -~ 0.5;#P newex 164 663 27 196618 +~;#P newex 77 525 27 196618 *~;#P newex 77 568 32 196618 cos~;#P window setfont "Sans Serif" 9.;#N vpatcher 0 44 600 444;#P inlet 144 38 15 0;#P window setfont "Sans Serif" 9.;#P newex 188 50 48 196617 loadbang;#P newex 89 88 40 196617 *~ -1.;#P message 185 95 17 196617 0.;#P newex 88 58 38 196617 delta~;#P newex 50 142 31 196617 sah~;#P inlet 88 38 15 0;#P inlet 50 122 15 0;#P outlet 50 164 15 0;#P connect 5 0 3 0;#P connect 1 0 3 0;#P connect 3 0 0 0;#P connect 8 0 3 1;#P connect 6 0 3 1;#P connect 2 0 4 0;#P connect 4 0 6 0;#P connect 7 0 5 0;#P pop;#P newobj 212 494 65 196617 p samphold~;#N vpatcher 0 44 600 444;#P inlet 144 38 15 0;#P window setfont "Sans Serif" 9.;#P newex 188 50 48 196617 loadbang;#P newex 89 88 40 196617 *~ -1.;#P message 185 95 17 196617 0.;#P newex 88 58 38 196617 delta~;#P newex 50 142 31 196617 sah~;#P inlet 88 38 15 0;#P inlet 50 122 15 0;#P outlet 50 164 15 0;#P connect 5 0 3 0;#P connect 1 0 3 0;#P connect 3 0 0 0;#P connect 8 0 3 1;#P connect 6 0 3 1;#P connect 2 0 4 0;#P connect 4 0 6 0;#P connect 7 0 5 0;#P pop;#P newobj 141 480 65 196617 p samphold~;#P window setfont "Sans Serif" 10.;#P newex 77 616 27 196618 *~;#P newex 192 546 83 196618 clip~ -0.5 0.5;#P newex 363 542 27 196618 *~;#P newex 363 605 32 196618 cos~;#P newex 363 626 35 196618 +~ 1;#P newex 309 429 44 196618 -~ 0.5;#P newex 310 542 27 196618 *~;#P newex 310 584 32 196618 cos~;#P window setfont "Sans Serif" 9.;#N vpatcher 0 44 600 444;#P inlet 144 38 15 0;#P window setfont "Sans Serif" 9.;#P newex 188 50 48 196617 loadbang;#P newex 89 88 40 196617 *~ -1.;#P message 185 95 17 196617 0.;#P newex 88 58 38 196617 delta~;#P newex 50 142 31 196617 sah~;#P inlet 88 38 15 0;#P inlet 50 122 15 0;#P outlet 50 164 15 0;#P connect 1 0 3 0;#P connect 5 0 3 0;#P connect 3 0 0 0;#P connect 6 0 3 1;#P connect 8 0 3 1;#P connect 2 0 4 0;#P connect 4 0 6 0;#P connect 7 0 5 0;#P pop;#P newobj 442 497 65 196617 p samphold~;#N vpatcher 0 44 600 444;#P inlet 144 38 15 0;#P window setfont "Sans Serif" 9.;#P newex 188 50 48 196617 loadbang;#P newex 89 88 40 196617 *~ -1.;#P message 185 95 17 196617 0.;#P newex 88 58 38 196617 delta~;#P newex 50 142 31 196617 sah~;#P inlet 88 38 15 0;#P inlet 50 122 15 0;#P outlet 50 164 15 0;#P connect 5 0 3 0;#P connect 1 0 3 0;#P connect 3 0 0 0;#P connect 8 0 3 1;#P connect 6 0 3 1;#P connect 2 0 4 0;#P connect 4 0 6 0;#P connect 7 0 5 0;#P pop;#P newobj 371 497 65 196617 p samphold~;#P window setfont "Sans Serif" 10.;#P newex 310 605 27 196618 *~;#P newex 363 584 83 196618 clip~ -0.5 0.5;#P newex 361 340 75 196618 maximum~ 1;#P newex 121 87 36 196618 line~;#P newex 225 211 27 196618 +~;#P newex 186 233 27 196618 *~;#P newex 225 176 27 196618 *~;#P newex 250 271 27 196618 /~;#P newex 742 181 22 196618 t 0;#P newex 594 120 36 196618 line~;#P newex 676 347 36 196618 line~;#P newex 742 152 49 196618 route 0.;#P newex 698 152 30 196618 t b f;#P newex 675 302 55 196618 pack 0. 0;#P newex 631 262 56 196618 route 0 1;#P newex 631 239 55 196618 pack 0 0.;#P newex 631 215 27 196618 > 0.;#P newex 631 193 59 196618 snapshot~;#P message 568 454 90 196618 -1000099968.;#P newex 757 301 56 196618 line 0 30;#P newex 561 411 27 196618 *~;#P comment 271 -21 374 196618 hack to allow glissandi which aren't implemented in the controller window.;#P newex 594 97 150 196618 linedrive 154 0.02 1.06 30;#P newex 794 440 36 196618 line~;#P newex 880 443 27 196618 > 0.;#P newex 880 476 59 196618 pack 0 10;#P newex 880 500 36 196618 line~;#P newex 640 590 27 196618 -~;#P newex 660 618 27 196618 *~;#P newex 612 692 27 196618 +~;#P newex 766 389 25 196618 t 0.;#P newex 766 365 49 196618 route 0.;#P newex 944 344 32 196618 mtof;#P newex 944 313 37 196618 - 60.;#P newex 831 335 19 196618 t f;#P newex 93 138 123 196618 nothing osc2~ vib1.snd;#P connect 51 0 49 0;#P connect 49 0 48 0;#P connect 48 0 45 0;#P connect 46 0 49 1;#P connect 52 0 45 1;#P connect 56 0 51 0;#P connect 30 0 78 0;#P connect 78 0 56 0;#P connect 62 0 73 0;#P connect 73 0 32 0;#P connect 59 0 46 0;#P connect 45 0 50 0;#P connect 56 0 46 1;#P connect 35 0 50 1;#P connect 32 0 30 0;#P connect 51 0 61 0;#P connect 61 0 44 0;#P connect 44 0 60 0;#P connect 60 0 52 0;#P connect 17 0 46 2;#P connect 31 0 30 1;#P connect 62 1 63 0;#P connect 47 0 61 1;#P connect 33 0 47 0;#P connect 63 0 72 0;#P connect 72 0 29 0;#P connect 29 0 31 0;#P connect 56 0 47 1;#P connect 65 0 29 1;#P connect 68 0 31 1;#P connect 67 0 62 0;#P connect 68 0 28 0;#P connect 17 0 47 2;#P connect 30 0 28 1;#P connect 25 0 59 0;#P connect 62 2 65 0;#P connect 28 0 59 1;#P connect 54 0 40 0;#P connect 40 0 39 0;#P connect 39 0 38 0;#P connect 38 0 35 0;#P connect 36 0 39 1;#P connect 41 0 35 1;#P connect 77 0 58 0;#P connect 58 0 33 0;#P connect 40 0 43 0;#P connect 43 0 34 0;#P connect 34 0 42 0;#P connect 42 0 41 0;#P connect 28 0 58 1;#P connect 62 3 64 0;#P connect 59 0 36 0;#P connect 37 0 43 1;#P connect 6 0 66 0;#P connect 54 0 36 1;#P connect 64 0 77 0;#P connect 17 0 36 2;#P connect 33 0 37 0;#P connect 54 0 37 1;#P connect 56 0 55 0;#P connect 55 0 54 0;#P connect 17 0 37 2;#P connect 62 4 70 0;#P fasten 50 0 15 0 417 726;#P connect 26 0 15 1;#P connect 70 0 26 0;#P connect 13 0 26 0;#P connect 15 0 6 0;#P connect 7 0 6 1;#P connect 23 0 18 0;#P connect 26 0 18 0;#P connect 18 0 19 0;#P connect 19 0 20 0;#P connect 20 0 21 0;#P connect 69 0 8 0;#P connect 21 0 71 0;#P connect 15 0 8 1;#P connect 8 0 7 0;#P connect 21 1 22 0;#P connect 27 0 20 1;#P fasten 24 1 20 1 801 195;#P connect 22 0 25 0;#P connect 21 0 25 0;#P connect 9 0 7 1;#P connect 76 0 69 0;#P connect 15 0 76 0;#P fasten 62 5 23 0 766 82;#P connect 16 0 22 1;#P connect 23 1 24 0;#P connect 24 0 27 0;#P fasten 62 7 16 0 841 62 914 175;#P connect 12 0 69 2;#P connect 1 0 4 0;#P connect 4 0 5 0;#P connect 5 0 12 0;#P connect 3 0 12 0;#P connect 69 0 75 0;#P fasten 62 6 1 0 816 72 952 269;#P connect 1 0 11 0;#P connect 11 0 10 0;#P connect 10 0 9 0;#P connect 1 0 74 0;#P connect 4 1 2 0;#P connect 2 0 3 0;#P pop;