{
	"patcher" : 	{
		"fileversion" : 1,
		"rect" : [ 91.0, 44.0, 600.0, 830.0 ],
		"bgcolor" : [ 0.784314, 0.862745, 0.862745, 1.0 ],
		"bglocked" : 0,
		"defrect" : [ 91.0, 44.0, 600.0, 830.0 ],
		"openrect" : [ 0.0, 0.0, 0.0, 0.0 ],
		"openinpresentation" : 0,
		"default_fontsize" : 12.0,
		"default_fontface" : 0,
		"default_fontname" : "Arial",
		"gridonopen" : 0,
		"gridsize" : [ 15.0, 15.0 ],
		"gridsnaponopen" : 0,
		"toolbarvisible" : 1,
		"boxanimatetime" : 200,
		"imprint" : 0,
		"boxes" : [ 			{
				"box" : 				{
					"maxclass" : "newobj",
					"text" : "loadmess 1",
					"fontsize" : 12.0,
					"hidden" : 1,
					"numinlets" : 1,
					"numoutlets" : 1,
					"fontname" : "Arial",
					"outlettype" : [ "" ],
					"patching_rect" : [ 465.0, 406.0, 72.0, 20.0 ],
					"id" : "obj-27"
				}

			}
, 			{
				"box" : 				{
					"maxclass" : "comment",
					"text" : "<-- change the contour here",
					"fontsize" : 12.0,
					"frgb" : [ 0.0, 0.0, 0.0, 1.0 ],
					"numinlets" : 1,
					"numoutlets" : 0,
					"fontname" : "Arial",
					"patching_rect" : [ 270.0, 400.0, 159.0, 20.0 ],
					"id" : "obj-26"
				}

			}
, 			{
				"box" : 				{
					"maxclass" : "newobj",
					"text" : "mt_player",
					"fontsize" : 12.0,
					"numinlets" : 2,
					"numoutlets" : 0,
					"fontname" : "Arial",
					"patching_rect" : [ 516.0, 317.0, 63.0, 20.0 ],
					"id" : "obj-1"
				}

			}
, 			{
				"box" : 				{
					"maxclass" : "toggle",
					"numinlets" : 1,
					"numoutlets" : 1,
					"outlettype" : [ "int" ],
					"patching_rect" : [ 516.0, 267.0, 20.0, 20.0 ],
					"id" : "obj-2"
				}

			}
, 			{
				"box" : 				{
					"maxclass" : "newobj",
					"text" : "gate",
					"fontsize" : 12.0,
					"numinlets" : 2,
					"numoutlets" : 1,
					"fontname" : "Arial",
					"outlettype" : [ "" ],
					"patching_rect" : [ 516.0, 289.0, 34.0, 20.0 ],
					"id" : "obj-3"
				}

			}
, 			{
				"box" : 				{
					"maxclass" : "newobj",
					"text" : "mt_player",
					"fontsize" : 12.0,
					"numinlets" : 2,
					"numoutlets" : 0,
					"fontname" : "Arial",
					"patching_rect" : [ 522.0, 774.0, 63.0, 20.0 ],
					"id" : "obj-4"
				}

			}
, 			{
				"box" : 				{
					"maxclass" : "toggle",
					"numinlets" : 1,
					"numoutlets" : 1,
					"outlettype" : [ "int" ],
					"patching_rect" : [ 522.0, 724.0, 20.0, 20.0 ],
					"id" : "obj-5"
				}

			}
, 			{
				"box" : 				{
					"maxclass" : "newobj",
					"text" : "gate",
					"fontsize" : 12.0,
					"numinlets" : 2,
					"numoutlets" : 1,
					"fontname" : "Arial",
					"outlettype" : [ "" ],
					"patching_rect" : [ 522.0, 746.0, 34.0, 20.0 ],
					"id" : "obj-6"
				}

			}
, 			{
				"box" : 				{
					"maxclass" : "comment",
					"text" : "1/6th tones not working",
					"fontsize" : 12.0,
					"frgb" : [ 0.0, 0.0, 0.0, 1.0 ],
					"numinlets" : 1,
					"numoutlets" : 0,
					"fontname" : "Arial",
					"patching_rect" : [ 428.0, 438.0, 135.0, 20.0 ],
					"id" : "obj-7"
				}

			}
, 			{
				"box" : 				{
					"maxclass" : "message",
					"text" : "micromode $1",
					"fontsize" : 12.0,
					"numinlets" : 2,
					"numoutlets" : 1,
					"fontname" : "Arial",
					"outlettype" : [ "" ],
					"patching_rect" : [ 431.0, 498.0, 87.0, 18.0 ],
					"id" : "obj-8"
				}

			}
, 			{
				"box" : 				{
					"maxclass" : "umenu",
					"fontsize" : 12.0,
					"numinlets" : 1,
					"types" : [  ],
					"items" : [ "half-tones", ",", "quarter-tones", ",", "sixth-tones", ",", "eighth-tones" ],
					"numoutlets" : 3,
					"fontname" : "Arial",
					"outlettype" : [ "int", "", "" ],
					"patching_rect" : [ 431.0, 458.0, 100.0, 20.0 ],
					"id" : "obj-9"
				}

			}
, 			{
				"box" : 				{
					"maxclass" : "newobj",
					"text" : "vexpr $f1 + $f2 @scalarmode 1",
					"fontsize" : 12.0,
					"numinlets" : 2,
					"numoutlets" : 1,
					"fontname" : "Arial",
					"outlettype" : [ "" ],
					"patching_rect" : [ 67.0, 499.0, 178.0, 20.0 ],
					"id" : "obj-10"
				}

			}
, 			{
				"box" : 				{
					"maxclass" : "flonum",
					"htextcolor" : [ 0.870588, 0.870588, 0.870588, 1.0 ],
					"fontsize" : 12.0,
					"triscale" : 0.9,
					"bgcolor" : [ 0.866667, 0.866667, 0.866667, 1.0 ],
					"numinlets" : 1,
					"numoutlets" : 2,
					"fontname" : "Arial",
					"outlettype" : [ "float", "bang" ],
					"patching_rect" : [ 300.0, 457.0, 40.0, 20.0 ],
					"id" : "obj-11"
				}

			}
, 			{
				"box" : 				{
					"maxclass" : "newobj",
					"text" : "t l l",
					"fontsize" : 12.0,
					"numinlets" : 1,
					"numoutlets" : 2,
					"fontname" : "Arial",
					"outlettype" : [ "", "" ],
					"patching_rect" : [ 67.0, 336.0, 251.5, 20.0 ],
					"id" : "obj-12"
				}

			}
, 			{
				"box" : 				{
					"maxclass" : "newobj",
					"text" : "zl slice 1",
					"fontsize" : 12.0,
					"numinlets" : 2,
					"numoutlets" : 2,
					"fontname" : "Arial",
					"outlettype" : [ "", "" ],
					"patching_rect" : [ 300.0, 426.0, 57.0, 20.0 ],
					"id" : "obj-13"
				}

			}
, 			{
				"box" : 				{
					"maxclass" : "newobj",
					"text" : "js cumsum.js",
					"fontsize" : 12.0,
					"numinlets" : 1,
					"numoutlets" : 1,
					"fontname" : "Arial",
					"outlettype" : [ "" ],
					"patching_rect" : [ 67.0, 458.0, 80.0, 20.0 ],
					"id" : "obj-14"
				}

			}
, 			{
				"box" : 				{
					"maxclass" : "flonum",
					"htextcolor" : [ 0.870588, 0.870588, 0.870588, 1.0 ],
					"fontsize" : 12.0,
					"triscale" : 0.9,
					"bgcolor" : [ 0.866667, 0.866667, 0.866667, 1.0 ],
					"numinlets" : 1,
					"numoutlets" : 2,
					"fontname" : "Arial",
					"outlettype" : [ "float", "bang" ],
					"patching_rect" : [ 223.0, 401.0, 40.0, 20.0 ],
					"id" : "obj-15"
				}

			}
, 			{
				"box" : 				{
					"maxclass" : "newobj",
					"text" : "loadmess 0.5",
					"fontsize" : 12.0,
					"numinlets" : 1,
					"numoutlets" : 1,
					"fontname" : "Arial",
					"outlettype" : [ "" ],
					"patching_rect" : [ 223.0, 377.0, 82.0, 20.0 ],
					"id" : "obj-16"
				}

			}
, 			{
				"box" : 				{
					"maxclass" : "newobj",
					"text" : "vexpr $f1 * $f2 @scalarmode 1",
					"fontsize" : 12.0,
					"numinlets" : 2,
					"numoutlets" : 1,
					"fontname" : "Arial",
					"outlettype" : [ "" ],
					"patching_rect" : [ 67.0, 424.0, 175.0, 20.0 ],
					"id" : "obj-18"
				}

			}
, 			{
				"box" : 				{
					"maxclass" : "newobj",
					"text" : "js listdelta.js",
					"fontsize" : 12.0,
					"numinlets" : 1,
					"numoutlets" : 1,
					"fontname" : "Arial",
					"outlettype" : [ "" ],
					"patching_rect" : [ 67.0, 359.0, 75.0, 20.0 ],
					"id" : "obj-19"
				}

			}
, 			{
				"box" : 				{
					"maxclass" : "newobj",
					"text" : "delay 10",
					"fontsize" : 12.0,
					"numinlets" : 2,
					"numoutlets" : 1,
					"fontname" : "Arial",
					"outlettype" : [ "bang" ],
					"patching_rect" : [ 67.0, 23.0, 56.0, 20.0 ],
					"id" : "obj-21"
				}

			}
, 			{
				"box" : 				{
					"maxclass" : "jsui",
					"jsarguments" : [  ],
					"nofsaa" : 1,
					"numinlets" : 1,
					"filename" : "jsChord.js",
					"numoutlets" : 2,
					"outlettype" : [ "", "" ],
					"patching_rect" : [ 67.0, 536.0, 436.0, 272.0 ],
					"id" : "obj-22"
				}

			}
, 			{
				"box" : 				{
					"maxclass" : "newobj",
					"text" : "loadbang",
					"fontsize" : 12.0,
					"numinlets" : 1,
					"numoutlets" : 1,
					"fontname" : "Arial",
					"outlettype" : [ "bang" ],
					"patching_rect" : [ 67.0, 1.0, 60.0, 20.0 ],
					"id" : "obj-23"
				}

			}
, 			{
				"box" : 				{
					"maxclass" : "message",
					"text" : "72 77 70 75 68 73 66 71 64 69 62 67",
					"fontsize" : 12.0,
					"numinlets" : 2,
					"numoutlets" : 1,
					"fontname" : "Arial",
					"outlettype" : [ "" ],
					"patching_rect" : [ 67.0, 45.0, 207.0, 18.0 ],
					"id" : "obj-24"
				}

			}
, 			{
				"box" : 				{
					"maxclass" : "jsui",
					"jsarguments" : [  ],
					"nofsaa" : 1,
					"numinlets" : 1,
					"filename" : "jsChord.js",
					"numoutlets" : 2,
					"outlettype" : [ "", "" ],
					"patching_rect" : [ 67.0, 66.0, 436.0, 266.0 ],
					"id" : "obj-25"
				}

			}
 ],
		"lines" : [ 			{
				"patchline" : 				{
					"source" : [ "obj-27", 0 ],
					"destination" : [ "obj-9", 0 ],
					"hidden" : 1,
					"midpoints" : [  ]
				}

			}
, 			{
				"patchline" : 				{
					"source" : [ "obj-23", 0 ],
					"destination" : [ "obj-21", 0 ],
					"hidden" : 0,
					"midpoints" : [  ]
				}

			}
, 			{
				"patchline" : 				{
					"source" : [ "obj-21", 0 ],
					"destination" : [ "obj-24", 0 ],
					"hidden" : 0,
					"midpoints" : [  ]
				}

			}
, 			{
				"patchline" : 				{
					"source" : [ "obj-24", 0 ],
					"destination" : [ "obj-25", 0 ],
					"hidden" : 0,
					"midpoints" : [  ]
				}

			}
, 			{
				"patchline" : 				{
					"source" : [ "obj-25", 0 ],
					"destination" : [ "obj-12", 0 ],
					"hidden" : 0,
					"midpoints" : [  ]
				}

			}
, 			{
				"patchline" : 				{
					"source" : [ "obj-12", 0 ],
					"destination" : [ "obj-19", 0 ],
					"hidden" : 0,
					"midpoints" : [  ]
				}

			}
, 			{
				"patchline" : 				{
					"source" : [ "obj-8", 0 ],
					"destination" : [ "obj-22", 0 ],
					"hidden" : 0,
					"midpoints" : [  ]
				}

			}
, 			{
				"patchline" : 				{
					"source" : [ "obj-16", 0 ],
					"destination" : [ "obj-15", 0 ],
					"hidden" : 0,
					"midpoints" : [  ]
				}

			}
, 			{
				"patchline" : 				{
					"source" : [ "obj-12", 1 ],
					"destination" : [ "obj-13", 0 ],
					"hidden" : 0,
					"midpoints" : [  ]
				}

			}
, 			{
				"patchline" : 				{
					"source" : [ "obj-13", 0 ],
					"destination" : [ "obj-11", 0 ],
					"hidden" : 0,
					"midpoints" : [  ]
				}

			}
, 			{
				"patchline" : 				{
					"source" : [ "obj-9", 0 ],
					"destination" : [ "obj-8", 0 ],
					"hidden" : 0,
					"midpoints" : [  ]
				}

			}
, 			{
				"patchline" : 				{
					"source" : [ "obj-2", 0 ],
					"destination" : [ "obj-3", 0 ],
					"hidden" : 0,
					"midpoints" : [  ]
				}

			}
, 			{
				"patchline" : 				{
					"source" : [ "obj-3", 0 ],
					"destination" : [ "obj-1", 0 ],
					"hidden" : 0,
					"midpoints" : [  ]
				}

			}
, 			{
				"patchline" : 				{
					"source" : [ "obj-5", 0 ],
					"destination" : [ "obj-6", 0 ],
					"hidden" : 0,
					"midpoints" : [  ]
				}

			}
, 			{
				"patchline" : 				{
					"source" : [ "obj-6", 0 ],
					"destination" : [ "obj-4", 0 ],
					"hidden" : 0,
					"midpoints" : [  ]
				}

			}
, 			{
				"patchline" : 				{
					"source" : [ "obj-25", 1 ],
					"destination" : [ "obj-3", 1 ],
					"hidden" : 0,
					"midpoints" : [ 493.5, 338.0, 509.0, 338.0, 509.0, 246.0, 540.5, 246.0 ]
				}

			}
, 			{
				"patchline" : 				{
					"source" : [ "obj-22", 1 ],
					"destination" : [ "obj-6", 1 ],
					"hidden" : 0,
					"midpoints" : [ 493.5, 816.0, 515.0, 808.0, 515.0, 692.0, 546.5, 710.0 ]
				}

			}
, 			{
				"patchline" : 				{
					"source" : [ "obj-15", 0 ],
					"destination" : [ "obj-18", 1 ],
					"hidden" : 0,
					"midpoints" : [  ]
				}

			}
, 			{
				"patchline" : 				{
					"source" : [ "obj-18", 0 ],
					"destination" : [ "obj-14", 0 ],
					"hidden" : 0,
					"midpoints" : [  ]
				}

			}
, 			{
				"patchline" : 				{
					"source" : [ "obj-19", 0 ],
					"destination" : [ "obj-18", 0 ],
					"hidden" : 0,
					"midpoints" : [  ]
				}

			}
, 			{
				"patchline" : 				{
					"source" : [ "obj-11", 0 ],
					"destination" : [ "obj-10", 1 ],
					"hidden" : 0,
					"midpoints" : [  ]
				}

			}
, 			{
				"patchline" : 				{
					"source" : [ "obj-10", 0 ],
					"destination" : [ "obj-22", 0 ],
					"hidden" : 0,
					"midpoints" : [  ]
				}

			}
, 			{
				"patchline" : 				{
					"source" : [ "obj-14", 0 ],
					"destination" : [ "obj-10", 0 ],
					"hidden" : 0,
					"midpoints" : [  ]
				}

			}
 ]
	}

}
