{
	"patcher" : 	{
		"fileversion" : 1,
		"rect" : [ 20.0, 74.0, 642.0, 431.0 ],
		"bgcolor" : [ 0.870588, 0.929412, 1.0, 1.0 ],
		"bglocked" : 0,
		"defrect" : [ 20.0, 74.0, 642.0, 431.0 ],
		"openrect" : [ 0.0, 0.0, 0.0, 0.0 ],
		"openinpresentation" : 0,
		"default_fontsize" : 12.0,
		"default_fontface" : 0,
		"default_fontname" : "Arial",
		"gridonopen" : 0,
		"gridsize" : [ 15.0, 15.0 ],
		"gridsnaponopen" : 0,
		"toolbarvisible" : 1,
		"boxanimatetime" : 200,
		"imprint" : 0,
		"boxes" : [ 			{
				"box" : 				{
					"maxclass" : "button",
					"id" : "obj-42",
					"numinlets" : 1,
					"patching_rect" : [ 487.0, 110.0, 20.0, 20.0 ],
					"numoutlets" : 1,
					"outlettype" : [ "bang" ]
				}

			}
, 			{
				"box" : 				{
					"maxclass" : "button",
					"id" : "obj-40",
					"numinlets" : 1,
					"patching_rect" : [ 395.0, 110.0, 20.0, 20.0 ],
					"numoutlets" : 1,
					"outlettype" : [ "bang" ]
				}

			}
, 			{
				"box" : 				{
					"maxclass" : "button",
					"id" : "obj-38",
					"numinlets" : 1,
					"patching_rect" : [ 266.0, 110.0, 20.0, 20.0 ],
					"numoutlets" : 1,
					"outlettype" : [ "bang" ]
				}

			}
, 			{
				"box" : 				{
					"maxclass" : "button",
					"id" : "obj-36",
					"numinlets" : 1,
					"patching_rect" : [ 142.0, 110.0, 20.0, 20.0 ],
					"numoutlets" : 1,
					"outlettype" : [ "bang" ]
				}

			}
, 			{
				"box" : 				{
					"maxclass" : "button",
					"id" : "obj-34",
					"numinlets" : 1,
					"patching_rect" : [ 32.0, 110.0, 20.0, 20.0 ],
					"numoutlets" : 1,
					"outlettype" : [ "bang" ]
				}

			}
, 			{
				"box" : 				{
					"maxclass" : "bpatcher",
					"prototypename" : "cnmat_badge",
					"id" : "obj-32",
					"args" : [ "ranIJ.help", "1.0a", "Matt Wright", "ranIJ", 6666 ],
					"numinlets" : 0,
					"patching_rect" : [ 336.0, 321.0, 296.0, 86.0 ],
					"numoutlets" : 0,
					"name" : "badge.maxpat"
				}

			}
, 			{
				"box" : 				{
					"maxclass" : "number",
					"id" : "obj-2",
					"fontname" : "Arial",
					"htextcolor" : [ 0.870588, 0.870588, 0.870588, 1.0 ],
					"fontsize" : 12.0,
					"triscale" : 0.9,
					"numinlets" : 1,
					"patching_rect" : [ 487.0, 163.0, 37.0, 20.0 ],
					"numoutlets" : 2,
					"bgcolor" : [ 0.866667, 0.866667, 0.866667, 1.0 ],
					"outlettype" : [ "int", "bang" ]
				}

			}
, 			{
				"box" : 				{
					"maxclass" : "newobj",
					"text" : "ranIJ 10 5",
					"id" : "obj-4",
					"fontname" : "Arial",
					"fontsize" : 12.0,
					"numinlets" : 3,
					"patching_rect" : [ 487.0, 141.0, 74.0, 20.0 ],
					"numoutlets" : 1,
					"color" : [ 1.0, 1.0, 0.117647, 1.0 ],
					"outlettype" : [ "int" ]
				}

			}
, 			{
				"box" : 				{
					"maxclass" : "number",
					"id" : "obj-5",
					"fontname" : "Arial",
					"htextcolor" : [ 0.870588, 0.870588, 0.870588, 1.0 ],
					"fontsize" : 12.0,
					"triscale" : 0.9,
					"numinlets" : 1,
					"patching_rect" : [ 395.0, 163.0, 37.0, 20.0 ],
					"numoutlets" : 2,
					"bgcolor" : [ 0.866667, 0.866667, 0.866667, 1.0 ],
					"outlettype" : [ "int", "bang" ]
				}

			}
, 			{
				"box" : 				{
					"maxclass" : "newobj",
					"text" : "ranIJ 5 5",
					"id" : "obj-7",
					"fontname" : "Arial",
					"fontsize" : 12.0,
					"numinlets" : 3,
					"patching_rect" : [ 395.0, 141.0, 65.0, 20.0 ],
					"numoutlets" : 1,
					"color" : [ 1.0, 1.0, 0.117647, 1.0 ],
					"outlettype" : [ "int" ]
				}

			}
, 			{
				"box" : 				{
					"maxclass" : "comment",
					"text" : "If I>J it switches I and J.",
					"linecount" : 2,
					"id" : "obj-8",
					"fontname" : "Arial",
					"frgb" : [ 0.0, 0.0, 0.0, 1.0 ],
					"fontsize" : 12.0,
					"numinlets" : 1,
					"patching_rect" : [ 487.0, 186.0, 97.0, 34.0 ],
					"numoutlets" : 0
				}

			}
, 			{
				"box" : 				{
					"maxclass" : "comment",
					"text" : "If I=J you'll always get I.",
					"linecount" : 2,
					"id" : "obj-9",
					"fontname" : "Arial",
					"frgb" : [ 0.0, 0.0, 0.0, 1.0 ],
					"fontsize" : 12.0,
					"numinlets" : 1,
					"patching_rect" : [ 393.0, 186.0, 88.0, 34.0 ],
					"numoutlets" : 0
				}

			}
, 			{
				"box" : 				{
					"maxclass" : "comment",
					"text" : "You won't believe how much there is to know about this idea:",
					"id" : "obj-10",
					"fontname" : "Arial",
					"frgb" : [ 0.0, 0.0, 0.0, 1.0 ],
					"fontsize" : 12.0,
					"numinlets" : 1,
					"patching_rect" : [ 15.0, 288.0, 420.0, 20.0 ],
					"numoutlets" : 0
				}

			}
, 			{
				"box" : 				{
					"maxclass" : "comment",
					"text" : "Inlets too.",
					"id" : "obj-11",
					"fontname" : "Arial",
					"frgb" : [ 0.0, 0.0, 0.0, 1.0 ],
					"fontsize" : 12.0,
					"numinlets" : 1,
					"patching_rect" : [ 266.0, 186.0, 83.0, 20.0 ],
					"numoutlets" : 0
				}

			}
, 			{
				"box" : 				{
					"maxclass" : "comment",
					"text" : "Optional args set range",
					"linecount" : 2,
					"id" : "obj-12",
					"fontname" : "Arial",
					"frgb" : [ 0.0, 0.0, 0.0, 1.0 ],
					"fontsize" : 12.0,
					"numinlets" : 1,
					"patching_rect" : [ 142.0, 186.0, 83.0, 34.0 ],
					"numoutlets" : 0
				}

			}
, 			{
				"box" : 				{
					"maxclass" : "number",
					"id" : "obj-13",
					"fontname" : "Arial",
					"htextcolor" : [ 0.870588, 0.870588, 0.870588, 1.0 ],
					"fontsize" : 12.0,
					"triscale" : 0.9,
					"numinlets" : 1,
					"patching_rect" : [ 336.0, 110.0, 37.0, 20.0 ],
					"numoutlets" : 2,
					"bgcolor" : [ 0.866667, 0.866667, 0.866667, 1.0 ],
					"outlettype" : [ "int", "bang" ]
				}

			}
, 			{
				"box" : 				{
					"maxclass" : "number",
					"id" : "obj-14",
					"fontname" : "Arial",
					"htextcolor" : [ 0.870588, 0.870588, 0.870588, 1.0 ],
					"fontsize" : 12.0,
					"triscale" : 0.9,
					"numinlets" : 1,
					"patching_rect" : [ 301.0, 110.0, 37.0, 20.0 ],
					"numoutlets" : 2,
					"bgcolor" : [ 0.866667, 0.866667, 0.866667, 1.0 ],
					"outlettype" : [ "int", "bang" ]
				}

			}
, 			{
				"box" : 				{
					"maxclass" : "number",
					"id" : "obj-15",
					"fontname" : "Arial",
					"htextcolor" : [ 0.870588, 0.870588, 0.870588, 1.0 ],
					"fontsize" : 12.0,
					"triscale" : 0.9,
					"numinlets" : 1,
					"patching_rect" : [ 266.0, 163.0, 37.0, 20.0 ],
					"numoutlets" : 2,
					"bgcolor" : [ 0.866667, 0.866667, 0.866667, 1.0 ],
					"outlettype" : [ "int", "bang" ]
				}

			}
, 			{
				"box" : 				{
					"maxclass" : "newobj",
					"text" : "ranIJ",
					"id" : "obj-17",
					"fontname" : "Arial",
					"fontsize" : 12.0,
					"numinlets" : 3,
					"patching_rect" : [ 266.0, 141.0, 89.0, 20.0 ],
					"numoutlets" : 1,
					"color" : [ 1.0, 1.0, 0.117647, 1.0 ],
					"outlettype" : [ "int" ]
				}

			}
, 			{
				"box" : 				{
					"maxclass" : "number",
					"id" : "obj-18",
					"fontname" : "Arial",
					"htextcolor" : [ 0.870588, 0.870588, 0.870588, 1.0 ],
					"fontsize" : 12.0,
					"triscale" : 0.9,
					"numinlets" : 1,
					"patching_rect" : [ 142.0, 163.0, 37.0, 20.0 ],
					"numoutlets" : 2,
					"bgcolor" : [ 0.866667, 0.866667, 0.866667, 1.0 ],
					"outlettype" : [ "int", "bang" ]
				}

			}
, 			{
				"box" : 				{
					"maxclass" : "newobj",
					"text" : "ranIJ 5 10",
					"id" : "obj-20",
					"fontname" : "Arial",
					"fontsize" : 12.0,
					"numinlets" : 3,
					"patching_rect" : [ 142.0, 141.0, 64.0, 20.0 ],
					"numoutlets" : 1,
					"color" : [ 1.0, 1.0, 0.117647, 1.0 ],
					"outlettype" : [ "int" ]
				}

			}
, 			{
				"box" : 				{
					"maxclass" : "ubutton",
					"id" : "obj-21",
					"handoff" : "",
					"numinlets" : 1,
					"patching_rect" : [ 21.0, 304.0, 312.0, 20.0 ],
					"numoutlets" : 4,
					"outlettype" : [ "bang", "bang", "", "int" ]
				}

			}
, 			{
				"box" : 				{
					"maxclass" : "message",
					"text" : ";\rmax launch_browser http://en.wikipedia.org/wiki/Uniform_distribution_(discrete)",
					"linecount" : 2,
					"id" : "obj-22",
					"fontname" : "Arial",
					"hidden" : 1,
					"fontsize" : 12.0,
					"numinlets" : 2,
					"patching_rect" : [ 34.0, 323.0, 517.0, 32.0 ],
					"numoutlets" : 1,
					"outlettype" : [ "" ]
				}

			}
, 			{
				"box" : 				{
					"maxclass" : "comment",
					"text" : "http://en.wikipedia.org/wiki/Uniform_distribution_(discrete)",
					"id" : "obj-23",
					"fontname" : "Arial",
					"frgb" : [ 0.8, 0.54902, 0.54902, 1.0 ],
					"fontsize" : 12.0,
					"textcolor" : [ 0.8, 0.54902, 0.54902, 1.0 ],
					"numinlets" : 1,
					"patching_rect" : [ 21.0, 304.0, 396.0, 20.0 ],
					"numoutlets" : 0
				}

			}
, 			{
				"box" : 				{
					"maxclass" : "number",
					"id" : "obj-24",
					"fontname" : "Arial",
					"htextcolor" : [ 0.870588, 0.870588, 0.870588, 1.0 ],
					"fontsize" : 12.0,
					"triscale" : 0.9,
					"numinlets" : 1,
					"patching_rect" : [ 32.0, 163.0, 37.0, 20.0 ],
					"numoutlets" : 2,
					"bgcolor" : [ 0.866667, 0.866667, 0.866667, 1.0 ],
					"outlettype" : [ "int", "bang" ]
				}

			}
, 			{
				"box" : 				{
					"maxclass" : "newobj",
					"text" : "ranIJ",
					"id" : "obj-26",
					"fontname" : "Arial",
					"fontsize" : 12.0,
					"numinlets" : 3,
					"patching_rect" : [ 32.0, 141.0, 46.0, 20.0 ],
					"numoutlets" : 1,
					"color" : [ 1.0, 1.0, 0.117647, 1.0 ],
					"outlettype" : [ "int" ]
				}

			}
, 			{
				"box" : 				{
					"maxclass" : "bpatcher",
					"id" : "obj-27",
					"lockeddragscroll" : 1,
					"args" : [ "ranIJ: generate a random int in the given range", "ranIJ" ],
					"numinlets" : 0,
					"patching_rect" : [ 0.0, 12.0, 514.0, 74.0 ],
					"numoutlets" : 0,
					"name" : "_aLib-CNMAT-info.maxpat"
				}

			}
, 			{
				"box" : 				{
					"maxclass" : "comment",
					"text" : "A Max patch reimplementation of Gary Lee Nelson's ranIJ external, including the undocumented feature/bug that J is never returned, without his sophisticated seeding features.",
					"linecount" : 3,
					"id" : "obj-28",
					"fontname" : "Arial",
					"frgb" : [ 0.0, 0.0, 0.0, 1.0 ],
					"fontsize" : 12.0,
					"numinlets" : 1,
					"patching_rect" : [ 46.0, 239.0, 322.0, 48.0 ],
					"numoutlets" : 0
				}

			}
, 			{
				"box" : 				{
					"maxclass" : "comment",
					"text" : "Default range is 0 to 1.",
					"linecount" : 2,
					"id" : "obj-31",
					"fontname" : "Arial",
					"frgb" : [ 0.0, 0.0, 0.0, 1.0 ],
					"fontsize" : 12.0,
					"numinlets" : 1,
					"patching_rect" : [ 33.0, 186.0, 88.0, 34.0 ],
					"numoutlets" : 0
				}

			}
 ],
		"lines" : [ 			{
				"patchline" : 				{
					"source" : [ "obj-26", 0 ],
					"destination" : [ "obj-24", 0 ],
					"hidden" : 0,
					"midpoints" : [  ]
				}

			}
, 			{
				"patchline" : 				{
					"source" : [ "obj-21", 1 ],
					"destination" : [ "obj-22", 0 ],
					"hidden" : 1,
					"midpoints" : [  ]
				}

			}
, 			{
				"patchline" : 				{
					"source" : [ "obj-20", 0 ],
					"destination" : [ "obj-18", 0 ],
					"hidden" : 0,
					"midpoints" : [  ]
				}

			}
, 			{
				"patchline" : 				{
					"source" : [ "obj-17", 0 ],
					"destination" : [ "obj-15", 0 ],
					"hidden" : 0,
					"midpoints" : [  ]
				}

			}
, 			{
				"patchline" : 				{
					"source" : [ "obj-14", 0 ],
					"destination" : [ "obj-17", 1 ],
					"hidden" : 0,
					"midpoints" : [  ]
				}

			}
, 			{
				"patchline" : 				{
					"source" : [ "obj-13", 0 ],
					"destination" : [ "obj-17", 2 ],
					"hidden" : 0,
					"midpoints" : [  ]
				}

			}
, 			{
				"patchline" : 				{
					"source" : [ "obj-7", 0 ],
					"destination" : [ "obj-5", 0 ],
					"hidden" : 0,
					"midpoints" : [  ]
				}

			}
, 			{
				"patchline" : 				{
					"source" : [ "obj-4", 0 ],
					"destination" : [ "obj-2", 0 ],
					"hidden" : 0,
					"midpoints" : [  ]
				}

			}
, 			{
				"patchline" : 				{
					"source" : [ "obj-34", 0 ],
					"destination" : [ "obj-26", 0 ],
					"hidden" : 0,
					"midpoints" : [  ]
				}

			}
, 			{
				"patchline" : 				{
					"source" : [ "obj-36", 0 ],
					"destination" : [ "obj-20", 0 ],
					"hidden" : 0,
					"midpoints" : [  ]
				}

			}
, 			{
				"patchline" : 				{
					"source" : [ "obj-38", 0 ],
					"destination" : [ "obj-17", 0 ],
					"hidden" : 0,
					"midpoints" : [  ]
				}

			}
, 			{
				"patchline" : 				{
					"source" : [ "obj-40", 0 ],
					"destination" : [ "obj-7", 0 ],
					"hidden" : 0,
					"midpoints" : [  ]
				}

			}
, 			{
				"patchline" : 				{
					"source" : [ "obj-42", 0 ],
					"destination" : [ "obj-4", 0 ],
					"hidden" : 0,
					"midpoints" : [  ]
				}

			}
 ]
	}

}
