max v2;#N vpatcher 2 44 785 517;#P toggle 319 86 17 0;#P window setfont "Sans Serif" 9.;#N vpatcher 488 82 894 304;#P window setfont "Sans Serif" 9.;#P newex 282 120 48 196617 ctlin 7 3;#P window linecount 1;#N vpatcher 10 59 284 315;#P outlet 39 144 15 0;#P window setfont "Sans Serif" 9.;#P message 39 119 20 196617 32;#P newex 39 95 38 196617 del 50;#P newex 39 69 48 196617 loadbang;#P connect 0 0 1 0;#P connect 1 0 2 0;#P connect 2 0 3 0;#P pop;#P newobj 62 120 33 196617 p init;#P window linecount 0;#P newex 100 93 63 196617 qmetro 100;#P newex 100 120 173 196617 random-ramp 0 127 7 2000 8000 5;#P inlet 100 63 15 0;#P outlet 100 150 15 0;#P connect 1 0 3 0;#P connect 3 0 2 0;#P connect 2 0 0 0;#P connect 5 0 0 0;#P connect 4 0 0 0;#P pop;#P newobj 281 86 37 196617 p auto;#P comment 63 184 43 196617 [space];#P hidden newex 46 107 66 196617 key-bang 13;#P comment 694 249 16 196617 hi;#P toggle 676 266 17 0;#N vpatcher 10 59 414 268;#P window setfont "Sans Serif" 9.;#P window linecount 0;#P newex 278 136 87 196617 scale 0 127 0 84;#P newex 278 109 48 196617 ctlin 7 1;#P newex 70 82 63 196617 qmetro 100;#P newex 70 109 205 196617 random-ramp-urn 24 109 7 4000 16000 5;#P window linecount 1;#N vpatcher 10 59 284 315;#P outlet 39 141 15 0;#P window setfont "Sans Serif" 9.;#P message 39 117 20 196617 85;#P newex 39 95 38 196617 del 50;#P newex 39 69 48 196617 loadbang;#P connect 0 0 1 0;#P connect 1 0 2 0;#P connect 2 0 3 0;#P pop;#P newobj 30 109 33 196617 p init;#P inlet 70 52 15 0;#P outlet 70 139 15 0;#P connect 1 0 4 0;#P connect 4 0 3 0;#P connect 3 0 0 0;#P connect 2 0 0 0;#P connect 6 0 0 0;#P connect 5 0 6 0;#P pop;#P newobj 638 266 37 196617 p auto;#P toggle 676 245 17 0;#N vpatcher 499 44 1003 282;#P window setfont "Sans Serif" 9.;#P newex 318 146 87 196617 scale 0 127 0 84;#P newex 318 120 48 196617 ctlin 7 2;#P window linecount 1;#N vpatcher 10 59 284 315;#P outlet 39 144 15 0;#P window setfont "Sans Serif" 9.;#P message 39 119 14 196617 0;#P newex 39 95 38 196617 del 50;#P newex 39 69 48 196617 loadbang;#P connect 0 0 1 0;#P connect 1 0 2 0;#P connect 2 0 3 0;#P pop;#P newobj 62 120 33 196617 p init;#P window linecount 0;#P newex 100 93 63 196617 qmetro 100;#P newex 100 120 205 196617 random-ramp-urn 24 109 7 4000 16000 5;#P inlet 100 63 15 0;#P outlet 100 160 15 0;#P connect 1 0 3 0;#P connect 3 0 2 0;#P connect 2 0 0 0;#P connect 4 0 0 0;#P connect 6 0 0 0;#P connect 5 0 6 0;#P pop;#P newobj 638 245 37 196617 p auto;#P user hslider 46 266 17 574 85 1 24 0;#P user hslider 46 245 17 574 85 1 24 0;#P comment 288 184 24 196617 max;#P hidden newex 355 159 36 196617 lb 0.2;#P hidden newex 212 181 39 196617 lb 108;#P number 252 182 35 9 24 108 7 3 0 0 0 221 221 221 222 222 222 0 0 0;#P number 149 182 35 9 24 108 7 3 0 0 0 221 221 221 222 222 222 0 0 0;#P hidden newex 3 157 41 196617 r again;#P hidden newex 170 421 41 196617 s again;#P hidden newex 149 157 65 196617 key-bang 32;#N vpatcher 10 59 204 216;#P inlet 28 42 15 0;#P window setfont "Sans Serif" 9.;#P newex 28 69 124 196617 trans-log 70 1000.5 127;#P outlet 28 99 15 0;#P connect 2 0 1 0;#P connect 1 0 0 0;#P pop;#P newobj 134 108 43 196617 p speed;#P number 134 133 44 9 50 0 5 3 0 0 0 221 221 221 222 222 222 0 0 0;#P toggle 46 133 15 0;#P newex 46 157 98 196617 metro 250;#P button 170 392 15 0;#N vpatcher 786 45 996 518;#P outlet 68 380 15 0;#P outlet 50 380 15 0;#P inlet 50 30 15 0;#P user gswitch2 25 57 35 32 0 0;#P window setfont "Sans Serif" 9.;#P newex 50 105 77 196617 anti-bis;#P user gswitch2 25 137 35 32 0 0;#P newex 50 183 75 196617 anti-octave;#P user gswitch2 25 216 35 32 0 0;#P newex 50 259 75 196617 anti-interval 7;#P number 115 235 35 9 -11 11 3 3 0 0 0 221 221 221 222 222 222 0 0 0;#P user gswitch2 25 305 35 32 0 0;#P newex 50 348 80 196617 anti-interval -3;#P number 120 324 35 9 -11 11 3 3 0 0 0 221 221 221 222 222 222 0 0 0;#P connect 10 0 9 1;#P connect 9 1 8 0;#P connect 8 0 7 1;#P connect 9 0 7 1;#P connect 7 1 6 0;#P connect 6 0 5 1;#P connect 7 0 5 1;#P connect 5 1 4 0;#P connect 4 0 2 1;#P connect 5 0 2 1;#P connect 2 1 1 0;#P connect 2 0 11 0;#P connect 1 0 11 0;#P connect 1 1 12 0;#P connect 4 1 12 0;#P connect 6 1 12 0;#P connect 8 1 12 0;#P connect 3 0 4 1;#P connect 0 0 1 1;#P pop 1;#P newobj 46 359 134 196617 p interval-filters;#P newex 46 421 103 196617 QT-SndPlayer 1 500;#P button 46 183 15 0;#P flonum 355 182 35 9 0. 1. 7 3 0 0 0 221 221 221 222 222 222 0 0 0;#P number 46 225 35 9 0 0 160 3 0 0 0 221 221 221 222 222 222 0 0 0;#P number 46 392 35 9 0 0 292 3 0 0 0 221 221 221 222 222 222 0 0 0;#P user kslider 46 286 54 0 24 84 31 12 0 88 210 95 88 210 95 255 255 255 0 0 0 0 0 0;#P newex 46 205 321 196617 brownian 24 108 0.2;#P comment 393 184 69 196617 brown factor;#P window setfont "Sans Serif" 18.;#P comment 20 21 169 196626 Brownian Melodies;#P window setfont "Sans Serif" 9.;#P comment 20 61 225 196617 © 1995-2008 by Karlheinz Essl <www.essl.at>;#P comment 20 48 393 196617 Generates Brownian melodies which can be modified by filtering out certain intervals.;#P comment 185 184 24 196617 min;#P comment 179 135 35 196617 speed;#P comment 694 268 16 196617 lo;#P window setfont "Sans Serif" 24.;#P comment 709 246 12 196632 };#P window setfont "Sans Serif" 9.;#P comment 722 258 35 196617 range;#P comment 62 134 47 196617 [return];#P user hslider 134 86 17 129 128 1 0 0;#P hidden connect 39 0 21 0;#P connect 21 0 20 0;#P connect 20 0 16 0;#P hidden fasten 24 0 16 0 154 178 51 178;#P hidden connect 26 0 16 0;#P connect 16 0 11 0;#P connect 11 0 14 0;#P hidden connect 34 0 32 0;#P hidden connect 36 0 33 0;#P hidden connect 14 0 12 0;#P connect 12 0 18 0;#P connect 18 0 13 0;#P connect 13 0 17 0;#P hidden connect 41 0 0 0;#P connect 0 0 23 0;#P connect 23 0 22 0;#P connect 22 0 20 1;#P hidden connect 33 0 27 0;#P connect 27 0 11 1;#P connect 18 1 19 0;#P hidden connect 19 0 25 0;#P hidden connect 32 0 28 0;#P connect 28 0 11 2;#P hidden connect 42 0 41 0;#P hidden connect 30 0 15 0;#P connect 15 0 11 3;#P hidden connect 35 0 34 0;#P hidden connect 37 0 36 0;#P pop;