max v2;#N vpatcher 2 44 427 557;#P window setfont "Sans Serif" 9.;#P comment 8 45 302 196617 Create harmony by processing user-defined intervals.;#P window setfont "Sans Serif" 18.;#P comment 8 21 203 196626 Harmony by Intervals;#P window setfont "Sans Serif" 9.;#P hidden newex 349 126 45 196617 loadbang;#P hidden message 178 131 14 196617 2;#P comment 138 99 121 196617 rhythm method;#P user umenu 80 97 53 196645 1 64 113 0;#X add stop;#X add pulsation;#X add rubato;#X add chords;#P message 178 205 67 196617 1 2 3 4 -8;#P noclick;#P comment 104 152 49 196617 next intv;#P comment 237 152 103 196617 selection principle;#P number 80 205 28 9 0 0 100 3 0 0 0 221 221 221 222 222 222 0 0 0;#P button 62 205 15 0;#P comment 247 206 78 196617 intv supply;#P button 80 148 22 0;#N vpatcher 50 40 309 227;#P window setfont "Sans Serif" 9.;#P newex 84 63 27 196617 + 1;#N comlet bang;#P inlet 26 37 15 0;#N comlet selection principle;#P inlet 84 37 15 0;#N comlet chosen intv;#P outlet 26 122 15 0;#P newex 26 91 126 196617 sel-princ 3;#P newex 172 91 31 196617 show;#N comlet intv-supply display;#P outlet 172 122 15 0;#P newex 142 37 68 196617 r intv-supply;#P connect 6 0 3 0;#P connect 3 0 4 0;#P connect 5 0 7 0;#P connect 7 0 3 1;#P connect 0 0 3 2;#P connect 0 0 2 0;#P connect 2 0 1 0;#P pop;#P newobj 80 177 108 196617 p intv-selection;#P user umenu 178 150 57 196645 1 64 166 0;#X add alea;#X add series;#X add sequence;#N vpatcher 451 171 745 373;#P window setfont "Sans Serif" 9.;#P newex 66 158 66 196617 key-bang 32;#P toggle 205 91 15 0;#N vpatcher 50 41 534 263;#P window setfont "Sans Serif" 9.;#P comment 378 74 56 196617 periodicity of max.ED;#P comment 320 74 56 196617 periodicity of min.ED;#P comment 262 74 52 196617 max. chord size;#P toggle 30 99 15 0;#P newex 30 124 363 196617 repchord-rhythm 100 1000 12 6 0.8 0.2;#P number 88 100 35 9 50 0 1 3 0 0 0 221 221 221 222 222 222 0 0 0;#P comment 88 86 41 196617 min.ED;#P number 146 100 35 9 50 0 1 3 0 0 0 221 221 221 222 222 222 0 0 0;#P comment 146 86 41 196617 max.ED;#P number 204 100 25 9 2 0 1 3 0 0 0 221 221 221 222 222 222 0 0 0;#P comment 203 86 53 196617 ED-values;#P number 262 100 24 9 1 0 1 3 0 0 0 221 221 221 222 222 222 0 0 0;#P flonum 320 100 32 9 0. 1. 3 3 0 0 0 221 221 221 222 222 222 0 0 0;#P flonum 378 100 33 9 0. 1. 3 3 0 0 0 221 221 221 222 222 222 0 0 0;#N comlet toggle;#P inlet 30 70 15 0;#N comlet rhythm bangs;#P outlet 30 155 15 0;#P newex 381 155 73 196617 s harmintv-ED;#P connect 2 0 13 0;#P connect 13 0 12 0;#P connect 12 0 1 0;#P connect 11 0 12 1;#P connect 9 0 12 2;#P connect 7 0 12 3;#P connect 5 0 12 4;#P connect 4 0 12 5;#P connect 3 0 12 6;#P connect 12 3 0 0;#P pop;#P newobj 205 117 45 196617 p chords;#P toggle 114 91 15 0;#N vpatcher 85 180 509 398;#N comlet rhythm bangs;#P outlet 28 136 15 0;#P window setfont "Sans Serif" 9.;#P comment 325 136 55 196617 chosen ED;#P comment 187 136 53 196617 row index;#P number 157 136 26 9 0 0 37 3 0 0 0 221 221 221 222 222 222 0 0 0;#P number 286 136 35 9 0 0 164 3 0 0 0 221 221 221 222 222 222 0 0 0;#N comlet toggle;#P inlet 28 48 15 0;#P toggle 28 79 15 0;#P newex 28 105 268 196617 brown-rhythm 75 1000 24 0.07;#P comment 220 64 53 196617 ED-values;#P comment 284 64 79 196617 brownian factor;#P comment 92 64 46 196617 min. ED;#P comment 155 64 46 196617 max. ED;#P number 92 78 35 9 50 0 1 3 0 0 0 221 221 221 222 222 222 0 0 0;#P number 156 78 42 9 50 0 1 3 0 0 0 221 221 221 222 222 222 0 0 0;#P flonum 284 78 35 9 0. 1. 3 3 0 0 0 221 221 221 222 222 222 0 0 0;#P number 220 78 35 9 2 0 65 3 0 0 0 221 221 221 222 222 222 0 0 0;#P user hslider 157 162 17 124 24 1 0 0;#P comment 260 181 44 196617 max. ED;#P comment 154 181 41 196617 min. ED;#P newex 327 163 73 196617 s harmintv-ED;#P connect 14 0 13 0;#P connect 13 0 12 0;#P connect 12 0 19 0;#P connect 7 0 12 1;#P connect 6 0 12 2;#P connect 12 1 16 0;#P connect 16 0 3 0;#P connect 4 0 12 3;#P connect 5 0 12 4;#P connect 12 2 15 0;#P connect 15 0 0 0;#P pop;#P newobj 114 117 45 196617 p rubato;#P toggle 23 91 15 0;#N vpatcher 0 45 222 247;#N comlet toggle;#P inlet 31 48 15 0;#P window setfont "Sans Serif" 9.;#P comment 126 78 33 196617 speed;#N comlet rhythm bangs;#P outlet 31 134 15 0;#P newex 31 102 66 196617 metro 250;#P number 87 77 35 9 50 0 1 3 0 0 0 221 221 221 222 222 222 0 0 0;#P toggle 31 77 15 0;#P connect 5 0 0 0;#P connect 0 0 2 0;#P connect 2 0 3 0;#P connect 1 0 2 1;#P pop;#P newobj 23 117 55 196617 p pulsation;#N vpatcher 50 40 220 300;#P button 99 99 15 0;#P window setfont "Sans Serif" 9.;#P newex 33 122 82 196617 gate 4;#P newex 33 97 27 196617 + 1;#N comlet metro;#P outlet 57 197 15 0;#N comlet brown-rhythm;#P outlet 81 197 15 0;#N comlet repchord-rhythm;#P outlet 105 197 15 0;#P message 33 157 14 196617 0;#P message 18 71 14 196617 1;#N comlet menu;#P inlet 18 27 15 0;#P newex 18 48 40 196617 t b i b;#P connect 1 0 0 0;#P connect 0 0 2 0;#P connect 0 1 7 0;#P connect 7 0 8 0;#P connect 9 0 3 0;#P connect 8 0 3 0;#P connect 3 0 6 0;#P connect 8 1 6 0;#P connect 3 0 5 0;#P connect 8 2 5 0;#P connect 0 2 9 0;#P connect 2 0 8 1;#P connect 3 0 4 0;#P connect 8 3 4 0;#P pop;#P newobj 23 60 193 196617 p gate;#P outlet 23 155 15 0;#N comlet umenu;#P inlet 23 31 15 0;#P connect 0 0 2 0;#P connect 2 0 4 0;#P connect 4 0 3 0;#P fasten 7 0 1 0 210 145 28 145;#P fasten 5 0 1 0 119 145 28 145;#P connect 3 0 1 0;#P connect 9 0 1 0;#P connect 2 1 6 0;#P connect 6 0 5 0;#P connect 2 2 8 0;#P connect 8 0 7 0;#P pop;#P newobj 80 122 53 196617 p rhythm;#P window setfont "Sans Serif" 12.;#P comment 192 177 87 196620 < selection >;#P window setfont "Sans Serif" 9.;#N vpatcher 428 44 656 189;#P window setfont "Sans Serif" 9.;#P hidden newex 32 159 68 196617 s intv-supply;#P message 32 49 28 196617 -1 3;#P message 32 27 45 196617 1 2 3 -7;#N vpatcher 427 211 656 459;#P button 43 67 17 0;#P window setfont "Sans Serif" 9.;#P comment 101 38 55 196617 select intv;#P number 63 37 35 9 0 0 64 3 0 0 0 221 221 221 222 222 222 0 0 0;#P newex 63 67 38 196617 collect;#P button 104 67 17 0;#P message 63 96 58 196617 3 -2 -1;#P newex 63 141 68 196617 s intv-supply;#P comment 124 97 58 196617 intv supply;#P comment 124 69 31 196617 clear;#P comment 12 166 184 196617 _____________________________;#P comment 12 69 28 196617 send;#N vpatcher 276 131 534 390;#P window setfont "Sans Serif" 9.;#P comment 168 46 62 196617 play a tune;#P user kslider 63 33 35 1 48 24 19 7 0 128 128 128 128 128 128 255 255 255 0 0 0 0 0 0;#P newex 63 84 55 196617 note2st 60;#P button 43 116 17 0;#P comment 170 140 42 196617 interval list;#P newex 63 116 38 196617 collect;#P button 104 116 17 0;#P message 63 145 103 196617;#P newex 63 173 43 196617 butfirst;#P newex 63 203 68 196617 s intv-supply;#P comment 13 117 28 196617 send;#P comment 122 117 31 196617 clear;#P connect 10 0 9 0;#P connect 9 0 6 0;#P connect 8 0 4 0;#P connect 6 0 4 0;#P connect 4 0 3 0;#P connect 3 0 2 0;#P hidden connect 5 0 6 1;#P pop;#P newobj 17 191 85 196617 p using-keyboard;#P comment 107 193 85 196617 another method...;#P connect 10 0 9 0;#P connect 12 0 7 0;#P connect 9 0 7 0;#P connect 7 0 6 0;#P hidden connect 8 0 9 1;#P pop;#P newobj 32 101 100 196617 p make-intv-supply;#P message 143 27 35 196617 1 2 -4;#P message 65 49 35 196617 3 4 -8;#P message 107 49 28 196617 3 -4;#P message 140 49 23 196617 3 4;#P message 83 27 55 196617 1 2 3 4 -8;#P hidden newex 145 7 50 196617 loadbang;#N vpatcher 428 211 724 448;#P button 111 121 15 0;#P window setfont "Sans Serif" 9.;#P window linecount 6;#P comment 20 22 233 196617 Chooses a supply of up to five different intervals. This set fullfills certain requirements: the sum of the chosen intervals will never be an octave \, any pairs of intervals of that supply will never be an octave and there will never occur diminished chords from these intervals.;#P window linecount 1;#P comment 151 122 94 196617 number of intervals;#P newex 44 176 68 196617 s intv-supply;#P number 127 121 23 9 2 5 71 3 0 0 0 221 221 221 222 222 222 0 0 0;#P hidden button 44 121 15 0;#P newex 44 147 93 196617 choose-intervals 3;#P hidden connect 2 0 1 0;#P hidden connect 1 0 0 0;#P connect 0 0 3 0;#P hidden connect 6 0 2 0;#P connect 2 0 0 1;#P pop 1;#P newobj 32 76 115 196617 p auto-choose-intervals;#P hidden connect 9 0 10 0;#P hidden connect 8 0 10 0;#P hidden connect 6 0 10 0;#P hidden connect 5 0 10 0;#P hidden connect 4 0 10 0;#P hidden connect 3 0 10 0;#P hidden connect 2 0 10 0;#P hidden connect 1 0 5 0;#P pop 1;#P newobj 282 177 100 196617 p select-intv-supply;#P comment 49 300 27 196617 note;#P number 17 319 30 9 0 0 164 3 0 0 0 221 221 221 222 222 222 0 0 0;#P user umenu 17 234 65 196645 1 64 250 0;#X add none;#X add periodic;#X add brownian;#N vpatcher 385 465 995 752;#P outlet 439 250 15 0;#P window setfont "Sans Serif" 9.;#P window linecount 1;#N vpatcher 50 40 218 273;#P window setfont "Sans Serif" 9.;#P newex 47 113 27 196617 - 2;#N comlet note;#P inlet 47 47 15 0;#P newex 47 80 29 196617 / 12;#P newex 47 146 40 196617 change;#N comlet MIDI register;#P outlet 47 176 15 0;#P connect 3 0 2 0;#P connect 2 0 4 0;#P connect 4 0 1 0;#P connect 1 0 0 0;#P pop;#P newobj 439 225 78 196617 p MIDI-register;#P window linecount 0;#P newex 37 93 364 196617 gate 3;#N comlet note;#P outlet 37 204 15 0;#N vpatcher 162 96 449 306;#P window setfont "Sans Serif" 9.;#P comment 186 94 73 196617 if the ambitus of a piano is exceeded \, it will jump to the middle register;#N comlet intv;#P inlet 21 33 15 0;#P newex 95 121 73 196617 split 24 108;#P message 95 62 20 196617 66;#P number 21 62 26 9 0 0 64 3 0 0 0 221 221 221 222 222 222 0 0 0;#P newex 21 91 84 196617 st2pitch 66;#P newex 28 128 59 196617 shownote 0;#P message 28 154 26 196617 F#;#N comlet note;#P outlet 102 155 15 0;#P comment 56 155 30 196617 pitch;#P comment 56 70 26 196617 intv;#P connect 9 0 6 0;#P connect 6 0 5 0;#P connect 5 0 4 0;#P connect 4 0 3 0;#P fasten 8 1 7 0 170 156 186 156 186 58 107 58;#P connect 7 0 5 1;#P connect 5 1 8 0;#P connect 8 0 2 0;#P pop;#P newobj 37 153 92 196617 p without-register;#N vpatcher 50 57 291 261;#N comlet intv;#P inlet 35 50 15 0;#N comlet periodicity factor (0-1);#P inlet 172 50 15 0;#N comlet note;#P outlet 35 140 15 0;#P window setfont "Sans Serif" 9.;#N vpatcher 406 87 653 380;#P window setfont "Sans Serif" 9.;#P message 144 154 68 196617 2 3 4 5 6 7 8;#P newex 144 117 45 196617 loadbang;#P newex 111 81 49 196617 per2pass;#N comlet periodicity factor;#P inlet 111 52 15 0;#P button 51 77 15 0;#N comlet intv (bangs);#P inlet 51 52 15 0;#P newex 51 110 70 196617 pass 50;#P newex 51 170 54 196617 permutate;#N comlet register;#P outlet 51 208 15 0;#P connect 3 0 4 0;#P connect 4 0 2 0;#P connect 2 0 1 0;#P connect 1 0 0 0;#P connect 8 0 1 1;#P connect 5 0 6 0;#P connect 6 0 2 1;#P connect 7 0 8 0;#P pop;#P newobj 116 80 66 196617 p choose-reg;#P newex 35 106 91 196617 pitch2note;#P newex 35 79 60 196617 st2pitch 60;#P connect 5 0 0 0;#P connect 0 0 1 0;#P connect 1 0 3 0;#P connect 5 0 2 0;#P connect 2 0 1 1;#P connect 4 0 2 1;#P pop;#P newobj 214 153 65 196617 p periodicity;#N vpatcher 257 450 533 671;#P window setfont "Sans Serif" 9.;#P newex 115 77 91 196617 brownian 2 9 0.15;#P newex 34 76 60 196617 st2pitch 60;#P newex 34 103 91 196617 pitch2note;#N comlet note;#P outlet 34 137 15 0;#N comlet intv;#P inlet 34 47 15 0;#N comlet brown factor (0-1);#P inlet 196 48 15 0;#P connect 1 0 4 0;#P connect 4 0 3 0;#P connect 3 0 2 0;#P connect 1 0 5 0;#P connect 5 0 3 1;#P connect 0 0 5 3;#P pop;#P newobj 391 153 44 196617 p brown;#N comlet intv;#P inlet 391 66 15 0;#P newex 37 66 27 196617 + 1;#N comlet umenu;#P inlet 37 39 15 0;#P flonum 269 131 35 9 0. 1. 3 3 0 0 0 221 221 221 222 222 222 0 0 0;#P comment 308 128 57 196617 periodicity factor;#P comment 464 128 36 196617 brown factor;#P flonum 425 131 35 9 0. 1. 3 3 0 0 0 221 221 221 222 222 222 0 0 0;#P hidden message 425 111 29 196617 0.15;#P hidden message 269 113 29 196617 0.66;#P hidden newex 269 53 46 196617 loadbang;#P button 122 40 15 0;#P comment 140 41 100 196617 default settings;#P connect 9 0 10 0;#P connect 10 0 16 0;#P connect 16 0 14 0;#P connect 14 0 15 0;#P fasten 12 0 15 0 396 187 42 187;#P fasten 13 0 15 0 219 187 42 187;#P connect 16 1 13 0;#P hidden connect 2 0 3 0;#P hidden connect 1 0 3 0;#P hidden connect 3 0 8 0;#P connect 8 0 13 1;#P connect 11 0 16 1;#P connect 16 2 12 0;#P hidden connect 1 0 4 0;#P hidden connect 2 0 4 0;#P hidden connect 4 0 5 0;#P connect 5 0 12 1;#P connect 14 0 17 0;#P connect 13 0 17 0;#P connect 12 0 17 0;#P connect 17 0 18 0;#P pop;#P newobj 17 261 73 196617 p register;#P number 17 297 30 9 0 0 292 3 0 0 0 221 221 221 222 222 222 0 0 0;#P comment 49 320 85 196617 MIDI note number;#P comment 89 236 80 196617 register method;#P comment 101 299 68 196617 MIDI register;#P number 80 298 19 9 0 0 164 3 0 0 0 221 221 221 222 222 222 0 0 0;#P hidden message 315 226 14 196617 0;#P comment 8 59 225 196617 © 1995-2008 by Karlheinz Essl <www.essl.at>;#N vpatcher 50 40 257 200;#N comlet velocity;#P inlet 62 52 15 0;#N comlet note;#P inlet 31 52 15 0;#P window setfont "Sans Serif" 9.;#P newex 93 52 73 196617 r harmintv-ED;#P newex 31 82 103 196617 QT-SndPlayer 1 500;#P connect 2 0 0 0;#P connect 3 0 0 1;#P connect 1 0 0 2;#P pop;#P newobj 17 436 101 196617 p player;#P comment 140 414 45 196617 velocity;#P number 108 412 30 9 0 0 164 3 0 0 0 221 221 221 222 222 222 0 0 0;#P comment 151 391 100 196617 dynamic method;#P user umenu 95 389 51 196645 1 64 405 0;#X add fix;#X add changing;#N vpatcher 50 40 340 303;#P window setfont "Sans Serif" 9.;#P newex 69 141 177 196617 random-ramp 50 110 5 500 2000 12;#P newex 32 76 27 196617 + 1;#P newex 32 104 47 196617 gate 2;#N comlet umenu;#P inlet 131 42 15 0;#N comlet rhythm bangs;#P inlet 69 42 15 0;#P button 69 76 15 0;#N comlet velocity;#P outlet 32 207 15 0;#P number 69 172 35 9 0 0 0 3 0 0 0 221 221 221 222 222 222 0 0 0;#P message 32 172 20 196617 90;#P connect 5 0 7 0;#P connect 7 0 6 0;#P connect 6 0 0 0;#P connect 0 0 2 0;#P connect 1 0 2 0;#P connect 4 0 3 0;#P connect 3 0 6 1;#P connect 6 1 8 0;#P connect 8 0 1 0;#P pop;#P newobj 52 411 53 196617 p dynamic;#P user kslider 17 343 35 1 24 84 19 7 0 9 255 12 9 255 12 255 255 255 0 0 0 0 0 0;#P comment 10 206 50 196617 retrigger;#P comment 110 206 59 196617 chosen intv;#P hidden connect 10 0 17 0;#P connect 17 0 16 0;#P connect 16 0 15 0;#P hidden connect 15 0 18 0;#P hidden connect 15 0 2 0;#P connect 2 0 8 0;#P fasten 2 0 3 0 22 389 57 389;#P connect 32 0 22 0;#P connect 22 0 25 0;#P connect 25 0 24 0;#P hidden connect 27 0 28 0;#P connect 24 0 28 0;#P connect 28 0 16 1;#P connect 16 1 11 0;#P connect 4 0 3 1;#P hidden connect 3 0 6 0;#P connect 6 0 8 1;#P hidden connect 35 0 34 0;#P hidden connect 34 0 23 0;#P connect 23 0 24 1;#P connect 24 1 31 0;#P hidden connect 35 0 10 0;#P pop;