max v2;#N vpatcher 2 44 479 389;#P window setfont "Sans Serif" 9.;#P hidden newex 100 102 66 196617 key-bang 32;#P hidden newex 88 81 66 196617 key-bang 13;#P hidden newex 51 93 39 196617 lb 300;#P number 88 282 35 9 0 0 292 3 0 0 0 221 221 221 222 222 222 0 0 0;#P comment 16 66 225 196617 © 1995-2008 by Karlheinz Essl <www.essl.at>;#P comment 177 231 110 196617 number of permutation;#P comment 124 284 29 196617 note;#P comment 147 255 112 196617 number of row element;#P number 118 254 25 9 0 0 164 3 0 0 0 221 221 221 222 222 222 0 0 0;#P number 148 229 25 9 0 0 164 3 0 0 0 221 221 221 222 222 222 0 0 0;#P comment 209 169 100 196617 next permutation;#P button 118 130 19 0;#P toggle 88 130 19 0;#P button 191 168 15 0;#P message 178 200 126 196617 0 1 2 3 4 5 6 7 8 9 10 11;#B color 15;#P message 178 137 125 196617 1 9 2 11 10 0 6 4 5 8 3 7;#N vpatcher 54 135 462 482;#P window setfont "Sans Serif" 9.;#P newex 57 80 55 196617 metro 300;#N comlet toggle;#P inlet 57 51 15 0;#N comlet rhythm bangs;#P inlet 80 51 15 0;#P inlet 160 51 15 0;#P newex 125 80 32 196617 delay;#P button 125 105 15 0;#P newex 125 130 75 196617 permutate-row;#P button 57 130 15 0;#P newex 57 159 78 196617 sequence;#P button 91 187 15 0;#N vpatcher 451 176 756 420;#P window setfont "Sans Serif" 9.;#N counter 0 100;#X flags 0 0;#P newobj 190 123 72 196617 counter 0 100;#P outlet 73 176 15 0;#P newex 45 123 74 196617 play 127 500;#P newex 190 151 27 196617 + 1;#P outlet 190 180 15 0;#P newex 77 70 38 196617 sel 0;#N comlet row element number;#P inlet 77 46 15 0;#N comlet reset;#P inlet 235 46 15 0;#N comlet bang (next permutation);#P inlet 190 46 15 0;#P inlet 45 46 15 0;#P message 105 96 20 196617 60;#P message 77 96 20 196617 90;#P button 235 96 15 0;#P newex 45 96 29 196617 + 60;#P connect 4 0 0 0;#P connect 0 0 11 0;#P connect 2 0 11 1;#P connect 3 0 11 1;#P connect 0 0 12 0;#P connect 7 0 8 0;#P connect 8 0 2 0;#P connect 8 1 3 0;#P connect 5 0 13 0;#P connect 13 0 10 0;#P connect 10 0 9 0;#P connect 6 0 1 0;#P connect 1 0 13 3;#P pop;#P newobj 57 217 46 196617 p player;#N comlet pitch class (display);#P outlet 57 246 15 0;#N comlet row index;#P outlet 125 246 15 0;#P newex 125 217 27 196617 + 1;#P message 159 217 14 196617 0;#N comlet permutated row;#P outlet 229 246 15 0;#P newex 229 217 31 196617 show;#N comlet bang (next permutation);#P inlet 113 51 15 0;#N comlet number of permutation;#P outlet 159 246 15 0;#N vpatcher 40 55 403 318;#P window setfont "Sans Serif" 9.;#P newex 38 57 28 196617 Lsub;#P inlet 38 32 15 0;#P inlet 56 32 15 0;#P newex 38 87 28 196617 Labs;#P newex 38 119 26 196617 sum;#P newex 38 150 29 196617 == 0;#N comlet true / false;#P outlet 38 177 15 0;#P connect 5 0 6 0;#P connect 6 0 3 0;#P connect 3 0 2 0;#P connect 2 0 1 0;#P connect 1 0 0 0;#P connect 4 0 6 1;#P pop;#P newobj 289 217 59 196617 p Lcompare;#P toggle 289 242 15 0;#P newex 289 267 46 196617 sel 1;#P newex 127 296 32 196617 delay;#P newex 102 30 41 196617 r speed;#P connect 22 0 23 0;#P connect 21 0 16 0;#P connect 23 0 16 0;#P connect 16 0 15 0;#P connect 15 0 13 0;#P connect 13 0 12 0;#P connect 15 2 13 1;#P connect 6 0 13 2;#P connect 14 0 13 2;#P connect 15 1 14 0;#P connect 1 0 13 3;#P connect 0 0 23 1;#P connect 14 0 19 0;#P connect 6 0 18 0;#P connect 19 0 18 0;#P connect 18 0 17 0;#P connect 17 0 15 1;#P connect 15 2 10 0;#P connect 9 0 11 0;#P connect 10 0 11 0;#P connect 2 0 1 0;#P connect 20 0 9 0;#P connect 13 1 5 0;#P connect 20 0 17 1;#P connect 17 0 7 0;#P connect 7 0 8 0;#P connect 17 0 4 0;#P connect 4 0 3 0;#P connect 3 0 2 0;#P connect 20 0 4 1;#P pop;#P newobj 88 167 101 196617 p permutation;#P newex 178 86 106 196617 random-row;#P message 178 112 125 196617 10 9 0 11 3 4 1 2 6 5 8 7;#P number 51 167 35 9 50 0 1 3 0 0 0 221 221 221 222 222 222 0 0 0;#P hidden newex 51 193 41 196617 s speed;#P comment 308 89 112 196617 generate a random row;#P comment 308 113 138 196617 row of Webern \, op. 28;#P comment 308 202 100 196617 permutated row;#P comment 308 138 139 196617 row of Stockhausen \, Gruppen;#P button 286 86 17 0;#P hidden newex 286 66 45 196617 loadbang;#P comment 20 133 67 196617 metro on/off;#P window linecount 2;#P comment 139 128 27 196617 step thru;#P window linecount 1;#P comment 14 168 35 196617 speed;#P window setfont "Sans Serif" 20.;#P comment 16 23 261 196628 Row Permutation;#P window setfont "Sans Serif" 9.;#P comment 16 52 312 196617 Permutation of a given dodecaphonic row by its own row structure.;#P hidden connect 29 0 12 0;#P hidden connect 12 0 11 0;#P hidden connect 30 0 19 0;#P connect 19 0 15 0;#P connect 15 0 28 0;#P hidden connect 31 0 20 0;#P connect 20 0 15 1;#P connect 15 1 23 0;#P hidden connect 18 0 15 2;#P connect 15 2 22 0;#P hidden connect 6 0 14 0;#P hidden connect 13 0 15 3;#P connect 16 0 15 3;#P hidden connect 14 0 15 3;#P connect 15 3 17 0;#P hidden connect 5 0 6 0;#P pop;