max v2;#N vpatcher 230 137 740 618;#P origin -13 -69;#P window setfont "Sans Serif" 9.;#P window linecount 1;#P newex 37 77 47 196617 midicent;#P newex 9 51 38 196617 route~;#P newex 246 193 164 196617 unpacker 7;#P newex 246 172 71 196617 patcherargs;#P newex 450 170 41 196617 zl reg;#P window linecount 2;#P newex 450 378 41 196617 prepend set;#P window linecount 1;#P newex 74 303 135 196617 r $1Voice~;#P newex 74 123 65 196617 prepend open;#P newex 74 100 154 196617 route open attack release voices;#P newex 251 101 207 196617 St.SoundportUpdate Sampler $1;#P inlet 55 32 15 0;#P inlet 9 32 15 0;#P outlet 450 412 15 0;#P newex 69 51 135 196617 r $1Notes;#P newex 357 383 74 196617 prepend voices;#P number 357 362 35 9 0 0 0 3 0 0 0 221 221 221 222 222 222 0 0 0;#P comment 210 271 246 196617 # 3 : No. of Voices = $3 (default 8);#P number 253 362 46 9 0 0 0 3 0 0 0 221 221 221 222 222 222 0 0 0;#P number 171 362 35 9 0 0 0 3 0 0 0 221 221 221 222 222 222 0 0 0;#P newex 126 340 44 196617 loadbang;#P outlet 171 412 15 0;#P outlet 37 412 15 0;#P comment 210 283 246 196617 # 4 : attack = $4 (default 20);#P comment 210 295 246 196617 # 5 : release = $5 (default 500);#P comment 210 230 246 196617 # 2 : FolderName = $2;#P comment 210 307 246 196617 # 6 : Low Note = $6;#P comment 210 319 246 196617 # 7 : Note Increment = $7;#P comment 210 218 246 196617 # 1 : SoundName = $1;#P newex 74 218 135 196617 buffer~ $1;#P window linecount 0;#P message 305 412 138 196617;#P window linecount 1;#P message 126 362 38 196617 steal 1;#P newex 37 386 278 196617 poly~ St.ampl~ 8 args $1 20 500;#P newex 74 145 387 196617 St.Buffers~ $1 $2 2 $6 $7;#P connect 21 0 31 0;#P fasten 19 0 32 0 74 73 42 73;#P connect 31 1 32 0;#P connect 32 0 1 0;#P fasten 31 0 1 0 14 382 42 382;#P fasten 26 0 1 0 79 382 42 382;#P fasten 18 0 1 0 362 404 351 404 351 382 42 382;#P fasten 2 0 1 0 131 382 42 382;#P connect 1 0 11 0;#P connect 22 0 32 1;#P connect 32 1 24 0;#P connect 24 0 25 0;#P fasten 24 4 0 0 223 142 79 142;#P connect 25 0 0 0;#P connect 13 0 2 0;#P connect 30 3 14 0;#P fasten 24 1 14 0 115 336 176 336;#P connect 14 0 1 1;#P connect 1 1 12 0;#P connect 29 0 30 0;#P connect 30 4 15 0;#P fasten 24 2 15 0 151 334 258 334;#P fasten 15 0 1 2 258 382 310 382;#P connect 1 2 3 0;#P connect 30 2 17 0;#P fasten 24 3 17 0 187 295 362 295;#P connect 17 0 18 0;#P connect 0 2 28 0;#P connect 28 0 27 0;#P connect 27 0 20 0;#P fasten 0 1 28 1 267 166 486 166;#P pop;