max v2;#N vpatcher 29 450 394 690;#P origin 0 -21;#P window setfont "Sans Serif" 9.;#P newex 148 42 81 196617 unpack s i f f f f;#P outlet 34 157 15 0;#P newex 34 136 62 196617 delay 500;#P newex 97 66 82 196617 t b b s;#P message 97 89 31 196617 sort -1 -1;#P newex 133 109 82 196617 pack store i s f f;#P inlet 86 21 15 0;#P newex 148 21 171 196617 r $1Info;#P message 86 42 31 196617 clear;#N coll $1Samples;#P newobj 133 135 186 196617 coll $1Samples;#P comment 67 190 254 196617 = $1;#P comment 67 175 254 196617 # 1: SoundName;#P connect 8 0 9 0;#P connect 9 0 10 0;#P connect 5 0 3 0;#P fasten 11 0 8 0 153 63 102 63;#P connect 8 0 7 0;#P connect 8 1 6 0;#P connect 6 0 2 0;#P fasten 3 0 2 0 91 129 138 129;#P connect 7 0 2 0;#P connect 4 0 11 0;#P connect 11 1 6 1;#P connect 8 2 6 2;#P connect 11 4 6 3;#P connect 11 5 6 4;#P pop;