max v2;#N vpatcher 20 44 578 569;#P origin 0 -3;#P window setfont "Sans Serif" 9.;#P newex 147 323 23 196617 int;#P newex 109 151 64 196617 delay 500;#N counter;#X flags 0 0;#P newobj 112 235 79 196617 counter;#P inlet 418 21 15 0;#P inlet 228 21 15 0;#P newex 100 21 111 196617 r $1Info;#P message 430 189 39 196617 sort -1;#P newex 410 127 30 196617 t b b;#P newex 410 104 29 196617 gate;#P newex 368 172 31 196617 uzi;#P newex 325 405 50 196617 delay 50;#P newex 325 342 27 196617 t b b;#P newex 368 276 24 196617 t b i;#P newex 342 363 168 196617 pack store i i s f f i;#P newex 394 256 20 196617 - 1;#P newex 394 320 17 196617 +;#P newex 368 300 36 196617 uzi;#P newex 394 276 36 196617 !-;#P newex 368 236 140 196617 unpack i i i f f i;#P message 368 191 31 196617 next;#N coll $1SampleList;#P newobj 368 210 140 196617 coll $1SampleList;#P toggle 418 62 15 0;#N coll $1Coll;#P newobj 342 384 111 196617 coll $1Coll;#P newex 418 40 13 196617 !;#P outlet 325 444 15 0;#P number 136 371 35 9 0 127 3 3 0 0 0 221 221 221 222 222 222 0 0 0;#P newex 28 256 60 196617 t 0 b -128;#P newex 38 280 36 196617 t 1 b b;#P newex 28 349 33 196617 gate;#P button 112 216 15 0;#P newex 64 321 35 196617 t s b;#P newex 64 349 35 196617 zl reg;#P newex 64 300 35 196617 zl reg;#P newex 100 300 35 196617 Bucket;#P number 172 371 35 9 0 127 3 3 0 0 0 221 221 221 222 222 222 0 0 0;#P newex 136 349 33 196617 + 1;#P newex 172 349 37 196617 Bucket;#P newex 136 300 73 196617 St.Average 2;#P newex 28 395 265 196617 pack store s i i i f f i;#P newex 100 255 190 196617 unpack i i i f f i;#P newex 128 83 52 196617 delay 100;#P button 128 64 15 0;#P message 109 171 29 196617 dump;#P newex 109 129 95 196617 t b 1 256 256 b;#P newex 109 107 29 196617 gate;#P message 193 171 34 196617 sort 1;#P message 228 171 31 196617 clear;#N coll $1SampleList;#P newobj 100 195 190 196617 coll $1SampleList;#P newex 100 43 77 196617 prepend store;#P comment 23 446 270 196617 = $1;#P comment 23 431 270 196617 # 1: SoundName;#P fasten 3 3 24 0 285 224 33 224;#P fasten 23 0 22 0 43 342 33 342;#P connect 24 0 22 0;#P connect 22 0 12 0;#P connect 24 1 23 0;#P fasten 11 0 23 0 105 277 43 277;#P connect 23 1 22 1;#P connect 23 2 18 0;#P connect 18 0 20 0;#P connect 20 1 19 0;#P connect 19 0 12 1;#P fasten 3 1 18 1 165 220 94 220;#P connect 20 0 19 1;#P connect 45 0 2 0;#P fasten 4 0 3 0 233 191 105 191;#P connect 2 0 3 0;#P fasten 12 0 3 0 33 418 23 418 23 193 105 193;#P fasten 8 0 3 0 114 191 105 191;#P fasten 5 0 3 0 198 191 105 191;#P connect 3 0 11 0;#P connect 24 1 17 0;#P connect 11 0 17 0;#P connect 17 0 12 2;#P fasten 29 0 6 0 423 81 114 81;#P connect 6 0 7 0;#P connect 7 0 49 0;#P connect 49 0 8 0;#P fasten 3 0 21 0 105 214 117 214;#P connect 21 0 48 0;#P fasten 2 0 9 0 105 62 133 62;#P connect 9 0 10 0;#P connect 10 0 6 1;#P fasten 7 2 13 0 156 284 141 284;#P fasten 11 0 13 0 105 284 141 284;#P connect 24 2 13 0;#P connect 13 0 15 0;#P connect 15 0 25 0;#P connect 25 0 12 3;#P fasten 7 1 48 2 135 148 151 148;#P fasten 13 0 50 0 141 320 152 320;#P fasten 50 0 14 0 152 343 177 343;#P connect 7 3 14 0;#P connect 14 0 16 0;#P connect 16 0 12 4;#P connect 7 4 5 0;#P connect 11 3 12 5;#P connect 46 0 4 0;#P connect 11 4 12 6;#P connect 11 5 12 7;#P fasten 35 0 39 0 399 340 330 340;#P connect 39 0 40 0;#P connect 40 0 26 0;#P connect 39 1 37 0;#P connect 4 0 28 0;#P connect 37 0 28 0;#P fasten 43 0 41 0 415 159 373 159;#P connect 41 0 31 0;#P fasten 44 0 30 0 435 208 373 208;#P connect 31 0 30 0;#P connect 30 0 32 0;#P connect 32 0 38 0;#P fasten 38 0 34 0 373 296 373 296;#P fasten 35 0 37 1 399 340 373 340;#P connect 48 0 41 1;#P connect 32 1 36 0;#P connect 36 0 33 0;#P connect 33 0 34 1;#P connect 34 2 35 0;#P fasten 38 1 37 2 387 296 413 296 413 347 399 347;#P connect 36 0 35 1;#P fasten 47 0 42 0 423 38 415 38;#P fasten 24 1 43 0 58 277 334 277 334 124 415 124;#P connect 42 0 43 0;#P connect 47 0 27 0;#P connect 27 0 29 0;#P connect 32 2 33 1;#P fasten 30 1 37 3 416 356 425 356;#P fasten 10 0 42 1 133 102 434 102;#P connect 43 1 44 0;#P connect 32 3 37 4;#P connect 32 4 37 5;#P connect 32 5 37 6;#P pop;