max v2;#N vpatcher 413 242 1023 561;#P origin 0 -36;#P window setfont "Sans Serif" 9.;#P newex 39 35 263 196617 r $1Commands;#P outlet 19 254 15 0;#P newex 230 139 124 196617 r $1base;#P newex 223 58 79 196617 r GetSampleInfo;#P message 19 79 42 196617 replace;#P newex 19 58 115 196617 route open base;#P inlet 19 35 15 0;#P newex 326 202 25 196617 > 0.;#P newex 36 253 301 196617 s $4Info;#P newex 36 228 301 196617 sprintf $1 %i %f %f %f %f %i;#P comment 364 148 207 196617 # 3 - Number of Channels (1 \, 2 \, 4) : $3;#P comment 364 219 207 196617 # 5 - BaseKey : $5;#P comment 364 164 207 196617 # 4 - SoundName : $4;#P comment 364 74 207 196617 # 2 - FileName : $2;#P comment 364 58 207 196617 # 1 - SampleName : $1;#P newex 132 139 78 196617 St.LoadIf $5;#P newex 36 202 204 196617 if $i2 == 0 then $i1 else $i2;#P newex 36 174 184 196617 unpack 0 0 0 0 0 0 0;#P newex 211 101 143 196617 info~ $1;#P newex 19 101 191 196617 buffer~ $1 $2 0 $3;#P newex 135 58 87 196617 St.LoadIf 0 0 200;#P newex 211 81 15 196617 b;#P connect 15 0 16 0;#P fasten 21 0 16 0 44 55 24 55;#P connect 16 0 17 0;#P connect 17 0 2 0;#P fasten 16 2 2 0 128 97 24 97;#P fasten 12 0 20 0 41 249 24 249;#P fasten 3 1 4 0 235 130 41 130;#P connect 4 0 5 0;#P connect 5 0 12 0;#P connect 12 0 13 0;#P connect 4 2 12 1;#P fasten 4 3 12 2 128 196 157 196;#P fasten 3 2 12 3 254 223 215 223;#P fasten 18 0 0 0 228 78 216 78;#P connect 1 2 0 0;#P connect 0 0 3 0;#P connect 2 1 3 0;#P connect 19 0 5 1;#P fasten 16 1 5 1 76 168 235 168;#P fasten 6 0 5 1 137 168 235 168;#P connect 3 3 12 4;#P connect 3 3 14 0;#P connect 14 0 12 5;#P pop;