max v2;#N vpatcher 1 44 602 550;#P window setfont "Sans Serif" 9.;#N vpatcher 603 44 1011 477;#P window setfont "Sans Serif" 9.;#P hidden newex -57 217 71 196617 r Esp-dyn.min;#P hidden newex -57 173 69 196617 r Esp-max.ED;#P hidden newex -57 194 65 196617 r Esp-min.ED;#P hidden newex -57 238 74 196617 r Esp-dyn.max;#N vpatcher 139 196 458 449;#P window setfont "Sans Serif" 9.;#P newex 197 113 70 196617 r Esp-rhy.per;#P newex 154 91 60 196617 r Esp-nr.ED;#P newex 111 66 69 196617 r Esp-max.ED;#P newex 68 43 66 196617 r Esp-min.ED;#N comlet toggle;#P inlet 25 43 15 0;#N comlet ED;#P outlet 197 194 15 0;#N comlet bangs (rhythm);#P outlet 25 194 15 0;#P newex 25 141 183 196617 group-rhythm 75 1000 12 0.33;#P outlet 111 194 15 0;#N vpatcher 50 40 183 191;#P outlet 33 97 15 0;#P window setfont "Sans Serif" 9.;#P newex 33 30 60 196617 r Esp-nr.ED;#P number 33 53 35 9 0 0 64 3 0 0 0 221 221 221 222 222 222 0 0 0;#P message 33 73 41 196617 size \$1;#P connect 2 0 1 0;#P connect 1 0 0 0;#P connect 0 0 3 0;#P pop;#P hidden newobj 146 168 42 196617 p slider;#P connect 5 0 2 0;#P connect 2 0 3 0;#P connect 6 0 2 1;#P connect 7 0 2 2;#P connect 0 0 1 0;#P connect 2 1 1 0;#P connect 8 0 2 3;#P connect 9 0 2 4;#P connect 2 2 4 0;#P pop;#P newobj 104 60 178 196617 p rhythm;#P toggle 104 34 15 0;#N vpatcher 303 80 539 396;#P window setfont "Sans Serif" 9.;#N vpatcher 50 40 234 252;#P inlet 31 34 15 0;#P window setfont "Sans Serif" 9.;#P newex 31 64 39 196617 * 100.;#P newex 31 96 117 196617 if $f1> 2 then $f1 else 2;#P newex 31 128 38 196617 / 100.;#P outlet 31 158 15 0;#P connect 4 0 3 0;#P connect 3 0 2 0;#P connect 2 0 1 0;#P connect 1 0 0 0;#P pop;#P newobj 133 90 51 196617 p checker;#P newex 133 61 65 196617 r Esp-har-bf;#P newex 40 184 66 196617 anti-bis&osc;#N comlet bang (from a rhythm generator);#P inlet 40 61 15 0;#P button 40 90 15 0;#P newex 40 152 102 196617 anti-octave&prime;#P newex 40 119 103 196617 brownian 24 108 0.1;#N comlet note (key number);#P outlet 40 234 15 0;#P connect 4 0 3 0;#P connect 5 1 3 0;#P connect 2 1 1 0;#P connect 3 0 1 0;#P connect 1 0 2 0;#P connect 2 0 5 0;#P connect 5 0 0 0;#P connect 6 0 7 0;#P connect 7 0 1 3;#P pop;#P newobj 104 110 55 196617 p harmony;#N vpatcher 241 136 544 380;#N comlet bangs (rhythm);#P inlet 25 38 15 0;#P window setfont "Sans Serif" 9.;#P newex 81 38 71 196617 r Esp-dyn.min;#P newex 137 66 74 196617 r Esp-dyn.max;#P newex 193 92 64 196617 r Esp-dyn.bf;#P newex 25 142 178 196617 brownian 1 127 0.2;#P number 25 169 35 9 0 0 164 3 0 0 0 221 221 221 222 222 222 0 0 0;#N comlet velocity;#P outlet 25 195 15 0;#P comment 63 170 45 196617 velocity;#P connect 7 0 3 0;#P connect 3 0 2 0;#P connect 2 0 1 0;#P connect 6 0 3 1;#P connect 5 0 3 2;#P connect 4 0 3 3;#P pop;#P newobj 167 110 53 196617 p dynamic;#P newex 104 145 201 196617 QT-SndPlayer 1 500;#P hidden inlet 121 34 15 0;#P comment 183 315 45 196617 min. vel;#P comment 183 221 45 196617 max. vel;#P comment 207 265 45 196617 velocity;#P user uslider 160 235 14 62 128 1 0 0;#P number 176 265 30 9 0 0 164 3 0 0 0 221 221 221 222 222 222 0 0 0;#P message 268 220 29 196617 4.;#P message 268 313 29 196617 0.25;#P user uslider 275 235 14 62 13 1 0 0;#P comment 299 220 55 196617 max. dur-f;#P comment 298 314 55 196617 min. dur-f;#P user uslider 53 235 14 62 9 1 0 0;#P number 69 265 40 9 0 0 164 3 0 0 0 221 221 221 222 222 222 0 0 0;#P comment 110 266 19 196617 ED;#P comment 78 221 44 196617 max. ED;#P comment 78 314 44 196617 min. ED;#P number 42 220 35 9 0 0 160 3 0 0 0 221 221 221 222 222 222 0 0 0;#P number 42 313 35 9 0 0 160 3 0 0 0 221 221 221 222 222 222 0 0 0;#P number 153 313 28 9 0 0 160 3 0 0 0 221 221 221 222 222 222 0 0 0;#P number 153 220 28 9 0 0 160 3 0 0 0 221 221 221 222 222 222 0 0 0;#P window setfont "Sans Serif" 12.;#P comment 41 195 52 196620 rhythm;#P comment 265 195 60 196620 duration;#P comment 150 195 59 196620 dynamic;#P window setfont "Sans Serif" 9.;#P comment 322 266 55 196617 dur-factor;#N vpatcher 50 40 310 293;#P button 31 60 15 0;#P window setfont "Sans Serif" 9.;#N vpatcher 40 55 302 240;#P window setfont "Sans Serif" 9.;#P newex 118 45 63 196617 r Esp-dur.bf;#N comlet rhythm bangs;#P inlet 28 45 15 0;#P newex 28 78 102 196617 brownian 0 13;#N comlet duration factor;#P outlet 28 138 15 0;#P outlet 173 108 15 0;#P newex 28 108 98 196617 trans-log 0.25 4 12;#P connect 4 0 3 0;#P connect 3 0 0 0;#P connect 0 0 2 0;#P connect 5 0 3 3;#P connect 3 0 1 0;#P pop;#P newobj 119 103 64 196617 p dur-factor;#N comlet ED;#P inlet 75 34 15 0;#N comlet rhythm bangs;#P inlet 31 34 15 0;#P newex 31 152 98 196617 dur-from-ED;#P flonum 119 129 35 9 0 0 164 3 0 0 0 221 221 221 222 222 222 0 0 0;#N comlet to slider;#P outlet 173 191 15 0;#P outlet 31 191 15 0;#P outlet 145 191 15 0;#P connect 5 0 8 0;#P connect 8 0 4 0;#P connect 4 0 1 0;#P connect 6 0 4 1;#P fasten 8 0 7 0 36 86 124 86;#P connect 7 0 3 0;#P connect 3 0 4 2;#P connect 3 0 0 0;#P connect 7 1 2 0;#P pop;#P newobj 230 110 52 196617 p duration;#P flonum 291 265 30 9 0 0 164 3 0 0 0 221 221 221 222 222 222 0 0 0;#P user kslider 22 361 35 1 24 84 19 7 0 128 128 128 128 128 128 255 255 255 0 0 0 0 0 0;#P hidden connect 29 0 0 0;#P hidden connect 34 0 10 0;#P hidden connect 33 0 9 0;#P hidden connect 31 1 15 0;#P hidden connect 31 2 14 0;#P hidden connect 26 0 30 0;#P connect 30 0 31 0;#P connect 31 0 29 0;#P connect 29 0 27 0;#P hidden connect 32 0 7 0;#P hidden connect 35 0 8 0;#P hidden connect 28 0 22 0;#P fasten 31 0 28 0 109 92 172 92;#P connect 28 0 27 1;#P hidden connect 28 0 21 0;#P fasten 31 0 2 0 109 92 235 92;#P connect 2 0 27 2;#P connect 31 2 2 1;#P hidden connect 2 2 18 0;#P hidden connect 2 1 1 0;#P pop 1;#P newobj 26 128 50 196617 p main;#P toggle 26 94 25 0;#P comment 55 176 109 196617 change all parameters;#P button 26 252 15 0;#P user uslider 26 300 15 44 13 1 0 0;#P number 26 434 39 9 50 0 5 3 0 0 0 221 221 221 222 222 222 0 0 0;#P comment 26 455 39 196617 min.ED;#N vpatcher 50 40 318 254;#P inlet 22 38 15 0;#P window setfont "Sans Serif" 9.;#P newex 135 38 47 196617 r Esp-sli;#P newex 135 92 97 196617 scale 0 127 500 75;#P newex 22 92 101 196617 trans-log 50 200 12;#P number 22 65 35 9 0 0 0 3 0 0 0 221 221 221 222 222 222 0 0 0;#P newex 22 122 33 196617 round;#N comlet min. ED;#P outlet 22 150 15 0;#P connect 6 0 2 0;#P connect 2 0 3 0;#P connect 3 0 1 0;#P connect 1 0 0 0;#P connect 4 0 0 0;#P connect 5 0 4 0;#P pop;#P newobj 26 395 45 196617 p min.ED;#P hidden newex 26 147 46 196617 loadbang;#P button 26 170 26 0;#P button 26 214 19 0;#P user uslider 182 300 15 44 101 1 0 0;#P newex 182 395 38 196617 / 100.;#P comment 182 455 39 196617 period.;#P flonum 182 434 39 9 0. 1. 7 3 0 0 0 221 221 221 222 222 222 0 0 0;#P user uslider 130 300 15 44 23 1 2 0;#P number 130 434 27 9 2 0 5 3 0 0 0 221 221 221 222 222 222 0 0 0;#P window linecount 2;#P comment 130 455 41 196617 number of ED's;#P user uslider 78 300 15 44 13 1 0 0;#P number 78 434 39 9 50 0 5 3 0 0 0 221 221 221 222 222 222 0 0 0;#P window linecount 1;#P comment 78 455 44 196617 max. ED;#N vpatcher 50 40 349 243;#P inlet 22 38 15 0;#P window setfont "Sans Serif" 9.;#P newex 22 92 113 196617 trans-log 250 2000 12;#P number 22 65 35 9 0 0 0 3 0 0 0 221 221 221 222 222 222 0 0 0;#P newex 22 122 33 196617 round;#N comlet min. ED;#P outlet 22 150 15 0;#P newex 145 92 109 196617 scale 0 127 500 1000;#P newex 145 38 47 196617 r Esp-sli;#P connect 6 0 4 0;#P connect 4 0 5 0;#P connect 5 0 3 0;#P connect 1 0 2 0;#P connect 3 0 2 0;#P connect 0 0 1 0;#P pop;#P newobj 78 395 49 196617 p max.ED;#P button 130 252 15 0;#P button 78 252 15 0;#P button 182 252 15 0;#P window linecount 2;#P comment 243 455 35 196617 brown factor;#P button 243 214 19 0;#P user uslider 243 300 15 44 99 1 2 0;#P window linecount 1;#P newex 243 395 38 196617 / 100.;#P flonum 243 434 39 9 0. 1. 7 3 0 0 0 221 221 221 222 222 222 0 0 0;#P number 355 434 34 9 1 127 71 3 0 0 0 221 221 221 222 222 222 0 0 0;#P comment 355 455 46 196617 max.dyn;#P window linecount 2;#P comment 402 455 35 196617 brown factor;#P window linecount 1;#P newex 402 395 38 196617 / 100.;#P flonum 402 434 39 9 0. 1. 7 3 0 0 0 221 221 221 222 222 222 0 0 0;#P user uslider 402 300 15 44 100 1 0 0;#P number 308 434 33 9 1 127 71 3 0 0 0 221 221 221 222 222 222 0 0 0;#P comment 308 455 46 196617 min.dyn;#P user uslider 308 300 15 44 128 1 1 0;#P button 308 252 15 0;#P button 308 214 19 0;#P user uslider 355 300 15 44 128 1 1 0;#P button 355 252 15 0;#P button 402 252 15 0;#P newex 461 395 38 196617 / 100.;#P user uslider 461 300 15 44 101 1 0 0;#P flonum 461 434 40 9 0. 1. 7 3 0 0 0 221 221 221 222 222 222 0 0 0;#P window linecount 2;#P comment 461 455 35 196617 brown factor;#P window linecount 1;#P hidden newex 392 520 63 196617 s Esp-dur.bf;#P hidden newex 162 480 65 196617 s Esp-har-bf;#P hidden newex 273 521 64 196617 s Esp-dyn.bf;#P hidden newex 273 480 71 196617 s Esp-dyn.min;#P hidden newex 273 501 74 196617 s Esp-dyn.max;#P hidden newex 24 522 60 196617 s Esp-nr.ED;#P hidden newex 21 520 70 196617 s Esp-rhy.per;#P hidden newex 25 500 69 196617 s Esp-max.ED;#P hidden newex 25 480 66 196617 s Esp-min.ED;#P button 461 214 19 0;#P toggle 132 94 26 0;#P hidden newex 96 149 55 196617 s Esp-auto;#P comment 160 101 163 196617 auto-change parameters over time;#P hidden message 329 128 14 196617 0;#P hidden newex 393 152 42 196617 s Esp-x;#P comment 371 101 49 196617 Nullpunkt;#P comment 54 101 55 196617 start/stop;#P comment 24 58 225 196617 © 1993-2008 by Karlheinz Essl <www.essl.at>;#P window setfont "Sans Serif" 18.;#P comment 24 20 58 196626 Esprit;#P button 343 94 27 0;#P user hslider 343 128 18 128 128 1 0 0;#P window setfont "Sans Serif" 9.;#P hidden newex 343 152 47 196617 s Esp-sli;#N vpatcher 47 40 292 245;#P window setfont "Sans Serif" 9.;#P newex 111 48 55 196617 r Esp-auto;#P newex 111 74 79 196617 serial-rhythm 5000 30000 12;#N comlet duration brown factor;#P outlet 75 145 15 0;#N comlet duration change bang;#P inlet 75 88 15 0;#P message 57 145 14 196617 0;#P newex 29 88 42 196617 r Esp-x;#P newex 75 116 75 196617 between 0 101;#P connect 1 0 2 0;#P connect 3 0 0 0;#P connect 5 0 0 0;#P connect 0 0 4 0;#P connect 2 0 4 0;#P connect 6 0 5 0;#P pop;#P newobj 461 275 53 196617 p duration;#N vpatcher 50 40 465 225;#P window setfont "Sans Serif" 9.;#P newex 296 62 79 196617 serial-rhythm 5000 30000 12;#P newex 296 36 55 196617 r Esp-auto;#P message 228 131 14 196617 0;#P newex 246 101 75 196617 between 0 101;#N comlet dynamic brown factor;#P outlet 246 131 15 0;#P inlet 246 73 15 0;#P inlet 157 72 15 0;#P newex 21 72 42 196617 r Esp-x;#N comlet dynamic change bang;#P inlet 79 72 15 0;#N comlet min. dynamic;#P outlet 79 131 15 0;#P message 61 131 14 196617 0;#P message 126 131 26 196617 127;#N comlet max. dynamic;#P outlet 157 131 15 0;#P newex 157 101 81 196617 between 20 128;#P newex 79 100 69 196617 between 1 21;#P connect 7 0 4 0;#P connect 14 0 0 0;#P connect 6 0 0 0;#P connect 0 0 5 0;#P connect 4 0 5 0;#P connect 7 0 3 0;#P connect 14 0 1 0;#P connect 8 0 1 0;#P connect 1 0 2 0;#P connect 3 0 2 0;#P connect 7 0 12 0;#P connect 9 0 11 0;#P connect 14 0 11 0;#P connect 11 0 10 0;#P connect 12 0 10 0;#P connect 13 0 14 0;#P pop;#P newobj 308 275 105 196617 p dynamic;#N vpatcher 50 40 302 225;#N comlet harmony brown factor;#P outlet 74 133 15 0;#N comlet harmony change bang;#P inlet 74 71 15 0;#P window setfont "Sans Serif" 9.;#P newex 74 107 69 196617 between 0 99;#P message 55 133 14 196617 0;#P newex 28 71 42 196617 r Esp-x;#P newex 122 59 79 196617 serial-rhythm 5000 30000 12;#P newex 122 33 55 196617 r Esp-auto;#P connect 2 0 3 0;#P connect 1 0 4 0;#P connect 5 0 4 0;#P connect 3 0 6 0;#P connect 4 0 6 0;#P connect 0 0 1 0;#P pop;#P newobj 243 275 55 196617 p harmony;#N vpatcher 50 40 502 304;#P inlet 243 133 15 0;#P inlet 324 133 15 0;#P inlet 165 133 15 0;#P inlet 90 133 15 0;#P window setfont "Sans Serif" 9.;#P message 303 191 14 196617 0;#N comlet periodicity;#P outlet 324 191 15 0;#P newex 324 163 75 196617 between 20 90;#P message 225 191 14 196617 5;#N comlet steps;#P outlet 243 191 15 0;#P newex 243 162 69 196617 between 0 23;#N comlet min. ED;#P outlet 90 191 15 0;#N comlet max. ED;#P outlet 165 191 15 0;#P newex 165 162 69 196617 between 0 13;#P newex 90 162 69 196617 between 0 13;#P newex 373 132 42 196617 r Esp-x;#P newex 43 46 55 196617 r Esp-auto;#P newex 43 72 79 196617 serial-rhythm 5000 30000 12;#P connect 1 0 0 0;#P connect 0 0 3 0;#P connect 13 0 3 0;#P connect 3 0 6 0;#P connect 0 0 4 0;#P connect 14 0 4 0;#P connect 4 0 5 0;#P connect 2 0 9 0;#P connect 0 0 7 0;#P connect 16 0 7 0;#P connect 7 0 8 0;#P connect 9 0 8 0;#P connect 2 0 12 0;#P connect 0 0 10 0;#P connect 15 0 10 0;#P connect 10 0 11 0;#P connect 12 0 11 0;#P pop;#P newobj 26 275 166 196617 p rhythm;#N vpreset 8;#X append 1 2 9 128 343 hslider int 127 \; 19 94 132 toggle int 0 \; 31 434 461 flonum float 0.33 \; 32 300 461 uslider int 33 \; 36 300 355 uslider int 127 \; 39 300 308 uslider int;#X append 1 2 0 \; 41 434 308 number int 1 \; 42 300 402 uslider int 33 \; 43 434 402 flonum float 0.33 \; 47 434 355 number int 127 \; 48 434 243 flonum float 0.22 \; 50 300 243;#X append 1 2 uslider int 20 \; 58 434 78 number int 1000 \; 59 300 78 uslider int 8 \; 61 434 130 number int 24 \; 62 300 130 uslider int 22 \; 63 434 182 flonum float 0.75 \; 66 300 182;#X append 1 2 uslider int 75 \; 72 434 26 number int 50 \; 73 300 26 uslider int 0 \; 76 94 26 toggle int 1 \;;#X append 2 2 9 128 343 hslider int 127 \; 19 94 132 toggle int 0 \; 31 434 461 flonum float 1. \; 32 300 461 uslider int 100 \; 36 300 355 uslider int 127 \; 39 300 308 uslider int;#X append 2 2 0 \; 41 434 308 number int 1 \; 42 300 402 uslider int 69 \; 43 434 402 flonum float 0.69 \; 47 434 355 number int 127 \; 48 434 243 flonum float 0.9 \; 50 300 243;#X append 2 2 uslider int 88 \; 58 434 78 number int 250 \; 59 300 78 uslider int 0 \; 61 434 130 number int 24 \; 62 300 130 uslider int 22 \; 63 434 182 flonum float 0. \; 66 300 182;#X append 2 2 uslider int 0 \; 72 434 26 number int 200 \; 73 300 26 uslider int 12 \; 76 94 26 toggle int 1 \;;#X append 3 2 9 128 343 hslider int 127 \; 19 94 132 toggle int 0 \; 31 434 461 flonum float 0.320001 \; 32 300 461 uslider int 92 \; 36 300 355 uslider int 127 \; 39 300 308 uslider int;#X append 3 2 0 \; 41 434 308 number int 1 \; 42 300 402 uslider int 13 \; 43 434 402 flonum float 0.35 \; 47 434 355 number int 127 \; 48 434 243 flonum float 0.71 \; 50 300 243;#X append 3 2 uslider int 69 \; 58 434 78 number int 500 \; 59 300 78 uslider int 4 \; 61 434 130 number int 2 \; 62 300 130 uslider int 0 \; 63 434 182 flonum float 0.53 \; 66 300 182;#X append 3 2 uslider int 53 \; 72 434 26 number int 50 \; 73 300 26 uslider int 0 \; 76 94 26 toggle int 1 \;;#X append 4 2 9 128 343 hslider int 127 \; 19 94 132 toggle int 0 \; 31 434 461 flonum float 0.2 \; 32 300 461 uslider int 20 \; 36 300 355 uslider int 127 \; 39 300 308 uslider int;#X append 4 2 0 \; 41 434 308 number int 1 \; 42 300 402 uslider int 6 \; 43 434 402 flonum float 0.06 \; 47 434 355 number int 127 \; 48 434 243 flonum float 0.1 \; 50 300 243;#X append 4 2 uslider int 8 \; 58 434 78 number int 2000 \; 59 300 78 uslider int 12 \; 61 434 130 number int 5 \; 62 300 130 uslider int 4 \; 63 434 182 flonum float 0.5 \; 66 300 182;#X append 4 2 uslider int 50 \; 72 434 26 number int 126 \; 73 300 26 uslider int 8 \; 76 94 26 toggle int 1 \;;#X append 8 2 9 128 343 hslider int 0 \; 19 94 132 toggle int 0 \; 31 434 461 flonum float 0. \; 32 300 461 uslider int 0 \; 36 300 355 uslider int 127 \; 39 300 308 uslider int;#X append 8 2 0 \; 41 434 308 number int 1 \; 42 300 402 uslider int 0 \; 43 434 402 flonum float 0. \; 47 434 355 number int 127 \; 48 434 243 flonum float 0.02 \; 50 300 243;#X append 8 2 uslider int 0 \; 58 434 78 number int 500 \; 59 300 78 uslider int 8 \; 61 434 130 number int 7 \; 62 300 130 uslider int 5 \; 63 434 182 flonum float 0. \; 66 300 182;#X append 8 2 uslider int 0 \; 72 434 26 number int 500 \; 73 300 26 uslider int 5 \; 76 94 26 toggle int 1 \;;#P preset 132 128 87 18;#P comment 24 46 282 196617 Structure generator from Karlheinz Essl's "Lexikon-Sonate";#P comment 221 131 44 196617 presets;#P comment 489 131 71 196617 rhythm range;#P hidden connect 63 0 23 0;#P hidden connect 61 0 24 0;#P hidden connect 72 0 21 0;#P hidden connect 58 0 22 0;#P connect 76 0 77 0;#P hidden connect 69 0 68 0;#P connect 68 0 67 0;#P connect 67 0 74 0;#P connect 74 0 4 0;#P connect 4 0 73 0;#P connect 73 0 70 0;#P connect 70 0 72 0;#P fasten 67 0 54 0 31 242 83 242;#P connect 54 0 4 1;#P connect 4 1 59 0;#P connect 59 0 56 0;#P connect 56 0 58 0;#P hidden connect 19 0 18 0;#P fasten 67 0 55 0 31 242 135 242;#P connect 55 0 4 2;#P connect 4 2 62 0;#P connect 62 0 61 0;#P hidden connect 48 0 28 0;#P fasten 67 0 53 0 31 242 187 242;#P connect 53 0 4 3;#P connect 4 3 66 0;#P connect 66 0 65 0;#P connect 65 0 63 0;#P fasten 68 0 51 0 31 205 248 205;#P connect 51 0 5 0;#P connect 5 0 50 0;#P connect 50 0 49 0;#P connect 49 0 48 0;#P hidden connect 41 0 26 0;#P hidden connect 47 0 25 0;#P hidden connect 43 0 27 0;#P fasten 68 0 37 0 31 205 313 205;#P connect 37 0 38 0;#P connect 38 0 6 0;#P connect 6 0 39 0;#P connect 39 0 41 0;#P hidden connect 10 0 16 0;#P hidden connect 16 0 9 0;#P hidden connect 9 0 8 0;#P fasten 37 0 35 0 313 243 360 243;#P connect 35 0 6 1;#P connect 6 1 36 0;#P connect 36 0 47 0;#P hidden connect 31 0 29 0;#P hidden connect 10 0 15 0;#P fasten 37 0 34 0 313 243 407 243;#P connect 34 0 6 2;#P connect 6 2 42 0;#P connect 42 0 44 0;#P connect 44 0 43 0;#P fasten 68 0 20 0 31 205 466 205;#P connect 20 0 7 0;#P connect 7 0 32 0;#P connect 32 0 33 0;#P connect 33 0 31 0;#P pop;