max v2;#N vpatcher 0 44 683 549;#P origin 0 -1;#P window setfont "Sans Serif" 9.;#P comment 242 142 44 196617 presets;#P comment 20 61 225 196617 © 1993-2008 by Karlheinz Essl <www.essl.at>;#P comment 20 48 282 196617 Structure generator from Karlheinz Essl's "Lexikon-Sonate";#P comment 182 112 166 196617 auto-change parameters over time;#P window setfont "Sans Serif" 18.;#P comment 20 20 99 196626 MeloChord;#P window setfont "Sans Serif" 9.;#P window linecount 2;#P comment 322 439 45 196617 period. register;#P flonum 322 416 39 9 0. 1. 7 3 0 0 0 221 221 221 222 222 222 0 0 0;#P window linecount 1;#P comment 19 439 41 196617 min.ED;#P number 19 416 36 9 50 0 5 3 0 0 0 221 221 221 222 222 222 0 0 0;#P number 70 416 40 9 50 0 5 3 0 0 0 221 221 221 222 222 222 0 0 0;#P comment 70 439 41 196617 max.ED;#P number 121 416 29 9 2 0 5 3 0 0 0 221 221 221 222 222 222 0 0 0;#P comment 121 439 32 196617 steps;#P window linecount 3;#P comment 170 439 35 196617 max. chord size;#P number 172 416 23 9 1 0 5 3 0 0 0 221 221 221 222 222 222 0 0 0;#P window linecount 2;#P comment 225 439 41 196617 period. min.ED;#P flonum 223 416 39 9 0. 1. 7 3 0 0 0 221 221 221 222 222 222 0 0 0;#P flonum 274 416 39 9 0. 1. 7 3 0 0 0 221 221 221 222 222 222 0 0 0;#P comment 274 439 41 196617 period. max.ED;#P number 474 416 29 9 2 0 5 3 0 0 0 221 221 221 222 222 222 0 0 0;#P comment 474 439 32 196617 steps dur;#P flonum 515 416 39 9 0. 1. 7 3 0 0 0 221 221 221 222 222 222 0 0 0;#P comment 515 439 38 196617 period. dur;#P number 385 416 26 9 2 0 5 3 0 0 0 221 221 221 222 222 222 0 0 0;#P comment 385 439 32 196617 steps dyn;#P flonum 427 416 39 9 0. 1. 7 3 0 0 0 221 221 221 222 222 222 0 0 0;#P comment 427 439 45 196617 brown-f dyn;#P window linecount 1;#P hidden newex 427 397 38 196617 / 100.;#P hidden newex 515 397 38 196617 / 100.;#P hidden newex 274 397 38 196617 / 100.;#P hidden newex 223 397 38 196617 / 100.;#N vpatcher 332 94 509 304;#P window setfont "Sans Serif" 9.;#P newex 25 117 33 196617 round;#P newex 25 92 113 196617 trans-log 500 4000 12;#P number 25 65 35 9 0 0 0 3 0 0 0 221 221 221 222 222 222 0 0 0;#N comlet min. ED;#P outlet 25 151 15 0;#P inlet 25 39 15 0;#P connect 0 0 2 0;#P connect 2 0 3 0;#P connect 3 0 4 0;#P connect 4 0 1 0;#P pop;#P hidden newobj 70 397 49 196617 p max.ED;#N vpatcher 295 225 480 541;#P window setfont "Sans Serif" 9.;#P newex 39 140 101 196617 trans-log 75 500 12;#P number 39 113 35 9 0 0 0 3 0 0 0 221 221 221 222 222 222 0 0 0;#P inlet 39 50 15 0;#P newex 39 170 33 196617 round;#N comlet min. ED;#P outlet 39 198 15 0;#P connect 2 0 3 0;#P connect 3 0 4 0;#P connect 4 0 1 0;#P connect 1 0 0 0;#P pop;#P hidden newobj 19 397 45 196617 p min.ED;#P hidden newex 322 397 38 196617 / 100.;#N vpatcher 684 44 1026 389;#P window setfont "Sans Serif" 9.;#N vpatcher 162 174 401 438;#P window setfont "Sans Serif" 9.;#N vpatcher 44 186 508 463;#P window setfont "Sans Serif" 9.;#P comment 218 91 53 196617 selection principle;#P newex 163 38 76 196617 r Mel-harm.sel;#P user umenu 163 95 51 196645 1 64 111 0;#X add;#X add alea;#X add series;#X add sequence;#P newex 294 39 55 196617 r Mel-intv;#P message 313 96 49 196617 -6 -2;#P newex 313 71 31 196617 show;#P comment 366 97 62 196617 interval list;#P newex 32 123 272 196617 sel-princ;#P newex 32 175 45 196617 st2pitch;#N comlet pitch class;#P outlet 32 226 15 0;#P number 32 150 35 9 -11 11 103 3 0 0 0 221 221 221 222 222 222 0 0 0;#P number 32 202 35 9 0 11 295 3 0 0 0 221 221 221 222 222 222 0 0 0;#N comlet rhythm bangs;#P inlet 32 40 15 0;#P button 32 97 15 0;#P comment 75 151 77 196617 chosen interval;#P comment 75 203 56 196617 pitch class;#P connect 3 0 2 0;#P connect 2 0 8 0;#P connect 8 0 5 0;#P connect 5 0 7 0;#P connect 7 0 4 0;#P connect 4 0 6 0;#P connect 14 0 13 0;#P connect 13 0 8 1;#P connect 12 0 8 2;#P connect 12 0 10 0;#P connect 10 0 11 0;#P pop;#P newobj 26 101 39 196617 p pitch;#N vpatcher 87 89 276 386;#P button 38 96 15 0;#P window setfont "Sans Serif" 9.;#P newex 71 96 49 196617 per2pass;#P number 71 125 35 9 0 100 39 3 0 0 0 221 221 221 222 222 222 0 0 0;#P newex 38 152 43 196617 pass 50;#P newex 38 183 63 196617 between 2 9;#N comlet register;#P outlet 38 240 15 0;#P number 38 212 22 9 0 0 164 3 0 0 0 221 221 221 222 222 222 0 0 0;#P comment 62 213 46 196617 register;#P flonum 71 71 35 9 0. 1. 39 3 0 0 0 221 221 221 222 222 222 0 0 0;#P newex 71 40 70 196617 r Mel-reg.per;#N comlet bangs (from a rhythm generator);#P inlet 38 40 15 0;#P comment 109 71 57 196617 periodicity;#P comment 109 125 40 196617 % pass;#P connect 2 0 12 0;#P connect 12 0 9 0;#P connect 9 0 8 0;#P connect 8 0 6 0;#P connect 6 0 7 0;#P connect 3 0 4 0;#P connect 4 0 11 0;#P connect 11 0 10 0;#P connect 10 0 9 1;#P pop;#P newobj 143 101 53 196617 p register;#P comment 66 188 27 196617 note;#P number 26 187 35 9 0 0 420 3 0 0 0 221 221 221 222 222 222 0 0 0;#P outlet 26 215 15 0;#P comment 66 130 55 196617 pitch class;#P comment 167 130 45 196617 register;#P number 143 130 22 9 2 8 39 3 0 0 0 221 221 221 222 222 222 0 0 0;#P newex 26 157 127 196617 pitch2note;#P number 26 130 38 9 0 11 4135 3 0 0 0 221 221 221 222 222 222 0 0 0;#N comlet bang (from rhythm);#P inlet 26 37 15 0;#P button 26 69 15 0;#P connect 1 0 0 0;#P connect 0 0 11 0;#P connect 11 0 2 0;#P connect 2 0 3 0;#P connect 3 0 8 0;#P connect 8 0 7 0;#P fasten 0 0 10 0 31 92 148 92;#P connect 10 0 4 0;#P connect 4 0 3 1;#P pop;#P newobj 24 152 55 196617 p harmony;#N vpatcher 11 108 358 385;#N comlet rhythm bangs;#P inlet 26 35 15 0;#P button 26 60 15 0;#N comlet duration;#P outlet 26 207 15 0;#P window setfont "Sans Serif" 9.;#P number 26 180 35 9 0 0 164 3 0 0 0 221 221 221 222 222 222 0 0 0;#P newex 26 152 184 196617 dur-from-ED;#P comment 65 181 45 196617 duration;#N vpatcher 49 82 292 475;#P window setfont "Sans Serif" 9.;#P comment 107 68 57 196617 periodicity;#P comment 107 119 40 196617 % pass;#P flonum 68 67 35 9 0. 1. 39 3 0 0 0 221 221 221 222 222 222 0 0 0;#N comlet rhythm bangs;#P inlet 35 41 15 0;#P newex 68 40 70 196617 r Mel-dur.per;#P number 68 118 35 9 0 100 39 3 0 0 0 221 221 221 222 222 222 0 0 0;#P newex 35 142 43 196617 pass 50;#P newex 93 142 79 196617 r Mel-dur.steps;#P number 93 169 24 9 2 0 37 3 0 0 0 221 221 221 222 222 222 0 0 0;#P comment 121 169 85 196617 number of values;#P newex 68 92 49 196617 per2pass;#P button 35 92 15 0;#P number 35 241 35 9 0 0 37 3 0 0 0 221 221 221 222 222 222 0 0 0;#P newex 35 267 116 196617 trans-log 0.25 4 12;#P flonum 35 291 35 9 0 0 164 3 0 0 0 221 221 221 222 222 222 0 0 0;#N comlet duration factor;#P outlet 35 313 15 0;#P newex 35 210 69 196617 between 0 12;#P newex 140 210 27 196617 - 1;#P button 35 176 15 0;#P comment 73 292 76 196617 duration factor;#P comment 73 242 65 196617 chosen index;#P connect 17 0 9 0;#P connect 9 0 14 0;#P connect 14 0 2 0;#P connect 2 0 4 0;#P connect 4 0 8 0;#P connect 8 0 7 0;#P connect 7 0 6 0;#P connect 6 0 5 0;#P connect 16 0 18 0;#P connect 18 0 10 0;#P connect 10 0 15 0;#P connect 15 0 14 1;#P connect 13 0 12 0;#P connect 12 0 4 2;#P fasten 12 0 3 0 98 197 145 197;#P connect 3 0 7 3;#P pop;#P newobj 200 95 64 196617 p dur-factor;#P newex 219 153 94 196617 scale 0.25 4 0 127;#N comlet slider display;#P outlet 219 208 15 0;#P flonum 200 123 35 9 0. 0 37 3 0 0 0 221 221 221 222 222 222 0 0 0;#P number 113 123 35 9 50 0 37 3 0 0 0 221 221 221 222 222 222 0 0 0;#P comment 152 117 34 196617 entry delay;#N comlet ED;#P inlet 113 35 15 0;#P comment 237 123 76 196617 duration factor;#P connect 13 0 12 0;#P connect 12 0 9 0;#P connect 9 0 10 0;#P connect 10 0 11 0;#P connect 1 0 3 0;#P connect 3 0 9 1;#P fasten 12 0 7 0 31 85 205 85;#P connect 7 0 4 0;#P connect 4 0 9 2;#P connect 4 0 6 0;#P connect 6 0 5 0;#P pop;#P newobj 176 152 52 196617 p duration;#N vpatcher 248 108 614 445;#N comlet bangs (rhythm);#P inlet 24 28 15 0;#P button 24 115 15 0;#P window setfont "Sans Serif" 9.;#P newex 24 224 150 196617 scale 1 12 1 127;#P outlet 24 277 15 0;#P number 24 251 35 9 0 0 164 3 0 0 0 221 221 221 222 222 222 0 0 0;#P number 24 199 29 9 1 0 37 3 0 0 0 221 221 221 222 222 222 0 0 0;#P comment 62 252 45 196617 velocity;#P newex 160 87 80 196617 r Mel-dyn.steps;#P number 160 115 27 9 2 0 37 3 0 0 0 221 221 221 222 222 222 0 0 0;#P comment 56 201 34 196617 index;#P newex 24 173 215 196617 brownian 1 13 0.2;#P comment 86 109 73 196617 number of dynamic steps;#P newex 228 121 65 196617 r Mel-dyn.bf;#P comment 267 144 36 196617 brown factor;#P flonum 228 148 35 9 0. 1. 39 3 0 0 0 221 221 221 222 222 222 0 0 0;#P newex 160 148 27 196617 + 1;#P connect 15 0 14 0;#P connect 14 0 5 0;#P connect 5 0 10 0;#P connect 10 0 13 0;#P connect 13 0 11 0;#P connect 11 0 12 0;#P fasten 7 0 13 2 165 138 99 138;#P connect 8 0 7 0;#P connect 7 0 0 0;#P connect 0 0 5 2;#P connect 3 0 1 0;#P connect 1 0 5 3;#P pop;#P newobj 100 152 53 196617 p dynamic;#P number 218 126 42 9 0 0 164 3 0 0 0 221 221 221 222 222 222 0 0 0;#P comment 264 127 19 196617 ED;#P user uslider 100 179 17 81 128 1 0 0;#P newex 24 292 239 196617 QT-SndPlayer 1 500;#P user uslider 218 179 17 81 128 1 0 0;#P noclick;#P comment 121 260 20 196617 ppp;#P comment 121 247 20 196617 pp;#P comment 121 234 20 196617 p;#P comment 121 208 20 196617 f;#P comment 121 195 20 196617 ff;#P comment 121 182 20 196617 fff;#P comment 121 221 20 196617 mf;#P comment 240 203 32 196617 Pedal;#P comment 240 235 35 196617 legato;#P comment 240 248 41 196617 portato;#P comment 240 261 45 196617 staccato;#P comment 161 56 115 196617 auto-change parameters;#P toggle 138 53 19 0;#P comment 47 56 55 196617 start/stop;#P toggle 24 53 19 0;#N vpatcher 80 150 593 443;#P window setfont "Sans Serif" 9.;#P newex 50 183 348 196617 repchord-rhythm 100 4000 12 6 0.8 0.2;#P number 106 156 35 9 50 0 37 3 0 0 0 221 221 221 222 222 222 0 0 0;#P number 162 156 35 9 50 0 37 3 0 0 0 221 221 221 222 222 222 0 0 0;#P number 274 156 35 9 1 0 37 3 0 0 0 221 221 221 222 222 222 0 0 0;#P number 218 156 35 9 1 0 37 3 0 0 0 221 221 221 222 222 222 0 0 0;#N comlet chord bangs (to harmony);#P outlet 50 241 15 0;#N comlet rhythm bangs (to dynamic & duration);#P outlet 274 241 15 0;#N comlet ED;#P outlet 386 241 15 0;#P flonum 330 156 35 9 0. 1. 39 3 0 0 0 221 221 221 222 222 222 0 0 0;#P flonum 386 156 35 9 0. 1. 39 3 0 0 0 221 221 221 222 222 222 0 0 0;#P number 162 212 22 9 0 0 164 3 0 0 0 221 221 221 222 222 222 0 0 0;#P comment 187 212 54 196617 chord size;#P number 386 212 38 9 0 0 164 3 0 0 0 221 221 221 222 222 222 0 0 0;#P toggle 50 156 15 0;#N comlet toggle;#P inlet 50 26 15 0;#P newex 330 110 85 196617 r Mel-per.min.ED;#P newex 218 68 75 196617 r Mel-ED.steps;#P newex 106 26 67 196617 r Mel-min.ED;#P newex 386 131 88 196617 r Mel-per.max.ED;#P newex 274 89 102 196617 r Mel-max.chordsize;#P newex 162 47 70 196617 r Mel-max.ED;#P comment 427 209 36 196617 entry delay;#P connect 7 0 8 0;#P connect 8 0 21 0;#P connect 21 0 16 0;#P connect 4 0 20 0;#P connect 20 0 21 1;#P connect 1 0 19 0;#P connect 19 0 21 2;#P connect 21 1 11 0;#P connect 5 0 17 0;#P connect 17 0 21 3;#P connect 2 0 18 0;#P connect 18 0 21 4;#P connect 21 2 15 0;#P connect 6 0 13 0;#P connect 13 0 21 5;#P connect 3 0 12 0;#P connect 12 0 21 6;#P connect 21 3 9 0;#P connect 9 0 14 0;#P pop;#P newobj 24 94 205 196617 p rhythm;#P hidden inlet 6 94 15 0;#P hidden newex 138 75 55 196617 s Mel-auto;#P hidden connect 1 0 2 0;#P connect 3 0 2 0;#P connect 2 0 25 0;#P connect 25 0 19 0;#P fasten 2 0 23 0 29 126 105 126;#P connect 23 0 20 0;#P connect 20 0 19 1;#P hidden connect 5 0 0 0;#P fasten 2 1 24 0 126 127 181 127;#P connect 24 0 19 2;#P connect 2 2 22 0;#P connect 22 0 24 1;#P connect 24 1 18 0;#P pop 1;#P newobj 19 139 35 196617 p main;#P toggle 19 104 28 0;#P user uslider 427 335 15 44 101 1 0 0;#N vpatcher 168 82 475 283;#P window setfont "Sans Serif" 9.;#P newex 188 41 55 196617 r Mel-auto;#P newex 188 71 79 196617 serial-rhythm 5000 30000 12;#P newex 34 121 69 196617 between 0 15;#P newex 115 121 75 196617 between 0 101;#P outlet 34 150 15 0;#P outlet 115 150 15 0;#P inlet 34 41 15 0;#P inlet 115 41 15 0;#P connect 6 0 5 0;#P connect 1 0 5 0;#P connect 5 0 3 0;#P connect 6 0 4 0;#P connect 0 0 4 0;#P connect 4 0 2 0;#P connect 7 0 6 0;#P pop;#P newobj 385 304 52 196617 p dynamic;#P user uslider 385 335 15 44 15 1 2 0;#P button 427 279 15 0;#P button 385 279 15 0;#P button 385 238 19 0;#P button 474 238 19 0;#P button 474 279 15 0;#P button 515 279 15 0;#P user uslider 515 335 15 44 101 1 0 0;#N vpatcher 79 170 360 372;#P window setfont "Sans Serif" 9.;#P newex 154 69 79 196617 serial-rhythm 5000 30000 12;#P newex 154 40 55 196617 r Mel-auto;#P inlet 25 40 15 0;#P inlet 115 40 15 0;#P newex 25 118 69 196617 between 0 11;#P outlet 25 150 15 0;#P newex 115 118 75 196617 between 0 101;#P outlet 115 150 15 0;#P connect 7 0 3 0;#P connect 5 0 3 0;#P connect 3 0 2 0;#P connect 7 0 1 0;#P connect 4 0 1 0;#P connect 1 0 0 0;#P connect 6 0 7 0;#P pop;#P newobj 474 304 51 196617 p duration;#P user uslider 474 335 15 44 11 1 2 0;#P hidden newex 19 169 45 196617 loadbang;#P comment 53 112 56 196617 start/stop;#P user uslider 274 335 15 44 101 1 0 0;#P user uslider 223 335 15 44 101 1 0 0;#P user uslider 172 335 15 44 7 1 1 0;#P user uslider 121 335 15 44 11 1 2 0;#P user uslider 70 335 15 44 13 1 0 0;#P user uslider 19 335 15 44 13 1 0 0;#N vpatcher 196 113 604 399;#P outlet 214 242 15 0;#P outlet 281 188 15 0;#P outlet 246 163 15 0;#P window setfont "Sans Serif" 9.;#P newex 281 163 72 196617 between 0 50;#P newex 246 133 81 196617 between 50 90;#P newex 214 216 63 196617 between 0 7;#P outlet 179 216 15 0;#P newex 179 188 69 196617 between 0 11;#P outlet 147 188 15 0;#P newex 147 163 69 196617 between 0 13;#P outlet 112 163 15 0;#P newex 112 133 69 196617 between 0 13;#P inlet 246 103 15 0;#P inlet 281 103 15 0;#P inlet 214 103 15 0;#P inlet 179 103 15 0;#P inlet 147 103 15 0;#P inlet 112 103 15 0;#P newex 18 44 55 196617 r Mel-auto;#P newex 18 70 79 196617 serial-rhythm 5000 30000 12;#P connect 1 0 0 0;#P connect 0 0 8 0;#P connect 2 0 8 0;#P connect 8 0 9 0;#P connect 0 0 10 0;#P connect 3 0 10 0;#P connect 10 0 11 0;#P connect 0 0 12 0;#P connect 4 0 12 0;#P connect 12 0 13 0;#P connect 0 0 14 0;#P connect 5 0 14 0;#P connect 14 0 19 0;#P connect 0 0 15 0;#P connect 7 0 15 0;#P connect 15 0 17 0;#P connect 0 0 16 0;#P connect 6 0 16 0;#P connect 16 0 18 0;#P pop;#P newobj 19 304 267 196617 p rhythm;#P button 70 279 15 0;#P button 121 279 15 0;#P button 172 279 15 0;#P button 223 279 15 0;#P button 274 279 15 0;#P comment 51 198 107 196617 change all parameters;#P button 19 191 26 0;#P button 19 279 15 0;#P button 19 238 19 0;#N vpatcher 122 156 344 338;#P window setfont "Sans Serif" 9.;#P newex 40 105 77 196617 between 0 100;#P outlet 40 132 15 0;#P inlet 40 35 15 0;#P newex 83 35 55 196617 r Mel-auto;#P newex 83 62 79 196617 serial-rhythm 5000 30000 12;#P connect 0 0 4 0;#P connect 2 0 4 0;#P connect 4 0 3 0;#P connect 1 0 0 0;#P pop;#P newobj 322 304 50 196617 p register;#P user uslider 322 335 15 44 101 1 0 0;#P button 322 238 19 0;#N vpatcher 50 40 291 195;#P window setfont "Sans Serif" 9.;#P newex 33 42 46 196617 loadbang;#P message 33 72 174 196617 MeloChord © 1993 by Karlheinz Essl;#P newex 33 101 63 196617 print Loaded;#P connect 2 0 1 0;#P connect 1 0 0 0;#P pop;#P hidden newobj 28 511 59 196617 p copyright;#P hidden newex 12 565 88 196617 s Mel-per.max.ED;#P hidden newex 11 544 85 196617 s Mel-per.min.ED;#P hidden newex 12 521 70 196617 s Mel-max.ED;#P hidden newex 11 500 67 196617 s Mel-min.ED;#P hidden newex 110 544 75 196617 s Mel-ED.steps;#P hidden newex 112 565 102 196617 s Mel-max.chordsize;#P hidden newex 442 538 79 196617 s Mel-dur.steps;#P hidden newex 439 511 70 196617 s Mel-dur.per;#P hidden newex 346 511 65 196617 s Mel-dyn.bf;#P hidden newex 346 538 80 196617 s Mel-dyn.steps;#P hidden newex 223 565 76 196617 s Mel-harm.sel;#P hidden newex 222 545 26 196617 + 1;#P hidden newex 202 526 55 196617 s Mel-intv;#P hidden newex 269 542 70 196617 s Mel-reg.per;#P hidden newex 204 90 55 196617 s Mel-auto;#P toggle 150 104 28 0;#N vpatcher 50 40 222 204;#P window setfont "Sans Serif" 9.;#P newex 30 91 55 196617 s Nullpunkt;#P newex 30 63 30 196617 sel 8;#P inlet 30 37 15 0;#P connect 0 0 1 0;#P connect 1 0 2 0;#P pop;#P hidden newobj 191 169 39 196617 p harm;#N vpreset 8;#X append 1 2 9 104 150 toggle int 0 \; 27 335 322 uslider int 42 \; 39 335 19 uslider int 0 \; 40 335 70 uslider int 4 \; 41 335 121 uslider int 10 \; 42 335 172 uslider int;#X append 1 2 3 \; 43 335 223 uslider int 91 \; 44 335 274 uslider int 0 \; 1 440 568 umenu int 1 \; 47 335 474 uslider int 10 \; 49 335 515 uslider int 24 \; 56 335 385;#X append 1 2 uslider int 14 \; 58 335 427 uslider int 27 \; 59 104 19 toggle int 1 \; 69 416 427 flonum float 0.27 \; 71 416 385 number int 16 \; 73 416 515 flonum float 0.24 \; 75 416 474;#X append 1 2 number int 12 \; 77 416 274 flonum float 0. \; 78 416 223 flonum float 0.91 \; 80 416 172 number int 4 \; 83 416 121 number int 12 \; 85 416 70 number int 1000 \; 86 416 19;#X append 1 2 number int 75 \; 88 416 322 flonum float 0.42 \;;#X append 2 2 9 104 150 toggle int 0 \; 27 335 322 uslider int 79 \; 39 335 19 uslider int 0 \; 40 335 70 uslider int 8 \; 41 335 121 uslider int 5 \; 42 335 172 uslider int;#X append 2 2 5 \; 43 335 223 uslider int 0 \; 44 335 274 uslider int 63 \; 1 440 568 umenu int 1 \; 47 335 474 uslider int 0 \; 49 335 515 uslider int 82 \; 56 335 385;#X append 2 2 uslider int 14 \; 58 335 427 uslider int 70 \; 59 104 19 toggle int 1 \; 69 416 427 flonum float 0.7 \; 71 416 385 number int 16 \; 73 416 515 flonum float 0.82 \; 75 416 474;#X append 2 2 number int 2 \; 77 416 274 flonum float 0.63 \; 78 416 223 flonum float 0. \; 80 416 172 number int 6 \; 83 416 121 number int 7 \; 85 416 70 number int 2000 \; 86 416 19;#X append 2 2 number int 75 \; 88 416 322 flonum float 0.79 \;;#X append 3 2 9 104 150 toggle int 0 \; 27 335 322 uslider int 20 \; 39 335 19 uslider int 9 \; 40 335 70 uslider int 1 \; 41 335 121 uslider int 10 \; 42 335 172 uslider int;#X append 3 2 2 \; 43 335 223 uslider int 0 \; 44 335 274 uslider int 0 \; 1 440 568 umenu int 2 \; 47 335 474 uslider int 0 \; 49 335 515 uslider int 16 \; 56 335 385;#X append 3 2 uslider int 11 \; 58 335 427 uslider int 20 \; 59 104 19 toggle int 1 \; 69 416 427 flonum float 0.2 \; 71 416 385 number int 13 \; 73 416 515 flonum float 0.16 \; 75 416 474;#X append 3 2 number int 2 \; 77 416 274 flonum float 0. \; 78 416 223 flonum float 0. \; 80 416 172 number int 3 \; 83 416 121 number int 12 \; 85 416 70 number int 595 \; 86 416 19;#X append 3 2 number int 311 \; 88 416 322 flonum float 0.2 \;;#X append 4 2 9 104 150 toggle int 0 \; 27 335 322 uslider int 31 \; 39 335 19 uslider int 0 \; 40 335 70 uslider int 12 \; 41 335 121 uslider int 0 \; 42 335 172 uslider int;#X append 4 2 6 \; 43 335 223 uslider int 90 \; 44 335 274 uslider int 0 \; 1 440 568 umenu int 1 \; 47 335 474 uslider int 4 \; 49 335 515 uslider int 55 \; 56 335 385;#X append 4 2 uslider int 14 \; 58 335 427 uslider int 12 \; 59 104 19 toggle int 1 \; 69 416 427 flonum float 0.12 \; 71 416 385 number int 16 \; 73 416 515 flonum float 0.37 \; 75 416 474;#X append 4 2 number int 6 \; 77 416 274 flonum float 0. \; 78 416 223 flonum float 0.9 \; 80 416 172 number int 7 \; 83 416 121 number int 2 \; 85 416 70 number int 4000 \; 86 416 19;#X append 4 2 number int 75 \; 88 416 322 flonum float 0.31 \;;#X append 8 2 9 104 150 toggle int 0 \; 27 335 322 uslider int 100 \; 39 335 19 uslider int 12 \; 40 335 70 uslider int 0 \; 41 335 121 uslider int 10 \; 42 335 172 uslider int;#X append 8 2 0 \; 43 335 223 uslider int 67 \; 44 335 274 uslider int 33 \; 1 440 568 umenu int 2 \; 47 335 474 uslider int 10 \; 49 335 515 uslider int 100 \; 56 335 385;#X append 8 2 uslider int 14 \; 58 335 427 uslider int 0 \; 59 104 19 toggle int 1 \; 69 416 427 flonum float 0. \; 71 416 385 number int 16 \; 73 416 515 flonum float 1. \; 75 416 474;#X append 8 2 number int 12 \; 77 416 274 flonum float 0.33 \; 78 416 223 flonum float 0.67 \; 80 416 172 number int 1 \; 83 416 121 number int 12 \; 85 416 70 number int 500 \; 86 416 19;#X append 8 2 number int 500 \; 88 416 322 flonum float 1. \;;#P preset 150 139 90 18;#P button 614 279 15 0;#P button 568 238 19 0;#P button 568 279 15 0;#N vpatcher 685 412 898 578;#P window setfont "Sans Serif" 9.;#P comment 117 64 31 196617 clear;#P comment 8 64 28 196617 send;#P number 57 32 35 9 -11 11 67 3 0 0 0 221 221 221 222 222 222 0 0 0;#P newex 57 121 55 196617 s Mel-intv;#P message 57 92 124 196617;#P button 98 63 15 0;#P button 40 63 15 0;#P newex 57 63 38 196617 collect;#P connect 5 0 0 0;#P connect 0 0 3 0;#P connect 1 0 3 0;#P connect 3 0 4 0;#P hidden connect 2 0 0 1;#P pop;#P newobj 568 331 69 196617 p choose-intv;#N vpatcher 50 40 450 371;#P window setfont "Sans Serif" 9.;#P newex 34 213 55 196617 r Mel-intv;#P newex 34 239 60 196617 prepend set;#N comlet interval list;#P outlet 34 267 15 0;#P newex 34 156 98 196617 choose-intervals 3;#P newex 34 181 55 196617 s Mel-intv;#N comlet change bang;#P inlet 34 44 15 0;#P newex 203 156 63 196617 between 0 3;#P inlet 203 44 15 0;#N comlet to umenu!;#P outlet 203 267 15 0;#P newex 279 44 55 196617 r Mel-auto;#P button 34 109 15 0;#P newex 122 132 63 196617 between 2 4;#P newex 279 70 79 196617 serial-rhythm 5000 30000 12;#P newex 68 44 55 196617 r Nullpunkt;#P newex 68 85 55 196617 s Mel-intv;#P message 182 267 14 196617 2;#P message 68 65 23 196617 2 1;#P connect 4 0 6 0;#P connect 11 0 6 0;#P connect 6 0 13 0;#P connect 13 0 12 0;#P connect 16 0 15 0;#P connect 15 0 14 0;#P connect 3 0 0 0;#P connect 0 0 2 0;#P connect 6 0 5 0;#P connect 5 0 13 1;#P connect 3 0 1 0;#P connect 4 0 10 0;#P connect 9 0 10 0;#P connect 10 0 8 0;#P connect 1 0 8 0;#P connect 7 0 4 0;#P pop;#P newobj 568 304 56 196617 p harmony;#P user umenu 568 440 60 196645 1 64 456 0;#X add alea;#X add series;#X add sequence;#P message 568 416 59 196617 -6 -2;#P hidden connect 86 0 21 0;#P hidden connect 78 0 23 0;#P hidden connect 85 0 22 0;#P hidden connect 77 0 24 0;#P connect 59 0 60 0;#P hidden connect 46 0 31 0;#P connect 31 0 29 0;#P connect 29 0 30 0;#P connect 30 0 38 0;#P connect 38 0 39 0;#P hidden connect 39 0 62 0;#P hidden connect 62 0 86 0;#P fasten 29 0 37 0 24 269 75 269;#P connect 37 0 38 1;#P connect 38 1 40 0;#P hidden connect 40 0 63 0;#P hidden connect 63 0 85 0;#P hidden connect 83 0 20 0;#P hidden connect 80 0 19 0;#P fasten 29 0 36 0 24 269 126 269;#P connect 36 0 38 2;#P connect 38 2 41 0;#P hidden connect 41 0 83 0;#P fasten 29 0 35 0 24 269 177 269;#P connect 35 0 38 3;#P connect 38 3 42 0;#P hidden connect 42 0 80 0;#P hidden connect 7 1 8 0;#P hidden connect 9 0 10 0;#P hidden connect 1 0 13 0;#P fasten 29 0 34 0 24 269 228 269;#P connect 34 0 38 4;#P connect 38 4 43 0;#P hidden connect 43 0 64 0;#P hidden connect 64 0 78 0;#P connect 13 0 14 0;#P hidden connect 88 0 11 0;#P fasten 29 0 33 0 24 269 279 269;#P connect 33 0 38 5;#P connect 38 5 44 0;#P hidden connect 44 0 65 0;#P hidden connect 65 0 77 0;#P fasten 31 0 26 0 24 228 327 228;#P connect 26 0 28 0;#P connect 28 0 27 0;#P hidden connect 27 0 61 0;#P hidden connect 61 0 88 0;#P hidden connect 69 0 16 0;#P hidden connect 71 0 15 0;#P fasten 31 0 53 0 24 228 390 228;#P connect 53 0 54 0;#P connect 54 0 57 0;#P connect 57 0 56 0;#P hidden connect 56 0 71 0;#P fasten 53 0 55 0 390 269 432 269;#P connect 55 0 57 1;#P connect 57 1 58 0;#P hidden connect 58 0 67 0;#P hidden connect 67 0 69 0;#P hidden connect 73 0 17 0;#P hidden connect 75 0 18 0;#P fasten 31 0 52 0 24 228 479 228;#P connect 52 0 51 0;#P connect 51 0 48 0;#P connect 48 0 47 0;#P hidden connect 47 0 75 0;#P fasten 52 0 50 0 479 269 520 269;#P connect 50 0 48 1;#P connect 48 1 49 0;#P hidden connect 49 0 66 0;#P hidden connect 66 0 73 0;#P hidden connect 7 1 5 0;#P fasten 31 0 5 0 24 228 573 228;#P connect 5 0 4 0;#P connect 4 0 2 0;#P hidden connect 2 0 0 0;#P hidden connect 2 1 1 0;#P fasten 5 0 6 0 573 267 619 267;#P connect 6 0 2 1;#P pop;