{
	"patcher" : 	{
		"fileversion" : 1,
		"rect" : [ 0.0, 44.0, 1178.0, 761.0 ],
		"bglocked" : 0,
		"defrect" : [ 0.0, 44.0, 1178.0, 761.0 ],
		"openrect" : [ 0.0, 0.0, 0.0, 0.0 ],
		"openinpresentation" : 0,
		"default_fontsize" : 12.0,
		"default_fontface" : 0,
		"default_fontname" : "Arial",
		"gridonopen" : 0,
		"gridsize" : [ 15.0, 15.0 ],
		"gridsnaponopen" : 0,
		"toolbarvisible" : 1,
		"boxanimatetime" : 200,
		"imprint" : 0,
		"boxes" : [ 			{
				"box" : 				{
					"maxclass" : "newobj",
					"text" : "p",
					"numoutlets" : 1,
					"fontsize" : 9.0,
					"outlettype" : [ "" ],
					"patching_rect" : [ 776.0, 365.0, 60.0, 17.0 ],
					"id" : "obj-1",
					"fontname" : "Arial",
					"numinlets" : 1,
					"patcher" : 					{
						"fileversion" : 1,
						"rect" : [ 10.0, 59.0, 600.0, 426.0 ],
						"bglocked" : 0,
						"defrect" : [ 10.0, 59.0, 600.0, 426.0 ],
						"openrect" : [ 0.0, 0.0, 0.0, 0.0 ],
						"openinpresentation" : 0,
						"default_fontsize" : 12.0,
						"default_fontface" : 0,
						"default_fontname" : "Arial",
						"gridonopen" : 0,
						"gridsize" : [ 15.0, 15.0 ],
						"gridsnaponopen" : 0,
						"toolbarvisible" : 1,
						"boxanimatetime" : 200,
						"imprint" : 0,
						"boxes" : [ 							{
								"box" : 								{
									"maxclass" : "newobj",
									"text" : "prepend add 0",
									"numoutlets" : 1,
									"fontsize" : 9.0,
									"outlettype" : [ "" ],
									"patching_rect" : [ 149.0, 356.0, 72.0, 17.0 ],
									"id" : "obj-1",
									"fontname" : "Arial",
									"numinlets" : 1
								}

							}
, 							{
								"box" : 								{
									"maxclass" : "newobj",
									"text" : "t f f i",
									"numoutlets" : 3,
									"fontsize" : 9.0,
									"outlettype" : [ "float", "float", "int" ],
									"patching_rect" : [ 81.0, 207.0, 40.0, 17.0 ],
									"id" : "obj-2",
									"fontname" : "Arial",
									"numinlets" : 1
								}

							}
, 							{
								"box" : 								{
									"maxclass" : "newobj",
									"text" : "pack 1. 1",
									"numoutlets" : 1,
									"fontsize" : 9.0,
									"outlettype" : [ "" ],
									"patching_rect" : [ 149.0, 330.0, 51.0, 17.0 ],
									"id" : "obj-3",
									"fontname" : "Arial",
									"numinlets" : 2
								}

							}
, 							{
								"box" : 								{
									"maxclass" : "newobj",
									"text" : "/ 1.",
									"numoutlets" : 1,
									"fontsize" : 9.0,
									"outlettype" : [ "float" ],
									"patching_rect" : [ 149.0, 272.0, 27.0, 17.0 ],
									"id" : "obj-4",
									"fontname" : "Arial",
									"numinlets" : 2
								}

							}
, 							{
								"box" : 								{
									"maxclass" : "newobj",
									"text" : "t i i erase",
									"numoutlets" : 3,
									"fontsize" : 9.0,
									"outlettype" : [ "int", "int", "erase" ],
									"patching_rect" : [ 50.0, 50.0, 54.0, 17.0 ],
									"id" : "obj-5",
									"fontname" : "Arial",
									"numinlets" : 1
								}

							}
, 							{
								"box" : 								{
									"maxclass" : "newobj",
									"text" : "t 0.00001",
									"numoutlets" : 1,
									"fontsize" : 9.0,
									"outlettype" : [ "float" ],
									"patching_rect" : [ 81.0, 180.0, 56.0, 17.0 ],
									"id" : "obj-6",
									"fontname" : "Arial",
									"numinlets" : 1
								}

							}
, 							{
								"box" : 								{
									"maxclass" : "newobj",
									"text" : "- 1",
									"numoutlets" : 1,
									"fontsize" : 9.0,
									"outlettype" : [ "int" ],
									"patching_rect" : [ 81.0, 126.0, 27.0, 17.0 ],
									"id" : "obj-7",
									"fontname" : "Arial",
									"numinlets" : 2
								}

							}
, 							{
								"box" : 								{
									"maxclass" : "newobj",
									"text" : "sel 0",
									"numoutlets" : 2,
									"fontsize" : 9.0,
									"outlettype" : [ "bang", "" ],
									"patching_rect" : [ 81.0, 153.0, 32.0, 17.0 ],
									"id" : "obj-8",
									"fontname" : "Arial",
									"numinlets" : 2
								}

							}
, 							{
								"box" : 								{
									"maxclass" : "newobj",
									"text" : "uzi",
									"numoutlets" : 3,
									"fontsize" : 9.0,
									"outlettype" : [ "bang", "bang", "int" ],
									"patching_rect" : [ 51.0, 99.0, 40.0, 17.0 ],
									"id" : "obj-9",
									"fontname" : "Arial",
									"numinlets" : 2
								}

							}
, 							{
								"box" : 								{
									"maxclass" : "inlet",
									"numoutlets" : 1,
									"outlettype" : [ "" ],
									"patching_rect" : [ 50.0, 30.0, 15.0, 15.0 ],
									"id" : "obj-10",
									"numinlets" : 0,
									"comment" : ""
								}

							}
, 							{
								"box" : 								{
									"maxclass" : "outlet",
									"numoutlets" : 0,
									"patching_rect" : [ 149.0, 378.0, 15.0, 15.0 ],
									"id" : "obj-11",
									"numinlets" : 1,
									"comment" : ""
								}

							}
 ],
						"lines" : [ 							{
								"patchline" : 								{
									"source" : [ "obj-2", 2 ],
									"destination" : [ "obj-3", 1 ],
									"hidden" : 0,
									"midpoints" : [ 111.5, 246.0, 190.5, 246.0 ]
								}

							}
, 							{
								"patchline" : 								{
									"source" : [ "obj-5", 1 ],
									"destination" : [ "obj-4", 1 ],
									"hidden" : 0,
									"midpoints" : [ 171.0, 131.0 ]
								}

							}
, 							{
								"patchline" : 								{
									"source" : [ "obj-1", 0 ],
									"destination" : [ "obj-11", 0 ],
									"hidden" : 0,
									"midpoints" : [  ]
								}

							}
, 							{
								"patchline" : 								{
									"source" : [ "obj-5", 2 ],
									"destination" : [ "obj-11", 0 ],
									"hidden" : 0,
									"midpoints" : [ 249.0, 122.0, 249.0, 353.0 ]
								}

							}
, 							{
								"patchline" : 								{
									"source" : [ "obj-3", 0 ],
									"destination" : [ "obj-1", 0 ],
									"hidden" : 0,
									"midpoints" : [  ]
								}

							}
, 							{
								"patchline" : 								{
									"source" : [ "obj-4", 0 ],
									"destination" : [ "obj-3", 0 ],
									"hidden" : 0,
									"midpoints" : [  ]
								}

							}
, 							{
								"patchline" : 								{
									"source" : [ "obj-2", 1 ],
									"destination" : [ "obj-4", 0 ],
									"hidden" : 0,
									"midpoints" : [  ]
								}

							}
, 							{
								"patchline" : 								{
									"source" : [ "obj-8", 1 ],
									"destination" : [ "obj-2", 0 ],
									"hidden" : 0,
									"midpoints" : [  ]
								}

							}
, 							{
								"patchline" : 								{
									"source" : [ "obj-6", 0 ],
									"destination" : [ "obj-2", 0 ],
									"hidden" : 0,
									"midpoints" : [  ]
								}

							}
, 							{
								"patchline" : 								{
									"source" : [ "obj-8", 0 ],
									"destination" : [ "obj-6", 0 ],
									"hidden" : 0,
									"midpoints" : [  ]
								}

							}
, 							{
								"patchline" : 								{
									"source" : [ "obj-7", 0 ],
									"destination" : [ "obj-8", 0 ],
									"hidden" : 0,
									"midpoints" : [  ]
								}

							}
, 							{
								"patchline" : 								{
									"source" : [ "obj-9", 2 ],
									"destination" : [ "obj-7", 0 ],
									"hidden" : 0,
									"midpoints" : [  ]
								}

							}
, 							{
								"patchline" : 								{
									"source" : [ "obj-5", 0 ],
									"destination" : [ "obj-9", 0 ],
									"hidden" : 0,
									"midpoints" : [  ]
								}

							}
, 							{
								"patchline" : 								{
									"source" : [ "obj-10", 0 ],
									"destination" : [ "obj-5", 0 ],
									"hidden" : 0,
									"midpoints" : [  ]
								}

							}
 ]
					}
,
					"saved_object_attributes" : 					{
						"globalpatchername" : "",
						"fontface" : 0,
						"fontsize" : 12.0,
						"default_fontface" : 0,
						"default_fontname" : "Arial",
						"fontname" : "Arial",
						"default_fontsize" : 12.0
					}

				}

			}
, 			{
				"box" : 				{
					"maxclass" : "message",
					"text" : "clear",
					"numoutlets" : 1,
					"fontsize" : 9.0,
					"outlettype" : [ "" ],
					"patching_rect" : [ 291.0, 501.0, 33.0, 15.0 ],
					"id" : "obj-2",
					"fontname" : "Arial",
					"numinlets" : 2
				}

			}
, 			{
				"box" : 				{
					"maxclass" : "message",
					"text" : "add 0 0.1 0.1",
					"numoutlets" : 1,
					"fontsize" : 9.0,
					"outlettype" : [ "" ],
					"patching_rect" : [ 217.0, 475.0, 77.0, 15.0 ],
					"id" : "obj-3",
					"fontname" : "Arial",
					"numinlets" : 2
				}

			}
, 			{
				"box" : 				{
					"maxclass" : "message",
					"text" : "add 0 0.1 hola",
					"numoutlets" : 1,
					"fontsize" : 9.0,
					"outlettype" : [ "" ],
					"patching_rect" : [ 193.0, 511.0, 67.0, 15.0 ],
					"id" : "obj-4",
					"fontname" : "Arial",
					"numinlets" : 2
				}

			}
, 			{
				"box" : 				{
					"maxclass" : "message",
					"text" : "dump",
					"numoutlets" : 1,
					"fontsize" : 9.0,
					"outlettype" : [ "" ],
					"patching_rect" : [ 280.0, 530.0, 33.0, 15.0 ],
					"id" : "obj-5",
					"fontname" : "Arial",
					"numinlets" : 2
				}

			}
, 			{
				"box" : 				{
					"maxclass" : "newobj",
					"text" : "t i erase",
					"numoutlets" : 2,
					"fontsize" : 9.0,
					"outlettype" : [ "int", "erase" ],
					"patching_rect" : [ 867.0, 153.0, 48.0, 17.0 ],
					"id" : "obj-6",
					"fontname" : "Arial",
					"numinlets" : 1
				}

			}
, 			{
				"box" : 				{
					"maxclass" : "newobj",
					"text" : "route done",
					"numoutlets" : 2,
					"fontsize" : 9.0,
					"outlettype" : [ "", "" ],
					"patching_rect" : [ 940.0, 83.0, 57.0, 17.0 ],
					"id" : "obj-7",
					"fontname" : "Arial",
					"numinlets" : 1
				}

			}
, 			{
				"box" : 				{
					"maxclass" : "newobj",
					"text" : "loadbang",
					"numoutlets" : 1,
					"fontsize" : 9.0,
					"outlettype" : [ "bang" ],
					"patching_rect" : [ 886.0, 30.0, 48.0, 17.0 ],
					"id" : "obj-8",
					"fontname" : "Arial",
					"numinlets" : 1
				}

			}
, 			{
				"box" : 				{
					"maxclass" : "newobj",
					"text" : "patcherargs",
					"numoutlets" : 2,
					"fontsize" : 9.0,
					"outlettype" : [ "", "" ],
					"patching_rect" : [ 886.0, 52.0, 64.0, 17.0 ],
					"id" : "obj-9",
					"fontname" : "Arial",
					"numinlets" : 1
				}

			}
, 			{
				"box" : 				{
					"maxclass" : "message",
					"text" : "64 64",
					"numoutlets" : 1,
					"fontsize" : 9.0,
					"outlettype" : [ "" ],
					"patching_rect" : [ 702.0, 292.0, 35.0, 15.0 ],
					"id" : "obj-10",
					"fontname" : "Arial",
					"numinlets" : 2
				}

			}
, 			{
				"box" : 				{
					"maxclass" : "button",
					"numoutlets" : 1,
					"outlettype" : [ "bang" ],
					"patching_rect" : [ 622.0, 219.0, 15.0, 15.0 ],
					"id" : "obj-11",
					"numinlets" : 1
				}

			}
, 			{
				"box" : 				{
					"maxclass" : "newobj",
					"text" : "p make-probs",
					"numoutlets" : 1,
					"fontsize" : 9.0,
					"outlettype" : [ "" ],
					"patching_rect" : [ 718.0, 148.0, 70.0, 17.0 ],
					"id" : "obj-12",
					"fontname" : "Arial",
					"numinlets" : 2,
					"patcher" : 					{
						"fileversion" : 1,
						"rect" : [ 75.0, 70.0, 869.0, 699.0 ],
						"bglocked" : 0,
						"defrect" : [ 75.0, 70.0, 869.0, 699.0 ],
						"openrect" : [ 0.0, 0.0, 0.0, 0.0 ],
						"openinpresentation" : 0,
						"default_fontsize" : 12.0,
						"default_fontface" : 0,
						"default_fontname" : "Arial",
						"gridonopen" : 0,
						"gridsize" : [ 15.0, 15.0 ],
						"gridsnaponopen" : 0,
						"toolbarvisible" : 1,
						"boxanimatetime" : 200,
						"imprint" : 0,
						"boxes" : [ 							{
								"box" : 								{
									"maxclass" : "newobj",
									"text" : "Lround",
									"numoutlets" : 1,
									"fontsize" : 9.0,
									"outlettype" : [ "" ],
									"patching_rect" : [ 1059.0, 647.0, 39.0, 17.0 ],
									"id" : "obj-1",
									"fontname" : "Arial",
									"numinlets" : 1
								}

							}
, 							{
								"box" : 								{
									"maxclass" : "newobj",
									"text" : "Lround",
									"numoutlets" : 1,
									"fontsize" : 9.0,
									"outlettype" : [ "" ],
									"patching_rect" : [ 207.0, 497.0, 39.0, 17.0 ],
									"id" : "obj-2",
									"fontname" : "Arial",
									"numinlets" : 1
								}

							}
, 							{
								"box" : 								{
									"maxclass" : "inlet",
									"numoutlets" : 1,
									"outlettype" : [ "" ],
									"patching_rect" : [ 529.0, 47.0, 15.0, 15.0 ],
									"id" : "obj-3",
									"numinlets" : 0,
									"comment" : ""
								}

							}
, 							{
								"box" : 								{
									"maxclass" : "newobj",
									"text" : "list-interpolate",
									"numoutlets" : 2,
									"fontsize" : 9.0,
									"outlettype" : [ "list", "bang" ],
									"patching_rect" : [ 96.0, 462.0, 78.0, 17.0 ],
									"id" : "obj-4",
									"fontname" : "Arial",
									"numinlets" : 1
								}

							}
, 							{
								"box" : 								{
									"maxclass" : "newobj",
									"text" : "zl group 256",
									"numoutlets" : 2,
									"fontsize" : 9.0,
									"outlettype" : [ "", "" ],
									"patching_rect" : [ 96.0, 403.0, 65.0, 17.0 ],
									"id" : "obj-5",
									"fontname" : "Arial",
									"numinlets" : 2
								}

							}
, 							{
								"box" : 								{
									"maxclass" : "newobj",
									"text" : "f 127.",
									"numoutlets" : 1,
									"fontsize" : 9.0,
									"outlettype" : [ "float" ],
									"patching_rect" : [ 146.0, 315.0, 35.0, 17.0 ],
									"id" : "obj-6",
									"fontname" : "Arial",
									"numinlets" : 2
								}

							}
, 							{
								"box" : 								{
									"maxclass" : "newobj",
									"text" : "f 0.",
									"numoutlets" : 1,
									"fontsize" : 9.0,
									"outlettype" : [ "float" ],
									"patching_rect" : [ 96.0, 316.0, 27.0, 17.0 ],
									"id" : "obj-7",
									"fontname" : "Arial",
									"numinlets" : 2
								}

							}
, 							{
								"box" : 								{
									"maxclass" : "newobj",
									"text" : "prepend /prob",
									"numoutlets" : 1,
									"fontsize" : 9.0,
									"outlettype" : [ "" ],
									"patching_rect" : [ 207.0, 532.0, 73.0, 17.0 ],
									"id" : "obj-8",
									"fontname" : "Arial",
									"numinlets" : 1
								}

							}
, 							{
								"box" : 								{
									"maxclass" : "newobj",
									"text" : "prepend /pattern",
									"numoutlets" : 1,
									"fontsize" : 9.0,
									"outlettype" : [ "" ],
									"patching_rect" : [ 455.0, 457.0, 85.0, 17.0 ],
									"id" : "obj-9",
									"fontname" : "Arial",
									"numinlets" : 1
								}

							}
, 							{
								"box" : 								{
									"maxclass" : "newobj",
									"text" : "list-maker 1",
									"numoutlets" : 1,
									"fontsize" : 9.0,
									"outlettype" : [ "" ],
									"patching_rect" : [ 455.0, 346.0, 65.0, 17.0 ],
									"id" : "obj-10",
									"fontname" : "Arial",
									"numinlets" : 2
								}

							}
, 							{
								"box" : 								{
									"maxclass" : "newobj",
									"text" : "t i i i i i",
									"numoutlets" : 5,
									"fontsize" : 9.0,
									"outlettype" : [ "int", "int", "int", "int", "int" ],
									"patching_rect" : [ 526.0, 192.0, 66.0, 17.0 ],
									"id" : "obj-11",
									"fontname" : "Arial",
									"numinlets" : 1
								}

							}
, 							{
								"box" : 								{
									"maxclass" : "outlet",
									"numoutlets" : 0,
									"patching_rect" : [ 207.0, 580.0, 15.0, 15.0 ],
									"id" : "obj-12",
									"numinlets" : 1,
									"comment" : ""
								}

							}
, 							{
								"box" : 								{
									"maxclass" : "newobj",
									"text" : "zl group 256",
									"numoutlets" : 2,
									"fontsize" : 9.0,
									"outlettype" : [ "", "" ],
									"patching_rect" : [ 207.0, 402.0, 65.0, 17.0 ],
									"id" : "obj-13",
									"fontname" : "Arial",
									"numinlets" : 2
								}

							}
, 							{
								"box" : 								{
									"maxclass" : "newobj",
									"text" : "t b",
									"numoutlets" : 1,
									"fontsize" : 9.0,
									"outlettype" : [ "bang" ],
									"patching_rect" : [ 257.0, 246.0, 20.0, 17.0 ],
									"id" : "obj-14",
									"fontname" : "Arial",
									"numinlets" : 1
								}

							}
, 							{
								"box" : 								{
									"maxclass" : "newobj",
									"text" : "sel 1",
									"numoutlets" : 2,
									"fontsize" : 9.0,
									"outlettype" : [ "bang", "" ],
									"patching_rect" : [ 207.0, 223.0, 31.0, 17.0 ],
									"id" : "obj-15",
									"fontname" : "Arial",
									"numinlets" : 2
								}

							}
, 							{
								"box" : 								{
									"maxclass" : "newobj",
									"text" : "uzi",
									"numoutlets" : 3,
									"fontsize" : 9.0,
									"outlettype" : [ "bang", "bang", "int" ],
									"patching_rect" : [ 177.0, 193.0, 40.0, 17.0 ],
									"id" : "obj-16",
									"fontname" : "Arial",
									"numinlets" : 2
								}

							}
, 							{
								"box" : 								{
									"maxclass" : "newobj",
									"text" : "iter",
									"numoutlets" : 1,
									"fontsize" : 9.0,
									"outlettype" : [ "" ],
									"patching_rect" : [ 177.0, 152.0, 25.0, 17.0 ],
									"id" : "obj-17",
									"fontname" : "Arial",
									"numinlets" : 1
								}

							}
, 							{
								"box" : 								{
									"maxclass" : "newobj",
									"text" : "f 0.",
									"numoutlets" : 1,
									"fontsize" : 9.0,
									"outlettype" : [ "float" ],
									"patching_rect" : [ 257.0, 314.0, 27.0, 17.0 ],
									"id" : "obj-18",
									"fontname" : "Arial",
									"numinlets" : 2
								}

							}
, 							{
								"box" : 								{
									"maxclass" : "newobj",
									"text" : "f 127.",
									"numoutlets" : 1,
									"fontsize" : 9.0,
									"outlettype" : [ "float" ],
									"patching_rect" : [ 207.0, 315.0, 35.0, 17.0 ],
									"id" : "obj-19",
									"fontname" : "Arial",
									"numinlets" : 2
								}

							}
, 							{
								"box" : 								{
									"maxclass" : "newobj",
									"text" : "Lsum",
									"numoutlets" : 1,
									"fontsize" : 9.0,
									"outlettype" : [ "" ],
									"patching_rect" : [ 526.0, 153.0, 32.0, 17.0 ],
									"id" : "obj-20",
									"fontname" : "Arial",
									"numinlets" : 1
								}

							}
, 							{
								"box" : 								{
									"maxclass" : "newobj",
									"text" : "t l l",
									"numoutlets" : 2,
									"fontsize" : 9.0,
									"outlettype" : [ "", "" ],
									"patching_rect" : [ 208.0, 87.0, 27.0, 17.0 ],
									"id" : "obj-21",
									"fontname" : "Arial",
									"numinlets" : 1
								}

							}
, 							{
								"box" : 								{
									"maxclass" : "inlet",
									"numoutlets" : 1,
									"outlettype" : [ "" ],
									"patching_rect" : [ 208.0, 46.0, 15.0, 15.0 ],
									"id" : "obj-22",
									"numinlets" : 0,
									"comment" : ""
								}

							}
 ],
						"lines" : [ 							{
								"patchline" : 								{
									"source" : [ "obj-20", 0 ],
									"destination" : [ "obj-11", 0 ],
									"hidden" : 0,
									"midpoints" : [  ]
								}

							}
, 							{
								"patchline" : 								{
									"source" : [ "obj-21", 1 ],
									"destination" : [ "obj-20", 0 ],
									"hidden" : 0,
									"midpoints" : [  ]
								}

							}
, 							{
								"patchline" : 								{
									"source" : [ "obj-10", 0 ],
									"destination" : [ "obj-9", 0 ],
									"hidden" : 0,
									"midpoints" : [  ]
								}

							}
, 							{
								"patchline" : 								{
									"source" : [ "obj-11", 1 ],
									"destination" : [ "obj-10", 0 ],
									"hidden" : 0,
									"midpoints" : [  ]
								}

							}
, 							{
								"patchline" : 								{
									"source" : [ "obj-11", 0 ],
									"destination" : [ "obj-13", 1 ],
									"hidden" : 0,
									"midpoints" : [  ]
								}

							}
, 							{
								"patchline" : 								{
									"source" : [ "obj-14", 0 ],
									"destination" : [ "obj-18", 0 ],
									"hidden" : 0,
									"midpoints" : [  ]
								}

							}
, 							{
								"patchline" : 								{
									"source" : [ "obj-15", 1 ],
									"destination" : [ "obj-14", 0 ],
									"hidden" : 0,
									"midpoints" : [  ]
								}

							}
, 							{
								"patchline" : 								{
									"source" : [ "obj-22", 0 ],
									"destination" : [ "obj-21", 0 ],
									"hidden" : 0,
									"midpoints" : [  ]
								}

							}
, 							{
								"patchline" : 								{
									"source" : [ "obj-8", 0 ],
									"destination" : [ "obj-12", 0 ],
									"hidden" : 0,
									"midpoints" : [  ]
								}

							}
, 							{
								"patchline" : 								{
									"source" : [ "obj-9", 0 ],
									"destination" : [ "obj-12", 0 ],
									"hidden" : 0,
									"midpoints" : [  ]
								}

							}
, 							{
								"patchline" : 								{
									"source" : [ "obj-2", 0 ],
									"destination" : [ "obj-8", 0 ],
									"hidden" : 0,
									"midpoints" : [  ]
								}

							}
, 							{
								"patchline" : 								{
									"source" : [ "obj-13", 0 ],
									"destination" : [ "obj-2", 0 ],
									"hidden" : 0,
									"midpoints" : [  ]
								}

							}
, 							{
								"patchline" : 								{
									"source" : [ "obj-4", 0 ],
									"destination" : [ "obj-2", 0 ],
									"hidden" : 0,
									"midpoints" : [  ]
								}

							}
, 							{
								"patchline" : 								{
									"source" : [ "obj-18", 0 ],
									"destination" : [ "obj-13", 0 ],
									"hidden" : 0,
									"midpoints" : [  ]
								}

							}
, 							{
								"patchline" : 								{
									"source" : [ "obj-19", 0 ],
									"destination" : [ "obj-13", 0 ],
									"hidden" : 0,
									"midpoints" : [  ]
								}

							}
, 							{
								"patchline" : 								{
									"source" : [ "obj-15", 0 ],
									"destination" : [ "obj-19", 0 ],
									"hidden" : 0,
									"midpoints" : [  ]
								}

							}
, 							{
								"patchline" : 								{
									"source" : [ "obj-16", 2 ],
									"destination" : [ "obj-15", 0 ],
									"hidden" : 0,
									"midpoints" : [  ]
								}

							}
, 							{
								"patchline" : 								{
									"source" : [ "obj-17", 0 ],
									"destination" : [ "obj-16", 0 ],
									"hidden" : 0,
									"midpoints" : [  ]
								}

							}
, 							{
								"patchline" : 								{
									"source" : [ "obj-21", 0 ],
									"destination" : [ "obj-17", 0 ],
									"hidden" : 0,
									"midpoints" : [  ]
								}

							}
, 							{
								"patchline" : 								{
									"source" : [ "obj-11", 0 ],
									"destination" : [ "obj-5", 1 ],
									"hidden" : 0,
									"midpoints" : [  ]
								}

							}
, 							{
								"patchline" : 								{
									"source" : [ "obj-14", 0 ],
									"destination" : [ "obj-6", 0 ],
									"hidden" : 0,
									"midpoints" : [  ]
								}

							}
, 							{
								"patchline" : 								{
									"source" : [ "obj-5", 0 ],
									"destination" : [ "obj-4", 0 ],
									"hidden" : 0,
									"midpoints" : [  ]
								}

							}
, 							{
								"patchline" : 								{
									"source" : [ "obj-3", 0 ],
									"destination" : [ "obj-4", 0 ],
									"hidden" : 0,
									"midpoints" : [ 383.0, 305.0, 417.0, 402.0, 299.0, 480.0, 192.0, 442.0 ]
								}

							}
, 							{
								"patchline" : 								{
									"source" : [ "obj-13", 0 ],
									"destination" : [ "obj-4", 0 ],
									"hidden" : 0,
									"midpoints" : [  ]
								}

							}
, 							{
								"patchline" : 								{
									"source" : [ "obj-7", 0 ],
									"destination" : [ "obj-5", 0 ],
									"hidden" : 0,
									"midpoints" : [  ]
								}

							}
, 							{
								"patchline" : 								{
									"source" : [ "obj-6", 0 ],
									"destination" : [ "obj-5", 0 ],
									"hidden" : 0,
									"midpoints" : [  ]
								}

							}
, 							{
								"patchline" : 								{
									"source" : [ "obj-15", 0 ],
									"destination" : [ "obj-7", 0 ],
									"hidden" : 0,
									"midpoints" : [  ]
								}

							}
 ]
					}
,
					"saved_object_attributes" : 					{
						"globalpatchername" : "",
						"fontface" : 0,
						"fontsize" : 12.0,
						"default_fontface" : 0,
						"default_fontname" : "Arial",
						"fontname" : "Arial",
						"default_fontsize" : 12.0
					}

				}

			}
, 			{
				"box" : 				{
					"maxclass" : "newobj",
					"text" : "t 0 90 b",
					"numoutlets" : 3,
					"fontsize" : 9.0,
					"outlettype" : [ "int", "int", "bang" ],
					"patching_rect" : [ 625.0, 271.0, 45.0, 17.0 ],
					"id" : "obj-13",
					"fontname" : "Arial",
					"numinlets" : 1
				}

			}
, 			{
				"box" : 				{
					"maxclass" : "newobj",
					"text" : "loadbang",
					"numoutlets" : 1,
					"fontsize" : 9.0,
					"outlettype" : [ "bang" ],
					"patching_rect" : [ 625.0, 243.0, 46.0, 17.0 ],
					"id" : "obj-14",
					"fontname" : "Arial",
					"numinlets" : 1
				}

			}
, 			{
				"box" : 				{
					"maxclass" : "newobj",
					"text" : "prepend 0.00001",
					"numoutlets" : 1,
					"fontsize" : 9.0,
					"outlettype" : [ "" ],
					"patching_rect" : [ 363.0, 502.0, 85.0, 17.0 ],
					"id" : "obj-15",
					"fontname" : "Arial",
					"numinlets" : 1
				}

			}
, 			{
				"box" : 				{
					"maxclass" : "newobj",
					"text" : "route 0.",
					"numoutlets" : 2,
					"fontsize" : 9.0,
					"outlettype" : [ "", "" ],
					"patching_rect" : [ 363.0, 476.0, 45.0, 17.0 ],
					"id" : "obj-16",
					"fontname" : "Arial",
					"numinlets" : 1
				}

			}
, 			{
				"box" : 				{
					"maxclass" : "newobj",
					"text" : "pack 1 1",
					"numoutlets" : 1,
					"fontsize" : 9.0,
					"outlettype" : [ "" ],
					"patching_rect" : [ 662.0, 672.0, 45.0, 17.0 ],
					"id" : "obj-17",
					"fontname" : "Arial",
					"numinlets" : 2
				}

			}
, 			{
				"box" : 				{
					"maxclass" : "newobj",
					"text" : "zl mth",
					"numoutlets" : 2,
					"fontsize" : 9.0,
					"outlettype" : [ "", "" ],
					"patching_rect" : [ 770.0, 619.0, 35.0, 17.0 ],
					"id" : "obj-18",
					"fontname" : "Arial",
					"numinlets" : 2
				}

			}
, 			{
				"box" : 				{
					"maxclass" : "newobj",
					"text" : "zl reg",
					"numoutlets" : 2,
					"fontsize" : 9.0,
					"outlettype" : [ "", "" ],
					"patching_rect" : [ 770.0, 596.0, 35.0, 17.0 ],
					"id" : "obj-19",
					"fontname" : "Arial",
					"numinlets" : 2
				}

			}
, 			{
				"box" : 				{
					"maxclass" : "inlet",
					"numoutlets" : 1,
					"outlettype" : [ "" ],
					"patching_rect" : [ 498.0, 43.0, 15.0, 15.0 ],
					"id" : "obj-20",
					"numinlets" : 0,
					"comment" : ""
				}

			}
, 			{
				"box" : 				{
					"maxclass" : "inlet",
					"numoutlets" : 1,
					"outlettype" : [ "" ],
					"patching_rect" : [ 568.0, 43.0, 15.0, 15.0 ],
					"id" : "obj-21",
					"numinlets" : 0,
					"comment" : ""
				}

			}
, 			{
				"box" : 				{
					"maxclass" : "newobj",
					"text" : "t i b i 1. b i",
					"numoutlets" : 6,
					"fontsize" : 9.0,
					"outlettype" : [ "int", "bang", "int", "float", "bang", "int" ],
					"patching_rect" : [ 603.0, 537.0, 170.0, 17.0 ],
					"id" : "obj-22",
					"fontname" : "Arial",
					"numinlets" : 1
				}

			}
, 			{
				"box" : 				{
					"maxclass" : "newobj",
					"text" : "ali.pass-prob",
					"numoutlets" : 2,
					"fontsize" : 9.0,
					"outlettype" : [ "", "" ],
					"patching_rect" : [ 603.0, 645.0, 68.0, 17.0 ],
					"id" : "obj-23",
					"fontname" : "Arial",
					"numinlets" : 3
				}

			}
, 			{
				"box" : 				{
					"maxclass" : "newobj",
					"text" : "zl mth",
					"numoutlets" : 2,
					"fontsize" : 9.0,
					"outlettype" : [ "", "" ],
					"patching_rect" : [ 654.0, 603.0, 35.0, 17.0 ],
					"id" : "obj-24",
					"fontname" : "Arial",
					"numinlets" : 2
				}

			}
, 			{
				"box" : 				{
					"maxclass" : "newobj",
					"text" : "zl reg",
					"numoutlets" : 2,
					"fontsize" : 9.0,
					"outlettype" : [ "", "" ],
					"patching_rect" : [ 654.0, 573.0, 35.0, 17.0 ],
					"id" : "obj-25",
					"fontname" : "Arial",
					"numinlets" : 2
				}

			}
, 			{
				"box" : 				{
					"maxclass" : "newobj",
					"text" : "f 0.",
					"numoutlets" : 1,
					"fontsize" : 9.0,
					"outlettype" : [ "float" ],
					"patching_rect" : [ 370.0, 320.0, 27.0, 17.0 ],
					"id" : "obj-26",
					"fontname" : "Arial",
					"numinlets" : 2
				}

			}
, 			{
				"box" : 				{
					"maxclass" : "outlet",
					"numoutlets" : 0,
					"patching_rect" : [ 662.0, 696.0, 15.0, 15.0 ],
					"id" : "obj-27",
					"numinlets" : 1,
					"comment" : "(int) beat number"
				}

			}
, 			{
				"box" : 				{
					"maxclass" : "newobj",
					"text" : "t 0 0 0",
					"numoutlets" : 3,
					"fontsize" : 9.0,
					"outlettype" : [ "int", "int", "int" ],
					"patching_rect" : [ 201.0, 180.0, 40.0, 17.0 ],
					"id" : "obj-28",
					"fontname" : "Arial",
					"numinlets" : 1
				}

			}
, 			{
				"box" : 				{
					"maxclass" : "message",
					"text" : "enable $1",
					"numoutlets" : 1,
					"fontsize" : 9.0,
					"outlettype" : [ "" ],
					"patching_rect" : [ 596.0, 343.0, 52.0, 15.0 ],
					"id" : "obj-29",
					"fontname" : "Arial",
					"numinlets" : 2
				}

			}
, 			{
				"box" : 				{
					"maxclass" : "newobj",
					"text" : "gate~",
					"numoutlets" : 1,
					"fontsize" : 9.0,
					"outlettype" : [ "signal" ],
					"patching_rect" : [ 527.0, 242.0, 34.0, 17.0 ],
					"id" : "obj-30",
					"fontname" : "Arial",
					"numinlets" : 2
				}

			}
, 			{
				"box" : 				{
					"maxclass" : "newobj",
					"text" : "print seq~",
					"numoutlets" : 0,
					"fontsize" : 9.0,
					"patching_rect" : [ 439.0, 628.0, 55.0, 17.0 ],
					"id" : "obj-31",
					"fontname" : "Arial",
					"numinlets" : 1
				}

			}
, 			{
				"box" : 				{
					"maxclass" : "newobj",
					"text" : "t 1 1 1",
					"numoutlets" : 3,
					"fontsize" : 9.0,
					"outlettype" : [ "int", "int", "int" ],
					"patching_rect" : [ 245.0, 180.0, 40.0, 17.0 ],
					"id" : "obj-32",
					"fontname" : "Arial",
					"numinlets" : 1
				}

			}
, 			{
				"box" : 				{
					"maxclass" : "newobj",
					"text" : "sel 0 1",
					"numoutlets" : 3,
					"fontsize" : 9.0,
					"outlettype" : [ "bang", "bang", "" ],
					"patching_rect" : [ 225.0, 140.0, 40.0, 17.0 ],
					"id" : "obj-33",
					"fontname" : "Arial",
					"numinlets" : 1
				}

			}
, 			{
				"box" : 				{
					"maxclass" : "message",
					"text" : "play $1",
					"numoutlets" : 1,
					"fontsize" : 9.0,
					"outlettype" : [ "" ],
					"patching_rect" : [ 245.0, 407.0, 43.0, 15.0 ],
					"id" : "obj-34",
					"fontname" : "Arial",
					"numinlets" : 2
				}

			}
, 			{
				"box" : 				{
					"maxclass" : "newobj",
					"text" : "route /go /pattern /prob /pattern-prob /pattern-uniform",
					"numoutlets" : 6,
					"fontsize" : 9.0,
					"outlettype" : [ "", "", "", "", "", "" ],
					"patching_rect" : [ 568.0, 69.0, 273.0, 17.0 ],
					"id" : "obj-35",
					"fontname" : "Arial",
					"numinlets" : 1
				}

			}
, 			{
				"box" : 				{
					"maxclass" : "message",
					"text" : "set $1",
					"numoutlets" : 1,
					"fontsize" : 9.0,
					"outlettype" : [ "" ],
					"patching_rect" : [ 473.0, 266.0, 38.0, 15.0 ],
					"id" : "obj-36",
					"fontname" : "Arial",
					"numinlets" : 2
				}

			}
, 			{
				"box" : 				{
					"maxclass" : "newobj",
					"text" : "t f b b",
					"numoutlets" : 3,
					"fontsize" : 9.0,
					"outlettype" : [ "float", "bang", "bang" ],
					"patching_rect" : [ 303.0, 282.0, 40.0, 17.0 ],
					"id" : "obj-37",
					"fontname" : "Arial",
					"numinlets" : 1
				}

			}
, 			{
				"box" : 				{
					"maxclass" : "newobj",
					"text" : "pack 1. 1",
					"numoutlets" : 1,
					"fontsize" : 9.0,
					"outlettype" : [ "" ],
					"patching_rect" : [ 363.0, 453.0, 50.0, 17.0 ],
					"id" : "obj-38",
					"fontname" : "Arial",
					"numinlets" : 2
				}

			}
, 			{
				"box" : 				{
					"maxclass" : "message",
					"text" : "add 0 $1 $2",
					"numoutlets" : 1,
					"fontsize" : 9.0,
					"outlettype" : [ "" ],
					"patching_rect" : [ 363.0, 529.0, 63.0, 15.0 ],
					"id" : "obj-39",
					"fontname" : "Arial",
					"numinlets" : 2
				}

			}
, 			{
				"box" : 				{
					"maxclass" : "newobj",
					"text" : "accum 0.",
					"numoutlets" : 1,
					"fontsize" : 9.0,
					"outlettype" : [ "float" ],
					"patching_rect" : [ 363.0, 403.0, 49.0, 17.0 ],
					"id" : "obj-40",
					"fontname" : "Arial",
					"numinlets" : 3
				}

			}
, 			{
				"box" : 				{
					"maxclass" : "newobj",
					"text" : "/ 1.",
					"numoutlets" : 1,
					"fontsize" : 9.0,
					"outlettype" : [ "float" ],
					"patching_rect" : [ 387.0, 344.0, 27.0, 17.0 ],
					"id" : "obj-41",
					"fontname" : "Arial",
					"numinlets" : 2
				}

			}
, 			{
				"box" : 				{
					"maxclass" : "newobj",
					"text" : "seq~",
					"numoutlets" : 3,
					"fontsize" : 9.0,
					"outlettype" : [ "", "", "" ],
					"patching_rect" : [ 363.0, 571.0, 40.0, 17.0 ],
					"id" : "obj-42",
					"fontname" : "Arial",
					"numinlets" : 1
				}

			}
, 			{
				"box" : 				{
					"maxclass" : "newobj",
					"text" : "list-inumerate",
					"numoutlets" : 4,
					"fontsize" : 9.0,
					"outlettype" : [ "", "int", "", "bang" ],
					"patching_rect" : [ 303.0, 250.0, 74.0, 17.0 ],
					"id" : "obj-43",
					"fontname" : "Arial",
					"numinlets" : 1
				}

			}
, 			{
				"box" : 				{
					"maxclass" : "newobj",
					"text" : "t b l l 0. erase l",
					"numoutlets" : 6,
					"fontsize" : 9.0,
					"outlettype" : [ "bang", "", "", "float", "erase", "" ],
					"patching_rect" : [ 322.0, 150.0, 79.0, 17.0 ],
					"id" : "obj-44",
					"fontname" : "Arial",
					"numinlets" : 1
				}

			}
, 			{
				"box" : 				{
					"maxclass" : "newobj",
					"text" : "Lsum 0.",
					"numoutlets" : 1,
					"fontsize" : 9.0,
					"outlettype" : [ "" ],
					"patching_rect" : [ 401.0, 270.0, 44.0, 17.0 ],
					"id" : "obj-45",
					"fontname" : "Arial",
					"numinlets" : 1
				}

			}
, 			{
				"box" : 				{
					"maxclass" : "comment",
					"text" : "beat number (starting with 0), duration",
					"numoutlets" : 0,
					"fontsize" : 9.0,
					"patching_rect" : [ 678.0, 697.0, 185.0, 17.0 ],
					"id" : "obj-46",
					"fontname" : "Arial",
					"numinlets" : 1
				}

			}
 ],
		"lines" : [ 			{
				"patchline" : 				{
					"source" : [ "obj-9", 1 ],
					"destination" : [ "obj-7", 0 ],
					"hidden" : 0,
					"midpoints" : [  ]
				}

			}
, 			{
				"patchline" : 				{
					"source" : [ "obj-8", 0 ],
					"destination" : [ "obj-9", 0 ],
					"hidden" : 0,
					"midpoints" : [  ]
				}

			}
, 			{
				"patchline" : 				{
					"source" : [ "obj-22", 5 ],
					"destination" : [ "obj-18", 1 ],
					"hidden" : 0,
					"midpoints" : [ 827.0, 569.0, 827.0, 592.0 ]
				}

			}
, 			{
				"patchline" : 				{
					"source" : [ "obj-44", 5 ],
					"destination" : [ "obj-19", 1 ],
					"hidden" : 0,
					"midpoints" : [ 800.0, 225.0 ]
				}

			}
, 			{
				"patchline" : 				{
					"source" : [ "obj-35", 4 ],
					"destination" : [ "obj-1", 0 ],
					"hidden" : 0,
					"midpoints" : [  ]
				}

			}
, 			{
				"patchline" : 				{
					"source" : [ "obj-19", 0 ],
					"destination" : [ "obj-18", 0 ],
					"hidden" : 0,
					"midpoints" : [  ]
				}

			}
, 			{
				"patchline" : 				{
					"source" : [ "obj-22", 4 ],
					"destination" : [ "obj-19", 0 ],
					"hidden" : 0,
					"midpoints" : [  ]
				}

			}
, 			{
				"patchline" : 				{
					"source" : [ "obj-35", 3 ],
					"destination" : [ "obj-12", 0 ],
					"hidden" : 0,
					"midpoints" : [  ]
				}

			}
, 			{
				"patchline" : 				{
					"source" : [ "obj-13", 2 ],
					"destination" : [ "obj-10", 0 ],
					"hidden" : 0,
					"midpoints" : [  ]
				}

			}
, 			{
				"patchline" : 				{
					"source" : [ "obj-18", 0 ],
					"destination" : [ "obj-17", 1 ],
					"hidden" : 0,
					"midpoints" : [  ]
				}

			}
, 			{
				"patchline" : 				{
					"source" : [ "obj-22", 2 ],
					"destination" : [ "obj-24", 1 ],
					"hidden" : 0,
					"midpoints" : [ 710.0, 569.0, 710.0, 592.0 ]
				}

			}
, 			{
				"patchline" : 				{
					"source" : [ "obj-35", 2 ],
					"destination" : [ "obj-25", 1 ],
					"hidden" : 0,
					"midpoints" : [  ]
				}

			}
, 			{
				"patchline" : 				{
					"source" : [ "obj-17", 0 ],
					"destination" : [ "obj-27", 0 ],
					"hidden" : 0,
					"midpoints" : [  ]
				}

			}
, 			{
				"patchline" : 				{
					"source" : [ "obj-23", 0 ],
					"destination" : [ "obj-17", 0 ],
					"hidden" : 0,
					"midpoints" : [  ]
				}

			}
, 			{
				"patchline" : 				{
					"source" : [ "obj-25", 0 ],
					"destination" : [ "obj-24", 0 ],
					"hidden" : 0,
					"midpoints" : [  ]
				}

			}
, 			{
				"patchline" : 				{
					"source" : [ "obj-22", 1 ],
					"destination" : [ "obj-25", 0 ],
					"hidden" : 0,
					"midpoints" : [  ]
				}

			}
, 			{
				"patchline" : 				{
					"source" : [ "obj-22", 3 ],
					"destination" : [ "obj-23", 1 ],
					"hidden" : 0,
					"midpoints" : [ 740.0, 588.0, 740.0, 624.0 ]
				}

			}
, 			{
				"patchline" : 				{
					"source" : [ "obj-24", 0 ],
					"destination" : [ "obj-23", 1 ],
					"hidden" : 0,
					"midpoints" : [  ]
				}

			}
, 			{
				"patchline" : 				{
					"source" : [ "obj-14", 0 ],
					"destination" : [ "obj-13", 0 ],
					"hidden" : 0,
					"midpoints" : [  ]
				}

			}
, 			{
				"patchline" : 				{
					"source" : [ "obj-11", 0 ],
					"destination" : [ "obj-14", 0 ],
					"hidden" : 0,
					"midpoints" : [  ]
				}

			}
, 			{
				"patchline" : 				{
					"source" : [ "obj-22", 0 ],
					"destination" : [ "obj-23", 0 ],
					"hidden" : 0,
					"midpoints" : [  ]
				}

			}
, 			{
				"patchline" : 				{
					"source" : [ "obj-42", 0 ],
					"destination" : [ "obj-22", 0 ],
					"hidden" : 0,
					"midpoints" : [ 386.0, 641.0, 573.0, 552.0 ]
				}

			}
, 			{
				"patchline" : 				{
					"source" : [ "obj-13", 0 ],
					"destination" : [ "obj-29", 0 ],
					"hidden" : 0,
					"midpoints" : [  ]
				}

			}
, 			{
				"patchline" : 				{
					"source" : [ "obj-32", 2 ],
					"destination" : [ "obj-29", 0 ],
					"hidden" : 0,
					"midpoints" : [ 601.0, 236.0 ]
				}

			}
, 			{
				"patchline" : 				{
					"source" : [ "obj-28", 0 ],
					"destination" : [ "obj-29", 0 ],
					"hidden" : 0,
					"midpoints" : [ 210.5, 329.0, 626.0, 424.0 ]
				}

			}
, 			{
				"patchline" : 				{
					"source" : [ "obj-7", 1 ],
					"destination" : [ "obj-35", 0 ],
					"hidden" : 0,
					"midpoints" : [ 987.5, 112.0, 868.0, 112.0, 868.0, 51.0, 577.5, 51.0 ]
				}

			}
, 			{
				"patchline" : 				{
					"source" : [ "obj-21", 0 ],
					"destination" : [ "obj-35", 0 ],
					"hidden" : 0,
					"midpoints" : [  ]
				}

			}
, 			{
				"patchline" : 				{
					"source" : [ "obj-12", 0 ],
					"destination" : [ "obj-35", 0 ],
					"hidden" : 0,
					"midpoints" : [ 727.5, 180.0, 831.0, 180.0, 831.0, 62.0, 577.5, 62.0 ]
				}

			}
, 			{
				"patchline" : 				{
					"source" : [ "obj-20", 0 ],
					"destination" : [ "obj-30", 1 ],
					"hidden" : 0,
					"midpoints" : [  ]
				}

			}
, 			{
				"patchline" : 				{
					"source" : [ "obj-32", 1 ],
					"destination" : [ "obj-30", 0 ],
					"hidden" : 0,
					"midpoints" : [  ]
				}

			}
, 			{
				"patchline" : 				{
					"source" : [ "obj-28", 1 ],
					"destination" : [ "obj-30", 0 ],
					"hidden" : 0,
					"midpoints" : [  ]
				}

			}
, 			{
				"patchline" : 				{
					"source" : [ "obj-29", 0 ],
					"destination" : [ "obj-30", 0 ],
					"hidden" : 0,
					"midpoints" : [ 580.0, 393.0 ]
				}

			}
, 			{
				"patchline" : 				{
					"source" : [ "obj-44", 3 ],
					"destination" : [ "obj-36", 0 ],
					"hidden" : 0,
					"midpoints" : [  ]
				}

			}
, 			{
				"patchline" : 				{
					"source" : [ "obj-42", 1 ],
					"destination" : [ "obj-31", 0 ],
					"hidden" : 0,
					"midpoints" : [  ]
				}

			}
, 			{
				"patchline" : 				{
					"source" : [ "obj-45", 0 ],
					"destination" : [ "obj-41", 1 ],
					"hidden" : 0,
					"midpoints" : [  ]
				}

			}
, 			{
				"patchline" : 				{
					"source" : [ "obj-43", 1 ],
					"destination" : [ "obj-38", 1 ],
					"hidden" : 0,
					"midpoints" : [ 447.0, 325.0, 521.0, 383.0 ]
				}

			}
, 			{
				"patchline" : 				{
					"source" : [ "obj-44", 2 ],
					"destination" : [ "obj-45", 0 ],
					"hidden" : 0,
					"midpoints" : [  ]
				}

			}
, 			{
				"patchline" : 				{
					"source" : [ "obj-26", 0 ],
					"destination" : [ "obj-41", 0 ],
					"hidden" : 0,
					"midpoints" : [  ]
				}

			}
, 			{
				"patchline" : 				{
					"source" : [ "obj-37", 0 ],
					"destination" : [ "obj-26", 1 ],
					"hidden" : 0,
					"midpoints" : [  ]
				}

			}
, 			{
				"patchline" : 				{
					"source" : [ "obj-44", 3 ],
					"destination" : [ "obj-26", 1 ],
					"hidden" : 0,
					"midpoints" : [  ]
				}

			}
, 			{
				"patchline" : 				{
					"source" : [ "obj-41", 0 ],
					"destination" : [ "obj-40", 1 ],
					"hidden" : 0,
					"midpoints" : [  ]
				}

			}
, 			{
				"patchline" : 				{
					"source" : [ "obj-37", 2 ],
					"destination" : [ "obj-26", 0 ],
					"hidden" : 0,
					"midpoints" : [  ]
				}

			}
, 			{
				"patchline" : 				{
					"source" : [ "obj-44", 4 ],
					"destination" : [ "obj-42", 0 ],
					"hidden" : 0,
					"midpoints" : [ 696.0, 223.0, 696.0, 527.0 ]
				}

			}
, 			{
				"patchline" : 				{
					"source" : [ "obj-39", 0 ],
					"destination" : [ "obj-42", 0 ],
					"hidden" : 0,
					"midpoints" : [  ]
				}

			}
, 			{
				"patchline" : 				{
					"source" : [ "obj-30", 0 ],
					"destination" : [ "obj-42", 0 ],
					"hidden" : 0,
					"midpoints" : [ 536.5, 497.0 ]
				}

			}
, 			{
				"patchline" : 				{
					"source" : [ "obj-34", 0 ],
					"destination" : [ "obj-42", 0 ],
					"hidden" : 0,
					"midpoints" : [  ]
				}

			}
, 			{
				"patchline" : 				{
					"source" : [ "obj-29", 0 ],
					"destination" : [ "obj-42", 0 ],
					"hidden" : 0,
					"midpoints" : [ 605.5, 517.0 ]
				}

			}
, 			{
				"patchline" : 				{
					"source" : [ "obj-5", 0 ],
					"destination" : [ "obj-42", 0 ],
					"hidden" : 0,
					"midpoints" : [  ]
				}

			}
, 			{
				"patchline" : 				{
					"source" : [ "obj-4", 0 ],
					"destination" : [ "obj-42", 0 ],
					"hidden" : 0,
					"midpoints" : [  ]
				}

			}
, 			{
				"patchline" : 				{
					"source" : [ "obj-2", 0 ],
					"destination" : [ "obj-42", 0 ],
					"hidden" : 0,
					"midpoints" : [  ]
				}

			}
, 			{
				"patchline" : 				{
					"source" : [ "obj-1", 0 ],
					"destination" : [ "obj-42", 0 ],
					"hidden" : 0,
					"midpoints" : [  ]
				}

			}
, 			{
				"patchline" : 				{
					"source" : [ "obj-15", 0 ],
					"destination" : [ "obj-39", 0 ],
					"hidden" : 0,
					"midpoints" : [  ]
				}

			}
, 			{
				"patchline" : 				{
					"source" : [ "obj-16", 1 ],
					"destination" : [ "obj-39", 0 ],
					"hidden" : 0,
					"midpoints" : [  ]
				}

			}
, 			{
				"patchline" : 				{
					"source" : [ "obj-16", 0 ],
					"destination" : [ "obj-15", 0 ],
					"hidden" : 0,
					"midpoints" : [  ]
				}

			}
, 			{
				"patchline" : 				{
					"source" : [ "obj-38", 0 ],
					"destination" : [ "obj-16", 0 ],
					"hidden" : 0,
					"midpoints" : [  ]
				}

			}
, 			{
				"patchline" : 				{
					"source" : [ "obj-40", 0 ],
					"destination" : [ "obj-38", 0 ],
					"hidden" : 0,
					"midpoints" : [  ]
				}

			}
, 			{
				"patchline" : 				{
					"source" : [ "obj-37", 1 ],
					"destination" : [ "obj-40", 0 ],
					"hidden" : 0,
					"midpoints" : [  ]
				}

			}
, 			{
				"patchline" : 				{
					"source" : [ "obj-36", 0 ],
					"destination" : [ "obj-40", 0 ],
					"hidden" : 0,
					"midpoints" : [ 482.5, 306.0 ]
				}

			}
, 			{
				"patchline" : 				{
					"source" : [ "obj-35", 1 ],
					"destination" : [ "obj-44", 0 ],
					"hidden" : 0,
					"midpoints" : [ 327.0, 120.0 ]
				}

			}
, 			{
				"patchline" : 				{
					"source" : [ "obj-43", 0 ],
					"destination" : [ "obj-37", 0 ],
					"hidden" : 0,
					"midpoints" : [  ]
				}

			}
, 			{
				"patchline" : 				{
					"source" : [ "obj-44", 1 ],
					"destination" : [ "obj-43", 0 ],
					"hidden" : 0,
					"midpoints" : [  ]
				}

			}
, 			{
				"patchline" : 				{
					"source" : [ "obj-32", 0 ],
					"destination" : [ "obj-34", 0 ],
					"hidden" : 0,
					"midpoints" : [  ]
				}

			}
, 			{
				"patchline" : 				{
					"source" : [ "obj-28", 2 ],
					"destination" : [ "obj-34", 0 ],
					"hidden" : 0,
					"midpoints" : [ 231.5, 364.0 ]
				}

			}
, 			{
				"patchline" : 				{
					"source" : [ "obj-33", 1 ],
					"destination" : [ "obj-32", 0 ],
					"hidden" : 0,
					"midpoints" : [  ]
				}

			}
, 			{
				"patchline" : 				{
					"source" : [ "obj-35", 0 ],
					"destination" : [ "obj-33", 0 ],
					"hidden" : 0,
					"midpoints" : [ 230.0, 122.0 ]
				}

			}
, 			{
				"patchline" : 				{
					"source" : [ "obj-33", 0 ],
					"destination" : [ "obj-28", 0 ],
					"hidden" : 0,
					"midpoints" : [  ]
				}

			}
 ]
	}

}
