max v2;#N vpatcher 40 55 341 338;#P newex 179 47 55 196617 r mute_am;#B color 6;#P message 179 72 45 196617 mute \$1;#B color 6;#P newex 179 102 50 196617 thispoly~;#B color 6;#P user panel 155 33 108 104;#X brgb 131 255 70;#X frgb 0 0 0;#X border 1;#X rounded 10;#X shadow 5;#X done;#P newex 109 122 31 196617 r init;#B color 14;#P newex 60 229 35 196617 out~ 2;#P newex 18 229 35 196617 out~ 1;#P newex 18 30 31 196617 in~ 1;#P message 133 150 20 196617 90;#P message 109 150 20 196617 60;#P newex 85 179 58 196617 brite_rev~;#P newex 60 86 33 196617 *~ 2.;#P newex 86 61 29 196617 abs~;#P newex 60 40 62 196617 cycle~ 196.;#P newex 18 115 33 196617 *~ 1.;#P connect 7 0 0 0;#P connect 0 0 8 0;#P fasten 4 0 8 0 90 204 23 204;#P fasten 3 0 0 1 65 109 46 109;#P connect 1 0 3 0;#P fasten 0 0 9 0 23 180 65 180;#P fasten 4 1 9 0 138 212 65 212;#P fasten 0 0 4 0 23 155 90 155;#P connect 10 0 5 0;#P connect 5 0 4 1;#P connect 10 0 6 0;#P connect 6 0 4 2;#P connect 14 0 13 0;#P lcolor 7;#P connect 13 0 12 0;#P lcolor 7;#P pop;