max v2;#N vpatcher 40 55 491 714;#P origin 0 -18;#P newex 64 273 63 196617 r mute_capt;#B color 6;#P message 64 298 45 196617 mute \$1;#B color 6;#P newex 64 328 50 196617 thispoly~;#B color 6;#P user panel 40 259 108 104;#X brgb 131 255 70;#X frgb 0 0 0;#X border 1;#X rounded 10;#X shadow 5;#X done;#P newex 249 257 28 196617 t b b;#P newex 273 556 35 196617 out~ 2;#P newex 149 556 35 196617 out~ 1;#P newex 16 38 31 196617 in~ 1;#P message 250 292 29 196617 0.25;#P message 234 211 31 196617 clear;#P newex 286 257 28 196617 t b b;#P newex 315 32 35 196617 r capt;#P newex 367 421 31 196617 r init;#P newex 212 369 160 196617 biquad~ 0.02 0. -0.02 -1.94 0.95;#P message 391 467 26 196617 110;#P message 367 467 20 196617 55;#P newex 212 511 58 196617 brite_rev~;#P newex 315 116 32 196617 delay;#P newex 315 97 68 196617 random 2000;#P newex 149 460 39 196617 *~ 0.7;#P newex 150 440 63 196617 tapout~ 876;#P newex 150 417 55 196617 tapin~ 876;#P newex 273 460 39 196617 *~ 0.7;#P newex 273 438 69 196617 tapout~ 1352;#P newex 273 415 63 196617 tapin~ 1352;#P message 286 292 17 196617 0.;#P message 304 292 17 196617 1.;#P newex 212 236 84 196617 sel 0 1;#P newex 212 192 32 196617 urn 4;#P message 212 292 22 196617 -1.;#P toggle 315 55 15 0;#P newex 315 75 62 196617 metro 6500;#P button 315 139 15 0;#P newex 315 158 28 196617 t b b;#P newex 333 229 27 196617 + 1;#P newex 333 206 50 196617 random 5;#P number 333 252 35 9 0 0 0 3 0 0 0 221 221 221 222 222 222 0 0 0;#P message 333 307 35 196617 set \$1;#N coll buffernames;#T flags 1 0;#T 1 knife;#T 2 fork;#T 3 spoon;#T 4 plate;#T 5 glass;#P newobj 333 277 83 196617 coll buffernames;#N vpatcher 441 146 841 446;#P newex 126 149 79 196617 route 1 2 3 4 5;#P newex 126 130 60 196617 pack i clear;#P message 37 180 35 196617 set \$1;#P newex 98 257 95 196617 buffer~ glass 8500;#P newex 98 239 94 196617 buffer~ plate 8500;#P newex 98 221 95 196617 buffer~ spoon 8500;#P newex 98 183 94 196617 buffer~ knife 8500;#P outlet 37 260 15 0;#N coll buffernames;#T flags 1 0;#T 1 knife;#T 2 fork;#T 3 spoon;#T 4 plate;#T 5 glass;#P newobj 37 150 83 196617 coll buffernames;#P newex 37 105 66 196617 counter 1 5;#P newex 37 82 30 196617 sel 1;#P outlet 20 260 15 0;#P inlet 20 29 15 0;#P newex 20 59 27 196617 t i i;#P newex 98 202 91 196617 buffer~ fork 8500;#P connect 2 0 1 0;#P connect 1 0 3 0;#P connect 1 1 4 0;#P connect 4 0 5 0;#P connect 5 0 6 0;#P connect 6 0 12 0;#P connect 12 0 7 0;#P connect 14 0 8 0;#P connect 14 1 0 0;#P connect 14 2 9 0;#P connect 14 3 10 0;#P connect 14 4 11 0;#P connect 5 0 13 0;#P connect 13 0 14 0;#P pop;#P newobj 127 125 58 196617 p setbuffer;#N vpatcher 339 83 841 548;#P origin 0 -9;#P message 236 43 14 196617 1;#P newex 236 21 31 196617 r init;#P newex 67 334 40 196617 change;#P button 159 226 15 0;#P toggle 236 59 15 0;#P newex 236 95 50 196617 metro 30;#P newex 16 93 29 196617 abs~;#P newex 16 117 30 196617 avg~;#P button 148 136 15 0;#P button 187 332 15 0;#P button 152 161 15 0;#P message 159 310 14 196617 0;#P message 104 290 38 196617 0. 250;#P newex 159 286 53 196617 delay 250;#P message 103 234 27 196617 stop;#P newex 159 258 59 196617 delay 1000;#P outlet 31 339 15 0;#P message 31 259 38 196617 1. 250;#P newex 31 212 83 196617 t b b b;#P message 67 241 14 196617 1;#P outlet 67 381 15 0;#P toggle 67 183 15 0;#P newex 16 184 40 196617 change;#P newex 16 157 35 196617 > 0.03;#P inlet 16 38 15 0;#P connect 0 0 18 0;#P connect 19 0 17 0;#P connect 18 0 17 0;#P connect 17 0 1 0;#P connect 1 0 2 0;#P connect 2 1 6 0;#P connect 6 0 7 0;#P connect 7 0 8 0;#P connect 12 0 8 0;#P fasten 1 0 3 0 21 178 72 178;#P connect 6 1 5 0;#P connect 13 0 22 0;#P connect 5 0 22 0;#P connect 22 0 4 0;#P connect 6 2 10 0;#P fasten 9 0 12 0 164 282 109 282;#P connect 2 1 16 0;#P connect 2 2 14 0;#P fasten 2 2 21 0 51 207 164 207;#P connect 21 0 9 0;#P fasten 10 0 9 0 108 253 164 253;#P connect 9 0 11 0;#P connect 11 0 13 0;#P connect 11 0 15 0;#P connect 23 0 24 0;#P connect 24 0 20 0;#P connect 20 0 19 0;#P pop;#P newobj 79 76 58 196617 p threshold;#P newex 39 125 42 196617 line~ 0.;#P newex 16 153 33 196617 *~ 0.;#P newex 16 95 63 196617 tapout~ 248;#P newex 16 69 55 196617 tapin~ 250;#P toggle 127 153 15 0;#P newex 212 319 39 196617 sig~ 1.;#P newex 212 348 65 196617 groove~ fork;#P newex 16 184 65 196617 record~ fork;#P user panel 7 27 188 206;#X brgb 192 192 192;#X frgb 0 0 0;#X border 1;#X rounded 0;#X shadow 0;#X done;#P connect 42 0 5 0;#P connect 5 0 6 0;#P connect 6 0 7 0;#P fasten 10 1 1 0 180 176 21 176;#P fasten 4 0 1 0 132 176 21 176;#P connect 7 0 1 0;#P fasten 9 0 8 0 84 116 44 116;#P connect 8 0 7 1;#P connect 49 0 48 0;#P lcolor 7;#P connect 48 0 47 0;#P lcolor 7;#P fasten 42 0 9 0 21 62 84 62;#P connect 9 1 10 0;#P connect 10 0 4 0;#P connect 29 0 30 0;#P connect 30 0 43 0;#P fasten 33 0 43 0 217 538 154 538;#P fasten 36 0 28 0 217 396 155 396;#P fasten 30 0 28 0 154 499 137 499 137 396 155 396;#P connect 28 0 29 0;#P fasten 40 0 21 0 239 231 271 231 271 186 217 186;#P fasten 16 0 21 0 320 186 217 186;#P connect 21 0 22 0;#P connect 22 0 20 0;#P fasten 41 0 3 0 255 313 217 313;#P fasten 23 0 3 0 309 313 217 313;#P connect 20 0 3 0;#P fasten 24 0 2 0 291 340 217 340;#P fasten 12 0 2 0 338 340 217 340;#P connect 3 0 2 0;#P connect 2 0 36 0;#P fasten 27 0 33 0 278 498 217 498;#P connect 36 0 33 0;#P fasten 30 0 33 0 154 498 217 498;#P connect 21 1 40 0;#P fasten 34 0 33 1 372 502 241 502;#P connect 22 1 45 0;#P fasten 45 1 41 0 272 286 255 286;#P fasten 35 0 33 2 396 506 265 506;#P fasten 27 0 25 0 278 498 354 498 354 396 278 396;#P fasten 36 0 25 0 217 396 278 396;#P connect 25 0 26 0;#P connect 26 0 27 0;#P fasten 33 1 44 0 265 535 278 535;#P connect 27 0 44 0;#P connect 22 2 39 0;#P connect 39 0 24 0;#P fasten 45 0 24 0 254 281 291 281;#P connect 39 1 23 0;#P connect 38 0 19 0;#P connect 19 0 18 0;#P connect 18 0 31 0;#P connect 31 0 32 0;#P connect 32 0 17 0;#P connect 17 0 16 0;#P connect 16 1 14 0;#P connect 14 0 15 0;#P connect 15 0 13 0;#P connect 13 0 11 0;#P connect 11 0 12 0;#P fasten 37 0 34 0 372 452 372 452;#P fasten 37 0 35 0 372 451 396 451;#P pop;