max v2;#N vpatcher 82 45 604 492;#P origin 0 -18;#P message 410 283 23 196617 0.5;#P button 410 263 15 0;#P newex 350 240 70 196617 split 0.03 0.5;#P newex 50 63 55 196617 send~ stim;#P toggle 296 88 15 0;#P newex 296 109 33 196617 gate~;#P message 223 247 14 196617 0;#P newex 31 114 81 196617 r mute_bell.larg;#B color 6;#P message 31 139 45 196617 mute \$1;#B color 6;#P newex 31 169 50 196617 thispoly~;#B color 6;#P user panel 7 100 126 103;#X brgb 131 255 70;#X frgb 0 0 0;#X border 1;#X rounded 10;#X shadow 5;#X done;#P newex 227 393 35 196617 out~ 2;#P newex 122 393 35 196617 out~ 1;#P message 387 82 14 196617 1;#P newex 387 56 31 196617 r init;#B color 14;#P newex 122 21 31 196617 in~ 1;#P newex 319 89 55 196617 tapout~ 50;#P newex 319 69 51 196617 tapin~ 50;#P button 223 226 15 0;#P message 138 261 14 196617 1;#P message 296 253 17 196617 0.;#P newex 296 217 64 196617 split 0. 0.03;#P newex 196 287 66 196617 counter 1 4;#P message 196 311 51 196617 target \$1;#P newex 167 287 27 196617 i;#P newex 138 236 69 196617 t b b b;#P newex 296 186 33 196617 * 10.;#P newex 138 203 81 196617 sel 63 60 57 56;#P toggle 387 105 15 0;#P newex 387 127 50 196617 metro 30;#P newex 296 133 29 196617 abs~;#P newex 296 161 30 196617 avg~;#P newex 138 171 56 196617 t i i;#P newex 138 147 40 196617 change;#P newex 138 124 38 196617 Lround;#P newex 138 95 53 196617 fiddle~;#P newex 122 368 115 196617 poly~ aftertaste.largo 4;#P connect 29 0 28 0;#P lcolor 7;#P connect 28 0 27 0;#P fasten 21 0 33 0 127 50 55 50;#P fasten 13 0 0 0 201 336 127 336;#P connect 0 0 24 0;#P fasten 21 0 1 0 127 66 143 66;#P connect 1 0 2 0;#P connect 2 0 3 0;#P connect 3 0 4 0;#P connect 4 0 9 0;#P fasten 9 3 11 0 194 228 143 228;#P fasten 9 2 11 0 177 228 143 228;#P fasten 9 1 11 0 160 228 143 228;#P connect 9 0 11 0;#P connect 11 0 17 0;#P connect 11 1 12 0;#P fasten 36 0 0 1 415 343 179 343;#P fasten 34 0 0 1 355 343 179 343;#P fasten 16 0 0 1 301 343 179 343;#P fasten 4 1 12 1 189 286 189 286;#P connect 11 2 14 0;#P connect 14 0 13 0;#P fasten 9 4 18 0 211 222 228 222;#P connect 18 0 30 0;#P fasten 12 0 0 2 172 357 231 357;#P connect 0 1 25 0;#P fasten 17 0 32 0 143 279 268 279 268 73 301 73;#P fasten 30 0 32 0 228 270 268 270 268 73 301 73;#P connect 32 0 31 0;#P connect 31 0 6 0;#P fasten 7 0 5 0 392 152 301 152;#P connect 6 0 5 0;#P connect 5 0 10 0;#P connect 10 0 15 0;#P fasten 18 0 16 0 228 243 301 243;#P connect 15 0 16 0;#P fasten 21 0 19 0 127 54 324 54;#P connect 19 0 20 0;#P connect 20 0 31 1;#P connect 15 1 34 0;#P connect 22 0 23 0;#P connect 23 0 8 0;#P connect 8 0 7 0;#P connect 34 1 35 0;#P connect 35 0 36 0;#P pop;