max v2;#N vpatcher 423 64 900 559;#P origin -6 0;#P window setfont "Sans Serif" 9.;#P window linecount 1;#P newex 134 79 33 196617 * 30.;#B color 12;#N in~ 1;#P newobj 9 28 31 196617 in~ 1;#P newex 278 57 40 196617 t i i i;#B color 7;#P newex 198 431 33 196617 *~ 1.;#B color 15;#P newex 221 410 28 196617 !- 1.;#B color 15;#P newex 27 431 33 196617 *~ 1.;#B color 15;#P newex 27 375 39 196617 *~ 0.5;#P newex 221 355 38 196617 / 100.;#B color 15;#P newex 221 333 62 196617 random 100;#B color 15;#N in 2;#P newobj 68 28 25 196617 in 2;#N in 3;#P newobj 278 28 25 196617 in 3;#B color 7;#N out~ 2;#P newobj 198 458 35 196617 out~ 2;#N out~ 1;#P newobj 27 458 35 196617 out~ 1;#P newex 200 84 29 196617 !/ 1.;#B color 12;#P newex 68 84 62 196617 pipe 0. 200.;#B color 12;#P message 68 126 32 196617 0. \$1;#B color 12;#P newex 68 103 45 196617 * 6000.;#B color 12;#P newex 68 58 143 196617 t f f f;#B color 12;#P message 134 126 41 196617 \$1 200;#B color 12;#P newex 68 182 30 196617 line~;#B color 12;#P newex 68 234 33 196617 *~ 1.;#B color 12;#P newex 27 254 35 196617 noise~;#B color 12;#P button 255 192 15 6;#N coll transps;#P newobj 278 133 61 196617 coll transps;#B color 7;#N coll bases;#P newobj 341 133 53 196617 coll bases;#B color 7;#P newex 27 280 51 196617 *~ 20.;#B color 12;#P newex 278 236 74 196617 res-transform;#B color 6;#N coll z_bell;#T flags 1 0;#T store G 98. 0.01 0.5 96. 0.01 0.7 392. 1. 1. 735 1. 1. 1097.6 0.25 1. 1096. 0.25 2. 1724.8 0.5 2. 1728 0.5 2. 2352. 0.5 3. 2356. 0.5 3. 2508.8 0.5 5. 2520. 0.5 5. 2744. 0.5 8. 2760. 0.5 8. 3528. 1. 13. 3920. 0.5 4. 3940. 0.5 4. 4181.33 1. 21. 5226.660156 0.5 34. 5240. 0.5 34.;#T store Db 68. 0.5 0.5 68.6 0.5 0.5 274.4 1. 1. 588. 1. 1. 1045.33 0.25 1. 1046. 0.25 2. 1306.66 0.5 2. 1300. 0.5 2. 1568. 0.5 3. 1570. 0.5 3. 1881.6 0.5 5. 1882. 0.5 5. 2508.8 1. 8. 2744. 1. 13. 2940. 0.5 21. 3528. 0.5 34. 3920. 0.5 34.;#T store F 42.88 0.01 0.5 42. 0.01 0.7 171.5 1. 1. 326.67 1. 1. 470.4 0.25 1. 470. 0.25 2. 735. 0.5 2. 736.. 0.5 2. 882. 0.5 3. 883. 0.5 3. 1045.33 0.5 5. 1045. 0.5 5. 1097.6 0.5 8. 1098. 0.5 8. 1306.67. 1. 13. 1724.8. 0.5 4. 1881.6 1. 21. 2352. 0.5 34. 2508.8 0.5 34. 3920 0.1 34.;#T store C 65. 0.01 0.5 65.33 0.01 0.7 261.3 1. 1. 588. 1. 1. 735. 0.25 1. 736. 0.25 1. 1097.6 0.5 2. 1098. 0.5 2. 1306.67 0.5 3. 1310. 0.5 3. 1568. 0.5 5. 1570. 0.5 5. 1881.6 0.5 8. 1882. 0.5 8. 2508.8 0.5 13. 2520. 0.5 13. 3528. 1. 21. 3528. 0.5 34. 3920. 0.5 24.;#T store Dd 68. 0.01 0.5 68.6 0.01 0.5 274.4 1. 1.;#T 1 98. 1. 4. 107.8 1. 4. 117.6 1. 4. 147. 1. 4. 156.8 1. 4. 171.5 1. 4. 183.75 1. 4. 220.5 1. 4. 245. 1. 4. 261.33 1. 4. 274.4 1. 4. 326.67 1. 4.;#T 2 98. 1. 4. 183.75 1. 4. 274.4 1. 4. 431.2 1. 4. 588. 1. 4. 627.2 1. 4. 686. 1. 4. 882. 1. 4. 980. 1. 4. 1045.32 1. 4. 1306.68 1. 4.;#T 3 98. 1. 1. 183.75 1. 1. 274.4 1. 1. 431.2 1. 2. 588. 1. 3. 627.2 1. 5. 686. 1. 8. 882. 1. 13. 980. 1. 4. 1045.32 1. 21. 1306.68 1. 34.;#T 4 24.5 0.1 0.5 24. 0.1 0.5 98. 1. 1. 183.75 1. 1. 274.4 1. 1. 431.2 1. 2. 588. 1. 3. 627.2 1. 5. 686. 1. 8. 882. 1. 13. 980. 1. 4. 1045.32 1. 21. 1306.68 1. 34.;#T 5 24.5 0.1 0.5 24. 0.1 0.7 98. 1. 1. 183.75 1. 1. 274.4 0.5 1. 274. 0.5 1. 431.2 0.5 2. 431. 0.5 2. 588. 0.5 3. 589. 0.5 3. 627.2 0.5 5. 630. 0.5 5. 686. 1. 8. 882. 1. 13. 980. 1. 4. 1045.32 1. 21. 1306.68 0.5 34. 1310. 0.5 34.;#T 6 24.5 0.1 0.5 24. 0.1 0.7 98. 1. 1. 183.75 1. 1. 274.4 0.25 1. 274. 0.25 2. 431.2 0.5 2. 431. 0.5 2. 588. 0.5 3. 589. 0.5 3. 627.2 0.5 5. 630. 0.5 5. 686. 1. 8. 882. 1. 13. 980. 1. 4. 1045.32 1. 21. 1306.68 0.5 34. 1310. 0.5 34.;#T 7 24.5 0.01 0.5 24. 0.01 0.7 98. 1. 1. 183.75 1. 1. 274.4 0.25 1. 274. 0.25 2. 431.2 0.5 2. 432. 0.5 2. 588. 0.5 3. 589. 0.5 3. 627.2 0.5 5. 630. 0.5 5. 686. 0.5 8. 690. 0.5 8. 882. 0.5 13. 980. 0.3 4. 985. 0.3 4. 1045.32 0.5 21. 1306.68 0.5 34. 1310. 0.5 34.;#T 8 24.5 0.01 0.5 24. 0.01 0.7 98. 1. 1. 183.75 1. 1. 274.4 0.25 1. 274. 0.25 2. 431.2 0.5 2. 432. 0.5 2. 588. 0.5 3. 589. 0.5 3. 627.2 0.5 5. 630. 0.5 5. 686. 0.5 8. 690. 0.5 8.;#T 9 24.5 0.01 0.5 24. 0.01 0.7 98. 1. 1. 183.75 1. 1. 274.4 0.25 1. 274. 0.25 2. 431.2 0.5 2. 432. 0.5 2. 588. 0.5 3. 589. 0.5 3. 627.2 0.2 5. 630. 0.2 5. 686. 0.05 8. 690. 0.05 8.;#T 67 98. 0.01 0.5 96. 0.01 0.7 392. 1. 1. 735 1. 1. 1097.6 0.25 1. 1096. 0.25 2. 1724.8 0.5 2. 1728 0.5 2. 2352. 0.5 3. 2356. 0.5 3. 2508.8 0.5 5. 2520. 0.5 5. 2744. 0.5 8. 2760. 0.5 8. 3528. 1. 13. 3920. 0.5 4. 3940. 0.5 4. 4181.33 1. 21. 5226.660156 0.5 34. 5240. 0.5 34.;#T 61 68. 0.5 0.5 68.6 0.5 0.5 274.4 1. 1. 588. 1. 1. 1045.33 0.25 1. 1046. 0.25 2. 1306.66 0.5 2. 1300. 0.5 2. 1568. 0.5 3. 1570. 0.5 3. 1881.6 0.5 5. 1882. 0.5 5. 2508.8 1. 8. 2744. 1. 13. 2940. 0.5 21. 3528. 0.5 34. 3920. 0.5 34.;#T 53 42.88 0.01 0.5 42. 0.01 0.7 171.5 1. 1. 326.67 1. 1. 470.4 0.25 1. 470. 0.25 2. 735. 0.5 2. 736.. 0.5 2. 882. 0.5 3. 883. 0.5 3. 1045.33 0.5 5. 1045. 0.5 5. 1097.6 0.5 8. 1098. 0.5 8. 1306.67. 1. 13. 1724.8. 0.5 4. 1881.6 1. 21. 2352. 0.5 34. 2508.8 0.5 34. 3920 0.1 34.;#T 60 65. 0.01 0.5 65.33 0.01 0.7 261.3 1. 1. 588. 1. 1. 735. 0.25 1. 736. 0.25 1. 1097.6 0.5 2. 1098. 0.5 2. 1306.67 0.5 3. 1310. 0.5 3. 1568. 0.5 5. 1570. 0.5 5. 1881.6 0.5 8. 1882. 0.5 8. 2508.8 0.5 13. 2520. 0.5 13. 3528. 1. 21. 3528. 0.5 34. 3920. 0.5 24.;#T 74 147. 0.01 0.5 144. 0.01 0.7 588. 1. 1. 1097.6 1. 1. 1724.8 0.25 1. 1724.8. 0.25 2. 2508.8 0.5 2. 2500. 0.5 2. 3528. 0.5 3. 3538. 0.5 3. 3920. 0.5 5. 2520. 0.5 5. 3921. 0.5 8. 2760. 0.5 8. 4390. 1. 13. 5226.7. 0.5 4. 6272. 1. 21. 7526.4 0.5 34.;#P newobj 397 133 54 196617 coll z_bell;#B color 7;#P newex 27 352 63 196617 resonators~;#P newex 200 180 50 196617 cycle~ 3.;#B color 12;#P connect 8 0 4 0;#P fasten 28 0 1 0 14 339 32 339;#P connect 4 0 1 0;#P fasten 3 0 1 0 283 325 32 325;#P connect 1 0 23 0;#P connect 23 0 24 0;#P connect 24 0 17 0;#P fasten 22 0 24 1 226 405 55 405;#P connect 20 0 12 0;#P connect 12 0 15 0;#P connect 15 0 13 0;#P connect 13 0 14 0;#P connect 14 0 10 0;#P fasten 11 0 10 0 139 161 73 161;#P connect 10 0 9 0;#P connect 9 0 4 1;#P fasten 0 0 9 1 205 215 96 215;#P connect 12 1 29 0;#P connect 29 0 11 0;#P fasten 23 0 26 0 32 399 203 399;#P connect 26 0 18 0;#P connect 12 2 16 0;#P connect 16 0 0 0;#P fasten 7 0 21 0 260 303 226 303;#P connect 21 0 22 0;#P connect 22 0 25 0;#P connect 25 0 26 1;#P fasten 6 0 7 0 283 170 260 170;#P connect 19 0 27 0;#P connect 27 0 6 0;#P fasten 7 0 3 0 260 223 283 223;#P connect 6 0 3 0;#P fasten 2 0 3 0 402 193 283 193;#P fasten 5 0 3 0 346 193 283 193;#P fasten 27 1 5 0 298 103 346 103;#P fasten 27 2 2 0 313 93 402 93;#P pop;