max v2;#N vpatcher 423 64 1027 559;#P origin -6 0;#P newex 8 170 71 196617 receive~ stim;#P button 326 88 15 0;#P message 377 106 20 196617 60;#P newex 9 28 31 196617 in~ 1;#P newex 278 57 40 196617 t i i i;#B color 7;#P newex 198 431 33 196617 *~ 1.;#B color 15;#P newex 221 380 28 196617 !- 1.;#B color 15;#P newex 27 431 33 196617 *~ 1.;#B color 15;#P newex 27 375 39 196617 *~ 0.7;#P newex 221 355 38 196617 / 100.;#B color 15;#P newex 221 333 62 196617 random 100;#B color 15;#P newex 68 28 25 196617 in 2;#P newex 278 28 25 196617 in 3;#B color 7;#P newex 198 458 35 196617 out~ 2;#P newex 27 458 35 196617 out~ 1;#P newex 68 77 33 196617 * 30.;#B color 12;#P newex 27 254 35 196617 noise~;#B color 12;#P button 255 192 15 6;#N coll transps.l;#P newobj 278 133 65 196617 coll transps.l;#B color 7;#N coll bases.l;#P newobj 345 133 58 196617 coll bases.l;#B color 7;#P newex 27 280 51 196617 *~ 20.;#B color 12;#P newex 278 236 74 196617 res-transform;#B color 6;#N coll z_bell.l;#P newobj 406 133 60 196617 coll z_bell.l;#B color 7;#P newex 27 352 63 196617 resonators~;#P connect 7 0 3 0;#P fasten 23 0 0 0 13 351 32 351;#P fasten 2 0 0 0 283 325 32 325;#P connect 3 0 0 0;#P fasten 20 0 0 0 14 339 32 339;#P connect 0 0 15 0;#P connect 15 0 16 0;#P connect 16 0 9 0;#P fasten 14 0 16 1 226 405 55 405;#P connect 12 0 8 0;#P connect 8 0 3 1;#P fasten 15 0 18 0 32 399 203 399;#P connect 18 0 10 0;#P fasten 6 0 13 0 260 303 226 303;#P connect 13 0 14 0;#P connect 14 0 17 0;#P connect 17 0 18 1;#P fasten 5 0 6 0 283 170 260 170;#P connect 11 0 19 0;#P connect 19 0 5 0;#P fasten 1 0 2 0 411 193 283 193;#P fasten 6 0 2 0 260 223 283 223;#P connect 5 0 2 0;#P fasten 4 0 2 0 350 193 283 193;#P connect 19 2 22 0;#P connect 21 0 4 0;#P connect 22 0 21 0;#P connect 21 0 1 0;#P pop;