max v2;#N vpatcher 70 116 1010 674;#P origin -1 -14;#P message 62 328 14 196617 4;#P message 45 328 14 196617 3;#P message 15 328 14 196617 1;#P newex 15 295 30 196617 sel 0;#P newex 15 274 35 196617 r shuf;#N vpatcher 40 55 731 460;#P origin 0 -18;#P newex 245 21 35 196617 r shuf;#P newex 245 41 30 196617 sel 1;#P newex 439 235 31 196617 r init;#B color 14;#P outlet 225 341 15 0;#P outlet 24 339 15 0;#P inlet 41 54 15 0;#P inlet 24 54 15 0;#P newex 225 309 208 196617 biquad~ 0.0043 0. -0.0043 -1.9912 0.9914;#P flonum 420 213 82 9 0 0 0 3 0 0 0 221 221 221 222 222 222 0 0 0;#P message 420 158 95 196617 0.9914 \, 0.8713 \$1;#P newex 420 187 40 196617 line 0.;#P flonum 292 212 82 9 0 0 0 3 0 0 0 221 221 221 222 222 222 0 0 0;#P message 292 157 105 196617 -1.9912 \, -1.8248 \$1;#P newex 292 186 40 196617 line 0.;#P flonum 177 214 82 9 0 0 0 3 0 0 0 221 221 221 222 222 222 0 0 0;#P message 177 159 105 196617 -0.0043 \, -0.0643 \$1;#P newex 177 188 40 196617 line 0.;#P newex 245 111 27 196617 i;#P flonum 61 213 82 9 0 0 0 3 0 0 0 221 221 221 222 222 222 0 0 0;#P message 61 158 95 196617 0.0043 \, 0.0643 \$1;#P message 449 276 171 196617 0.0643 0. -0.0643 -1.8248 0.8713;#P message 439 257 159 196617 0.0043 0. -0.0043 -1.9912 0.9914;#P newex 24 310 195 196617 biquad~ 0.0043 0. -0.0043 -1.9912 0.9914;#P newex 61 187 40 196617 line 0.;#P newex 262 90 35 196617 * 403;#P newex 262 65 55 196617 r one_beat;#P fasten 4 0 3 0 444 299 29 299;#P connect 19 0 3 0;#P connect 3 0 21 0;#P connect 8 0 6 0;#P connect 6 0 2 0;#P connect 2 0 7 0;#P connect 7 0 3 1;#P connect 11 0 3 2;#P connect 14 0 3 4;#P connect 8 0 10 0;#P connect 10 0 9 0;#P connect 9 0 11 0;#P connect 17 0 3 5;#P fasten 20 0 18 0 46 299 230 299;#P fasten 4 0 18 0 444 299 230 299;#P connect 18 0 22 0;#P connect 25 0 24 0;#P connect 24 0 8 0;#P connect 0 0 1 0;#P connect 1 0 8 1;#P connect 7 0 18 1;#P connect 8 0 13 0;#P connect 13 0 12 0;#P connect 12 0 14 0;#P connect 11 0 18 2;#P connect 14 0 18 4;#P connect 8 0 16 0;#P connect 16 0 15 0;#P connect 15 0 17 0;#P connect 17 0 18 5;#P connect 23 0 4 0;#P pop;#P newobj 16 476 55 196617 p filters;#B color 5;#N coll t26;#T flags 1 0;#T 1 set 1.;#T 2 set 1.;#T 3 set 1.167;#T 4 set 1.023;#T 5 set 1.185;#T 6 set 1.067;#T 7 set 1.;#T 8 set 1.071;#T 9 set 1.;#T 10 set 1.;#T 11 set 1.125;#T 12 set 1.;#T 13 set 1.2;#P newobj 780 287 53 196617 coll t26;#B color 13;#N coll t25;#T flags 1 0;#T 1 set 1.;#T 2 set 1.;#T 3 set 1.;#T 4 set 1.023;#T 5 set 1.185;#T 6 set 1.067;#T 7 set 1.;#T 8 set 1.071;#T 9 set 1.;#T 10 set 1.;#T 11 set 1.125;#T 12 set 1.;#T 13 set 1.2;#P newobj 780 269 53 196617 coll t25;#B color 13;#N coll t21;#T flags 1 0;#T 1 set 1.;#T 2 set 1.;#T 3 set 1.;#T 4 set 1.;#T 5 set 1.;#T 6 set 1.067;#T 7 set 1.;#T 8 set 1.071;#T 9 set 1.;#T 10 set 1.;#T 11 set 1.125;#T 12 set 1.;#T 13 set 1.2;#P newobj 780 233 53 196617 coll t21;#B color 13;#N coll t17;#T flags 1 0;#T 1 set 1.;#T 2 set 1.;#T 3 set 1.;#T 4 set 1.;#T 5 set 1.;#T 6 set 1.;#T 7 set 1.;#T 8 set 1.;#T 9 set 1.;#T 10 set 1.;#T 11 set 1.125;#T 12 set 1.;#T 13 set 1.2;#P newobj 780 197 53 196617 coll t17;#B color 13;#N coll t23;#T flags 1 0;#T 1 set 1.;#T 2 set 1.;#T 3 set 1.;#T 4 set 1.;#T 5 set 1.185;#T 6 set 1.067;#T 7 set 1.;#T 8 set 1.071;#T 9 set 1.;#T 10 set 1.;#T 11 set 1.125;#T 12 set 1.;#T 13 set 1.2;#P newobj 780 251 53 196617 coll t23;#B color 13;#N coll t19;#T flags 1 0;#T 1 set 1.;#T 2 set 1.;#T 3 set 1.;#T 4 set 1.;#T 5 set 1.;#T 6 set 1.;#T 7 set 1.;#T 8 set 1.071;#T 9 set 1.;#T 10 set 1.;#T 11 set 1.125;#T 12 set 1.;#T 13 set 1.2;#P newobj 780 215 53 196617 coll t19;#B color 13;#N coll t15;#T flags 1 0;#T 1 set 1.;#T 2 set 1.;#T 3 set 1.;#T 4 set 1.;#T 5 set 1.;#T 6 set 1.;#T 7 set 1.;#T 8 set 1.;#T 9 set 1.;#T 10 set 1.;#T 11 set 1.;#T 12 set 1.;#T 13 set 1.2;#P newobj 780 179 53 196617 coll t15;#B color 13;#N coll t27;#T flags 1 0;#T 1 set 1.;#T 2 set 1.1;#T 3 set 1.167;#T 4 set 1.023;#T 5 set 1.185;#T 6 set 1.067;#T 7 set 1.;#T 8 set 1.071;#T 9 set 1.;#T 10 set 1.;#T 11 set 1.125;#T 12 set 1.;#T 13 set 1.2;#P newobj 780 305 53 196617 coll t27;#B color 13;#N coll t1;#T flags 1 0;#T 1 set 1.;#T 2 set 1.;#T 3 set 1.;#T 4 set 1.;#T 5 set 1.;#T 6 set 1.;#T 7 set 1.;#T 8 set 1.;#T 9 set 1.;#T 10 set 1.;#T 11 set 1.;#T 12 set 1.;#T 13 set 1.;#P newobj 780 161 53 196617 coll t1;#B color 13;#P message 201 71 14 196617 0;#N vtable 14 40 55 250 222 979716 14 v32;#T set 0 0 5 4 5 4 5 4 5 4 5 4 5 4 5;#P newobj 706 223 51 196617 table v32;#B color 6;#N vtable 14 40 55 250 222 979716 14 v31;#T set 0 0 11 11 11 9 9 4 5 4 5 4 1 1 1;#P newobj 706 205 51 196617 table v31;#B color 6;#N vtable 14 40 55 250 222 979716 14 v30;#T set 0 0 11 11 11 9 9 8 7 6 4 5 4 1 1;#P newobj 706 187 51 196617 table v30;#B color 6;#N vtable 14 40 55 250 222 979716 14 v29;#T set 0 0 11 11 11 9 9 8 7 6 3 5 4 2 1;#P newobj 706 169 51 196617 table v29;#B color 6;#N vtable 14 40 55 250 222 979716 14 v28;#T set 0 0 11 11 11 10 9 8 7 3 6 4 5 1 1;#P newobj 706 151 51 196617 table v28;#B color 6;#N vtable 14 40 55 250 222 979716 14 v27;#T set 0 0 12 11 11 10 9 8 3 7 4 6 2 5 1;#P newobj 706 133 51 196617 table v27;#B color 6;#N vtable 14 40 55 250 222 979716 14 v26;#T set 0 0 13 12 11 10 9 3 8 4 7 2 6 5 1;#P newobj 633 348 51 196617 table v26;#B color 6;#N vtable 14 41 56 251 223 979716 14 v25;#T set 0 0 13 12 11 10 3 9 4 8 2 7 5 6 1;#P newobj 633 330 51 196617 table v25;#B color 6;#N vtable 14 280 60 490 227 979716 14 v24;#T set 0 0 13 12 11 3 10 4 9 2 5 8 1 7 6;#P newobj 633 312 51 196617 table v24;#B color 6;#N vtable 14 41 53 251 220 979716 14 v23;#T set 0 0 13 12 3 11 4 10 3 9 5 1 8 6 5;#P newobj 633 294 51 196617 table v23;#B color 6;#N vtable 14 268 51 478 218 979716 14 v22;#T set 0 0 13 6 12 2 11 7 10 1 9 8 4 5 3;#P newobj 633 276 51 196617 table v22;#B color 6;#N vtable 14 40 55 250 222 979716 14 v21;#T set 0 0 6 13 2 12 7 11 1 10 8 9 4 5 3;#P newobj 633 258 51 196617 table v21;#B color 6;#N vtable 14 261 59 471 226 979716 14 v20;#T set 0 0 6 2 13 7 12 1 11 8 10 9 3 5 3;#P newobj 633 240 51 196617 table v20;#B color 6;#N vtable 14 41 55 251 222 979716 14 v19;#T set 0 0 6 2 7 13 1 12 8 11 9 10 4 5 3;#P newobj 633 222 51 196617 table v19;#B color 6;#N vtable 14 276 62 486 229 979716 14 v18;#T set 0 0 2 6 1 7 13 8 12 9 11 10 4 3 5;#P newobj 633 204 51 196617 table v18;#B color 6;#N vtable 14 40 54 250 221 979716 14 v17;#T set 0 0 5 1 6 7 8 13 9 12 10 11 3 4 2;#P newobj 633 186 51 196617 table v17;#B color 6;#N vtable 14 296 63 506 230 979716 14 v16;#T set 0 0 1 5 6 7 8 9 13 10 12 11 3 2 4;#P newobj 633 168 51 196617 table v16;#B color 6;#N vtable 14 250 70 460 237 979716 14 v15;#T set 0 0 4 5 6 7 8 9 10 13 11 12 2 3 1;#P newobj 633 150 51 196617 table v15;#B color 6;#N vtable 14 41 55 251 222 979716 14 v14;#T set 0 0 4 5 6 7 8 9 10 11 13 12 2 1 3;#P newobj 633 132 51 196617 table v14;#B color 6;#P message 212 23 17 196617 0.;#P newex 94 19 35 196617 r shuf;#P newex 344 113 55 196617 r shuf_rec;#P message 313 437 45 196617 mute \$1;#P newex 313 413 63 196617 r mute_shuf;#P newex 313 461 50 196617 thispoly~;#P newex 142 509 35 196617 out~ 2;#B color 5;#P newex 97 509 35 196617 out~ 1;#B color 5;#P newex 196 316 50 196617 unpack i i;#B color 2;#P newex 64 191 40 196617 pack i i;#B color 2;#P message 182 68 14 196617 1;#N vtable 14 40 55 250 222 979716 14 end;#T set 0 0 5 4 5 4 5 4 5 4 5 4 5 4 5;#P newobj 632 75 48 196617 table end;#B color 6;#P newex 143 51 39 196617 * 0.95;#B color 6;#P newex 190 366 31 196617 r init;#B color 14;#P message 214 405 26 196617 106;#P message 190 405 20 196617 60;#P newex 166 436 58 196617 brite_rev~;#B color 5;#P number 166 152 35 9 0 0 0 3 0 0 0 221 221 221 222 222 222 0 0 0;#N vpatcher 388 172 792 559;#P origin 0 -117;#P newex 33 68 40 196617 t b b b;#P newex 33 48 30 196617 sel 1;#P message 135 86 14 196617 0;#P message 112 86 14 196617 1;#P newex 112 66 31 196617 r init;#P toggle 112 105 15 0;#P newex 112 124 27 196617 gate;#P newex 33 21 55 196617 r shuf_end;#P newex 221 243 45 196617 s transp;#P newex 221 197 28 196617 t b s;#P message 221 222 85 196617 refer t0;#P newex 221 175 104 196617 sprintf set refer t%s;#N comlet to multislider;#P outlet 112 335 15 0;#N comlet to splits;#P outlet 33 335 15 0;#P inlet 129 105 15 0;#P inlet 33 212 15 0;#P newex 112 316 35 196617 thresh;#P message 112 267 31 196617 dump;#N vtable 14 40 55 250 222 979716 14 v1;#T set 0 0 9 10 11 12 13 1 2 3 4 5 6 7 8;#P newobj 112 293 51 196617 table disp;#P newex 112 247 69 196617 t b s;#P newex 112 149 27 196617 + 1;#P newex 112 197 28 196617 t b s;#P message 112 222 85 196617 refer v1;#P newex 112 175 105 196617 sprintf set refer v%s;#P message 48 105 51 196617 refer t27;#P message 33 135 53 196617 refer v32;#N vtable 14 40 55 250 222 979716 14 v1;#P newobj 33 273 55 196617 table blank;#P connect 19 0 25 0;#P connect 25 0 26 0;#P connect 26 0 1 0;#P connect 4 0 0 0;#P connect 11 0 0 0;#P connect 1 0 0 0;#P connect 0 0 13 0;#P connect 26 1 2 0;#P connect 22 0 23 0;#P connect 24 0 21 0;#P connect 23 0 21 0;#P connect 21 0 20 0;#P connect 20 0 6 0;#P connect 6 0 3 0;#P connect 3 0 5 0;#P connect 5 0 4 0;#P connect 5 1 4 0;#P connect 4 0 7 0;#P connect 7 0 9 0;#P connect 9 0 8 0;#P connect 7 1 8 0;#P connect 8 0 10 0;#P connect 10 0 14 0;#P connect 12 0 20 1;#P connect 26 2 24 0;#P fasten 6 0 15 0 117 169 226 169;#P connect 15 0 17 0;#P connect 17 1 16 0;#P connect 17 0 16 0;#P connect 2 0 18 0;#P connect 16 0 18 0;#P pop;#P newobj 94 152 68 196617 p table select;#B color 1;#N vtable 14 40 55 250 222 979716 14 v1;#P newobj 554 132 45 196617 table v1;#B color 6;#P user multiSlider 152 175 125 93 0. 13. 14 2921 15;#M frgb 255 146 8;#M brgb 219 255 209;#N vtable 14 40 55 250 222 979716 14 v13;#T set 0 0 4 5 6 7 8 9 10 11 12 13 1 2 3;#P newobj 554 348 51 196617 table v13;#B color 6;#N vtable 14 42 55 252 222 979716 14 v12;#T set 0 0 4 5 6 7 9 8 10 11 12 13 1 2 3;#P newobj 554 330 51 196617 table v12;#B color 6;#N vtable 14 40 55 250 222 979716 14 v11;#T set 0 0 4 5 6 9 7 10 8 11 12 13 1 2 3;#P newobj 554 312 51 196617 table v11;#B color 6;#N vtable 14 40 55 250 222 979716 14 v10;#T set 0 0 4 5 9 6 10 7 11 8 12 13 1 2 3;#P newobj 554 294 51 196617 table v10;#B color 6;#N vtable 14 40 55 250 222 979716 14 v9;#T set 0 0 4 9 5 10 6 11 7 12 8 13 1 2 3;#P newobj 554 276 45 196617 table v9;#B color 6;#N vtable 14 40 55 250 222 979716 14 v8;#T set 0 0 9 4 10 5 11 6 12 7 13 8 1 2 3;#P newobj 554 258 45 196617 table v8;#B color 6;#N vtable 14 40 55 250 222 979716 14 v7;#T set 0 0 9 10 4 11 5 12 6 13 7 1 8 2 3;#P newobj 554 240 45 196617 table v7;#B color 6;#N vtable 14 40 55 250 222 979716 14 v6;#T set 0 0 9 10 11 4 12 5 13 6 1 7 2 8 3;#P newobj 554 222 45 196617 table v6;#B color 6;#N vtable 14 40 55 250 222 979716 14 v5;#T set 0 0 9 10 11 12 4 13 5 1 6 2 7 3 8;#P newobj 554 204 45 196617 table v5;#B color 6;#N vtable 14 40 55 250 222 979716 14 v4;#T set 0 0 9 10 11 12 13 4 1 5 2 6 3 7 8;#P newobj 554 186 45 196617 table v4;#B color 6;#N vtable 14 40 55 250 222 979716 14 v3;#T set 0 0 9 10 11 12 13 1 4 2 5 3 6 7 8;#P newobj 554 168 45 196617 table v3;#B color 6;#N vtable 14 40 55 250 222 979716 14 v2;#T set 0 0 9 10 11 12 13 1 2 4 3 5 6 7 8;#P newobj 554 150 45 196617 table v2;#B color 6;#P number 101 125 35 9 0 0 0 3 0 0 0 221 221 221 222 222 222 0 0 0;#P newex 230 22 31 196617 r init;#B color 14;#N vtable 14 40 55 250 222 979716 14 retro;#T set 0 13 12 11 10 9 8 7 6 5 4 3 2 1 0;#P newobj 554 96 55 196617 table retro;#B color 12;#N vtable 14 40 55 250 222 979716 14 prime;#T set 0 0 1 2 3 4 5 6 7 8 9 10 11 12 13;#P newobj 554 77 59 196617 table prime;#B color 12;#P toggle 94 39 15 0;#P newex 344 276 32 196617 / 13.;#B color 6;#P newex 143 31 55 196617 r one_beat;#B color 6;#P newex 94 71 59 196617 metro 100.;#B color 6;#P newex 94 98 66 196617 counter 1 13;#B color 6;#N vpatcher 313 165 930 584;#P origin 0 -25;#P newex 217 125 31 196617 - 10.;#P newex 416 125 31 196617 - 10.;#P newex 7 125 31 196617 - 10.;#P flonum 157 122 35 9 0 0 0 3 0 0 0 221 221 221 222 222 222 0 0 0;#N coll t1;#T flags 1 0;#T 1 set 1.;#T 2 set 1.;#T 3 set 1.;#T 4 set 1.;#T 5 set 1.;#T 6 set 1.;#T 7 set 1.;#T 8 set 1.;#T 9 set 1.;#T 10 set 1.;#T 11 set 1.;#T 12 set 1.;#T 13 set 1.;#P newobj 489 106 53 196617 coll blank;#P newex 416 55 27 196617 t i i;#P newex 217 55 27 196617 t i i;#N coll t1;#T flags 1 0;#T 1 set 1.;#T 2 set 1.;#T 3 set 1.;#T 4 set 1.;#T 5 set 1.;#T 6 set 1.;#T 7 set 1.;#T 8 set 1.;#T 9 set 1.;#T 10 set 1.;#T 11 set 1.;#T 12 set 1.;#T 13 set 1.;#P newobj 290 106 53 196617 coll blank;#P newex 80 22 45 196617 r transp;#B color 4;#N coll t1;#T flags 1 0;#T 1 set 1.;#T 2 set 1.;#T 3 set 1.;#T 4 set 1.;#T 5 set 1.;#T 6 set 1.;#T 7 set 1.;#T 8 set 1.;#T 9 set 1.;#T 10 set 1.;#T 11 set 1.;#T 12 set 1.;#T 13 set 1.;#P newobj 80 106 53 196617 coll blank;#P newex 7 55 27 196617 t i i;#P newex 148 94 32 196617 + 20.;#P inlet 416 22 15 0;#P inlet 217 22 15 0;#P inlet 7 22 15 0;#P outlet 394 376 15 0;#P outlet 190 376 15 0;#P newex 290 328 39 196617 *~ 0.7;#B color 5;#P message 217 200 32 196617 0. 10;#P newex 290 304 33 196617 *~ 1.;#B color 5;#P message 313 200 32 196617 1. 10;#P newex 313 226 42 196617 line~ 0.;#P newex 217 83 27 196617 - 1;#P newex 290 248 27 196617 sig~;#P message 290 200 13 196617 1.;#P newex 217 106 39 196617 * 100.;#P newex 217 178 53 196617 delay 100;#P newex 217 155 167 196617 t b b b f;#P newex 290 278 65 196617 groove~ unit;#B color 5;#P message 416 200 32 196617 0. 10;#P newex 489 304 33 196617 *~ 1.;#B color 5;#P message 512 200 32 196617 1. 10;#P newex 512 226 42 196617 line~ 0.;#P newex 416 83 27 196617 - 1;#P newex 489 248 27 196617 sig~;#P message 489 200 13 196617 1.;#P newex 416 106 39 196617 * 100.;#P newex 416 178 53 196617 delay 100;#P newex 416 155 157 196617 t b b b f;#P newex 489 278 65 196617 groove~ unit;#B color 5;#P message 7 200 32 196617 0. 10;#P newex 80 304 33 196617 *~ 1.;#B color 5;#P message 103 200 32 196617 1. 10;#P newex 103 226 42 196617 line~ 0.;#P newex 7 83 27 196617 - 1;#P newex 80 248 27 196617 sig~;#P message 80 200 17 196617 1.;#P newex 7 106 39 196617 * 100.;#P newex 7 178 53 196617 delay 100;#P newex 7 155 163 196617 t b b b f;#P newex 80 278 65 196617 groove~ unit;#B color 5;#P newex 148 22 55 196617 r one_beat;#B color 7;#P connect 37 0 41 0;#P connect 41 0 7 0;#P connect 7 0 4 0;#P connect 4 0 49 0;#P connect 49 0 2 0;#P connect 2 0 3 0;#P connect 3 0 11 0;#P fasten 0 0 4 1 153 51 41 51;#P lcolor 8;#P fasten 40 0 3 1 153 149 55 149;#P connect 43 0 42 0;#P lcolor 5;#P fasten 41 1 42 0 29 79 85 79;#P connect 2 2 5 0;#P connect 42 0 5 0;#P connect 5 0 6 0;#P connect 6 0 1 0;#P fasten 2 3 1 0 165 268 85 268;#P connect 1 0 10 0;#P connect 2 1 9 0;#P connect 9 0 8 0;#P fasten 11 0 8 0 12 220 108 220;#P connect 8 0 10 1;#P connect 0 0 40 0;#P lcolor 8;#P connect 40 0 48 0;#P connect 34 0 35 0;#P connect 10 0 35 0;#P connect 38 0 45 0;#P connect 45 0 29 0;#P connect 29 0 26 0;#P connect 26 0 51 0;#P connect 51 0 24 0;#P connect 24 0 25 0;#P connect 25 0 33 0;#P fasten 0 0 26 1 153 51 251 51;#P lcolor 8;#P fasten 40 0 25 1 153 149 265 149;#P fasten 43 0 44 0 85 47 295 47;#P lcolor 5;#P fasten 45 1 44 0 239 77 295 77;#P connect 24 2 27 0;#P connect 44 0 27 0;#P connect 27 0 28 0;#P connect 28 0 23 0;#P fasten 24 3 23 0 378 270 295 270;#P connect 23 0 32 0;#P connect 32 0 34 0;#P connect 24 1 31 0;#P connect 31 0 30 0;#P fasten 33 0 30 0 222 218 318 218;#P connect 30 0 32 1;#P connect 34 0 36 0;#P connect 21 0 36 0;#P connect 39 0 46 0;#P connect 46 0 18 0;#P connect 18 0 15 0;#P connect 15 0 50 0;#P connect 50 0 13 0;#P connect 13 0 14 0;#P connect 14 0 22 0;#P fasten 0 0 15 1 153 51 450 51;#P lcolor 8;#P fasten 40 0 14 1 153 149 464 149;#P fasten 46 1 47 0 438 78 494 78;#P fasten 43 0 47 0 85 47 494 47;#P lcolor 5;#P connect 13 2 16 0;#P connect 47 0 16 0;#P connect 16 0 17 0;#P fasten 13 3 12 0 568 277 494 277;#P connect 17 0 12 0;#P connect 12 0 21 0;#P connect 13 1 20 0;#P connect 20 0 19 0;#P fasten 22 0 19 0 421 224 517 224;#P connect 19 0 21 1;#P pop;#P newobj 97 366 55 196617 p playback;#B color 5;#P newex 128 286 80 196617 route 3 7 11 13;#B color 2;#P newex 64 265 74 196617 route 1 5 9 12;#B color 2;#P message 230 70 31 196617 clear;#B color 5;#P user meter~ 420 227 500 240 100 0 168 0 104 104 104 255 153 0 255 0 0;#P toggle 344 167 15 0;#P newex 409 186 31 196617 in~ 1;#B color 5;#P newex 230 90 89 196617 buffer~ unit 5000;#B color 5;#P newex 409 302 64 196617 record~ unit;#B color 5;#P newex 344 303 55 196617 s one_beat;#B color 6;#P button 344 196 15 6;#P newex 344 253 33 196617 timer;#B color 6;#P comment 339 326 100 196617 gets beat timing from a 13-beat measure;#P comment 648 55 102 196617 transformation data:;#P comment 385 165 51 196617 recording;#P user panel 321 151 191 236;#X brgb 141 133 255;#X frgb 0 0 0;#X border 0;#X rounded 50;#X shadow 10;#X done;#P user panel 297 402 89 95;#X brgb 174 255 148;#X frgb 0 0 0;#X border 1;#X rounded 10;#X shadow 5;#X done;#P user panel 534 36 330 382;#X brgb 255 248 132;#X frgb 0 0 0;#X border 0;#X rounded 50;#X shadow 10;#X done;#P connect 90 0 91 0;#P fasten 91 0 92 0 20 320 20 320;#P connect 17 0 89 0;#P fasten 91 0 93 0 20 320 50 320;#P connect 17 1 89 1;#P fasten 91 0 94 0 20 320 67 320;#P fasten 18 0 50 0 99 122 69 122;#P connect 50 0 15 0;#P connect 58 0 22 0;#P connect 59 0 22 0;#P connect 22 0 19 0;#P connect 19 0 18 0;#P connect 18 0 41 0;#P connect 41 0 50 1;#P fasten 92 0 17 0 20 360 102 360;#P fasten 15 0 17 0 69 323 102 323;#P fasten 15 1 17 0 85 323 102 323;#P connect 15 2 17 0;#P fasten 15 3 17 0 117 323 102 323;#P connect 43 0 52 0;#P connect 17 0 52 0;#P fasten 18 0 26 0 99 120 106 120;#P fasten 94 0 17 1 67 349 124 349;#P fasten 51 1 17 1 241 349 124 349;#P fasten 49 0 18 2 187 90 127 90;#P connect 15 4 16 0;#P fasten 93 0 17 2 50 357 146 357;#P fasten 16 0 17 2 133 334 146 334;#P fasten 16 1 17 2 150 334 146 334;#P fasten 16 2 17 2 167 334 146 334;#P fasten 16 3 17 2 184 334 146 334;#P connect 43 1 53 0;#P connect 17 1 53 0;#P connect 20 0 47 0;#P connect 47 0 19 1;#P fasten 18 3 41 1 153 133 157 133;#P fasten 79 0 41 1 206 119 157 119;#P connect 41 1 39 0;#P fasten 18 3 42 0 153 133 171 133;#P fasten 17 1 43 0 147 404 171 404;#P fasten 17 0 43 0 102 404 171 404;#P fasten 25 0 49 0 235 62 187 62;#P connect 46 0 44 0;#P connect 44 0 43 1;#P connect 16 4 51 0;#P fasten 25 0 79 0 235 62 206 62;#P connect 25 0 59 0;#P fasten 46 0 45 0 195 395 219 395;#P connect 45 0 43 2;#P connect 25 0 14 0;#P connect 14 0 10 0;#P connect 55 0 56 0;#P connect 56 0 54 0;#P connect 57 0 12 0;#P connect 12 0 7 0;#P connect 7 0 6 0;#P connect 6 0 21 0;#P connect 21 0 8 0;#P connect 7 0 6 1;#P connect 11 0 9 0;#P connect 12 0 9 0;#P connect 11 0 13 0;#P pop;