max v2;
#N vpatcher 12 41 970 657;
#P window setfont "Sans Serif" 9.;
#P window linecount 1;
#P message 223 282 49 9109513 getLength;
#P message 325 577 54 9109513 0 \, mute 1;
#P message 381 559 54 9109513 1 \, mute 0;
#P newex 546 138 145 9109513 OSC-route /fade-in /fade-out;
#N in 2;
#P newobj 546 22 25 9109513 in 2;
#P newex 535 614 123 9109513 s from-ali.samplor1~.voi;
#P newex 456 625 61 9109513 prepend set;
#P newex 476 569 61 9109513 prepend set;
#P newex 259 656 45 9109513 loadbang;
#P newex 405 223 27 9109513 t f f;
#P newex 383 246 35 9109513 gate 2;
#P newex 427 270 27 9109513 + 0.;
#P newex 384 270 27 9109513 f;
#P newex 348 174 31 9109513 t 1 1;
#P newex 278 282 61 9109513 prepend set;
#P newex 215 250 40 9109513 t b b s;
#P newex 215 229 27 9109513 gate;
#P newex 416 174 53 9109513 t f f 0 2;
#P newex 247 315 94 9109513 mxj buf.Op noprobm;
#P newex 348 142 54 9109513 route 0 0.;
#P newex 126 45 50 9109513 zl slice 1;
#P newex 199 410 34 9109513 zl reg;
#P newex 419 347 27 9109513 / 1.;
#P newex 419 313 29 9109513 !- 0.;
#P toggle 392 25 15 0;
#P newex 256 42 145 9109513 print-everything into-sampler;
#P comment 161 597 38 9109513 ----->;
#P message 327 531 14 9109513 0;
#P message 344 531 14 9109513 1;
#P newex 344 506 28 9109513 t b b;
#P newex 199 570 97 9109513 fade-in-out~ 20 50;
#N out~ 1;
#P newobj 199 669 38 9109513 out~ 1;
#P newex 199 596 34 9109513 pass~;
#P newex 125 199 53 9109513 t b s b s;
#P newex 232 382 130 9109513 pack 1. 1. 1.;
#P message 199 442 54 9109513 \$1 \, \$2 \$3;
#P newex 199 466 30 9109513 line~;
#N in 1;
#P newobj 126 22 25 9109513 in 1;
#P newex 126 71 104 9109513 unpack foo 1. 1. 1. 1.;
#P newex 144 308 60 9109513 prepend set;
#P newex 381 611 50 9109513 thispoly~;
#P newex 199 549 28 9109513 *~;
#P newex 199 515 74 9109513 play~ noprobm;
#P comment 289 86 540 9109513 0 buffer-name start-time end-time play-speed gain;
#P window linecount 6;
#P comment 63 556 100 9109513 these are necessary to keep MSP from repeating the last signal vector over and over again after you mute the patch;
#P window linecount 1;
#P comment 161 574 38 9109513 ----->;
#P window linecount 4;
#P comment 26 45 100 9109513 fan-oute as opposed to a trigger to avoid stupid list/symbol confusion;
#P connect 8 0 13 0;
#P connect 9 0 26 0;
#P connect 26 1 8 0;
#P connect 13 1 7 0;
#P fasten 13 0 25 0 131 397;
#P connect 25 0 11 0;
#P connect 11 0 10 0;
#P connect 10 0 4 0;
#P fasten 7 0 4 0 149 454;
#P connect 4 0 5 0;
#P connect 5 0 16 0;
#P connect 16 0 14 0;
#P connect 14 0 15 0;
#P connect 33 0 30 0;
#P connect 29 2 30 0;
#P connect 30 0 31 0;
#P fasten 8 4 5 1 43 220 43 473;
#P connect 19 0 16 1;
#P connect 18 0 16 1;
#P connect 31 1 46 0;
#P connect 12 0 25 1;
#P connect 13 3 30 1;
#P connect 34 0 12 0;
#P fasten 36 1 12 0 413 293;
#P fasten 43 0 16 2 551 334;
#P connect 46 0 28 0;
#P connect 32 0 28 0;
#P connect 9 0 21 0;
#P fasten 43 1 16 3 618 354;
#P connect 31 2 32 0;
#P connect 28 0 12 1;
#P fasten 35 0 12 1 356 358;
#P fasten 16 2 45 0 297 597;
#P connect 10 1 19 0;
#P fasten 13 2 17 0 201 391 333 438;
#P connect 17 0 18 0;
#P connect 8 2 27 0;
#P connect 27 1 33 0;
#P connect 27 0 33 0;
#P connect 24 0 12 2;
#P connect 17 1 44 0;
#P connect 45 0 6 0;
#P connect 44 0 6 0;
#P fasten 38 0 6 0 248 621;
#P connect 33 0 36 0;
#P fasten 29 3 36 0 388 224;
#P fasten 31 0 34 0 318 232;
#P connect 36 0 34 0;
#P connect 22 0 21 1;
#P fasten 8 1 37 0 207 165;
#P connect 37 0 36 1;
#P connect 27 2 29 0;
#P connect 34 0 23 0;
#P fasten 29 1 24 0 485 314;
#P connect 23 0 24 0;
#P connect 37 1 35 0;
#P fasten 8 3 24 1 309 287;
#P fasten 28 0 23 1 320 362;
#P connect 29 0 35 1;
#P fasten 6 0 40 0 397 646;
#P connect 40 0 39 0;
#P connect 24 0 39 0;
#P connect 39 0 41 0;
#P connect 42 0 43 0;
#P pop;
