max v2;#N vpatcher 255 152 751 721;#P window setfont "Sans Serif" 9.;#P message 312 225 89 196617 10. 0.5 1000. 0.5;#P message 312 202 89 196617 10. 0.5 1000. 0.5;#P user gain~ 89 294 29 60 158 8 1.071519 7.94321 10.;#P user scope~ 243 406 373 536 256 3 128 -1. 1. 0 0. 0 0. 102 255 51 135 135 135 0;#P user scope~ 95 404 225 534 256 3 128 -1. 1. 0 0. 0 0. 102 255 51 135 135 135 0;#P button 336 102 47 0;#P newex 304 256 68 196617 prepend /coll;#P comment 134 28 130 196617 ... or from this "keyboard";#P comment 12 44 100 196617 You can play notes from MIDI...;#P comment 179 139 106 196617 Use square of midi velocity \, scaled to [0 \, 1] range \, for gain.;#P window setfont "Sans Serif" 14.;#P newex 49 259 236 196622 poly~-s-nl-d-multisample-player 5;#P toggle 19 347 26 0;#P window setfont "Sans Serif" 9.;#P newex 49 395 29 196617 dac~;#P user gain~ 49 294 29 60 158 8 1.071519 7.94321 10.;#P message 249 207 41 196617 foo.coll;#P user kslider 126 48 35 1 48 48 19 7 0 128 128 128 128 128 128 255 255 255 0 0 0 0 0 0;#N coll enghorn.coll;#P newobj 316 344 81 196617 coll enghorn.coll;#P window setfont "Sans Serif" 14.;#P newex 304 280 62 196622 multibuf;#P window setfont "Sans Serif" 9.;#P newex 49 158 40 196617 pack i i;#P newex 111 157 44 196617 select 0;#P newex 152 180 135 196617 expr $f1 * $f1 * 0.000062;#P window setfont "Sans Serif" 14.;#P flonum 152 225 47 14 0 0 0 3 0 0 0 221 221 221 222 222 222 0 0 0;#P window setfont "Sans Serif" 9.;#P newex 49 85 40 196617 notein;#N coll 158piano.coll;#P newobj 316 323 85 196617 coll 158piano.coll;#N coll enghorn-in-tune.coll;#P newobj 316 364 118 196617 coll enghorn-in-tune.coll;#P newex 121 95 92 196617 makenote 60 3000;#P comment 138 312 143 196617 test poly~-multisample-player version 1.2 \, by Matt Wright;#N vpatcher 50 40 415 386;#P window setfont "Sans Serif" 9.;#P comment 39 180 307 196617 IN NO EVENT SHALL REGENTS BE LIABLE TO ANY PARTY FOR DIRECT \, INDIRECT \, SPECIAL \, INCIDENTAL \, OR CONSEQUENTIAL DAMAGES \, INCLUDING LOST PROFITS \, ARISING OUT OF THE USE OF THIS SOFTWARE AND ITS DOCUMENTATION \, EVEN IF REGENTS HAS BEEN ADVISED OF THE POSSIBILITY OF SUCH DAMAGE.;#P comment 39 244 307 196617 REGENTS SPECIFICALLY DISCLAIMS ANY WARRANTIES \, INCLUDING \, BUT NOT LIMITED TO \, THE IMPLIED WARRANTIES OF MERCHANTABILITY AND FITNESS FOR A PARTICULAR PURPOSE. THE SOFTWARE AND ACCOMPANYING DOCUMENTATION \, IF ANY \, PROVIDED HEREUNDER IS PROVIDED "AS IS." REGENTS HAS NO OBLIGATION TO PROVIDE MAINTENANCE \, SUPPORT \, UPDATES \, ENHANCEMENTS \, OR MODIFICATIONS.;#P comment 6 151 340 196617 Written by Matt Wright \, The Center for New Music and Audio Technologies \, University of California \, Berkeley.;#P comment 5 26 341 196617 Copyright (c) 1998. The Regents of the University of California (Regents). All Rights Reserved.;#P comment 6 53 340 196617 Permission to use \, copy \, modify \, and distribute this software and its documentation for educational \, research \, and not-for-profit purposes \, without fee and without a signed licensing agreement \, is hereby granted \, provided that the above copyright notice \, this paragraph and the following two paragraphs appear in all copies \, modifications \, and distributions. Contact The Office of Technology Licensing \, UC Berkeley \, 2150 Shattuck Avenue \, Suite 510 \, Berkeley \, CA 94720-1620 \, (510) 643-7201 \, for commercial licensing opportunities.;#P pop;#P newobj 179 344 59 196617 p copyright;#P comment 334 87 62 196617 all notes off;#P user panel 124 307 161 61;#X brgb 255 255 255;#X frgb 0 0 255;#X border 4;#X rounded 40;#X shadow 0;#X done;#P connect 4 0 11 0;#P connect 7 0 11 0;#P connect 11 0 19 0;#P connect 19 0 16 0;#P connect 16 0 17 0;#P connect 18 0 17 0;#P connect 27 0 17 1;#P connect 7 1 11 1;#P connect 4 1 11 1;#P connect 19 1 27 0;#P connect 16 1 27 0;#P connect 19 0 25 0;#P connect 8 0 19 1;#P connect 4 1 10 0;#P connect 7 1 10 0;#P connect 14 0 4 0;#P connect 10 1 9 0;#P connect 9 0 8 0;#P connect 15 0 19 2;#P connect 14 1 4 1;#P connect 24 0 19 3;#P connect 19 1 26 0;#P connect 28 0 19 4;#P connect 29 0 19 4;#P connect 15 0 23 0;#P connect 23 0 12 0;#P pop;