{
	"patcher" : 	{
		"fileversion" : 1,
		"rect" : [ 235.0, 44.0, 577.0, 435.0 ],
		"bgcolor" : [ 0.87451, 0.933333, 1.0, 1.0 ],
		"bglocked" : 0,
		"defrect" : [ 235.0, 44.0, 577.0, 435.0 ],
		"openrect" : [ 0.0, 0.0, 0.0, 0.0 ],
		"openinpresentation" : 0,
		"default_fontsize" : 12.0,
		"default_fontface" : 0,
		"default_fontname" : "Arial",
		"gridonopen" : 0,
		"gridsize" : [ 15.0, 15.0 ],
		"gridsnaponopen" : 0,
		"toolbarvisible" : 1,
		"boxanimatetime" : 200,
		"imprint" : 0,
		"metadata" : [  ],
		"boxes" : [ 			{
				"box" : 				{
					"maxclass" : "comment",
					"text" : "\"stop\" to silence playback",
					"linecount" : 2,
					"id" : "obj-1",
					"fontname" : "Arial",
					"patching_rect" : [ 22.0, 169.0, 101.0, 34.0 ],
					"numinlets" : 1,
					"fontsize" : 12.0,
					"numoutlets" : 0
				}

			}
, 			{
				"box" : 				{
					"maxclass" : "message",
					"text" : "stop",
					"id" : "obj-2",
					"fontname" : "Arial",
					"patching_rect" : [ 54.0, 206.0, 33.0, 18.0 ],
					"numinlets" : 2,
					"fontsize" : 12.0,
					"numoutlets" : 1,
					"outlettype" : [ "" ]
				}

			}
, 			{
				"box" : 				{
					"maxclass" : "bpatcher",
					"id" : "obj-3",
					"lockeddragscroll" : 1,
					"patching_rect" : [ 4.0, 319.0, 134.0, 55.0 ],
					"numinlets" : 0,
					"name" : "startaudio.maxpat",
					"offset" : [ -4.0, -23.0 ],
					"numoutlets" : 1,
					"outlettype" : [ "" ],
					"args" : [  ]
				}

			}
, 			{
				"box" : 				{
					"maxclass" : "comment",
					"text" : "transpose up 1/2 tone",
					"id" : "obj-4",
					"fontname" : "Arial",
					"patching_rect" : [ 190.0, 165.0, 127.0, 20.0 ],
					"numinlets" : 1,
					"fontsize" : 12.0,
					"numoutlets" : 0
				}

			}
, 			{
				"box" : 				{
					"maxclass" : "comment",
					"text" : "transpose down 5 semitones",
					"id" : "obj-5",
					"fontname" : "Arial",
					"patching_rect" : [ 185.0, 143.0, 163.0, 20.0 ],
					"numinlets" : 1,
					"fontsize" : 12.0,
					"numoutlets" : 0
				}

			}
, 			{
				"box" : 				{
					"maxclass" : "message",
					"text" : "0.5",
					"id" : "obj-6",
					"fontname" : "Arial",
					"patching_rect" : [ 159.0, 165.0, 32.5, 18.0 ],
					"numinlets" : 2,
					"fontsize" : 12.0,
					"numoutlets" : 1,
					"outlettype" : [ "" ]
				}

			}
, 			{
				"box" : 				{
					"maxclass" : "message",
					"text" : "-5",
					"id" : "obj-7",
					"fontname" : "Arial",
					"patching_rect" : [ 149.0, 145.0, 32.5, 18.0 ],
					"numinlets" : 2,
					"fontsize" : 12.0,
					"numoutlets" : 1,
					"outlettype" : [ "" ]
				}

			}
, 			{
				"box" : 				{
					"maxclass" : "message",
					"text" : "0.",
					"id" : "obj-8",
					"fontname" : "Arial",
					"patching_rect" : [ 137.0, 119.0, 32.5, 18.0 ],
					"numinlets" : 2,
					"fontsize" : 12.0,
					"numoutlets" : 1,
					"outlettype" : [ "" ]
				}

			}
, 			{
				"box" : 				{
					"maxclass" : "newobj",
					"text" : "loadbang",
					"id" : "obj-9",
					"fontname" : "Arial",
					"patching_rect" : [ 211.0, 193.0, 60.0, 20.0 ],
					"numinlets" : 1,
					"fontsize" : 12.0,
					"numoutlets" : 1,
					"outlettype" : [ "bang" ]
				}

			}
, 			{
				"box" : 				{
					"maxclass" : "newobj",
					"text" : "buffer~ burning burning",
					"id" : "obj-10",
					"fontname" : "Arial",
					"patching_rect" : [ 374.0, 180.0, 135.0, 20.0 ],
					"numinlets" : 1,
					"fontsize" : 12.0,
					"numoutlets" : 2,
					"outlettype" : [ "float", "bang" ]
				}

			}
, 			{
				"box" : 				{
					"maxclass" : "comment",
					"text" : "read in the name of a buffer",
					"id" : "obj-11",
					"fontname" : "Arial",
					"patching_rect" : [ 373.0, 149.0, 158.0, 20.0 ],
					"numinlets" : 1,
					"fontsize" : 12.0,
					"numoutlets" : 0
				}

			}
, 			{
				"box" : 				{
					"maxclass" : "message",
					"text" : "burning",
					"id" : "obj-12",
					"fontname" : "Arial",
					"patching_rect" : [ 211.0, 219.0, 73.0, 25.0 ],
					"numinlets" : 2,
					"fontsize" : 18.0,
					"numoutlets" : 1,
					"outlettype" : [ "" ]
				}

			}
, 			{
				"box" : 				{
					"maxclass" : "flonum",
					"id" : "obj-13",
					"fontname" : "Arial",
					"bgcolor" : [ 0.866667, 0.866667, 0.866667, 1.0 ],
					"triscale" : 0.9,
					"patching_rect" : [ 137.0, 204.0, 58.0, 27.0 ],
					"mouseup" : 1,
					"htextcolor" : [ 0.870588, 0.870588, 0.870588, 1.0 ],
					"numinlets" : 1,
					"fontsize" : 18.0,
					"numoutlets" : 2,
					"outlettype" : [ "float", "bang" ]
				}

			}
, 			{
				"box" : 				{
					"maxclass" : "comment",
					"text" : "a float in the left inlet plays the buffer transposed by the number of semitones you specify",
					"id" : "obj-14",
					"fontname" : "Arial",
					"patching_rect" : [ 26.0, 95.0, 483.0, 20.0 ],
					"numinlets" : 1,
					"fontsize" : 12.0,
					"numoutlets" : 0
				}

			}
, 			{
				"box" : 				{
					"maxclass" : "newobj",
					"text" : "playbuf~",
					"id" : "obj-15",
					"fontname" : "Arial",
					"patching_rect" : [ 137.0, 249.0, 56.0, 20.0 ],
					"color" : [ 1.0, 0.890196, 0.090196, 1.0 ],
					"numinlets" : 2,
					"fontsize" : 12.0,
					"numoutlets" : 1,
					"outlettype" : [ "signal" ]
				}

			}
, 			{
				"box" : 				{
					"maxclass" : "bpatcher",
					"id" : "obj-16",
					"lockeddragscroll" : 1,
					"patching_rect" : [ 13.0, 13.0, 511.0, 76.0 ],
					"numinlets" : 0,
					"name" : "banner.maxpat",
					"offset" : [ -18.0, -68.0 ],
					"numoutlets" : 0,
					"args" : [ "playbuf~", "simple buffer playback with easy transposition in fractionalsemitones" ]
				}

			}
, 			{
				"box" : 				{
					"maxclass" : "bpatcher",
					"id" : "obj-17",
					"patching_rect" : [ 263.0, 319.0, 296.0, 95.0 ],
					"numinlets" : 0,
					"name" : "badge.maxpat",
					"numoutlets" : 0,
					"args" : [ "playbuf.help", "1.alpha", "Campion" ]
				}

			}
, 			{
				"box" : 				{
					"maxclass" : "gain~",
					"id" : "obj-19",
					"bgcolor" : [ 1.0, 0.890196, 0.090196, 1.0 ],
					"patching_rect" : [ 138.0, 297.0, 26.0, 81.0 ],
					"numinlets" : 2,
					"orientation" : 2,
					"numoutlets" : 2,
					"stripecolor" : [ 0.66667, 0.66667, 0.66667, 1.0 ],
					"outlettype" : [ "signal", "int" ]
				}

			}
, 			{
				"box" : 				{
					"maxclass" : "newobj",
					"text" : "dac~",
					"id" : "obj-20",
					"fontname" : "Arial",
					"patching_rect" : [ 137.0, 398.0, 37.0, 20.0 ],
					"numinlets" : 2,
					"fontsize" : 12.0,
					"numoutlets" : 0
				}

			}
, 			{
				"box" : 				{
					"maxclass" : "comment",
					"text" : "play at original rate",
					"id" : "obj-22",
					"fontname" : "Arial",
					"patching_rect" : [ 174.0, 119.0, 112.0, 20.0 ],
					"numinlets" : 1,
					"fontsize" : 12.0,
					"numoutlets" : 0
				}

			}
 ],
		"lines" : [ 			{
				"patchline" : 				{
					"source" : [ "obj-2", 0 ],
					"destination" : [ "obj-15", 0 ],
					"hidden" : 0,
					"midpoints" : [  ]
				}

			}
, 			{
				"patchline" : 				{
					"source" : [ "obj-13", 0 ],
					"destination" : [ "obj-15", 0 ],
					"hidden" : 0,
					"midpoints" : [  ]
				}

			}
, 			{
				"patchline" : 				{
					"source" : [ "obj-15", 0 ],
					"destination" : [ "obj-19", 0 ],
					"hidden" : 0,
					"midpoints" : [  ]
				}

			}
, 			{
				"patchline" : 				{
					"source" : [ "obj-12", 0 ],
					"destination" : [ "obj-15", 1 ],
					"hidden" : 0,
					"midpoints" : [  ]
				}

			}
, 			{
				"patchline" : 				{
					"source" : [ "obj-9", 0 ],
					"destination" : [ "obj-12", 0 ],
					"hidden" : 0,
					"midpoints" : [  ]
				}

			}
, 			{
				"patchline" : 				{
					"source" : [ "obj-19", 0 ],
					"destination" : [ "obj-20", 1 ],
					"hidden" : 0,
					"midpoints" : [ 147.5, 377.0, 164.5, 377.0 ]
				}

			}
, 			{
				"patchline" : 				{
					"source" : [ "obj-3", 0 ],
					"destination" : [ "obj-20", 0 ],
					"hidden" : 0,
					"midpoints" : [ 13.5, 379.0, 146.5, 379.0 ]
				}

			}
, 			{
				"patchline" : 				{
					"source" : [ "obj-19", 0 ],
					"destination" : [ "obj-20", 0 ],
					"hidden" : 0,
					"midpoints" : [  ]
				}

			}
, 			{
				"patchline" : 				{
					"source" : [ "obj-8", 0 ],
					"destination" : [ "obj-13", 0 ],
					"hidden" : 0,
					"midpoints" : [  ]
				}

			}
, 			{
				"patchline" : 				{
					"source" : [ "obj-7", 0 ],
					"destination" : [ "obj-13", 0 ],
					"hidden" : 0,
					"midpoints" : [  ]
				}

			}
, 			{
				"patchline" : 				{
					"source" : [ "obj-6", 0 ],
					"destination" : [ "obj-13", 0 ],
					"hidden" : 0,
					"midpoints" : [  ]
				}

			}
 ]
	}

}
