{
	"patcher" : 	{
		"fileversion" : 1,
		"rect" : [ 168.0, 44.0, 825.0, 737.0 ],
		"bgcolor" : [ 0.870588, 0.929412, 1.0, 1.0 ],
		"bglocked" : 0,
		"defrect" : [ 168.0, 44.0, 825.0, 737.0 ],
		"openrect" : [ 0.0, 0.0, 0.0, 0.0 ],
		"openinpresentation" : 0,
		"default_fontsize" : 12.0,
		"default_fontface" : 0,
		"default_fontname" : "Arial",
		"gridonopen" : 0,
		"gridsize" : [ 15.0, 15.0 ],
		"gridsnaponopen" : 0,
		"toolbarvisible" : 1,
		"boxanimatetime" : 200,
		"imprint" : 0,
		"boxes" : [ 			{
				"box" : 				{
					"maxclass" : "newobj",
					"text" : "OSC-route slash #1",
					"outlettype" : [ "", "" ],
					"fontsize" : 9.0,
					"numinlets" : 1,
					"fontname" : "Arial",
					"numoutlets" : 2,
					"patching_rect" : [ 96.0, 63.0, 99.0, 17.0 ],
					"id" : "obj-1"
				}

			}
, 			{
				"box" : 				{
					"maxclass" : "newobj",
					"text" : "r OSC",
					"outlettype" : [ "" ],
					"fontsize" : 9.0,
					"numinlets" : 0,
					"fontname" : "Arial",
					"numoutlets" : 1,
					"patching_rect" : [ 96.0, 43.0, 36.0, 17.0 ],
					"id" : "obj-2"
				}

			}
, 			{
				"box" : 				{
					"maxclass" : "message",
					"text" : "2048",
					"outlettype" : [ "" ],
					"fontsize" : 9.0,
					"numinlets" : 2,
					"fontname" : "Arial",
					"numoutlets" : 1,
					"patching_rect" : [ 512.0, 303.0, 32.0, 15.0 ],
					"id" : "obj-3"
				}

			}
, 			{
				"box" : 				{
					"maxclass" : "newobj",
					"text" : "loadbang",
					"outlettype" : [ "bang" ],
					"fontsize" : 9.0,
					"numinlets" : 1,
					"fontname" : "Arial",
					"numoutlets" : 1,
					"patching_rect" : [ 512.0, 279.0, 46.0, 17.0 ],
					"id" : "obj-4"
				}

			}
, 			{
				"box" : 				{
					"maxclass" : "message",
					"text" : "signal",
					"outlettype" : [ "" ],
					"fontsize" : 9.0,
					"numinlets" : 2,
					"fontname" : "Arial",
					"numoutlets" : 1,
					"patching_rect" : [ 19.0, 90.0, 36.0, 15.0 ],
					"id" : "obj-5"
				}

			}
, 			{
				"box" : 				{
					"maxclass" : "newobj",
					"text" : "route signal",
					"outlettype" : [ "", "" ],
					"fontsize" : 9.0,
					"numinlets" : 1,
					"fontname" : "Arial",
					"numoutlets" : 2,
					"patching_rect" : [ 19.0, 66.0, 63.0, 17.0 ],
					"id" : "obj-6"
				}

			}
, 			{
				"box" : 				{
					"maxclass" : "newobj",
					"text" : "OSC-route /shiftamt /ampvar /repeatprob /dropoutprob /feedback",
					"outlettype" : [ "", "", "", "", "", "" ],
					"fontsize" : 9.0,
					"numinlets" : 1,
					"fontname" : "Arial",
					"numoutlets" : 6,
					"patching_rect" : [ 72.0, 89.0, 316.0, 17.0 ],
					"id" : "obj-7"
				}

			}
, 			{
				"box" : 				{
					"maxclass" : "comment",
					"text" : "pitch-stutter version 1.2alpha by Joshua Kit Clayton and Michael Zbyszynski",
					"linecount" : 3,
					"fontsize" : 9.0,
					"frgb" : [ 0.0, 0.0, 0.0, 1.0 ],
					"numinlets" : 1,
					"fontname" : "Arial",
					"numoutlets" : 0,
					"patching_rect" : [ 223.0, 606.0, 167.0, 38.0 ],
					"id" : "obj-8"
				}

			}
, 			{
				"box" : 				{
					"maxclass" : "newobj",
					"text" : "uc_disclaimer",
					"fontsize" : 9.0,
					"numinlets" : 0,
					"fontname" : "Arial",
					"numoutlets" : 0,
					"patching_rect" : [ 225.0, 585.0, 73.0, 17.0 ],
					"id" : "obj-9"
				}

			}
, 			{
				"box" : 				{
					"maxclass" : "comment",
					"text" : "<-- Effect courtesy of Josh Clayton",
					"fontsize" : 9.0,
					"frgb" : [ 0.0, 0.0, 0.0, 1.0 ],
					"numinlets" : 1,
					"fontname" : "Arial",
					"numoutlets" : 0,
					"patching_rect" : [ 631.0, 442.0, 169.0, 17.0 ],
					"id" : "obj-10"
				}

			}
, 			{
				"box" : 				{
					"maxclass" : "message",
					"text" : "dropout $1",
					"outlettype" : [ "" ],
					"fontsize" : 9.0,
					"numinlets" : 2,
					"fontname" : "Arial",
					"numoutlets" : 1,
					"patching_rect" : [ 264.0, 113.0, 55.0, 15.0 ],
					"id" : "obj-11"
				}

			}
, 			{
				"box" : 				{
					"maxclass" : "message",
					"text" : "ampvar $1",
					"outlettype" : [ "" ],
					"fontsize" : 9.0,
					"numinlets" : 2,
					"fontname" : "Arial",
					"numoutlets" : 1,
					"patching_rect" : [ 136.0, 113.0, 55.0, 15.0 ],
					"id" : "obj-12"
				}

			}
, 			{
				"box" : 				{
					"maxclass" : "message",
					"text" : "repeat $1",
					"outlettype" : [ "" ],
					"fontsize" : 9.0,
					"numinlets" : 2,
					"fontname" : "Arial",
					"numoutlets" : 1,
					"patching_rect" : [ 200.0, 113.0, 52.0, 15.0 ],
					"id" : "obj-13"
				}

			}
, 			{
				"box" : 				{
					"maxclass" : "inlet",
					"outlettype" : [ "" ],
					"numinlets" : 0,
					"numoutlets" : 1,
					"patching_rect" : [ 19.0, 39.0, 15.0, 15.0 ],
					"id" : "obj-14",
					"comment" : "delay wet 0.-1."
				}

			}
, 			{
				"box" : 				{
					"maxclass" : "comment",
					"text" : "signal",
					"fontsize" : 9.0,
					"frgb" : [ 0.0, 0.0, 0.0, 1.0 ],
					"numinlets" : 1,
					"fontname" : "Arial",
					"numoutlets" : 0,
					"patching_rect" : [ 19.0, 23.0, 52.0, 17.0 ],
					"id" : "obj-15"
				}

			}
, 			{
				"box" : 				{
					"maxclass" : "outlet",
					"numinlets" : 1,
					"numoutlets" : 0,
					"patching_rect" : [ 181.0, 633.0, 15.0, 15.0 ],
					"id" : "obj-16",
					"comment" : ""
				}

			}
, 			{
				"box" : 				{
					"maxclass" : "comment",
					"text" : "feedback",
					"fontsize" : 9.0,
					"frgb" : [ 0.0, 0.0, 0.0, 1.0 ],
					"numinlets" : 1,
					"fontname" : "Arial",
					"numoutlets" : 0,
					"patching_rect" : [ 521.0, 403.0, 53.0, 17.0 ],
					"id" : "obj-17"
				}

			}
, 			{
				"box" : 				{
					"maxclass" : "newobj",
					"text" : "+~",
					"outlettype" : [ "signal" ],
					"fontsize" : 9.0,
					"numinlets" : 2,
					"fontname" : "Arial",
					"numoutlets" : 1,
					"patching_rect" : [ 181.0, 586.0, 27.0, 17.0 ],
					"id" : "obj-18"
				}

			}
, 			{
				"box" : 				{
					"maxclass" : "newobj",
					"text" : ">~ 1.",
					"outlettype" : [ "signal" ],
					"fontsize" : 9.0,
					"numinlets" : 2,
					"fontname" : "Arial",
					"numoutlets" : 1,
					"patching_rect" : [ 465.0, 419.0, 31.0, 17.0 ],
					"id" : "obj-19"
				}

			}
, 			{
				"box" : 				{
					"maxclass" : "newobj",
					"text" : "-~ 0.",
					"outlettype" : [ "signal" ],
					"fontsize" : 9.0,
					"numinlets" : 2,
					"fontname" : "Arial",
					"numoutlets" : 1,
					"patching_rect" : [ 444.0, 438.0, 31.0, 17.0 ],
					"id" : "obj-20"
				}

			}
, 			{
				"box" : 				{
					"maxclass" : "newobj",
					"text" : "+~ 0.5",
					"outlettype" : [ "signal" ],
					"fontsize" : 9.0,
					"numinlets" : 2,
					"fontname" : "Arial",
					"numoutlets" : 1,
					"patching_rect" : [ 444.0, 390.0, 38.0, 17.0 ],
					"id" : "obj-21"
				}

			}
, 			{
				"box" : 				{
					"maxclass" : "newobj",
					"text" : "tapin~ 64",
					"outlettype" : [ "tapconnect" ],
					"fontsize" : 9.0,
					"numinlets" : 1,
					"fontname" : "Arial",
					"numoutlets" : 1,
					"patching_rect" : [ 545.0, 455.0, 51.0, 17.0 ],
					"id" : "obj-22"
				}

			}
, 			{
				"box" : 				{
					"maxclass" : "newobj",
					"text" : "*~ 0.",
					"outlettype" : [ "signal" ],
					"fontsize" : 9.0,
					"numinlets" : 2,
					"fontname" : "Arial",
					"numoutlets" : 1,
					"patching_rect" : [ 545.0, 506.0, 33.0, 17.0 ],
					"id" : "obj-23"
				}

			}
, 			{
				"box" : 				{
					"maxclass" : "newobj",
					"text" : "tapout~ 16",
					"outlettype" : [ "signal" ],
					"fontsize" : 9.0,
					"numinlets" : 1,
					"fontname" : "Arial",
					"numoutlets" : 1,
					"patching_rect" : [ 545.0, 479.0, 55.0, 17.0 ],
					"id" : "obj-24"
				}

			}
, 			{
				"box" : 				{
					"maxclass" : "newobj",
					"text" : "*~ 1.",
					"outlettype" : [ "signal" ],
					"fontsize" : 9.0,
					"numinlets" : 2,
					"fontname" : "Arial",
					"numoutlets" : 1,
					"patching_rect" : [ 420.0, 536.0, 33.0, 17.0 ],
					"id" : "obj-25"
				}

			}
, 			{
				"box" : 				{
					"maxclass" : "newobj",
					"text" : "stutter~ 44100 256",
					"outlettype" : [ "signal" ],
					"fontsize" : 9.0,
					"numinlets" : 3,
					"fontname" : "Arial",
					"numoutlets" : 1,
					"patching_rect" : [ 420.0, 490.0, 100.0, 17.0 ],
					"id" : "obj-26"
				}

			}
, 			{
				"box" : 				{
					"maxclass" : "newobj",
					"text" : "p window2",
					"outlettype" : [ "signal" ],
					"fontsize" : 9.0,
					"numinlets" : 2,
					"fontname" : "Arial",
					"numoutlets" : 1,
					"patching_rect" : [ 443.0, 514.0, 55.0, 17.0 ],
					"id" : "obj-27",
					"patcher" : 					{
						"fileversion" : 1,
						"rect" : [ 401.0, 312.0, 352.0, 374.0 ],
						"bglocked" : 0,
						"defrect" : [ 401.0, 312.0, 352.0, 374.0 ],
						"openrect" : [ 0.0, 0.0, 0.0, 0.0 ],
						"openinpresentation" : 0,
						"default_fontsize" : 12.0,
						"default_fontface" : 0,
						"default_fontname" : "Arial",
						"gridonopen" : 0,
						"gridsize" : [ 15.0, 15.0 ],
						"gridsnaponopen" : 0,
						"toolbarvisible" : 1,
						"boxanimatetime" : 200,
						"imprint" : 0,
						"boxes" : [ 							{
								"box" : 								{
									"maxclass" : "inlet",
									"outlettype" : [ "" ],
									"numinlets" : 0,
									"numoutlets" : 1,
									"patching_rect" : [ 304.0, 50.0, 15.0, 15.0 ],
									"id" : "obj-1",
									"comment" : ""
								}

							}
, 							{
								"box" : 								{
									"maxclass" : "inlet",
									"outlettype" : [ "signal" ],
									"numinlets" : 0,
									"numoutlets" : 1,
									"patching_rect" : [ 179.0, 47.0, 15.0, 15.0 ],
									"id" : "obj-2",
									"comment" : "(signal/float) Phase 0-1"
								}

							}
, 							{
								"box" : 								{
									"maxclass" : "outlet",
									"numinlets" : 1,
									"numoutlets" : 0,
									"patching_rect" : [ 127.0, 101.0, 15.0, 15.0 ],
									"id" : "obj-3",
									"comment" : "windSIgnal0"
								}

							}
, 							{
								"box" : 								{
									"maxclass" : "newobj",
									"text" : "cycle~ #3wind2",
									"outlettype" : [ "signal" ],
									"fontsize" : 9.0,
									"numinlets" : 2,
									"fontname" : "Arial",
									"numoutlets" : 1,
									"patching_rect" : [ 127.0, 78.0, 81.0, 17.0 ],
									"id" : "obj-4"
								}

							}
, 							{
								"box" : 								{
									"maxclass" : "newobj",
									"text" : "buffer~ #3wind2 50",
									"outlettype" : [ "float", "bang" ],
									"fontsize" : 9.0,
									"numinlets" : 1,
									"fontname" : "Arial",
									"numoutlets" : 2,
									"patching_rect" : [ 215.0, 125.0, 100.0, 17.0 ],
									"id" : "obj-5"
								}

							}
, 							{
								"box" : 								{
									"maxclass" : "newobj",
									"text" : "patcher genWind",
									"outlettype" : [ "" ],
									"fontsize" : 9.0,
									"numinlets" : 1,
									"fontname" : "Arial",
									"numoutlets" : 1,
									"patching_rect" : [ 215.0, 82.0, 81.0, 17.0 ],
									"id" : "obj-6",
									"patcher" : 									{
										"fileversion" : 1,
										"rect" : [ 469.0, 173.0, 405.0, 421.0 ],
										"bglocked" : 0,
										"defrect" : [ 469.0, 173.0, 405.0, 421.0 ],
										"openrect" : [ 0.0, 0.0, 0.0, 0.0 ],
										"openinpresentation" : 0,
										"default_fontsize" : 12.0,
										"default_fontface" : 0,
										"default_fontname" : "Arial",
										"gridonopen" : 0,
										"gridsize" : [ 15.0, 15.0 ],
										"gridsnaponopen" : 0,
										"toolbarvisible" : 1,
										"boxanimatetime" : 200,
										"imprint" : 0,
										"boxes" : [ 											{
												"box" : 												{
													"maxclass" : "newobj",
													"text" : "split 0 255",
													"outlettype" : [ "int", "int" ],
													"fontsize" : 9.0,
													"numinlets" : 3,
													"fontname" : "Arial",
													"numoutlets" : 2,
													"patching_rect" : [ 104.0, 200.0, 58.0, 17.0 ],
													"id" : "obj-1"
												}

											}
, 											{
												"box" : 												{
													"maxclass" : "newobj",
													"text" : "expr ((512 - $i1) / 256.)",
													"outlettype" : [ "" ],
													"fontsize" : 9.0,
													"numinlets" : 1,
													"fontname" : "Arial",
													"numoutlets" : 1,
													"patching_rect" : [ 195.0, 227.0, 125.0, 17.0 ],
													"id" : "obj-2"
												}

											}
, 											{
												"box" : 												{
													"maxclass" : "newobj",
													"text" : "expr ($i1 / 256.)",
													"outlettype" : [ "" ],
													"fontsize" : 9.0,
													"numinlets" : 1,
													"fontname" : "Arial",
													"numoutlets" : 1,
													"patching_rect" : [ 104.0, 228.0, 88.0, 17.0 ],
													"id" : "obj-3"
												}

											}
, 											{
												"box" : 												{
													"maxclass" : "comment",
													"text" : "triangle",
													"fontsize" : 9.0,
													"frgb" : [ 0.0, 0.0, 0.0, 1.0 ],
													"numinlets" : 1,
													"fontname" : "Arial",
													"numoutlets" : 0,
													"patching_rect" : [ 224.0, 188.0, 100.0, 17.0 ],
													"id" : "obj-4"
												}

											}
, 											{
												"box" : 												{
													"maxclass" : "newobj",
													"text" : "Uzi 512",
													"outlettype" : [ "bang", "bang", "int" ],
													"fontsize" : 9.0,
													"numinlets" : 2,
													"fontname" : "Arial",
													"numoutlets" : 3,
													"patching_rect" : [ 74.0, 109.0, 43.0, 17.0 ],
													"id" : "obj-5"
												}

											}
, 											{
												"box" : 												{
													"maxclass" : "newobj",
													"text" : "counter 0 511",
													"outlettype" : [ "int", "", "", "int" ],
													"fontsize" : 9.0,
													"numinlets" : 5,
													"fontname" : "Arial",
													"numoutlets" : 4,
													"patching_rect" : [ 74.0, 134.0, 72.0, 17.0 ],
													"id" : "obj-6"
												}

											}
, 											{
												"box" : 												{
													"maxclass" : "button",
													"outlettype" : [ "bang" ],
													"numinlets" : 1,
													"numoutlets" : 1,
													"patching_rect" : [ 73.0, 85.0, 15.0, 15.0 ],
													"id" : "obj-7"
												}

											}
, 											{
												"box" : 												{
													"maxclass" : "inlet",
													"outlettype" : [ "" ],
													"numinlets" : 0,
													"numoutlets" : 1,
													"patching_rect" : [ 63.0, 27.0, 15.0, 15.0 ],
													"id" : "obj-8",
													"comment" : ""
												}

											}
, 											{
												"box" : 												{
													"maxclass" : "newobj",
													"text" : "pack 0 0.",
													"outlettype" : [ "" ],
													"fontsize" : 9.0,
													"numinlets" : 2,
													"fontname" : "Arial",
													"numoutlets" : 1,
													"patching_rect" : [ 74.0, 289.0, 49.0, 17.0 ],
													"id" : "obj-9"
												}

											}
, 											{
												"box" : 												{
													"maxclass" : "outlet",
													"numinlets" : 1,
													"numoutlets" : 0,
													"patching_rect" : [ 74.0, 323.0, 15.0, 15.0 ],
													"id" : "obj-10",
													"comment" : ""
												}

											}
 ],
										"lines" : [ 											{
												"patchline" : 												{
													"source" : [ "obj-1", 1 ],
													"destination" : [ "obj-2", 0 ],
													"hidden" : 0,
													"midpoints" : [  ]
												}

											}
, 											{
												"patchline" : 												{
													"source" : [ "obj-2", 0 ],
													"destination" : [ "obj-9", 1 ],
													"hidden" : 0,
													"midpoints" : [  ]
												}

											}
, 											{
												"patchline" : 												{
													"source" : [ "obj-3", 0 ],
													"destination" : [ "obj-9", 1 ],
													"hidden" : 0,
													"midpoints" : [  ]
												}

											}
, 											{
												"patchline" : 												{
													"source" : [ "obj-1", 0 ],
													"destination" : [ "obj-3", 0 ],
													"hidden" : 0,
													"midpoints" : [  ]
												}

											}
, 											{
												"patchline" : 												{
													"source" : [ "obj-6", 0 ],
													"destination" : [ "obj-1", 0 ],
													"hidden" : 0,
													"midpoints" : [  ]
												}

											}
, 											{
												"patchline" : 												{
													"source" : [ "obj-9", 0 ],
													"destination" : [ "obj-10", 0 ],
													"hidden" : 0,
													"midpoints" : [  ]
												}

											}
, 											{
												"patchline" : 												{
													"source" : [ "obj-6", 0 ],
													"destination" : [ "obj-9", 0 ],
													"hidden" : 0,
													"midpoints" : [  ]
												}

											}
, 											{
												"patchline" : 												{
													"source" : [ "obj-5", 0 ],
													"destination" : [ "obj-6", 0 ],
													"hidden" : 0,
													"midpoints" : [  ]
												}

											}
, 											{
												"patchline" : 												{
													"source" : [ "obj-7", 0 ],
													"destination" : [ "obj-5", 0 ],
													"hidden" : 0,
													"midpoints" : [  ]
												}

											}
, 											{
												"patchline" : 												{
													"source" : [ "obj-8", 0 ],
													"destination" : [ "obj-7", 0 ],
													"hidden" : 0,
													"midpoints" : [  ]
												}

											}
 ]
									}
,
									"saved_object_attributes" : 									{
										"fontface" : 0,
										"fontsize" : 12.0,
										"globalpatchername" : "",
										"default_fontface" : 0,
										"fontname" : "Arial",
										"default_fontname" : "Arial",
										"default_fontsize" : 12.0
									}

								}

							}
, 							{
								"box" : 								{
									"maxclass" : "newobj",
									"text" : "peek~ #3wind2",
									"outlettype" : [ "float" ],
									"fontsize" : 9.0,
									"numinlets" : 3,
									"fontname" : "Arial",
									"numoutlets" : 1,
									"patching_rect" : [ 215.0, 105.0, 75.0, 17.0 ],
									"id" : "obj-7"
								}

							}
, 							{
								"box" : 								{
									"maxclass" : "newobj",
									"text" : "loadbang",
									"linecount" : 2,
									"outlettype" : [ "bang" ],
									"fontsize" : 9.0,
									"numinlets" : 1,
									"fontname" : "Arial",
									"numoutlets" : 1,
									"patching_rect" : [ 215.0, 62.0, 45.0, 27.0 ],
									"id" : "obj-8"
								}

							}
, 							{
								"box" : 								{
									"maxclass" : "comment",
									"text" : "window function",
									"linecount" : 2,
									"fontsize" : 9.0,
									"frgb" : [ 0.0, 0.0, 0.0, 1.0 ],
									"numinlets" : 1,
									"fontname" : "Arial",
									"numoutlets" : 0,
									"patching_rect" : [ 146.0, 101.0, 47.0, 27.0 ],
									"id" : "obj-9"
								}

							}
 ],
						"lines" : [ 							{
								"patchline" : 								{
									"source" : [ "obj-6", 0 ],
									"destination" : [ "obj-7", 0 ],
									"hidden" : 0,
									"midpoints" : [  ]
								}

							}
, 							{
								"patchline" : 								{
									"source" : [ "obj-1", 0 ],
									"destination" : [ "obj-6", 0 ],
									"hidden" : 0,
									"midpoints" : [  ]
								}

							}
, 							{
								"patchline" : 								{
									"source" : [ "obj-8", 0 ],
									"destination" : [ "obj-6", 0 ],
									"hidden" : 0,
									"midpoints" : [  ]
								}

							}
, 							{
								"patchline" : 								{
									"source" : [ "obj-2", 0 ],
									"destination" : [ "obj-4", 1 ],
									"hidden" : 0,
									"midpoints" : [  ]
								}

							}
, 							{
								"patchline" : 								{
									"source" : [ "obj-4", 0 ],
									"destination" : [ "obj-3", 0 ],
									"hidden" : 0,
									"midpoints" : [  ]
								}

							}
 ]
					}
,
					"saved_object_attributes" : 					{
						"fontface" : 0,
						"fontsize" : 12.0,
						"globalpatchername" : "",
						"default_fontface" : 0,
						"fontname" : "Arial",
						"default_fontname" : "Arial",
						"default_fontsize" : 12.0
					}

				}

			}
, 			{
				"box" : 				{
					"maxclass" : "newobj",
					"text" : "minimum 43500.",
					"outlettype" : [ "float", "int" ],
					"fontsize" : 9.0,
					"numinlets" : 2,
					"fontname" : "Arial",
					"numoutlets" : 2,
					"patching_rect" : [ 72.0, 202.0, 84.0, 17.0 ],
					"id" : "obj-28"
				}

			}
, 			{
				"box" : 				{
					"maxclass" : "flonum",
					"outlettype" : [ "float", "bang" ],
					"triscale" : 0.9,
					"fontsize" : 9.0,
					"bgcolor" : [ 0.866667, 0.866667, 0.866667, 1.0 ],
					"htextcolor" : [ 0.870588, 0.870588, 0.870588, 1.0 ],
					"numinlets" : 1,
					"fontname" : "Arial",
					"numoutlets" : 2,
					"patching_rect" : [ 72.0, 184.0, 67.0, 17.0 ],
					"id" : "obj-29"
				}

			}
, 			{
				"box" : 				{
					"maxclass" : "flonum",
					"outlettype" : [ "float", "bang" ],
					"triscale" : 0.9,
					"fontsize" : 9.0,
					"bgcolor" : [ 0.866667, 0.866667, 0.866667, 1.0 ],
					"htextcolor" : [ 0.870588, 0.870588, 0.870588, 1.0 ],
					"numinlets" : 1,
					"fontname" : "Arial",
					"numoutlets" : 2,
					"patching_rect" : [ 325.0, 117.0, 75.0, 17.0 ],
					"id" : "obj-30"
				}

			}
, 			{
				"box" : 				{
					"maxclass" : "newobj",
					"text" : "p window",
					"outlettype" : [ "signal" ],
					"fontsize" : 9.0,
					"numinlets" : 2,
					"fontname" : "Arial",
					"numoutlets" : 1,
					"patching_rect" : [ 204.0, 459.0, 50.0, 17.0 ],
					"id" : "obj-31",
					"patcher" : 					{
						"fileversion" : 1,
						"rect" : [ 401.0, 312.0, 352.0, 374.0 ],
						"bglocked" : 0,
						"defrect" : [ 401.0, 312.0, 352.0, 374.0 ],
						"openrect" : [ 0.0, 0.0, 0.0, 0.0 ],
						"openinpresentation" : 0,
						"default_fontsize" : 12.0,
						"default_fontface" : 0,
						"default_fontname" : "Arial",
						"gridonopen" : 0,
						"gridsize" : [ 15.0, 15.0 ],
						"gridsnaponopen" : 0,
						"toolbarvisible" : 1,
						"boxanimatetime" : 200,
						"imprint" : 0,
						"boxes" : [ 							{
								"box" : 								{
									"maxclass" : "inlet",
									"outlettype" : [ "" ],
									"numinlets" : 0,
									"numoutlets" : 1,
									"patching_rect" : [ 304.0, 50.0, 15.0, 15.0 ],
									"id" : "obj-1",
									"comment" : ""
								}

							}
, 							{
								"box" : 								{
									"maxclass" : "inlet",
									"outlettype" : [ "signal" ],
									"numinlets" : 0,
									"numoutlets" : 1,
									"patching_rect" : [ 179.0, 47.0, 15.0, 15.0 ],
									"id" : "obj-2",
									"comment" : "(signal/float) Phase 0-1"
								}

							}
, 							{
								"box" : 								{
									"maxclass" : "outlet",
									"numinlets" : 1,
									"numoutlets" : 0,
									"patching_rect" : [ 127.0, 101.0, 15.0, 15.0 ],
									"id" : "obj-3",
									"comment" : "windSIgnal0"
								}

							}
, 							{
								"box" : 								{
									"maxclass" : "newobj",
									"text" : "cycle~ #3wind",
									"outlettype" : [ "signal" ],
									"fontsize" : 9.0,
									"numinlets" : 2,
									"fontname" : "Arial",
									"numoutlets" : 1,
									"patching_rect" : [ 127.0, 78.0, 75.0, 17.0 ],
									"id" : "obj-4"
								}

							}
, 							{
								"box" : 								{
									"maxclass" : "newobj",
									"text" : "buffer~ #3wind 50",
									"outlettype" : [ "float", "bang" ],
									"fontsize" : 9.0,
									"numinlets" : 1,
									"fontname" : "Arial",
									"numoutlets" : 2,
									"patching_rect" : [ 215.0, 125.0, 94.0, 17.0 ],
									"id" : "obj-5"
								}

							}
, 							{
								"box" : 								{
									"maxclass" : "newobj",
									"text" : "patcher genWind",
									"outlettype" : [ "" ],
									"fontsize" : 9.0,
									"numinlets" : 1,
									"fontname" : "Arial",
									"numoutlets" : 1,
									"patching_rect" : [ 215.0, 82.0, 81.0, 17.0 ],
									"id" : "obj-6",
									"patcher" : 									{
										"fileversion" : 1,
										"rect" : [ 375.0, 241.0, 405.0, 421.0 ],
										"bglocked" : 0,
										"defrect" : [ 375.0, 241.0, 405.0, 421.0 ],
										"openrect" : [ 0.0, 0.0, 0.0, 0.0 ],
										"openinpresentation" : 0,
										"default_fontsize" : 12.0,
										"default_fontface" : 0,
										"default_fontname" : "Arial",
										"gridonopen" : 0,
										"gridsize" : [ 15.0, 15.0 ],
										"gridsnaponopen" : 0,
										"toolbarvisible" : 1,
										"boxanimatetime" : 200,
										"imprint" : 0,
										"boxes" : [ 											{
												"box" : 												{
													"maxclass" : "newobj",
													"text" : "split 0 255",
													"outlettype" : [ "int", "int" ],
													"fontsize" : 9.0,
													"numinlets" : 3,
													"fontname" : "Arial",
													"numoutlets" : 2,
													"patching_rect" : [ 97.0, 193.0, 58.0, 17.0 ],
													"id" : "obj-1"
												}

											}
, 											{
												"box" : 												{
													"maxclass" : "newobj",
													"text" : "expr ((512 - $i1) / 256.)",
													"outlettype" : [ "" ],
													"fontsize" : 9.0,
													"numinlets" : 1,
													"fontname" : "Arial",
													"numoutlets" : 1,
													"patching_rect" : [ 188.0, 220.0, 125.0, 17.0 ],
													"id" : "obj-2"
												}

											}
, 											{
												"box" : 												{
													"maxclass" : "newobj",
													"text" : "expr ($i1 / 256.)",
													"outlettype" : [ "" ],
													"fontsize" : 9.0,
													"numinlets" : 1,
													"fontname" : "Arial",
													"numoutlets" : 1,
													"patching_rect" : [ 97.0, 221.0, 88.0, 17.0 ],
													"id" : "obj-3"
												}

											}
, 											{
												"box" : 												{
													"maxclass" : "newobj",
													"text" : "Uzi 512",
													"outlettype" : [ "bang", "bang", "int" ],
													"fontsize" : 9.0,
													"numinlets" : 2,
													"fontname" : "Arial",
													"numoutlets" : 3,
													"patching_rect" : [ 74.0, 109.0, 43.0, 17.0 ],
													"id" : "obj-4"
												}

											}
, 											{
												"box" : 												{
													"maxclass" : "newobj",
													"text" : "counter 0 511",
													"outlettype" : [ "int", "", "", "int" ],
													"fontsize" : 9.0,
													"numinlets" : 5,
													"fontname" : "Arial",
													"numoutlets" : 4,
													"patching_rect" : [ 74.0, 134.0, 72.0, 17.0 ],
													"id" : "obj-5"
												}

											}
, 											{
												"box" : 												{
													"maxclass" : "button",
													"outlettype" : [ "bang" ],
													"numinlets" : 1,
													"numoutlets" : 1,
													"patching_rect" : [ 73.0, 85.0, 15.0, 15.0 ],
													"id" : "obj-6"
												}

											}
, 											{
												"box" : 												{
													"maxclass" : "inlet",
													"outlettype" : [ "bang" ],
													"numinlets" : 0,
													"numoutlets" : 1,
													"patching_rect" : [ 63.0, 27.0, 15.0, 15.0 ],
													"id" : "obj-7",
													"comment" : ""
												}

											}
, 											{
												"box" : 												{
													"maxclass" : "newobj",
													"text" : "pack 0 0.",
													"outlettype" : [ "" ],
													"fontsize" : 9.0,
													"numinlets" : 2,
													"fontname" : "Arial",
													"numoutlets" : 1,
													"patching_rect" : [ 74.0, 289.0, 49.0, 17.0 ],
													"id" : "obj-8"
												}

											}
, 											{
												"box" : 												{
													"maxclass" : "outlet",
													"numinlets" : 1,
													"numoutlets" : 0,
													"patching_rect" : [ 74.0, 323.0, 15.0, 15.0 ],
													"id" : "obj-9",
													"comment" : ""
												}

											}
, 											{
												"box" : 												{
													"maxclass" : "comment",
													"text" : "triangle",
													"fontsize" : 9.0,
													"frgb" : [ 0.0, 0.0, 0.0, 1.0 ],
													"numinlets" : 1,
													"fontname" : "Arial",
													"numoutlets" : 0,
													"patching_rect" : [ 217.0, 181.0, 100.0, 17.0 ],
													"id" : "obj-10"
												}

											}
 ],
										"lines" : [ 											{
												"patchline" : 												{
													"source" : [ "obj-1", 1 ],
													"destination" : [ "obj-2", 0 ],
													"hidden" : 0,
													"midpoints" : [  ]
												}

											}
, 											{
												"patchline" : 												{
													"source" : [ "obj-3", 0 ],
													"destination" : [ "obj-8", 1 ],
													"hidden" : 0,
													"midpoints" : [  ]
												}

											}
, 											{
												"patchline" : 												{
													"source" : [ "obj-2", 0 ],
													"destination" : [ "obj-8", 1 ],
													"hidden" : 0,
													"midpoints" : [  ]
												}

											}
, 											{
												"patchline" : 												{
													"source" : [ "obj-1", 0 ],
													"destination" : [ "obj-3", 0 ],
													"hidden" : 0,
													"midpoints" : [  ]
												}

											}
, 											{
												"patchline" : 												{
													"source" : [ "obj-5", 0 ],
													"destination" : [ "obj-1", 0 ],
													"hidden" : 0,
													"midpoints" : [  ]
												}

											}
, 											{
												"patchline" : 												{
													"source" : [ "obj-8", 0 ],
													"destination" : [ "obj-9", 0 ],
													"hidden" : 0,
													"midpoints" : [  ]
												}

											}
, 											{
												"patchline" : 												{
													"source" : [ "obj-5", 0 ],
													"destination" : [ "obj-8", 0 ],
													"hidden" : 0,
													"midpoints" : [  ]
												}

											}
, 											{
												"patchline" : 												{
													"source" : [ "obj-4", 0 ],
													"destination" : [ "obj-5", 0 ],
													"hidden" : 0,
													"midpoints" : [  ]
												}

											}
, 											{
												"patchline" : 												{
													"source" : [ "obj-6", 0 ],
													"destination" : [ "obj-4", 0 ],
													"hidden" : 0,
													"midpoints" : [  ]
												}

											}
, 											{
												"patchline" : 												{
													"source" : [ "obj-7", 0 ],
													"destination" : [ "obj-6", 0 ],
													"hidden" : 0,
													"midpoints" : [  ]
												}

											}
 ]
									}
,
									"saved_object_attributes" : 									{
										"fontface" : 0,
										"fontsize" : 12.0,
										"globalpatchername" : "",
										"default_fontface" : 0,
										"fontname" : "Arial",
										"default_fontname" : "Arial",
										"default_fontsize" : 12.0
									}

								}

							}
, 							{
								"box" : 								{
									"maxclass" : "newobj",
									"text" : "peek~ #3wind",
									"outlettype" : [ "float" ],
									"fontsize" : 9.0,
									"numinlets" : 3,
									"fontname" : "Arial",
									"numoutlets" : 1,
									"patching_rect" : [ 215.0, 105.0, 71.0, 17.0 ],
									"id" : "obj-7"
								}

							}
, 							{
								"box" : 								{
									"maxclass" : "newobj",
									"text" : "loadbang",
									"linecount" : 2,
									"outlettype" : [ "bang" ],
									"fontsize" : 9.0,
									"numinlets" : 1,
									"fontname" : "Arial",
									"numoutlets" : 1,
									"patching_rect" : [ 215.0, 62.0, 45.0, 27.0 ],
									"id" : "obj-8"
								}

							}
, 							{
								"box" : 								{
									"maxclass" : "comment",
									"text" : "window function",
									"linecount" : 2,
									"fontsize" : 9.0,
									"frgb" : [ 0.0, 0.0, 0.0, 1.0 ],
									"numinlets" : 1,
									"fontname" : "Arial",
									"numoutlets" : 0,
									"patching_rect" : [ 146.0, 101.0, 47.0, 27.0 ],
									"id" : "obj-9"
								}

							}
 ],
						"lines" : [ 							{
								"patchline" : 								{
									"source" : [ "obj-6", 0 ],
									"destination" : [ "obj-7", 0 ],
									"hidden" : 0,
									"midpoints" : [  ]
								}

							}
, 							{
								"patchline" : 								{
									"source" : [ "obj-8", 0 ],
									"destination" : [ "obj-6", 0 ],
									"hidden" : 0,
									"midpoints" : [  ]
								}

							}
, 							{
								"patchline" : 								{
									"source" : [ "obj-1", 0 ],
									"destination" : [ "obj-6", 0 ],
									"hidden" : 0,
									"midpoints" : [  ]
								}

							}
, 							{
								"patchline" : 								{
									"source" : [ "obj-2", 0 ],
									"destination" : [ "obj-4", 1 ],
									"hidden" : 0,
									"midpoints" : [  ]
								}

							}
, 							{
								"patchline" : 								{
									"source" : [ "obj-4", 0 ],
									"destination" : [ "obj-3", 0 ],
									"hidden" : 0,
									"midpoints" : [  ]
								}

							}
 ]
					}
,
					"saved_object_attributes" : 					{
						"fontface" : 0,
						"fontsize" : 12.0,
						"globalpatchername" : "",
						"default_fontface" : 0,
						"fontname" : "Arial",
						"default_fontname" : "Arial",
						"default_fontsize" : 12.0
					}

				}

			}
, 			{
				"box" : 				{
					"maxclass" : "newobj",
					"text" : "*~ 1.",
					"outlettype" : [ "signal" ],
					"fontsize" : 9.0,
					"numinlets" : 2,
					"fontname" : "Arial",
					"numoutlets" : 1,
					"patching_rect" : [ 181.0, 483.0, 33.0, 17.0 ],
					"id" : "obj-32"
				}

			}
, 			{
				"box" : 				{
					"maxclass" : "newobj",
					"text" : "tapin~ 64",
					"outlettype" : [ "tapconnect" ],
					"fontsize" : 9.0,
					"numinlets" : 1,
					"fontname" : "Arial",
					"numoutlets" : 1,
					"patching_rect" : [ 302.0, 435.0, 51.0, 17.0 ],
					"id" : "obj-33"
				}

			}
, 			{
				"box" : 				{
					"maxclass" : "newobj",
					"text" : "*~ 0.",
					"outlettype" : [ "signal" ],
					"fontsize" : 9.0,
					"numinlets" : 2,
					"fontname" : "Arial",
					"numoutlets" : 1,
					"patching_rect" : [ 302.0, 484.0, 33.0, 17.0 ],
					"id" : "obj-34"
				}

			}
, 			{
				"box" : 				{
					"maxclass" : "newobj",
					"text" : "tapout~ 16",
					"outlettype" : [ "signal" ],
					"fontsize" : 9.0,
					"numinlets" : 1,
					"fontname" : "Arial",
					"numoutlets" : 1,
					"patching_rect" : [ 302.0, 458.0, 55.0, 17.0 ],
					"id" : "obj-35"
				}

			}
, 			{
				"box" : 				{
					"maxclass" : "newobj",
					"text" : "phasor~",
					"outlettype" : [ "signal" ],
					"fontsize" : 9.0,
					"numinlets" : 2,
					"fontname" : "Arial",
					"numoutlets" : 1,
					"patching_rect" : [ 72.0, 230.0, 44.0, 17.0 ],
					"id" : "obj-36"
				}

			}
, 			{
				"box" : 				{
					"maxclass" : "newobj",
					"text" : "* 21.533199",
					"outlettype" : [ "float" ],
					"fontsize" : 9.0,
					"numinlets" : 2,
					"fontname" : "Arial",
					"numoutlets" : 1,
					"patching_rect" : [ 72.0, 153.0, 78.0, 17.0 ],
					"id" : "obj-37"
				}

			}
, 			{
				"box" : 				{
					"maxclass" : "flonum",
					"outlettype" : [ "float", "bang" ],
					"triscale" : 0.9,
					"fontsize" : 9.0,
					"bgcolor" : [ 0.866667, 0.866667, 0.866667, 1.0 ],
					"htextcolor" : [ 0.870588, 0.870588, 0.870588, 1.0 ],
					"numinlets" : 1,
					"fontname" : "Arial",
					"numoutlets" : 2,
					"patching_rect" : [ 72.0, 113.0, 44.0, 17.0 ],
					"id" : "obj-38"
				}

			}
, 			{
				"box" : 				{
					"maxclass" : "newobj",
					"text" : "stutter~ 44100 256",
					"outlettype" : [ "signal" ],
					"fontsize" : 9.0,
					"numinlets" : 3,
					"fontname" : "Arial",
					"numoutlets" : 1,
					"patching_rect" : [ 181.0, 433.0, 100.0, 17.0 ],
					"id" : "obj-39"
				}

			}
, 			{
				"box" : 				{
					"maxclass" : "comment",
					"text" : "offset 180 deg",
					"fontsize" : 9.0,
					"frgb" : [ 0.0, 0.0, 0.0, 1.0 ],
					"numinlets" : 1,
					"fontname" : "Arial",
					"numoutlets" : 0,
					"patching_rect" : [ 417.0, 569.0, 100.0, 17.0 ],
					"id" : "obj-40"
				}

			}
, 			{
				"box" : 				{
					"maxclass" : "comment",
					"text" : "use phasor to drive two instances of the stutter~ object to perform granular processing on a live input stream. for more info on stutter~, please see stutter~.help",
					"linecount" : 9,
					"fontsize" : 9.0,
					"frgb" : [ 0.0, 0.0, 0.0, 1.0 ],
					"numinlets" : 1,
					"fontname" : "Arial",
					"numoutlets" : 0,
					"patching_rect" : [ 59.0, 412.0, 99.0, 100.0 ],
					"id" : "obj-41"
				}

			}
 ],
		"lines" : [ 			{
				"patchline" : 				{
					"source" : [ "obj-30", 0 ],
					"destination" : [ "obj-23", 1 ],
					"hidden" : 0,
					"midpoints" : [  ]
				}

			}
, 			{
				"patchline" : 				{
					"source" : [ "obj-24", 0 ],
					"destination" : [ "obj-23", 0 ],
					"hidden" : 0,
					"midpoints" : [  ]
				}

			}
, 			{
				"patchline" : 				{
					"source" : [ "obj-22", 0 ],
					"destination" : [ "obj-24", 0 ],
					"hidden" : 0,
					"midpoints" : [  ]
				}

			}
, 			{
				"patchline" : 				{
					"source" : [ "obj-25", 0 ],
					"destination" : [ "obj-22", 0 ],
					"hidden" : 0,
					"midpoints" : [ 429.5, 556.0, 607.0, 556.0, 607.0, 428.0, 554.5, 428.0 ]
				}

			}
, 			{
				"patchline" : 				{
					"source" : [ "obj-4", 0 ],
					"destination" : [ "obj-3", 0 ],
					"hidden" : 0,
					"midpoints" : [  ]
				}

			}
, 			{
				"patchline" : 				{
					"source" : [ "obj-20", 0 ],
					"destination" : [ "obj-26", 2 ],
					"hidden" : 0,
					"midpoints" : [  ]
				}

			}
, 			{
				"patchline" : 				{
					"source" : [ "obj-20", 0 ],
					"destination" : [ "obj-26", 1 ],
					"hidden" : 0,
					"midpoints" : [  ]
				}

			}
, 			{
				"patchline" : 				{
					"source" : [ "obj-19", 0 ],
					"destination" : [ "obj-20", 1 ],
					"hidden" : 0,
					"midpoints" : [  ]
				}

			}
, 			{
				"patchline" : 				{
					"source" : [ "obj-21", 0 ],
					"destination" : [ "obj-19", 0 ],
					"hidden" : 0,
					"midpoints" : [  ]
				}

			}
, 			{
				"patchline" : 				{
					"source" : [ "obj-21", 0 ],
					"destination" : [ "obj-20", 0 ],
					"hidden" : 0,
					"midpoints" : [  ]
				}

			}
, 			{
				"patchline" : 				{
					"source" : [ "obj-36", 0 ],
					"destination" : [ "obj-21", 0 ],
					"hidden" : 0,
					"midpoints" : [ 81.5, 318.0, 453.5, 318.0 ]
				}

			}
, 			{
				"patchline" : 				{
					"source" : [ "obj-27", 0 ],
					"destination" : [ "obj-25", 1 ],
					"hidden" : 0,
					"midpoints" : [  ]
				}

			}
, 			{
				"patchline" : 				{
					"source" : [ "obj-20", 0 ],
					"destination" : [ "obj-27", 0 ],
					"hidden" : 0,
					"midpoints" : [  ]
				}

			}
, 			{
				"patchline" : 				{
					"source" : [ "obj-26", 0 ],
					"destination" : [ "obj-25", 0 ],
					"hidden" : 0,
					"midpoints" : [  ]
				}

			}
, 			{
				"patchline" : 				{
					"source" : [ "obj-23", 0 ],
					"destination" : [ "obj-26", 0 ],
					"hidden" : 0,
					"midpoints" : [ 554.5, 531.0, 530.0, 531.0, 530.0, 478.0, 429.5, 478.0 ]
				}

			}
, 			{
				"patchline" : 				{
					"source" : [ "obj-13", 0 ],
					"destination" : [ "obj-26", 0 ],
					"hidden" : 0,
					"midpoints" : [  ]
				}

			}
, 			{
				"patchline" : 				{
					"source" : [ "obj-12", 0 ],
					"destination" : [ "obj-26", 0 ],
					"hidden" : 0,
					"midpoints" : [  ]
				}

			}
, 			{
				"patchline" : 				{
					"source" : [ "obj-11", 0 ],
					"destination" : [ "obj-26", 0 ],
					"hidden" : 0,
					"midpoints" : [  ]
				}

			}
, 			{
				"patchline" : 				{
					"source" : [ "obj-5", 0 ],
					"destination" : [ "obj-26", 0 ],
					"hidden" : 0,
					"midpoints" : [ 28.5, 380.0, 429.5, 380.0 ]
				}

			}
, 			{
				"patchline" : 				{
					"source" : [ "obj-3", 0 ],
					"destination" : [ "obj-26", 0 ],
					"hidden" : 0,
					"midpoints" : [  ]
				}

			}
, 			{
				"patchline" : 				{
					"source" : [ "obj-30", 0 ],
					"destination" : [ "obj-34", 1 ],
					"hidden" : 0,
					"midpoints" : [ 334.5, 358.0, 325.5, 358.0 ]
				}

			}
, 			{
				"patchline" : 				{
					"source" : [ "obj-7", 4 ],
					"destination" : [ "obj-30", 0 ],
					"hidden" : 0,
					"midpoints" : [  ]
				}

			}
, 			{
				"patchline" : 				{
					"source" : [ "obj-35", 0 ],
					"destination" : [ "obj-34", 0 ],
					"hidden" : 0,
					"midpoints" : [  ]
				}

			}
, 			{
				"patchline" : 				{
					"source" : [ "obj-33", 0 ],
					"destination" : [ "obj-35", 0 ],
					"hidden" : 0,
					"midpoints" : [  ]
				}

			}
, 			{
				"patchline" : 				{
					"source" : [ "obj-32", 0 ],
					"destination" : [ "obj-33", 0 ],
					"hidden" : 0,
					"midpoints" : [ 190.5, 522.0, 378.0, 522.0, 378.0, 427.0, 311.5, 427.0 ]
				}

			}
, 			{
				"patchline" : 				{
					"source" : [ "obj-36", 0 ],
					"destination" : [ "obj-39", 2 ],
					"hidden" : 0,
					"midpoints" : [ 81.5, 318.0, 271.5, 318.0 ]
				}

			}
, 			{
				"patchline" : 				{
					"source" : [ "obj-7", 3 ],
					"destination" : [ "obj-11", 0 ],
					"hidden" : 0,
					"midpoints" : [  ]
				}

			}
, 			{
				"patchline" : 				{
					"source" : [ "obj-36", 0 ],
					"destination" : [ "obj-39", 1 ],
					"hidden" : 0,
					"midpoints" : [ 81.5, 318.0, 231.0, 318.0 ]
				}

			}
, 			{
				"patchline" : 				{
					"source" : [ "obj-31", 0 ],
					"destination" : [ "obj-32", 1 ],
					"hidden" : 0,
					"midpoints" : [  ]
				}

			}
, 			{
				"patchline" : 				{
					"source" : [ "obj-36", 0 ],
					"destination" : [ "obj-31", 0 ],
					"hidden" : 0,
					"midpoints" : [ 81.5, 318.0, 213.5, 318.0 ]
				}

			}
, 			{
				"patchline" : 				{
					"source" : [ "obj-7", 2 ],
					"destination" : [ "obj-13", 0 ],
					"hidden" : 0,
					"midpoints" : [  ]
				}

			}
, 			{
				"patchline" : 				{
					"source" : [ "obj-25", 0 ],
					"destination" : [ "obj-18", 1 ],
					"hidden" : 0,
					"midpoints" : [ 429.5, 556.0, 198.5, 556.0 ]
				}

			}
, 			{
				"patchline" : 				{
					"source" : [ "obj-18", 0 ],
					"destination" : [ "obj-16", 0 ],
					"hidden" : 0,
					"midpoints" : [  ]
				}

			}
, 			{
				"patchline" : 				{
					"source" : [ "obj-32", 0 ],
					"destination" : [ "obj-18", 0 ],
					"hidden" : 0,
					"midpoints" : [  ]
				}

			}
, 			{
				"patchline" : 				{
					"source" : [ "obj-39", 0 ],
					"destination" : [ "obj-32", 0 ],
					"hidden" : 0,
					"midpoints" : [  ]
				}

			}
, 			{
				"patchline" : 				{
					"source" : [ "obj-34", 0 ],
					"destination" : [ "obj-39", 0 ],
					"hidden" : 0,
					"midpoints" : [ 311.5, 522.0, 294.0, 522.0, 294.0, 423.0, 190.5, 423.0 ]
				}

			}
, 			{
				"patchline" : 				{
					"source" : [ "obj-12", 0 ],
					"destination" : [ "obj-39", 0 ],
					"hidden" : 0,
					"midpoints" : [  ]
				}

			}
, 			{
				"patchline" : 				{
					"source" : [ "obj-5", 0 ],
					"destination" : [ "obj-39", 0 ],
					"hidden" : 0,
					"midpoints" : [ 28.5, 380.0, 190.5, 380.0 ]
				}

			}
, 			{
				"patchline" : 				{
					"source" : [ "obj-13", 0 ],
					"destination" : [ "obj-39", 0 ],
					"hidden" : 0,
					"midpoints" : [  ]
				}

			}
, 			{
				"patchline" : 				{
					"source" : [ "obj-11", 0 ],
					"destination" : [ "obj-39", 0 ],
					"hidden" : 0,
					"midpoints" : [  ]
				}

			}
, 			{
				"patchline" : 				{
					"source" : [ "obj-3", 0 ],
					"destination" : [ "obj-39", 0 ],
					"hidden" : 0,
					"midpoints" : [  ]
				}

			}
, 			{
				"patchline" : 				{
					"source" : [ "obj-7", 1 ],
					"destination" : [ "obj-12", 0 ],
					"hidden" : 0,
					"midpoints" : [  ]
				}

			}
, 			{
				"patchline" : 				{
					"source" : [ "obj-2", 0 ],
					"destination" : [ "obj-1", 0 ],
					"hidden" : 0,
					"midpoints" : [  ]
				}

			}
, 			{
				"patchline" : 				{
					"source" : [ "obj-28", 0 ],
					"destination" : [ "obj-36", 0 ],
					"hidden" : 0,
					"midpoints" : [  ]
				}

			}
, 			{
				"patchline" : 				{
					"source" : [ "obj-29", 0 ],
					"destination" : [ "obj-28", 0 ],
					"hidden" : 0,
					"midpoints" : [  ]
				}

			}
, 			{
				"patchline" : 				{
					"source" : [ "obj-37", 0 ],
					"destination" : [ "obj-29", 0 ],
					"hidden" : 0,
					"midpoints" : [  ]
				}

			}
, 			{
				"patchline" : 				{
					"source" : [ "obj-38", 0 ],
					"destination" : [ "obj-37", 0 ],
					"hidden" : 0,
					"midpoints" : [  ]
				}

			}
, 			{
				"patchline" : 				{
					"source" : [ "obj-7", 0 ],
					"destination" : [ "obj-38", 0 ],
					"hidden" : 0,
					"midpoints" : [  ]
				}

			}
, 			{
				"patchline" : 				{
					"source" : [ "obj-6", 1 ],
					"destination" : [ "obj-7", 0 ],
					"hidden" : 0,
					"midpoints" : [  ]
				}

			}
, 			{
				"patchline" : 				{
					"source" : [ "obj-1", 0 ],
					"destination" : [ "obj-7", 0 ],
					"hidden" : 0,
					"midpoints" : [  ]
				}

			}
, 			{
				"patchline" : 				{
					"source" : [ "obj-6", 0 ],
					"destination" : [ "obj-5", 0 ],
					"hidden" : 0,
					"midpoints" : [  ]
				}

			}
, 			{
				"patchline" : 				{
					"source" : [ "obj-14", 0 ],
					"destination" : [ "obj-6", 0 ],
					"hidden" : 0,
					"midpoints" : [  ]
				}

			}
 ]
	}

}
